<svg width="38" height="38" viewBox="0 0 38 38" fill="none" xmlns="http://www.w3.org/2000/svg">
<path d="M0.502508 17.4965C0.121158 17.8779 0.135864 18.5109 0.535353 18.9104L2.48196 20.857C2.8812 21.2562 3.51371 21.2712 3.89518 20.8904L14.3783 10.427C14.9937 9.81268 16.08 10.2839 16.1007 11.1741L16.6863 36.3817C16.6991 36.9338 17.1571 37.3918 17.7093 37.4046L20.4128 37.4674C20.9649 37.4803 21.4021 37.0431 21.3893 36.4909L20.8037 11.2834C20.7831 10.3932 21.8486 9.97192 22.4933 10.6155L33.4741 21.5776C33.8737 21.9764 34.5062 21.9909 34.8873 21.6097L36.7455 19.7515C37.1269 19.3702 37.1122 18.7372 36.7127 18.3377L18.9104 0.535351C18.5109 0.135861 17.8779 0.121156 17.4965 0.502507L0.502508 17.4965Z" fill="#0091FF"/>
</svg>
