<?xml version="1.0" encoding="utf-8"?>
<!-- Generator: Adobe Illustrator 26.0.3, SVG Export Plug-In . SVG Version: 6.00 Build 0)  -->
<svg version="1.1" id="Ebene_1" xmlns="http://www.w3.org/2000/svg" xmlns:xlink="http://www.w3.org/1999/xlink" x="0px" y="0px"
	 viewBox="0 0 612 792" style="enable-background:new 0 0 612 792;" xml:space="preserve">
<style type="text/css">
	.st0{fill:url(#SVGID_1_);}
	.st1{fill:#FFF2F9;}
	.st2{fill:#FACCE0;}
	.st3{opacity:0.8392;fill:#FACCE0;enable-background:new    ;}
	.st4{opacity:0.6588;fill:#FACCE0;enable-background:new    ;}
	.st5{opacity:0.349;fill:#FACCE0;enable-background:new    ;}
	.st6{fill:#F8859E;}
	.st7{opacity:0.3804;fill:#FACCE0;enable-background:new    ;}
	.st8{fill:url(#SVGID_00000075856311214664734760000015435291181138453923_);}
	.st9{fill:url(#SVGID_00000048486215902364148530000006653660578389682362_);}
	.st10{fill:#CEE1F5;}
	.st11{fill:#FFFFFF;}
	.st12{fill:url(#SVGID_00000150825551238692775860000006607980276042109587_);}
	.st13{fill:url(#SVGID_00000062883413483481612920000002942303575600235702_);}
	.st14{fill:url(#SVGID_00000087371668485089176920000015548812847542772125_);}
	.st15{fill:#000E2B;}
	.st16{fill:#0B2352;}
	.st17{fill:none;stroke:#405785;stroke-miterlimit:10;}
	.st18{fill:#9CB8F0;}
	.st19{fill:none;stroke:#9CB8F0;stroke-width:0.5;stroke-miterlimit:10;}
	.st20{fill:#081D47;}
	.st21{fill:#132D61;}
	.st22{fill:#0B1D40;}
	.st23{fill:#5073BA;}
	.st24{fill:#ADC9FF;}
	.st25{fill:url(#SVGID_00000000924097919755789250000015555093062114728608_);}
	.st26{fill:url(#SVGID_00000121991731944001380560000008481909106521695133_);}
	.st27{fill:#F5F6F7;}
	.st28{fill:url(#SVGID_00000023242727892253377030000007353725297269656225_);}
	.st29{fill:#0A90FD;}
	.st30{fill:#E3ECF7;}
	.st31{fill:#C7D8EB;}
	.st32{fill:#84A0BF;}
	.st33{fill:#5B80A6;}
	.st34{fill:#3A5F85;}
	.st35{fill:#304369;}
	.st36{fill:url(#SVGID_00000014598793467926204280000001885999175516768692_);}
	.st37{fill:#A2B6DE;}
	.st38{fill:url(#SVGID_00000069380582383013454200000005080420376925031818_);}
	.st39{fill:url(#SVGID_00000065047422194806417030000014473025588801184952_);}
	.st40{fill:url(#SVGID_00000072970167035287110630000012860750890945309357_);}
	.st41{fill:#BBCDF0;}
	.st42{fill:url(#SVGID_00000029723845102770154840000001361827556455869119_);}
	.st43{fill:url(#SVGID_00000026134774795210785780000000431972175372194434_);}
	.st44{fill:url(#SVGID_00000067951626106526609700000009380386431201879213_);}
	.st45{fill:url(#SVGID_00000057121875611006497940000014902786070040884370_);}
	.st46{fill:url(#SVGID_00000157305050294417516440000008031272283255498640_);}
	.st47{fill:url(#SVGID_00000033353411423044908580000012322103269695624857_);}
	.st48{fill:url(#SVGID_00000008112385339703424570000015810899849834829448_);}
	.st49{fill:#1D3057;}
	.st50{fill:url(#SVGID_00000020388315665659755990000005195894074065691830_);}
	.st51{fill:#122B5E;}
	.st52{fill:url(#SVGID_00000110460466249278507650000000720946804424069821_);}
	.st53{fill:url(#SVGID_00000016037370408090143570000010131863129160601013_);}
	.st54{fill:#405785;}
	.st55{fill:#B3CBE3;}
	.st56{fill:#33618F;}
	.st57{fill:none;stroke:#B1C3E0;stroke-width:0.5;stroke-miterlimit:10;}
	.st58{fill:url(#SVGID_00000018957428703219605150000014205356589062997939_);}
	.st59{fill:url(#SVGID_00000098204974026473812390000010079985595364254347_);}
	.st60{fill:url(#SVGID_00000118362906031194403500000016956632090055701167_);}
	.st61{fill:url(#SVGID_00000145760362286153663520000017658022122749530029_);}
	.st62{fill:#93A5C7;}
	.st63{fill:url(#SVGID_00000139266663177045894490000010413080406491776677_);}
	.st64{fill:url(#SVGID_00000105389513925544341050000016215597311055306422_);}
	.st65{fill:none;stroke:#B3CBE3;stroke-width:1;stroke-miterlimit:10.0004;}
	.st66{fill:url(#SVGID_00000067204837749077160060000006741830184464582572_);}
	.st67{fill:url(#SVGID_00000019664868641732947850000000202045320284374192_);}
	.st68{fill:url(#SVGID_00000123404198249031782820000018187222757834179242_);}
	.st69{fill:url(#SVGID_00000039842219891768699680000005091486082294750650_);}
	.st70{fill:url(#SVGID_00000043454581842416238900000014260826433477472409_);}
	.st71{fill:url(#SVGID_00000047025878891363250220000002359033255542128565_);}
	.st72{fill:url(#SVGID_00000057865518848980099900000008768636937405260956_);}
	.st73{fill:url(#SVGID_00000178903780694907725000000015061048507561687188_);}
	.st74{fill:url(#SVGID_00000137134218572767150490000004297445978653955217_);}
	.st75{fill:url(#SVGID_00000040562322813101052360000001601276085657315730_);}
	.st76{fill:url(#SVGID_00000071539505488977181170000016611772455672795271_);}
	.st77{fill:url(#SVGID_00000055670336601381942840000012233188182923680177_);}
	.st78{fill:url(#SVGID_00000007424036103300777870000000720425090090717113_);}
	.st79{fill:url(#SVGID_00000049221680304028315890000015545791615776672175_);}
	.st80{opacity:0.651;}
	.st81{fill:url(#SVGID_00000027584508176621510680000012726868930102220957_);}
	.st82{fill:#2E4B85;}
	.st83{fill:#A2C1E0;}
	.st84{fill:#5677BA;}
	.st85{fill:url(#SVGID_00000133500649314272503010000012641010758820250542_);}
	.st86{fill:url(#SVGID_00000154422397734941566460000017880131957936483987_);}
	.st87{fill:url(#SVGID_00000147215078192119910590000010174044462778033083_);}
	.st88{fill:#F3F7FD;}
	.st89{fill:#6A7A9C;}
	.st90{opacity:0.4;fill:#F2F9FF;enable-background:new    ;}
	.st91{fill:#D4E2FC;}
	.st92{fill:#E8F5FF;}
	.st93{fill:#A0B4DE;}
</style>
<g id="Layer_26">
	
		<radialGradient id="SVGID_1_" cx="341.0435" cy="-112.8616" r="71.8034" gradientTransform="matrix(1.0543 0 0 -0.1357 -14.7222 647.2647)" gradientUnits="userSpaceOnUse">
		<stop  offset="0" style="stop-color:#D3E1F0"/>
		<stop  offset="1" style="stop-color:#D3E1F0;stop-opacity:0"/>
	</radialGradient>
	<ellipse class="st0" cx="344.8" cy="662.6" rx="81.7" ry="11.5"/>
</g>
<g id="Layer_7">
	<g id="Layer_6">
		<path class="st1" d="M376.7,539.3c3.2,3.3,3.5,8.1,2.9,12.4s-2.1,8.5-1.8,12.9c0.2,3.1,1.3,6.1,1.7,9.2c0.6,5,0.1,10.1-2.7,14.5
			c-0.9,1.4-4.2,4-5.9,4.6c-7.1,2.6-9.5-3.5-14.7-1.2c-3.7,1.7-4.4,5.6-4,9.1s-0.3,6.7-2,10c-1.7,3.2-4.1,5.8-8.2,6
			c-5.4,0.2-11-0.3-14.4-3.9s-5.3-8.3-4.6-12.9c0.3-2.1,0.8-6.6,0.5-8.7c-0.5-4.2-4.1-5-7.6-7.9c-2.8-2.4-5-5.2-6.5-8.3
			c-1.5-3.1-1.5-8.2,0.3-11.2c1.9-3.2,5.8-5.4,7.1-8.8c1.8-4.8-2.4-9.6-3.2-14.5c-0.1-0.6-0.2-1.3,0.1-1.9c0.5-1,1.8-1.6,3.1-1.8
			c4.3-0.6,8.3,1.6,12.3,3c6,2.2,13,2.5,19.3,1c5.3-1.3,10.1-3.8,15.5-4.8C369.2,535.1,374.3,536.9,376.7,539.3z"/>
		<path class="st2" d="M381.9,529.1c0,0,1.4,14.8-4.2,18.9c-3.2,2.4-7.1,1.6-9.5,0.4c-2.5-1.2-5.1-1.3-7-0.2c-3.2,2-3.7,4.7-4.1,7.4
			c-0.4,2.7-2.2,8-8.9,8.4c-6.6,0.4-8.5-4.2-9.2-6.8s-3.4-10.1-9.9-9.2c-7,1-9.5,1.2-13-2.3c-4.1-4.2-3.4-10.1-3.4-10.1l0.2-5.3
			l59.7,1L381.9,529.1z"/>
		<circle class="st3" cx="331.2" cy="564.3" r="3.9"/>
		<circle class="st2" cx="367.1" cy="563.2" r="4.4"/>
		<path class="st4" d="M343.6,584.3c0,1.7-0.9,3.2-2.2,4c-0.2,0.1-0.4,0.2-0.6,0.3c0,0,0,0,0,0c-3,1.9-4.1,6.2-4.1,6.2h0
			c-0.4,2.2-2.4,3.8-4.6,3.8c-2.6,0-4.8-2.1-4.8-4.8c0-2,1.2-3.7,3-4.4c3-1.8,3.7-4.3,3.8-5.4v0c0-0.1,0-0.2,0-0.3c0,0,0,0,0,0
			c0-0.1,0-0.1,0-0.2c0.4-2.2,2.3-3.9,4.7-3.9C341.5,579.6,343.6,581.7,343.6,584.3z"/>
		<path class="st2" d="M334.2,583.5c0,0.1,0,0.1,0,0.2C334.2,583.6,334.2,583.5,334.2,583.5L334.2,583.5z"/>
		<circle class="st2" cx="315.6" cy="577.3" r="3.6"/>
		<circle class="st2" cx="319.2" cy="559.7" r="2.6"/>
		<path class="st2" d="M369,580.8c0,2-1.6,3.5-3.5,3.5c-0.4,0-0.9-0.1-1.2-0.2c0,0-0.1,0-0.1,0c-0.7-0.2-4.2-1-7.7,0.9
			c-0.1,0.1-0.2,0.1-0.3,0.2c-0.4,0.2-0.9,0.3-1.3,0.4c-0.2,0-0.4,0-0.6,0c-2.5,0-4.6-2.1-4.6-4.6c0-2.6,2.1-4.6,4.6-4.6
			c1,0,1.9,0.3,2.7,0.8c1,0.5,4.1,1.7,6.9,0.6c0,0,0,0,0,0c0.5-0.3,1.1-0.5,1.7-0.5C367.4,577.3,369,578.8,369,580.8z"/>
		<path class="st2" d="M356.1,585.1c-0.5,0.3-1,0.4-1.3,0.4C355.2,585.4,355.7,585.3,356.1,585.1z"/>
		<circle class="st5" cx="350.3" cy="600.9" r="2.3"/>
		<circle class="st2" cx="341.5" cy="622.9" r="2.3"/>
		<circle class="st6" cx="365.1" cy="597.1" r="1.4"/>
		<circle class="st6" cx="339.2" cy="573.8" r="1.4"/>
		<circle class="st2" cx="319.2" cy="592.1" r="1.4"/>
		<circle class="st7" cx="315.1" cy="552.1" r="1.4"/>
		<circle class="st2" cx="374.9" cy="555.7" r="1.4"/>
		<circle class="st2" cx="335.1" cy="609.7" r="1.4"/>
	</g>
	<g id="Layer_8">
		
			<linearGradient id="SVGID_00000064337667323412550850000013736363335767914166_" gradientUnits="userSpaceOnUse" x1="347.3762" y1="259.715" x2="347.3762" y2="245.8896" gradientTransform="matrix(1 0 0 -1 0 791.89)">
			<stop  offset="0" style="stop-color:#F87C96"/>
			<stop  offset="1" style="stop-color:#F77C96;stop-opacity:0.1804"/>
		</linearGradient>
		<path style="fill:url(#SVGID_00000064337667323412550850000013736363335767914166_);" d="M377.8,531.5c0,0,1.3,12.6-8.2,10.7
			c-8.6-1.7-11.4-1.7-16.9,3.2c-5.5,4.8-11.5,2-13.1-1.5c-2.2-4.7-7.5-5.8-12.7-2.1c-4.2,3-10.8-3.3-9.8-10.1
			C317.8,526.8,377.8,531.5,377.8,531.5z"/>
	</g>
</g>
<g id="Layer_14">
	
		<linearGradient id="SVGID_00000053506665511775066420000016564569610052807041_" gradientUnits="userSpaceOnUse" x1="309.0119" y1="284.0546" x2="384.8138" y2="271.2994" gradientTransform="matrix(1 0 0 -1 0 791.89)">
		<stop  offset="0" style="stop-color:#BACEE3"/>
		<stop  offset="0.2118" style="stop-color:#DFE8F2"/>
		<stop  offset="0.3897" style="stop-color:#F6F9FB"/>
		<stop  offset="0.5" style="stop-color:#FFFFFF"/>
		<stop  offset="0.6065" style="stop-color:#F4F7FB"/>
		<stop  offset="0.7942" style="stop-color:#D6E2EF"/>
		<stop  offset="1" style="stop-color:#AFC6E0"/>
	</linearGradient>
	<path style="fill:url(#SVGID_00000053506665511775066420000016564569610052807041_);" d="M385.1,526c0,5.5-17.1,10-38.2,10
		c-21.1,0-38.2-4.5-38.2-10v-29.1h76.5v28.9C385.1,525.9,385.1,525.9,385.1,526z"/>
	<ellipse class="st10" cx="346.8" cy="496.9" rx="38.2" ry="10"/>
	<g id="Layer_29">
		<path class="st11" d="M357.1,506.6c0,0,14.9-0.8,21.9-4c7-3.2,6.1-5.4,6-6.1c0,0-0.6,2.5-3.3,4.1c-1,0.6-4,2.3-8.1,3.3
			C366.5,505.5,357.1,506.6,357.1,506.6z"/>
		<path class="st11" d="M357.1,506.6c0,0,14.9-0.8,21.9-4c7-3.2,6.1-5.4,6-6.1c0,0-0.6,2.5-3.3,4.1c-1,0.6-4,2.3-8.1,3.3
			C366.5,505.5,357.1,506.6,357.1,506.6z"/>
		<path class="st11" d="M336.3,506.6c0,0-14.9-0.8-21.9-4s-6.1-5.4-6-6.1c0,0,0.6,2.5,3.3,4.1c1,0.6,4,2.3,8.1,3.3
			C326.9,505.5,336.3,506.6,336.3,506.6z"/>
	</g>
</g>
<g id="Layer_15">
	
		<linearGradient id="SVGID_00000019643221357363761670000002616148958943976083_" gradientUnits="userSpaceOnUse" x1="346.82" y1="307.9456" x2="346.82" y2="327.7007" gradientTransform="matrix(1 0 0 -1 0 791.89)">
		<stop  offset="0" style="stop-color:#496785"/>
		<stop  offset="1" style="stop-color:#1A3754"/>
	</linearGradient>
	<path style="fill:url(#SVGID_00000019643221357363761670000002616148958943976083_);" d="M400.2,473.6c0,0,0,3.9-3.3,5.3
		c-4.8,2-20.4,3.7-44.7,4c-1.8,0-3.6,0-5.4,0c-1.9,0-3.7,0-5.4,0c-24.2-0.3-39.9-2-44.7-4c-3.3-1.4-3.3-5.3-3.3-5.3L338,455l8.8-3.7
		l8.8,3.7L400.2,473.6z"/>
	
		<linearGradient id="SVGID_00000181785446824086031680000016059075007068613054_" gradientUnits="userSpaceOnUse" x1="341.4" y1="308.93" x2="346.82" y2="308.93" gradientTransform="matrix(1 0 0 -1 0 791.89)">
		<stop  offset="0" style="stop-color:#496785"/>
		<stop  offset="1" style="stop-color:#674985"/>
	</linearGradient>
	<path style="fill:url(#SVGID_00000181785446824086031680000016059075007068613054_);" d="M341.4,482.9c1.8,0,3.6,0,5.4,0
		c-1.1,0-2.3,0-3.4,0C342.7,483,342,483,341.4,482.9z"/>
	
		<linearGradient id="SVGID_00000024722212169348474030000003833053926978148225_" gradientUnits="userSpaceOnUse" x1="346.82" y1="308.93" x2="352.23" y2="308.93" gradientTransform="matrix(1 0 0 -1 0 791.89)">
		<stop  offset="0" style="stop-color:#496785"/>
		<stop  offset="1" style="stop-color:#674985"/>
	</linearGradient>
	<path style="fill:url(#SVGID_00000024722212169348474030000003833053926978148225_);" d="M346.8,483c1.9,0,3.6,0,5.4,0
		c-0.6,0-1.3,0.1-2,0.1C349.1,483,348,483,346.8,483z"/>
</g>
<g id="Layer_16">
	<path class="st15" d="M377.9,496.3c0,3.5-13.9,6.2-31,6.2c-17.1,0-31-2.8-31-6.2c0-1.1,1.6-2.5,4.9-3.1v-36.3l53-1.2v37.5
		C376.4,494.1,377.9,495.2,377.9,496.3z"/>
	<g>
		<path class="st16" d="M375.6,460.4l-0.1,10.6c0,0-0.4,2.2-4.1,2.2c-3.7,0-7.4-0.6-11.8-2.7c-4.3-2-8.5-4-12.6-4.1
			c-4.1,0.1-8.2,2.1-12.6,4.1c-4.4,2-8.1,2.7-11.8,2.7s-4.1-2.2-4.1-2.2l-0.1-10.6l15.5-7.5h26.1L375.6,460.4z"/>
		<path class="st16" d="M375.6,475.9l0.3,8.9c0,0-0.4,2.2-4.1,2.2c-3.7,0-7.4-0.6-11.8-2.7c-4.3-2-8.5-4-12.6-4.1
			c-4.1,0.1-8.2,2.1-12.6,4.1c-4.4,2-8.1,2.7-11.8,2.7c-3.7,0-4.1-2.2-4.1-2.2l0-5.6l0.1-3.2l0-1.8c0,0,0.4,2.2,4.1,2.2
			c3.7,0,7.4-0.6,11.8-2.7c4.3-2,8.5-4,12.6-4.1c4.1,0.1,8.2,2.1,12.6,4.1c4.4,2,8.1,2.7,11.8,2.7c3.7,0,3.7-2,3.7-2L375.6,475.9
			L375.6,475.9z"/>
		<path class="st16" d="M375.5,489.9l0,6.3c0,2.2-12.7,4-28.5,4c-15.7,0-28.5-1.8-28.5-4c0,0,0-0.1,0-0.1l0-6.2l0-1.8
			c0,0,0.4,2.2,4.1,2.2c3.7,0,7.4-0.6,11.8-2.7c4.3-2,8.5-4,12.6-4.1c4.1,0.1,8.2,2.1,12.6,4.1c4.4,2,8.1,2.7,11.8,2.7
			c3.7,0,4.1-2.2,4.1-2.2L375.5,489.9L375.5,489.9z"/>
	</g>
	<path class="st17" d="M319.8,489c0,0,2.1,2.1,7.6,0.8s10.5-3.7,13.3-5c2.8-1.3,7.4-2.3,11.9-0.3c4.5,2,10.8,4.9,14.3,5.3
		s5.8,0.1,7.2-0.7"/>
	<path class="st17" d="M320.3,475c0,0,2.1,2.1,7.6,0.8s10.5-3.7,13.3-5c2.8-1.3,7.4-2.3,11.9-0.3c4.5,2,10.8,4.9,14.3,5.3
		c3.4,0.5,5.8,0.1,7.2-0.7"/>
	<g id="Layer_17">
		<path class="st18" d="M373.7,489.8c0,0,1.8-0.5,1.8-1.7c0-0.9-1.8-1.1-1.8-1.1"/>
		<path class="st18" d="M373.7,476c0,0,1.8-0.5,1.8-1.7c0-0.9-1.8-1.1-1.8-1.1"/>
		<path class="st18" d="M320.7,489.9c0,0-2.2-0.7-2.2-1.9c0-0.9,2.2-1.2,2.2-1.2"/>
		<path class="st18" d="M320.7,475.9c0,0-1.8-0.5-1.8-1.7c0-0.9,1.8-1.1,1.8-1.1"/>
	</g>
	<g id="Layer_18">
		<polyline class="st19" points="321.6,482.8 322.9,481.7 322.9,484.7 		"/>
		<path class="st19" d="M325.3,482.1c0,0,0.6-1.2,1.5-0.8s0.2,1.4-0.2,1.9c-0.3,0.4-0.8,1-0.8,1l2-0.2"/>
		<ellipse class="st19" cx="324.3" cy="484.4" rx="0.1" ry="0.1"/>
	</g>
</g>
<g id="Layer_19">
	<path class="st20" d="M332.3,513.6l-1.6,14.2c0,0-15.4-1.1-24.3-4.9c-8.6-3.6-10.4-6.4-10.4-6.4l-0.8-16.5l8.5,4.8L332.3,513.6z"/>
	<rect x="300.9" y="495.3" class="st15" width="5" height="9.3"/>
	<path class="st21" d="M299.9,493.6c-4.6,2.2-4.9,5.4-4.5,7.2c0.9,3.7,5.5,6.6,13.9,9.2c5.1,1.6,13.9,3.2,21.5,4.1l5.5-4.7
		c-12.5-1-22.4-3.6-22.4-3.6c-4.7-1.3-9.5-3.1-10.5-6c-1.1-3.1,2.5-4.7,2.5-4.7l-5.4-2C300.6,493.3,300.1,493.5,299.9,493.6z"/>
	<polygon class="st15" points="330.8,527.9 330.8,514.1 336.3,509.4 336.3,523.1 	"/>
	<path class="st22" d="M303.6,500.4l-8.3-0.5c0,0-0.4-2.3,1.5-4.1c2-2,3.9-2.5,3.9-2.5l5.3,2c0,0-2,0.9-2.6,2.7
		C303,499.1,303.6,500.4,303.6,500.4z"/>
	<path class="st23" d="M301.8,496.7c0,0.3-0.2,0.5-0.6,0.7c-0.2,0.1-0.5,0.1-0.8,0.2h-0.1c-0.8,0-1.5-0.4-1.5-0.9
		c0-0.3,0.3-0.6,0.8-0.8c0.2-0.1,0.4-0.1,0.6-0.1c0.2,0,0.3,0,0.5,0C301.4,496,301.8,496.3,301.8,496.7z"/>
	<path class="st24" d="M301.1,497.4c-0.2,0.1-0.5,0.1-0.8,0.2c0-0.8-0.4-1.4-0.7-1.6c0.2-0.1,0.4-0.1,0.6-0.1c0.2,0,0.4,0.2,0.6,0.5
		C301,496.6,301.2,497.1,301.1,497.4z"/>
	<rect x="295.3" y="499.9" class="st15" width="8.3" height="0.5"/>
</g>
<g id="Layer_11">
	
		<linearGradient id="SVGID_00000035494766447348274690000007265083169898431419_" gradientUnits="userSpaceOnUse" x1="346.835" y1="402.1962" x2="346.835" y2="326.9991" gradientTransform="matrix(1 0 0 -1 0 791.89)">
		<stop  offset="0" style="stop-color:#B3CBE3"/>
		<stop  offset="1" style="stop-color:#87A8C9"/>
	</linearGradient>
	<path style="fill:url(#SVGID_00000035494766447348274690000007265083169898431419_);" d="M404.9,466.4c-2.4,8.1-4.5,10.5-7.5,12.2
		c-0.5,0.3,1.2-1,0.7-2.6c-0.5-1.3-2.5-1.8-3.5-1.9c-1-0.1,0.2-26.3,0.2-26.3h-96c0,0,1.3,26.2,0.2,26.3c-1,0.1-3,0.7-3.5,1.9
		c-0.5,1.5,1.2,3,0.7,2.6c-3-1.8-5.1-4.2-7.5-12.3c-11.6-39.1-3-63.4-3-63.4c0.7-3.3,1.6-6,3-8.3c2.3-4,6-6.9,13.1-10.1
		c12.1-5.6,38-5.9,45.1-5.9c0.7,0,1.2,0,1.5,0c8.9,0,32.1,0.7,43.5,5.9c6.3,2.9,9.9,5.5,12.3,8.8c1.9,2.6,2.9,5.7,3.8,9.6
		C407.9,403,416.5,427.3,404.9,466.4z"/>
	<g>
		<g>
			
				<linearGradient id="SVGID_00000093864210345803107380000008696191254636980870_" gradientUnits="userSpaceOnUse" x1="345.996" y1="408.2395" x2="346.8195" y2="388.3369" gradientTransform="matrix(1 0 0 -1 0 791.89)">
				<stop  offset="0" style="stop-color:#F0F7FF"/>
				<stop  offset="1" style="stop-color:#DFE9F5"/>
			</linearGradient>
			<path style="fill:url(#SVGID_00000093864210345803107380000008696191254636980870_);" d="M391.9,384.6
				c-11.3-5.2-34.6-5.8-43.5-5.9c-0.3,0-0.8,0-1.5,0c-7.2,0-33,0.3-45.1,5.9c-7,3.2-10.8,6.1-13.1,10.1l7.7,13.1l55.2-3.3l44.5,2.7
				l8-13.8C401.8,390.1,398.2,387.4,391.9,384.6z"/>
		</g>
	</g>
	<path class="st27" d="M399.9,460.7c0,0-1.4,7.4-4.5,13.5c0,0-12.2-0.6-20.9-6.8c-8.1-5.7-17.5-10.2-27.7-10.8
		c-10.2,0.6-19.6,5.1-27.7,10.8c-8.7,6.1-20.9,6.8-20.9,6.8c-3.1-6.1-4.5-13.5-4.5-13.5c-4.5-17.2-4.6-36.2-2.3-47.3
		c1.5-7.5,4-13.9,15.3-16.4c9.2-2,30-2,40.4-2c10.5-0.1,30.8,0,39.9,2c11.3,2.5,13.7,8.9,15.2,16.4
		C404.5,424.5,404.4,443.5,399.9,460.7z"/>
	
		<radialGradient id="SVGID_00000167374177758009703520000010676425034925827213_" cx="351.3623" cy="300.2299" r="32.3506" gradientTransform="matrix(1.1326 0 0 -0.1906 -51.7129 444.3538)" gradientUnits="userSpaceOnUse">
		<stop  offset="0" style="stop-color:#95B3D1"/>
		<stop  offset="1" style="stop-color:#94B3D1;stop-opacity:5.880000e-02"/>
	</radialGradient>
	
		<ellipse style="fill:url(#SVGID_00000167374177758009703520000010676425034925827213_);" cx="346.2" cy="387.1" rx="40.5" ry="7.6"/>
	<g id="Layer_13">
		<g>
			<path class="st29" d="M386.9,416.6c1.2,0.3,1.8,1.1,1.9,2.2c0.3,2.3-0.3,4.3-2,5.9c-1,0.9-2.2,1.3-3.6,0.9
				c-1.1-0.3-1.8-1.1-1.9-2.2c-0.2-2,0.2-3.8,1.5-5.4C383.9,416.8,385.3,416.2,386.9,416.6z M385,423.2c0.3-0.2,0.4-0.5,0.6-0.8
				c0.4-0.9,0.6-1.9,0.6-3c0-0.3-0.1-0.5-0.4-0.6c-0.3-0.1-0.5,0-0.8,0.2c-0.4,0.4-0.5,0.8-0.7,1.3c-0.2,0.8-0.5,1.6-0.3,2.4
				C384.2,423.3,384.4,423.4,385,423.2z"/>
			<path class="st29" d="M377,418.4c1.3-1.6,3-2.1,4.9-1.8c0.2,0,0.4,0.1,0.3,0.3c-0.1,0.8-0.3,1.5-0.5,2.2c-0.2,0.1-0.3,0-0.3-0.1
				c-0.6-0.4-1.4-0.4-1.9,0.1c-0.9,0.9-1.2,2-1,3.2c0.1,0.8,0.8,1.1,1.5,0.9c0.3-0.1,0.6-0.3,1-0.4c0.1,0.1,0,0.3,0,0.4
				c-0.1,0.6-0.3,1.2-0.5,1.8c0,0.2-0.1,0.4-0.4,0.5c-0.6,0.2-1.3,0.3-2,0.2c-2.2-0.3-2.9-2.4-2.5-4.1c0.1-0.7,0.3-1.4,0.6-2
				C376.5,419.1,376.8,418.8,377,418.4z"/>
			<path class="st29" d="M380.2,429.4c-1,0.2-2.1,0.3-3.1,0.1c-0.2,0-0.3-0.2-0.3-0.4c0.1-0.7,0.3-1.4,0.4-2c0-0.2,0.2-0.3,0.4-0.2
				c1.1,0.4,2.1,0.5,3.3,0.5c1,0,1.9-0.2,2.8-0.5c0.1,0,0.2-0.1,0.3-0.1c0,0,0.1,0,0.3,0C383.1,428.2,381.8,429,380.2,429.4z"/>
		</g>
	</g>
	<path class="st11" d="M356.2,395c0,0,23.8,0.3,30.5,2.1c6.7,1.8,10.7,3.2,13.6,9.5l0,0c2.8,6.3,3.3,16.8,3.3,16.8
		s-1.7-15.8-6.9-20.4c-4.9-4.4-9.4-4.6-13.6-5.5S356.2,395,356.2,395z"/>
	<path class="st11" d="M298.1,474c0,0-2.3-3.7-4-11.7c-0.5-2.2-0.8-3.3-1.1-4.9c0,0,0-0.1,0-0.1c-0.7-3.2-1.3-6.2-1.8-9.4
		c-0.6-4.2-1-11.2-1.1-12.7c0,0,3.5,21.2,4.7,25.8c1.3,4.9,2.8,10.4,3.9,11.6s6,0.6,8.2,0.1c0,0-4.2,1-6.3,1.2
		c-1.4,0.1-1.7,0.2-2.3,0.3L298.1,474z"/>
</g>
<g id="Layer_39">
	<path class="st30" d="M292.5,455.3c5.9-2.8,11.8-5.6,17.6-8.5c-3.1,0.8-6,2.1-8.9,3.7c-0.7,0.4-1.4,0.8-2.2,1.1
		c-0.8,0.3-1.6,0.5-2.5,0.7C295.1,452.7,293.6,453.4,292.5,455.3z"/>
	<path class="st30" d="M339,454.4c-0.8,0.4-1.4,1-1.9,1.7c-0.1,0.2-0.2,0.4-0.3,0.5c-0.2,0.2-0.5,0.4-0.8,0.5c-0.1,0-0.2,0.1-0.3,0
		c-0.3-0.1-0.4-0.6-0.1-0.8c0.2-0.2,0.6-0.3,0.9-0.5c1-0.5,1.7-1.8,2.8-1.9C339.1,454.1,338.9,454.2,339,454.4z"/>
	<path class="st30" d="M337.1,455.5c0.1-0.5,0.1-1,0.2-1.5c-0.4-0.1-0.8,0.2-0.9,0.6C336.3,455,336.6,455.5,337.1,455.5z"/>
	<path class="st30" d="M326.1,462.9c0.3-1.5,0.6-3.1,0.9-4.6c-0.2,0-0.5,0-0.7,0.1c-0.9,0.4-1.3,1.6-1,2.5c0,0.1,0.1,0.3,0,0.4
		c-0.1,0.2-0.2,0.2-0.4,0.3c-0.6,0.3-1.2,0.8-1.5,1.5c-0.2,0.5-0.4,1-0.6,1.4c-0.2,0.5-0.6,0.9-1.1,1
		C323.3,464.9,324.8,464.1,326.1,462.9z"/>
	<path class="st30" d="M292.9,457.6c1.9-0.6,3.8-1.2,5.6-1.9c0.1,0,0.3-0.1,0.4-0.2s0.1-0.3,0.1-0.4c-0.1-0.1-0.2-0.1-0.3-0.1
		c-0.5,0-1,0.3-1.4,0.5c-0.9,0.5-1.9,0.6-2.9,0.8C293.9,456.4,293.3,456.5,292.9,457.6z"/>
	<path class="st30" d="M301.4,454.9c1-0.4,2.1-0.8,3.1-1.1c0.2-0.1,0.4-0.2,0.5-0.4c-1.4,0.3-2.8,0.7-4.1,1.3
		c-0.2,0.1-0.5,0.2-0.6,0.5C300.8,455.1,301.2,454.9,301.4,454.9z"/>
	<path class="st30" d="M309.2,450.6c-1.1,0.4-2.1,0.9-3.2,1.3c-0.3,0.1-0.6,0.2-0.8-0.1c1.2-0.5,2.4-1,3.6-1.4
		C308.9,450.4,309.2,450.3,309.2,450.6z"/>
	<path class="st30" d="M308.5,461.1c0.6-0.2,1.2-0.7,1.4-1.3c0.1-0.2,0.1-0.5,0.2-0.7c0.4-0.9,1.2-1.5,1.7-2.3
		c-0.4,0.3-0.8,0.5-1.3,0.6c-0.1,0-0.3,0.1-0.4,0.1c-0.1,0.1-0.2,0.2-0.3,0.4c-0.3,0.6-0.2,1.4-0.6,2c-0.4,0.6-1.1,0.8-1.8,1
		C307.8,461.1,308.3,461.1,308.5,461.1z"/>
	<path class="st30" d="M307.9,458.2c-0.5,0-1,0.1-1.5,0.2c-0.1,0-0.3,0.2-0.2,0.3c0.5-0.2,1.1-0.3,1.7-0.3c0.1,0,0.2,0,0.2,0
		S308.1,458.3,307.9,458.2z"/>
	<path class="st30" d="M293.7,460.2c1.5,0,2.9-0.1,4.3-0.2c-0.2-0.3-0.5-0.4-0.9-0.4c-0.1,0-0.3,0.1-0.4,0s-0.3-0.1-0.3-0.2
		c0-0.3,0.6-0.3,0.7-0.6c-0.1-0.1-0.3-0.1-0.5-0.1C295.5,458.8,294.5,458.9,293.7,460.2z"/>
	<path class="st30" d="M290.9,445.5c2.4-0.2,4.8-0.3,7.2-0.5c0.7,0,1.3-0.1,2-0.2c0.9-0.2,1.8-0.6,2.7-1.1c-1.1-0.1-2.1,0.4-3.1,0.7
		c-0.8,0.2-1.6,0.2-2.4,0.3C295.1,444.9,292.9,445,290.9,445.5z"/>
	<path class="st30" d="M295.3,450.2c1-0.1,1.9-0.3,2.7-0.8c-1.1,0-2.2,0.2-3.2,0.8C295.1,450.2,295.5,450.1,295.3,450.2z"/>
	<path class="st30" d="M313.4,447.4c1.5-0.5,3-1.1,4.5-1.9c-1.7,0.2-3.4,0.8-4.8,1.7C313.3,447.3,313.5,447.3,313.4,447.4z"/>
	<path class="st30" d="M301.9,465.3c-0.9,0.6-1.4,1.7-1.4,2.7c-0.3-0.2-0.4-0.6-0.3-1c0.1-0.4,0.3-0.7,0.5-1
		c0.4-0.5,0.8-1.1,1.4-1.2C302.1,465.1,302,465.3,301.9,465.3z"/>
	<path class="st30" d="M306.2,465.6c0.1,0.5,0,0.9-0.1,1.4c-0.3-0.2-0.3-0.8-0.2-1.1c0.1-0.4,0.2-0.8,0.1-1.2
		C306.3,465,306.3,465.4,306.2,465.6z"/>
	<path class="st30" d="M298.6,438c-0.4,0.3-0.9,0.7-1,1.2c0,0.1,0,0.2,0,0.4c-0.1,0.4-0.6,0.4-1,0.4c0.2-0.8,0.8-1.6,1.6-1.8
		C298.4,438,298.5,438,298.6,438z"/>
	<path class="st30" d="M294.1,448c-0.3,0.1-0.6,0.2-0.9,0.4c0.1-0.4,0.6-0.7,1-0.5c0,0.1,0.1,0.1,0,0.2
		C294.2,448.1,294.1,448.2,294.1,448z"/>
	<path class="st30" d="M295.5,459c-0.6,0.1-1.1,0.1-1.7,0.2c-0.1,0-0.3,0-0.4,0.2c-0.1,0.1,0,0.3,0,0.4c0.1,0.4,0.3,0.8,0.4,1.2
		C294.2,460.4,295,460,295.5,459z"/>
	<path class="st30" d="M296.2,454.9c-0.3,0.2-0.7,0.4-1.1,0.5c0.1-0.4,0.5-0.6,0.9-0.7C296.1,454.7,296.4,454.8,296.2,454.9z"/>
	<path class="st30" d="M294.4,453.4c-0.3,0-0.6,0-0.9,0c0.1-0.5,0.5-0.9,0.9-1.1c-0.3,0-0.8,0-0.9-0.4c-0.2-0.1-0.5-0.2-0.8-0.3
		c-0.1,0-0.2-0.1-0.2-0.1c-0.1-0.2,0.2-0.5,0.2-0.7c-0.4-0.2-0.6-0.6-0.8-1c-0.3-0.5-0.5-1.1-0.8-1.7c0.5,3.3,1,5.4,1.7,8.5
		c0.4-0.2,0.9-0.6,1.2-0.8c-0.3-0.1-0.5-0.3-0.6-0.6S293.4,454.7,294.4,453.4z"/>
	<path class="st31" d="M292.6,454.7c-0.2-0.4-0.3-0.8-0.4-1.3c0-0.2-0.1-0.5,0.1-0.6c0,0,0.1,0,0.1,0c0.1,0,0.1,0.2,0.1,0.3
		c0,0.3,0.1,0.7,0.4,0.8c0.4,0.2,0.9,0.1,1.3-0.1c0.1,0.1-0.1,0.2-0.2,0.3c-0.4,0.2-0.8,0.3-1.1,0.5c-0.2,0.1-0.4,0.2-0.4,0.4
		C292.4,454.7,292.3,454.3,292.6,454.7z"/>
	<path class="st31" d="M303.2,452.2c-0.5,0.3-1,0.6-1.6,0.5c0.6-0.3,1.2-0.5,1.8-0.8C303.3,452.1,303.3,452.1,303.2,452.2z"/>
	<path class="st31" d="M305.7,446.8c-1.1,0.2-1.9,1.1-2.9,1.5c0.1,0.1,0.4,0.1,0.5,0s0.3-0.2,0.5-0.4
		C304.4,447.4,305.3,447.5,305.7,446.8z"/>
	<path class="st31" d="M307.5,448c-0.6,0.4-1.5,0.5-2.1,0.8c-0.3,0.1-0.6,0.3-0.9,0.5c-0.4,0.2-0.8,0.4-1.3,0.5
		C304.5,448.9,306,448.3,307.5,448z"/>
	<path class="st32" d="M297.7,455.6c-0.9,0.6-1.8,1.3-2.9,1.2C295.4,456.4,295.9,456.2,297.7,455.6z"/>
	<path class="st32" d="M326,462.9c0.1-0.8,0.2-1.6,0.2-2.4c-0.4,0.1-0.5,0.6-0.5,0.9c0,0.4,0,0.8-0.1,1.1c-0.2,0.6-1,1-1.2,1.6
		C325,463.9,325.8,463.6,326,462.9z"/>
	<path class="st32" d="M326.5,458.7c0.1-0.4,0.1-0.8,0.2-1.2c-0.4,0.2-0.6,0.8-0.4,1.2C326.5,458.6,326.6,458.4,326.5,458.7z"/>
	<path class="st32" d="M337,455.6c-0.3,0.4-0.6,0.7-0.9,1.1c-0.1-0.2,0.2-0.4,0.4-0.5s0.5-0.3,0.4-0.5
		C337,455.6,337,455.6,337,455.6z"/>
	<path class="st32" d="M336.9,454.2c-0.1,0.1-0.2,0.2-0.4,0.2C336.6,454.3,336.9,454.3,336.9,454.2z"/>
	<path class="st32" d="M322.6,458.1c-0.2,0.3-0.2,0.6-0.2,1c0,0.2,0,0.5-0.2,0.5c-0.3-0.3-0.3-0.8-0.1-1.2c0,0,0.1-0.1,0.1-0.1
		C322.3,458.3,322.4,458.4,322.6,458.1z"/>
	<path class="st32" d="M293.4,458.4c-0.1-0.4-0.2-0.8-0.1-1.2c0-0.4,0.2-0.8,0.6-1.1c0.2-0.1,0.4-0.2,0.6-0.4
		c0.2-0.2,0.3-0.4,0.5-0.5c0.1,0,0.2-0.1,0.3-0.1s0.2-0.2,0.1-0.3c-0.1-0.2-0.3-0.1-0.5,0c-0.3,0.2-0.7,0.5-1,0.7
		c-0.1,0-0.2,0.1-0.3,0.1c-0.1,0-0.2,0-0.2,0c-0.4-0.2-0.8-0.4-1.1-0.6c-0.1,0-0.2,0-0.2,0c0.3,1.3,0.6,2.6,1,4
		C293.2,458.7,293.2,458.5,293.4,458.4z"/>
	<path class="st32" d="M295.2,453.4c-0.5,0.6-1.1,1-1.8,1.2c-0.3,0.1-0.7,0.2-0.9,0.5c-0.1,0-0.1-0.1-0.1-0.2s0.1-0.1,0.2-0.2
		C293.5,454.2,294.3,453.7,295.2,453.4z"/>
	<path class="st32" d="M293.6,454c-0.7-0.3-1.1-1.1-1.3-1.8c0-0.2-0.1-0.4-0.3-0.4c-0.2,0-0.2,0.3-0.2,0.5c0.1,0.8,0.4,1.6,0.6,2.4
		c0,0.1,0.1,0.3,0.2,0.3c0.1,0,0.1,0,0.1-0.1c0.2-0.1,0.4-0.2,0.5-0.4C293.3,454.5,293.4,454.2,293.6,454z"/>
	<path class="st32" d="M292,451.9c0.1-0.3,0.3-0.6,0.4-1c0-0.1,0.1-0.1,0.1-0.2s0.1,0,0.2,0c-0.1,0.1-0.3,0.1-0.5,0.1
		s-0.4,0-0.5,0.2c0,0.1,0,0.1,0,0.2c0.1,0.3,0.2,0.5,0.3,0.8C291.9,451.9,291.8,451.8,292,451.9z"/>
	<path class="st32" d="M293.7,459.2c0.6-0.1,1.2-0.1,1.9-0.1c-0.7,0.1-1.4,0.5-1.8,1.1c0-0.1,0.1-0.2,0.1-0.4s-0.1-0.2-0.2-0.2
		c-0.1,0-0.2,0.1-0.2,0C293.4,459.5,293.5,459.3,293.7,459.2z"/>
	<path class="st32" d="M294,462c0.2,0,0.5,0,0.7,0"/>
	<path class="st32" d="M302.8,454.1c-0.5,0.3-1,0.6-1.5,0.8c0.1-0.3,0.4-0.5,0.6-0.6C302.2,454.3,302.5,454.3,302.8,454.1z"/>
	<path class="st32" d="M308,450.7c-0.4,0.3-0.8,0.5-1.3,0.6C307,450.9,307.7,451.1,308,450.7z"/>
	<path class="st32" d="M311.9,447.6c-0.4,0.3-0.9,0.5-1.3,0.8c0,0.1,0.1,0.2,0.2,0.2s0.2,0,0.3-0.1c0.3-0.2,0.7-0.4,0.8-0.8
		C311.9,447.7,311.8,447.6,311.9,447.6z"/>
	<path class="st31" d="M293.2,455.7c0,0.2,0,0.5,0,0.7s0.3,0.4,0.5,0.3c-0.3,0.1-0.6,0.4-0.7,0.7c0.1,0,0.2,0.2,0.2,0.3
		s-0.1,0.3-0.1,0.4c0,0.2,0.1,0.4,0.1,0.5s0.1,0.4,0,0.5c-0.4-1-0.6-2-0.8-3.1c0-0.2-0.1-0.5,0.1-0.6c0.1-0.1,0.3-0.1,0.4,0
		C293.2,455.5,293.2,455.7,293.2,455.7z"/>
	<path class="st31" d="M292.3,453c-0.2-0.7-0.4-1.4-0.7-2.1c0,0.4,0,0.8,0.1,1.2c0.3,1.5,0.6,3,1,4.5c0.1-0.2,0.1-0.5,0-0.7
		s-0.2-0.5-0.2-0.7C292.5,454.8,292.7,454.4,292.3,453z"/>
	<path class="st31" d="M301,460.4c-0.5,0.3-1,0.7-1.4,1.1c-0.3,0.2-0.5,0.6-0.5,0.9c0.1,0.1,0.2,0,0.3-0.1c0.1-0.1,0.1-0.2,0.2-0.3
		C299.9,461.3,300.9,461.1,301,460.4C301,460.4,300.9,460.4,301,460.4z"/>
	<path class="st31" d="M295.3,467.3c-0.5-1.8-0.9-3.5-1.4-5.2c-0.1-0.5-0.3-1-0.3-1.5c0.4,0.2,0.5,0.7,0.9,1
		c0.6,0.4,1.5-0.2,2.1,0.3c-0.3,0.4-0.7,0.6-1.2,0.7c-0.1,0-0.2,0-0.4,0.1s-0.2,0.2-0.1,0.3c0.1,0.2,0.5,0.1,0.7,0.3
		c0.1,0.1,0.1,0.3,0,0.4s-0.3,0.2-0.4,0.2c0,0.3-0.1,0.5-0.4,0.7c0.4,0.4,0.9,0.7,1.4,0.8c0,0.2-0.2,0.3-0.4,0.4
		c-0.2,0.2-0.5,0.4-0.6,0.6C295.1,466.7,295.1,467,295.3,467.3z"/>
	<path class="st31" d="M308.8,450.5c-0.5,0.2-1,0.5-1.6,0.7c-0.1,0.1-0.4,0.1-0.4-0.1c0-0.1,0.1-0.3,0.3-0.3
		C307.6,450.7,308.2,450.5,308.8,450.5z"/>
	<path class="st31" d="M312.7,447.3c-0.8,0.5-1.6,0.9-2.4,1.4C310.9,447.9,311.7,447.4,312.7,447.3z"/>
	<path class="st31" d="M301.4,447.1c-1,0.3-1.9,0.6-2.9,0.8c0.3-0.3,0.7-0.4,1.1-0.5C300.3,447.4,300.9,447.3,301.4,447.1z"/>
	<path class="st31" d="M317,442.9c-0.2,0.2-0.5,0.4-0.7,0.6C316.3,443.1,316.6,442.7,317,442.9z"/>
	<path class="st31" d="M307.5,441.6c-0.3,0.2-0.7,0.5-1.1,0.7C306.7,441.9,307.2,441.6,307.5,441.6z"/>
	<path class="st31" d="M310.2,458.1c-0.5,0.4-0.2,1.2-0.6,1.7c-0.2,0.3-0.5,0.5-0.5,0.8c0-0.2,0.1-0.5,0.2-0.7
		c0.2-0.5,0-1.2-0.4-1.5c0.2,0.2,0.5,0.5,0.7,0.7C309.7,458.6,309.9,458.3,310.2,458.1z"/>
	<path class="st31" d="M316.5,455.7c-0.4,0.1-0.8,0.4-1,0.8c0.1,0,0.3,0.1,0.4,0.1C316,456.3,316.2,455.7,316.5,455.7z"/>
	<path class="st33" d="M291.4,451c1,4.6,2.1,9.2,3.2,13.8c0.1,0.6,0.3,1.1,0.4,1.7c-0.5-0.3-0.8-0.9-0.9-1.5
		c-0.1-0.6-0.1-1.2-0.3-1.8c-0.1-0.3-0.2-0.5-0.5-0.7c-0.6-0.3-1.4,0.4-2,0c0.7-0.4,1.3-0.8,1.9-1.3c-0.1,0-0.2-0.1-0.3-0.2
		s0-0.3,0.1-0.2c-0.4,0.1-0.7-0.5-0.4-0.7c-0.1,0-0.3-0.1-0.4-0.1c0.3-0.4,0.3-1.1,0-1.5c-0.1-0.2-0.4-0.4-0.3-0.6
		c0-0.2,0.2-0.3,0.2-0.4c0.1-0.4-0.4-0.7-0.8-0.8c-0.4-0.1-0.9-0.4-0.8-0.8c0.6-0.2,1-1,0.9-1.6c-0.1-0.4-0.3-0.9,0.1-1
		c-0.6-0.2-0.7-1-0.5-1.6s0.4-1.3,0.1-1.8C291.5,450.5,291.6,451.5,291.4,451z"/>
	<path class="st33" d="M291.2,459.5c-0.5,0.3-1.1,0.5-1.6,0.6c-0.1,0-0.1,0-0.2,0c-0.1-0.1,0-0.2,0.2-0.3c0.5-0.2,0.9-0.4,1.4-0.6
		c0.1,0,0.2-0.1,0.3,0C291.4,459.1,291.5,459.3,291.2,459.5z"/>
	<path class="st33" d="M291.5,461c-0.3,0.1-0.6,0.2-1,0.3c0,0-0.1,0-0.1,0c-0.1,0-0.1-0.1,0-0.2c0.1-0.2,0.3-0.3,0.5-0.4
		c0.1-0.1,0.3-0.2,0.4-0.1C291.4,460.6,291.5,460.8,291.5,461z"/>
	<path class="st33" d="M293.3,465.1c-0.5,0.3-1,0.4-1.5,0.5c0,0.1,0.1,0.2,0.3,0.3C292.5,465.6,292.9,465.4,293.3,465.1z"/>
	<path class="st33" d="M291.3,463.6c0,0.4-0.1,0.9-0.5,1.1c0.2-0.4,0.1-0.9-0.2-1.3c-0.1-0.1-0.2-0.2-0.3-0.4c0-0.1,0-0.3,0.1-0.4
		c0.1,0,0.3,0.1,0.4,0.2c0.1,0.1,0.1,0.3,0.1,0.5c0,0.1,0,0.3,0.1,0.4C291.2,463.7,291.3,463.6,291.3,463.6c0.3-0.1,0.5-0.2,0.7-0.3
		C291.8,463.6,291.5,463.8,291.3,463.6z"/>
	<path class="st33" d="M289.4,461.7c-0.1,0.2-0.2,0.5-0.3,0.6c-0.1-0.3,0-0.6,0.2-0.8C289.3,461.6,289.3,461.6,289.4,461.7z"/>
	<path class="st33" d="M291.2,457c-0.3,0-0.5,0-0.8,0c-0.1,0-0.2,0-0.2,0.1C290.5,457.4,291,457.4,291.2,457z"/>
	<path class="st33" d="M288,452.7c-0.1-0.4-0.2-0.9-0.2-1.3c0-0.4,0.2-0.8,0.2-1.3s-0.3-0.9-0.7-0.9c0.1,0.4,0.1,0.8,0.2,1.1
		c0,0.1,0,0.3,0,0.4c-0.1,0.3-0.4,0.6-0.2,0.8c0.3-0.1,0.7,0.2,0.7,0.5C287.9,452.4,287.7,452.8,288,452.7z"/>
	<path class="st33" d="M287.8,454.5c-0.1,0.4-0.2,0.7-0.3,1.1c0,0.1,0,0.2,0,0.3c0,0.1,0.2,0.1,0.2,0
		C287.5,455.4,287.6,454.9,287.8,454.5z"/>
	<path class="st33" d="M292.3,456.9c-0.3-0.3-0.4-0.8-0.8-0.9c-0.1,0-0.2,0-0.3,0c-0.8,0.2-1.7,0.5-2.5,0.9c-0.1-0.1-0.1-0.3,0-0.4
		c0.1-0.1,0.2-0.2,0.4-0.3c0.3-0.1,0.6-0.2,0.9-0.4c0.1-0.1,0.3-0.1,0.4-0.2C290.7,455.6,291.1,455.5,292.3,456.9z"/>
	<path class="st34" d="M290.1,458.4c-0.3,0.2-0.6,0.5-1,0.7c0-0.4,0.3-0.7,0.6-0.8C289.9,458.2,290.2,458.3,290.1,458.4z"/>
	<path class="st34" d="M292.3,456.4c-0.2-0.6-0.5-1.2-0.4-1.9c0.1-0.2,0.2-0.5,0.1-0.7c0.4,1.5,0.7,3,1,4.6c0,0.1,0,0.2,0,0.2
		c0,0.1-0.1,0.2-0.2,0.2c-0.3,0.2-0.6,0.3-1,0.3c0.3-0.2,0.6-0.5,0.9-0.6C292.8,457.6,292.5,456.9,292.3,456.4z"/>
	<path class="st34" d="M293.5,461.5c-0.4,0-0.8,0.1-1.2,0.3c-0.1,0.1-0.4,0-0.3-0.2c0.4-0.2,0.9-0.4,1.3-0.6c0.1,0,0.1-0.1,0.1-0.1
		c0,0,0-0.1,0-0.2c0-0.2,0-0.4-0.1-0.6C293.7,460.5,293.8,461.1,293.5,461.5z"/>
	<path class="st34" d="M293.5,464.1c-0.4,0.2-0.8,0.4-1.2,0.6C292.8,464.9,293.4,464.6,293.5,464.1z"/>
	<path class="st34" d="M291,464.2c0-0.4-0.1-0.7-0.3-1c-0.2-0.2-0.4-0.4-0.3-0.6c0.1-0.1,0.3,0,0.4,0.2
		C291,463.1,291,463.5,291,464.2z"/>
	<path class="st34" d="M287.6,450.4c-0.1,0.3-0.3,0.6-0.4,0.9c0.2,0.2,0.5,0.4,0.7,0.5c-0.1-0.5-0.2-1-0.2-1.5c0-0.2,0-0.6-0.2-0.7
		C287.4,449.9,287.4,450.3,287.6,450.4z"/>
	<path class="st34" d="M290.5,453c-0.7,0.3-1.3,0.6-1.9,0.9c0.3,0,0.6,0.1,0.9-0.1c0.1-0.1,0.1-0.2,0.2-0.2
		C290,453.3,290.5,453.4,290.5,453z"/>
	<path class="st34" d="M291.9,454.8c0-0.1-0.1-0.3-0.1-0.5C291.8,454.4,291.9,454.4,291.9,454.8z"/>
	<path class="st34" d="M292.7,454.5c-0.4-0.5-0.6-1-0.8-1.6c0,0.5,0.6,1,0.5,1.5c-0.1,0.3-0.3,0.5-0.3,0.8c0,0.2,0.2,0.4,0.2,0.6
		c-0.1-0.3-0.2-0.7-0.2-1c0-0.1,0-0.3,0-0.4c0-0.2-0.2-0.3-0.3-0.5c-0.1-0.2-0.2-0.5-0.1-0.8c0-0.1,0-0.2,0.1-0.2
		C291.9,452.7,292,452.8,292.7,454.5z"/>
	<path class="st34" d="M292.8,458.2c0.2,0.3,0.5,0.6,0.7,1s0.2,0.8,0,1.2c0.1,0,0.3,0.1,0.4,0.1c0.1,0.7-0.2,1.5,0.2,2.1
		c-0.2,0-0.3-0.1-0.4-0.2c-0.1-0.1-0.1-0.3-0.1-0.5C293.5,460.7,293.2,459.6,292.8,458.2z"/>
	<path class="st34" d="M294.2,463.1c0.3,0,0.6,0.1,0.8,0.3c0,0.2-0.3,0.2-0.5,0.1c-0.2,0-0.5-0.1-0.5,0.1
		C294.1,463.5,294.1,463.3,294.2,463.1z"/>
	<path class="st33" d="M293.3,469.5c-0.3,0.8-0.3,1.6-0.2,2.4c0,0.1,0,0.2,0,0.3c-0.2-0.1-0.3-0.4-0.2-0.7c0-0.1,0.1-0.2,0.1-0.3
		c0-0.1,0-0.1,0-0.2c-0.2-0.9-0.1-1.8,0.3-2.6C293.3,469,293.4,469.4,293.3,469.5z"/>
	<path class="st33" d="M294.5,471.5c-0.3-0.8-0.9-1.5-1.6-2c0.2,0.4,0.4,0.7,0.6,1.1C294,470.6,294.4,471,294.5,471.5z"/>
	<path class="st33" d="M291,467.1c-0.1,0.3-0.3,0.6-0.5,0.9c-0.2-0.4,0-1,0.4-1.2c0,0.1,0,0.3,0,0.5c0,0.1-0.1,0.1-0.2,0
		C290.8,467.3,290.9,467.2,291,467.1z"/>
	<path class="st33" d="M287.9,452.2c0.3,0.4,0.4,0.8,0.4,1.3C287.9,453.3,287.8,452.7,287.9,452.2z"/>
	<path class="st33" d="M289.1,447.9c0.2,0.3,0.4,0.6,0.5,0.9c-0.2,0-0.4-0.1-0.5-0.3S289,448.1,289.1,447.9z"/>
	<path class="st33" d="M291.4,450.5c-0.3-0.8-0.5-1.7-0.5-2.6c0-0.5,0.1-1.1-0.2-1.5c0.1,0.1,0.2,0.2,0.3,0.4
		c-0.1-0.1-0.3-0.2-0.5-0.3c-0.4,1.1,0,2.3,0.4,3.4C291.1,450.2,291.2,450.7,291.4,450.5z"/>
	<path class="st33" d="M288.4,442.6c-0.1,0.1-0.2,0.3-0.4,0.3c0-0.1,0-0.2,0.1-0.2C288.3,442.7,288.4,442.8,288.4,442.6z"/>
	<path class="st33" d="M287.1,446.4c0,0.3-0.1,0.5-0.1,0.8c-0.4-0.2-0.6-0.7-0.6-1.1C286.6,446,287,446.2,287.1,446.4z"/>
</g>
<g id="Layer_12">
	<ellipse class="st35" cx="346.8" cy="386.3" rx="20.5" ry="4.5"/>
	<path class="st15" d="M330.3,386.2V367h33v19.3l0,0.1C362.5,389.8,330.9,389.5,330.3,386.2L330.3,386.2z"/>
</g>
<g id="Layer_28">
	<g>
		<circle class="st15" cx="411.4" cy="612.6" r="3.2"/>
		
			<linearGradient id="SVGID_00000015350159595302243890000004030533102841871267_" gradientUnits="userSpaceOnUse" x1="406.5896" y1="176.9778" x2="409.9128" y2="173.4211" gradientTransform="matrix(1 0 0 -1 0 791.89)">
			<stop  offset="0" style="stop-color:#DEE8FA"/>
			<stop  offset="1" style="stop-color:#BAC9E8"/>
		</linearGradient>
		<path style="fill:url(#SVGID_00000015350159595302243890000004030533102841871267_);" d="M413.6,615.5c-0.1,0.7-0.4,1.3-0.8,1.8
			l0,0c-0.2,0.2-0.3,0.4-0.5,0.6l0,0l-2.7,3c-0.5,0.6-1.3,1.2-1.7,1.5c-0.8,0.5-1.1,0.3-2.1,0.1c-2-0.4-3.4-2.3-3-4.4
			c0.1-0.4,0.1-0.5,0.2-0.9c0.2-0.3,0.5-0.8,0.7-1l0,0l3-3.8l0.2-0.2l0-0.1c0.9-1,2.2-1.5,3.6-1.3
			C412.7,611.1,414,613.2,413.6,615.5z"/>
		<path class="st37" d="M408.1,621.9c-0.4,0.9-1.4,0.7-2.4,0.5c-2-0.4-3.4-2.3-3-4.4c0.1-0.4,0.1-0.5,0.4-0.9
			c0.3-0.3,0.6-0.4,1.3-0.3c1.9,0.3,2.8,0.9,3.7,2.6C408.5,620.4,408.3,621.3,408.1,621.9z"/>
		<path class="st15" d="M402.1,619.6c0.3-1,1-1.7,1.9-1.9c0.5-0.2,1.6,0.4,2.1,0.8c0.7,0.6,1.6,1.9,1.3,2.8c-0.5,1.5-2.1,2.4-3.5,2
			C402.4,622.8,401.6,621.2,402.1,619.6z"/>
		
			<linearGradient id="SVGID_00000152945939535219383990000015406932961197621125_" gradientUnits="userSpaceOnUse" x1="401.9418" y1="166.9376" x2="400.1764" y2="170.2089" gradientTransform="matrix(1 0 0 -1 0 791.89)">
			<stop  offset="0" style="stop-color:#BAC9E8"/>
			<stop  offset="1" style="stop-color:#DEE8FA"/>
		</linearGradient>
		<path style="fill:url(#SVGID_00000152945939535219383990000015406932961197621125_);" d="M399.7,619.8c0,0-3,2.4-4,4.2
			c-1,1.8,0.6,3.9,3.7,2.8c3.1-1.1,6.1-3.1,6.1-3.1s1.5-2.8,0.4-4.2s-3.1-1.7-4.1-1C400.7,619.1,399.7,619.8,399.7,619.8z"/>
	</g>
	<ellipse class="st15" cx="431.2" cy="583.6" rx="10.4" ry="10.4"/>
	
		<linearGradient id="SVGID_00000044877874777885829770000002942477286081702577_" gradientUnits="userSpaceOnUse" x1="430.2292" y1="197.3134" x2="426.0488" y2="180.4915" gradientTransform="matrix(1 0 0 -1 0 791.89)">
		<stop  offset="0" style="stop-color:#A4B8E0"/>
		<stop  offset="1" style="stop-color:#8296BD"/>
	</linearGradient>
	<path style="fill:url(#SVGID_00000044877874777885829770000002942477286081702577_);" d="M421.8,586.4c2.8,0.5,5.2,1,8,2.3
		c2.6,1.2,6,2.8,6.5,3.4c2.9,2.9,4.6,8.5,2.6,14.3c-2.3,6.4-8.1,10.3-13.8,9.9c-1-0.1-9.2-2.6-9.9-3.3
		C413,610.5,421.8,586.4,421.8,586.4z"/>
	
		<linearGradient id="SVGID_00000083079473242578895360000015242322531801892510_" gradientUnits="userSpaceOnUse" x1="416.817" y1="200.9637" x2="426.5545" y2="183.0784" gradientTransform="matrix(1 0 0 -1 0 791.89)">
		<stop  offset="0" style="stop-color:#DEE9FF"/>
		<stop  offset="1" style="stop-color:#F5F8FF"/>
	</linearGradient>
	<path style="fill:url(#SVGID_00000083079473242578895360000015242322531801892510_);" d="M410,596.1c1.8-5.1,6-8.4,10.4-9.6
		c1.8-0.5,3.2,0.1,5.3,0.7c1.3,0.3,3.6,1.1,4.6,1.9c4.2,3.4,5.6,9.5,3.5,15.5c-2.6,7.4-10.1,11.6-16.7,9.2
		C410.5,611.5,407.3,603.5,410,596.1z"/>
	
		<ellipse transform="matrix(0.3342 -0.9425 0.9425 0.3342 -284.9123 797.2285)" class="st41" cx="421.8" cy="600.3" rx="4.7" ry="4.3"/>
	<g>
		<path class="st15" d="M416.1,616.8c-0.3-1.1-0.1-2.3,0.6-3c0.1-0.2,2.2,0.6,3.2,0.6c1.7,0.1,2.2,0.4,2.4,0.8
			c0.5,1.7-0.6,3.5-2.3,3.9S416.5,618.5,416.1,616.8z"/>
		
			<linearGradient id="SVGID_00000160893143718380616360000017566425616997750682_" gradientUnits="userSpaceOnUse" x1="415.8828" y1="172.3175" x2="419.0502" y2="169.4096" gradientTransform="matrix(1 0 0 -1 0 791.89)">
			<stop  offset="0" style="stop-color:#DEE8FA"/>
			<stop  offset="1" style="stop-color:#BAC9E8"/>
		</linearGradient>
		<path style="fill:url(#SVGID_00000160893143718380616360000017566425616997750682_);" d="M422,618.1c0.1,0.7,0,1.3-0.3,1.9l0,0
			c-0.1,0.2-0.2,0.5-0.4,0.7l0,0l-1.9,3.6c-0.3,0.7-0.9,1.5-1.2,1.9c-0.6,0.7-1,0.6-2,0.7c-2.1,0.2-3.9-1.3-4.1-3.4
			c0-0.4-0.1-0.5,0-0.9c0.1-0.4,0.3-0.9,0.4-1.2l0,0l1.9-4.5l0.1-0.3l0-0.1c0.6-1.2,1.7-2.1,3.1-2.2
			C420,614.2,421.9,615.8,422,618.1z"/>
		<path class="st37" d="M418.5,625.8c-0.2,1-1.2,1-2.2,1.1c-2.1,0.2-3.9-1.3-4.1-3.4c0-0.4,0-0.5,0.1-0.9c0.2-0.3,0.5-0.5,1.1-0.6
			c1.9-0.2,2.9,0.1,4.3,1.5C418.4,624.2,418.5,625.1,418.5,625.8z"/>
		<path class="st15" d="M412,625.2c0-1,0.5-1.9,1.3-2.4c0.5-0.3,1.7,0,2.2,0.2c0.8,0.4,2,1.4,2,2.4c0,1.6-1.4,2.9-2.9,2.8
			C413.2,628.1,412,626.8,412,625.2z"/>
		
			<linearGradient id="SVGID_00000171685209939580135720000009335910783542948521_" gradientUnits="userSpaceOnUse" x1="411.5089" y1="163.4392" x2="413.0667" y2="161.1544" gradientTransform="matrix(1 0 0 -1 0 791.89)">
			<stop  offset="0" style="stop-color:#DEE9FF"/>
			<stop  offset="1" style="stop-color:#BAC9E8"/>
		</linearGradient>
		<path style="fill:url(#SVGID_00000171685209939580135720000009335910783542948521_);" d="M409.8,626c0,0-2.2,3.1-2.8,5.1
			c-0.5,2,1.6,3.6,4.3,1.7s5.1-4.6,5.1-4.6s0.7-3.1-0.8-4.2c-1.5-1.1-3.4-0.8-4.2,0.1C410.6,625,409.8,626,409.8,626z"/>
	</g>
	<g id="Layer_31">
		<circle class="st15" cx="437.9" cy="605.7" r="3.2"/>
		
			<linearGradient id="SVGID_00000008858031861302973470000013744656216130098565_" gradientUnits="userSpaceOnUse" x1="437.8165" y1="177.5511" x2="442.1762" y2="180.2594" gradientTransform="matrix(1 0 0 -1 0 791.89)">
			<stop  offset="0" style="stop-color:#BAC9E8"/>
			<stop  offset="1" style="stop-color:#DEE9FF"/>
		</linearGradient>
		<path style="fill:url(#SVGID_00000008858031861302973470000013744656216130098565_);" d="M441.4,619.7c0,0-2.3-0.9-3.9-3.8
			s-2.4-5.5-2.5-6.5c-0.1-0.9-0.1-3.4,2.2-4.4c2.7-1.2,4.7,2,4.7,2s0.6,6,1.7,8s1.9,4.3,0.9,5C443.4,620.7,441.4,619.7,441.4,619.7z
			"/>
	</g>
	<g>
		<circle class="st15" cx="428.8" cy="616" r="3.2"/>
		
			<linearGradient id="SVGID_00000132054874370789915620000012579300390246172079_" gradientUnits="userSpaceOnUse" x1="427.8862" y1="171.205" x2="431.0522" y2="169.7392" gradientTransform="matrix(1 0 0 -1 0 791.89)">
			<stop  offset="0" style="stop-color:#DEE9FF"/>
			<stop  offset="1" style="stop-color:#BAC9E8"/>
		</linearGradient>
		<path style="fill:url(#SVGID_00000132054874370789915620000012579300390246172079_);" d="M432.4,616.9c0.3,0.6,0.4,1.3,0.4,1.9
			l0,0c0,0.3,0,0.5-0.1,0.8l0,0l-0.6,4c0,0.8-0.3,1.7-0.5,2.2c-0.4,0.9-0.8,0.9-1.7,1.3c-1.9,0.8-4.1,0-4.9-1.9
			c-0.1-0.3-0.2-0.5-0.3-0.8c0-0.4,0-0.9,0-1.3v0l0.4-4.8l0-0.3l0-0.1c0.2-1.3,1-2.5,2.3-3.1C429.1,613.9,431.5,614.9,432.4,616.9z"
			/>
		<path class="st37" d="M431.3,625.5c0.1,1-0.8,1.3-1.7,1.7c-1.9,0.8-4.1,0-4.9-1.9c-0.1-0.3-0.2-0.5-0.2-0.9c0.1-0.4,0.3-0.6,0.9-1
			c1.8-0.8,2.8-0.8,4.5,0.1C430.8,624,431.1,624.9,431.3,625.5z"/>
		<path class="st15" d="M425,627c-0.3-1-0.1-2,0.5-2.7c0.3-0.4,1.6-0.6,2.2-0.5c0.9,0.1,2.4,0.7,2.7,1.6c0.5,1.5-0.4,3.2-1.8,3.6
			C427,629.4,425.5,628.5,425,627z"/>
		
			<linearGradient id="SVGID_00000075123513670971519790000008628551975202843802_" gradientUnits="userSpaceOnUse" x1="425.1711" y1="161.7873" x2="428.0734" y2="160.5561" gradientTransform="matrix(1 0 0 -1 0 791.89)">
			<stop  offset="0" style="stop-color:#DEE8FA"/>
			<stop  offset="1" style="stop-color:#BAC9E8"/>
		</linearGradient>
		<path style="fill:url(#SVGID_00000075123513670971519790000008628551975202843802_);" d="M423.1,628.5c0,0-1.1,3.7-1,5.7
			c0.1,2,2.6,2.9,4.6,0.2s3.4-6,3.4-6s-0.3-3.2-2-3.7c-1.7-0.6-3.5,0.3-4,1.5C423.6,627.3,423.1,628.5,423.1,628.5z"/>
	</g>
</g>
<g id="Layer_35">
</g>
<g id="Layer_21">
	<g id="Layer_23">
		
			<linearGradient id="SVGID_00000124879435568408933140000010667302759363490489_" gradientUnits="userSpaceOnUse" x1="434.2702" y1="321.1908" x2="429.978" y2="330.1971" gradientTransform="matrix(1 0 0 -1 0 791.89)">
			<stop  offset="0" style="stop-color:#496785"/>
			<stop  offset="1" style="stop-color:#334F6B"/>
		</linearGradient>
		<path style="fill:url(#SVGID_00000124879435568408933140000010667302759363490489_);" d="M426.2,461.8c0,0,14.2-13.4,19.9-10.3
			s6.3,6.4,6.3,6.4s1,3.3-8.1,9c-9.1,5.7-18.2,14.2-24.1,16c-6.8,2.1-6.2-6.5-5.5-9.3L426.2,461.8z"/>
	</g>
	<g id="Layer_24">
		<path class="st15" d="M446.8,475.6c0.4-1.4,0.4-2.9,0-4.4c-0.2-0.7-0.5-1.5-1.1-1.7c-0.4-0.1-0.8-0.1-1.2,0
			c-2.7,0.4-5.4,1.1-8,1.8c-1.9,0.5-3.8,1-5.6,1.8c-1,0.5-2,1-2.9,1.6c-1.1,0.7-2.2,1.4-3.3,2.2c-0.5,0.3-0.9,0.7-1.2,1.1
			c-0.7,1-0.6,2.4-0.4,3.6c0.1,0.8,0.2,1.6,0.7,2.3c0.4,0.5,0.9,0.7,1.4,0.9c1.6,0.5,3.3,0.3,4.9-0.1c3.8-1,7.3-2.8,10.4-5.2"/>
	</g>
	<g id="Layer_22">
		
			<linearGradient id="SVGID_00000029737295245115938270000000298689058074969010_" gradientUnits="userSpaceOnUse" x1="420.1695" y1="389.827" x2="414.6984" y2="371.8651" gradientTransform="matrix(1 0 0 -1 0 791.89)">
			<stop  offset="0" style="stop-color:#0B2352"/>
			<stop  offset="1" style="stop-color:#030914"/>
		</linearGradient>
		<path style="fill:url(#SVGID_00000029737295245115938270000000298689058074969010_);" d="M405.4,415.2c-1.5-6.7-1.1-11.1,0.7-13.2
			c3.1-3.6,6.9-5.5,12-4.9c8.1,1,13.8,8.3,12.9,16.4s-8.3,13.8-16.4,12.9c-2-0.2-2.6-1.2-4.3-1.9C409.4,424,407.1,422.5,405.4,415.2
			z"/>
	</g>
	<path class="st49" d="M423.5,499.9c0-2.8,6.8-4.6,15.2-4.6s15.1,2.3,15.1,5.1s-6.8,7.1-15.1,7.1
		C430.3,507.5,423.5,502.7,423.5,499.9z"/>
	<path class="st15" d="M439.1,507.5c-5.8-0.1-9.3-1.2-10.7-3.1c-2.3-3.2-3.1-6.7-1.7-10.7c2.3-6.4,9.4-9.7,15.9-7.4
		c6.4,2.3,9.7,9.4,7.4,15.9c-0.6,1.5-1,2.4-1.9,3.7C447.7,506.5,445.4,507.6,439.1,507.5z"/>
	
		<linearGradient id="SVGID_00000146469881783527983570000014661541359484449186_" gradientUnits="userSpaceOnUse" x1="434.2645" y1="319.4368" x2="430.4385" y2="333.2185" gradientTransform="matrix(1 0 0 -1 0 791.89)">
		<stop  offset="0" style="stop-color:#0B2352"/>
		<stop  offset="1" style="stop-color:#010308"/>
	</linearGradient>
	<path style="fill:url(#SVGID_00000146469881783527983570000014661541359484449186_);" d="M447,470.6c0,0,1.8,0.6,1-2.1
		s-3.9-14.2-3.9-14.2l-0.8-3.4l-14.6,6.7l-10,10.6c0,0,1.8,7.3,2.5,10.4c0.6,2.6,3.7,2,7,1.2c3.4-0.9,7.1-2.2,9.3-4.2
		C439.6,473.6,442.8,470.2,447,470.6z"/>
	<path class="st51" d="M449.1,488.5c-1.3,1.4-4.4,4-10,5.2c-4.9,1-9.1,0.8-11.6,0.4c0,0-0.1,0-0.1,0c-0.1,0-0.2,0-0.3,0
		c-0.7-0.1-1.3-0.2-1.7-0.3c0,0,0,0,0,0c-0.1,0-0.1-0.1-0.2-0.1c-0.1,0-0.1,0-0.1-0.1c-1.3-0.8-2.5-7.5-2.7-9.4
		c-0.2-2-0.1-0.5,3-0.5c3,0,8.3-2,11.1-3.4c2.8-1.4,6.9-6.4,11.3-7.1c0.5-0.1,1.1,3.3,1.1,3.3l0,0
		C449.8,485.3,450.8,487.3,449.1,488.5z"/>
	<path class="st51" d="M450.2,556.3c0,0,2.2-28.1,2.8-41c0.4-8.8,1.2-14.2,0.8-14.9c-0.2-0.3-1.5,6.7-14.5,6.7
		c-12.4,0-15.2-7-15.1-6.9c0.1,0.1-0.6-1-0.6-0.9c-1.2,3-2.3,11.5-2.3,11.5l15.5,11.3l4.3,20.2l5.2,12l2.7,1.7L450.2,556.3z"/>
	
		<linearGradient id="SVGID_00000063596574906509165800000003282385854467045296_" gradientUnits="userSpaceOnUse" x1="409.0815" y1="340.9873" x2="442.8857" y2="362.0033" gradientTransform="matrix(1 0 0 -1 0 791.89)">
		<stop  offset="0" style="stop-color:#D3DFF5"/>
		<stop  offset="0.1802" style="stop-color:#E4ECF9"/>
		<stop  offset="0.491" style="stop-color:#FFFFFF"/>
		<stop  offset="0.7018" style="stop-color:#FCFDFF"/>
		<stop  offset="0.8373" style="stop-color:#F4F8FE"/>
		<stop  offset="0.9513" style="stop-color:#E5EEFD"/>
		<stop  offset="1" style="stop-color:#DCE8FC"/>
	</linearGradient>
	<path style="fill:url(#SVGID_00000063596574906509165800000003282385854467045296_);" d="M417.5,483.2c0,0-6-2.1-1.2-9.3
		c1.6-2.4,4.1-6.4,8.8-9.8c25.1-18.1,27.8-6.4,27.8-6.4s-2.6-12.7-4.6-21.1c-2-8.4-4.9-20.9-8.8-27.1c-2.7-4.3-8.5-10-17.8-4
		c-9.1,5.9-10.6,15.7-11.2,20.2c-0.6,4.5-1.3,22.1-0.3,32.9s1.9,14.1,2.5,17.6C413.8,482.8,417.5,483.2,417.5,483.2z"/>
	
		<linearGradient id="SVGID_00000140734536426090448140000005996877279773762478_" gradientUnits="userSpaceOnUse" x1="418.0775" y1="249.0788" x2="449.8218" y2="249.0788" gradientTransform="matrix(1 0 0 -1 0 791.89)">
		<stop  offset="0" style="stop-color:#E1EBFB"/>
		<stop  offset="0.12" style="stop-color:#EEF3FD"/>
		<stop  offset="0.3025" style="stop-color:#FBFCFE"/>
		<stop  offset="0.4722" style="stop-color:#FFFFFF"/>
		<stop  offset="0.6804" style="stop-color:#FCFDFF"/>
		<stop  offset="0.8474" style="stop-color:#F2F6FD"/>
		<stop  offset="1" style="stop-color:#E1EBFB"/>
	</linearGradient>
	<path style="fill:url(#SVGID_00000140734536426090448140000005996877279773762478_);" d="M452.2,563.5c-1.4,7.1-1.3,10.4-5.1,15.6
		c-2.9,4-8.6,4.2-13.4,4s-9-2.2-10.8-3.3c-2.6-1.6-2.8-4.9-2.8-4.9l-0.5-15.2l-1.5-41.3v0c0,0-1.2-13.3,1.1-15.3s3.8,0.5,5.3,3.6
		c1.9,3.7,9.2,7.4,14.8,7.4c5.6,0,7.9,1,7.4,5.2c-0.5,4.2-1.7,20.9-1.7,24.8c0,3.9,2.3,8,3.9,9.4
		C450.7,554.9,453.6,556.5,452.2,563.5z"/>
	<g id="Layer_25">
		<path class="st54" d="M447.5,474.1c-0.1,0-0.4,0.1-0.6,0.1c-0.5,0-1.6,0.2-3.4,1.6c-0.4,0.3-0.9,0.7-1.4,1.2
			c-1.5,1.3-3.5,3.1-7.4,5c-3.6,1.8-6.9,2.2-9.2,2.2c-1.5,0-2.5-0.2-2.7-0.2h0l-0.1,0c-0.4-0.2-0.7-0.3-0.6-0.9
			c0.2-0.7,0.9-0.9,0.9-0.9l0.2,0.9c0.2,0,0.3,0,0.6,0.1c1.8,0.2,5.9,0.2,10.3-2c3.7-1.9,5.6-3.5,7.2-4.9c0.5-0.4,1-0.9,1.4-1.2
			c1.9-1.4,3.5-1.8,4.3-1.8l0-0.6c0,0,0.4,0,0.7,0.6C448.1,473.7,447.9,473.9,447.5,474.1z"/>
	</g>
	<g>
		<g>
			<path class="st54" d="M453.9,501.4c0-0.7-0.3-2-0.4-1c-0.1,0.6-0.4,1.1-0.7,1.5l0,0c-0.1,0.1-0.1,0.2-0.2,0.3
				c0,0.1-0.1,0.1-0.1,0.1c0,0,0,0,0,0l0,0c-1.7,2.2-5.5,4.6-14.2,4.6c-9.8,0-13.5-6.2-13.6-6.3l0,0c-0.2-0.2-0.6-1-0.5-2.1
				c0,0-0.8,0.5-0.5,1.6c0.1,0.4,0.2,0.7,0.3,0.9l0,0c0,0,0,0,0,0.1c0,0,0,0,0,0.1c0.2,0.3,0.3,0.5,0.3,0.5l0,0
				c1.2,1.7,5.3,6.2,14,6.2c9.7,0,13.7-3,15.4-5.6l0,0C453.7,502.1,453.8,501.8,453.9,501.4z"/>
		</g>
	</g>
	<g id="Layer_27">
		<path class="st55" d="M430,528.7l0.1,33.6c0,1-0.8,1.8-1.8,1.8c-2.5-0.1-7-0.8-8.6-4.2l-1.5-41.3c1.1,1.4,2.6,3.3,5.3,4.5
			c1.4,0.6,2.6,1.1,3.6,1.5C428.8,525.1,430,526.8,430,528.7z"/>
		<path class="st55" d="M444.3,581.7L444.3,581.7c0,0,2.2-1.1,4.1-4.5c2-3.7,2.1-4.5,3.1-10l0.8-4c1-5.7-0.7-6.2-0.7-6.2l-0.1,0
			c-0.1-0.1-3-2-4.9-5.8c-1.8-3.5-1.8-5-1.8-9.8v-1c0-5.6,1.5-19.3,1.5-19.5c0-0.1,0.7-3.1-0.6-4.8c-0.6-0.8-1.7-1.2-3.1-1.2
			c-5.9,0-12.4-1.9-15.1-4.4c-2.8-2.5-3.5-4-4.2-5.1c-1.6-2.6-3.2-2.5-3.6-2.6l0.5-0.3c1.3-0.6,3.5,1.7,3.9,2.4
			c0.5,1,1.3,2.4,3.9,4.8c2.6,2.3,8.8,4.1,14.5,4.1c1.7,0,3,0.5,3.9,1.6c1.6,2.1,0.9,5.4,0.8,5.6c0,0.1-1.5,13.8-1.5,19.3v1
			c0,4.8,0,6.1,1.7,9.4c1.7,3.2,4.1,5.1,4.5,5.3c0.5,0.2,1.8,1.4,0.7,7.5l-0.3,1.6c-1,5.4-1.3,8.1-3.4,11.9
			C447.4,579.9,444.4,581.6,444.3,581.7z"/>
		<ellipse class="st56" cx="426.9" cy="528.4" rx="0.9" ry="1"/>
		<ellipse class="st56" cx="427.4" cy="561.4" rx="0.9" ry="1"/>
		<path class="st55" d="M418.7,483.5c-1.7,0-4.3-0.8-4.6-3.8c-0.4-4.1,4.2-10.9,10.6-16c6.5-5,14.1-10.1,21.9-10.1
			c5.4,0,6,3.1,6,3.2c0,0.2,1.5,3.4-5.5,8.7l-0.3-1.1c5.5-3.7,4.9-7,4.9-7c0,0,0-2.9-5.1-2.9c-7.5,0-15,5-21.3,9.9
			c-6.8,5.3-10.6,11.8-10.3,15.1c0.3,3.2,3.7,2.9,3.9,2.9l0,0c0,0,2.1,0,4-1.7l0.1,1c-2,1.5-3.9,1.7-4,1.7
			C418.9,483.5,418.8,483.5,418.7,483.5z"/>
	</g>
	<g>
		<path class="st15" d="M428.5,455.3c-0.1,0.8-0.7,1.4-1.4,1.3c-0.7,0-1.2-0.6-1.2-1.3h0l-2.4-16.4l0,0c-0.1-0.2-0.1-0.4-0.1-0.6
			c0.1-0.8,0.7-1.4,1.4-1.3c0.6,0,1.1,0.5,1.2,1.1c0,0,0.1,0.5,0.1,0.6l2.4,16.2C428.5,455,428.6,455.2,428.5,455.3z"/>
		<path class="st15" d="M424.6,457.6c-0.1,0.8-0.7,1.4-1.4,1.3c-0.7,0-1.2-0.6-1.2-1.3h0l-2.4-16.4l0,0c-0.1-0.2-0.1-0.4-0.1-0.6
			c0.1-0.8,0.7-1.4,1.4-1.3c0.6,0,1.1,0.5,1.2,1.1c0,0,0.1,0.5,0.1,0.6l2.4,16.2C424.6,457.3,424.6,457.5,424.6,457.6z"/>
		<path class="st15" d="M421,460.7c-0.1,0.8-0.7,1.4-1.4,1.3c-0.7,0-1.2-0.6-1.2-1.3h0l-2.4-16.4l0,0c-0.1-0.2-0.1-0.4-0.1-0.6
			c0.1-0.8,0.7-1.4,1.4-1.3c0.6,0,1.1,0.5,1.2,1.1c0,0,0.1,0.5,0.1,0.6l2.4,16.2C421,460.4,421,460.5,421,460.7z"/>
	</g>
	<path class="st57" d="M444.6,453.7c0,0-3.6-19.5-6.1-29.3s-6-17.4-10.4-21.8"/>
</g>
<g id="Layer_32">
	<g id="Layer_20">
		
			<linearGradient id="SVGID_00000002381540267327294210000008351175534297184177_" gradientUnits="userSpaceOnUse" x1="410.0312" y1="366.1929" x2="405.739" y2="375.1994" gradientTransform="matrix(-0.9265 -0.3762 0.3762 -0.9265 483.2305 953.6156)">
			<stop  offset="0" style="stop-color:#496785"/>
			<stop  offset="1" style="stop-color:#334F6B"/>
		</linearGradient>
		<path style="fill:url(#SVGID_00000002381540267327294210000008351175534297184177_);" d="M251.9,454.9c0,0-8.1-17.8-14.6-17
			c-6.4,0.8-8.2,3.6-8.2,3.6s-2.2,2.7,4.1,11.4s11.6,20,16.3,23.9c5.5,4.5,8.2-3.7,8.6-6.5L251.9,454.9z"/>
		<path class="st15" d="M227.6,459.9c0.2-1.5,0.8-2.9,1.6-4.1c0.4-0.6,1-1.2,1.7-1.1c0.4,0,0.8,0.2,1.1,0.4c2.4,1.4,4.6,3,6.8,4.7
			c1.6,1.2,3.1,2.4,4.5,3.8c0.8,0.8,1.4,1.7,2.1,2.5c0.8,1.1,1.6,2.2,2.3,3.3c0.3,0.5,0.6,1,0.7,1.5c0.3,1.2-0.4,2.4-1,3.5
			c-0.4,0.7-0.8,1.4-1.5,1.8c-0.5,0.3-1.1,0.4-1.7,0.3c-1.7-0.1-3.2-1-4.5-2c-3.1-2.3-5.8-5.3-7.7-8.7"/>
		
			<linearGradient id="SVGID_00000088832236254287991540000002580350214391763331_" gradientUnits="userSpaceOnUse" x1="409.1683" y1="437.6245" x2="403.6972" y2="419.6627" gradientTransform="matrix(-1.0002 -1.580000e-02 2.180000e-02 -1.0232 674.107 855.9669)">
			<stop  offset="0" style="stop-color:#0B2352"/>
			<stop  offset="1" style="stop-color:#030914"/>
		</linearGradient>
		<path style="fill:url(#SVGID_00000088832236254287991540000002580350214391763331_);" d="M288.9,415.4c1.6-6.8,1.4-11.3-0.4-13.5
			c-3-3.7-6.8-5.7-11.9-5.1c-8.1,0.9-14,8.3-13.2,16.5s8,14.3,16.1,13.4c2-0.2,2.7-1.2,4.4-1.9C284.7,424.4,287.1,422.8,288.9,415.4
			z"/>
		
			<linearGradient id="SVGID_00000053547458965418572000000015973073716435109557_" gradientUnits="userSpaceOnUse" x1="410.0274" y1="364.4373" x2="406.2015" y2="378.219" gradientTransform="matrix(-0.9265 -0.3762 0.3762 -0.9265 483.2305 953.6156)">
			<stop  offset="0" style="stop-color:#0B2352"/>
			<stop  offset="1" style="stop-color:#010308"/>
		</linearGradient>
		<path style="fill:url(#SVGID_00000053547458965418572000000015973073716435109557_);" d="M229.3,455.3c0,0-1.9-0.1-0.1-2.3
			c1.8-2.2,8.9-11.7,8.9-11.7l2.1-2.8l11,11.7l5.3,13.6c0,0-4.4,6.1-6.2,8.7c-1.6,2.2-4.2,0.5-6.9-1.5c-2.8-2.1-5.7-4.7-7-7.4
			C235.1,460.8,233.3,456.5,229.3,455.3z"/>
		
			<linearGradient id="SVGID_00000079448931858549715090000001755509837713899679_" gradientUnits="userSpaceOnUse" x1="384.8362" y1="385.9757" x2="418.6404" y2="406.9919" gradientTransform="matrix(-0.9265 -0.3762 0.3762 -0.9265 483.2305 953.6156)">
			<stop  offset="0" style="stop-color:#D3DFF5"/>
			<stop  offset="0.1802" style="stop-color:#E4ECF9"/>
			<stop  offset="0.491" style="stop-color:#FFFFFF"/>
			<stop  offset="0.7018" style="stop-color:#FCFDFF"/>
			<stop  offset="0.8373" style="stop-color:#F4F8FE"/>
			<stop  offset="0.9513" style="stop-color:#E5EEFD"/>
			<stop  offset="1" style="stop-color:#DCE8FC"/>
		</linearGradient>
		<path style="fill:url(#SVGID_00000079448931858549715090000001755509837713899679_);" d="M251.9,478c0,0,6.3,0.3,4.6-8.2
			c-0.5-2.8-1.4-7.5-4.4-12.4c-16.5-26.2-23.3-16.4-23.3-16.4s7.2-10.8,12.2-17.8c5-7,12.4-17.6,18.3-21.9c4.1-3,11.6-6.1,18,3
			c6.2,8.9,4,18.6,2.8,22.9c-1.2,4.4-7.1,21-12.1,30.6s-7,12.3-9,15.4C255.5,479,251.9,478,251.9,478z"/>
		<path class="st55" d="M250.7,477.8c1.6,0.6,4.3,0.9,5.7-1.8c1.9-3.6,0.2-11.7-3.9-18.8s-9.2-14.7-16.5-17.6c-5-2-6.7,0.6-6.8,0.8
			c-0.1,0.2-2.7,2.6,1.8,10.1l0.7-0.9c-3.7-5.5-2-8.3-1.9-8.3c0,0,1-2.7,5.8-0.8c6.9,2.8,12,10.3,16,17.2c4.3,7.5,5.3,14.9,3.9,17.8
			c-1.5,2.8-4.6,1.3-4.7,1.2l0,0c0,0-1.9-0.8-3.1-3.1l-0.5,0.9c1.3,2.2,3,3,3.1,3.1C250.5,477.7,250.6,477.8,250.7,477.8z"/>
	</g>
	<g>
		<path class="st15" d="M252.8,446.7c-0.3,0.7,0.1,1.6,0.8,1.8c0.6,0.2,1.3-0.1,1.6-0.7l0,0l8.8-14l0,0c0.1-0.1,0.2-0.3,0.3-0.5
			c0.3-0.8-0.1-1.6-0.8-1.8c-0.6-0.2-1.2,0-1.5,0.5c0,0-0.3,0.5-0.3,0.5l-8.8,13.8C252.9,446.5,252.8,446.6,252.8,446.7z"/>
		<path class="st15" d="M255.5,450.4c-0.3,0.7,0.1,1.6,0.8,1.8c0.6,0.2,1.3-0.1,1.6-0.7l0,0l8.9-14l0,0c0.1-0.1,0.2-0.3,0.3-0.5
			c0.3-0.8-0.1-1.6-0.8-1.8c-0.6-0.2-1.2,0-1.5,0.5c0,0-0.3,0.5-0.3,0.5l-8.8,13.8C255.6,450.2,255.6,450.3,255.5,450.4z"/>
		<path class="st15" d="M257.5,454.7c-0.3,0.7,0.1,1.6,0.8,1.8c0.6,0.2,1.3-0.1,1.6-0.7l0,0l8.9-14l0,0c0.1-0.1,0.2-0.3,0.3-0.5
			c0.3-0.8-0.1-1.6-0.8-1.8c-0.6-0.2-1.2,0-1.5,0.5c0,0-0.3,0.5-0.3,0.5l-8.8,13.8C257.6,454.5,257.6,454.6,257.5,454.7z"/>
	</g>
	<g id="Layer_33">
		<ellipse class="st15" cx="228.8" cy="475.9" rx="14.5" ry="14.3"/>
		<path class="st62" d="M189.9,438.6l4.3,22.6c0,0,0.9,9.2,4.7,11.5s9.5-0.1,9.5-0.1l-8-35.9L189.9,438.6z"/>
		
			<linearGradient id="SVGID_00000124159830543253312990000003234655824262774191_" gradientUnits="userSpaceOnUse" x1="212.3378" y1="316.4533" x2="205.2422" y2="352.8467" gradientTransform="matrix(1 0 0 -1 0 791.89)">
			<stop  offset="0" style="stop-color:#122B5E"/>
			<stop  offset="1" style="stop-color:#040B18"/>
		</linearGradient>
		<path style="fill:url(#SVGID_00000124159830543253312990000003234655824262774191_);" d="M194.3,436.9l1.1,1.3l11.1,38.7
			c0,0,1.6,5.2,4.9,6.4s9.7-2.7,11-7.7c1.3-5-9.9-37.5-9.9-37.5L194.3,436.9z"/>
		
			<linearGradient id="SVGID_00000054980199515078564690000009970660951191546790_" gradientUnits="userSpaceOnUse" x1="188.3773" y1="345.0057" x2="223.8526" y2="359.8848" gradientTransform="matrix(1 0 0 -1 0 791.89)">
			<stop  offset="0" style="stop-color:#D3DFF5"/>
			<stop  offset="6.696950e-03" style="stop-color:#D4E0F5"/>
			<stop  offset="0.1999" style="stop-color:#ECF1FB"/>
			<stop  offset="0.3797" style="stop-color:#FAFBFE"/>
			<stop  offset="0.5317" style="stop-color:#FFFFFF"/>
			<stop  offset="0.7076" style="stop-color:#FCFDFE"/>
			<stop  offset="0.8245" style="stop-color:#F3F7FC"/>
			<stop  offset="0.9238" style="stop-color:#E4ECF9"/>
			<stop  offset="1" style="stop-color:#D3DFF5"/>
		</linearGradient>
		<path style="fill:url(#SVGID_00000054980199515078564690000009970660951191546790_);" d="M237.8,468.2c-3.8,3.4-6.8,5.5-10.7,6
			c-4.6,0.6-7-0.6-7-0.6s-5.1-1.5-7.4-9.7c-2.4-8.2-4-18.9-9.4-22c-5.4-3.1-10.9-1.5-11.6-1.5c-0.7,0-5.4,0.4-6.5-2l-1.4-29.7
			c0,0,2.2,0.1,7-1c5.5-1.3,10.2-3.3,13-7.3c2-2.9,5.1-4.7,4.6-6l6.6,14l15.1,31.8l1.9,4.1l8.2,18.1
			C240.2,462.6,241.3,464.9,237.8,468.2z"/>
		
			<ellipse transform="matrix(0.8617 -0.5075 0.5075 0.8617 -176.8526 155.2044)" class="st62" cx="196.3" cy="402" rx="14.2" ry="4.8"/>
		
			<ellipse transform="matrix(0.8617 -0.5075 0.5075 0.8617 -176.8909 155.1652)" class="st65" cx="196.2" cy="402" rx="13.7" ry="4.8"/>
		<g id="Layer_34">
			<path class="st55" d="M232,444.5c-0.2,1.8-0.9,4.3-3.2,6.3c-1,0.9-1.8,1.5-2.5,2c-1.4,0.9-3.3,0.4-3.9-1.1l-13.6-31.7
				c-0.6-1.5-0.2-3.3,1.2-4.2c1.9-1.3,4.2-3.6,5.1-7.2l15.1,31.8L232,444.5z"/>
			<ellipse class="st56" cx="225.5" cy="448.8" rx="1" ry="1"/>
			<ellipse class="st56" cx="212.5" cy="419" rx="1" ry="1"/>
		</g>
	</g>
	<g id="Layer_36">
		
			<linearGradient id="SVGID_00000135690886120542107140000014320794092795640209_" gradientUnits="userSpaceOnUse" x1="187.8523" y1="389.3456" x2="202.2824" y2="399.6384" gradientTransform="matrix(1 0 0 -1 0 791.89)">
			<stop  offset="0" style="stop-color:#000E2B"/>
			<stop  offset="1" style="stop-color:#1D216E"/>
		</linearGradient>
		<path style="fill:url(#SVGID_00000135690886120542107140000014320794092795640209_);" d="M184.3,400c0-6.2,5.1-11.3,11.3-11.3
			c5.7,0,10.9,4.4,11.2,9.8c0,0.2-4.1,4.8-7.9,7.1c-4.9,2.9-9.2,4.1-9.6,3.8C186.3,407.3,184.3,403.9,184.3,400z"/>
		<path class="st57" d="M233.8,439.3c0,0,10.9-16.5,17-24.6c6.2-8.1,12.2-15.3,19.5-15.9"/>
	</g>
</g>
<g id="Layer_37">
	<g>
		<path class="st15" d="M163.4,381.9c1.2-1.3,3.2-1.5,4.8-0.9c0.5,0.2,0.7,1.5,0.9,2c0.4,1.3,0.6,1.6,0.7,2.4
			c0.1,0.9,0.2,1.7-0.4,2.3c-1.6,1.7-4.3,1.7-5.9,0.1C161.9,386.2,161.8,383.6,163.4,381.9z"/>
		
			<linearGradient id="SVGID_00000008827686633196908690000017574208375094845057_" gradientUnits="userSpaceOnUse" x1="161.0721" y1="412.5466" x2="158.983" y2="405.7628" gradientTransform="matrix(1 0 0 -1 0 791.89)">
			<stop  offset="0" style="stop-color:#DEE8FA"/>
			<stop  offset="1" style="stop-color:#BAC9E8"/>
		</linearGradient>
		<path style="fill:url(#SVGID_00000008827686633196908690000017574208375094845057_);" d="M156.4,377.2l8.2,2.7
			c0,0,3.6,0.9,3.2,4.8c-0.5,4.3-3.4,4.6-3.4,4.6l-6.4-2.5c-1-0.4-2.4-1-3.3-1.6l-3.3-2c0,0,3,0.6,4.5-1.8
			C157.2,379.2,156.4,377.2,156.4,377.2z"/>
		
			<ellipse transform="matrix(0.6933 -0.7206 0.7206 0.6933 -226.7757 227.536)" class="st37" cx="153.9" cy="380.2" rx="3.9" ry="2.8"/>
		<circle class="st15" cx="152.7" cy="379" r="3.2"/>
		<circle class="st15" cx="172.8" cy="377.1" r="3.5"/>
		
			<linearGradient id="SVGID_00000108997320596882168210000000929432316901134505_" gradientUnits="userSpaceOnUse" x1="149.5458" y1="419.9957" x2="146.5102" y2="416.3058" gradientTransform="matrix(1 0 0 -1 0 791.89)">
			<stop  offset="0" style="stop-color:#DEE8FA"/>
			<stop  offset="1" style="stop-color:#BAC9E8"/>
		</linearGradient>
		<path style="fill:url(#SVGID_00000108997320596882168210000000929432316901134505_);" d="M149.5,370.3l3.7,3.8
			c0,0,2.1,1.8,1.5,3.5c-1.1,3.5-3,4.2-4.8,3.6s-3-2.4-4.4-4.6c-1.4-2.2-3.4-6.7-3.1-8.5s2.6-2.4,4-1L149.5,370.3z"/>
	</g>
	
		<linearGradient id="SVGID_00000095325094391764955950000001531842765842347417_" gradientUnits="userSpaceOnUse" x1="199.95" y1="406.5356" x2="177.7295" y2="398.7408" gradientTransform="matrix(1 0 0 -1 0 791.89)">
		<stop  offset="0" style="stop-color:#A4B8E0"/>
		<stop  offset="1" style="stop-color:#889BC2"/>
	</linearGradient>
	<path style="fill:url(#SVGID_00000095325094391764955950000001531842765842347417_);" d="M200.8,380.5c0,0,5,10-0.9,15.3
		c-5.2,4.7-11.9,6.6-15.5,6.9s-11-0.3-13.6-5.4s-3.4-11.2-2.9-12.9s6.6-0.5,11.5-1.4c5-0.9,9.7-0.5,14.2,0.3
		C198.2,384,200.8,380.5,200.8,380.5z"/>
	
		<linearGradient id="SVGID_00000124146670419185160470000009180594191833874827_" gradientUnits="userSpaceOnUse" x1="191.5701" y1="414.3492" x2="175.5068" y2="400.9208" gradientTransform="matrix(1 0 0 -1 0 791.89)">
		<stop  offset="0" style="stop-color:#DEE9FF"/>
		<stop  offset="1" style="stop-color:#F2F7FF"/>
	</linearGradient>
	<path style="fill:url(#SVGID_00000124146670419185160470000009180594191833874827_);" d="M199.1,378.7c0,0,4.5,2.3,0,8.6
		c-4.1,5.7-12.9,6.9-16.5,7.2s-11.6-1.9-13.6-4.7c-2.2-3.1-1.2-7-0.7-8.7c0.5-1.7,4.3-4.7,9.3-5.6c5-0.9,9.8-0.7,14.2,0.3
		C196.8,376.8,199.1,378.7,199.1,378.7z"/>
	<g>
		<path class="st15" d="M163.4,391.1c0.9-1.5,2.9-2,4.5-1.8c0.5,0.1,1,1.3,1.3,1.8c0.7,1.2,0.9,1.4,1.2,2.2c0.3,0.9,0.5,1.6,0.1,2.3
			c-1.3,2-3.9,2.5-5.8,1.3S162.1,393.1,163.4,391.1z"/>
		
			<linearGradient id="SVGID_00000016790822255881545870000005607306834333996979_" gradientUnits="userSpaceOnUse" x1="160.4057" y1="402.6722" x2="159.8734" y2="395.6593" gradientTransform="matrix(1 0 0 -1 0 791.89)">
			<stop  offset="0" style="stop-color:#DEE8FA"/>
			<stop  offset="0.5" style="stop-color:#DEE9FE"/>
			<stop  offset="1" style="stop-color:#BAC9E8"/>
		</linearGradient>
		<path style="fill:url(#SVGID_00000016790822255881545870000005607306834333996979_);" d="M155.6,387.9l8.5,1c0,0,3.7,0.2,4,4.1
			c0.4,4.3-2.4,5.1-2.4,5.1l-6.7-1.2c-1-0.2-2.5-0.6-3.5-0.9l-3.7-1.3c0,0,3.1,0,4.1-2.6C156.8,389.6,155.6,387.9,155.6,387.9z"/>
		
			<ellipse transform="matrix(0.541 -0.841 0.841 0.541 -258.4818 308.9121)" class="st37" cx="153.8" cy="391.3" rx="3.9" ry="2.8"/>
		<circle class="st15" cx="152.3" cy="390.3" r="3.2"/>
		
			<linearGradient id="SVGID_00000080195809255259844990000005693778565344339100_" gradientUnits="userSpaceOnUse" x1="144.844" y1="403.4412" x2="148.4429" y2="408.3278" gradientTransform="matrix(1 0 0 -1 0 791.89)">
			<stop  offset="0" style="stop-color:#BAC9E8"/>
			<stop  offset="0.5" style="stop-color:#DEE9FF"/>
			<stop  offset="1" style="stop-color:#DEE8FA"/>
		</linearGradient>
		<path style="fill:url(#SVGID_00000080195809255259844990000005693778565344339100_);" d="M147.4,382.4l4.4,3c0,0,2.4,1.3,2.1,3.2
			c-0.4,3.6-2.1,4.7-4,4.5c-1.9-0.3-3.4-1.8-5.2-3.7s-4.6-5.9-4.7-7.8s2.1-2.9,3.7-1.7L147.4,382.4z"/>
	</g>
	<g>
		<path class="st15" d="M169.4,398.9c0.1-2.3,2-4.5,4.2-3.7c1.8,0.7,4.3,2.8,4.2,4.1c-0.2,2.3-2.1,4.1-4.4,4
			C171.1,403.2,169.3,401.2,169.4,398.9z"/>
		
			<linearGradient id="SVGID_00000022555455662540125000000003072510595806891955_" gradientUnits="userSpaceOnUse" x1="166.3676" y1="393.5086" x2="168.668" y2="387.077" gradientTransform="matrix(1 0 0 -1 0 791.89)">
			<stop  offset="0" style="stop-color:#DEE8FA"/>
			<stop  offset="1" style="stop-color:#BAC9E8"/>
		</linearGradient>
		<path style="fill:url(#SVGID_00000022555455662540125000000003072510595806891955_);" d="M161.1,400l7.9-3.4c0,0,3.3-1.7,5.5,1.5
			c2.5,3.6,0.5,5.7,0.5,5.7l-6.5,2.3c-1,0.3-2.5,0.8-3.5,1l-3.8,0.7c0,0,2.7-1.5,2.2-4.3C163,401,161.1,400,161.1,400z"/>
		
			<ellipse transform="matrix(4.989772e-02 -0.9988 0.9988 4.989772e-02 -250.1756 544.6959)" class="st37" cx="161.2" cy="403.8" rx="3.9" ry="2.8"/>
		<circle class="st15" cx="159.4" cy="403.8" r="3.2"/>
		
			<linearGradient id="SVGID_00000183932274174452508180000000144116443934283447_" gradientUnits="userSpaceOnUse" x1="154.3797" y1="393.351" x2="151.894" y2="388.1329" gradientTransform="matrix(1 0 0 -1 0 791.89)">
			<stop  offset="0" style="stop-color:#DEE8FA"/>
			<stop  offset="0.5" style="stop-color:#DEE9FD"/>
			<stop  offset="1" style="stop-color:#BCCBE9"/>
		</linearGradient>
		<path style="fill:url(#SVGID_00000183932274174452508180000000144116443934283447_);" d="M153,397.6l4.9,1.9c0,0,2.6,0.7,2.8,2.6
			c0.4,3.6-1,5.1-2.9,5.3s-3.8-1-5.9-2.4s-5.9-4.7-6.4-6.5c-0.5-1.8,1.4-3.2,3.2-2.6L153,397.6z"/>
	</g>
	
		<linearGradient id="SVGID_00000167391757150401310990000013857285171234517438_" gradientUnits="userSpaceOnUse" x1="166.1935" y1="418.7702" x2="169.5702" y2="422.9107" gradientTransform="matrix(1 0 0 -1 0 791.89)">
		<stop  offset="0" style="stop-color:#BAC9E8"/>
		<stop  offset="1" style="stop-color:#DCE7F9"/>
	</linearGradient>
	<path style="fill:url(#SVGID_00000167391757150401310990000013857285171234517438_);" d="M173.6,375.9c1.1-1.4,1.2-3.1-0.1-4.2
		c-0.5-0.5-1.1-1.1-1.8-1.8c-2.3-2.4-5.7-6.1-7.4-5.7c-1.7,0.4-2,2.2-1.3,4.8c0.7,2.7,3.9,6.9,5.1,8.1S172.1,377.4,173.6,375.9
		C173.8,375.8,173.5,376.1,173.6,375.9z"/>
	
		<radialGradient id="SVGID_00000036213497860546341450000013455110968437452977_" cx="183.8" cy="391.9548" r="5.5597" gradientTransform="matrix(1 0 0 -0.6079 0 622.0631)" gradientUnits="userSpaceOnUse">
		<stop  offset="0" style="stop-color:#F2F9FF"/>
		<stop  offset="0.2365" style="stop-color:#EFF7FE"/>
		<stop  offset="0.4292" style="stop-color:#E5F2FD"/>
		<stop  offset="0.6065" style="stop-color:#D4E9FA"/>
		<stop  offset="0.7746" style="stop-color:#BCDCF5"/>
		<stop  offset="0.9347" style="stop-color:#9DCCF0"/>
		<stop  offset="1" style="stop-color:#8EC4ED"/>
	</radialGradient>
	<path style="fill:url(#SVGID_00000036213497860546341450000013455110968437452977_);" d="M178.3,384c-0.1-1.8,2.3-3.4,5.3-3.6
		s5.6,1.2,5.6,3.1c0.1,1.8-2.3,3.4-5.3,3.6S178.4,385.9,178.3,384z"/>
</g>
<g id="Layer_9">
	
		<linearGradient id="SVGID_00000147189204767131549390000014779730656905214129_" gradientUnits="userSpaceOnUse" x1="346.24" y1="519.1711" x2="346.24" y2="415.0801" gradientTransform="matrix(1 0 0 -1 0 791.89)">
		<stop  offset="0" style="stop-color:#E1ECF7"/>
		<stop  offset="7.850000e-02" style="stop-color:#E8F0F7"/>
		<stop  offset="0.2532" style="stop-color:#F2F4F7"/>
		<stop  offset="0.4795" style="stop-color:#F5F6F7"/>
		<stop  offset="0.7452" style="stop-color:#F2F5F7"/>
		<stop  offset="0.9076" style="stop-color:#EAF0F7"/>
		<stop  offset="1" style="stop-color:#E1ECF7"/>
	</linearGradient>
	<path style="fill:url(#SVGID_00000147189204767131549390000014779730656905214129_);" d="M410.1,350.4l-9.1,14.5l-10.3,5.1
		c0,0-2.4,1.4-8.4,2.8c-6.5,1.5-17.2,3.2-33.8,3.3c-0.7,0-1.3,0-2,0H346c-0.5,0-1,0-1.6,0h-0.1c-16.5-0.1-27.2-1.7-33.8-3.2
		c-6.4-1.5-8.8-2.9-8.8-2.9l-12.7-6.9l-6.9-11.8c0,0-7.7-59.1-7.5-59.5c6.8-12.4,18.4-18.6,18.4-18.6h106.3c0,0,11.6,6.2,18.4,18.6
		C418,292.2,410.1,350.4,410.1,350.4z"/>
	
		<linearGradient id="SVGID_00000170983785755385103530000000005677161421454225_" gradientUnits="userSpaceOnUse" x1="410.1713" y1="483.1543" x2="406.2093" y2="442.6201" gradientTransform="matrix(1 0 0 -1 0 791.89)">
		<stop  offset="0" style="stop-color:#B3CBE3"/>
		<stop  offset="1" style="stop-color:#7CA5CF"/>
	</linearGradient>
	<path style="fill:url(#SVGID_00000170983785755385103530000000005677161421454225_);" d="M421.6,319.9c0,21.8-1.4,27.5-10.9,37.8
		c-9.3,9.9-19.4,12.2-20,12.4c14.3-6.8,16.7-15.2,18.3-23.6c1.7-8.4,1.4-31,1.4-31l0,0c0-13.7,2.5-24.8,5.6-24.8
		c3.1,0,5.6,11.2,5.6,25C421.7,316.7,421.6,319.9,421.6,319.9z"/>
	
		<linearGradient id="SVGID_00000008865344844896161460000009399173967533818283_" gradientUnits="userSpaceOnUse" x1="282.8958" y1="492.1422" x2="286.5049" y2="441.8168" gradientTransform="matrix(1 0 0 -1 0 791.89)">
		<stop  offset="0" style="stop-color:#B3CBE3"/>
		<stop  offset="1" style="stop-color:#7CA5CF"/>
	</linearGradient>
	<path style="fill:url(#SVGID_00000008865344844896161460000009399173967533818283_);" d="M271,319.9c0,21.8,1.4,27.5,10.9,37.8
		c9.3,9.9,19.4,12.2,20,12.4c-14.3-6.8-16.7-15.2-18.3-23.6c-1.7-8.4-1.4-31-1.4-31l0,0c0-13.7-2.5-24.8-5.6-24.8
		c-3.1,0-5.6,11.2-5.6,25C270.9,316.7,271,319.9,271,319.9z"/>
	<g class="st80">
		<g>
			
				<linearGradient id="SVGID_00000048501076132223773070000007000567553557307323_" gradientUnits="userSpaceOnUse" x1="346.7546" y1="428.6723" x2="346.3414" y2="415.725" gradientTransform="matrix(1 0 0 -1 0 791.89)">
				<stop  offset="0" style="stop-color:#DAE6F2"/>
				<stop  offset="1" style="stop-color:#A5BED6"/>
			</linearGradient>
			<path style="fill:url(#SVGID_00000048501076132223773070000007000567553557307323_);" d="M375.8,360.3c0,0-0.1,0-0.2,0
				c-0.1,0-0.1,0-0.2,0c-0.1,0-0.2,0-0.3,0c-2.9,0.3-14.2,1.4-28.1,1.6h-1c-13.9-0.1-25.1-1.2-28.1-1.6c-0.1,0-0.2,0-0.3,0
				c-0.1,0-0.1,0-0.2,0c-0.1,0-0.2,0-0.2,0l-6.5,12.6c6.6,1.5,17.3,3.1,33.8,3.2h0.1l2-0.1l2,0.1c16.6-0.1,27.3-1.8,33.8-3.3
				L375.8,360.3z"/>
		</g>
	</g>
	<g id="Layer_10">
		<path class="st16" d="M421.2,307.3v21H417c-1.5,0-2.6-4.7-2.6-10.5s1.2-10.5,2.6-10.5H421.2z"/>
		<ellipse class="st82" cx="421" cy="317.8" rx="2.6" ry="10.5"/>
		<path class="st16" d="M271.5,307.3l-0.3,21h4.2c1.5,0,2.6-4.7,2.6-10.5s-1.2-10.5-2.6-10.5H271.5z"/>
		<ellipse class="st82" cx="271.5" cy="317.8" rx="2.6" ry="10.5"/>
	</g>
	<circle class="st83" cx="374.2" cy="363.4" r="0.9"/>
	<circle class="st83" cx="319" cy="363.4" r="0.9"/>
	<path class="st11" d="M410.2,331c0,0,0,1.6-0.1,4.1c-0.1,1.6-0.2,3.7-0.5,5.9c-0.4,3.7-1,7.8-2.2,11.5l0,0
		c-0.1,0.4-0.3,0.9-0.4,1.2c-4.3,11.8-14,15.1-14,15.1s8.2-4.9,11.2-11.3c0,0,3.5-5.7,4.7-15.4C409.9,333.8,410.2,331,410.2,331z"/>
	<path class="st11" d="M411.1,304.1c0,0,0.8-6.9,2.3-10.4s2.7-3.1,2.7-3.1s-1.4-0.6-2.8,1.9c-1.4,2.5-1.9,5.5-2,7.2
		S411.1,304.1,411.1,304.1z"/>
	<path class="st11" d="M282.3,330.7c0,0,0,1.6,0.1,4.1c0.1,1.6,0.2,3.7,0.5,5.9c0.4,3.7,1,7.8,2.2,11.5l0,0c0.1,0.4,0.3,0.9,0.4,1.2
		c4.3,11.8,14,15.1,14,15.1s-8.2-4.9-11.2-11.3c0,0-3.5-5.7-4.7-15.4C282.7,333.6,282.3,330.7,282.3,330.7z"/>
	<path class="st11" d="M282.1,312.3c0,0-0.5-11.5-2.3-16.9c-0.9-2.8-2.4-5.9-4.4-4.3c0,0,1.4-1.6,2.8,0.3c0.8,1,2.8,3.2,3.4,13
		L282.1,312.3z"/>
	<path class="st84" d="M418.4,319.9c0,0-0.5-4.7,0.4-8.7s1.4-3.7,1.8-3.9s0.9-0.1,1.2,0.4s0.7,1.4,0.9,2.3c0.1,0.6-0.7-1.6-1.3-1.8
		c-0.6-0.2-1,0.2-1.5,1.3C418.7,312.5,418.4,319.9,418.4,319.9z"/>
	<path class="st84" d="M269,319.9c0,0-0.5-4.7,0.4-8.6c0.9-4,1.7-3.9,1.9-3.9c0.3-0.1,0.8,0,1.1,0.4s0.6,1.5,0.8,2.3
		c0.1,0.6-0.6-1.7-1.2-1.9c-0.6-0.2-1,0.2-1.5,1.3C269.3,312.5,269,319.9,269,319.9z"/>
</g>
<g id="Layer_3">
	<g>
		<g>
			<path class="st15" d="M403.7,273.6c-1.6-1-3.4-1.9-5.3-2.9c-0.5-0.4-1.1-0.8-1.5-1c-15.1-9.8-42.6-11.6-52-11.6
				c-1.6,0-3.9,0.2-6.6,0.6c-12.4,1-30.9,3.8-42.4,11.2c-0.1,0-0.1,0.1-0.2,0.1c-2.4,1.1-4.6,2.2-6.6,3.4c-0.2,0.1-0.4,1.8-0.1,2.5
				c0.1-0.1,1.5-0.2,2.5,1.4c3.2,5.4,5,11.4,5.6,20.7c0.6,9.2,0.8,21.4,1.5,27.3c0.8,5.9,1.1,14.4,6.8,17.9c5.2,3.2,13.8,4,18.8,4.2
				c0.1,0,0.3,0,0.5,0h0.2c0.9,0.1,5.8,0.5,23.1,0.5c13.2,0,18.3-0.2,20.8-0.3c5-0.2,13.7-1,18.8-4.2c5.7-3.5,6-12,6.8-17.9
				c0.8-5.9,1-18,1.5-27.3c0.5-9.2,2.4-15.3,5.6-20.7c1-1.6,2.4-1.5,2.5-1.4C404.1,275.4,403.9,273.7,403.7,273.6z"/>
		</g>
	</g>
	
		<linearGradient id="SVGID_00000055672626649995038710000004417755339953190839_" gradientUnits="userSpaceOnUse" x1="320.1042" y1="521.4384" x2="387.0981" y2="450.5114" gradientTransform="matrix(1 0 0 -1 0 791.89)">
		<stop  offset="0" style="stop-color:#0B2352"/>
		<stop  offset="0.2842" style="stop-color:#0F2152"/>
		<stop  offset="0.5872" style="stop-color:#1C1A52"/>
		<stop  offset="0.898" style="stop-color:#310F52"/>
		<stop  offset="1" style="stop-color:#3A0B52"/>
	</linearGradient>
	<path style="fill:url(#SVGID_00000055672626649995038710000004417755339953190839_);" d="M403.7,273.6c-0.1-0.1-1.5-1.1-3.8,2.4
		c-3.5,5.2-5,11.4-5.6,20.7c-0.6,9.2-0.8,21.4-1.5,27.3c-0.8,5.9-1.1,14.4-6.8,17.9c-5.2,3.2-13.8,4-18.8,4.2c-2.3,0.1-3.9,0-3.9,0
		s-8.1,0.1-16.9,0.3c-8.8-0.1-16.9-0.3-16.9-0.3s-1.5,0-3.9,0c-5-0.2-13.7-1-18.8-4.2c-5.7-3.5-6-12-6.8-17.9
		c-0.8-5.9-1-18-1.5-27.3c-0.5-9.2-2.1-15.4-5.6-20.7c-2.3-3.5-3.7-2.5-3.8-2.4c0.6-1.9,3.8-4.2,5.4-5.2c15.1-9.8,42.6-11.6,52-11.6
		c8.9,0.1,36.8,1.9,52,11.6C399.9,269.4,403,271.6,403.7,273.6z"/>
	<g id="Layer_4">
		
			<linearGradient id="SVGID_00000007406627376490690030000003345444200259540903_" gradientUnits="userSpaceOnUse" x1="337.9634" y1="531.1431" x2="392.6655" y2="519.2374" gradientTransform="matrix(1 0 0 -1 0 791.89)">
			<stop  offset="0" style="stop-color:#6A7A9C"/>
			<stop  offset="1" style="stop-color:#6C7C9E"/>
		</linearGradient>
		<path style="fill:url(#SVGID_00000007406627376490690030000003345444200259540903_);" d="M394.5,277.2l0-0.1
			c0.6-1.3,1.4-2.5,2.4-3.6l0,0c0,0,1.7-1.8-1.5-3.6s-22.6-11.8-61.7-9.5c-2.4,0.1-2.4,0.4-2.5,0.7c-0.4,0.9,1.8,1.4,1.8,1.4
			s31.1-0.1,51.6,7.2c0,0,1.6,0.5,0.9,1.5c-0.7,1-2.2,0.1-4.3-0.5c-2.1-0.7-9.4-2.6-12.2-2.8c-2.8-0.2-2.8,1.4-1.1,1.9
			s10.1,2.3,20.3,6.9c1.7,0.8,2.1,1.1,3.3,1.4C393.5,278.8,394.5,277.2,394.5,277.2z"/>
		
			<linearGradient id="SVGID_00000119076945931492098740000001516495450529157046_" gradientUnits="userSpaceOnUse" x1="313.0927" y1="527.8068" x2="321.3586" y2="527.8068" gradientTransform="matrix(1 0 0 -1 0 791.89)">
			<stop  offset="0" style="stop-color:#6A7A9C"/>
			<stop  offset="1" style="stop-color:#6A7A9C"/>
		</linearGradient>
		<path style="fill:url(#SVGID_00000119076945931492098740000001516495450529157046_);" d="M320.2,264.5c-1.7,0.8-3.5,1.2-5.3,1.3
			c-0.5,0-1,0-1.5-0.2c-0.1-0.1-0.2-0.1-0.3-0.2c-0.1-0.2,0-0.4,0.1-0.6c0.5-0.7,1.3-1.2,2.1-1.5c1.4-0.6,3-0.9,4.5-0.8
			c0.4,0,0.8,0.1,1.1,0.2s0.5,0.6,0.4,0.9c-0.1,0.2-0.2,0.3-0.4,0.5C320.6,264.3,320.2,264.5,320.2,264.5z"/>
	</g>
	<g id="Layer_5">
		<g>
			<circle class="st88" cx="350.2" cy="325.2" r="1.2"/>
			<circle class="st88" cx="350.2" cy="329.1" r="1.2"/>
			<circle class="st88" cx="358.7" cy="321.3" r="1.2"/>
			<circle class="st88" cx="354.4" cy="321.3" r="1.2"/>
			<circle class="st88" cx="354.4" cy="325.2" r="1.2"/>
			<circle class="st88" cx="345.9" cy="325.2" r="1.2"/>
			<circle class="st88" cx="345.9" cy="329.1" r="1.2"/>
			<circle class="st88" cx="354.4" cy="321.3" r="1.2"/>
			<circle class="st88" cx="358.7" cy="317.4" r="1.2"/>
			<circle class="st88" cx="358.7" cy="317.4" r="1.2"/>
			<circle class="st88" cx="354.4" cy="329.1" r="1.2"/>
			<circle class="st88" cx="350.2" cy="325.2" r="1.2"/>
			<circle class="st88" cx="354.4" cy="321.3" r="1.2"/>
			<circle class="st88" cx="354.4" cy="325.2" r="1.2"/>
			<circle class="st88" cx="358.7" cy="325.2" r="1.2"/>
			<circle class="st88" cx="362.9" cy="317.4" r="1.2"/>
			<circle class="st88" cx="362.9" cy="321.3" r="1.2"/>
			<circle class="st88" cx="362.9" cy="317.4" r="1.2"/>
			<circle class="st88" cx="328.9" cy="321.3" r="1.2"/>
			<circle class="st88" cx="328.9" cy="317.4" r="1.2"/>
			<circle class="st88" cx="328.9" cy="317.4" r="1.2"/>
			<circle class="st88" cx="333.2" cy="317.4" r="1.2"/>
			<circle class="st88" cx="333.2" cy="321.3" r="1.2"/>
			<circle class="st88" cx="333.2" cy="317.4" r="1.2"/>
			<circle class="st88" cx="341.7" cy="325.2" r="1.2"/>
			<circle class="st88" cx="341.7" cy="329.1" r="1.2"/>
			<circle class="st88" cx="341.7" cy="325.2" r="1.2"/>
			<circle class="st88" cx="341.7" cy="329.1" r="1.2"/>
			<circle class="st88" cx="337.4" cy="325.2" r="1.2"/>
			<circle class="st88" cx="337.4" cy="329.1" r="1.2"/>
			<circle class="st88" cx="337.4" cy="321.3" r="1.2"/>
			<circle class="st88" cx="337.4" cy="325.2" r="1.2"/>
			<circle class="st88" cx="337.4" cy="321.3" r="1.2"/>
			<circle class="st88" cx="333.2" cy="325.2" r="1.2"/>
		</g>
		<g>
			<circle class="st88" cx="325.4" cy="288.1" r="1.2"/>
			<circle class="st88" cx="325.4" cy="292" r="1.2"/>
			<circle class="st88" cx="325.4" cy="295.9" r="1.2"/>
			<circle class="st88" cx="325.4" cy="299.8" r="1.2"/>
			<circle class="st88" cx="325.4" cy="303.7" r="1.2"/>
			<circle class="st88" cx="321.2" cy="288.1" r="1.2"/>
			<circle class="st88" cx="321.2" cy="292" r="1.2"/>
			<circle class="st88" cx="321.2" cy="295.9" r="1.2"/>
			<circle class="st88" cx="321.2" cy="299.8" r="1.2"/>
			<circle class="st88" cx="321.2" cy="303.7" r="1.2"/>
			<circle class="st88" cx="316.9" cy="288.1" r="1.2"/>
			<circle class="st88" cx="316.9" cy="292" r="1.2"/>
			<circle class="st88" cx="316.9" cy="295.9" r="1.2"/>
			<circle class="st88" cx="316.9" cy="299.8" r="1.2"/>
			<circle class="st88" cx="316.9" cy="303.7" r="1.2"/>
		</g>
		<g>
			<circle class="st88" cx="375.7" cy="288.1" r="1.2"/>
			<circle class="st88" cx="375.7" cy="292" r="1.2"/>
			<circle class="st88" cx="375.7" cy="295.9" r="1.2"/>
			<circle class="st88" cx="375.7" cy="299.8" r="1.2"/>
			<circle class="st88" cx="375.7" cy="303.7" r="1.2"/>
			<circle class="st88" cx="371.5" cy="288.1" r="1.2"/>
			<circle class="st88" cx="371.5" cy="292" r="1.2"/>
			<circle class="st88" cx="371.5" cy="295.9" r="1.2"/>
			<circle class="st88" cx="371.5" cy="299.8" r="1.2"/>
			<circle class="st88" cx="371.5" cy="303.7" r="1.2"/>
			<circle class="st88" cx="367.2" cy="288.1" r="1.2"/>
			<circle class="st88" cx="367.2" cy="292" r="1.2"/>
			<circle class="st88" cx="367.2" cy="295.9" r="1.2"/>
			<circle class="st88" cx="367.2" cy="299.8" r="1.2"/>
			<circle class="st88" cx="367.2" cy="303.7" r="1.2"/>
		</g>
	</g>
	<g id="Layer_38">
		<path class="st89" d="M303.9,339c0,0-2.3-2.5-3-8.5s-1.2-11.5-1.3-13.3c-0.1-1.7-0.6-11.5-0.6-11.5s1.5,20.4,2.4,24.8
			c0.5,2.2,1.9,8.2,5.3,10.4l0,0c5.1,3.4,9.4,4,9.4,4s-4.1-0.5-6.8-1.8C305,341.1,303.9,339,303.9,339z"/>
	</g>
</g>
<g id="Layer_42">
	<path class="st90" d="M280.9,221.6l-91.6,161.5c0,0-0.8-2.4-5.4-2.6c-2.9-0.2-5.3,2.6-5.3,2.6l-105.7-162L280.9,221.6z"/>
	<path class="st91" d="M178.5,383.1L82,236.7C82,236.7,178.8,381.1,178.5,383.1z"/>
	<path class="st91" d="M275.6,229.7l-85.7,152C189.9,381.7,273.7,230.3,275.6,229.7z"/>
	<path class="st92" d="M163.1,274.1l3.1,13.9l5.2,23.4c0,0-2.5-15.1-3.9-20.9C165.9,283.4,163.1,274.1,163.1,274.1z"/>
	<path class="st92" d="M130.9,251.6l3.9,9.3l6.9,16.3c0,0-5.1-10-6.6-13.5C133.7,260.3,130.9,251.6,130.9,251.6z"/>
	<path class="st92" d="M130.9,284.3l7,12.9c0,0-3.4-4.2-4.5-6.7C132.3,288,130.9,284.3,130.9,284.3z"/>
</g>
<g id="Layer_41">
	<polygon class="st92" points="83.6,229.9 76.1,201.7 75.7,139.3 83.6,115.9 270.6,115.9 278.1,142.4 278.8,200.7 270.6,229.9 	"/>
	<polygon class="st93" points="282.1,126.4 282.1,219.5 270.6,229.9 270.6,206.6 276.4,201.4 276.4,144.5 270.6,139.3 270.6,115.9 	
		"/>
	<polygon class="st93" points="72.1,126.4 72.1,219.5 83.6,229.9 83.6,206.6 77.8,201.4 77.8,144.5 83.6,139.3 83.6,115.9 	"/>
</g>
</svg>
