<svg width="509" height="32" viewBox="0 0 509 32" fill="none" xmlns="http://www.w3.org/2000/svg">
<path d="M0.351562 19.9609C0.351562 19.6641 0.46875 19.4062 0.703125 19.1875C0.953125 18.9531 1.14062 18.7969 1.26562 18.7188C1.40625 18.625 1.5 18.5547 1.54688 18.5078C1.625 19.9297 2.58594 20.6406 4.42969 20.6406C5.88281 20.6406 7.57812 20.1875 9.51562 19.2812C10.8906 18.6562 11.8125 18.0156 12.2812 17.3594C12.4375 17.1562 12.5156 16.9922 12.5156 16.8672C12.5156 16.7266 12.4922 16.6172 12.4453 16.5391L2.71875 14.3594C2.4375 14.2969 2.16406 14.1641 1.89844 13.9609C1.41406 13.6172 1.17188 13.3047 1.17188 13.0234C1.17188 11.9453 1.9375 10.9688 3.46875 10.0938C5.15625 9.14062 7.41406 8.42188 10.2422 7.9375C10.8828 7.82812 11.3594 7.76562 11.6719 7.75C11.7656 7.78125 11.9062 7.8125 12.0938 7.84375C12.2969 7.85938 12.5 7.89062 12.7031 7.9375C13.1875 8.04688 13.3906 8.25 13.3125 8.54688C13.3125 9.07812 12.2969 9.5 10.2656 9.8125C7.64062 10.2031 6 10.5312 5.34375 10.7969C4.70312 11.0625 4.23438 11.3359 3.9375 11.6172C3.65625 11.8984 3.50781 12.2344 3.49219 12.625C3.49219 12.7031 3.67188 12.7891 4.03125 12.8828C4.39062 12.9766 4.82031 13.0938 5.32031 13.2344C5.82031 13.3594 6.46875 13.5312 7.26562 13.75C9.20312 14.2812 11.5781 14.9531 14.3906 15.7656C14.5469 16.1094 14.625 16.4297 14.625 16.7266C14.625 17.5547 14.1406 18.3516 13.1719 19.1172C12.0781 19.9766 10.5625 20.7031 8.625 21.2969C7.01562 21.7812 5.73438 22.0234 4.78125 22.0234C3.98438 22.0234 3.22656 21.8828 2.50781 21.6016C1.78906 21.3203 1.25 21.0469 0.890625 20.7812C0.53125 20.5156 0.351562 20.2422 0.351562 19.9609ZM16.6406 17.5469C16.6406 15.7031 17.4375 14.2188 19.0312 13.0938C20.2969 12.2031 21.8203 11.6641 23.6016 11.4766C23.6953 11.4766 23.9141 11.4766 24.2578 11.4766C24.6016 11.4766 25.0625 11.5781 25.6406 11.7812C26.9219 12.2188 27.7969 12.9922 28.2656 14.1016C28.4531 14.5391 28.5469 14.9141 28.5469 15.2266C28.5469 15.5234 28.5391 15.7344 28.5234 15.8594C28.5234 17.8125 27.7812 19.3516 26.2969 20.4766C24.9219 21.5078 23.2031 22.0234 21.1406 22.0234C19.6562 22.0234 18.5312 21.6797 17.7656 20.9922C17.0156 20.3047 16.6406 19.1562 16.6406 17.5469ZM18.2578 18.1094C18.2578 19.0781 18.5156 19.7344 19.0312 20.0781C19.4219 20.3281 20.0781 20.4531 21 20.4531C21.9219 20.4531 22.7344 20.3828 23.4375 20.2422C24.1406 20.1016 24.7656 19.8594 25.3125 19.5156C26.4844 18.7656 27.0703 17.6016 27.0703 16.0234C27.0703 15.0859 26.8203 14.3203 26.3203 13.7266C25.7734 13.0859 25.0547 12.7656 24.1641 12.7656C23.5547 12.875 22.9375 12.9922 22.3125 13.1172C21.7031 13.2422 21.125 13.4844 20.5781 13.8438C19.3906 14.6094 18.6172 16.0312 18.2578 18.1094ZM30.1406 17.5469C30.1406 15.7031 30.9375 14.2188 32.5312 13.0938C33.7969 12.2031 35.3203 11.6641 37.1016 11.4766C37.1953 11.4766 37.4141 11.4766 37.7578 11.4766C38.1016 11.4766 38.5625 11.5781 39.1406 11.7812C40.4219 12.2188 41.2969 12.9922 41.7656 14.1016C41.9531 14.5391 42.0469 14.9141 42.0469 15.2266C42.0469 15.5234 42.0391 15.7344 42.0234 15.8594C42.0234 17.8125 41.2812 19.3516 39.7969 20.4766C38.4219 21.5078 36.7031 22.0234 34.6406 22.0234C33.1562 22.0234 32.0312 21.6797 31.2656 20.9922C30.5156 20.3047 30.1406 19.1562 30.1406 17.5469ZM31.7578 18.1094C31.7578 19.0781 32.0156 19.7344 32.5312 20.0781C32.9219 20.3281 33.5781 20.4531 34.5 20.4531C35.4219 20.4531 36.2344 20.3828 36.9375 20.2422C37.6406 20.1016 38.2656 19.8594 38.8125 19.5156C39.9844 18.7656 40.5703 17.6016 40.5703 16.0234C40.5703 15.0859 40.3203 14.3203 39.8203 13.7266C39.2734 13.0859 38.5547 12.7656 37.6641 12.7656C37.0547 12.875 36.4375 12.9922 35.8125 13.1172C35.2031 13.2422 34.625 13.4844 34.0781 13.8438C32.8906 14.6094 32.1172 16.0312 31.7578 18.1094ZM52.1953 16.8672C52.1953 15.0078 52.0938 13.6406 51.8906 12.7656C52.0156 12.5312 51.8281 12.4141 51.3281 12.4141C50.7969 12.4141 50.1094 12.5469 49.2656 12.8125C48.4219 13.0781 47.7344 13.3438 47.2031 13.6094C45.9375 14.2188 45.2344 14.8125 45.0938 15.3906V21.7656H43.5234C43.3203 21.2344 43.2188 19.7422 43.2188 17.2891C43.2188 15.1016 43.2578 13.4922 43.3359 12.4609C43.4297 11.4297 43.5 10.8438 43.5469 10.7031C43.9531 10.4375 44.2812 10.3047 44.5312 10.3047C44.9219 10.3047 45.1172 10.7656 45.1172 11.6875C45.1172 12.0469 45.0938 12.3984 45.0469 12.7422C45.0156 13.0703 45 13.2969 45 13.4219C47.5312 11.5625 49.4922 10.6328 50.8828 10.6328C52.4609 10.6328 53.3594 11.9062 53.5781 14.4531C53.6719 15.3438 53.7188 16.5781 53.7188 18.1562L53.6953 20.0078C53.6953 20.6953 53.7109 21.3594 53.7422 22C53.5859 22.0938 53.4609 22.1406 53.3672 22.1406C53.3203 22.125 53.2188 22.1016 53.0625 22.0703C52.9062 22.0391 52.7031 22.0156 52.4531 22C52.2969 21.375 52.2109 20.7422 52.1953 20.1016C52.1797 19.4453 52.1719 18.8438 52.1719 18.2969L52.1953 16.8672ZM69.6094 30.8359C69.2812 31.5703 68.8906 31.9375 68.4375 31.9375C68.2188 31.9375 68.0547 31.8359 67.9453 31.6328C67.8516 31.4453 67.8516 31.2188 67.9453 30.9531C68.2891 29.5 68.7812 27.8438 69.4219 25.9844C70.0781 24.125 70.5156 22.875 70.7344 22.2344C70.1875 21.6875 69.3281 20.5938 68.1562 18.9531C65.75 15.5781 64.5469 13.7266 64.5469 13.3984C64.5469 13.3828 64.5547 13.3672 64.5703 13.3516L65.4609 12.4609C66.6953 13.6016 68.3047 15.5391 70.2891 18.2734C70.7891 18.9609 71.1875 19.5391 71.4844 20.0078C71.8125 19.3516 72.0703 18.7891 72.2578 18.3203C72.4453 17.8359 72.5938 17.4531 72.7031 17.1719C72.8281 16.875 72.9922 16.4844 73.1953 16C73.7266 14.7031 74.4609 13.0547 75.3984 11.0547C75.5391 10.9922 75.6875 10.9609 75.8438 10.9609C76.2344 10.9609 76.5156 11.0625 76.6875 11.2656C76.75 11.3438 76.7812 11.4375 76.7812 11.5469C76.7812 11.6406 76.7656 11.7344 76.7344 11.8281L69.6094 30.8359ZM78.4219 17.5469C78.4219 15.7031 79.2188 14.2188 80.8125 13.0938C82.0781 12.2031 83.6016 11.6641 85.3828 11.4766C85.4766 11.4766 85.6953 11.4766 86.0391 11.4766C86.3828 11.4766 86.8438 11.5781 87.4219 11.7812C88.7031 12.2188 89.5781 12.9922 90.0469 14.1016C90.2344 14.5391 90.3281 14.9141 90.3281 15.2266C90.3281 15.5234 90.3203 15.7344 90.3047 15.8594C90.3047 17.8125 89.5625 19.3516 88.0781 20.4766C86.7031 21.5078 84.9844 22.0234 82.9219 22.0234C81.4375 22.0234 80.3125 21.6797 79.5469 20.9922C78.7969 20.3047 78.4219 19.1562 78.4219 17.5469ZM80.0391 18.1094C80.0391 19.0781 80.2969 19.7344 80.8125 20.0781C81.2031 20.3281 81.8594 20.4531 82.7812 20.4531C83.7031 20.4531 84.5156 20.3828 85.2188 20.2422C85.9219 20.1016 86.5469 19.8594 87.0938 19.5156C88.2656 18.7656 88.8516 17.6016 88.8516 16.0234C88.8516 15.0859 88.6016 14.3203 88.1016 13.7266C87.5547 13.0859 86.8359 12.7656 85.9453 12.7656C85.3359 12.875 84.7188 12.9922 84.0938 13.1172C83.4844 13.2422 82.9062 13.4844 82.3594 13.8438C81.1719 14.6094 80.3984 16.0312 80.0391 18.1094ZM91.2188 18.8828C91.2188 18.6328 91.1953 18.2891 91.1484 17.8516C91.1172 17.3984 91.0859 16.9062 91.0547 16.375C91.0234 15.8438 91.0078 15.3047 91.0078 14.7578C91.0078 14.2109 91.0547 13.7109 91.1484 13.2578C91.3516 12.2422 91.7734 11.7344 92.4141 11.7344C92.8516 11.8594 93.1406 12.0156 93.2812 12.2031C93.4375 12.3906 93.5156 12.625 93.5156 12.9062C93.5156 13.1719 93.4453 13.5078 93.3047 13.9141C92.7891 15.2734 92.5312 16.5 92.5312 17.5938C92.5312 17.9531 92.5547 18.3359 92.6016 18.7422C92.8516 19.7891 93.7109 20.3125 95.1797 20.3125C95.9453 20.3125 96.6719 20.1797 97.3594 19.9141C98.6719 19.4297 99.5625 18.8594 100.031 18.2031C100.172 17.4844 100.242 16.8594 100.242 16.3281C100.242 15.7812 100.219 15.2969 100.172 14.875C100.141 14.4531 100.094 13.9922 100.031 13.4922C99.9844 12.9766 99.9531 12.4141 99.9375 11.8047C100.141 11.7109 100.336 11.6641 100.523 11.6641C100.727 11.6641 100.93 11.7656 101.133 11.9688C101.352 12.1719 101.531 12.5547 101.672 13.1172C101.828 13.6797 101.93 14.3438 101.977 15.1094C102.023 15.8594 102.047 16.6406 102.047 17.4531C102.062 18.2656 102.07 19.0547 102.07 19.8203C102.07 20.5703 102.102 21.2188 102.164 21.7656C101.977 21.9375 101.797 22.0234 101.625 22.0234C101 22.0234 100.539 21.3984 100.242 20.1484C100.039 20.3203 99.6953 20.5312 99.2109 20.7812C98.1797 21.3438 96.9609 21.7188 95.5547 21.9062C95.2891 21.9375 94.9922 21.9531 94.6641 21.9531C94.3359 21.9531 93.9219 21.8906 93.4219 21.7656C92.9375 21.6406 92.4766 21.3516 92.0391 20.8984C91.6016 20.4453 91.3281 19.7734 91.2188 18.8828ZM115.031 13.4453C114.375 12.9766 113.531 12.7422 112.5 12.7422C111.531 12.7422 110.633 12.9219 109.805 13.2812C108.242 13.9375 107.172 14.7812 106.594 15.8125C106.344 16.2812 106.219 16.7812 106.219 17.3125C106.219 17.4062 106.219 17.6719 106.219 18.1094C106.219 18.5312 106.297 19.1094 106.453 19.8438C106.609 20.5625 106.688 21.2969 106.688 22.0469C106.359 22.0625 106.094 22.1016 105.891 22.1641C105.688 22.2266 105.516 22.2578 105.375 22.2578C105.234 22.2578 105.109 22.1953 105 22.0703C104.906 21.9453 104.797 21.7031 104.672 21.3438C104.656 21.25 104.625 20.9844 104.578 20.5469C104.531 20.1094 104.469 19.5781 104.391 18.9531C104.328 18.3281 104.25 17.6484 104.156 16.9141C104.078 16.1641 104 15.4297 103.922 14.7109C103.75 13.1484 103.617 12 103.523 11.2656C103.523 10.8906 103.797 10.7031 104.344 10.7031C104.672 10.7031 104.93 10.8438 105.117 11.125C105.305 11.3906 105.453 11.7031 105.562 12.0625C105.672 12.4062 105.742 12.75 105.773 13.0938C105.82 13.4375 105.859 13.6797 105.891 13.8203C107.953 11.9766 110.516 11.0547 113.578 11.0547C113.922 11.0547 114.281 11.0625 114.656 11.0781C114.75 11.0625 114.867 11.0547 115.008 11.0547C115.148 11.0547 115.289 11.1484 115.43 11.3359C115.602 11.5547 115.688 11.8203 115.688 12.1328C115.688 12.9141 115.469 13.3516 115.031 13.4453ZM126.961 17.5469C126.961 15.7031 127.758 14.2188 129.352 13.0938C130.617 12.2031 132.141 11.6641 133.922 11.4766C134.016 11.4766 134.234 11.4766 134.578 11.4766C134.922 11.4766 135.383 11.5781 135.961 11.7812C137.242 12.2188 138.117 12.9922 138.586 14.1016C138.773 14.5391 138.867 14.9141 138.867 15.2266C138.867 15.5234 138.859 15.7344 138.844 15.8594C138.844 17.8125 138.102 19.3516 136.617 20.4766C135.242 21.5078 133.523 22.0234 131.461 22.0234C129.977 22.0234 128.852 21.6797 128.086 20.9922C127.336 20.3047 126.961 19.1562 126.961 17.5469ZM128.578 18.1094C128.578 19.0781 128.836 19.7344 129.352 20.0781C129.742 20.3281 130.398 20.4531 131.32 20.4531C132.242 20.4531 133.055 20.3828 133.758 20.2422C134.461 20.1016 135.086 19.8594 135.633 19.5156C136.805 18.7656 137.391 17.6016 137.391 16.0234C137.391 15.0859 137.141 14.3203 136.641 13.7266C136.094 13.0859 135.375 12.7656 134.484 12.7656C133.875 12.875 133.258 12.9922 132.633 13.1172C132.023 13.2422 131.445 13.4844 130.898 13.8438C129.711 14.6094 128.938 16.0312 128.578 18.1094ZM143.414 19.75L143.461 16C143.461 15.4062 143.406 14.8984 143.297 14.4766H139.664L139.617 12.8594H143.133V6.8125C143.18 6.67188 143.273 6.53125 143.414 6.39062C143.633 6.17187 143.812 6.0625 143.953 6.0625C144.109 6.0625 144.242 6.07812 144.352 6.10938C144.461 6.14063 144.578 6.25 144.703 6.4375C144.953 7.46875 145.078 9.02344 145.078 11.1016C145.078 11.6172 145.102 12.125 145.148 12.625C145.648 12.5625 146.148 12.5312 146.648 12.5312C146.648 12.5312 147.055 12.5312 147.867 12.5312C148.164 12.5312 148.438 12.5156 148.688 12.4844L148.617 14.1719L145.195 14.0781L145.312 22.1641C145.031 22.2891 144.789 22.3516 144.586 22.3516C143.805 22.3516 143.414 21.4844 143.414 19.75ZM160.594 21.6719C160.453 21.9375 160.086 22.0703 159.492 22.0703C158.914 22.0703 158.625 21.8594 158.625 21.4375C158.625 19.5938 158.586 18.3281 158.508 17.6406C158.367 16.125 158.07 15.3125 157.617 15.2031C156.492 14.9844 155.57 14.875 154.852 14.875C154.148 14.875 153.562 15.0938 153.094 15.5312C152.641 15.9531 152.289 16.6641 152.039 17.6641C151.805 18.6484 151.633 20.0391 151.523 21.8359H149.719C149.75 20.9453 149.766 20.1172 149.766 19.3516C149.766 18.5859 149.75 17.6797 149.719 16.6328C149.688 15.5703 149.648 14.4141 149.602 13.1641C149.523 11.7266 149.484 10.5156 149.484 9.53125C149.484 8.53125 149.547 7.61719 149.672 6.78906C149.828 6.49219 150.055 6.34375 150.352 6.34375C150.711 6.34375 150.992 6.47656 151.195 6.74219C151.398 6.99219 151.508 7.21875 151.523 7.42188L151.406 11.2891C151.406 12.7422 151.477 13.8281 151.617 14.5469C153.023 13.6094 154.477 13.1406 155.977 13.1406C156.461 13.1406 156.977 13.1797 157.523 13.2578C158.695 13.8672 159.461 14.5156 159.82 15.2031C159.992 15.5625 160.102 15.9453 160.148 16.3516C160.195 16.7578 160.227 17.2188 160.242 17.7344C160.336 19.5156 160.453 20.8281 160.594 21.6719ZM166.242 20.3594C167.617 20.3594 169.688 19.7344 172.453 18.4844C172.625 18.4844 172.766 18.5469 172.875 18.6719C172.984 18.7812 173.039 18.9141 173.039 19.0703C172.414 20.1328 171.219 20.9609 169.453 21.5547C167.688 22.1484 166.039 22.25 164.508 21.8594C162.773 21.4062 161.719 20.4297 161.344 18.9297C161.312 18.6328 161.297 18.2344 161.297 17.7344C161.297 17.2344 161.422 16.5781 161.672 15.7656C161.938 14.9375 162.383 14.1562 163.008 13.4219C163.633 12.6875 164.367 12.1094 165.211 11.6875C166.055 11.2656 166.953 11.0547 167.906 11.0547C168.812 11.0547 169.828 11.3672 170.953 11.9922C171.484 12.2891 171.906 12.625 172.219 13C172.531 13.375 172.688 13.7578 172.688 14.1484C172.688 14.2578 172.68 14.3672 172.664 14.4766C172.633 15.4297 172.172 16.0312 171.281 16.2812C170.891 16.3906 170.438 16.4453 169.922 16.4453L166.547 16.3047C165.422 16.3047 164.562 16.5469 163.969 17.0312C163.625 17.2969 163.383 17.6953 163.242 18.2266C163.633 19.6484 164.633 20.3594 166.242 20.3594ZM170.414 13.1172C170.07 12.8672 169.711 12.6875 169.336 12.5781C168.961 12.4688 168.648 12.4141 168.398 12.4141C168.148 12.4141 167.742 12.5 167.18 12.6719C166.617 12.8281 166.117 13.0078 165.68 13.2109C164.602 13.7109 164.062 14.2344 164.062 14.7812C165.312 14.8906 166.25 14.9453 166.875 14.9453C168.609 14.9453 169.781 14.7969 170.391 14.5C170.766 14.3438 170.953 14.1484 170.953 13.9141C170.953 13.6328 170.773 13.3672 170.414 13.1172ZM185.953 13.4453C185.297 12.9766 184.453 12.7422 183.422 12.7422C182.453 12.7422 181.555 12.9219 180.727 13.2812C179.164 13.9375 178.094 14.7812 177.516 15.8125C177.266 16.2812 177.141 16.7812 177.141 17.3125C177.141 17.4062 177.141 17.6719 177.141 18.1094C177.141 18.5312 177.219 19.1094 177.375 19.8438C177.531 20.5625 177.609 21.2969 177.609 22.0469C177.281 22.0625 177.016 22.1016 176.812 22.1641C176.609 22.2266 176.438 22.2578 176.297 22.2578C176.156 22.2578 176.031 22.1953 175.922 22.0703C175.828 21.9453 175.719 21.7031 175.594 21.3438C175.578 21.25 175.547 20.9844 175.5 20.5469C175.453 20.1094 175.391 19.5781 175.312 18.9531C175.25 18.3281 175.172 17.6484 175.078 16.9141C175 16.1641 174.922 15.4297 174.844 14.7109C174.672 13.1484 174.539 12 174.445 11.2656C174.445 10.8906 174.719 10.7031 175.266 10.7031C175.594 10.7031 175.852 10.8438 176.039 11.125C176.227 11.3906 176.375 11.7031 176.484 12.0625C176.594 12.4062 176.664 12.75 176.695 13.0938C176.742 13.4375 176.781 13.6797 176.812 13.8203C178.875 11.9766 181.438 11.0547 184.5 11.0547C184.844 11.0547 185.203 11.0625 185.578 11.0781C185.672 11.0625 185.789 11.0547 185.93 11.0547C186.07 11.0547 186.211 11.1484 186.352 11.3359C186.523 11.5547 186.609 11.8203 186.609 12.1328C186.609 12.9141 186.391 13.3516 185.953 13.4453ZM206.766 19.5391C207.406 19.2734 208.031 19.0312 208.641 18.8125C209.25 18.5938 209.828 18.4844 210.375 18.4844C210.938 18.4844 211.219 18.6562 211.219 19C211.219 19.0781 211.195 19.2031 211.148 19.375C211.117 19.5312 210.906 19.7266 210.516 19.9609C210.141 20.1797 209.672 20.3906 209.109 20.5938C208.562 20.7969 207.961 20.9844 207.305 21.1562C206.648 21.3281 206.008 21.4766 205.383 21.6016C204.086 21.8672 203.164 22 202.617 22C202.07 22 201.477 21.9375 200.836 21.8125C200.211 21.6875 199.625 21.4844 199.078 21.2031C197.812 20.5469 197.18 19.5781 197.18 18.2969C197.18 18.2031 197.18 18.0156 197.18 17.7344C197.18 17.4531 197.297 17.0547 197.531 16.5391C197.766 16.0078 198.117 15.4844 198.586 14.9688C199.055 14.4375 199.602 13.9531 200.227 13.5156C201.539 12.5781 202.914 11.9688 204.352 11.6875C204.852 11.5781 205.266 11.5234 205.594 11.5234C205.938 11.5234 206.219 11.5312 206.438 11.5469C206.656 11.5469 206.883 11.5625 207.117 11.5938C207.352 11.6094 207.555 11.6641 207.727 11.7578C208.133 11.9609 208.336 12.3594 208.336 12.9531C208.336 13.3281 208.07 13.6953 207.539 14.0547C207.398 14.1484 207.273 14.2344 207.164 14.3125C207.086 13.9531 206.984 13.6484 206.859 13.3984C206.734 13.1484 206.461 13.0234 206.039 13.0234C204.195 13.4141 202.609 14 201.281 14.7812C199.781 15.6719 199.031 16.6094 199.031 17.5938C199.031 17.7031 199.039 17.8203 199.055 17.9453C199.055 18.9453 199.438 19.6562 200.203 20.0781C200.781 20.3906 201.523 20.5469 202.43 20.5469C203.352 20.5469 204.148 20.4453 204.82 20.2422C205.492 20.0234 206.141 19.7891 206.766 19.5391ZM212.906 12.9062C212.875 12.0625 212.844 11.3125 212.812 10.6562C212.781 9.98438 212.758 9.49219 212.742 9.17969C212.742 8.85156 212.617 8.0625 212.367 6.8125C212.508 6.625 212.641 6.44531 212.766 6.27344C212.906 6.10156 213.102 6.01562 213.352 6.01562C213.898 6.01562 214.32 8.32031 214.617 12.9297C214.773 15.6016 214.852 18.2734 214.852 20.9453C214.852 21.6641 214.352 22.0234 213.352 22.0234L213.164 22C213.164 21.1875 213.141 20.1484 213.094 18.8828C213.047 17.6172 213.008 16.5156 212.977 15.5781C212.961 14.6406 212.938 13.75 212.906 12.9062ZM225.469 18.1094C224.297 19.9531 222.734 21.0938 220.781 21.5312C220.328 21.625 219.914 21.6719 219.539 21.6719C219.18 21.6719 218.875 21.6719 218.625 21.6719C218.391 21.6562 218.125 21.6172 217.828 21.5547C217.531 21.4922 217.258 21.3906 217.008 21.25C216.43 20.9219 216.141 20.4609 216.141 19.8672C216.078 19.5859 216.047 19.2734 216.047 18.9297C216.047 18.5703 216.125 18.1016 216.281 17.5234C216.438 16.9453 216.719 16.3203 217.125 15.6484C217.547 14.9766 218.055 14.3594 218.648 13.7969C219.883 12.6094 221.219 11.8438 222.656 11.5C223.078 11.4062 223.461 11.3594 223.805 11.3594C224.164 11.3594 224.484 11.3828 224.766 11.4297C225.672 11.4297 226.281 12.0469 226.594 13.2812C226.797 14.0625 226.914 15.1562 226.945 16.5625C226.992 17.9531 227.031 19.0312 227.062 19.7969C227.109 20.5469 227.211 21.2344 227.367 21.8594H225.984C225.922 21.4375 225.875 21.0625 225.844 20.7344C225.812 20.4062 225.781 20.1016 225.75 19.8203C225.672 19.1641 225.578 18.5938 225.469 18.1094ZM225.375 14.4766C225.375 13.5703 224.93 13.1172 224.039 13.1172C223.93 13.1016 223.82 13.0938 223.711 13.0938C222.57 13.0938 221.367 13.6406 220.102 14.7344C219.508 15.2344 219 15.7969 218.578 16.4219C217.953 17.3125 217.641 18.1094 217.641 18.8125C217.641 19.7344 218.172 20.2812 219.234 20.4531C220.641 20.4219 221.984 19.7812 223.266 18.5312C223.812 17.9844 224.266 17.3906 224.625 16.75C225.125 15.8906 225.375 15.1328 225.375 14.4766ZM236.484 15.9531C238.203 15.9531 239.062 16.3906 239.062 17.2656C239.062 17.9219 238.586 18.6875 237.633 19.5625C236.211 20.8594 234.297 21.8984 231.891 22.6797C231.781 22.6797 231.656 22.5703 231.516 22.3516C231.391 22.1328 231.289 21.9688 231.211 21.8594C231.148 21.7344 231.102 21.6562 231.07 21.625C232.867 21.0312 234.344 20.3125 235.5 19.4688C236.281 18.9062 236.672 18.4453 236.672 18.0859C236.672 17.7266 236.211 17.5469 235.289 17.5469C234.367 17.5469 233.016 17.7656 231.234 18.2031C230.422 18.1719 229.719 17.8828 229.125 17.3359C228.609 16.8516 228.352 16.3672 228.352 15.8828C228.352 15.3828 228.492 14.9297 228.773 14.5234C229.055 14.1016 229.43 13.7109 229.898 13.3516C230.367 12.9922 230.914 12.6641 231.539 12.3672C233.07 11.6328 234.656 11.2656 236.297 11.2656C236.781 11.2656 237.25 11.3125 237.703 11.4062C238.078 11.4062 238.297 11.5703 238.359 11.8984C238.422 12.2266 238.453 12.7656 238.453 13.5156C237.531 13.0938 236.492 12.8828 235.336 12.8828C233.898 12.8828 232.711 13.1719 231.773 13.75C230.805 14.3125 230.305 15.0469 230.273 15.9531C230.273 16.3906 230.594 16.6094 231.234 16.6094L232.945 16.4219C234.414 16.1094 235.594 15.9531 236.484 15.9531ZM248.531 15.9531C250.25 15.9531 251.109 16.3906 251.109 17.2656C251.109 17.9219 250.633 18.6875 249.68 19.5625C248.258 20.8594 246.344 21.8984 243.938 22.6797C243.828 22.6797 243.703 22.5703 243.562 22.3516C243.438 22.1328 243.336 21.9688 243.258 21.8594C243.195 21.7344 243.148 21.6562 243.117 21.625C244.914 21.0312 246.391 20.3125 247.547 19.4688C248.328 18.9062 248.719 18.4453 248.719 18.0859C248.719 17.7266 248.258 17.5469 247.336 17.5469C246.414 17.5469 245.062 17.7656 243.281 18.2031C242.469 18.1719 241.766 17.8828 241.172 17.3359C240.656 16.8516 240.398 16.3672 240.398 15.8828C240.398 15.3828 240.539 14.9297 240.82 14.5234C241.102 14.1016 241.477 13.7109 241.945 13.3516C242.414 12.9922 242.961 12.6641 243.586 12.3672C245.117 11.6328 246.703 11.2656 248.344 11.2656C248.828 11.2656 249.297 11.3125 249.75 11.4062C250.125 11.4062 250.344 11.5703 250.406 11.8984C250.469 12.2266 250.5 12.7656 250.5 13.5156C249.578 13.0938 248.539 12.8828 247.383 12.8828C245.945 12.8828 244.758 13.1719 243.82 13.75C242.852 14.3125 242.352 15.0469 242.32 15.9531C242.32 16.3906 242.641 16.6094 243.281 16.6094L244.992 16.4219C246.461 16.1094 247.641 15.9531 248.531 15.9531ZM254.508 21.625C253.867 21.8906 253.438 22.0234 253.219 22.0234C253.016 22.0234 252.875 22 252.797 21.9531C252.719 21.9062 252.633 21.7969 252.539 21.625C252.539 21.1094 252.555 20.4609 252.586 19.6797C252.633 18.8984 252.672 18.0625 252.703 17.1719C252.734 16.2812 252.75 15.3828 252.75 14.4766C252.75 13.5703 252.703 12.7422 252.609 11.9922C252.609 11.4922 252.945 11.2422 253.617 11.2422C253.773 11.2422 253.891 11.5234 253.969 12.0859C254.062 12.6484 254.125 13.0859 254.156 13.3984C254.203 13.7109 254.242 13.9375 254.273 14.0781C254.68 13.3438 255.484 12.7656 256.688 12.3438C257.328 12.1406 257.93 12.0391 258.492 12.0391C259.055 12.0391 259.547 12.1094 259.969 12.25C260.406 12.375 260.773 12.6172 261.07 12.9766C261.383 13.3203 261.539 13.7812 261.539 14.3594C261.945 13.5938 262.859 12.9062 264.281 12.2969C265.578 11.7188 266.742 11.4297 267.773 11.4297C269.258 11.4297 269.984 11.9922 269.953 13.1172L270.445 21.8359C270.445 21.9141 270.219 21.9688 269.766 22C268.891 22.0625 268.453 21.9844 268.453 21.7656C268.438 21.4531 268.43 21.1406 268.43 20.8281L268.547 17.0547C268.547 15.2891 268.375 13.8906 268.031 12.8594C267 12.9375 266.203 13.1094 265.641 13.375C265.094 13.625 264.609 13.9453 264.188 14.3359C263.766 14.7109 263.391 15.2188 263.062 15.8594C262.328 17.2969 261.961 19.2031 261.961 21.5781C261.867 21.9062 261.562 22.0703 261.047 22.0703C260.703 22.0703 260.422 22.0156 260.203 21.9062C259.984 21.7812 259.898 21.6719 259.945 21.5781C260.242 19.9219 260.391 18.6328 260.391 17.7109C260.391 16.9766 260.312 16.2812 260.156 15.625C260.016 14.9531 259.836 14.1875 259.617 13.3281C257.367 13.3281 255.852 14.2266 255.07 16.0234C254.727 16.8203 254.531 17.5703 254.484 18.2734C254.453 18.9609 254.438 19.5547 254.438 20.0547C254.438 20.5391 254.461 21.0625 254.508 21.625ZM280.453 18.1094C279.281 19.9531 277.719 21.0938 275.766 21.5312C275.312 21.625 274.898 21.6719 274.523 21.6719C274.164 21.6719 273.859 21.6719 273.609 21.6719C273.375 21.6562 273.109 21.6172 272.812 21.5547C272.516 21.4922 272.242 21.3906 271.992 21.25C271.414 20.9219 271.125 20.4609 271.125 19.8672C271.062 19.5859 271.031 19.2734 271.031 18.9297C271.031 18.5703 271.109 18.1016 271.266 17.5234C271.422 16.9453 271.703 16.3203 272.109 15.6484C272.531 14.9766 273.039 14.3594 273.633 13.7969C274.867 12.6094 276.203 11.8438 277.641 11.5C278.062 11.4062 278.445 11.3594 278.789 11.3594C279.148 11.3594 279.469 11.3828 279.75 11.4297C280.656 11.4297 281.266 12.0469 281.578 13.2812C281.781 14.0625 281.898 15.1562 281.93 16.5625C281.977 17.9531 282.016 19.0312 282.047 19.7969C282.094 20.5469 282.195 21.2344 282.352 21.8594H280.969C280.906 21.4375 280.859 21.0625 280.828 20.7344C280.797 20.4062 280.766 20.1016 280.734 19.8203C280.656 19.1641 280.562 18.5938 280.453 18.1094ZM280.359 14.4766C280.359 13.5703 279.914 13.1172 279.023 13.1172C278.914 13.1016 278.805 13.0938 278.695 13.0938C277.555 13.0938 276.352 13.6406 275.086 14.7344C274.492 15.2344 273.984 15.7969 273.562 16.4219C272.938 17.3125 272.625 18.1094 272.625 18.8125C272.625 19.7344 273.156 20.2812 274.219 20.4531C275.625 20.4219 276.969 19.7812 278.25 18.5312C278.797 17.9844 279.25 17.3906 279.609 16.75C280.109 15.8906 280.359 15.1328 280.359 14.4766ZM286.992 19.75L287.039 16C287.039 15.4062 286.984 14.8984 286.875 14.4766H283.242L283.195 12.8594H286.711V6.8125C286.758 6.67188 286.852 6.53125 286.992 6.39062C287.211 6.17187 287.391 6.0625 287.531 6.0625C287.688 6.0625 287.82 6.07812 287.93 6.10938C288.039 6.14063 288.156 6.25 288.281 6.4375C288.531 7.46875 288.656 9.02344 288.656 11.1016C288.656 11.6172 288.68 12.125 288.727 12.625C289.227 12.5625 289.727 12.5312 290.227 12.5312C290.227 12.5312 290.633 12.5312 291.445 12.5312C291.742 12.5312 292.016 12.5156 292.266 12.4844L292.195 14.1719L288.773 14.0781L288.891 22.1641C288.609 22.2891 288.367 22.3516 288.164 22.3516C287.383 22.3516 286.992 21.4844 286.992 19.75ZM297.938 20.3594C299.312 20.3594 301.383 19.7344 304.148 18.4844C304.32 18.4844 304.461 18.5469 304.57 18.6719C304.68 18.7812 304.734 18.9141 304.734 19.0703C304.109 20.1328 302.914 20.9609 301.148 21.5547C299.383 22.1484 297.734 22.25 296.203 21.8594C294.469 21.4062 293.414 20.4297 293.039 18.9297C293.008 18.6328 292.992 18.2344 292.992 17.7344C292.992 17.2344 293.117 16.5781 293.367 15.7656C293.633 14.9375 294.078 14.1562 294.703 13.4219C295.328 12.6875 296.062 12.1094 296.906 11.6875C297.75 11.2656 298.648 11.0547 299.602 11.0547C300.508 11.0547 301.523 11.3672 302.648 11.9922C303.18 12.2891 303.602 12.625 303.914 13C304.227 13.375 304.383 13.7578 304.383 14.1484C304.383 14.2578 304.375 14.3672 304.359 14.4766C304.328 15.4297 303.867 16.0312 302.977 16.2812C302.586 16.3906 302.133 16.4453 301.617 16.4453L298.242 16.3047C297.117 16.3047 296.258 16.5469 295.664 17.0312C295.32 17.2969 295.078 17.6953 294.938 18.2266C295.328 19.6484 296.328 20.3594 297.938 20.3594ZM302.109 13.1172C301.766 12.8672 301.406 12.6875 301.031 12.5781C300.656 12.4688 300.344 12.4141 300.094 12.4141C299.844 12.4141 299.438 12.5 298.875 12.6719C298.312 12.8281 297.812 13.0078 297.375 13.2109C296.297 13.7109 295.758 14.2344 295.758 14.7812C297.008 14.8906 297.945 14.9453 298.57 14.9453C300.305 14.9453 301.477 14.7969 302.086 14.5C302.461 14.3438 302.648 14.1484 302.648 13.9141C302.648 13.6328 302.469 13.3672 302.109 13.1172ZM314.156 15.9531C315.875 15.9531 316.734 16.3906 316.734 17.2656C316.734 17.9219 316.258 18.6875 315.305 19.5625C313.883 20.8594 311.969 21.8984 309.562 22.6797C309.453 22.6797 309.328 22.5703 309.188 22.3516C309.062 22.1328 308.961 21.9688 308.883 21.8594C308.82 21.7344 308.773 21.6562 308.742 21.625C310.539 21.0312 312.016 20.3125 313.172 19.4688C313.953 18.9062 314.344 18.4453 314.344 18.0859C314.344 17.7266 313.883 17.5469 312.961 17.5469C312.039 17.5469 310.688 17.7656 308.906 18.2031C308.094 18.1719 307.391 17.8828 306.797 17.3359C306.281 16.8516 306.023 16.3672 306.023 15.8828C306.023 15.3828 306.164 14.9297 306.445 14.5234C306.727 14.1016 307.102 13.7109 307.57 13.3516C308.039 12.9922 308.586 12.6641 309.211 12.3672C310.742 11.6328 312.328 11.2656 313.969 11.2656C314.453 11.2656 314.922 11.3125 315.375 11.4062C315.75 11.4062 315.969 11.5703 316.031 11.8984C316.094 12.2266 316.125 12.7656 316.125 13.5156C315.203 13.0938 314.164 12.8828 313.008 12.8828C311.57 12.8828 310.383 13.1719 309.445 13.75C308.477 14.3125 307.977 15.0469 307.945 15.9531C307.945 16.3906 308.266 16.6094 308.906 16.6094L310.617 16.4219C312.086 16.1094 313.266 15.9531 314.156 15.9531ZM336.703 15.5312C336.359 16.6719 336.07 17.7266 335.836 18.6953C335.617 19.6641 335.398 20.4688 335.18 21.1094C334.836 22.0312 334.445 22.4922 334.008 22.4922C333.773 22.4922 333.508 22.3828 333.211 22.1641C332.492 21.3984 331.477 19.7031 330.164 17.0781C328.883 14.5156 328.242 12.9141 328.242 12.2734C328.242 11.9922 328.328 11.8203 328.5 11.7578C328.672 11.6797 328.867 11.6719 329.086 11.7344C329.617 11.8906 329.992 12.1328 330.211 12.4609C330.32 12.6172 330.453 12.8906 330.609 13.2812L331.195 14.7344C331.852 16.375 332.5 17.875 333.141 19.2344C333.484 18.7031 333.812 18.0156 334.125 17.1719L334.852 15.1562C335.477 13.3906 336.039 12.4922 336.539 12.4609C336.93 12.2109 338.102 13.5938 340.055 16.6094C340.883 17.8906 341.398 18.6562 341.602 18.9062C341.742 18.9062 341.906 18.4375 342.094 17.5C342.297 16.5625 342.469 15.7734 342.609 15.1328C342.766 14.4766 342.953 13.8672 343.172 13.3047C343.688 11.9922 344.281 11.3359 344.953 11.3359C345.172 11.3359 345.32 11.4141 345.398 11.5703C345.492 11.7109 345.539 11.8281 345.539 11.9219C345.539 12.0156 345.539 12.0859 345.539 12.1328C345.352 12.6641 345.156 13.2734 344.953 13.9609C344.75 14.6328 344.531 15.3281 344.297 16.0469C344.078 16.75 343.852 17.4531 343.617 18.1562C343.398 18.8438 343.18 19.4688 342.961 20.0312C342.445 21.25 342.016 21.9062 341.672 22C341.406 22.125 340.977 21.8203 340.383 21.0859C340.117 20.7422 339.836 20.3359 339.539 19.8672C339.242 19.3984 338.93 18.9141 338.602 18.4141C337.805 17.1641 337.172 16.2031 336.703 15.5312ZM349.312 10.9844C349.516 13.9062 349.688 17.2891 349.828 21.1328C349.734 21.6172 349.359 21.8594 348.703 21.8594C348.531 21.8594 348.352 21.8281 348.164 21.7656C347.992 21.6875 347.883 21.5859 347.836 21.4609V10.9844H349.312ZM347.133 7.79688C347.133 7.25 347.453 6.97656 348.094 6.97656C348.516 6.97656 348.859 7.07031 349.125 7.25781C349.172 7.42969 349.195 7.60156 349.195 7.77344C349.195 7.92969 349.133 8.08594 349.008 8.24219C348.883 8.39844 348.695 8.47656 348.445 8.47656C348.195 8.47656 347.945 8.42188 347.695 8.3125C347.445 8.1875 347.258 8.01562 347.133 7.79688ZM351.258 12.9062C351.227 12.0625 351.195 11.3125 351.164 10.6562C351.133 9.98438 351.109 9.49219 351.094 9.17969C351.094 8.85156 350.969 8.0625 350.719 6.8125C350.859 6.625 350.992 6.44531 351.117 6.27344C351.258 6.10156 351.453 6.01562 351.703 6.01562C352.25 6.01562 352.672 8.32031 352.969 12.9297C353.125 15.6016 353.203 18.2734 353.203 20.9453C353.203 21.6641 352.703 22.0234 351.703 22.0234L351.516 22C351.516 21.1875 351.492 20.1484 351.445 18.8828C351.398 17.6172 351.359 16.5156 351.328 15.5781C351.312 14.6406 351.289 13.75 351.258 12.9062ZM355.031 12.9062C355 12.0625 354.969 11.3125 354.938 10.6562C354.906 9.98438 354.883 9.49219 354.867 9.17969C354.867 8.85156 354.742 8.0625 354.492 6.8125C354.633 6.625 354.766 6.44531 354.891 6.27344C355.031 6.10156 355.227 6.01562 355.477 6.01562C356.023 6.01562 356.445 8.32031 356.742 12.9297C356.898 15.6016 356.977 18.2734 356.977 20.9453C356.977 21.6641 356.477 22.0234 355.477 22.0234L355.289 22C355.289 21.1875 355.266 20.1484 355.219 18.8828C355.172 17.6172 355.133 16.5156 355.102 15.5781C355.086 14.6406 355.062 13.75 355.031 12.9062ZM377.203 18.1094C376.031 19.9531 374.469 21.0938 372.516 21.5312C372.062 21.625 371.648 21.6719 371.273 21.6719C370.914 21.6719 370.609 21.6719 370.359 21.6719C370.125 21.6562 369.859 21.6172 369.562 21.5547C369.266 21.4922 368.992 21.3906 368.742 21.25C368.164 20.9219 367.875 20.4609 367.875 19.8672C367.812 19.5859 367.781 19.2734 367.781 18.9297C367.781 18.5703 367.859 18.1016 368.016 17.5234C368.172 16.9453 368.453 16.3203 368.859 15.6484C369.281 14.9766 369.789 14.3594 370.383 13.7969C371.617 12.6094 372.953 11.8438 374.391 11.5C374.812 11.4062 375.195 11.3594 375.539 11.3594C375.898 11.3594 376.219 11.3828 376.5 11.4297C377.406 11.4297 378.016 12.0469 378.328 13.2812C378.531 14.0625 378.648 15.1562 378.68 16.5625C378.727 17.9531 378.766 19.0312 378.797 19.7969C378.844 20.5469 378.945 21.2344 379.102 21.8594H377.719C377.656 21.4375 377.609 21.0625 377.578 20.7344C377.547 20.4062 377.516 20.1016 377.484 19.8203C377.406 19.1641 377.312 18.5938 377.203 18.1094ZM377.109 14.4766C377.109 13.5703 376.664 13.1172 375.773 13.1172C375.664 13.1016 375.555 13.0938 375.445 13.0938C374.305 13.0938 373.102 13.6406 371.836 14.7344C371.242 15.2344 370.734 15.7969 370.312 16.4219C369.688 17.3125 369.375 18.1094 369.375 18.8125C369.375 19.7344 369.906 20.2812 370.969 20.4531C372.375 20.4219 373.719 19.7812 375 18.5312C375.547 17.9844 376 17.3906 376.359 16.75C376.859 15.8906 377.109 15.1328 377.109 14.4766ZM382.453 12.6016C384.578 11.8672 386.414 11.5 387.961 11.5C389.93 11.5 391.242 12.0156 391.898 13.0469C392.195 13.5312 392.344 14.0547 392.344 14.6172C392.344 15.3984 392.094 16.2031 391.594 17.0312C391.109 17.8594 390.461 18.6094 389.648 19.2812C387.758 20.8281 385.461 21.7891 382.758 22.1641C382.758 22.3359 382.758 22.6094 382.758 22.9844C382.773 23.375 382.781 23.8047 382.781 24.2734C382.797 24.7422 382.805 25.2422 382.805 25.7734C382.82 26.3047 382.836 26.8125 382.852 27.2969C382.898 28.5 382.93 29.1875 382.945 29.3594C382.977 29.5312 382.992 29.6719 382.992 29.7812C382.992 30.1719 382.867 30.4609 382.617 30.6484C382.367 30.8516 382.039 30.9531 381.633 30.9531C381.555 30.9531 381.477 30.9531 381.398 30.9531L381.023 12.1094C381.164 11.9062 381.352 11.8125 381.586 11.8281C381.82 11.8438 382.008 11.9062 382.148 12.0156C382.289 12.125 382.391 12.3203 382.453 12.6016ZM389.297 13.4219C388.781 13.1562 388.227 13.0234 387.633 13.0234C387.055 13.0234 386.477 13.0781 385.898 13.1875C384.586 13.4375 383.617 13.9922 382.992 14.8516C382.711 15.2578 382.57 15.7578 382.57 16.3516C382.57 16.4141 382.57 16.4766 382.57 16.5391V20.5938C385.789 19.875 388.07 18.875 389.414 17.5938C390.195 16.8594 390.586 16.1016 390.586 15.3203C390.586 14.4922 390.156 13.8594 389.297 13.4219ZM395.812 12.6016C397.938 11.8672 399.773 11.5 401.32 11.5C403.289 11.5 404.602 12.0156 405.258 13.0469C405.555 13.5312 405.703 14.0547 405.703 14.6172C405.703 15.3984 405.453 16.2031 404.953 17.0312C404.469 17.8594 403.82 18.6094 403.008 19.2812C401.117 20.8281 398.82 21.7891 396.117 22.1641C396.117 22.3359 396.117 22.6094 396.117 22.9844C396.133 23.375 396.141 23.8047 396.141 24.2734C396.156 24.7422 396.164 25.2422 396.164 25.7734C396.18 26.3047 396.195 26.8125 396.211 27.2969C396.258 28.5 396.289 29.1875 396.305 29.3594C396.336 29.5312 396.352 29.6719 396.352 29.7812C396.352 30.1719 396.227 30.4609 395.977 30.6484C395.727 30.8516 395.398 30.9531 394.992 30.9531C394.914 30.9531 394.836 30.9531 394.758 30.9531L394.383 12.1094C394.523 11.9062 394.711 11.8125 394.945 11.8281C395.18 11.8438 395.367 11.9062 395.508 12.0156C395.648 12.125 395.75 12.3203 395.812 12.6016ZM402.656 13.4219C402.141 13.1562 401.586 13.0234 400.992 13.0234C400.414 13.0234 399.836 13.0781 399.258 13.1875C397.945 13.4375 396.977 13.9922 396.352 14.8516C396.07 15.2578 395.93 15.7578 395.93 16.3516C395.93 16.4141 395.93 16.4766 395.93 16.5391V20.5938C399.148 19.875 401.43 18.875 402.773 17.5938C403.555 16.8594 403.945 16.1016 403.945 15.3203C403.945 14.4922 403.516 13.8594 402.656 13.4219ZM411.703 20.3594C413.078 20.3594 415.148 19.7344 417.914 18.4844C418.086 18.4844 418.227 18.5469 418.336 18.6719C418.445 18.7812 418.5 18.9141 418.5 19.0703C417.875 20.1328 416.68 20.9609 414.914 21.5547C413.148 22.1484 411.5 22.25 409.969 21.8594C408.234 21.4062 407.18 20.4297 406.805 18.9297C406.773 18.6328 406.758 18.2344 406.758 17.7344C406.758 17.2344 406.883 16.5781 407.133 15.7656C407.398 14.9375 407.844 14.1562 408.469 13.4219C409.094 12.6875 409.828 12.1094 410.672 11.6875C411.516 11.2656 412.414 11.0547 413.367 11.0547C414.273 11.0547 415.289 11.3672 416.414 11.9922C416.945 12.2891 417.367 12.625 417.68 13C417.992 13.375 418.148 13.7578 418.148 14.1484C418.148 14.2578 418.141 14.3672 418.125 14.4766C418.094 15.4297 417.633 16.0312 416.742 16.2812C416.352 16.3906 415.898 16.4453 415.383 16.4453L412.008 16.3047C410.883 16.3047 410.023 16.5469 409.43 17.0312C409.086 17.2969 408.844 17.6953 408.703 18.2266C409.094 19.6484 410.094 20.3594 411.703 20.3594ZM415.875 13.1172C415.531 12.8672 415.172 12.6875 414.797 12.5781C414.422 12.4688 414.109 12.4141 413.859 12.4141C413.609 12.4141 413.203 12.5 412.641 12.6719C412.078 12.8281 411.578 13.0078 411.141 13.2109C410.062 13.7109 409.523 14.2344 409.523 14.7812C410.773 14.8906 411.711 14.9453 412.336 14.9453C414.07 14.9453 415.242 14.7969 415.852 14.5C416.227 14.3438 416.414 14.1484 416.414 13.9141C416.414 13.6328 416.234 13.3672 415.875 13.1172ZM429.117 18.1094C427.945 19.9531 426.383 21.0938 424.43 21.5312C423.977 21.625 423.562 21.6719 423.188 21.6719C422.828 21.6719 422.523 21.6719 422.273 21.6719C422.039 21.6562 421.773 21.6172 421.477 21.5547C421.18 21.4922 420.906 21.3906 420.656 21.25C420.078 20.9219 419.789 20.4609 419.789 19.8672C419.727 19.5859 419.695 19.2734 419.695 18.9297C419.695 18.5703 419.773 18.1016 419.93 17.5234C420.086 16.9453 420.367 16.3203 420.773 15.6484C421.195 14.9766 421.703 14.3594 422.297 13.7969C423.531 12.6094 424.867 11.8438 426.305 11.5C426.727 11.4062 427.109 11.3594 427.453 11.3594C427.812 11.3594 428.133 11.3828 428.414 11.4297C429.32 11.4297 429.93 12.0469 430.242 13.2812C430.445 14.0625 430.562 15.1562 430.594 16.5625C430.641 17.9531 430.68 19.0312 430.711 19.7969C430.758 20.5469 430.859 21.2344 431.016 21.8594H429.633C429.57 21.4375 429.523 21.0625 429.492 20.7344C429.461 20.4062 429.43 20.1016 429.398 19.8203C429.32 19.1641 429.227 18.5938 429.117 18.1094ZM429.023 14.4766C429.023 13.5703 428.578 13.1172 427.688 13.1172C427.578 13.1016 427.469 13.0938 427.359 13.0938C426.219 13.0938 425.016 13.6406 423.75 14.7344C423.156 15.2344 422.648 15.7969 422.227 16.4219C421.602 17.3125 421.289 18.1094 421.289 18.8125C421.289 19.7344 421.82 20.2812 422.883 20.4531C424.289 20.4219 425.633 19.7812 426.914 18.5312C427.461 17.9844 427.914 17.3906 428.273 16.75C428.773 15.8906 429.023 15.1328 429.023 14.4766ZM443.625 13.4453C442.969 12.9766 442.125 12.7422 441.094 12.7422C440.125 12.7422 439.227 12.9219 438.398 13.2812C436.836 13.9375 435.766 14.7812 435.188 15.8125C434.938 16.2812 434.812 16.7812 434.812 17.3125C434.812 17.4062 434.812 17.6719 434.812 18.1094C434.812 18.5312 434.891 19.1094 435.047 19.8438C435.203 20.5625 435.281 21.2969 435.281 22.0469C434.953 22.0625 434.688 22.1016 434.484 22.1641C434.281 22.2266 434.109 22.2578 433.969 22.2578C433.828 22.2578 433.703 22.1953 433.594 22.0703C433.5 21.9453 433.391 21.7031 433.266 21.3438C433.25 21.25 433.219 20.9844 433.172 20.5469C433.125 20.1094 433.062 19.5781 432.984 18.9531C432.922 18.3281 432.844 17.6484 432.75 16.9141C432.672 16.1641 432.594 15.4297 432.516 14.7109C432.344 13.1484 432.211 12 432.117 11.2656C432.117 10.8906 432.391 10.7031 432.938 10.7031C433.266 10.7031 433.523 10.8438 433.711 11.125C433.898 11.3906 434.047 11.7031 434.156 12.0625C434.266 12.4062 434.336 12.75 434.367 13.0938C434.414 13.4375 434.453 13.6797 434.484 13.8203C436.547 11.9766 439.109 11.0547 442.172 11.0547C442.516 11.0547 442.875 11.0625 443.25 11.0781C443.344 11.0625 443.461 11.0547 443.602 11.0547C443.742 11.0547 443.883 11.1484 444.023 11.3359C444.195 11.5547 444.281 11.8203 444.281 12.1328C444.281 12.9141 444.062 13.3516 443.625 13.4453ZM465.984 21.6719C465.844 21.9375 465.477 22.0703 464.883 22.0703C464.305 22.0703 464.016 21.8594 464.016 21.4375C464.016 19.5938 463.977 18.3281 463.898 17.6406C463.758 16.125 463.461 15.3125 463.008 15.2031C461.883 14.9844 460.961 14.875 460.242 14.875C459.539 14.875 458.953 15.0938 458.484 15.5312C458.031 15.9531 457.68 16.6641 457.43 17.6641C457.195 18.6484 457.023 20.0391 456.914 21.8359H455.109C455.141 20.9453 455.156 20.1172 455.156 19.3516C455.156 18.5859 455.141 17.6797 455.109 16.6328C455.078 15.5703 455.039 14.4141 454.992 13.1641C454.914 11.7266 454.875 10.5156 454.875 9.53125C454.875 8.53125 454.938 7.61719 455.062 6.78906C455.219 6.49219 455.445 6.34375 455.742 6.34375C456.102 6.34375 456.383 6.47656 456.586 6.74219C456.789 6.99219 456.898 7.21875 456.914 7.42188L456.797 11.2891C456.797 12.7422 456.867 13.8281 457.008 14.5469C458.414 13.6094 459.867 13.1406 461.367 13.1406C461.852 13.1406 462.367 13.1797 462.914 13.2578C464.086 13.8672 464.852 14.5156 465.211 15.2031C465.383 15.5625 465.492 15.9453 465.539 16.3516C465.586 16.7578 465.617 17.2188 465.633 17.7344C465.727 19.5156 465.844 20.8281 465.984 21.6719ZM471.633 20.3594C473.008 20.3594 475.078 19.7344 477.844 18.4844C478.016 18.4844 478.156 18.5469 478.266 18.6719C478.375 18.7812 478.43 18.9141 478.43 19.0703C477.805 20.1328 476.609 20.9609 474.844 21.5547C473.078 22.1484 471.43 22.25 469.898 21.8594C468.164 21.4062 467.109 20.4297 466.734 18.9297C466.703 18.6328 466.688 18.2344 466.688 17.7344C466.688 17.2344 466.812 16.5781 467.062 15.7656C467.328 14.9375 467.773 14.1562 468.398 13.4219C469.023 12.6875 469.758 12.1094 470.602 11.6875C471.445 11.2656 472.344 11.0547 473.297 11.0547C474.203 11.0547 475.219 11.3672 476.344 11.9922C476.875 12.2891 477.297 12.625 477.609 13C477.922 13.375 478.078 13.7578 478.078 14.1484C478.078 14.2578 478.07 14.3672 478.055 14.4766C478.023 15.4297 477.562 16.0312 476.672 16.2812C476.281 16.3906 475.828 16.4453 475.312 16.4453L471.938 16.3047C470.812 16.3047 469.953 16.5469 469.359 17.0312C469.016 17.2969 468.773 17.6953 468.633 18.2266C469.023 19.6484 470.023 20.3594 471.633 20.3594ZM475.805 13.1172C475.461 12.8672 475.102 12.6875 474.727 12.5781C474.352 12.4688 474.039 12.4141 473.789 12.4141C473.539 12.4141 473.133 12.5 472.57 12.6719C472.008 12.8281 471.508 13.0078 471.07 13.2109C469.992 13.7109 469.453 14.2344 469.453 14.7812C470.703 14.8906 471.641 14.9453 472.266 14.9453C474 14.9453 475.172 14.7969 475.781 14.5C476.156 14.3438 476.344 14.1484 476.344 13.9141C476.344 13.6328 476.164 13.3672 475.805 13.1172ZM491.344 13.4453C490.688 12.9766 489.844 12.7422 488.812 12.7422C487.844 12.7422 486.945 12.9219 486.117 13.2812C484.555 13.9375 483.484 14.7812 482.906 15.8125C482.656 16.2812 482.531 16.7812 482.531 17.3125C482.531 17.4062 482.531 17.6719 482.531 18.1094C482.531 18.5312 482.609 19.1094 482.766 19.8438C482.922 20.5625 483 21.2969 483 22.0469C482.672 22.0625 482.406 22.1016 482.203 22.1641C482 22.2266 481.828 22.2578 481.688 22.2578C481.547 22.2578 481.422 22.1953 481.312 22.0703C481.219 21.9453 481.109 21.7031 480.984 21.3438C480.969 21.25 480.938 20.9844 480.891 20.5469C480.844 20.1094 480.781 19.5781 480.703 18.9531C480.641 18.3281 480.562 17.6484 480.469 16.9141C480.391 16.1641 480.312 15.4297 480.234 14.7109C480.062 13.1484 479.93 12 479.836 11.2656C479.836 10.8906 480.109 10.7031 480.656 10.7031C480.984 10.7031 481.242 10.8438 481.43 11.125C481.617 11.3906 481.766 11.7031 481.875 12.0625C481.984 12.4062 482.055 12.75 482.086 13.0938C482.133 13.4375 482.172 13.6797 482.203 13.8203C484.266 11.9766 486.828 11.0547 489.891 11.0547C490.234 11.0547 490.594 11.0625 490.969 11.0781C491.062 11.0625 491.18 11.0547 491.32 11.0547C491.461 11.0547 491.602 11.1484 491.742 11.3359C491.914 11.5547 492 11.8203 492 12.1328C492 12.9141 491.781 13.3516 491.344 13.4453ZM497.859 20.3594C499.234 20.3594 501.305 19.7344 504.07 18.4844C504.242 18.4844 504.383 18.5469 504.492 18.6719C504.602 18.7812 504.656 18.9141 504.656 19.0703C504.031 20.1328 502.836 20.9609 501.07 21.5547C499.305 22.1484 497.656 22.25 496.125 21.8594C494.391 21.4062 493.336 20.4297 492.961 18.9297C492.93 18.6328 492.914 18.2344 492.914 17.7344C492.914 17.2344 493.039 16.5781 493.289 15.7656C493.555 14.9375 494 14.1562 494.625 13.4219C495.25 12.6875 495.984 12.1094 496.828 11.6875C497.672 11.2656 498.57 11.0547 499.523 11.0547C500.43 11.0547 501.445 11.3672 502.57 11.9922C503.102 12.2891 503.523 12.625 503.836 13C504.148 13.375 504.305 13.7578 504.305 14.1484C504.305 14.2578 504.297 14.3672 504.281 14.4766C504.25 15.4297 503.789 16.0312 502.898 16.2812C502.508 16.3906 502.055 16.4453 501.539 16.4453L498.164 16.3047C497.039 16.3047 496.18 16.5469 495.586 17.0312C495.242 17.2969 495 17.6953 494.859 18.2266C495.25 19.6484 496.25 20.3594 497.859 20.3594ZM502.031 13.1172C501.688 12.8672 501.328 12.6875 500.953 12.5781C500.578 12.4688 500.266 12.4141 500.016 12.4141C499.766 12.4141 499.359 12.5 498.797 12.6719C498.234 12.8281 497.734 13.0078 497.297 13.2109C496.219 13.7109 495.68 14.2344 495.68 14.7812C496.93 14.8906 497.867 14.9453 498.492 14.9453C500.227 14.9453 501.398 14.7969 502.008 14.5C502.383 14.3438 502.57 14.1484 502.57 13.9141C502.57 13.6328 502.391 13.3672 502.031 13.1172ZM506.906 20.4297C507.562 20.4297 507.961 20.4922 508.102 20.6172C508.258 20.7422 508.336 20.875 508.336 21.0156C508.164 21.6406 507.789 22.0156 507.211 22.1406C507.117 22.1562 507.016 22.1641 506.906 22.1641C506.797 22.1641 506.656 22.1328 506.484 22.0703C506.328 22.0078 506.211 21.8984 506.133 21.7422C505.961 21.3516 506.219 20.9141 506.906 20.4297ZM508.008 0.882812C507.914 1.28906 507.867 3.82812 507.867 8.5C507.867 13.1562 507.75 15.8359 507.516 16.5391H505.945C505.945 14.9297 506.008 12.9141 506.133 10.4922C506.352 5.78906 506.461 2.61719 506.461 0.976562L508.008 0.882812Z" fill="black"/>
</svg>
