<svg width="264" height="33.92" viewBox="0 0 412 53" fill="none" xmlns="http://www.w3.org/2000/svg">
<path d="M1.52344 3.4375C2.67969 3.1875 3.77344 3.0625 4.80469 3.0625C5.83594 3.0625 6.75 3.10156 7.54688 3.17969C8.35938 3.25781 9.17188 3.40625 9.98438 3.625C11.7031 4.10938 12.7656 4.76562 13.1719 5.59375C13.2812 5.76562 13.3359 5.96875 13.3359 6.20312C13.3359 6.89062 12.7344 7.63281 11.5312 8.42969C10.7344 8.96094 9.59375 9.5 8.10938 10.0469C11.75 10.25 14.2188 10.7812 15.5156 11.6406C16.2344 12.0938 16.5938 12.625 16.5938 13.2344C16.5938 14.0781 16 14.9531 14.8125 15.8594C13.5156 16.8281 11.8594 17.6328 9.84375 18.2734C7.98438 18.8672 6.25781 19.1641 4.66406 19.1641C3.44531 19.1641 2.39844 18.9844 1.52344 18.625C1.49219 17.625 1.45312 16.5938 1.40625 15.5312C1.28125 13.1719 1.21875 11.1875 1.21875 9.57812C1.21875 7.95312 1.27344 6.26562 1.38281 4.51562C1.21094 4.51562 1.05469 4.5 0.914062 4.46875C0.773438 4.42188 0.703125 4.26562 0.703125 4C0.703125 3.625 0.976562 3.4375 1.52344 3.4375ZM3.63281 17.4531C6.14844 17.3125 8.21094 17.0156 9.82031 16.5625C11.4297 16.0938 12.5859 15.5938 13.2891 15.0625C14.0078 14.5156 14.3672 13.9922 14.3672 13.4922C14.3672 12.8359 13.8984 12.3125 12.9609 11.9219C11.9453 11.5156 10.5938 11.3125 8.90625 11.3125C7.23438 11.3125 5.28906 11.5391 3.07031 11.9922L3.63281 17.4531ZM5.8125 4.58594H5.22656C3.94531 4.58594 3.22656 4.71875 3.07031 4.98438L2.83594 9.69531C4.24219 9.69531 5.95312 9.35938 7.96875 8.6875C9.28125 8.23438 10.2422 7.73438 10.8516 7.1875C11.1641 6.90625 11.3203 6.61719 11.3203 6.32031C11.3203 6.02344 11.2031 5.78125 10.9688 5.59375C10.75 5.39062 10.4609 5.22656 10.1016 5.10156C9.75781 4.97656 9.36719 4.88281 8.92969 4.82031C8.50781 4.74219 8.09375 4.6875 7.6875 4.65625C7.0625 4.60938 6.4375 4.58594 5.8125 4.58594ZM26.9062 15.1094C25.7344 16.9531 24.1719 18.0938 22.2188 18.5312C21.7656 18.625 21.3516 18.6719 20.9766 18.6719C20.6172 18.6719 20.3125 18.6719 20.0625 18.6719C19.8281 18.6562 19.5625 18.6172 19.2656 18.5547C18.9688 18.4922 18.6953 18.3906 18.4453 18.25C17.8672 17.9219 17.5781 17.4609 17.5781 16.8672C17.5156 16.5859 17.4844 16.2734 17.4844 15.9297C17.4844 15.5703 17.5625 15.1016 17.7188 14.5234C17.875 13.9453 18.1562 13.3203 18.5625 12.6484C18.9844 11.9766 19.4922 11.3594 20.0859 10.7969C21.3203 9.60938 22.6562 8.84375 24.0938 8.5C24.5156 8.40625 24.8984 8.35938 25.2422 8.35938C25.6016 8.35938 25.9219 8.38281 26.2031 8.42969C27.1094 8.42969 27.7188 9.04688 28.0312 10.2812C28.2344 11.0625 28.3516 12.1562 28.3828 13.5625C28.4297 14.9531 28.4688 16.0312 28.5 16.7969C28.5469 17.5469 28.6484 18.2344 28.8047 18.8594H27.4219C27.3594 18.4375 27.3125 18.0625 27.2812 17.7344C27.25 17.4062 27.2188 17.1016 27.1875 16.8203C27.1094 16.1641 27.0156 15.5938 26.9062 15.1094ZM26.8125 11.4766C26.8125 10.5703 26.3672 10.1172 25.4766 10.1172C25.3672 10.1016 25.2578 10.0938 25.1484 10.0938C24.0078 10.0938 22.8047 10.6406 21.5391 11.7344C20.9453 12.2344 20.4375 12.7969 20.0156 13.4219C19.3906 14.3125 19.0781 15.1094 19.0781 15.8125C19.0781 16.7344 19.6094 17.2812 20.6719 17.4531C22.0781 17.4219 23.4219 16.7812 24.7031 15.5312C25.25 14.9844 25.7031 14.3906 26.0625 13.75C26.5625 12.8906 26.8125 12.1328 26.8125 11.4766ZM30.3281 9.90625C30.2969 9.0625 30.2656 8.3125 30.2344 7.65625C30.2031 6.98438 30.1797 6.49219 30.1641 6.17969C30.1641 5.85156 30.0391 5.0625 29.7891 3.8125C29.9297 3.625 30.0625 3.44531 30.1875 3.27344C30.3281 3.10156 30.5234 3.01562 30.7734 3.01562C31.3203 3.01562 31.7422 5.32031 32.0391 9.92969C32.1953 12.6016 32.2734 15.2734 32.2734 17.9453C32.2734 18.6641 31.7734 19.0234 30.7734 19.0234L30.5859 19C30.5859 18.1875 30.5625 17.1484 30.5156 15.8828C30.4688 14.6172 30.4297 13.5156 30.3984 12.5781C30.3828 11.6406 30.3594 10.75 30.3281 9.90625ZM44.7656 0.179688C44.7656 1.67969 44.7188 3.14844 44.625 4.58594C44.5469 6.00781 44.4688 7.40625 44.3906 8.78125C44.3281 10.1406 44.2969 11.5938 44.2969 13.1406C44.2969 14.6719 44.4062 16.2969 44.625 18.0156C44.625 18.375 44.5547 18.6328 44.4141 18.7891C44.2891 18.9453 44.0703 19.0234 43.7578 19.0234C43.0234 19.0234 42.6562 18.4141 42.6562 17.1953V16.4219C40.4375 18.0781 38.5625 18.9062 37.0312 18.9062C36.4219 18.9062 35.7969 18.7578 35.1562 18.4609C34.5312 18.1641 33.9375 17.5625 33.375 16.6562C33.2969 16.2812 33.2578 15.8984 33.2578 15.5078C33.2578 15.1172 33.3281 14.6484 33.4688 14.1016C33.625 13.5391 33.9297 12.9609 34.3828 12.3672C34.8516 11.7734 35.4141 11.25 36.0703 10.7969C37.5078 9.82812 39.0625 9.34375 40.7344 9.34375C41.4531 9.34375 42.1406 9.45312 42.7969 9.67188C42.7969 9.39062 42.8125 8.89844 42.8438 8.19531C42.8906 7.49219 42.9375 6.75 42.9844 5.96875C43.0781 3.9375 43.1406 2.74219 43.1719 2.38281C43.2031 2.00781 43.2422 1.69531 43.2891 1.44531C43.3516 1.17969 43.4375 0.953125 43.5469 0.765625C43.7812 0.375 44.1875 0.179688 44.7656 0.179688ZM34.9688 15.3203C34.9688 16.5547 35.4141 17.1719 36.3047 17.1719C36.4453 17.1719 36.6016 17.1562 36.7734 17.125C37.4141 17.125 38.2031 16.9375 39.1406 16.5625C40.9219 15.8594 42.0078 15.25 42.3984 14.7344V11.6172C42.3984 11.0703 41.9531 10.7969 41.0625 10.7969C40.9531 10.7812 40.8047 10.7734 40.6172 10.7734C40.4453 10.7734 40.1719 10.8125 39.7969 10.8906C39.4219 10.9688 39 11.1094 38.5312 11.3125C38.0625 11.5156 37.6016 11.7656 37.1484 12.0625C36.1953 12.7031 35.5391 13.4531 35.1797 14.3125C35.0391 14.6406 34.9688 14.9766 34.9688 15.3203ZM64.5 12.5312C64.1562 13.6719 63.8672 14.7266 63.6328 15.6953C63.4141 16.6641 63.1953 17.4688 62.9766 18.1094C62.6328 19.0312 62.2422 19.4922 61.8047 19.4922C61.5703 19.4922 61.3047 19.3828 61.0078 19.1641C60.2891 18.3984 59.2734 16.7031 57.9609 14.0781C56.6797 11.5156 56.0391 9.91406 56.0391 9.27344C56.0391 8.99219 56.125 8.82031 56.2969 8.75781C56.4688 8.67969 56.6641 8.67188 56.8828 8.73438C57.4141 8.89062 57.7891 9.13281 58.0078 9.46094C58.1172 9.61719 58.25 9.89062 58.4062 10.2812L58.9922 11.7344C59.6484 13.375 60.2969 14.875 60.9375 16.2344C61.2812 15.7031 61.6094 15.0156 61.9219 14.1719L62.6484 12.1562C63.2734 10.3906 63.8359 9.49219 64.3359 9.46094C64.7266 9.21094 65.8984 10.5938 67.8516 13.6094C68.6797 14.8906 69.1953 15.6562 69.3984 15.9062C69.5391 15.9062 69.7031 15.4375 69.8906 14.5C70.0938 13.5625 70.2656 12.7734 70.4062 12.1328C70.5625 11.4766 70.75 10.8672 70.9688 10.3047C71.4844 8.99219 72.0781 8.33594 72.75 8.33594C72.9688 8.33594 73.1172 8.41406 73.1953 8.57031C73.2891 8.71094 73.3359 8.82812 73.3359 8.92188C73.3359 9.01562 73.3359 9.08594 73.3359 9.13281C73.1484 9.66406 72.9531 10.2734 72.75 10.9609C72.5469 11.6328 72.3281 12.3281 72.0938 13.0469C71.875 13.75 71.6484 14.4531 71.4141 15.1562C71.1953 15.8438 70.9766 16.4688 70.7578 17.0312C70.2422 18.25 69.8125 18.9062 69.4688 19C69.2031 19.125 68.7734 18.8203 68.1797 18.0859C67.9141 17.7422 67.6328 17.3359 67.3359 16.8672C67.0391 16.3984 66.7266 15.9141 66.3984 15.4141C65.6016 14.1641 64.9688 13.2031 64.5 12.5312ZM79.7812 17.3594C81.1562 17.3594 83.2266 16.7344 85.9922 15.4844C86.1641 15.4844 86.3047 15.5469 86.4141 15.6719C86.5234 15.7812 86.5781 15.9141 86.5781 16.0703C85.9531 17.1328 84.7578 17.9609 82.9922 18.5547C81.2266 19.1484 79.5781 19.25 78.0469 18.8594C76.3125 18.4062 75.2578 17.4297 74.8828 15.9297C74.8516 15.6328 74.8359 15.2344 74.8359 14.7344C74.8359 14.2344 74.9609 13.5781 75.2109 12.7656C75.4766 11.9375 75.9219 11.1562 76.5469 10.4219C77.1719 9.6875 77.9062 9.10938 78.75 8.6875C79.5938 8.26562 80.4922 8.05469 81.4453 8.05469C82.3516 8.05469 83.3672 8.36719 84.4922 8.99219C85.0234 9.28906 85.4453 9.625 85.7578 10C86.0703 10.375 86.2266 10.7578 86.2266 11.1484C86.2266 11.2578 86.2188 11.3672 86.2031 11.4766C86.1719 12.4297 85.7109 13.0312 84.8203 13.2812C84.4297 13.3906 83.9766 13.4453 83.4609 13.4453L80.0859 13.3047C78.9609 13.3047 78.1016 13.5469 77.5078 14.0312C77.1641 14.2969 76.9219 14.6953 76.7812 15.2266C77.1719 16.6484 78.1719 17.3594 79.7812 17.3594ZM83.9531 10.1172C83.6094 9.86719 83.25 9.6875 82.875 9.57812C82.5 9.46875 82.1875 9.41406 81.9375 9.41406C81.6875 9.41406 81.2812 9.5 80.7188 9.67188C80.1562 9.82812 79.6562 10.0078 79.2188 10.2109C78.1406 10.7109 77.6016 11.2344 77.6016 11.7812C78.8516 11.8906 79.7891 11.9453 80.4141 11.9453C82.1484 11.9453 83.3203 11.7969 83.9297 11.5C84.3047 11.3438 84.4922 11.1484 84.4922 10.9141C84.4922 10.6328 84.3125 10.3672 83.9531 10.1172ZM99.4922 10.4453C98.8359 9.97656 97.9922 9.74219 96.9609 9.74219C95.9922 9.74219 95.0938 9.92188 94.2656 10.2812C92.7031 10.9375 91.6328 11.7812 91.0547 12.8125C90.8047 13.2812 90.6797 13.7812 90.6797 14.3125C90.6797 14.4062 90.6797 14.6719 90.6797 15.1094C90.6797 15.5312 90.7578 16.1094 90.9141 16.8438C91.0703 17.5625 91.1484 18.2969 91.1484 19.0469C90.8203 19.0625 90.5547 19.1016 90.3516 19.1641C90.1484 19.2266 89.9766 19.2578 89.8359 19.2578C89.6953 19.2578 89.5703 19.1953 89.4609 19.0703C89.3672 18.9453 89.2578 18.7031 89.1328 18.3438C89.1172 18.25 89.0859 17.9844 89.0391 17.5469C88.9922 17.1094 88.9297 16.5781 88.8516 15.9531C88.7891 15.3281 88.7109 14.6484 88.6172 13.9141C88.5391 13.1641 88.4609 12.4297 88.3828 11.7109C88.2109 10.1484 88.0781 9 87.9844 8.26562C87.9844 7.89062 88.2578 7.70312 88.8047 7.70312C89.1328 7.70312 89.3906 7.84375 89.5781 8.125C89.7656 8.39062 89.9141 8.70312 90.0234 9.0625C90.1328 9.40625 90.2031 9.75 90.2344 10.0938C90.2812 10.4375 90.3203 10.6797 90.3516 10.8203C92.4141 8.97656 94.9766 8.05469 98.0391 8.05469C98.3828 8.05469 98.7422 8.0625 99.1172 8.07812C99.2109 8.0625 99.3281 8.05469 99.4688 8.05469C99.6094 8.05469 99.75 8.14844 99.8906 8.33594C100.062 8.55469 100.148 8.82031 100.148 9.13281C100.148 9.91406 99.9297 10.3516 99.4922 10.4453ZM112.312 0.179688C112.312 1.67969 112.266 3.14844 112.172 4.58594C112.094 6.00781 112.016 7.40625 111.938 8.78125C111.875 10.1406 111.844 11.5938 111.844 13.1406C111.844 14.6719 111.953 16.2969 112.172 18.0156C112.172 18.375 112.102 18.6328 111.961 18.7891C111.836 18.9453 111.617 19.0234 111.305 19.0234C110.57 19.0234 110.203 18.4141 110.203 17.1953V16.4219C107.984 18.0781 106.109 18.9062 104.578 18.9062C103.969 18.9062 103.344 18.7578 102.703 18.4609C102.078 18.1641 101.484 17.5625 100.922 16.6562C100.844 16.2812 100.805 15.8984 100.805 15.5078C100.805 15.1172 100.875 14.6484 101.016 14.1016C101.172 13.5391 101.477 12.9609 101.93 12.3672C102.398 11.7734 102.961 11.25 103.617 10.7969C105.055 9.82812 106.609 9.34375 108.281 9.34375C109 9.34375 109.688 9.45312 110.344 9.67188C110.344 9.39062 110.359 8.89844 110.391 8.19531C110.438 7.49219 110.484 6.75 110.531 5.96875C110.625 3.9375 110.688 2.74219 110.719 2.38281C110.75 2.00781 110.789 1.69531 110.836 1.44531C110.898 1.17969 110.984 0.953125 111.094 0.765625C111.328 0.375 111.734 0.179688 112.312 0.179688ZM102.516 15.3203C102.516 16.5547 102.961 17.1719 103.852 17.1719C103.992 17.1719 104.148 17.1562 104.32 17.125C104.961 17.125 105.75 16.9375 106.688 16.5625C108.469 15.8594 109.555 15.25 109.945 14.7344V11.6172C109.945 11.0703 109.5 10.7969 108.609 10.7969C108.5 10.7812 108.352 10.7734 108.164 10.7734C107.992 10.7734 107.719 10.8125 107.344 10.8906C106.969 10.9688 106.547 11.1094 106.078 11.3125C105.609 11.5156 105.148 11.7656 104.695 12.0625C103.742 12.7031 103.086 13.4531 102.727 14.3125C102.586 14.6406 102.516 14.9766 102.516 15.3203ZM118.312 17.3594C119.688 17.3594 121.758 16.7344 124.523 15.4844C124.695 15.4844 124.836 15.5469 124.945 15.6719C125.055 15.7812 125.109 15.9141 125.109 16.0703C124.484 17.1328 123.289 17.9609 121.523 18.5547C119.758 19.1484 118.109 19.25 116.578 18.8594C114.844 18.4062 113.789 17.4297 113.414 15.9297C113.383 15.6328 113.367 15.2344 113.367 14.7344C113.367 14.2344 113.492 13.5781 113.742 12.7656C114.008 11.9375 114.453 11.1562 115.078 10.4219C115.703 9.6875 116.438 9.10938 117.281 8.6875C118.125 8.26562 119.023 8.05469 119.977 8.05469C120.883 8.05469 121.898 8.36719 123.023 8.99219C123.555 9.28906 123.977 9.625 124.289 10C124.602 10.375 124.758 10.7578 124.758 11.1484C124.758 11.2578 124.75 11.3672 124.734 11.4766C124.703 12.4297 124.242 13.0312 123.352 13.2812C122.961 13.3906 122.508 13.4453 121.992 13.4453L118.617 13.3047C117.492 13.3047 116.633 13.5469 116.039 14.0312C115.695 14.2969 115.453 14.6953 115.312 15.2266C115.703 16.6484 116.703 17.3594 118.312 17.3594ZM122.484 10.1172C122.141 9.86719 121.781 9.6875 121.406 9.57812C121.031 9.46875 120.719 9.41406 120.469 9.41406C120.219 9.41406 119.812 9.5 119.25 9.67188C118.688 9.82812 118.188 10.0078 117.75 10.2109C116.672 10.7109 116.133 11.2344 116.133 11.7812C117.383 11.8906 118.32 11.9453 118.945 11.9453C120.68 11.9453 121.852 11.7969 122.461 11.5C122.836 11.3438 123.023 11.1484 123.023 10.9141C123.023 10.6328 122.844 10.3672 122.484 10.1172ZM135.656 13.8672C135.656 12.0078 135.555 10.6406 135.352 9.76562C135.477 9.53125 135.289 9.41406 134.789 9.41406C134.258 9.41406 133.57 9.54688 132.727 9.8125C131.883 10.0781 131.195 10.3438 130.664 10.6094C129.398 11.2188 128.695 11.8125 128.555 12.3906V18.7656H126.984C126.781 18.2344 126.68 16.7422 126.68 14.2891C126.68 12.1016 126.719 10.4922 126.797 9.46094C126.891 8.42969 126.961 7.84375 127.008 7.70312C127.414 7.4375 127.742 7.30469 127.992 7.30469C128.383 7.30469 128.578 7.76562 128.578 8.6875C128.578 9.04688 128.555 9.39844 128.508 9.74219C128.477 10.0703 128.461 10.2969 128.461 10.4219C130.992 8.5625 132.953 7.63281 134.344 7.63281C135.922 7.63281 136.82 8.90625 137.039 11.4531C137.133 12.3438 137.18 13.5781 137.18 15.1562L137.156 17.0078C137.156 17.6953 137.172 18.3594 137.203 19C137.047 19.0938 136.922 19.1406 136.828 19.1406C136.781 19.125 136.68 19.1016 136.523 19.0703C136.367 19.0391 136.164 19.0156 135.914 19C135.758 18.375 135.672 17.7422 135.656 17.1016C135.641 16.4453 135.633 15.8438 135.633 15.2969L135.656 13.8672ZM159.211 0.179688C159.211 1.67969 159.164 3.14844 159.07 4.58594C158.992 6.00781 158.914 7.40625 158.836 8.78125C158.773 10.1406 158.742 11.5938 158.742 13.1406C158.742 14.6719 158.852 16.2969 159.07 18.0156C159.07 18.375 159 18.6328 158.859 18.7891C158.734 18.9453 158.516 19.0234 158.203 19.0234C157.469 19.0234 157.102 18.4141 157.102 17.1953V16.4219C154.883 18.0781 153.008 18.9062 151.477 18.9062C150.867 18.9062 150.242 18.7578 149.602 18.4609C148.977 18.1641 148.383 17.5625 147.82 16.6562C147.742 16.2812 147.703 15.8984 147.703 15.5078C147.703 15.1172 147.773 14.6484 147.914 14.1016C148.07 13.5391 148.375 12.9609 148.828 12.3672C149.297 11.7734 149.859 11.25 150.516 10.7969C151.953 9.82812 153.508 9.34375 155.18 9.34375C155.898 9.34375 156.586 9.45312 157.242 9.67188C157.242 9.39062 157.258 8.89844 157.289 8.19531C157.336 7.49219 157.383 6.75 157.43 5.96875C157.523 3.9375 157.586 2.74219 157.617 2.38281C157.648 2.00781 157.688 1.69531 157.734 1.44531C157.797 1.17969 157.883 0.953125 157.992 0.765625C158.227 0.375 158.633 0.179688 159.211 0.179688ZM149.414 15.3203C149.414 16.5547 149.859 17.1719 150.75 17.1719C150.891 17.1719 151.047 17.1562 151.219 17.125C151.859 17.125 152.648 16.9375 153.586 16.5625C155.367 15.8594 156.453 15.25 156.844 14.7344V11.6172C156.844 11.0703 156.398 10.7969 155.508 10.7969C155.398 10.7812 155.25 10.7734 155.062 10.7734C154.891 10.7734 154.617 10.8125 154.242 10.8906C153.867 10.9688 153.445 11.1094 152.977 11.3125C152.508 11.5156 152.047 11.7656 151.594 12.0625C150.641 12.7031 149.984 13.4531 149.625 14.3125C149.484 14.6406 149.414 14.9766 149.414 15.3203ZM165.211 17.3594C166.586 17.3594 168.656 16.7344 171.422 15.4844C171.594 15.4844 171.734 15.5469 171.844 15.6719C171.953 15.7812 172.008 15.9141 172.008 16.0703C171.383 17.1328 170.188 17.9609 168.422 18.5547C166.656 19.1484 165.008 19.25 163.477 18.8594C161.742 18.4062 160.688 17.4297 160.312 15.9297C160.281 15.6328 160.266 15.2344 160.266 14.7344C160.266 14.2344 160.391 13.5781 160.641 12.7656C160.906 11.9375 161.352 11.1562 161.977 10.4219C162.602 9.6875 163.336 9.10938 164.18 8.6875C165.023 8.26562 165.922 8.05469 166.875 8.05469C167.781 8.05469 168.797 8.36719 169.922 8.99219C170.453 9.28906 170.875 9.625 171.188 10C171.5 10.375 171.656 10.7578 171.656 11.1484C171.656 11.2578 171.648 11.3672 171.633 11.4766C171.602 12.4297 171.141 13.0312 170.25 13.2812C169.859 13.3906 169.406 13.4453 168.891 13.4453L165.516 13.3047C164.391 13.3047 163.531 13.5469 162.938 14.0312C162.594 14.2969 162.352 14.6953 162.211 15.2266C162.602 16.6484 163.602 17.3594 165.211 17.3594ZM169.383 10.1172C169.039 9.86719 168.68 9.6875 168.305 9.57812C167.93 9.46875 167.617 9.41406 167.367 9.41406C167.117 9.41406 166.711 9.5 166.148 9.67188C165.586 9.82812 165.086 10.0078 164.648 10.2109C163.57 10.7109 163.031 11.2344 163.031 11.7812C164.281 11.8906 165.219 11.9453 165.844 11.9453C167.578 11.9453 168.75 11.7969 169.359 11.5C169.734 11.3438 169.922 11.1484 169.922 10.9141C169.922 10.6328 169.742 10.3672 169.383 10.1172ZM175.523 7.98438C175.727 10.9062 175.898 14.2891 176.039 18.1328C175.945 18.6172 175.57 18.8594 174.914 18.8594C174.742 18.8594 174.562 18.8281 174.375 18.7656C174.203 18.6875 174.094 18.5859 174.047 18.4609V7.98438H175.523ZM173.344 4.79688C173.344 4.25 173.664 3.97656 174.305 3.97656C174.727 3.97656 175.07 4.07031 175.336 4.25781C175.383 4.42969 175.406 4.60156 175.406 4.77344C175.406 4.92969 175.344 5.08594 175.219 5.24219C175.094 5.39844 174.906 5.47656 174.656 5.47656C174.406 5.47656 174.156 5.42188 173.906 5.3125C173.656 5.1875 173.469 5.01562 173.344 4.79688ZM186.188 13.8672C186.188 12.0078 186.086 10.6406 185.883 9.76562C186.008 9.53125 185.82 9.41406 185.32 9.41406C184.789 9.41406 184.102 9.54688 183.258 9.8125C182.414 10.0781 181.727 10.3438 181.195 10.6094C179.93 11.2188 179.227 11.8125 179.086 12.3906V18.7656H177.516C177.312 18.2344 177.211 16.7422 177.211 14.2891C177.211 12.1016 177.25 10.4922 177.328 9.46094C177.422 8.42969 177.492 7.84375 177.539 7.70312C177.945 7.4375 178.273 7.30469 178.523 7.30469C178.914 7.30469 179.109 7.76562 179.109 8.6875C179.109 9.04688 179.086 9.39844 179.039 9.74219C179.008 10.0703 178.992 10.2969 178.992 10.4219C181.523 8.5625 183.484 7.63281 184.875 7.63281C186.453 7.63281 187.352 8.90625 187.57 11.4531C187.664 12.3438 187.711 13.5781 187.711 15.1562L187.688 17.0078C187.688 17.6953 187.703 18.3594 187.734 19C187.578 19.0938 187.453 19.1406 187.359 19.1406C187.312 19.125 187.211 19.1016 187.055 19.0703C186.898 19.0391 186.695 19.0156 186.445 19C186.289 18.375 186.203 17.7422 186.188 17.1016C186.172 16.4453 186.164 15.8438 186.164 15.2969L186.188 13.8672ZM193.828 17.3594C195.203 17.3594 197.273 16.7344 200.039 15.4844C200.211 15.4844 200.352 15.5469 200.461 15.6719C200.57 15.7812 200.625 15.9141 200.625 16.0703C200 17.1328 198.805 17.9609 197.039 18.5547C195.273 19.1484 193.625 19.25 192.094 18.8594C190.359 18.4062 189.305 17.4297 188.93 15.9297C188.898 15.6328 188.883 15.2344 188.883 14.7344C188.883 14.2344 189.008 13.5781 189.258 12.7656C189.523 11.9375 189.969 11.1562 190.594 10.4219C191.219 9.6875 191.953 9.10938 192.797 8.6875C193.641 8.26562 194.539 8.05469 195.492 8.05469C196.398 8.05469 197.414 8.36719 198.539 8.99219C199.07 9.28906 199.492 9.625 199.805 10C200.117 10.375 200.273 10.7578 200.273 11.1484C200.273 11.2578 200.266 11.3672 200.25 11.4766C200.219 12.4297 199.758 13.0312 198.867 13.2812C198.477 13.3906 198.023 13.4453 197.508 13.4453L194.133 13.3047C193.008 13.3047 192.148 13.5469 191.555 14.0312C191.211 14.2969 190.969 14.6953 190.828 15.2266C191.219 16.6484 192.219 17.3594 193.828 17.3594ZM198 10.1172C197.656 9.86719 197.297 9.6875 196.922 9.57812C196.547 9.46875 196.234 9.41406 195.984 9.41406C195.734 9.41406 195.328 9.5 194.766 9.67188C194.203 9.82812 193.703 10.0078 193.266 10.2109C192.188 10.7109 191.648 11.2344 191.648 11.7812C192.898 11.8906 193.836 11.9453 194.461 11.9453C196.195 11.9453 197.367 11.7969 197.977 11.5C198.352 11.3438 198.539 11.1484 198.539 10.9141C198.539 10.6328 198.359 10.3672 198 10.1172ZM212.016 18.6484C212.016 18.5859 212.031 18.4922 212.062 18.3672C212.109 18.2422 212.148 17.9219 212.18 17.4062C212.227 16.8906 212.258 16.2734 212.273 15.5547C212.305 14.8203 212.328 14.0234 212.344 13.1641C212.375 12.2891 212.398 11.3984 212.414 10.4922C212.445 9.58594 212.477 8.70312 212.508 7.84375C212.539 6.96875 212.586 6.17188 212.648 5.45312C212.789 3.89063 212.977 2.96094 213.211 2.66406C213.336 2.30469 213.758 2.125 214.477 2.125C214.477 2.125 214.586 2.125 214.805 2.125C214.805 2.71875 214.734 3.96875 214.594 5.875C214.469 7.78125 214.398 8.91406 214.383 9.27344C215.398 8.75781 216.375 8.20312 217.312 7.60938C218.266 7 219.148 6.44531 219.961 5.94531C220.789 5.42969 221.539 5.00781 222.211 4.67969C222.883 4.33594 223.383 4.16406 223.711 4.16406C224.258 4.16406 224.531 4.375 224.531 4.79688C224.531 5.125 224.281 5.49219 223.781 5.89844C223.281 6.28906 222.656 6.70312 221.906 7.14062C221.156 7.5625 220.336 7.99219 219.445 8.42969C218.57 8.86719 217.758 9.29688 217.008 9.71875C216.258 10.125 215.633 10.5078 215.133 10.8672C214.633 11.2266 214.383 11.5391 214.383 11.8047C214.664 11.9766 215.125 12.2109 215.766 12.5078C216.422 12.7891 217.148 13.1172 217.945 13.4922C218.758 13.8516 219.594 14.2422 220.453 14.6641C221.328 15.0703 222.125 15.4844 222.844 15.9062C224.469 16.8281 225.281 17.5938 225.281 18.2031C225.281 18.4062 225.148 18.5469 224.883 18.625C224.773 18.6562 224.664 18.6719 224.555 18.6719H224.32C223.57 18.6719 222.867 18.4922 222.211 18.1328C221.555 17.7734 220.852 17.3438 220.102 16.8438C219.367 16.3438 218.531 15.8281 217.594 15.2969C216.656 14.75 215.523 14.2969 214.195 13.9375V18.625C214.164 18.6875 214.023 18.7578 213.773 18.8359C213.414 18.9453 213.031 19 212.625 19C212.219 19 212.016 18.8828 212.016 18.6484ZM226.594 9.90625C226.562 9.0625 226.531 8.3125 226.5 7.65625C226.469 6.98438 226.445 6.49219 226.43 6.17969C226.43 5.85156 226.305 5.0625 226.055 3.8125C226.195 3.625 226.328 3.44531 226.453 3.27344C226.594 3.10156 226.789 3.01562 227.039 3.01562C227.586 3.01562 228.008 5.32031 228.305 9.92969C228.461 12.6016 228.539 15.2734 228.539 17.9453C228.539 18.6641 228.039 19.0234 227.039 19.0234L226.852 19C226.852 18.1875 226.828 17.1484 226.781 15.8828C226.734 14.6172 226.695 13.5156 226.664 12.5781C226.648 11.6406 226.625 10.75 226.594 9.90625ZM239.156 15.1094C237.984 16.9531 236.422 18.0938 234.469 18.5312C234.016 18.625 233.602 18.6719 233.227 18.6719C232.867 18.6719 232.562 18.6719 232.312 18.6719C232.078 18.6562 231.812 18.6172 231.516 18.5547C231.219 18.4922 230.945 18.3906 230.695 18.25C230.117 17.9219 229.828 17.4609 229.828 16.8672C229.766 16.5859 229.734 16.2734 229.734 15.9297C229.734 15.5703 229.812 15.1016 229.969 14.5234C230.125 13.9453 230.406 13.3203 230.812 12.6484C231.234 11.9766 231.742 11.3594 232.336 10.7969C233.57 9.60938 234.906 8.84375 236.344 8.5C236.766 8.40625 237.148 8.35938 237.492 8.35938C237.852 8.35938 238.172 8.38281 238.453 8.42969C239.359 8.42969 239.969 9.04688 240.281 10.2812C240.484 11.0625 240.602 12.1562 240.633 13.5625C240.68 14.9531 240.719 16.0312 240.75 16.7969C240.797 17.5469 240.898 18.2344 241.055 18.8594H239.672C239.609 18.4375 239.562 18.0625 239.531 17.7344C239.5 17.4062 239.469 17.1016 239.438 16.8203C239.359 16.1641 239.266 15.5938 239.156 15.1094ZM239.062 11.4766C239.062 10.5703 238.617 10.1172 237.727 10.1172C237.617 10.1016 237.508 10.0938 237.398 10.0938C236.258 10.0938 235.055 10.6406 233.789 11.7344C233.195 12.2344 232.688 12.7969 232.266 13.4219C231.641 14.3125 231.328 15.1094 231.328 15.8125C231.328 16.7344 231.859 17.2812 232.922 17.4531C234.328 17.4219 235.672 16.7812 236.953 15.5312C237.5 14.9844 237.953 14.3906 238.312 13.75C238.812 12.8906 239.062 12.1328 239.062 11.4766ZM250.172 12.9531C251.891 12.9531 252.75 13.3906 252.75 14.2656C252.75 14.9219 252.273 15.6875 251.32 16.5625C249.898 17.8594 247.984 18.8984 245.578 19.6797C245.469 19.6797 245.344 19.5703 245.203 19.3516C245.078 19.1328 244.977 18.9688 244.898 18.8594C244.836 18.7344 244.789 18.6562 244.758 18.625C246.555 18.0312 248.031 17.3125 249.188 16.4688C249.969 15.9062 250.359 15.4453 250.359 15.0859C250.359 14.7266 249.898 14.5469 248.977 14.5469C248.055 14.5469 246.703 14.7656 244.922 15.2031C244.109 15.1719 243.406 14.8828 242.812 14.3359C242.297 13.8516 242.039 13.3672 242.039 12.8828C242.039 12.3828 242.18 11.9297 242.461 11.5234C242.742 11.1016 243.117 10.7109 243.586 10.3516C244.055 9.99219 244.602 9.66406 245.227 9.36719C246.758 8.63281 248.344 8.26562 249.984 8.26562C250.469 8.26562 250.938 8.3125 251.391 8.40625C251.766 8.40625 251.984 8.57031 252.047 8.89844C252.109 9.22656 252.141 9.76562 252.141 10.5156C251.219 10.0938 250.18 9.88281 249.023 9.88281C247.586 9.88281 246.398 10.1719 245.461 10.75C244.492 11.3125 243.992 12.0469 243.961 12.9531C243.961 13.3906 244.281 13.6094 244.922 13.6094L246.633 13.4219C248.102 13.1094 249.281 12.9531 250.172 12.9531ZM262.219 12.9531C263.938 12.9531 264.797 13.3906 264.797 14.2656C264.797 14.9219 264.32 15.6875 263.367 16.5625C261.945 17.8594 260.031 18.8984 257.625 19.6797C257.516 19.6797 257.391 19.5703 257.25 19.3516C257.125 19.1328 257.023 18.9688 256.945 18.8594C256.883 18.7344 256.836 18.6562 256.805 18.625C258.602 18.0312 260.078 17.3125 261.234 16.4688C262.016 15.9062 262.406 15.4453 262.406 15.0859C262.406 14.7266 261.945 14.5469 261.023 14.5469C260.102 14.5469 258.75 14.7656 256.969 15.2031C256.156 15.1719 255.453 14.8828 254.859 14.3359C254.344 13.8516 254.086 13.3672 254.086 12.8828C254.086 12.3828 254.227 11.9297 254.508 11.5234C254.789 11.1016 255.164 10.7109 255.633 10.3516C256.102 9.99219 256.648 9.66406 257.273 9.36719C258.805 8.63281 260.391 8.26562 262.031 8.26562C262.516 8.26562 262.984 8.3125 263.438 8.40625C263.812 8.40625 264.031 8.57031 264.094 8.89844C264.156 9.22656 264.188 9.76562 264.188 10.5156C263.266 10.0938 262.227 9.88281 261.07 9.88281C259.633 9.88281 258.445 10.1719 257.508 10.75C256.539 11.3125 256.039 12.0469 256.008 12.9531C256.008 13.3906 256.328 13.6094 256.969 13.6094L258.68 13.4219C260.148 13.1094 261.328 12.9531 262.219 12.9531ZM271.031 17.3594C272.406 17.3594 274.477 16.7344 277.242 15.4844C277.414 15.4844 277.555 15.5469 277.664 15.6719C277.773 15.7812 277.828 15.9141 277.828 16.0703C277.203 17.1328 276.008 17.9609 274.242 18.5547C272.477 19.1484 270.828 19.25 269.297 18.8594C267.562 18.4062 266.508 17.4297 266.133 15.9297C266.102 15.6328 266.086 15.2344 266.086 14.7344C266.086 14.2344 266.211 13.5781 266.461 12.7656C266.727 11.9375 267.172 11.1562 267.797 10.4219C268.422 9.6875 269.156 9.10938 270 8.6875C270.844 8.26562 271.742 8.05469 272.695 8.05469C273.602 8.05469 274.617 8.36719 275.742 8.99219C276.273 9.28906 276.695 9.625 277.008 10C277.32 10.375 277.477 10.7578 277.477 11.1484C277.477 11.2578 277.469 11.3672 277.453 11.4766C277.422 12.4297 276.961 13.0312 276.07 13.2812C275.68 13.3906 275.227 13.4453 274.711 13.4453L271.336 13.3047C270.211 13.3047 269.352 13.5469 268.758 14.0312C268.414 14.2969 268.172 14.6953 268.031 15.2266C268.422 16.6484 269.422 17.3594 271.031 17.3594ZM275.203 10.1172C274.859 9.86719 274.5 9.6875 274.125 9.57812C273.75 9.46875 273.438 9.41406 273.188 9.41406C272.938 9.41406 272.531 9.5 271.969 9.67188C271.406 9.82812 270.906 10.0078 270.469 10.2109C269.391 10.7109 268.852 11.2344 268.852 11.7812C270.102 11.8906 271.039 11.9453 271.664 11.9453C273.398 11.9453 274.57 11.7969 275.18 11.5C275.555 11.3438 275.742 11.1484 275.742 10.9141C275.742 10.6328 275.562 10.3672 275.203 10.1172ZM288.375 13.8672C288.375 12.0078 288.273 10.6406 288.07 9.76562C288.195 9.53125 288.008 9.41406 287.508 9.41406C286.977 9.41406 286.289 9.54688 285.445 9.8125C284.602 10.0781 283.914 10.3438 283.383 10.6094C282.117 11.2188 281.414 11.8125 281.273 12.3906V18.7656H279.703C279.5 18.2344 279.398 16.7422 279.398 14.2891C279.398 12.1016 279.438 10.4922 279.516 9.46094C279.609 8.42969 279.68 7.84375 279.727 7.70312C280.133 7.4375 280.461 7.30469 280.711 7.30469C281.102 7.30469 281.297 7.76562 281.297 8.6875C281.297 9.04688 281.273 9.39844 281.227 9.74219C281.195 10.0703 281.18 10.2969 281.18 10.4219C283.711 8.5625 285.672 7.63281 287.062 7.63281C288.641 7.63281 289.539 8.90625 289.758 11.4531C289.852 12.3438 289.898 13.5781 289.898 15.1562L289.875 17.0078C289.875 17.6953 289.891 18.3594 289.922 19C289.766 19.0938 289.641 19.1406 289.547 19.1406C289.5 19.125 289.398 19.1016 289.242 19.0703C289.086 19.0391 288.883 19.0156 288.633 19C288.477 18.375 288.391 17.7422 288.375 17.1016C288.359 16.4453 288.352 15.8438 288.352 15.2969L288.375 13.8672ZM293.555 14.7344L293.672 16.7734C293.672 18.0234 293.375 18.7812 292.781 19.0469C292.656 19.0938 292.508 19.1172 292.336 19.1172C292.164 19.1172 291.961 19.0781 291.727 19L291.75 10.2344C291.75 8.96875 291.672 7.70312 291.516 6.4375C291.375 5.15625 291.305 3.88281 291.305 2.61719C291.305 2.11719 291.57 1.86719 292.102 1.86719H292.289C292.398 1.86719 292.469 1.875 292.5 1.89062C292.734 2.85938 292.891 4.03125 292.969 5.40625C293.141 8.45312 293.297 10.5 293.438 11.5469C293.703 11.4062 294.297 11.0078 295.219 10.3516C296.141 9.69531 296.883 9.17188 297.445 8.78125C298.008 8.375 298.539 8 299.039 7.65625C300.211 6.89062 300.945 6.50781 301.242 6.50781C301.492 6.50781 301.688 6.65625 301.828 6.95312C301.047 7.9375 299.789 9.03125 298.055 10.2344C297.352 10.7188 296.648 11.2031 295.945 11.6875C295.258 12.1562 294.625 12.6484 294.047 13.1641C295.094 13.4453 296.086 13.7422 297.023 14.0547C297.961 14.3516 298.867 14.625 299.742 14.875C301.758 15.4688 303.492 15.8047 304.945 15.8828C304.945 16.3047 304.906 16.5781 304.828 16.7031C304.688 16.9219 304.398 17.0469 303.961 17.0781H303.773C302.82 16.8125 301.555 16.5156 299.977 16.1875C296.867 15.5469 294.727 15.0625 293.555 14.7344ZM315.188 15.1094C314.016 16.9531 312.453 18.0938 310.5 18.5312C310.047 18.625 309.633 18.6719 309.258 18.6719C308.898 18.6719 308.594 18.6719 308.344 18.6719C308.109 18.6562 307.844 18.6172 307.547 18.5547C307.25 18.4922 306.977 18.3906 306.727 18.25C306.148 17.9219 305.859 17.4609 305.859 16.8672C305.797 16.5859 305.766 16.2734 305.766 15.9297C305.766 15.5703 305.844 15.1016 306 14.5234C306.156 13.9453 306.438 13.3203 306.844 12.6484C307.266 11.9766 307.773 11.3594 308.367 10.7969C309.602 9.60938 310.938 8.84375 312.375 8.5C312.797 8.40625 313.18 8.35938 313.523 8.35938C313.883 8.35938 314.203 8.38281 314.484 8.42969C315.391 8.42969 316 9.04688 316.312 10.2812C316.516 11.0625 316.633 12.1562 316.664 13.5625C316.711 14.9531 316.75 16.0312 316.781 16.7969C316.828 17.5469 316.93 18.2344 317.086 18.8594H315.703C315.641 18.4375 315.594 18.0625 315.562 17.7344C315.531 17.4062 315.5 17.1016 315.469 16.8203C315.391 16.1641 315.297 15.5938 315.188 15.1094ZM315.094 11.4766C315.094 10.5703 314.648 10.1172 313.758 10.1172C313.648 10.1016 313.539 10.0938 313.43 10.0938C312.289 10.0938 311.086 10.6406 309.82 11.7344C309.227 12.2344 308.719 12.7969 308.297 13.4219C307.672 14.3125 307.359 15.1094 307.359 15.8125C307.359 16.7344 307.891 17.2812 308.953 17.4531C310.359 17.4219 311.703 16.7812 312.984 15.5312C313.531 14.9844 313.984 14.3906 314.344 13.75C314.844 12.8906 315.094 12.1328 315.094 11.4766ZM320.133 18.625C319.492 18.8906 319.062 19.0234 318.844 19.0234C318.641 19.0234 318.5 19 318.422 18.9531C318.344 18.9062 318.258 18.7969 318.164 18.625C318.164 18.1094 318.18 17.4609 318.211 16.6797C318.258 15.8984 318.297 15.0625 318.328 14.1719C318.359 13.2812 318.375 12.3828 318.375 11.4766C318.375 10.5703 318.328 9.74219 318.234 8.99219C318.234 8.49219 318.57 8.24219 319.242 8.24219C319.398 8.24219 319.516 8.52344 319.594 9.08594C319.688 9.64844 319.75 10.0859 319.781 10.3984C319.828 10.7109 319.867 10.9375 319.898 11.0781C320.305 10.3438 321.109 9.76562 322.312 9.34375C322.953 9.14062 323.555 9.03906 324.117 9.03906C324.68 9.03906 325.172 9.10938 325.594 9.25C326.031 9.375 326.398 9.61719 326.695 9.97656C327.008 10.3203 327.164 10.7812 327.164 11.3594C327.57 10.5938 328.484 9.90625 329.906 9.29688C331.203 8.71875 332.367 8.42969 333.398 8.42969C334.883 8.42969 335.609 8.99219 335.578 10.1172L336.07 18.8359C336.07 18.9141 335.844 18.9688 335.391 19C334.516 19.0625 334.078 18.9844 334.078 18.7656C334.062 18.4531 334.055 18.1406 334.055 17.8281L334.172 14.0547C334.172 12.2891 334 10.8906 333.656 9.85938C332.625 9.9375 331.828 10.1094 331.266 10.375C330.719 10.625 330.234 10.9453 329.812 11.3359C329.391 11.7109 329.016 12.2188 328.688 12.8594C327.953 14.2969 327.586 16.2031 327.586 18.5781C327.492 18.9062 327.188 19.0703 326.672 19.0703C326.328 19.0703 326.047 19.0156 325.828 18.9062C325.609 18.7812 325.523 18.6719 325.57 18.5781C325.867 16.9219 326.016 15.6328 326.016 14.7109C326.016 13.9766 325.938 13.2812 325.781 12.625C325.641 11.9531 325.461 11.1875 325.242 10.3281C322.992 10.3281 321.477 11.2266 320.695 13.0234C320.352 13.8203 320.156 14.5703 320.109 15.2734C320.078 15.9609 320.062 16.5547 320.062 17.0547C320.062 17.5391 320.086 18.0625 320.133 18.625ZM341.648 17.3594C343.023 17.3594 345.094 16.7344 347.859 15.4844C348.031 15.4844 348.172 15.5469 348.281 15.6719C348.391 15.7812 348.445 15.9141 348.445 16.0703C347.82 17.1328 346.625 17.9609 344.859 18.5547C343.094 19.1484 341.445 19.25 339.914 18.8594C338.18 18.4062 337.125 17.4297 336.75 15.9297C336.719 15.6328 336.703 15.2344 336.703 14.7344C336.703 14.2344 336.828 13.5781 337.078 12.7656C337.344 11.9375 337.789 11.1562 338.414 10.4219C339.039 9.6875 339.773 9.10938 340.617 8.6875C341.461 8.26562 342.359 8.05469 343.312 8.05469C344.219 8.05469 345.234 8.36719 346.359 8.99219C346.891 9.28906 347.312 9.625 347.625 10C347.938 10.375 348.094 10.7578 348.094 11.1484C348.094 11.2578 348.086 11.3672 348.07 11.4766C348.039 12.4297 347.578 13.0312 346.688 13.2812C346.297 13.3906 345.844 13.4453 345.328 13.4453L341.953 13.3047C340.828 13.3047 339.969 13.5469 339.375 14.0312C339.031 14.2969 338.789 14.6953 338.648 15.2266C339.039 16.6484 340.039 17.3594 341.648 17.3594ZM345.82 10.1172C345.477 9.86719 345.117 9.6875 344.742 9.57812C344.367 9.46875 344.055 9.41406 343.805 9.41406C343.555 9.41406 343.148 9.5 342.586 9.67188C342.023 9.82812 341.523 10.0078 341.086 10.2109C340.008 10.7109 339.469 11.2344 339.469 11.7812C340.719 11.8906 341.656 11.9453 342.281 11.9453C344.016 11.9453 345.188 11.7969 345.797 11.5C346.172 11.3438 346.359 11.1484 346.359 10.9141C346.359 10.6328 346.18 10.3672 345.82 10.1172ZM361.359 10.4453C360.703 9.97656 359.859 9.74219 358.828 9.74219C357.859 9.74219 356.961 9.92188 356.133 10.2812C354.57 10.9375 353.5 11.7812 352.922 12.8125C352.672 13.2812 352.547 13.7812 352.547 14.3125C352.547 14.4062 352.547 14.6719 352.547 15.1094C352.547 15.5312 352.625 16.1094 352.781 16.8438C352.938 17.5625 353.016 18.2969 353.016 19.0469C352.688 19.0625 352.422 19.1016 352.219 19.1641C352.016 19.2266 351.844 19.2578 351.703 19.2578C351.562 19.2578 351.438 19.1953 351.328 19.0703C351.234 18.9453 351.125 18.7031 351 18.3438C350.984 18.25 350.953 17.9844 350.906 17.5469C350.859 17.1094 350.797 16.5781 350.719 15.9531C350.656 15.3281 350.578 14.6484 350.484 13.9141C350.406 13.1641 350.328 12.4297 350.25 11.7109C350.078 10.1484 349.945 9 349.852 8.26562C349.852 7.89062 350.125 7.70312 350.672 7.70312C351 7.70312 351.258 7.84375 351.445 8.125C351.633 8.39062 351.781 8.70312 351.891 9.0625C352 9.40625 352.07 9.75 352.102 10.0938C352.148 10.4375 352.188 10.6797 352.219 10.8203C354.281 8.97656 356.844 8.05469 359.906 8.05469C360.25 8.05469 360.609 8.0625 360.984 8.07812C361.078 8.0625 361.195 8.05469 361.336 8.05469C361.477 8.05469 361.617 8.14844 361.758 8.33594C361.93 8.55469 362.016 8.82031 362.016 9.13281C362.016 9.91406 361.797 10.3516 361.359 10.4453ZM372.305 15.1094C371.133 16.9531 369.57 18.0938 367.617 18.5312C367.164 18.625 366.75 18.6719 366.375 18.6719C366.016 18.6719 365.711 18.6719 365.461 18.6719C365.227 18.6562 364.961 18.6172 364.664 18.5547C364.367 18.4922 364.094 18.3906 363.844 18.25C363.266 17.9219 362.977 17.4609 362.977 16.8672C362.914 16.5859 362.883 16.2734 362.883 15.9297C362.883 15.5703 362.961 15.1016 363.117 14.5234C363.273 13.9453 363.555 13.3203 363.961 12.6484C364.383 11.9766 364.891 11.3594 365.484 10.7969C366.719 9.60938 368.055 8.84375 369.492 8.5C369.914 8.40625 370.297 8.35938 370.641 8.35938C371 8.35938 371.32 8.38281 371.602 8.42969C372.508 8.42969 373.117 9.04688 373.43 10.2812C373.633 11.0625 373.75 12.1562 373.781 13.5625C373.828 14.9531 373.867 16.0312 373.898 16.7969C373.945 17.5469 374.047 18.2344 374.203 18.8594H372.82C372.758 18.4375 372.711 18.0625 372.68 17.7344C372.648 17.4062 372.617 17.1016 372.586 16.8203C372.508 16.1641 372.414 15.5938 372.305 15.1094ZM372.211 11.4766C372.211 10.5703 371.766 10.1172 370.875 10.1172C370.766 10.1016 370.656 10.0938 370.547 10.0938C369.406 10.0938 368.203 10.6406 366.938 11.7344C366.344 12.2344 365.836 12.7969 365.414 13.4219C364.789 14.3125 364.477 15.1094 364.477 15.8125C364.477 16.7344 365.008 17.2812 366.07 17.4531C367.477 17.4219 368.82 16.7812 370.102 15.5312C370.648 14.9844 371.102 14.3906 371.461 13.75C371.961 12.8906 372.211 12.1328 372.211 11.4766ZM386.391 0.179688C386.391 1.67969 386.344 3.14844 386.25 4.58594C386.172 6.00781 386.094 7.40625 386.016 8.78125C385.953 10.1406 385.922 11.5938 385.922 13.1406C385.922 14.6719 386.031 16.2969 386.25 18.0156C386.25 18.375 386.18 18.6328 386.039 18.7891C385.914 18.9453 385.695 19.0234 385.383 19.0234C384.648 19.0234 384.281 18.4141 384.281 17.1953V16.4219C382.062 18.0781 380.188 18.9062 378.656 18.9062C378.047 18.9062 377.422 18.7578 376.781 18.4609C376.156 18.1641 375.562 17.5625 375 16.6562C374.922 16.2812 374.883 15.8984 374.883 15.5078C374.883 15.1172 374.953 14.6484 375.094 14.1016C375.25 13.5391 375.555 12.9609 376.008 12.3672C376.477 11.7734 377.039 11.25 377.695 10.7969C379.133 9.82812 380.688 9.34375 382.359 9.34375C383.078 9.34375 383.766 9.45312 384.422 9.67188C384.422 9.39062 384.438 8.89844 384.469 8.19531C384.516 7.49219 384.562 6.75 384.609 5.96875C384.703 3.9375 384.766 2.74219 384.797 2.38281C384.828 2.00781 384.867 1.69531 384.914 1.44531C384.977 1.17969 385.062 0.953125 385.172 0.765625C385.406 0.375 385.812 0.179688 386.391 0.179688ZM376.594 15.3203C376.594 16.5547 377.039 17.1719 377.93 17.1719C378.07 17.1719 378.227 17.1562 378.398 17.125C379.039 17.125 379.828 16.9375 380.766 16.5625C382.547 15.8594 383.633 15.25 384.023 14.7344V11.6172C384.023 11.0703 383.578 10.7969 382.688 10.7969C382.578 10.7812 382.43 10.7734 382.242 10.7734C382.07 10.7734 381.797 10.8125 381.422 10.8906C381.047 10.9688 380.625 11.1094 380.156 11.3125C379.688 11.5156 379.227 11.7656 378.773 12.0625C377.82 12.7031 377.164 13.4531 376.805 14.3125C376.664 14.6406 376.594 14.9766 376.594 15.3203ZM392.391 17.3594C393.766 17.3594 395.836 16.7344 398.602 15.4844C398.773 15.4844 398.914 15.5469 399.023 15.6719C399.133 15.7812 399.188 15.9141 399.188 16.0703C398.562 17.1328 397.367 17.9609 395.602 18.5547C393.836 19.1484 392.188 19.25 390.656 18.8594C388.922 18.4062 387.867 17.4297 387.492 15.9297C387.461 15.6328 387.445 15.2344 387.445 14.7344C387.445 14.2344 387.57 13.5781 387.82 12.7656C388.086 11.9375 388.531 11.1562 389.156 10.4219C389.781 9.6875 390.516 9.10938 391.359 8.6875C392.203 8.26562 393.102 8.05469 394.055 8.05469C394.961 8.05469 395.977 8.36719 397.102 8.99219C397.633 9.28906 398.055 9.625 398.367 10C398.68 10.375 398.836 10.7578 398.836 11.1484C398.836 11.2578 398.828 11.3672 398.812 11.4766C398.781 12.4297 398.32 13.0312 397.43 13.2812C397.039 13.3906 396.586 13.4453 396.07 13.4453L392.695 13.3047C391.57 13.3047 390.711 13.5469 390.117 14.0312C389.773 14.2969 389.531 14.6953 389.391 15.2266C389.781 16.6484 390.781 17.3594 392.391 17.3594ZM396.562 10.1172C396.219 9.86719 395.859 9.6875 395.484 9.57812C395.109 9.46875 394.797 9.41406 394.547 9.41406C394.297 9.41406 393.891 9.5 393.328 9.67188C392.766 9.82812 392.266 10.0078 391.828 10.2109C390.75 10.7109 390.211 11.2344 390.211 11.7812C391.461 11.8906 392.398 11.9453 393.023 11.9453C394.758 11.9453 395.93 11.7969 396.539 11.5C396.914 11.3438 397.102 11.1484 397.102 10.9141C397.102 10.6328 396.922 10.3672 396.562 10.1172ZM409.734 13.8672C409.734 12.0078 409.633 10.6406 409.43 9.76562C409.555 9.53125 409.367 9.41406 408.867 9.41406C408.336 9.41406 407.648 9.54688 406.805 9.8125C405.961 10.0781 405.273 10.3438 404.742 10.6094C403.477 11.2188 402.773 11.8125 402.633 12.3906V18.7656H401.062C400.859 18.2344 400.758 16.7422 400.758 14.2891C400.758 12.1016 400.797 10.4922 400.875 9.46094C400.969 8.42969 401.039 7.84375 401.086 7.70312C401.492 7.4375 401.82 7.30469 402.07 7.30469C402.461 7.30469 402.656 7.76562 402.656 8.6875C402.656 9.04688 402.633 9.39844 402.586 9.74219C402.555 10.0703 402.539 10.2969 402.539 10.4219C405.07 8.5625 407.031 7.63281 408.422 7.63281C410 7.63281 410.898 8.90625 411.117 11.4531C411.211 12.3438 411.258 13.5781 411.258 15.1562L411.234 17.0078C411.234 17.6953 411.25 18.3594 411.281 19C411.125 19.0938 411 19.1406 410.906 19.1406C410.859 19.125 410.758 19.1016 410.602 19.0703C410.445 19.0391 410.242 19.0156 409.992 19C409.836 18.375 409.75 17.7422 409.734 17.1016C409.719 16.4453 409.711 15.8438 409.711 15.2969L409.734 13.8672ZM11.6484 51.6719C11.5078 51.9375 11.1406 52.0703 10.5469 52.0703C9.96875 52.0703 9.67969 51.8594 9.67969 51.4375C9.67969 49.5938 9.64062 48.3281 9.5625 47.6406C9.42188 46.125 9.125 45.3125 8.67188 45.2031C7.54688 44.9844 6.625 44.875 5.90625 44.875C5.20312 44.875 4.61719 45.0938 4.14844 45.5312C3.69531 45.9531 3.34375 46.6641 3.09375 47.6641C2.85938 48.6484 2.6875 50.0391 2.57812 51.8359H0.773438C0.804688 50.9453 0.820312 50.1172 0.820312 49.3516C0.820312 48.5859 0.804688 47.6797 0.773438 46.6328C0.742188 45.5703 0.703125 44.4141 0.65625 43.1641C0.578125 41.7266 0.539062 40.5156 0.539062 39.5312C0.539062 38.5312 0.601562 37.6172 0.726562 36.7891C0.882812 36.4922 1.10938 36.3438 1.40625 36.3438C1.76562 36.3438 2.04688 36.4766 2.25 36.7422C2.45312 36.9922 2.5625 37.2188 2.57812 37.4219L2.46094 41.2891C2.46094 42.7422 2.53125 43.8281 2.67188 44.5469C4.07812 43.6094 5.53125 43.1406 7.03125 43.1406C7.51562 43.1406 8.03125 43.1797 8.57812 43.2578C9.75 43.8672 10.5156 44.5156 10.875 45.2031C11.0469 45.5625 11.1562 45.9453 11.2031 46.3516C11.25 46.7578 11.2812 47.2188 11.2969 47.7344C11.3906 49.5156 11.5078 50.8281 11.6484 51.6719ZM14.625 40.9844C14.8281 43.9062 15 47.2891 15.1406 51.1328C15.0469 51.6172 14.6719 51.8594 14.0156 51.8594C13.8438 51.8594 13.6641 51.8281 13.4766 51.7656C13.3047 51.6875 13.1953 51.5859 13.1484 51.4609V40.9844H14.625ZM12.4453 37.7969C12.4453 37.25 12.7656 36.9766 13.4062 36.9766C13.8281 36.9766 14.1719 37.0703 14.4375 37.2578C14.4844 37.4297 14.5078 37.6016 14.5078 37.7734C14.5078 37.9297 14.4453 38.0859 14.3203 38.2422C14.1953 38.3984 14.0078 38.4766 13.7578 38.4766C13.5078 38.4766 13.2578 38.4219 13.0078 38.3125C12.7578 38.1875 12.5703 38.0156 12.4453 37.7969ZM20.9297 50.3594C22.3047 50.3594 24.375 49.7344 27.1406 48.4844C27.3125 48.4844 27.4531 48.5469 27.5625 48.6719C27.6719 48.7812 27.7266 48.9141 27.7266 49.0703C27.1016 50.1328 25.9062 50.9609 24.1406 51.5547C22.375 52.1484 20.7266 52.25 19.1953 51.8594C17.4609 51.4062 16.4062 50.4297 16.0312 48.9297C16 48.6328 15.9844 48.2344 15.9844 47.7344C15.9844 47.2344 16.1094 46.5781 16.3594 45.7656C16.625 44.9375 17.0703 44.1562 17.6953 43.4219C18.3203 42.6875 19.0547 42.1094 19.8984 41.6875C20.7422 41.2656 21.6406 41.0547 22.5938 41.0547C23.5 41.0547 24.5156 41.3672 25.6406 41.9922C26.1719 42.2891 26.5938 42.625 26.9062 43C27.2188 43.375 27.375 43.7578 27.375 44.1484C27.375 44.2578 27.3672 44.3672 27.3516 44.4766C27.3203 45.4297 26.8594 46.0312 25.9688 46.2812C25.5781 46.3906 25.125 46.4453 24.6094 46.4453L21.2344 46.3047C20.1094 46.3047 19.25 46.5469 18.6562 47.0312C18.3125 47.2969 18.0703 47.6953 17.9297 48.2266C18.3203 49.6484 19.3203 50.3594 20.9297 50.3594ZM25.1016 43.1172C24.7578 42.8672 24.3984 42.6875 24.0234 42.5781C23.6484 42.4688 23.3359 42.4141 23.0859 42.4141C22.8359 42.4141 22.4297 42.5 21.8672 42.6719C21.3047 42.8281 20.8047 43.0078 20.3672 43.2109C19.2891 43.7109 18.75 44.2344 18.75 44.7812C20 44.8906 20.9375 44.9453 21.5625 44.9453C23.2969 44.9453 24.4688 44.7969 25.0781 44.5C25.4531 44.3438 25.6406 44.1484 25.6406 43.9141C25.6406 43.6328 25.4609 43.3672 25.1016 43.1172ZM40.6406 43.4453C39.9844 42.9766 39.1406 42.7422 38.1094 42.7422C37.1406 42.7422 36.2422 42.9219 35.4141 43.2812C33.8516 43.9375 32.7812 44.7812 32.2031 45.8125C31.9531 46.2812 31.8281 46.7812 31.8281 47.3125C31.8281 47.4062 31.8281 47.6719 31.8281 48.1094C31.8281 48.5312 31.9062 49.1094 32.0625 49.8438C32.2188 50.5625 32.2969 51.2969 32.2969 52.0469C31.9688 52.0625 31.7031 52.1016 31.5 52.1641C31.2969 52.2266 31.125 52.2578 30.9844 52.2578C30.8438 52.2578 30.7188 52.1953 30.6094 52.0703C30.5156 51.9453 30.4062 51.7031 30.2812 51.3438C30.2656 51.25 30.2344 50.9844 30.1875 50.5469C30.1406 50.1094 30.0781 49.5781 30 48.9531C29.9375 48.3281 29.8594 47.6484 29.7656 46.9141C29.6875 46.1641 29.6094 45.4297 29.5312 44.7109C29.3594 43.1484 29.2266 42 29.1328 41.2656C29.1328 40.8906 29.4062 40.7031 29.9531 40.7031C30.2812 40.7031 30.5391 40.8438 30.7266 41.125C30.9141 41.3906 31.0625 41.7031 31.1719 42.0625C31.2812 42.4062 31.3516 42.75 31.3828 43.0938C31.4297 43.4375 31.4688 43.6797 31.5 43.8203C33.5625 41.9766 36.125 41.0547 39.1875 41.0547C39.5312 41.0547 39.8906 41.0625 40.2656 41.0781C40.3594 41.0625 40.4766 41.0547 40.6172 41.0547C40.7578 41.0547 40.8984 41.1484 41.0391 41.3359C41.2109 41.5547 41.2969 41.8203 41.2969 42.1328C41.2969 42.9141 41.0781 43.3516 40.6406 43.4453ZM61.1953 48.1094C60.0234 49.9531 58.4609 51.0938 56.5078 51.5312C56.0547 51.625 55.6406 51.6719 55.2656 51.6719C54.9062 51.6719 54.6016 51.6719 54.3516 51.6719C54.1172 51.6562 53.8516 51.6172 53.5547 51.5547C53.2578 51.4922 52.9844 51.3906 52.7344 51.25C52.1562 50.9219 51.8672 50.4609 51.8672 49.8672C51.8047 49.5859 51.7734 49.2734 51.7734 48.9297C51.7734 48.5703 51.8516 48.1016 52.0078 47.5234C52.1641 46.9453 52.4453 46.3203 52.8516 45.6484C53.2734 44.9766 53.7812 44.3594 54.375 43.7969C55.6094 42.6094 56.9453 41.8438 58.3828 41.5C58.8047 41.4062 59.1875 41.3594 59.5312 41.3594C59.8906 41.3594 60.2109 41.3828 60.4922 41.4297C61.3984 41.4297 62.0078 42.0469 62.3203 43.2812C62.5234 44.0625 62.6406 45.1562 62.6719 46.5625C62.7188 47.9531 62.7578 49.0312 62.7891 49.7969C62.8359 50.5469 62.9375 51.2344 63.0938 51.8594H61.7109C61.6484 51.4375 61.6016 51.0625 61.5703 50.7344C61.5391 50.4062 61.5078 50.1016 61.4766 49.8203C61.3984 49.1641 61.3047 48.5938 61.1953 48.1094ZM61.1016 44.4766C61.1016 43.5703 60.6562 43.1172 59.7656 43.1172C59.6562 43.1016 59.5469 43.0938 59.4375 43.0938C58.2969 43.0938 57.0938 43.6406 55.8281 44.7344C55.2344 45.2344 54.7266 45.7969 54.3047 46.4219C53.6797 47.3125 53.3672 48.1094 53.3672 48.8125C53.3672 49.7344 53.8984 50.2812 54.9609 50.4531C56.3672 50.4219 57.7109 49.7812 58.9922 48.5312C59.5391 47.9844 59.9922 47.3906 60.3516 46.75C60.8516 45.8906 61.1016 45.1328 61.1016 44.4766ZM64.0781 48.8828C64.0781 48.6328 64.0547 48.2891 64.0078 47.8516C63.9766 47.3984 63.9453 46.9062 63.9141 46.375C63.8828 45.8438 63.8672 45.3047 63.8672 44.7578C63.8672 44.2109 63.9141 43.7109 64.0078 43.2578C64.2109 42.2422 64.6328 41.7344 65.2734 41.7344C65.7109 41.8594 66 42.0156 66.1406 42.2031C66.2969 42.3906 66.375 42.625 66.375 42.9062C66.375 43.1719 66.3047 43.5078 66.1641 43.9141C65.6484 45.2734 65.3906 46.5 65.3906 47.5938C65.3906 47.9531 65.4141 48.3359 65.4609 48.7422C65.7109 49.7891 66.5703 50.3125 68.0391 50.3125C68.8047 50.3125 69.5312 50.1797 70.2188 49.9141C71.5312 49.4297 72.4219 48.8594 72.8906 48.2031C73.0312 47.4844 73.1016 46.8594 73.1016 46.3281C73.1016 45.7812 73.0781 45.2969 73.0312 44.875C73 44.4531 72.9531 43.9922 72.8906 43.4922C72.8438 42.9766 72.8125 42.4141 72.7969 41.8047C73 41.7109 73.1953 41.6641 73.3828 41.6641C73.5859 41.6641 73.7891 41.7656 73.9922 41.9688C74.2109 42.1719 74.3906 42.5547 74.5312 43.1172C74.6875 43.6797 74.7891 44.3438 74.8359 45.1094C74.8828 45.8594 74.9062 46.6406 74.9062 47.4531C74.9219 48.2656 74.9297 49.0547 74.9297 49.8203C74.9297 50.5703 74.9609 51.2188 75.0234 51.7656C74.8359 51.9375 74.6562 52.0234 74.4844 52.0234C73.8594 52.0234 73.3984 51.3984 73.1016 50.1484C72.8984 50.3203 72.5547 50.5312 72.0703 50.7812C71.0391 51.3438 69.8203 51.7188 68.4141 51.9062C68.1484 51.9375 67.8516 51.9531 67.5234 51.9531C67.1953 51.9531 66.7812 51.8906 66.2812 51.7656C65.7969 51.6406 65.3359 51.3516 64.8984 50.8984C64.4609 50.4453 64.1875 49.7734 64.0781 48.8828ZM89.8359 44.1719C89.9141 44.1719 89.9531 44.3828 89.9531 44.8047C89.9531 45.2266 89.9688 45.5156 90 45.6719L81.9609 46.6562L82.3828 51.8594L80.4844 51.7656C80.4844 50.3594 80.3281 48.75 80.0156 46.9375L76.9688 48.1094C76.7656 48.1094 76.5938 47.9922 76.4531 47.7578C76.2031 47.3516 76.0781 46.9844 76.0781 46.6562L79.6406 45.3906C79.3281 42.7031 79.1719 40.5234 79.1719 38.8516C79.1719 37.1641 79.3125 35.8516 79.5938 34.9141C79.875 33.9766 80.2812 33.3516 80.8125 33.0391C81.3594 32.7109 81.9375 32.5469 82.5469 32.5469C83.1562 32.5469 83.7734 32.6797 84.3984 32.9453C85.0391 33.2109 85.6484 33.5469 86.2266 33.9531C86.8047 34.3594 87.2969 34.8203 87.7031 35.3359C88.1094 35.8359 88.3125 36.3281 88.3125 36.8125C88.3125 37.1875 88.2734 37.4531 88.1953 37.6094C87.5703 36.7344 86.8125 35.9531 85.9219 35.2656C84.8594 34.4531 83.8594 34.0469 82.9219 34.0469C82.0312 34.0469 81.4375 34.6797 81.1406 35.9453C81 36.6016 80.9297 37.5312 80.9297 38.7344C80.9297 39.9219 80.9609 41.0156 81.0234 42.0156C81.0859 43 81.2734 43.9922 81.5859 44.9922C82.5547 44.9922 83.6406 44.9062 84.8438 44.7344C87.1562 44.375 88.8203 44.1875 89.8359 44.1719ZM94.1719 49.75L94.2188 46C94.2188 45.4062 94.1641 44.8984 94.0547 44.4766H90.4219L90.375 42.8594H93.8906V36.8125C93.9375 36.6719 94.0312 36.5312 94.1719 36.3906C94.3906 36.1719 94.5703 36.0625 94.7109 36.0625C94.8672 36.0625 95 36.0781 95.1094 36.1094C95.2188 36.1406 95.3359 36.25 95.4609 36.4375C95.7109 37.4688 95.8359 39.0234 95.8359 41.1016C95.8359 41.6172 95.8594 42.125 95.9062 42.625C96.4062 42.5625 96.9062 42.5312 97.4062 42.5312C97.4062 42.5312 97.8125 42.5312 98.625 42.5312C98.9219 42.5312 99.1953 42.5156 99.4453 42.4844L99.375 44.1719L95.9531 44.0781L96.0703 52.1641C95.7891 52.2891 95.5469 52.3516 95.3438 52.3516C94.5625 52.3516 94.1719 51.4844 94.1719 49.75ZM109.547 48.1094C108.375 49.9531 106.812 51.0938 104.859 51.5312C104.406 51.625 103.992 51.6719 103.617 51.6719C103.258 51.6719 102.953 51.6719 102.703 51.6719C102.469 51.6562 102.203 51.6172 101.906 51.5547C101.609 51.4922 101.336 51.3906 101.086 51.25C100.508 50.9219 100.219 50.4609 100.219 49.8672C100.156 49.5859 100.125 49.2734 100.125 48.9297C100.125 48.5703 100.203 48.1016 100.359 47.5234C100.516 46.9453 100.797 46.3203 101.203 45.6484C101.625 44.9766 102.133 44.3594 102.727 43.7969C103.961 42.6094 105.297 41.8438 106.734 41.5C107.156 41.4062 107.539 41.3594 107.883 41.3594C108.242 41.3594 108.562 41.3828 108.844 41.4297C109.75 41.4297 110.359 42.0469 110.672 43.2812C110.875 44.0625 110.992 45.1562 111.023 46.5625C111.07 47.9531 111.109 49.0312 111.141 49.7969C111.188 50.5469 111.289 51.2344 111.445 51.8594H110.062C110 51.4375 109.953 51.0625 109.922 50.7344C109.891 50.4062 109.859 50.1016 109.828 49.8203C109.75 49.1641 109.656 48.5938 109.547 48.1094ZM109.453 44.4766C109.453 43.5703 109.008 43.1172 108.117 43.1172C108.008 43.1016 107.898 43.0938 107.789 43.0938C106.648 43.0938 105.445 43.6406 104.18 44.7344C103.586 45.2344 103.078 45.7969 102.656 46.4219C102.031 47.3125 101.719 48.1094 101.719 48.8125C101.719 49.7344 102.25 50.2812 103.312 50.4531C104.719 50.4219 106.062 49.7812 107.344 48.5312C107.891 47.9844 108.344 47.3906 108.703 46.75C109.203 45.8906 109.453 45.1328 109.453 44.4766ZM112.43 48.8828C112.43 48.6328 112.406 48.2891 112.359 47.8516C112.328 47.3984 112.297 46.9062 112.266 46.375C112.234 45.8438 112.219 45.3047 112.219 44.7578C112.219 44.2109 112.266 43.7109 112.359 43.2578C112.562 42.2422 112.984 41.7344 113.625 41.7344C114.062 41.8594 114.352 42.0156 114.492 42.2031C114.648 42.3906 114.727 42.625 114.727 42.9062C114.727 43.1719 114.656 43.5078 114.516 43.9141C114 45.2734 113.742 46.5 113.742 47.5938C113.742 47.9531 113.766 48.3359 113.812 48.7422C114.062 49.7891 114.922 50.3125 116.391 50.3125C117.156 50.3125 117.883 50.1797 118.57 49.9141C119.883 49.4297 120.773 48.8594 121.242 48.2031C121.383 47.4844 121.453 46.8594 121.453 46.3281C121.453 45.7812 121.43 45.2969 121.383 44.875C121.352 44.4531 121.305 43.9922 121.242 43.4922C121.195 42.9766 121.164 42.4141 121.148 41.8047C121.352 41.7109 121.547 41.6641 121.734 41.6641C121.938 41.6641 122.141 41.7656 122.344 41.9688C122.562 42.1719 122.742 42.5547 122.883 43.1172C123.039 43.6797 123.141 44.3438 123.188 45.1094C123.234 45.8594 123.258 46.6406 123.258 47.4531C123.273 48.2656 123.281 49.0547 123.281 49.8203C123.281 50.5703 123.312 51.2188 123.375 51.7656C123.188 51.9375 123.008 52.0234 122.836 52.0234C122.211 52.0234 121.75 51.3984 121.453 50.1484C121.25 50.3203 120.906 50.5312 120.422 50.7812C119.391 51.3438 118.172 51.7188 116.766 51.9062C116.5 51.9375 116.203 51.9531 115.875 51.9531C115.547 51.9531 115.133 51.8906 114.633 51.7656C114.148 51.6406 113.688 51.3516 113.25 50.8984C112.812 50.4453 112.539 49.7734 112.43 48.8828ZM134.203 49.5391C134.844 49.2734 135.469 49.0312 136.078 48.8125C136.688 48.5938 137.266 48.4844 137.812 48.4844C138.375 48.4844 138.656 48.6562 138.656 49C138.656 49.0781 138.633 49.2031 138.586 49.375C138.555 49.5312 138.344 49.7266 137.953 49.9609C137.578 50.1797 137.109 50.3906 136.547 50.5938C136 50.7969 135.398 50.9844 134.742 51.1562C134.086 51.3281 133.445 51.4766 132.82 51.6016C131.523 51.8672 130.602 52 130.055 52C129.508 52 128.914 51.9375 128.273 51.8125C127.648 51.6875 127.062 51.4844 126.516 51.2031C125.25 50.5469 124.617 49.5781 124.617 48.2969C124.617 48.2031 124.617 48.0156 124.617 47.7344C124.617 47.4531 124.734 47.0547 124.969 46.5391C125.203 46.0078 125.555 45.4844 126.023 44.9688C126.492 44.4375 127.039 43.9531 127.664 43.5156C128.977 42.5781 130.352 41.9688 131.789 41.6875C132.289 41.5781 132.703 41.5234 133.031 41.5234C133.375 41.5234 133.656 41.5312 133.875 41.5469C134.094 41.5469 134.32 41.5625 134.555 41.5938C134.789 41.6094 134.992 41.6641 135.164 41.7578C135.57 41.9609 135.773 42.3594 135.773 42.9531C135.773 43.3281 135.508 43.6953 134.977 44.0547C134.836 44.1484 134.711 44.2344 134.602 44.3125C134.523 43.9531 134.422 43.6484 134.297 43.3984C134.172 43.1484 133.898 43.0234 133.477 43.0234C131.633 43.4141 130.047 44 128.719 44.7812C127.219 45.6719 126.469 46.6094 126.469 47.5938C126.469 47.7031 126.477 47.8203 126.492 47.9453C126.492 48.9453 126.875 49.6562 127.641 50.0781C128.219 50.3906 128.961 50.5469 129.867 50.5469C130.789 50.5469 131.586 50.4453 132.258 50.2422C132.93 50.0234 133.578 49.7891 134.203 49.5391ZM150.938 51.6719C150.797 51.9375 150.43 52.0703 149.836 52.0703C149.258 52.0703 148.969 51.8594 148.969 51.4375C148.969 49.5938 148.93 48.3281 148.852 47.6406C148.711 46.125 148.414 45.3125 147.961 45.2031C146.836 44.9844 145.914 44.875 145.195 44.875C144.492 44.875 143.906 45.0938 143.438 45.5312C142.984 45.9531 142.633 46.6641 142.383 47.6641C142.148 48.6484 141.977 50.0391 141.867 51.8359H140.062C140.094 50.9453 140.109 50.1172 140.109 49.3516C140.109 48.5859 140.094 47.6797 140.062 46.6328C140.031 45.5703 139.992 44.4141 139.945 43.1641C139.867 41.7266 139.828 40.5156 139.828 39.5312C139.828 38.5312 139.891 37.6172 140.016 36.7891C140.172 36.4922 140.398 36.3438 140.695 36.3438C141.055 36.3438 141.336 36.4766 141.539 36.7422C141.742 36.9922 141.852 37.2188 141.867 37.4219L141.75 41.2891C141.75 42.7422 141.82 43.8281 141.961 44.5469C143.367 43.6094 144.82 43.1406 146.32 43.1406C146.805 43.1406 147.32 43.1797 147.867 43.2578C149.039 43.8672 149.805 44.5156 150.164 45.2031C150.336 45.5625 150.445 45.9453 150.492 46.3516C150.539 46.7578 150.57 47.2188 150.586 47.7344C150.68 49.5156 150.797 50.8281 150.938 51.6719ZM156.586 50.3594C157.961 50.3594 160.031 49.7344 162.797 48.4844C162.969 48.4844 163.109 48.5469 163.219 48.6719C163.328 48.7812 163.383 48.9141 163.383 49.0703C162.758 50.1328 161.562 50.9609 159.797 51.5547C158.031 52.1484 156.383 52.25 154.852 51.8594C153.117 51.4062 152.062 50.4297 151.688 48.9297C151.656 48.6328 151.641 48.2344 151.641 47.7344C151.641 47.2344 151.766 46.5781 152.016 45.7656C152.281 44.9375 152.727 44.1562 153.352 43.4219C153.977 42.6875 154.711 42.1094 155.555 41.6875C156.398 41.2656 157.297 41.0547 158.25 41.0547C159.156 41.0547 160.172 41.3672 161.297 41.9922C161.828 42.2891 162.25 42.625 162.562 43C162.875 43.375 163.031 43.7578 163.031 44.1484C163.031 44.2578 163.023 44.3672 163.008 44.4766C162.977 45.4297 162.516 46.0312 161.625 46.2812C161.234 46.3906 160.781 46.4453 160.266 46.4453L156.891 46.3047C155.766 46.3047 154.906 46.5469 154.312 47.0312C153.969 47.2969 153.727 47.6953 153.586 48.2266C153.977 49.6484 154.977 50.3594 156.586 50.3594ZM160.758 43.1172C160.414 42.8672 160.055 42.6875 159.68 42.5781C159.305 42.4688 158.992 42.4141 158.742 42.4141C158.492 42.4141 158.086 42.5 157.523 42.6719C156.961 42.8281 156.461 43.0078 156.023 43.2109C154.945 43.7109 154.406 44.2344 154.406 44.7812C155.656 44.8906 156.594 44.9453 157.219 44.9453C158.953 44.9453 160.125 44.7969 160.734 44.5C161.109 44.3438 161.297 44.1484 161.297 43.9141C161.297 43.6328 161.117 43.3672 160.758 43.1172ZM173.93 46.8672C173.93 45.0078 173.828 43.6406 173.625 42.7656C173.75 42.5312 173.562 42.4141 173.062 42.4141C172.531 42.4141 171.844 42.5469 171 42.8125C170.156 43.0781 169.469 43.3438 168.938 43.6094C167.672 44.2188 166.969 44.8125 166.828 45.3906V51.7656H165.258C165.055 51.2344 164.953 49.7422 164.953 47.2891C164.953 45.1016 164.992 43.4922 165.07 42.4609C165.164 41.4297 165.234 40.8438 165.281 40.7031C165.688 40.4375 166.016 40.3047 166.266 40.3047C166.656 40.3047 166.852 40.7656 166.852 41.6875C166.852 42.0469 166.828 42.3984 166.781 42.7422C166.75 43.0703 166.734 43.2969 166.734 43.4219C169.266 41.5625 171.227 40.6328 172.617 40.6328C174.195 40.6328 175.094 41.9062 175.312 44.4531C175.406 45.3438 175.453 46.5781 175.453 48.1562L175.43 50.0078C175.43 50.6953 175.445 51.3594 175.477 52C175.32 52.0938 175.195 52.1406 175.102 52.1406C175.055 52.125 174.953 52.1016 174.797 52.0703C174.641 52.0391 174.438 52.0156 174.188 52C174.031 51.375 173.945 50.7422 173.93 50.1016C173.914 49.4453 173.906 48.8438 173.906 48.2969L173.93 46.8672ZM177.633 50.4297C178.289 50.4297 178.688 50.4922 178.828 50.6172C178.984 50.7422 179.062 50.875 179.062 51.0156C178.891 51.6406 178.516 52.0156 177.938 52.1406C177.844 52.1562 177.742 52.1641 177.633 52.1641C177.523 52.1641 177.383 52.1328 177.211 52.0703C177.055 52.0078 176.938 51.8984 176.859 51.7422C176.688 51.3516 176.945 50.9141 177.633 50.4297ZM178.734 30.8828C178.641 31.2891 178.594 33.8281 178.594 38.5C178.594 43.1562 178.477 45.8359 178.242 46.5391H176.672C176.672 44.9297 176.734 42.9141 176.859 40.4922C177.078 35.7891 177.188 32.6172 177.188 30.9766L178.734 30.8828Z" fill="black"/>
</svg>
