<svg width="602" height="143" viewBox="0 0 602 143" fill="none" xmlns="http://www.w3.org/2000/svg">
<path d="M9.77344 29.6328C9.39844 29.6328 9 29.5156 8.57812 29.2812C7.75781 28.7891 7.42969 28.3555 7.59375 27.9805C7.875 27.4883 8.23828 26.5039 8.68359 25.0273L9.63281 21.8633C9.96094 20.8555 10.2891 19.7422 10.6172 18.5234L1.23047 8.96094C1.06641 8.75 0.984375 8.5625 0.984375 8.39844C0.984375 8.23438 1.07812 8.10547 1.26562 8.01172C1.57031 7.87109 1.93359 7.80078 2.35547 7.80078C2.80078 7.80078 3.24609 7.87109 3.69141 8.01172C4.16016 8.15234 4.73438 8.50391 5.41406 9.06641C6.75 10.1914 8.94141 12.5703 11.9883 16.2031C13.3711 12.1719 14.3672 9.58203 14.9766 8.43359C15.5859 7.26172 16.0664 6.51172 16.418 6.18359C16.793 5.83203 17.1211 5.64453 17.4023 5.62109C17.707 5.59766 17.9648 5.60937 18.1758 5.65625C18.3867 5.70313 18.5391 5.86719 18.6328 6.14844C17.9062 7.69531 17.2031 9.45312 16.5234 11.4219C15.8672 13.3672 15.1875 15.3828 14.4844 17.4688C12.6328 23 11.0625 27.0547 9.77344 29.6328ZM21.0586 22.3203C21.0586 19.5547 22.2539 17.3281 24.6445 15.6406C26.543 14.3047 28.8281 13.4961 31.5 13.2148C31.6406 13.2148 31.9688 13.2148 32.4844 13.2148C33 13.2148 33.6914 13.3672 34.5586 13.6719C36.4805 14.3281 37.793 15.4883 38.4961 17.1523C38.7773 17.8086 38.918 18.3711 38.918 18.8398C38.918 19.2852 38.9062 19.6016 38.8828 19.7891C38.8828 22.7188 37.7695 25.0273 35.543 26.7148C33.4805 28.2617 30.9023 29.0352 27.8086 29.0352C25.582 29.0352 23.8945 28.5195 22.7461 27.4883C21.6211 26.457 21.0586 24.7344 21.0586 22.3203ZM23.4844 23.1641C23.4844 24.6172 23.8711 25.6016 24.6445 26.1172C25.2305 26.4922 26.2148 26.6797 27.5977 26.6797C28.9805 26.6797 30.1992 26.5742 31.2539 26.3633C32.3086 26.1523 33.2461 25.7891 34.0664 25.2734C35.8242 24.1484 36.7031 22.4023 36.7031 20.0352C36.7031 18.6289 36.3281 17.4805 35.5781 16.5898C34.7578 15.6289 33.6797 15.1484 32.3438 15.1484C31.4297 15.3125 30.5039 15.4883 29.5664 15.6758C28.6523 15.8633 27.7852 16.2266 26.9648 16.7656C25.1836 17.9141 24.0234 20.0469 23.4844 23.1641ZM40.2539 24.3242C40.2539 23.9492 40.2188 23.4336 40.1484 22.7773C40.1016 22.0977 40.0547 21.3594 40.0078 20.5625C39.9609 19.7656 39.9375 18.957 39.9375 18.1367C39.9375 17.3164 40.0078 16.5664 40.1484 15.8867C40.4531 14.3633 41.0859 13.6016 42.0469 13.6016C42.7031 13.7891 43.1367 14.0234 43.3477 14.3047C43.582 14.5859 43.6992 14.9375 43.6992 15.3594C43.6992 15.7578 43.5938 16.2617 43.3828 16.8711C42.6094 18.9102 42.2227 20.75 42.2227 22.3906C42.2227 22.9297 42.2578 23.5039 42.3281 24.1133C42.7031 25.6836 43.9922 26.4688 46.1953 26.4688C47.3438 26.4688 48.4336 26.2695 49.4648 25.8711C51.4336 25.1445 52.7695 24.2891 53.4727 23.3047C53.6836 22.2266 53.7891 21.2891 53.7891 20.4922C53.7891 19.6719 53.7539 18.9453 53.6836 18.3125C53.6367 17.6797 53.5664 16.9883 53.4727 16.2383C53.4023 15.4648 53.3555 14.6211 53.332 13.707C53.6367 13.5664 53.9297 13.4961 54.2109 13.4961C54.5156 13.4961 54.8203 13.6484 55.125 13.9531C55.4531 14.2578 55.7227 14.832 55.9336 15.6758C56.168 16.5195 56.3203 17.5156 56.3906 18.6641C56.4609 19.7891 56.4961 20.9609 56.4961 22.1797C56.5195 23.3984 56.5312 24.582 56.5312 25.7305C56.5312 26.8555 56.5781 27.8281 56.6719 28.6484C56.3906 28.9062 56.1211 29.0352 55.8633 29.0352C54.9258 29.0352 54.2344 28.0977 53.7891 26.2227C53.4844 26.4805 52.9688 26.7969 52.2422 27.1719C50.6953 28.0156 48.8672 28.5781 46.7578 28.8594C46.3594 28.9062 45.9141 28.9297 45.4219 28.9297C44.9297 28.9297 44.3086 28.8359 43.5586 28.6484C42.832 28.4609 42.1406 28.0273 41.4844 27.3477C40.8281 26.668 40.418 25.6602 40.2539 24.3242ZM89.7539 0.769531C89.7539 3.01953 89.6836 5.22266 89.543 7.37891C89.4258 9.51172 89.3086 11.6094 89.1914 13.6719C89.0977 15.7109 89.0508 17.8906 89.0508 20.2109C89.0508 22.5078 89.2148 24.9453 89.543 27.5234C89.543 28.0625 89.4375 28.4492 89.2266 28.6836C89.0391 28.918 88.7109 29.0352 88.2422 29.0352C87.1406 29.0352 86.5898 28.1211 86.5898 26.293V25.1328C83.2617 27.6172 80.4492 28.8594 78.1523 28.8594C77.2383 28.8594 76.3008 28.6367 75.3398 28.1914C74.4023 27.7461 73.5117 26.8438 72.668 25.4844C72.5508 24.9219 72.4922 24.3477 72.4922 23.7617C72.4922 23.1758 72.5977 22.4727 72.8086 21.6523C73.043 20.8086 73.5 19.9414 74.1797 19.0508C74.8828 18.1602 75.7266 17.375 76.7109 16.6953C78.8672 15.2422 81.1992 14.5156 83.707 14.5156C84.7852 14.5156 85.8164 14.6797 86.8008 15.0078C86.8008 14.5859 86.8242 13.8477 86.8711 12.793C86.9414 11.7383 87.0117 10.625 87.082 9.45312C87.2227 6.40625 87.3164 4.61328 87.3633 4.07422C87.4102 3.51172 87.4688 3.04297 87.5391 2.66797C87.6328 2.26953 87.7617 1.92969 87.9258 1.64844C88.2773 1.0625 88.8867 0.769531 89.7539 0.769531ZM75.0586 23.4805C75.0586 25.332 75.7266 26.2578 77.0625 26.2578C77.2734 26.2578 77.5078 26.2344 77.7656 26.1875C78.7266 26.1875 79.9102 25.9062 81.3164 25.3438C83.9883 24.2891 85.6172 23.375 86.2031 22.6016V17.9258C86.2031 17.1055 85.5352 16.6953 84.1992 16.6953C84.0352 16.6719 83.8125 16.6602 83.5312 16.6602C83.2734 16.6602 82.8633 16.7188 82.3008 16.8359C81.7383 16.9531 81.1055 17.1641 80.4023 17.4688C79.6992 17.7734 79.0078 18.1484 78.3281 18.5938C76.8984 19.5547 75.9141 20.6797 75.375 21.9688C75.1641 22.4609 75.0586 22.9648 75.0586 23.4805ZM92.4609 22.3203C92.4609 19.5547 93.6562 17.3281 96.0469 15.6406C97.9453 14.3047 100.23 13.4961 102.902 13.2148C103.043 13.2148 103.371 13.2148 103.887 13.2148C104.402 13.2148 105.094 13.3672 105.961 13.6719C107.883 14.3281 109.195 15.4883 109.898 17.1523C110.18 17.8086 110.32 18.3711 110.32 18.8398C110.32 19.2852 110.309 19.6016 110.285 19.7891C110.285 22.7188 109.172 25.0273 106.945 26.7148C104.883 28.2617 102.305 29.0352 99.2109 29.0352C96.9844 29.0352 95.2969 28.5195 94.1484 27.4883C93.0234 26.457 92.4609 24.7344 92.4609 22.3203ZM94.8867 23.1641C94.8867 24.6172 95.2734 25.6016 96.0469 26.1172C96.6328 26.4922 97.6172 26.6797 99 26.6797C100.383 26.6797 101.602 26.5742 102.656 26.3633C103.711 26.1523 104.648 25.7891 105.469 25.2734C107.227 24.1484 108.105 22.4023 108.105 20.0352C108.105 18.6289 107.73 17.4805 106.98 16.5898C106.16 15.6289 105.082 15.1484 103.746 15.1484C102.832 15.3125 101.906 15.4883 100.969 15.6758C100.055 15.8633 99.1875 16.2266 98.3672 16.7656C96.5859 17.9141 95.4258 20.0469 94.8867 23.1641ZM125.543 21.3008C125.543 18.5117 125.391 16.4609 125.086 15.1484C125.273 14.7969 124.992 14.6211 124.242 14.6211C123.445 14.6211 122.414 14.8203 121.148 15.2188C119.883 15.6172 118.852 16.0156 118.055 16.4141C116.156 17.3281 115.102 18.2188 114.891 19.0859V28.6484H112.535C112.23 27.8516 112.078 25.6133 112.078 21.9336C112.078 18.6523 112.137 16.2383 112.254 14.6914C112.395 13.1445 112.5 12.2656 112.57 12.0547C113.18 11.6562 113.672 11.457 114.047 11.457C114.633 11.457 114.926 12.1484 114.926 13.5312C114.926 14.0703 114.891 14.5977 114.82 15.1133C114.773 15.6055 114.75 15.9453 114.75 16.1328C118.547 13.3438 121.488 11.9492 123.574 11.9492C125.941 11.9492 127.289 13.8594 127.617 17.6797C127.758 19.0156 127.828 20.8672 127.828 23.2344L127.793 26.0117C127.793 27.043 127.816 28.0391 127.863 29C127.629 29.1406 127.441 29.2109 127.301 29.2109C127.23 29.1875 127.078 29.1523 126.844 29.1055C126.609 29.0586 126.305 29.0234 125.93 29C125.695 28.0625 125.566 27.1133 125.543 26.1523C125.52 25.168 125.508 24.2656 125.508 23.4453L125.543 21.3008ZM132.539 7.23828C133.102 7.23828 133.383 7.64844 133.383 8.46875C133.383 9.42969 132.984 10.6953 132.188 12.2656C131.953 12.7344 131.73 13.1328 131.52 13.4609L129.832 13.6016L131.801 7.41406C132.082 7.29687 132.328 7.23828 132.539 7.23828ZM140.977 25.625L141.047 20C141.047 19.1094 140.965 18.3477 140.801 17.7148H135.352L135.281 15.2891H140.555V6.21875C140.625 6.00781 140.766 5.79688 140.977 5.58594C141.305 5.25781 141.574 5.09375 141.785 5.09375C142.02 5.09375 142.219 5.11719 142.383 5.16406C142.547 5.21094 142.723 5.375 142.91 5.65625C143.285 7.20312 143.473 9.53516 143.473 12.6523C143.473 13.4258 143.508 14.1875 143.578 14.9375C144.328 14.8438 145.078 14.7969 145.828 14.7969C145.828 14.7969 146.438 14.7969 147.656 14.7969C148.102 14.7969 148.512 14.7734 148.887 14.7266L148.781 17.2578L143.648 17.1172L143.824 29.2461C143.402 29.4336 143.039 29.5273 142.734 29.5273C141.562 29.5273 140.977 28.2266 140.977 25.625ZM181.16 28.5078C180.949 28.9062 180.398 29.1055 179.508 29.1055C178.641 29.1055 178.207 28.7891 178.207 28.1562C178.207 25.3906 178.148 23.4922 178.031 22.4609C177.82 20.1875 177.375 18.9688 176.695 18.8047C175.008 18.4766 173.625 18.3125 172.547 18.3125C171.492 18.3125 170.613 18.6406 169.91 19.2969C169.23 19.9297 168.703 20.9961 168.328 22.4961C167.977 23.9727 167.719 26.0586 167.555 28.7539H164.848C164.895 27.418 164.918 26.1758 164.918 25.0273C164.918 23.8789 164.895 22.5195 164.848 20.9492C164.801 19.3555 164.742 17.6211 164.672 15.7461C164.555 13.5898 164.496 11.7734 164.496 10.2969C164.496 8.79688 164.59 7.42578 164.777 6.18359C165.012 5.73828 165.352 5.51562 165.797 5.51562C166.336 5.51562 166.758 5.71484 167.062 6.11328C167.367 6.48828 167.531 6.82813 167.555 7.13281L167.379 12.9336C167.379 15.1133 167.484 16.7422 167.695 17.8203C169.805 16.4141 171.984 15.7109 174.234 15.7109C174.961 15.7109 175.734 15.7695 176.555 15.8867C178.312 16.8008 179.461 17.7734 180 18.8047C180.258 19.3438 180.422 19.918 180.492 20.5273C180.562 21.1367 180.609 21.8281 180.633 22.6016C180.773 25.2734 180.949 27.2422 181.16 28.5078ZM196.277 23.1641C194.52 25.9297 192.176 27.6406 189.246 28.2969C188.566 28.4375 187.945 28.5078 187.383 28.5078C186.844 28.5078 186.387 28.5078 186.012 28.5078C185.66 28.4844 185.262 28.4258 184.816 28.332C184.371 28.2383 183.961 28.0859 183.586 27.875C182.719 27.3828 182.285 26.6914 182.285 25.8008C182.191 25.3789 182.145 24.9102 182.145 24.3945C182.145 23.8555 182.262 23.1523 182.496 22.2852C182.73 21.418 183.152 20.4805 183.762 19.4727C184.395 18.4648 185.156 17.5391 186.047 16.6953C187.898 14.9141 189.902 13.7656 192.059 13.25C192.691 13.1094 193.266 13.0391 193.781 13.0391C194.32 13.0391 194.801 13.0742 195.223 13.1445C196.582 13.1445 197.496 14.0703 197.965 15.9219C198.27 17.0938 198.445 18.7344 198.492 20.8438C198.562 22.9297 198.621 24.5469 198.668 25.6953C198.738 26.8203 198.891 27.8516 199.125 28.7891H197.051C196.957 28.1562 196.887 27.5938 196.84 27.1016C196.793 26.6094 196.746 26.1523 196.699 25.7305C196.582 24.7461 196.441 23.8906 196.277 23.1641ZM196.137 17.7148C196.137 16.3555 195.469 15.6758 194.133 15.6758C193.969 15.6523 193.805 15.6406 193.641 15.6406C191.93 15.6406 190.125 16.4609 188.227 18.1016C187.336 18.8516 186.574 19.6953 185.941 20.6328C185.004 21.9688 184.535 23.1641 184.535 24.2188C184.535 25.6016 185.332 26.4219 186.926 26.6797C189.035 26.6328 191.051 25.6719 192.973 23.7969C193.793 22.9766 194.473 22.0859 195.012 21.125C195.762 19.8359 196.137 18.6992 196.137 17.7148ZM201.094 15.3945C201.047 15.2773 201.023 15.1484 201.023 15.0078C201.023 14.8438 201.082 14.6328 201.199 14.375C201.316 14.1172 201.48 13.8945 201.691 13.707C201.926 13.5195 202.172 13.4375 202.43 13.4609C202.711 13.4609 202.934 13.625 203.098 13.9531L209.004 24.9219C209.191 24.6406 209.484 24.125 209.883 23.375C210.305 22.6016 210.773 21.7344 211.289 20.7734C211.828 19.8125 212.379 18.8164 212.941 17.7852C213.527 16.7305 214.066 15.7695 214.559 14.9023C215.684 12.9102 216.352 11.9141 216.562 11.9141C217.055 11.9141 217.406 12.1016 217.617 12.4766C217.852 12.8281 217.969 13.0977 217.969 13.2852C217.969 13.4727 217.969 13.6016 217.969 13.6719C216.656 16.5312 215.438 19.168 214.312 21.582C213.211 23.9961 212.473 25.5664 212.098 26.293C211.746 26.9961 211.43 27.5586 211.148 27.9805C210.656 28.707 210.176 29.0703 209.707 29.0703C209.238 29.0703 208.699 28.707 208.09 27.9805C207.48 27.2305 206.789 26.2344 206.016 24.9922C204.656 22.7422 203.016 19.543 201.094 15.3945ZM226.617 26.5391C228.68 26.5391 231.785 25.6016 235.934 23.7266C236.191 23.7266 236.402 23.8203 236.566 24.0078C236.73 24.1719 236.812 24.3711 236.812 24.6055C235.875 26.1992 234.082 27.4414 231.434 28.332C228.785 29.2227 226.312 29.375 224.016 28.7891C221.414 28.1094 219.832 26.6445 219.27 24.3945C219.223 23.9492 219.199 23.3516 219.199 22.6016C219.199 21.8516 219.387 20.8672 219.762 19.6484C220.16 18.4062 220.828 17.2344 221.766 16.1328C222.703 15.0312 223.805 14.1641 225.07 13.5312C226.336 12.8984 227.684 12.582 229.113 12.582C230.473 12.582 231.996 13.0508 233.684 13.9883C234.48 14.4336 235.113 14.9375 235.582 15.5C236.051 16.0625 236.285 16.6367 236.285 17.2227C236.285 17.3867 236.273 17.5508 236.25 17.7148C236.203 19.1445 235.512 20.0469 234.176 20.4219C233.59 20.5859 232.91 20.668 232.137 20.668L227.074 20.457C225.387 20.457 224.098 20.8203 223.207 21.5469C222.691 21.9453 222.328 22.543 222.117 23.3398C222.703 25.4727 224.203 26.5391 226.617 26.5391ZM232.875 15.6758C232.359 15.3008 231.82 15.0312 231.258 14.8672C230.695 14.7031 230.227 14.6211 229.852 14.6211C229.477 14.6211 228.867 14.75 228.023 15.0078C227.18 15.2422 226.43 15.5117 225.773 15.8164C224.156 16.5664 223.348 17.3516 223.348 18.1719C225.223 18.3359 226.629 18.418 227.566 18.418C230.168 18.418 231.926 18.1953 232.84 17.75C233.402 17.5156 233.684 17.2227 233.684 16.8711C233.684 16.4492 233.414 16.0508 232.875 15.6758ZM267.152 23.1641C265.395 25.9297 263.051 27.6406 260.121 28.2969C259.441 28.4375 258.82 28.5078 258.258 28.5078C257.719 28.5078 257.262 28.5078 256.887 28.5078C256.535 28.4844 256.137 28.4258 255.691 28.332C255.246 28.2383 254.836 28.0859 254.461 27.875C253.594 27.3828 253.16 26.6914 253.16 25.8008C253.066 25.3789 253.02 24.9102 253.02 24.3945C253.02 23.8555 253.137 23.1523 253.371 22.2852C253.605 21.418 254.027 20.4805 254.637 19.4727C255.27 18.4648 256.031 17.5391 256.922 16.6953C258.773 14.9141 260.777 13.7656 262.934 13.25C263.566 13.1094 264.141 13.0391 264.656 13.0391C265.195 13.0391 265.676 13.0742 266.098 13.1445C267.457 13.1445 268.371 14.0703 268.84 15.9219C269.145 17.0938 269.32 18.7344 269.367 20.8438C269.438 22.9297 269.496 24.5469 269.543 25.6953C269.613 26.8203 269.766 27.8516 270 28.7891H267.926C267.832 28.1562 267.762 27.5938 267.715 27.1016C267.668 26.6094 267.621 26.1523 267.574 25.7305C267.457 24.7461 267.316 23.8906 267.152 23.1641ZM267.012 17.7148C267.012 16.3555 266.344 15.6758 265.008 15.6758C264.844 15.6523 264.68 15.6406 264.516 15.6406C262.805 15.6406 261 16.4609 259.102 18.1016C258.211 18.8516 257.449 19.6953 256.816 20.6328C255.879 21.9688 255.41 23.1641 255.41 24.2188C255.41 25.6016 256.207 26.4219 257.801 26.6797C259.91 26.6328 261.926 25.6719 263.848 23.7969C264.668 22.9766 265.348 22.0859 265.887 21.125C266.637 19.8359 267.012 18.6992 267.012 17.7148ZM285.363 21.3008C285.363 18.5117 285.211 16.4609 284.906 15.1484C285.094 14.7969 284.812 14.6211 284.062 14.6211C283.266 14.6211 282.234 14.8203 280.969 15.2188C279.703 15.6172 278.672 16.0156 277.875 16.4141C275.977 17.3281 274.922 18.2188 274.711 19.0859V28.6484H272.355C272.051 27.8516 271.898 25.6133 271.898 21.9336C271.898 18.6523 271.957 16.2383 272.074 14.6914C272.215 13.1445 272.32 12.2656 272.391 12.0547C273 11.6562 273.492 11.457 273.867 11.457C274.453 11.457 274.746 12.1484 274.746 13.5312C274.746 14.0703 274.711 14.5977 274.641 15.1133C274.594 15.6055 274.57 15.9453 274.57 16.1328C278.367 13.3438 281.309 11.9492 283.395 11.9492C285.762 11.9492 287.109 13.8594 287.438 17.6797C287.578 19.0156 287.648 20.8672 287.648 23.2344L287.613 26.0117C287.613 27.043 287.637 28.0391 287.684 29C287.449 29.1406 287.262 29.2109 287.121 29.2109C287.051 29.1875 286.898 29.1523 286.664 29.1055C286.43 29.0586 286.125 29.0234 285.75 29C285.516 28.0625 285.387 27.1133 285.363 26.1523C285.34 25.168 285.328 24.2656 285.328 23.4453L285.363 21.3008ZM297.07 42.2539C296.578 43.3555 295.992 43.9062 295.312 43.9062C294.984 43.9062 294.738 43.7539 294.574 43.4492C294.434 43.168 294.434 42.8281 294.574 42.4297C295.09 40.25 295.828 37.7656 296.789 34.9766C297.773 32.1875 298.43 30.3125 298.758 29.3516C297.938 28.5312 296.648 26.8906 294.891 24.4297C291.281 19.3672 289.477 16.5898 289.477 16.0977C289.477 16.0742 289.488 16.0508 289.512 16.0273L290.848 14.6914C292.699 16.4023 295.113 19.3086 298.09 23.4102C298.84 24.4414 299.438 25.3086 299.883 26.0117C300.375 25.0273 300.762 24.1836 301.043 23.4805C301.324 22.7539 301.547 22.1797 301.711 21.7578C301.898 21.3125 302.145 20.7266 302.449 20C303.246 18.0547 304.348 15.582 305.754 12.582C305.965 12.4883 306.188 12.4414 306.422 12.4414C307.008 12.4414 307.43 12.5938 307.688 12.8984C307.781 13.0156 307.828 13.1562 307.828 13.3203C307.828 13.4609 307.805 13.6016 307.758 13.7422L297.07 42.2539ZM323.648 24.3242C323.648 23.9492 323.613 23.4336 323.543 22.7773C323.496 22.0977 323.449 21.3594 323.402 20.5625C323.355 19.7656 323.332 18.957 323.332 18.1367C323.332 17.3164 323.402 16.5664 323.543 15.8867C323.848 14.3633 324.48 13.6016 325.441 13.6016C326.098 13.7891 326.531 14.0234 326.742 14.3047C326.977 14.5859 327.094 14.9375 327.094 15.3594C327.094 15.7578 326.988 16.2617 326.777 16.8711C326.004 18.9102 325.617 20.75 325.617 22.3906C325.617 22.9297 325.652 23.5039 325.723 24.1133C326.098 25.6836 327.387 26.4688 329.59 26.4688C330.738 26.4688 331.828 26.2695 332.859 25.8711C334.828 25.1445 336.164 24.2891 336.867 23.3047C337.078 22.2266 337.184 21.2891 337.184 20.4922C337.184 19.6719 337.148 18.9453 337.078 18.3125C337.031 17.6797 336.961 16.9883 336.867 16.2383C336.797 15.4648 336.75 14.6211 336.727 13.707C337.031 13.5664 337.324 13.4961 337.605 13.4961C337.91 13.4961 338.215 13.6484 338.52 13.9531C338.848 14.2578 339.117 14.832 339.328 15.6758C339.562 16.5195 339.715 17.5156 339.785 18.6641C339.855 19.7891 339.891 20.9609 339.891 22.1797C339.914 23.3984 339.926 24.582 339.926 25.7305C339.926 26.8555 339.973 27.8281 340.066 28.6484C339.785 28.9062 339.516 29.0352 339.258 29.0352C338.32 29.0352 337.629 28.0977 337.184 26.2227C336.879 26.4805 336.363 26.7969 335.637 27.1719C334.09 28.0156 332.262 28.5781 330.152 28.8594C329.754 28.9062 329.309 28.9297 328.816 28.9297C328.324 28.9297 327.703 28.8359 326.953 28.6484C326.227 28.4609 325.535 28.0273 324.879 27.3477C324.223 26.668 323.812 25.6602 323.648 24.3242ZM355.816 21.3008C355.816 18.5117 355.664 16.4609 355.359 15.1484C355.547 14.7969 355.266 14.6211 354.516 14.6211C353.719 14.6211 352.688 14.8203 351.422 15.2188C350.156 15.6172 349.125 16.0156 348.328 16.4141C346.43 17.3281 345.375 18.2188 345.164 19.0859V28.6484H342.809C342.504 27.8516 342.352 25.6133 342.352 21.9336C342.352 18.6523 342.41 16.2383 342.527 14.6914C342.668 13.1445 342.773 12.2656 342.844 12.0547C343.453 11.6562 343.945 11.457 344.32 11.457C344.906 11.457 345.199 12.1484 345.199 13.5312C345.199 14.0703 345.164 14.5977 345.094 15.1133C345.047 15.6055 345.023 15.9453 345.023 16.1328C348.82 13.3438 351.762 11.9492 353.848 11.9492C356.215 11.9492 357.562 13.8594 357.891 17.6797C358.031 19.0156 358.102 20.8672 358.102 23.2344L358.066 26.0117C358.066 27.043 358.09 28.0391 358.137 29C357.902 29.1406 357.715 29.2109 357.574 29.2109C357.504 29.1875 357.352 29.1523 357.117 29.1055C356.883 29.0586 356.578 29.0234 356.203 29C355.969 28.0625 355.84 27.1133 355.816 26.1523C355.793 25.168 355.781 24.2656 355.781 23.4453L355.816 21.3008ZM372.129 19.9297C374.707 19.9297 375.996 20.5859 375.996 21.8984C375.996 22.8828 375.281 24.0312 373.852 25.3438C371.719 27.2891 368.848 28.8477 365.238 30.0195C365.074 30.0195 364.887 29.8555 364.676 29.5273C364.488 29.1992 364.336 28.9531 364.219 28.7891C364.125 28.6016 364.055 28.4844 364.008 28.4375C366.703 27.5469 368.918 26.4688 370.652 25.2031C371.824 24.3594 372.41 23.668 372.41 23.1289C372.41 22.5898 371.719 22.3203 370.336 22.3203C368.953 22.3203 366.926 22.6484 364.254 23.3047C363.035 23.2578 361.98 22.8242 361.09 22.0039C360.316 21.2773 359.93 20.5508 359.93 19.8242C359.93 19.0742 360.141 18.3945 360.562 17.7852C360.984 17.1523 361.547 16.5664 362.25 16.0273C362.953 15.4883 363.773 14.9961 364.711 14.5508C367.008 13.4492 369.387 12.8984 371.848 12.8984C372.574 12.8984 373.277 12.9688 373.957 13.1094C374.52 13.1094 374.848 13.3555 374.941 13.8477C375.035 14.3398 375.082 15.1484 375.082 16.2734C373.699 15.6406 372.141 15.3242 370.406 15.3242C368.25 15.3242 366.469 15.7578 365.062 16.625C363.609 17.4688 362.859 18.5703 362.812 19.9297C362.812 20.5859 363.293 20.9141 364.254 20.9141L366.82 20.6328C369.023 20.1641 370.793 19.9297 372.129 19.9297ZM379.055 22.3203C379.055 19.5547 380.25 17.3281 382.641 15.6406C384.539 14.3047 386.824 13.4961 389.496 13.2148C389.637 13.2148 389.965 13.2148 390.48 13.2148C390.996 13.2148 391.688 13.3672 392.555 13.6719C394.477 14.3281 395.789 15.4883 396.492 17.1523C396.773 17.8086 396.914 18.3711 396.914 18.8398C396.914 19.2852 396.902 19.6016 396.879 19.7891C396.879 22.7188 395.766 25.0273 393.539 26.7148C391.477 28.2617 388.898 29.0352 385.805 29.0352C383.578 29.0352 381.891 28.5195 380.742 27.4883C379.617 26.457 379.055 24.7344 379.055 22.3203ZM381.48 23.1641C381.48 24.6172 381.867 25.6016 382.641 26.1172C383.227 26.4922 384.211 26.6797 385.594 26.6797C386.977 26.6797 388.195 26.5742 389.25 26.3633C390.305 26.1523 391.242 25.7891 392.062 25.2734C393.82 24.1484 394.699 22.4023 394.699 20.0352C394.699 18.6289 394.324 17.4805 393.574 16.5898C392.754 15.6289 391.676 15.1484 390.34 15.1484C389.426 15.3125 388.5 15.4883 387.562 15.6758C386.648 15.8633 385.781 16.2266 384.961 16.7656C383.18 17.9141 382.02 20.0469 381.48 23.1641ZM415.688 16.168C414.703 15.4648 413.438 15.1133 411.891 15.1133C410.438 15.1133 409.09 15.3828 407.848 15.9219C405.504 16.9062 403.898 18.1719 403.031 19.7188C402.656 20.4219 402.469 21.1719 402.469 21.9688C402.469 22.1094 402.469 22.5078 402.469 23.1641C402.469 23.7969 402.586 24.6641 402.82 25.7656C403.055 26.8438 403.172 27.9453 403.172 29.0703C402.68 29.0938 402.281 29.1523 401.977 29.2461C401.672 29.3398 401.414 29.3867 401.203 29.3867C400.992 29.3867 400.805 29.293 400.641 29.1055C400.5 28.918 400.336 28.5547 400.148 28.0156C400.125 27.875 400.078 27.4766 400.008 26.8203C399.938 26.1641 399.844 25.3672 399.727 24.4297C399.633 23.4922 399.516 22.4727 399.375 21.3711C399.258 20.2461 399.141 19.1445 399.023 18.0664C398.766 15.7227 398.566 14 398.426 12.8984C398.426 12.3359 398.836 12.0547 399.656 12.0547C400.148 12.0547 400.535 12.2656 400.816 12.6875C401.098 13.0859 401.32 13.5547 401.484 14.0938C401.648 14.6094 401.754 15.125 401.801 15.6406C401.871 16.1562 401.93 16.5195 401.977 16.7305C405.07 13.9648 408.914 12.582 413.508 12.582C414.023 12.582 414.562 12.5938 415.125 12.6172C415.266 12.5938 415.441 12.582 415.652 12.582C415.863 12.582 416.074 12.7227 416.285 13.0039C416.543 13.332 416.672 13.7305 416.672 14.1992C416.672 15.3711 416.344 16.0273 415.688 16.168ZM423.598 25.625L423.668 20C423.668 19.1094 423.586 18.3477 423.422 17.7148H417.973L417.902 15.2891H423.176V6.21875C423.246 6.00781 423.387 5.79688 423.598 5.58594C423.926 5.25781 424.195 5.09375 424.406 5.09375C424.641 5.09375 424.84 5.11719 425.004 5.16406C425.168 5.21094 425.344 5.375 425.531 5.65625C425.906 7.20312 426.094 9.53516 426.094 12.6523C426.094 13.4258 426.129 14.1875 426.199 14.9375C426.949 14.8438 427.699 14.7969 428.449 14.7969C428.449 14.7969 429.059 14.7969 430.277 14.7969C430.723 14.7969 431.133 14.7734 431.508 14.7266L431.402 17.2578L426.27 17.1172L426.445 29.2461C426.023 29.4336 425.66 29.5273 425.355 29.5273C424.184 29.5273 423.598 28.2266 423.598 25.625ZM440.016 26.5391C442.078 26.5391 445.184 25.6016 449.332 23.7266C449.59 23.7266 449.801 23.8203 449.965 24.0078C450.129 24.1719 450.211 24.3711 450.211 24.6055C449.273 26.1992 447.48 27.4414 444.832 28.332C442.184 29.2227 439.711 29.375 437.414 28.7891C434.812 28.1094 433.23 26.6445 432.668 24.3945C432.621 23.9492 432.598 23.3516 432.598 22.6016C432.598 21.8516 432.785 20.8672 433.16 19.6484C433.559 18.4062 434.227 17.2344 435.164 16.1328C436.102 15.0312 437.203 14.1641 438.469 13.5312C439.734 12.8984 441.082 12.582 442.512 12.582C443.871 12.582 445.395 13.0508 447.082 13.9883C447.879 14.4336 448.512 14.9375 448.98 15.5C449.449 16.0625 449.684 16.6367 449.684 17.2227C449.684 17.3867 449.672 17.5508 449.648 17.7148C449.602 19.1445 448.91 20.0469 447.574 20.4219C446.988 20.5859 446.309 20.668 445.535 20.668L440.473 20.457C438.785 20.457 437.496 20.8203 436.605 21.5469C436.09 21.9453 435.727 22.543 435.516 23.3398C436.102 25.4727 437.602 26.5391 440.016 26.5391ZM446.273 15.6758C445.758 15.3008 445.219 15.0312 444.656 14.8672C444.094 14.7031 443.625 14.6211 443.25 14.6211C442.875 14.6211 442.266 14.75 441.422 15.0078C440.578 15.2422 439.828 15.5117 439.172 15.8164C437.555 16.5664 436.746 17.3516 436.746 18.1719C438.621 18.3359 440.027 18.418 440.965 18.418C443.566 18.418 445.324 18.1953 446.238 17.75C446.801 17.5156 447.082 17.2227 447.082 16.8711C447.082 16.4492 446.812 16.0508 446.273 15.6758ZM468.949 0.769531C468.949 3.01953 468.879 5.22266 468.738 7.37891C468.621 9.51172 468.504 11.6094 468.387 13.6719C468.293 15.7109 468.246 17.8906 468.246 20.2109C468.246 22.5078 468.41 24.9453 468.738 27.5234C468.738 28.0625 468.633 28.4492 468.422 28.6836C468.234 28.918 467.906 29.0352 467.438 29.0352C466.336 29.0352 465.785 28.1211 465.785 26.293V25.1328C462.457 27.6172 459.645 28.8594 457.348 28.8594C456.434 28.8594 455.496 28.6367 454.535 28.1914C453.598 27.7461 452.707 26.8438 451.863 25.4844C451.746 24.9219 451.688 24.3477 451.688 23.7617C451.688 23.1758 451.793 22.4727 452.004 21.6523C452.238 20.8086 452.695 19.9414 453.375 19.0508C454.078 18.1602 454.922 17.375 455.906 16.6953C458.062 15.2422 460.395 14.5156 462.902 14.5156C463.98 14.5156 465.012 14.6797 465.996 15.0078C465.996 14.5859 466.02 13.8477 466.066 12.793C466.137 11.7383 466.207 10.625 466.277 9.45312C466.418 6.40625 466.512 4.61328 466.559 4.07422C466.605 3.51172 466.664 3.04297 466.734 2.66797C466.828 2.26953 466.957 1.92969 467.121 1.64844C467.473 1.0625 468.082 0.769531 468.949 0.769531ZM454.254 23.4805C454.254 25.332 454.922 26.2578 456.258 26.2578C456.469 26.2578 456.703 26.2344 456.961 26.1875C457.922 26.1875 459.105 25.9062 460.512 25.3438C463.184 24.2891 464.812 23.375 465.398 22.6016V17.9258C465.398 17.1055 464.73 16.6953 463.395 16.6953C463.23 16.6719 463.008 16.6602 462.727 16.6602C462.469 16.6602 462.059 16.7188 461.496 16.8359C460.934 16.9531 460.301 17.1641 459.598 17.4688C458.895 17.7734 458.203 18.1484 457.523 18.5938C456.094 19.5547 455.109 20.6797 454.57 21.9688C454.359 22.4609 454.254 22.9648 454.254 23.4805ZM499.395 25.3086C500.355 24.9102 501.293 24.5469 502.207 24.2188C503.121 23.8906 503.988 23.7266 504.809 23.7266C505.652 23.7266 506.074 23.9844 506.074 24.5C506.074 24.6172 506.039 24.8047 505.969 25.0625C505.922 25.2969 505.605 25.5898 505.02 25.9414C504.457 26.2695 503.754 26.5859 502.91 26.8906C502.09 27.1953 501.188 27.4766 500.203 27.7344C499.219 27.9922 498.258 28.2148 497.32 28.4023C495.375 28.8008 493.992 29 493.172 29C492.352 29 491.461 28.9062 490.5 28.7188C489.562 28.5312 488.684 28.2266 487.863 27.8047C485.965 26.8203 485.016 25.3672 485.016 23.4453C485.016 23.3047 485.016 23.0234 485.016 22.6016C485.016 22.1797 485.191 21.582 485.543 20.8086C485.895 20.0117 486.422 19.2266 487.125 18.4531C487.828 17.6562 488.648 16.9297 489.586 16.2734C491.555 14.8672 493.617 13.9531 495.773 13.5312C496.523 13.3672 497.145 13.2852 497.637 13.2852C498.152 13.2852 498.574 13.2969 498.902 13.3203C499.23 13.3203 499.57 13.3438 499.922 13.3906C500.273 13.4141 500.578 13.4961 500.836 13.6367C501.445 13.9414 501.75 14.5391 501.75 15.4297C501.75 15.9922 501.352 16.543 500.555 17.082C500.344 17.2227 500.156 17.3516 499.992 17.4688C499.875 16.9297 499.723 16.4727 499.535 16.0977C499.348 15.7227 498.938 15.5352 498.305 15.5352C495.539 16.1211 493.16 17 491.168 18.1719C488.918 19.5078 487.793 20.9141 487.793 22.3906C487.793 22.5547 487.805 22.7305 487.828 22.918C487.828 24.418 488.402 25.4844 489.551 26.1172C490.418 26.5859 491.531 26.8203 492.891 26.8203C494.273 26.8203 495.469 26.668 496.477 26.3633C497.484 26.0352 498.457 25.6836 499.395 25.3086ZM521.789 23.1641C520.031 25.9297 517.688 27.6406 514.758 28.2969C514.078 28.4375 513.457 28.5078 512.895 28.5078C512.355 28.5078 511.898 28.5078 511.523 28.5078C511.172 28.4844 510.773 28.4258 510.328 28.332C509.883 28.2383 509.473 28.0859 509.098 27.875C508.23 27.3828 507.797 26.6914 507.797 25.8008C507.703 25.3789 507.656 24.9102 507.656 24.3945C507.656 23.8555 507.773 23.1523 508.008 22.2852C508.242 21.418 508.664 20.4805 509.273 19.4727C509.906 18.4648 510.668 17.5391 511.559 16.6953C513.41 14.9141 515.414 13.7656 517.57 13.25C518.203 13.1094 518.777 13.0391 519.293 13.0391C519.832 13.0391 520.312 13.0742 520.734 13.1445C522.094 13.1445 523.008 14.0703 523.477 15.9219C523.781 17.0938 523.957 18.7344 524.004 20.8438C524.074 22.9297 524.133 24.5469 524.18 25.6953C524.25 26.8203 524.402 27.8516 524.637 28.7891H522.562C522.469 28.1562 522.398 27.5938 522.352 27.1016C522.305 26.6094 522.258 26.1523 522.211 25.7305C522.094 24.7461 521.953 23.8906 521.789 23.1641ZM521.648 17.7148C521.648 16.3555 520.98 15.6758 519.645 15.6758C519.48 15.6523 519.316 15.6406 519.152 15.6406C517.441 15.6406 515.637 16.4609 513.738 18.1016C512.848 18.8516 512.086 19.6953 511.453 20.6328C510.516 21.9688 510.047 23.1641 510.047 24.2188C510.047 25.6016 510.844 26.4219 512.438 26.6797C514.547 26.6328 516.562 25.6719 518.484 23.7969C519.305 22.9766 519.984 22.0859 520.523 21.125C521.273 19.8359 521.648 18.6992 521.648 17.7148ZM543.551 16.168C542.566 15.4648 541.301 15.1133 539.754 15.1133C538.301 15.1133 536.953 15.3828 535.711 15.9219C533.367 16.9062 531.762 18.1719 530.895 19.7188C530.52 20.4219 530.332 21.1719 530.332 21.9688C530.332 22.1094 530.332 22.5078 530.332 23.1641C530.332 23.7969 530.449 24.6641 530.684 25.7656C530.918 26.8438 531.035 27.9453 531.035 29.0703C530.543 29.0938 530.145 29.1523 529.84 29.2461C529.535 29.3398 529.277 29.3867 529.066 29.3867C528.855 29.3867 528.668 29.293 528.504 29.1055C528.363 28.918 528.199 28.5547 528.012 28.0156C527.988 27.875 527.941 27.4766 527.871 26.8203C527.801 26.1641 527.707 25.3672 527.59 24.4297C527.496 23.4922 527.379 22.4727 527.238 21.3711C527.121 20.2461 527.004 19.1445 526.887 18.0664C526.629 15.7227 526.43 14 526.289 12.8984C526.289 12.3359 526.699 12.0547 527.52 12.0547C528.012 12.0547 528.398 12.2656 528.68 12.6875C528.961 13.0859 529.184 13.5547 529.348 14.0938C529.512 14.6094 529.617 15.125 529.664 15.6406C529.734 16.1562 529.793 16.5195 529.84 16.7305C532.934 13.9648 536.777 12.582 541.371 12.582C541.887 12.582 542.426 12.5938 542.988 12.6172C543.129 12.5938 543.305 12.582 543.516 12.582C543.727 12.582 543.938 12.7227 544.148 13.0039C544.406 13.332 544.535 13.7305 544.535 14.1992C544.535 15.3711 544.207 16.0273 543.551 16.168ZM562.781 0.769531C562.781 3.01953 562.711 5.22266 562.57 7.37891C562.453 9.51172 562.336 11.6094 562.219 13.6719C562.125 15.7109 562.078 17.8906 562.078 20.2109C562.078 22.5078 562.242 24.9453 562.57 27.5234C562.57 28.0625 562.465 28.4492 562.254 28.6836C562.066 28.918 561.738 29.0352 561.27 29.0352C560.168 29.0352 559.617 28.1211 559.617 26.293V25.1328C556.289 27.6172 553.477 28.8594 551.18 28.8594C550.266 28.8594 549.328 28.6367 548.367 28.1914C547.43 27.7461 546.539 26.8438 545.695 25.4844C545.578 24.9219 545.52 24.3477 545.52 23.7617C545.52 23.1758 545.625 22.4727 545.836 21.6523C546.07 20.8086 546.527 19.9414 547.207 19.0508C547.91 18.1602 548.754 17.375 549.738 16.6953C551.895 15.2422 554.227 14.5156 556.734 14.5156C557.812 14.5156 558.844 14.6797 559.828 15.0078C559.828 14.5859 559.852 13.8477 559.898 12.793C559.969 11.7383 560.039 10.625 560.109 9.45312C560.25 6.40625 560.344 4.61328 560.391 4.07422C560.438 3.51172 560.496 3.04297 560.566 2.66797C560.66 2.26953 560.789 1.92969 560.953 1.64844C561.305 1.0625 561.914 0.769531 562.781 0.769531ZM548.086 23.4805C548.086 25.332 548.754 26.2578 550.09 26.2578C550.301 26.2578 550.535 26.2344 550.793 26.1875C551.754 26.1875 552.938 25.9062 554.344 25.3438C557.016 24.2891 558.645 23.375 559.23 22.6016V17.9258C559.23 17.1055 558.562 16.6953 557.227 16.6953C557.062 16.6719 556.84 16.6602 556.559 16.6602C556.301 16.6602 555.891 16.7188 555.328 16.8359C554.766 16.9531 554.133 17.1641 553.43 17.4688C552.727 17.7734 552.035 18.1484 551.355 18.5938C549.926 19.5547 548.941 20.6797 548.402 21.9688C548.191 22.4609 548.086 22.9648 548.086 23.4805ZM576.633 19.9297C579.211 19.9297 580.5 20.5859 580.5 21.8984C580.5 22.8828 579.785 24.0312 578.355 25.3438C576.223 27.2891 573.352 28.8477 569.742 30.0195C569.578 30.0195 569.391 29.8555 569.18 29.5273C568.992 29.1992 568.84 28.9531 568.723 28.7891C568.629 28.6016 568.559 28.4844 568.512 28.4375C571.207 27.5469 573.422 26.4688 575.156 25.2031C576.328 24.3594 576.914 23.668 576.914 23.1289C576.914 22.5898 576.223 22.3203 574.84 22.3203C573.457 22.3203 571.43 22.6484 568.758 23.3047C567.539 23.2578 566.484 22.8242 565.594 22.0039C564.82 21.2773 564.434 20.5508 564.434 19.8242C564.434 19.0742 564.645 18.3945 565.066 17.7852C565.488 17.1523 566.051 16.5664 566.754 16.0273C567.457 15.4883 568.277 14.9961 569.215 14.5508C571.512 13.4492 573.891 12.8984 576.352 12.8984C577.078 12.8984 577.781 12.9688 578.461 13.1094C579.023 13.1094 579.352 13.3555 579.445 13.8477C579.539 14.3398 579.586 15.1484 579.586 16.2734C578.203 15.6406 576.645 15.3242 574.91 15.3242C572.754 15.3242 570.973 15.7578 569.566 16.625C568.113 17.4688 567.363 18.5703 567.316 19.9297C567.316 20.5859 567.797 20.9141 568.758 20.9141L571.324 20.6328C573.527 20.1641 575.297 19.9297 576.633 19.9297ZM12.9727 69.9297C15.5508 69.9297 16.8398 70.5859 16.8398 71.8984C16.8398 72.8828 16.125 74.0312 14.6953 75.3438C12.5625 77.2891 9.69141 78.8477 6.08203 80.0195C5.91797 80.0195 5.73047 79.8555 5.51953 79.5273C5.33203 79.1992 5.17969 78.9531 5.0625 78.7891C4.96875 78.6016 4.89844 78.4844 4.85156 78.4375C7.54688 77.5469 9.76172 76.4688 11.4961 75.2031C12.668 74.3594 13.2539 73.668 13.2539 73.1289C13.2539 72.5898 12.5625 72.3203 11.1797 72.3203C9.79688 72.3203 7.76953 72.6484 5.09766 73.3047C3.87891 73.2578 2.82422 72.8242 1.93359 72.0039C1.16016 71.2773 0.773438 70.5508 0.773438 69.8242C0.773438 69.0742 0.984375 68.3945 1.40625 67.7852C1.82812 67.1523 2.39062 66.5664 3.09375 66.0273C3.79688 65.4883 4.61719 64.9961 5.55469 64.5508C7.85156 63.4492 10.2305 62.8984 12.6914 62.8984C13.418 62.8984 14.1211 62.9688 14.8008 63.1094C15.3633 63.1094 15.6914 63.3555 15.7852 63.8477C15.8789 64.3398 15.9258 65.1484 15.9258 66.2734C14.543 65.6406 12.9844 65.3242 11.25 65.3242C9.09375 65.3242 7.3125 65.7578 5.90625 66.625C4.45312 67.4688 3.70312 68.5703 3.65625 69.9297C3.65625 70.5859 4.13672 70.9141 5.09766 70.9141L7.66406 70.6328C9.86719 70.1641 11.6367 69.9297 12.9727 69.9297ZM32.8359 73.1641C31.0781 75.9297 28.7344 77.6406 25.8047 78.2969C25.125 78.4375 24.5039 78.5078 23.9414 78.5078C23.4023 78.5078 22.9453 78.5078 22.5703 78.5078C22.2188 78.4844 21.8203 78.4258 21.375 78.332C20.9297 78.2383 20.5195 78.0859 20.1445 77.875C19.2773 77.3828 18.8438 76.6914 18.8438 75.8008C18.75 75.3789 18.7031 74.9102 18.7031 74.3945C18.7031 73.8555 18.8203 73.1523 19.0547 72.2852C19.2891 71.418 19.7109 70.4805 20.3203 69.4727C20.9531 68.4648 21.7148 67.5391 22.6055 66.6953C24.457 64.9141 26.4609 63.7656 28.6172 63.25C29.25 63.1094 29.8242 63.0391 30.3398 63.0391C30.8789 63.0391 31.3594 63.0742 31.7812 63.1445C33.1406 63.1445 34.0547 64.0703 34.5234 65.9219C34.8281 67.0938 35.0039 68.7344 35.0508 70.8438C35.1211 72.9297 35.1797 74.5469 35.2266 75.6953C35.2969 76.8203 35.4492 77.8516 35.6836 78.7891H33.6094C33.5156 78.1562 33.4453 77.5938 33.3984 77.1016C33.3516 76.6094 33.3047 76.1523 33.2578 75.7305C33.1406 74.7461 33 73.8906 32.8359 73.1641ZM32.6953 67.7148C32.6953 66.3555 32.0273 65.6758 30.6914 65.6758C30.5273 65.6523 30.3633 65.6406 30.1992 65.6406C28.4883 65.6406 26.6836 66.4609 24.7852 68.1016C23.8945 68.8516 23.1328 69.6953 22.5 70.6328C21.5625 71.9688 21.0938 73.1641 21.0938 74.2188C21.0938 75.6016 21.8906 76.4219 23.4844 76.6797C25.5938 76.6328 27.6094 75.6719 29.5312 73.7969C30.3516 72.9766 31.0312 72.0859 31.5703 71.125C32.3203 69.8359 32.6953 68.6992 32.6953 67.7148ZM37.6523 65.3945C37.6055 65.2773 37.582 65.1484 37.582 65.0078C37.582 64.8438 37.6406 64.6328 37.7578 64.375C37.875 64.1172 38.0391 63.8945 38.25 63.707C38.4844 63.5195 38.7305 63.4375 38.9883 63.4609C39.2695 63.4609 39.4922 63.625 39.6562 63.9531L45.5625 74.9219C45.75 74.6406 46.043 74.125 46.4414 73.375C46.8633 72.6016 47.332 71.7344 47.8477 70.7734C48.3867 69.8125 48.9375 68.8164 49.5 67.7852C50.0859 66.7305 50.625 65.7695 51.1172 64.9023C52.2422 62.9102 52.9102 61.9141 53.1211 61.9141C53.6133 61.9141 53.9648 62.1016 54.1758 62.4766C54.4102 62.8281 54.5273 63.0977 54.5273 63.2852C54.5273 63.4727 54.5273 63.6016 54.5273 63.6719C53.2148 66.5312 51.9961 69.168 50.8711 71.582C49.7695 73.9961 49.0312 75.5664 48.6562 76.293C48.3047 76.9961 47.9883 77.5586 47.707 77.9805C47.2148 78.707 46.7344 79.0703 46.2656 79.0703C45.7969 79.0703 45.2578 78.707 44.6484 77.9805C44.0391 77.2305 43.3477 76.2344 42.5742 74.9922C41.2148 72.7422 39.5742 69.543 37.6523 65.3945ZM63.1758 76.5391C65.2383 76.5391 68.3438 75.6016 72.4922 73.7266C72.75 73.7266 72.9609 73.8203 73.125 74.0078C73.2891 74.1719 73.3711 74.3711 73.3711 74.6055C72.4336 76.1992 70.6406 77.4414 67.9922 78.332C65.3438 79.2227 62.8711 79.375 60.5742 78.7891C57.9727 78.1094 56.3906 76.6445 55.8281 74.3945C55.7812 73.9492 55.7578 73.3516 55.7578 72.6016C55.7578 71.8516 55.9453 70.8672 56.3203 69.6484C56.7188 68.4062 57.3867 67.2344 58.3242 66.1328C59.2617 65.0312 60.3633 64.1641 61.6289 63.5312C62.8945 62.8984 64.2422 62.582 65.6719 62.582C67.0312 62.582 68.5547 63.0508 70.2422 63.9883C71.0391 64.4336 71.6719 64.9375 72.1406 65.5C72.6094 66.0625 72.8438 66.6367 72.8438 67.2227C72.8438 67.3867 72.832 67.5508 72.8086 67.7148C72.7617 69.1445 72.0703 70.0469 70.7344 70.4219C70.1484 70.5859 69.4688 70.668 68.6953 70.668L63.6328 70.457C61.9453 70.457 60.6562 70.8203 59.7656 71.5469C59.25 71.9453 58.8867 72.543 58.6758 73.3398C59.2617 75.4727 60.7617 76.5391 63.1758 76.5391ZM69.4336 65.6758C68.918 65.3008 68.3789 65.0312 67.8164 64.8672C67.2539 64.7031 66.7852 64.6211 66.4102 64.6211C66.0352 64.6211 65.4258 64.75 64.582 65.0078C63.7383 65.2422 62.9883 65.5117 62.332 65.8164C60.7148 66.5664 59.9062 67.3516 59.9062 68.1719C61.7812 68.3359 63.1875 68.418 64.125 68.418C66.7266 68.418 68.4844 68.1953 69.3984 67.75C69.9609 67.5156 70.2422 67.2227 70.2422 66.8711C70.2422 66.4492 69.9727 66.0508 69.4336 65.6758ZM92.1094 50.7695C92.1094 53.0195 92.0391 55.2227 91.8984 57.3789C91.7812 59.5117 91.6641 61.6094 91.5469 63.6719C91.4531 65.7109 91.4062 67.8906 91.4062 70.2109C91.4062 72.5078 91.5703 74.9453 91.8984 77.5234C91.8984 78.0625 91.793 78.4492 91.582 78.6836C91.3945 78.918 91.0664 79.0352 90.5977 79.0352C89.4961 79.0352 88.9453 78.1211 88.9453 76.293V75.1328C85.6172 77.6172 82.8047 78.8594 80.5078 78.8594C79.5938 78.8594 78.6562 78.6367 77.6953 78.1914C76.7578 77.7461 75.8672 76.8438 75.0234 75.4844C74.9062 74.9219 74.8477 74.3477 74.8477 73.7617C74.8477 73.1758 74.9531 72.4727 75.1641 71.6523C75.3984 70.8086 75.8555 69.9414 76.5352 69.0508C77.2383 68.1602 78.082 67.375 79.0664 66.6953C81.2227 65.2422 83.5547 64.5156 86.0625 64.5156C87.1406 64.5156 88.1719 64.6797 89.1562 65.0078C89.1562 64.5859 89.1797 63.8477 89.2266 62.793C89.2969 61.7383 89.3672 60.625 89.4375 59.4531C89.5781 56.4062 89.6719 54.6133 89.7188 54.0742C89.7656 53.5117 89.8242 53.043 89.8945 52.668C89.9883 52.2695 90.1172 51.9297 90.2812 51.6484C90.6328 51.0625 91.2422 50.7695 92.1094 50.7695ZM77.4141 73.4805C77.4141 75.332 78.082 76.2578 79.418 76.2578C79.6289 76.2578 79.8633 76.2344 80.1211 76.1875C81.082 76.1875 82.2656 75.9062 83.6719 75.3438C86.3438 74.2891 87.9727 73.375 88.5586 72.6016V67.9258C88.5586 67.1055 87.8906 66.6953 86.5547 66.6953C86.3906 66.6719 86.168 66.6602 85.8867 66.6602C85.6289 66.6602 85.2188 66.7188 84.6562 66.8359C84.0938 66.9531 83.4609 67.1641 82.7578 67.4688C82.0547 67.7734 81.3633 68.1484 80.6836 68.5938C79.2539 69.5547 78.2695 70.6797 77.7305 71.9688C77.5195 72.4609 77.4141 72.9648 77.4141 73.4805ZM94.6055 79.0352C94.0664 78.9883 93.7969 78.7539 93.7969 78.332C93.7969 77.8164 94.0898 77.3359 94.6758 76.8906C94.9102 76.7266 95.0859 76.6445 95.2031 76.6445C95.3438 76.6445 95.4492 76.6562 95.5195 76.6797C96.0117 76.6797 96.3398 76.7852 96.5039 76.9961C96.6914 77.1836 96.7852 77.4414 96.7852 77.7695C96.7852 78.0977 96.7148 78.3438 96.5742 78.5078C96.4336 78.6719 96.2578 78.7891 96.0469 78.8594C95.6953 78.9766 95.2148 79.0352 94.6055 79.0352ZM130.816 59.4883C129.293 57.9883 127.605 57.2383 125.754 57.2383C123.996 57.2383 122.309 57.9062 120.691 59.2422C118.652 60.9297 117.246 63.1094 116.473 65.7812C116.191 66.7422 116.051 67.5391 116.051 68.1719C116.051 68.8047 116.074 69.2969 116.121 69.6484C116.121 71.9688 116.906 73.75 118.477 74.9922C119.953 76.1406 121.84 76.7148 124.137 76.7148C127.277 76.457 130.289 75.25 133.172 73.0938C133.969 72.4844 134.812 71.8984 135.703 71.3359C136.031 71.3359 136.359 71.3828 136.688 71.4766C137.039 71.5703 137.215 71.8398 137.215 72.2852C134.895 74.3008 132.938 75.7539 131.344 76.6445C128.391 78.2383 125.719 79.0352 123.328 79.0352C123.164 79.0352 123.012 79.0352 122.871 79.0352C120.27 79.0352 118.043 78.2266 116.191 76.6094C114.223 74.8984 113.238 72.7656 113.238 70.2109C113.238 68.2891 113.578 66.4492 114.258 64.6914C114.961 62.9336 115.91 61.3867 117.105 60.0508C118.324 58.6914 119.754 57.6133 121.395 56.8164C123.059 56.0195 124.84 55.6211 126.738 55.6211C128.355 55.6211 129.41 55.8438 129.902 56.2891C130.512 56.8281 130.816 57.8945 130.816 59.4883ZM152.719 73.1641C150.961 75.9297 148.617 77.6406 145.688 78.2969C145.008 78.4375 144.387 78.5078 143.824 78.5078C143.285 78.5078 142.828 78.5078 142.453 78.5078C142.102 78.4844 141.703 78.4258 141.258 78.332C140.812 78.2383 140.402 78.0859 140.027 77.875C139.16 77.3828 138.727 76.6914 138.727 75.8008C138.633 75.3789 138.586 74.9102 138.586 74.3945C138.586 73.8555 138.703 73.1523 138.938 72.2852C139.172 71.418 139.594 70.4805 140.203 69.4727C140.836 68.4648 141.598 67.5391 142.488 66.6953C144.34 64.9141 146.344 63.7656 148.5 63.25C149.133 63.1094 149.707 63.0391 150.223 63.0391C150.762 63.0391 151.242 63.0742 151.664 63.1445C153.023 63.1445 153.938 64.0703 154.406 65.9219C154.711 67.0938 154.887 68.7344 154.934 70.8438C155.004 72.9297 155.062 74.5469 155.109 75.6953C155.18 76.8203 155.332 77.8516 155.566 78.7891H153.492C153.398 78.1562 153.328 77.5938 153.281 77.1016C153.234 76.6094 153.188 76.1523 153.141 75.7305C153.023 74.7461 152.883 73.8906 152.719 73.1641ZM152.578 67.7148C152.578 66.3555 151.91 65.6758 150.574 65.6758C150.41 65.6523 150.246 65.6406 150.082 65.6406C148.371 65.6406 146.566 66.4609 144.668 68.1016C143.777 68.8516 143.016 69.6953 142.383 70.6328C141.445 71.9688 140.977 73.1641 140.977 74.2188C140.977 75.6016 141.773 76.4219 143.367 76.6797C145.477 76.6328 147.492 75.6719 149.414 73.7969C150.234 72.9766 150.914 72.0859 151.453 71.125C152.203 69.8359 152.578 68.6992 152.578 67.7148ZM174.48 66.168C173.496 65.4648 172.23 65.1133 170.684 65.1133C169.23 65.1133 167.883 65.3828 166.641 65.9219C164.297 66.9062 162.691 68.1719 161.824 69.7188C161.449 70.4219 161.262 71.1719 161.262 71.9688C161.262 72.1094 161.262 72.5078 161.262 73.1641C161.262 73.7969 161.379 74.6641 161.613 75.7656C161.848 76.8438 161.965 77.9453 161.965 79.0703C161.473 79.0938 161.074 79.1523 160.77 79.2461C160.465 79.3398 160.207 79.3867 159.996 79.3867C159.785 79.3867 159.598 79.293 159.434 79.1055C159.293 78.918 159.129 78.5547 158.941 78.0156C158.918 77.875 158.871 77.4766 158.801 76.8203C158.73 76.1641 158.637 75.3672 158.52 74.4297C158.426 73.4922 158.309 72.4727 158.168 71.3711C158.051 70.2461 157.934 69.1445 157.816 68.0664C157.559 65.7227 157.359 64 157.219 62.8984C157.219 62.3359 157.629 62.0547 158.449 62.0547C158.941 62.0547 159.328 62.2656 159.609 62.6875C159.891 63.0859 160.113 63.5547 160.277 64.0938C160.441 64.6094 160.547 65.125 160.594 65.6406C160.664 66.1562 160.723 66.5195 160.77 66.7305C163.863 63.9648 167.707 62.582 172.301 62.582C172.816 62.582 173.355 62.5938 173.918 62.6172C174.059 62.5938 174.234 62.582 174.445 62.582C174.656 62.582 174.867 62.7227 175.078 63.0039C175.336 63.332 175.465 63.7305 175.465 64.1992C175.465 65.3711 175.137 66.0273 174.48 66.168ZM193.711 50.7695C193.711 53.0195 193.641 55.2227 193.5 57.3789C193.383 59.5117 193.266 61.6094 193.148 63.6719C193.055 65.7109 193.008 67.8906 193.008 70.2109C193.008 72.5078 193.172 74.9453 193.5 77.5234C193.5 78.0625 193.395 78.4492 193.184 78.6836C192.996 78.918 192.668 79.0352 192.199 79.0352C191.098 79.0352 190.547 78.1211 190.547 76.293V75.1328C187.219 77.6172 184.406 78.8594 182.109 78.8594C181.195 78.8594 180.258 78.6367 179.297 78.1914C178.359 77.7461 177.469 76.8438 176.625 75.4844C176.508 74.9219 176.449 74.3477 176.449 73.7617C176.449 73.1758 176.555 72.4727 176.766 71.6523C177 70.8086 177.457 69.9414 178.137 69.0508C178.84 68.1602 179.684 67.375 180.668 66.6953C182.824 65.2422 185.156 64.5156 187.664 64.5156C188.742 64.5156 189.773 64.6797 190.758 65.0078C190.758 64.5859 190.781 63.8477 190.828 62.793C190.898 61.7383 190.969 60.625 191.039 59.4531C191.18 56.4062 191.273 54.6133 191.32 54.0742C191.367 53.5117 191.426 53.043 191.496 52.668C191.59 52.2695 191.719 51.9297 191.883 51.6484C192.234 51.0625 192.844 50.7695 193.711 50.7695ZM179.016 73.4805C179.016 75.332 179.684 76.2578 181.02 76.2578C181.23 76.2578 181.465 76.2344 181.723 76.1875C182.684 76.1875 183.867 75.9062 185.273 75.3438C187.945 74.2891 189.574 73.375 190.16 72.6016V67.9258C190.16 67.1055 189.492 66.6953 188.156 66.6953C187.992 66.6719 187.77 66.6602 187.488 66.6602C187.23 66.6602 186.82 66.7188 186.258 66.8359C185.695 66.9531 185.062 67.1641 184.359 67.4688C183.656 67.7734 182.965 68.1484 182.285 68.5938C180.855 69.5547 179.871 70.6797 179.332 71.9688C179.121 72.4609 179.016 72.9648 179.016 73.4805ZM207.562 69.9297C210.141 69.9297 211.43 70.5859 211.43 71.8984C211.43 72.8828 210.715 74.0312 209.285 75.3438C207.152 77.2891 204.281 78.8477 200.672 80.0195C200.508 80.0195 200.32 79.8555 200.109 79.5273C199.922 79.1992 199.77 78.9531 199.652 78.7891C199.559 78.6016 199.488 78.4844 199.441 78.4375C202.137 77.5469 204.352 76.4688 206.086 75.2031C207.258 74.3594 207.844 73.668 207.844 73.1289C207.844 72.5898 207.152 72.3203 205.77 72.3203C204.387 72.3203 202.359 72.6484 199.688 73.3047C198.469 73.2578 197.414 72.8242 196.523 72.0039C195.75 71.2773 195.363 70.5508 195.363 69.8242C195.363 69.0742 195.574 68.3945 195.996 67.7852C196.418 67.1523 196.98 66.5664 197.684 66.0273C198.387 65.4883 199.207 64.9961 200.145 64.5508C202.441 63.4492 204.82 62.8984 207.281 62.8984C208.008 62.8984 208.711 62.9688 209.391 63.1094C209.953 63.1094 210.281 63.3555 210.375 63.8477C210.469 64.3398 210.516 65.1484 210.516 66.2734C209.133 65.6406 207.574 65.3242 205.84 65.3242C203.684 65.3242 201.902 65.7578 200.496 66.625C199.043 67.4688 198.293 68.5703 198.246 69.9297C198.246 70.5859 198.727 70.9141 199.688 70.9141L202.254 70.6328C204.457 70.1641 206.227 69.9297 207.562 69.9297ZM235.441 92.2539C234.949 93.3555 234.363 93.9062 233.684 93.9062C233.355 93.9062 233.109 93.7539 232.945 93.4492C232.805 93.168 232.805 92.8281 232.945 92.4297C233.461 90.25 234.199 87.7656 235.16 84.9766C236.145 82.1875 236.801 80.3125 237.129 79.3516C236.309 78.5312 235.02 76.8906 233.262 74.4297C229.652 69.3672 227.848 66.5898 227.848 66.0977C227.848 66.0742 227.859 66.0508 227.883 66.0273L229.219 64.6914C231.07 66.4023 233.484 69.3086 236.461 73.4102C237.211 74.4414 237.809 75.3086 238.254 76.0117C238.746 75.0273 239.133 74.1836 239.414 73.4805C239.695 72.7539 239.918 72.1797 240.082 71.7578C240.27 71.3125 240.516 70.7266 240.82 70C241.617 68.0547 242.719 65.582 244.125 62.582C244.336 62.4883 244.559 62.4414 244.793 62.4414C245.379 62.4414 245.801 62.5938 246.059 62.8984C246.152 63.0156 246.199 63.1562 246.199 63.3203C246.199 63.4609 246.176 63.6016 246.129 63.7422L235.441 92.2539ZM248.66 72.3203C248.66 69.5547 249.855 67.3281 252.246 65.6406C254.145 64.3047 256.43 63.4961 259.102 63.2148C259.242 63.2148 259.57 63.2148 260.086 63.2148C260.602 63.2148 261.293 63.3672 262.16 63.6719C264.082 64.3281 265.395 65.4883 266.098 67.1523C266.379 67.8086 266.52 68.3711 266.52 68.8398C266.52 69.2852 266.508 69.6016 266.484 69.7891C266.484 72.7188 265.371 75.0273 263.145 76.7148C261.082 78.2617 258.504 79.0352 255.41 79.0352C253.184 79.0352 251.496 78.5195 250.348 77.4883C249.223 76.457 248.66 74.7344 248.66 72.3203ZM251.086 73.1641C251.086 74.6172 251.473 75.6016 252.246 76.1172C252.832 76.4922 253.816 76.6797 255.199 76.6797C256.582 76.6797 257.801 76.5742 258.855 76.3633C259.91 76.1523 260.848 75.7891 261.668 75.2734C263.426 74.1484 264.305 72.4023 264.305 70.0352C264.305 68.6289 263.93 67.4805 263.18 66.5898C262.359 65.6289 261.281 65.1484 259.945 65.1484C259.031 65.3125 258.105 65.4883 257.168 65.6758C256.254 65.8633 255.387 66.2266 254.566 66.7656C252.785 67.9141 251.625 70.0469 251.086 73.1641ZM267.855 74.3242C267.855 73.9492 267.82 73.4336 267.75 72.7773C267.703 72.0977 267.656 71.3594 267.609 70.5625C267.562 69.7656 267.539 68.957 267.539 68.1367C267.539 67.3164 267.609 66.5664 267.75 65.8867C268.055 64.3633 268.688 63.6016 269.648 63.6016C270.305 63.7891 270.738 64.0234 270.949 64.3047C271.184 64.5859 271.301 64.9375 271.301 65.3594C271.301 65.7578 271.195 66.2617 270.984 66.8711C270.211 68.9102 269.824 70.75 269.824 72.3906C269.824 72.9297 269.859 73.5039 269.93 74.1133C270.305 75.6836 271.594 76.4688 273.797 76.4688C274.945 76.4688 276.035 76.2695 277.066 75.8711C279.035 75.1445 280.371 74.2891 281.074 73.3047C281.285 72.2266 281.391 71.2891 281.391 70.4922C281.391 69.6719 281.355 68.9453 281.285 68.3125C281.238 67.6797 281.168 66.9883 281.074 66.2383C281.004 65.4648 280.957 64.6211 280.934 63.707C281.238 63.5664 281.531 63.4961 281.812 63.4961C282.117 63.4961 282.422 63.6484 282.727 63.9531C283.055 64.2578 283.324 64.832 283.535 65.6758C283.77 66.5195 283.922 67.5156 283.992 68.6641C284.062 69.7891 284.098 70.9609 284.098 72.1797C284.121 73.3984 284.133 74.582 284.133 75.7305C284.133 76.8555 284.18 77.8281 284.273 78.6484C283.992 78.9062 283.723 79.0352 283.465 79.0352C282.527 79.0352 281.836 78.0977 281.391 76.2227C281.086 76.4805 280.57 76.7969 279.844 77.1719C278.297 78.0156 276.469 78.5781 274.359 78.8594C273.961 78.9062 273.516 78.9297 273.023 78.9297C272.531 78.9297 271.91 78.8359 271.16 78.6484C270.434 78.4609 269.742 78.0273 269.086 77.3477C268.43 76.668 268.02 75.6602 267.855 74.3242ZM312.75 69.9297C315.328 69.9297 316.617 70.5859 316.617 71.8984C316.617 72.8828 315.902 74.0312 314.473 75.3438C312.34 77.2891 309.469 78.8477 305.859 80.0195C305.695 80.0195 305.508 79.8555 305.297 79.5273C305.109 79.1992 304.957 78.9531 304.84 78.7891C304.746 78.6016 304.676 78.4844 304.629 78.4375C307.324 77.5469 309.539 76.4688 311.273 75.2031C312.445 74.3594 313.031 73.668 313.031 73.1289C313.031 72.5898 312.34 72.3203 310.957 72.3203C309.574 72.3203 307.547 72.6484 304.875 73.3047C303.656 73.2578 302.602 72.8242 301.711 72.0039C300.938 71.2773 300.551 70.5508 300.551 69.8242C300.551 69.0742 300.762 68.3945 301.184 67.7852C301.605 67.1523 302.168 66.5664 302.871 66.0273C303.574 65.4883 304.395 64.9961 305.332 64.5508C307.629 63.4492 310.008 62.8984 312.469 62.8984C313.195 62.8984 313.898 62.9688 314.578 63.1094C315.141 63.1094 315.469 63.3555 315.562 63.8477C315.656 64.3398 315.703 65.1484 315.703 66.2734C314.32 65.6406 312.762 65.3242 311.027 65.3242C308.871 65.3242 307.09 65.7578 305.684 66.625C304.23 67.4688 303.48 68.5703 303.434 69.9297C303.434 70.5859 303.914 70.9141 304.875 70.9141L307.441 70.6328C309.645 70.1641 311.414 69.9297 312.75 69.9297ZM332.613 73.1641C330.855 75.9297 328.512 77.6406 325.582 78.2969C324.902 78.4375 324.281 78.5078 323.719 78.5078C323.18 78.5078 322.723 78.5078 322.348 78.5078C321.996 78.4844 321.598 78.4258 321.152 78.332C320.707 78.2383 320.297 78.0859 319.922 77.875C319.055 77.3828 318.621 76.6914 318.621 75.8008C318.527 75.3789 318.48 74.9102 318.48 74.3945C318.48 73.8555 318.598 73.1523 318.832 72.2852C319.066 71.418 319.488 70.4805 320.098 69.4727C320.73 68.4648 321.492 67.5391 322.383 66.6953C324.234 64.9141 326.238 63.7656 328.395 63.25C329.027 63.1094 329.602 63.0391 330.117 63.0391C330.656 63.0391 331.137 63.0742 331.559 63.1445C332.918 63.1445 333.832 64.0703 334.301 65.9219C334.605 67.0938 334.781 68.7344 334.828 70.8438C334.898 72.9297 334.957 74.5469 335.004 75.6953C335.074 76.8203 335.227 77.8516 335.461 78.7891H333.387C333.293 78.1562 333.223 77.5938 333.176 77.1016C333.129 76.6094 333.082 76.1523 333.035 75.7305C332.918 74.7461 332.777 73.8906 332.613 73.1641ZM332.473 67.7148C332.473 66.3555 331.805 65.6758 330.469 65.6758C330.305 65.6523 330.141 65.6406 329.977 65.6406C328.266 65.6406 326.461 66.4609 324.562 68.1016C323.672 68.8516 322.91 69.6953 322.277 70.6328C321.34 71.9688 320.871 73.1641 320.871 74.2188C320.871 75.6016 321.668 76.4219 323.262 76.6797C325.371 76.6328 327.387 75.6719 329.309 73.7969C330.129 72.9766 330.809 72.0859 331.348 71.125C332.098 69.8359 332.473 68.6992 332.473 67.7148ZM337.43 65.3945C337.383 65.2773 337.359 65.1484 337.359 65.0078C337.359 64.8438 337.418 64.6328 337.535 64.375C337.652 64.1172 337.816 63.8945 338.027 63.707C338.262 63.5195 338.508 63.4375 338.766 63.4609C339.047 63.4609 339.27 63.625 339.434 63.9531L345.34 74.9219C345.527 74.6406 345.82 74.125 346.219 73.375C346.641 72.6016 347.109 71.7344 347.625 70.7734C348.164 69.8125 348.715 68.8164 349.277 67.7852C349.863 66.7305 350.402 65.7695 350.895 64.9023C352.02 62.9102 352.688 61.9141 352.898 61.9141C353.391 61.9141 353.742 62.1016 353.953 62.4766C354.188 62.8281 354.305 63.0977 354.305 63.2852C354.305 63.4727 354.305 63.6016 354.305 63.6719C352.992 66.5312 351.773 69.168 350.648 71.582C349.547 73.9961 348.809 75.5664 348.434 76.293C348.082 76.9961 347.766 77.5586 347.484 77.9805C346.992 78.707 346.512 79.0703 346.043 79.0703C345.574 79.0703 345.035 78.707 344.426 77.9805C343.816 77.2305 343.125 76.2344 342.352 74.9922C340.992 72.7422 339.352 69.543 337.43 65.3945ZM362.953 76.5391C365.016 76.5391 368.121 75.6016 372.27 73.7266C372.527 73.7266 372.738 73.8203 372.902 74.0078C373.066 74.1719 373.148 74.3711 373.148 74.6055C372.211 76.1992 370.418 77.4414 367.77 78.332C365.121 79.2227 362.648 79.375 360.352 78.7891C357.75 78.1094 356.168 76.6445 355.605 74.3945C355.559 73.9492 355.535 73.3516 355.535 72.6016C355.535 71.8516 355.723 70.8672 356.098 69.6484C356.496 68.4062 357.164 67.2344 358.102 66.1328C359.039 65.0312 360.141 64.1641 361.406 63.5312C362.672 62.8984 364.02 62.582 365.449 62.582C366.809 62.582 368.332 63.0508 370.02 63.9883C370.816 64.4336 371.449 64.9375 371.918 65.5C372.387 66.0625 372.621 66.6367 372.621 67.2227C372.621 67.3867 372.609 67.5508 372.586 67.7148C372.539 69.1445 371.848 70.0469 370.512 70.4219C369.926 70.5859 369.246 70.668 368.473 70.668L363.41 70.457C361.723 70.457 360.434 70.8203 359.543 71.5469C359.027 71.9453 358.664 72.543 358.453 73.3398C359.039 75.4727 360.539 76.5391 362.953 76.5391ZM369.211 65.6758C368.695 65.3008 368.156 65.0312 367.594 64.8672C367.031 64.7031 366.562 64.6211 366.188 64.6211C365.812 64.6211 365.203 64.75 364.359 65.0078C363.516 65.2422 362.766 65.5117 362.109 65.8164C360.492 66.5664 359.684 67.3516 359.684 68.1719C361.559 68.3359 362.965 68.418 363.902 68.418C366.504 68.418 368.262 68.1953 369.176 67.75C369.738 67.5156 370.02 67.2227 370.02 66.8711C370.02 66.4492 369.75 66.0508 369.211 65.6758ZM406.301 50.7695C406.301 53.0195 406.23 55.2227 406.09 57.3789C405.973 59.5117 405.855 61.6094 405.738 63.6719C405.645 65.7109 405.598 67.8906 405.598 70.2109C405.598 72.5078 405.762 74.9453 406.09 77.5234C406.09 78.0625 405.984 78.4492 405.773 78.6836C405.586 78.918 405.258 79.0352 404.789 79.0352C403.688 79.0352 403.137 78.1211 403.137 76.293V75.1328C399.809 77.6172 396.996 78.8594 394.699 78.8594C393.785 78.8594 392.848 78.6367 391.887 78.1914C390.949 77.7461 390.059 76.8438 389.215 75.4844C389.098 74.9219 389.039 74.3477 389.039 73.7617C389.039 73.1758 389.145 72.4727 389.355 71.6523C389.59 70.8086 390.047 69.9414 390.727 69.0508C391.43 68.1602 392.273 67.375 393.258 66.6953C395.414 65.2422 397.746 64.5156 400.254 64.5156C401.332 64.5156 402.363 64.6797 403.348 65.0078C403.348 64.5859 403.371 63.8477 403.418 62.793C403.488 61.7383 403.559 60.625 403.629 59.4531C403.77 56.4062 403.863 54.6133 403.91 54.0742C403.957 53.5117 404.016 53.043 404.086 52.668C404.18 52.2695 404.309 51.9297 404.473 51.6484C404.824 51.0625 405.434 50.7695 406.301 50.7695ZM391.605 73.4805C391.605 75.332 392.273 76.2578 393.609 76.2578C393.82 76.2578 394.055 76.2344 394.312 76.1875C395.273 76.1875 396.457 75.9062 397.863 75.3438C400.535 74.2891 402.164 73.375 402.75 72.6016V67.9258C402.75 67.1055 402.082 66.6953 400.746 66.6953C400.582 66.6719 400.359 66.6602 400.078 66.6602C399.82 66.6602 399.41 66.7188 398.848 66.8359C398.285 66.9531 397.652 67.1641 396.949 67.4688C396.246 67.7734 395.555 68.1484 394.875 68.5938C393.445 69.5547 392.461 70.6797 391.922 71.9688C391.711 72.4609 391.605 72.9648 391.605 73.4805ZM407.953 74.3242C407.953 73.9492 407.918 73.4336 407.848 72.7773C407.801 72.0977 407.754 71.3594 407.707 70.5625C407.66 69.7656 407.637 68.957 407.637 68.1367C407.637 67.3164 407.707 66.5664 407.848 65.8867C408.152 64.3633 408.785 63.6016 409.746 63.6016C410.402 63.7891 410.836 64.0234 411.047 64.3047C411.281 64.5859 411.398 64.9375 411.398 65.3594C411.398 65.7578 411.293 66.2617 411.082 66.8711C410.309 68.9102 409.922 70.75 409.922 72.3906C409.922 72.9297 409.957 73.5039 410.027 74.1133C410.402 75.6836 411.691 76.4688 413.895 76.4688C415.043 76.4688 416.133 76.2695 417.164 75.8711C419.133 75.1445 420.469 74.2891 421.172 73.3047C421.383 72.2266 421.488 71.2891 421.488 70.4922C421.488 69.6719 421.453 68.9453 421.383 68.3125C421.336 67.6797 421.266 66.9883 421.172 66.2383C421.102 65.4648 421.055 64.6211 421.031 63.707C421.336 63.5664 421.629 63.4961 421.91 63.4961C422.215 63.4961 422.52 63.6484 422.824 63.9531C423.152 64.2578 423.422 64.832 423.633 65.6758C423.867 66.5195 424.02 67.5156 424.09 68.6641C424.16 69.7891 424.195 70.9609 424.195 72.1797C424.219 73.3984 424.23 74.582 424.23 75.7305C424.23 76.8555 424.277 77.8281 424.371 78.6484C424.09 78.9062 423.82 79.0352 423.562 79.0352C422.625 79.0352 421.934 78.0977 421.488 76.2227C421.184 76.4805 420.668 76.7969 419.941 77.1719C418.395 78.0156 416.566 78.5781 414.457 78.8594C414.059 78.9062 413.613 78.9297 413.121 78.9297C412.629 78.9297 412.008 78.8359 411.258 78.6484C410.531 78.4609 409.84 78.0273 409.184 77.3477C408.527 76.668 408.117 75.6602 407.953 74.3242ZM443.672 66.168C442.688 65.4648 441.422 65.1133 439.875 65.1133C438.422 65.1133 437.074 65.3828 435.832 65.9219C433.488 66.9062 431.883 68.1719 431.016 69.7188C430.641 70.4219 430.453 71.1719 430.453 71.9688C430.453 72.1094 430.453 72.5078 430.453 73.1641C430.453 73.7969 430.57 74.6641 430.805 75.7656C431.039 76.8438 431.156 77.9453 431.156 79.0703C430.664 79.0938 430.266 79.1523 429.961 79.2461C429.656 79.3398 429.398 79.3867 429.188 79.3867C428.977 79.3867 428.789 79.293 428.625 79.1055C428.484 78.918 428.32 78.5547 428.133 78.0156C428.109 77.875 428.062 77.4766 427.992 76.8203C427.922 76.1641 427.828 75.3672 427.711 74.4297C427.617 73.4922 427.5 72.4727 427.359 71.3711C427.242 70.2461 427.125 69.1445 427.008 68.0664C426.75 65.7227 426.551 64 426.41 62.8984C426.41 62.3359 426.82 62.0547 427.641 62.0547C428.133 62.0547 428.52 62.2656 428.801 62.6875C429.082 63.0859 429.305 63.5547 429.469 64.0938C429.633 64.6094 429.738 65.125 429.785 65.6406C429.855 66.1562 429.914 66.5195 429.961 66.7305C433.055 63.9648 436.898 62.582 441.492 62.582C442.008 62.582 442.547 62.5938 443.109 62.6172C443.25 62.5938 443.426 62.582 443.637 62.582C443.848 62.582 444.059 62.7227 444.27 63.0039C444.527 63.332 444.656 63.7305 444.656 64.1992C444.656 65.3711 444.328 66.0273 443.672 66.168ZM449.438 62.4766C449.742 66.8594 450 71.9336 450.211 77.6992C450.07 78.4258 449.508 78.7891 448.523 78.7891C448.266 78.7891 447.996 78.7422 447.715 78.6484C447.457 78.5312 447.293 78.3789 447.223 78.1914V62.4766H449.438ZM446.168 57.6953C446.168 56.875 446.648 56.4648 447.609 56.4648C448.242 56.4648 448.758 56.6055 449.156 56.8867C449.227 57.1445 449.262 57.4023 449.262 57.6602C449.262 57.8945 449.168 58.1289 448.98 58.3633C448.793 58.5977 448.512 58.7148 448.137 58.7148C447.762 58.7148 447.387 58.6328 447.012 58.4688C446.637 58.2812 446.355 58.0234 446.168 57.6953ZM465.434 71.3008C465.434 68.5117 465.281 66.4609 464.977 65.1484C465.164 64.7969 464.883 64.6211 464.133 64.6211C463.336 64.6211 462.305 64.8203 461.039 65.2188C459.773 65.6172 458.742 66.0156 457.945 66.4141C456.047 67.3281 454.992 68.2188 454.781 69.0859V78.6484H452.426C452.121 77.8516 451.969 75.6133 451.969 71.9336C451.969 68.6523 452.027 66.2383 452.145 64.6914C452.285 63.1445 452.391 62.2656 452.461 62.0547C453.07 61.6562 453.562 61.457 453.938 61.457C454.523 61.457 454.816 62.1484 454.816 63.5312C454.816 64.0703 454.781 64.5977 454.711 65.1133C454.664 65.6055 454.641 65.9453 454.641 66.1328C458.438 63.3438 461.379 61.9492 463.465 61.9492C465.832 61.9492 467.18 63.8594 467.508 67.6797C467.648 69.0156 467.719 70.8672 467.719 73.2344L467.684 76.0117C467.684 77.043 467.707 78.0391 467.754 79C467.52 79.1406 467.332 79.2109 467.191 79.2109C467.121 79.1875 466.969 79.1523 466.734 79.1055C466.5 79.0586 466.195 79.0234 465.82 79C465.586 78.0625 465.457 77.1133 465.434 76.1523C465.41 75.168 465.398 74.2656 465.398 73.4453L465.434 71.3008ZM479.883 94.0469L479.391 94.0117C478.688 94.0117 477.938 94.0586 477.141 94.1523H475.805C474.398 94.1523 473.297 93.8828 472.5 93.3438C472.078 93.0625 471.867 92.6406 471.867 92.0781L479.953 91.6914C482.438 91.6211 483.68 90.2852 483.68 87.6836C483.68 87.5898 483.68 87.4258 483.68 87.1914C483.68 86.9805 483.68 86.5 483.68 85.75L483.855 74.4297C483.855 74.0312 483.844 73.7031 483.82 73.4453C480.023 76.9844 476.367 78.7539 472.852 78.7539C472.547 78.7539 472.242 78.7422 471.938 78.7188C470.367 78.7188 469.582 78.0273 469.582 76.6445C469.629 75.5664 469.945 74.3828 470.531 73.0938C471.117 71.7812 471.867 70.5273 472.781 69.332C473.719 68.1133 474.773 67.0234 475.945 66.0625C477.75 64.5859 479.496 63.8477 481.184 63.8477C483.152 63.8477 484.77 64.8906 486.035 66.9766C486.41 72.5547 486.598 76.5156 486.598 78.8594C486.598 81.2031 486.562 83.125 486.492 84.625C486.422 86.125 486.258 87.4961 486 88.7383C485.766 89.9805 485.449 90.9648 485.051 91.6914C484.652 92.418 484.184 92.9453 483.645 93.2734C482.754 93.7891 481.5 94.0469 479.883 94.0469ZM481.992 66.4141C481.711 66.3203 481.312 66.2734 480.797 66.2734C480.305 66.2734 479.66 66.4844 478.863 66.9062C478.066 67.3281 477.305 67.8789 476.578 68.5586C475.852 69.2148 475.172 69.9531 474.539 70.7734C472.992 72.7891 472.219 74.3945 472.219 75.5898C472.219 75.9648 472.324 76.2461 472.535 76.4336C472.699 76.5273 472.898 76.5742 473.133 76.5742C473.391 76.5742 473.754 76.5391 474.223 76.4688C474.691 76.375 475.324 76.1641 476.121 75.8359C476.941 75.4844 477.785 75.0391 478.652 74.5C479.52 73.9609 480.305 73.3633 481.008 72.707C482.648 71.207 483.469 69.7422 483.469 68.3125C483.469 67.4453 482.977 66.8125 481.992 66.4141ZM522.879 67.2578C522.996 67.2578 523.055 67.5742 523.055 68.207C523.055 68.8398 523.078 69.2734 523.125 69.5078L511.066 70.9844L511.699 78.7891L508.852 78.6484C508.852 76.5391 508.617 74.125 508.148 71.4062L503.578 73.1641C503.273 73.1641 503.016 72.9883 502.805 72.6367C502.43 72.0273 502.242 71.4766 502.242 70.9844L507.586 69.0859C507.117 65.0547 506.883 61.7852 506.883 59.2773C506.883 56.7461 507.094 54.7773 507.516 53.3711C507.938 51.9648 508.547 51.0273 509.344 50.5586C510.164 50.0664 511.031 49.8203 511.945 49.8203C512.859 49.8203 513.785 50.0195 514.723 50.418C515.684 50.8164 516.598 51.3203 517.465 51.9297C518.332 52.5391 519.07 53.2305 519.68 54.0039C520.289 54.7539 520.594 55.4922 520.594 56.2188C520.594 56.7812 520.535 57.1797 520.418 57.4141C519.48 56.1016 518.344 54.9297 517.008 53.8984C515.414 52.6797 513.914 52.0703 512.508 52.0703C511.172 52.0703 510.281 53.0195 509.836 54.918C509.625 55.9023 509.52 57.2969 509.52 59.1016C509.52 60.8828 509.566 62.5234 509.66 64.0234C509.754 65.5 510.035 66.9883 510.504 68.4883C511.957 68.4883 513.586 68.3594 515.391 68.1016C518.859 67.5625 521.355 67.2812 522.879 67.2578ZM524.953 72.3203C524.953 69.5547 526.148 67.3281 528.539 65.6406C530.438 64.3047 532.723 63.4961 535.395 63.2148C535.535 63.2148 535.863 63.2148 536.379 63.2148C536.895 63.2148 537.586 63.3672 538.453 63.6719C540.375 64.3281 541.688 65.4883 542.391 67.1523C542.672 67.8086 542.812 68.3711 542.812 68.8398C542.812 69.2852 542.801 69.6016 542.777 69.7891C542.777 72.7188 541.664 75.0273 539.438 76.7148C537.375 78.2617 534.797 79.0352 531.703 79.0352C529.477 79.0352 527.789 78.5195 526.641 77.4883C525.516 76.457 524.953 74.7344 524.953 72.3203ZM527.379 73.1641C527.379 74.6172 527.766 75.6016 528.539 76.1172C529.125 76.4922 530.109 76.6797 531.492 76.6797C532.875 76.6797 534.094 76.5742 535.148 76.3633C536.203 76.1523 537.141 75.7891 537.961 75.2734C539.719 74.1484 540.598 72.4023 540.598 70.0352C540.598 68.6289 540.223 67.4805 539.473 66.5898C538.652 65.6289 537.574 65.1484 536.238 65.1484C535.324 65.3125 534.398 65.4883 533.461 65.6758C532.547 65.8633 531.68 66.2266 530.859 66.7656C529.078 67.9141 527.918 70.0469 527.379 73.1641ZM558.527 75.3086C559.488 74.9102 560.426 74.5469 561.34 74.2188C562.254 73.8906 563.121 73.7266 563.941 73.7266C564.785 73.7266 565.207 73.9844 565.207 74.5C565.207 74.6172 565.172 74.8047 565.102 75.0625C565.055 75.2969 564.738 75.5898 564.152 75.9414C563.59 76.2695 562.887 76.5859 562.043 76.8906C561.223 77.1953 560.32 77.4766 559.336 77.7344C558.352 77.9922 557.391 78.2148 556.453 78.4023C554.508 78.8008 553.125 79 552.305 79C551.484 79 550.594 78.9062 549.633 78.7188C548.695 78.5312 547.816 78.2266 546.996 77.8047C545.098 76.8203 544.148 75.3672 544.148 73.4453C544.148 73.3047 544.148 73.0234 544.148 72.6016C544.148 72.1797 544.324 71.582 544.676 70.8086C545.027 70.0117 545.555 69.2266 546.258 68.4531C546.961 67.6562 547.781 66.9297 548.719 66.2734C550.688 64.8672 552.75 63.9531 554.906 63.5312C555.656 63.3672 556.277 63.2852 556.77 63.2852C557.285 63.2852 557.707 63.2969 558.035 63.3203C558.363 63.3203 558.703 63.3438 559.055 63.3906C559.406 63.4141 559.711 63.4961 559.969 63.6367C560.578 63.9414 560.883 64.5391 560.883 65.4297C560.883 65.9922 560.484 66.543 559.688 67.082C559.477 67.2227 559.289 67.3516 559.125 67.4688C559.008 66.9297 558.855 66.4727 558.668 66.0977C558.48 65.7227 558.07 65.5352 557.438 65.5352C554.672 66.1211 552.293 67 550.301 68.1719C548.051 69.5078 546.926 70.9141 546.926 72.3906C546.926 72.5547 546.938 72.7305 546.961 72.918C546.961 74.418 547.535 75.4844 548.684 76.1172C549.551 76.5859 550.664 76.8203 552.023 76.8203C553.406 76.8203 554.602 76.668 555.609 76.3633C556.617 76.0352 557.59 75.6836 558.527 75.3086ZM566.93 74.3242C566.93 73.9492 566.895 73.4336 566.824 72.7773C566.777 72.0977 566.73 71.3594 566.684 70.5625C566.637 69.7656 566.613 68.957 566.613 68.1367C566.613 67.3164 566.684 66.5664 566.824 65.8867C567.129 64.3633 567.762 63.6016 568.723 63.6016C569.379 63.7891 569.812 64.0234 570.023 64.3047C570.258 64.5859 570.375 64.9375 570.375 65.3594C570.375 65.7578 570.27 66.2617 570.059 66.8711C569.285 68.9102 568.898 70.75 568.898 72.3906C568.898 72.9297 568.934 73.5039 569.004 74.1133C569.379 75.6836 570.668 76.4688 572.871 76.4688C574.02 76.4688 575.109 76.2695 576.141 75.8711C578.109 75.1445 579.445 74.2891 580.148 73.3047C580.359 72.2266 580.465 71.2891 580.465 70.4922C580.465 69.6719 580.43 68.9453 580.359 68.3125C580.312 67.6797 580.242 66.9883 580.148 66.2383C580.078 65.4648 580.031 64.6211 580.008 63.707C580.312 63.5664 580.605 63.4961 580.887 63.4961C581.191 63.4961 581.496 63.6484 581.801 63.9531C582.129 64.2578 582.398 64.832 582.609 65.6758C582.844 66.5195 582.996 67.5156 583.066 68.6641C583.137 69.7891 583.172 70.9609 583.172 72.1797C583.195 73.3984 583.207 74.582 583.207 75.7305C583.207 76.8555 583.254 77.8281 583.348 78.6484C583.066 78.9062 582.797 79.0352 582.539 79.0352C581.602 79.0352 580.91 78.0977 580.465 76.2227C580.16 76.4805 579.645 76.7969 578.918 77.1719C577.371 78.0156 575.543 78.5781 573.434 78.8594C573.035 78.9062 572.59 78.9297 572.098 78.9297C571.605 78.9297 570.984 78.8359 570.234 78.6484C569.508 78.4609 568.816 78.0273 568.16 77.3477C567.504 76.668 567.094 75.6602 566.93 74.3242ZM597.41 69.9297C599.988 69.9297 601.277 70.5859 601.277 71.8984C601.277 72.8828 600.562 74.0312 599.133 75.3438C597 77.2891 594.129 78.8477 590.52 80.0195C590.355 80.0195 590.168 79.8555 589.957 79.5273C589.77 79.1992 589.617 78.9531 589.5 78.7891C589.406 78.6016 589.336 78.4844 589.289 78.4375C591.984 77.5469 594.199 76.4688 595.934 75.2031C597.105 74.3594 597.691 73.668 597.691 73.1289C597.691 72.5898 597 72.3203 595.617 72.3203C594.234 72.3203 592.207 72.6484 589.535 73.3047C588.316 73.2578 587.262 72.8242 586.371 72.0039C585.598 71.2773 585.211 70.5508 585.211 69.8242C585.211 69.0742 585.422 68.3945 585.844 67.7852C586.266 67.1523 586.828 66.5664 587.531 66.0273C588.234 65.4883 589.055 64.9961 589.992 64.5508C592.289 63.4492 594.668 62.8984 597.129 62.8984C597.855 62.8984 598.559 62.9688 599.238 63.1094C599.801 63.1094 600.129 63.3555 600.223 63.8477C600.316 64.3398 600.363 65.1484 600.363 66.2734C598.98 65.6406 597.422 65.3242 595.688 65.3242C593.531 65.3242 591.75 65.7578 590.344 66.625C588.891 67.4688 588.141 68.5703 588.094 69.9297C588.094 70.5859 588.574 70.9141 589.535 70.9141L592.102 70.6328C594.305 70.1641 596.074 69.9297 597.41 69.9297ZM6.25781 125.625L6.32812 120C6.32812 119.109 6.24609 118.348 6.08203 117.715H0.632812L0.5625 115.289H5.83594V106.219C5.90625 106.008 6.04688 105.797 6.25781 105.586C6.58594 105.258 6.85547 105.094 7.06641 105.094C7.30078 105.094 7.5 105.117 7.66406 105.164C7.82812 105.211 8.00391 105.375 8.19141 105.656C8.56641 107.203 8.75391 109.535 8.75391 112.652C8.75391 113.426 8.78906 114.188 8.85938 114.938C9.60938 114.844 10.3594 114.797 11.1094 114.797C11.1094 114.797 11.7188 114.797 12.9375 114.797C13.3828 114.797 13.793 114.773 14.168 114.727L14.0625 117.258L8.92969 117.117L9.10547 129.246C8.68359 129.434 8.32031 129.527 8.01562 129.527C6.84375 129.527 6.25781 128.227 6.25781 125.625ZM18.668 112.477C18.9727 116.859 19.2305 121.934 19.4414 127.699C19.3008 128.426 18.7383 128.789 17.7539 128.789C17.4961 128.789 17.2266 128.742 16.9453 128.648C16.6875 128.531 16.5234 128.379 16.4531 128.191V112.477H18.668ZM15.3984 107.695C15.3984 106.875 15.8789 106.465 16.8398 106.465C17.4727 106.465 17.9883 106.605 18.3867 106.887C18.457 107.145 18.4922 107.402 18.4922 107.66C18.4922 107.895 18.3984 108.129 18.2109 108.363C18.0234 108.598 17.7422 108.715 17.3672 108.715C16.9922 108.715 16.6172 108.633 16.2422 108.469C15.8672 108.281 15.5859 108.023 15.3984 107.695ZM23.8711 128.438C22.9102 128.836 22.2656 129.035 21.9375 129.035C21.6328 129.035 21.4219 129 21.3047 128.93C21.1875 128.859 21.0586 128.695 20.918 128.438C20.918 127.664 20.9414 126.691 20.9883 125.52C21.0586 124.348 21.1172 123.094 21.1641 121.758C21.2109 120.422 21.2344 119.074 21.2344 117.715C21.2344 116.355 21.1641 115.113 21.0234 113.988C21.0234 113.238 21.5273 112.863 22.5352 112.863C22.7695 112.863 22.9453 113.285 23.0625 114.129C23.2031 114.973 23.2969 115.629 23.3438 116.098C23.4141 116.566 23.4727 116.906 23.5195 117.117C24.1289 116.016 25.3359 115.148 27.1406 114.516C28.1016 114.211 29.0039 114.059 29.8477 114.059C30.6914 114.059 31.4297 114.164 32.0625 114.375C32.7188 114.562 33.2695 114.926 33.7148 115.465C34.1836 115.98 34.418 116.672 34.418 117.539C35.0273 116.391 36.3984 115.359 38.5312 114.445C40.4766 113.578 42.2227 113.145 43.7695 113.145C45.9961 113.145 47.0859 113.988 47.0391 115.676L47.7773 128.754C47.7773 128.871 47.4375 128.953 46.7578 129C45.4453 129.094 44.7891 128.977 44.7891 128.648C44.7656 128.18 44.7539 127.711 44.7539 127.242L44.9297 121.582C44.9297 118.934 44.6719 116.836 44.1562 115.289C42.6094 115.406 41.4141 115.664 40.5703 116.062C39.75 116.438 39.0234 116.918 38.3906 117.504C37.7578 118.066 37.1953 118.828 36.7031 119.789C35.6016 121.945 35.0508 124.805 35.0508 128.367C34.9102 128.859 34.4531 129.105 33.6797 129.105C33.1641 129.105 32.7422 129.023 32.4141 128.859C32.0859 128.672 31.957 128.508 32.0273 128.367C32.4727 125.883 32.6953 123.949 32.6953 122.566C32.6953 121.465 32.5781 120.422 32.3438 119.438C32.1328 118.43 31.8633 117.281 31.5352 115.992C28.1602 115.992 25.8867 117.34 24.7148 120.035C24.1992 121.23 23.9062 122.355 23.8359 123.41C23.7891 124.441 23.7656 125.332 23.7656 126.082C23.7656 126.809 23.8008 127.594 23.8711 128.438ZM56.1445 126.539C58.207 126.539 61.3125 125.602 65.4609 123.727C65.7188 123.727 65.9297 123.82 66.0938 124.008C66.2578 124.172 66.3398 124.371 66.3398 124.605C65.4023 126.199 63.6094 127.441 60.9609 128.332C58.3125 129.223 55.8398 129.375 53.543 128.789C50.9414 128.109 49.3594 126.645 48.7969 124.395C48.75 123.949 48.7266 123.352 48.7266 122.602C48.7266 121.852 48.9141 120.867 49.2891 119.648C49.6875 118.406 50.3555 117.234 51.293 116.133C52.2305 115.031 53.332 114.164 54.5977 113.531C55.8633 112.898 57.2109 112.582 58.6406 112.582C60 112.582 61.5234 113.051 63.2109 113.988C64.0078 114.434 64.6406 114.938 65.1094 115.5C65.5781 116.062 65.8125 116.637 65.8125 117.223C65.8125 117.387 65.8008 117.551 65.7773 117.715C65.7305 119.145 65.0391 120.047 63.7031 120.422C63.1172 120.586 62.4375 120.668 61.6641 120.668L56.6016 120.457C54.9141 120.457 53.625 120.82 52.7344 121.547C52.2188 121.945 51.8555 122.543 51.6445 123.34C52.2305 125.473 53.7305 126.539 56.1445 126.539ZM62.4023 115.676C61.8867 115.301 61.3477 115.031 60.7852 114.867C60.2227 114.703 59.7539 114.621 59.3789 114.621C59.0039 114.621 58.3945 114.75 57.5508 115.008C56.707 115.242 55.957 115.512 55.3008 115.816C53.6836 116.566 52.875 117.352 52.875 118.172C54.75 118.336 56.1562 118.418 57.0938 118.418C59.6953 118.418 61.4531 118.195 62.3672 117.75C62.9297 117.516 63.2109 117.223 63.2109 116.871C63.2109 116.449 62.9414 116.051 62.4023 115.676ZM94.8867 119.93C97.4648 119.93 98.7539 120.586 98.7539 121.898C98.7539 122.883 98.0391 124.031 96.6094 125.344C94.4766 127.289 91.6055 128.848 87.9961 130.02C87.832 130.02 87.6445 129.855 87.4336 129.527C87.2461 129.199 87.0938 128.953 86.9766 128.789C86.8828 128.602 86.8125 128.484 86.7656 128.438C89.4609 127.547 91.6758 126.469 93.4102 125.203C94.582 124.359 95.168 123.668 95.168 123.129C95.168 122.59 94.4766 122.32 93.0938 122.32C91.7109 122.32 89.6836 122.648 87.0117 123.305C85.793 123.258 84.7383 122.824 83.8477 122.004C83.0742 121.277 82.6875 120.551 82.6875 119.824C82.6875 119.074 82.8984 118.395 83.3203 117.785C83.7422 117.152 84.3047 116.566 85.0078 116.027C85.7109 115.488 86.5312 114.996 87.4688 114.551C89.7656 113.449 92.1445 112.898 94.6055 112.898C95.332 112.898 96.0352 112.969 96.7148 113.109C97.2773 113.109 97.6055 113.355 97.6992 113.848C97.793 114.34 97.8398 115.148 97.8398 116.273C96.457 115.641 94.8984 115.324 93.1641 115.324C91.0078 115.324 89.2266 115.758 87.8203 116.625C86.3672 117.469 85.6172 118.57 85.5703 119.93C85.5703 120.586 86.0508 120.914 87.0117 120.914L89.5781 120.633C91.7812 120.164 93.5508 119.93 94.8867 119.93ZM108.105 126.539C110.168 126.539 113.273 125.602 117.422 123.727C117.68 123.727 117.891 123.82 118.055 124.008C118.219 124.172 118.301 124.371 118.301 124.605C117.363 126.199 115.57 127.441 112.922 128.332C110.273 129.223 107.801 129.375 105.504 128.789C102.902 128.109 101.32 126.645 100.758 124.395C100.711 123.949 100.688 123.352 100.688 122.602C100.688 121.852 100.875 120.867 101.25 119.648C101.648 118.406 102.316 117.234 103.254 116.133C104.191 115.031 105.293 114.164 106.559 113.531C107.824 112.898 109.172 112.582 110.602 112.582C111.961 112.582 113.484 113.051 115.172 113.988C115.969 114.434 116.602 114.938 117.07 115.5C117.539 116.062 117.773 116.637 117.773 117.223C117.773 117.387 117.762 117.551 117.738 117.715C117.691 119.145 117 120.047 115.664 120.422C115.078 120.586 114.398 120.668 113.625 120.668L108.562 120.457C106.875 120.457 105.586 120.82 104.695 121.547C104.18 121.945 103.816 122.543 103.605 123.34C104.191 125.473 105.691 126.539 108.105 126.539ZM114.363 115.676C113.848 115.301 113.309 115.031 112.746 114.867C112.184 114.703 111.715 114.621 111.34 114.621C110.965 114.621 110.355 114.75 109.512 115.008C108.668 115.242 107.918 115.512 107.262 115.816C105.645 116.566 104.836 117.352 104.836 118.172C106.711 118.336 108.117 118.418 109.055 118.418C111.656 118.418 113.414 118.195 114.328 117.75C114.891 117.516 115.172 117.223 115.172 116.871C115.172 116.449 114.902 116.051 114.363 115.676ZM132.434 119.93C135.012 119.93 136.301 120.586 136.301 121.898C136.301 122.883 135.586 124.031 134.156 125.344C132.023 127.289 129.152 128.848 125.543 130.02C125.379 130.02 125.191 129.855 124.98 129.527C124.793 129.199 124.641 128.953 124.523 128.789C124.43 128.602 124.359 128.484 124.312 128.438C127.008 127.547 129.223 126.469 130.957 125.203C132.129 124.359 132.715 123.668 132.715 123.129C132.715 122.59 132.023 122.32 130.641 122.32C129.258 122.32 127.23 122.648 124.559 123.305C123.34 123.258 122.285 122.824 121.395 122.004C120.621 121.277 120.234 120.551 120.234 119.824C120.234 119.074 120.445 118.395 120.867 117.785C121.289 117.152 121.852 116.566 122.555 116.027C123.258 115.488 124.078 114.996 125.016 114.551C127.312 113.449 129.691 112.898 132.152 112.898C132.879 112.898 133.582 112.969 134.262 113.109C134.824 113.109 135.152 113.355 135.246 113.848C135.34 114.34 135.387 115.148 135.387 116.273C134.004 115.641 132.445 115.324 130.711 115.324C128.555 115.324 126.773 115.758 125.367 116.625C123.914 117.469 123.164 118.57 123.117 119.93C123.117 120.586 123.598 120.914 124.559 120.914L127.125 120.633C129.328 120.164 131.098 119.93 132.434 119.93ZM150.504 119.93C153.082 119.93 154.371 120.586 154.371 121.898C154.371 122.883 153.656 124.031 152.227 125.344C150.094 127.289 147.223 128.848 143.613 130.02C143.449 130.02 143.262 129.855 143.051 129.527C142.863 129.199 142.711 128.953 142.594 128.789C142.5 128.602 142.43 128.484 142.383 128.438C145.078 127.547 147.293 126.469 149.027 125.203C150.199 124.359 150.785 123.668 150.785 123.129C150.785 122.59 150.094 122.32 148.711 122.32C147.328 122.32 145.301 122.648 142.629 123.305C141.41 123.258 140.355 122.824 139.465 122.004C138.691 121.277 138.305 120.551 138.305 119.824C138.305 119.074 138.516 118.395 138.938 117.785C139.359 117.152 139.922 116.566 140.625 116.027C141.328 115.488 142.148 114.996 143.086 114.551C145.383 113.449 147.762 112.898 150.223 112.898C150.949 112.898 151.652 112.969 152.332 113.109C152.895 113.109 153.223 113.355 153.316 113.848C153.41 114.34 153.457 115.148 153.457 116.273C152.074 115.641 150.516 115.324 148.781 115.324C146.625 115.324 144.844 115.758 143.438 116.625C141.984 117.469 141.234 118.57 141.188 119.93C141.188 120.586 141.668 120.914 142.629 120.914L145.195 120.633C147.398 120.164 149.168 119.93 150.504 119.93ZM159.715 112.477C160.02 116.859 160.277 121.934 160.488 127.699C160.348 128.426 159.785 128.789 158.801 128.789C158.543 128.789 158.273 128.742 157.992 128.648C157.734 128.531 157.57 128.379 157.5 128.191V112.477H159.715ZM156.445 107.695C156.445 106.875 156.926 106.465 157.887 106.465C158.52 106.465 159.035 106.605 159.434 106.887C159.504 107.145 159.539 107.402 159.539 107.66C159.539 107.895 159.445 108.129 159.258 108.363C159.07 108.598 158.789 108.715 158.414 108.715C158.039 108.715 157.664 108.633 157.289 108.469C156.914 108.281 156.633 108.023 156.445 107.695ZM162.879 122.32C162.879 119.555 164.074 117.328 166.465 115.641C168.363 114.305 170.648 113.496 173.32 113.215C173.461 113.215 173.789 113.215 174.305 113.215C174.82 113.215 175.512 113.367 176.379 113.672C178.301 114.328 179.613 115.488 180.316 117.152C180.598 117.809 180.738 118.371 180.738 118.84C180.738 119.285 180.727 119.602 180.703 119.789C180.703 122.719 179.59 125.027 177.363 126.715C175.301 128.262 172.723 129.035 169.629 129.035C167.402 129.035 165.715 128.52 164.566 127.488C163.441 126.457 162.879 124.734 162.879 122.32ZM165.305 123.164C165.305 124.617 165.691 125.602 166.465 126.117C167.051 126.492 168.035 126.68 169.418 126.68C170.801 126.68 172.02 126.574 173.074 126.363C174.129 126.152 175.066 125.789 175.887 125.273C177.645 124.148 178.523 122.402 178.523 120.035C178.523 118.629 178.148 117.48 177.398 116.59C176.578 115.629 175.5 115.148 174.164 115.148C173.25 115.312 172.324 115.488 171.387 115.676C170.473 115.863 169.605 116.227 168.785 116.766C167.004 117.914 165.844 120.047 165.305 123.164ZM195.961 121.301C195.961 118.512 195.809 116.461 195.504 115.148C195.691 114.797 195.41 114.621 194.66 114.621C193.863 114.621 192.832 114.82 191.566 115.219C190.301 115.617 189.27 116.016 188.473 116.414C186.574 117.328 185.52 118.219 185.309 119.086V128.648H182.953C182.648 127.852 182.496 125.613 182.496 121.934C182.496 118.652 182.555 116.238 182.672 114.691C182.812 113.145 182.918 112.266 182.988 112.055C183.598 111.656 184.09 111.457 184.465 111.457C185.051 111.457 185.344 112.148 185.344 113.531C185.344 114.07 185.309 114.598 185.238 115.113C185.191 115.605 185.168 115.945 185.168 116.133C188.965 113.344 191.906 111.949 193.992 111.949C196.359 111.949 197.707 113.859 198.035 117.68C198.176 119.016 198.246 120.867 198.246 123.234L198.211 126.012C198.211 127.043 198.234 128.039 198.281 129C198.047 129.141 197.859 129.211 197.719 129.211C197.648 129.188 197.496 129.152 197.262 129.105C197.027 129.059 196.723 129.023 196.348 129C196.113 128.062 195.984 127.113 195.961 126.152C195.938 125.168 195.926 124.266 195.926 123.445L195.961 121.301ZM212.273 119.93C214.852 119.93 216.141 120.586 216.141 121.898C216.141 122.883 215.426 124.031 213.996 125.344C211.863 127.289 208.992 128.848 205.383 130.02C205.219 130.02 205.031 129.855 204.82 129.527C204.633 129.199 204.48 128.953 204.363 128.789C204.27 128.602 204.199 128.484 204.152 128.438C206.848 127.547 209.062 126.469 210.797 125.203C211.969 124.359 212.555 123.668 212.555 123.129C212.555 122.59 211.863 122.32 210.48 122.32C209.098 122.32 207.07 122.648 204.398 123.305C203.18 123.258 202.125 122.824 201.234 122.004C200.461 121.277 200.074 120.551 200.074 119.824C200.074 119.074 200.285 118.395 200.707 117.785C201.129 117.152 201.691 116.566 202.395 116.027C203.098 115.488 203.918 114.996 204.855 114.551C207.152 113.449 209.531 112.898 211.992 112.898C212.719 112.898 213.422 112.969 214.102 113.109C214.664 113.109 214.992 113.355 215.086 113.848C215.18 114.34 215.227 115.148 215.227 116.273C213.844 115.641 212.285 115.324 210.551 115.324C208.395 115.324 206.613 115.758 205.207 116.625C203.754 117.469 203.004 118.57 202.957 119.93C202.957 120.586 203.438 120.914 204.398 120.914L206.965 120.633C209.168 120.164 210.938 119.93 212.273 119.93ZM246.094 119.297C245.578 121.008 245.145 122.59 244.793 124.043C244.465 125.496 244.137 126.703 243.809 127.664C243.293 129.047 242.707 129.738 242.051 129.738C241.699 129.738 241.301 129.574 240.855 129.246C239.777 128.098 238.254 125.555 236.285 121.617C234.363 117.773 233.402 115.371 233.402 114.41C233.402 113.988 233.531 113.73 233.789 113.637C234.047 113.52 234.34 113.508 234.668 113.602C235.465 113.836 236.027 114.199 236.355 114.691C236.52 114.926 236.719 115.336 236.953 115.922L237.832 118.102C238.816 120.562 239.789 122.812 240.75 124.852C241.266 124.055 241.758 123.023 242.227 121.758L243.316 118.734C244.254 116.086 245.098 114.738 245.848 114.691C246.434 114.316 248.191 116.391 251.121 120.914C252.363 122.836 253.137 123.984 253.441 124.359C253.652 124.359 253.898 123.656 254.18 122.25C254.484 120.844 254.742 119.66 254.953 118.699C255.188 117.715 255.469 116.801 255.797 115.957C256.57 113.988 257.461 113.004 258.469 113.004C258.797 113.004 259.02 113.121 259.137 113.355C259.277 113.566 259.348 113.742 259.348 113.883C259.348 114.023 259.348 114.129 259.348 114.199C259.066 114.996 258.773 115.91 258.469 116.941C258.164 117.949 257.836 118.992 257.484 120.07C257.156 121.125 256.816 122.18 256.465 123.234C256.137 124.266 255.809 125.203 255.48 126.047C254.707 127.875 254.062 128.859 253.547 129C253.148 129.188 252.504 128.73 251.613 127.629C251.215 127.113 250.793 126.504 250.348 125.801C249.902 125.098 249.434 124.371 248.941 123.621C247.746 121.746 246.797 120.305 246.094 119.297ZM265.008 112.477C265.312 116.859 265.57 121.934 265.781 127.699C265.641 128.426 265.078 128.789 264.094 128.789C263.836 128.789 263.566 128.742 263.285 128.648C263.027 128.531 262.863 128.379 262.793 128.191V112.477H265.008ZM261.738 107.695C261.738 106.875 262.219 106.465 263.18 106.465C263.812 106.465 264.328 106.605 264.727 106.887C264.797 107.145 264.832 107.402 264.832 107.66C264.832 107.895 264.738 108.129 264.551 108.363C264.363 108.598 264.082 108.715 263.707 108.715C263.332 108.715 262.957 108.633 262.582 108.469C262.207 108.281 261.926 108.023 261.738 107.695ZM267.926 115.359C267.879 114.094 267.832 112.969 267.785 111.984C267.738 110.977 267.703 110.238 267.68 109.77C267.68 109.277 267.492 108.094 267.117 106.219C267.328 105.938 267.527 105.668 267.715 105.41C267.926 105.152 268.219 105.023 268.594 105.023C269.414 105.023 270.047 108.48 270.492 115.395C270.727 119.402 270.844 123.41 270.844 127.418C270.844 128.496 270.094 129.035 268.594 129.035L268.312 129C268.312 127.781 268.277 126.223 268.207 124.324C268.137 122.426 268.078 120.773 268.031 119.367C268.008 117.961 267.973 116.625 267.926 115.359ZM273.586 115.359C273.539 114.094 273.492 112.969 273.445 111.984C273.398 110.977 273.363 110.238 273.34 109.77C273.34 109.277 273.152 108.094 272.777 106.219C272.988 105.938 273.188 105.668 273.375 105.41C273.586 105.152 273.879 105.023 274.254 105.023C275.074 105.023 275.707 108.48 276.152 115.395C276.387 119.402 276.504 123.41 276.504 127.418C276.504 128.496 275.754 129.035 274.254 129.035L273.973 129C273.973 127.781 273.938 126.223 273.867 124.324C273.797 122.426 273.738 120.773 273.691 119.367C273.668 117.961 273.633 116.625 273.586 115.359ZM306.844 123.164C305.086 125.93 302.742 127.641 299.812 128.297C299.133 128.438 298.512 128.508 297.949 128.508C297.41 128.508 296.953 128.508 296.578 128.508C296.227 128.484 295.828 128.426 295.383 128.332C294.938 128.238 294.527 128.086 294.152 127.875C293.285 127.383 292.852 126.691 292.852 125.801C292.758 125.379 292.711 124.91 292.711 124.395C292.711 123.855 292.828 123.152 293.062 122.285C293.297 121.418 293.719 120.48 294.328 119.473C294.961 118.465 295.723 117.539 296.613 116.695C298.465 114.914 300.469 113.766 302.625 113.25C303.258 113.109 303.832 113.039 304.348 113.039C304.887 113.039 305.367 113.074 305.789 113.145C307.148 113.145 308.062 114.07 308.531 115.922C308.836 117.094 309.012 118.734 309.059 120.844C309.129 122.93 309.188 124.547 309.234 125.695C309.305 126.82 309.457 127.852 309.691 128.789H307.617C307.523 128.156 307.453 127.594 307.406 127.102C307.359 126.609 307.312 126.152 307.266 125.73C307.148 124.746 307.008 123.891 306.844 123.164ZM306.703 117.715C306.703 116.355 306.035 115.676 304.699 115.676C304.535 115.652 304.371 115.641 304.207 115.641C302.496 115.641 300.691 116.461 298.793 118.102C297.902 118.852 297.141 119.695 296.508 120.633C295.57 121.969 295.102 123.164 295.102 124.219C295.102 125.602 295.898 126.422 297.492 126.68C299.602 126.633 301.617 125.672 303.539 123.797C304.359 122.977 305.039 122.086 305.578 121.125C306.328 119.836 306.703 118.699 306.703 117.715ZM314.719 114.902C317.906 113.801 320.66 113.25 322.98 113.25C325.934 113.25 327.902 114.023 328.887 115.57C329.332 116.297 329.555 117.082 329.555 117.926C329.555 119.098 329.18 120.305 328.43 121.547C327.703 122.789 326.73 123.914 325.512 124.922C322.676 127.242 319.23 128.684 315.176 129.246C315.176 129.504 315.176 129.914 315.176 130.477C315.199 131.062 315.211 131.707 315.211 132.41C315.234 133.113 315.246 133.863 315.246 134.66C315.27 135.457 315.293 136.219 315.316 136.945C315.387 138.75 315.434 139.781 315.457 140.039C315.504 140.297 315.527 140.508 315.527 140.672C315.527 141.258 315.34 141.691 314.965 141.973C314.59 142.277 314.098 142.43 313.488 142.43C313.371 142.43 313.254 142.43 313.137 142.43L312.574 114.164C312.785 113.859 313.066 113.719 313.418 113.742C313.77 113.766 314.051 113.859 314.262 114.023C314.473 114.188 314.625 114.48 314.719 114.902ZM324.984 116.133C324.211 115.734 323.379 115.535 322.488 115.535C321.621 115.535 320.754 115.617 319.887 115.781C317.918 116.156 316.465 116.988 315.527 118.277C315.105 118.887 314.895 119.637 314.895 120.527C314.895 120.621 314.895 120.715 314.895 120.809V126.891C319.723 125.812 323.145 124.312 325.16 122.391C326.332 121.289 326.918 120.152 326.918 118.98C326.918 117.738 326.273 116.789 324.984 116.133ZM334.758 114.902C337.945 113.801 340.699 113.25 343.02 113.25C345.973 113.25 347.941 114.023 348.926 115.57C349.371 116.297 349.594 117.082 349.594 117.926C349.594 119.098 349.219 120.305 348.469 121.547C347.742 122.789 346.77 123.914 345.551 124.922C342.715 127.242 339.27 128.684 335.215 129.246C335.215 129.504 335.215 129.914 335.215 130.477C335.238 131.062 335.25 131.707 335.25 132.41C335.273 133.113 335.285 133.863 335.285 134.66C335.309 135.457 335.332 136.219 335.355 136.945C335.426 138.75 335.473 139.781 335.496 140.039C335.543 140.297 335.566 140.508 335.566 140.672C335.566 141.258 335.379 141.691 335.004 141.973C334.629 142.277 334.137 142.43 333.527 142.43C333.41 142.43 333.293 142.43 333.176 142.43L332.613 114.164C332.824 113.859 333.105 113.719 333.457 113.742C333.809 113.766 334.09 113.859 334.301 114.023C334.512 114.188 334.664 114.48 334.758 114.902ZM345.023 116.133C344.25 115.734 343.418 115.535 342.527 115.535C341.66 115.535 340.793 115.617 339.926 115.781C337.957 116.156 336.504 116.988 335.566 118.277C335.145 118.887 334.934 119.637 334.934 120.527C334.934 120.621 334.934 120.715 334.934 120.809V126.891C339.762 125.812 343.184 124.312 345.199 122.391C346.371 121.289 346.957 120.152 346.957 118.98C346.957 117.738 346.312 116.789 345.023 116.133ZM358.594 126.539C360.656 126.539 363.762 125.602 367.91 123.727C368.168 123.727 368.379 123.82 368.543 124.008C368.707 124.172 368.789 124.371 368.789 124.605C367.852 126.199 366.059 127.441 363.41 128.332C360.762 129.223 358.289 129.375 355.992 128.789C353.391 128.109 351.809 126.645 351.246 124.395C351.199 123.949 351.176 123.352 351.176 122.602C351.176 121.852 351.363 120.867 351.738 119.648C352.137 118.406 352.805 117.234 353.742 116.133C354.68 115.031 355.781 114.164 357.047 113.531C358.312 112.898 359.66 112.582 361.09 112.582C362.449 112.582 363.973 113.051 365.66 113.988C366.457 114.434 367.09 114.938 367.559 115.5C368.027 116.062 368.262 116.637 368.262 117.223C368.262 117.387 368.25 117.551 368.227 117.715C368.18 119.145 367.488 120.047 366.152 120.422C365.566 120.586 364.887 120.668 364.113 120.668L359.051 120.457C357.363 120.457 356.074 120.82 355.184 121.547C354.668 121.945 354.305 122.543 354.094 123.34C354.68 125.473 356.18 126.539 358.594 126.539ZM364.852 115.676C364.336 115.301 363.797 115.031 363.234 114.867C362.672 114.703 362.203 114.621 361.828 114.621C361.453 114.621 360.844 114.75 360 115.008C359.156 115.242 358.406 115.512 357.75 115.816C356.133 116.566 355.324 117.352 355.324 118.172C357.199 118.336 358.605 118.418 359.543 118.418C362.145 118.418 363.902 118.195 364.816 117.75C365.379 117.516 365.66 117.223 365.66 116.871C365.66 116.449 365.391 116.051 364.852 115.676ZM384.715 123.164C382.957 125.93 380.613 127.641 377.684 128.297C377.004 128.438 376.383 128.508 375.82 128.508C375.281 128.508 374.824 128.508 374.449 128.508C374.098 128.484 373.699 128.426 373.254 128.332C372.809 128.238 372.398 128.086 372.023 127.875C371.156 127.383 370.723 126.691 370.723 125.801C370.629 125.379 370.582 124.91 370.582 124.395C370.582 123.855 370.699 123.152 370.934 122.285C371.168 121.418 371.59 120.48 372.199 119.473C372.832 118.465 373.594 117.539 374.484 116.695C376.336 114.914 378.34 113.766 380.496 113.25C381.129 113.109 381.703 113.039 382.219 113.039C382.758 113.039 383.238 113.074 383.66 113.145C385.02 113.145 385.934 114.07 386.402 115.922C386.707 117.094 386.883 118.734 386.93 120.844C387 122.93 387.059 124.547 387.105 125.695C387.176 126.82 387.328 127.852 387.562 128.789H385.488C385.395 128.156 385.324 127.594 385.277 127.102C385.23 126.609 385.184 126.152 385.137 125.73C385.02 124.746 384.879 123.891 384.715 123.164ZM384.574 117.715C384.574 116.355 383.906 115.676 382.57 115.676C382.406 115.652 382.242 115.641 382.078 115.641C380.367 115.641 378.562 116.461 376.664 118.102C375.773 118.852 375.012 119.695 374.379 120.633C373.441 121.969 372.973 123.164 372.973 124.219C372.973 125.602 373.77 126.422 375.363 126.68C377.473 126.633 379.488 125.672 381.41 123.797C382.23 122.977 382.91 122.086 383.449 121.125C384.199 119.836 384.574 118.699 384.574 117.715ZM406.477 116.168C405.492 115.465 404.227 115.113 402.68 115.113C401.227 115.113 399.879 115.383 398.637 115.922C396.293 116.906 394.688 118.172 393.82 119.719C393.445 120.422 393.258 121.172 393.258 121.969C393.258 122.109 393.258 122.508 393.258 123.164C393.258 123.797 393.375 124.664 393.609 125.766C393.844 126.844 393.961 127.945 393.961 129.07C393.469 129.094 393.07 129.152 392.766 129.246C392.461 129.34 392.203 129.387 391.992 129.387C391.781 129.387 391.594 129.293 391.43 129.105C391.289 128.918 391.125 128.555 390.938 128.016C390.914 127.875 390.867 127.477 390.797 126.82C390.727 126.164 390.633 125.367 390.516 124.43C390.422 123.492 390.305 122.473 390.164 121.371C390.047 120.246 389.93 119.145 389.812 118.066C389.555 115.723 389.355 114 389.215 112.898C389.215 112.336 389.625 112.055 390.445 112.055C390.938 112.055 391.324 112.266 391.605 112.688C391.887 113.086 392.109 113.555 392.273 114.094C392.438 114.609 392.543 115.125 392.59 115.641C392.66 116.156 392.719 116.52 392.766 116.73C395.859 113.965 399.703 112.582 404.297 112.582C404.812 112.582 405.352 112.594 405.914 112.617C406.055 112.594 406.23 112.582 406.441 112.582C406.652 112.582 406.863 112.723 407.074 113.004C407.332 113.332 407.461 113.73 407.461 114.199C407.461 115.371 407.133 116.027 406.477 116.168ZM440.016 128.508C439.805 128.906 439.254 129.105 438.363 129.105C437.496 129.105 437.062 128.789 437.062 128.156C437.062 125.391 437.004 123.492 436.887 122.461C436.676 120.188 436.23 118.969 435.551 118.805C433.863 118.477 432.48 118.312 431.402 118.312C430.348 118.312 429.469 118.641 428.766 119.297C428.086 119.93 427.559 120.996 427.184 122.496C426.832 123.973 426.574 126.059 426.41 128.754H423.703C423.75 127.418 423.773 126.176 423.773 125.027C423.773 123.879 423.75 122.52 423.703 120.949C423.656 119.355 423.598 117.621 423.527 115.746C423.41 113.59 423.352 111.773 423.352 110.297C423.352 108.797 423.445 107.426 423.633 106.184C423.867 105.738 424.207 105.516 424.652 105.516C425.191 105.516 425.613 105.715 425.918 106.113C426.223 106.488 426.387 106.828 426.41 107.133L426.234 112.934C426.234 115.113 426.34 116.742 426.551 117.82C428.66 116.414 430.84 115.711 433.09 115.711C433.816 115.711 434.59 115.77 435.41 115.887C437.168 116.801 438.316 117.773 438.855 118.805C439.113 119.344 439.277 119.918 439.348 120.527C439.418 121.137 439.465 121.828 439.488 122.602C439.629 125.273 439.805 127.242 440.016 128.508ZM448.488 126.539C450.551 126.539 453.656 125.602 457.805 123.727C458.062 123.727 458.273 123.82 458.438 124.008C458.602 124.172 458.684 124.371 458.684 124.605C457.746 126.199 455.953 127.441 453.305 128.332C450.656 129.223 448.184 129.375 445.887 128.789C443.285 128.109 441.703 126.645 441.141 124.395C441.094 123.949 441.07 123.352 441.07 122.602C441.07 121.852 441.258 120.867 441.633 119.648C442.031 118.406 442.699 117.234 443.637 116.133C444.574 115.031 445.676 114.164 446.941 113.531C448.207 112.898 449.555 112.582 450.984 112.582C452.344 112.582 453.867 113.051 455.555 113.988C456.352 114.434 456.984 114.938 457.453 115.5C457.922 116.062 458.156 116.637 458.156 117.223C458.156 117.387 458.145 117.551 458.121 117.715C458.074 119.145 457.383 120.047 456.047 120.422C455.461 120.586 454.781 120.668 454.008 120.668L448.945 120.457C447.258 120.457 445.969 120.82 445.078 121.547C444.562 121.945 444.199 122.543 443.988 123.34C444.574 125.473 446.074 126.539 448.488 126.539ZM454.746 115.676C454.23 115.301 453.691 115.031 453.129 114.867C452.566 114.703 452.098 114.621 451.723 114.621C451.348 114.621 450.738 114.75 449.895 115.008C449.051 115.242 448.301 115.512 447.645 115.816C446.027 116.566 445.219 117.352 445.219 118.172C447.094 118.336 448.5 118.418 449.438 118.418C452.039 118.418 453.797 118.195 454.711 117.75C455.273 117.516 455.555 117.223 455.555 116.871C455.555 116.449 455.285 116.051 454.746 115.676ZM478.055 116.168C477.07 115.465 475.805 115.113 474.258 115.113C472.805 115.113 471.457 115.383 470.215 115.922C467.871 116.906 466.266 118.172 465.398 119.719C465.023 120.422 464.836 121.172 464.836 121.969C464.836 122.109 464.836 122.508 464.836 123.164C464.836 123.797 464.953 124.664 465.188 125.766C465.422 126.844 465.539 127.945 465.539 129.07C465.047 129.094 464.648 129.152 464.344 129.246C464.039 129.34 463.781 129.387 463.57 129.387C463.359 129.387 463.172 129.293 463.008 129.105C462.867 128.918 462.703 128.555 462.516 128.016C462.492 127.875 462.445 127.477 462.375 126.82C462.305 126.164 462.211 125.367 462.094 124.43C462 123.492 461.883 122.473 461.742 121.371C461.625 120.246 461.508 119.145 461.391 118.066C461.133 115.723 460.934 114 460.793 112.898C460.793 112.336 461.203 112.055 462.023 112.055C462.516 112.055 462.902 112.266 463.184 112.688C463.465 113.086 463.688 113.555 463.852 114.094C464.016 114.609 464.121 115.125 464.168 115.641C464.238 116.156 464.297 116.52 464.344 116.73C467.438 113.965 471.281 112.582 475.875 112.582C476.391 112.582 476.93 112.594 477.492 112.617C477.633 112.594 477.809 112.582 478.02 112.582C478.23 112.582 478.441 112.723 478.652 113.004C478.91 113.332 479.039 113.73 479.039 114.199C479.039 115.371 478.711 116.027 478.055 116.168ZM487.828 126.539C489.891 126.539 492.996 125.602 497.145 123.727C497.402 123.727 497.613 123.82 497.777 124.008C497.941 124.172 498.023 124.371 498.023 124.605C497.086 126.199 495.293 127.441 492.645 128.332C489.996 129.223 487.523 129.375 485.227 128.789C482.625 128.109 481.043 126.645 480.48 124.395C480.434 123.949 480.41 123.352 480.41 122.602C480.41 121.852 480.598 120.867 480.973 119.648C481.371 118.406 482.039 117.234 482.977 116.133C483.914 115.031 485.016 114.164 486.281 113.531C487.547 112.898 488.895 112.582 490.324 112.582C491.684 112.582 493.207 113.051 494.895 113.988C495.691 114.434 496.324 114.938 496.793 115.5C497.262 116.062 497.496 116.637 497.496 117.223C497.496 117.387 497.484 117.551 497.461 117.715C497.414 119.145 496.723 120.047 495.387 120.422C494.801 120.586 494.121 120.668 493.348 120.668L488.285 120.457C486.598 120.457 485.309 120.82 484.418 121.547C483.902 121.945 483.539 122.543 483.328 123.34C483.914 125.473 485.414 126.539 487.828 126.539ZM494.086 115.676C493.57 115.301 493.031 115.031 492.469 114.867C491.906 114.703 491.438 114.621 491.062 114.621C490.688 114.621 490.078 114.75 489.234 115.008C488.391 115.242 487.641 115.512 486.984 115.816C485.367 116.566 484.559 117.352 484.559 118.172C486.434 118.336 487.84 118.418 488.777 118.418C491.379 118.418 493.137 118.195 494.051 117.75C494.613 117.516 494.895 117.223 494.895 116.871C494.895 116.449 494.625 116.051 494.086 115.676Z" fill="black"/>
</svg>
