<svg width="120" height="120" viewBox="0 0 120 120" fill="none" xmlns="http://www.w3.org/2000/svg">
<path d="M4.84213 41.4672C2.70616 37.2083 4.42709 32.0243 8.68595 29.8883L46.5355 10.9054C48.5805 9.8798 50.8407 9.75159 52.8682 10.3721L52.8682 17.2927C52.1757 15.9117 50.4947 15.3537 49.1138 16.0463L11.2643 35.0292C9.84468 35.7412 9.27103 37.4692 9.98302 38.8889L44.3309 107.374C45.0429 108.794 46.7709 109.367 48.1905 108.655L68.7257 100.267L80.1914 100.739L50.7688 113.796C46.51 115.932 41.3259 114.211 39.19 109.952L4.84213 41.4672Z" fill="#DC3686"/>
<path fill-rule="evenodd" clip-rule="evenodd" d="M66.9652 0.605815L110.946 3.28771C115.947 3.59263 119.753 7.89347 119.448 12.8939L114.788 89.3124C114.483 94.3128 110.183 98.1192 105.182 97.8143L61.2011 95.1324C56.2007 94.8275 52.3942 90.5267 52.6991 85.5263L57.359 9.10778C57.6639 4.10735 61.9648 0.300897 66.9652 0.605815Z" fill="#370C52"/>
<circle opacity="0.3" cx="86.5" cy="48.5" r="23.5" fill="#DC3686"/>
<circle opacity="0.5" cx="86.5" cy="48.5" r="20.5" fill="#DC3686"/>
<circle cx="86.5" cy="48.5" r="17.5" fill="#DC3686"/>
</svg>
