<svg width="216" height="130" viewBox="0 0 216 130" fill="none" xmlns="http://www.w3.org/2000/svg">
<path fill-rule="evenodd" clip-rule="evenodd" d="M197.5 31.7395C197.559 31.9795 197.544 32.2404 197.44 32.4851C197.12 33.2374 197.29 33.6973 197.572 34.4579C197.901 35.3468 198.351 36.5608 197.663 38.1749C196.974 39.7898 195.785 40.3056 194.917 40.6823C194.173 41.0051 193.723 41.2003 193.402 41.9517C193.082 42.7022 193.253 43.1628 193.535 43.9228C193.866 44.8077 194.316 46.0237 193.627 47.6381C192.939 49.2531 191.749 49.7684 190.882 50.1447C190.136 50.4679 189.687 50.6631 189.367 51.4133C189.112 52.0125 188.42 52.2906 187.821 52.0352C187.223 51.7794 186.945 51.0874 187.2 50.4894C187.888 48.8749 189.077 48.3595 189.945 47.9823C190.689 47.6599 191.139 47.4648 191.46 46.7138C191.78 45.9638 191.609 45.5037 191.327 44.7432C190.997 43.8564 190.546 42.6423 191.235 41.0274C191.924 39.4121 193.113 38.8962 193.98 38.5204C194.726 38.1972 195.176 38.002 195.496 37.2506C195.816 36.4987 195.646 36.0393 195.363 35.2777C195.034 34.3898 194.583 33.1756 195.272 31.5612C195.528 30.962 196.22 30.6839 196.818 30.9388C197.171 31.09 197.413 31.3929 197.5 31.7395" fill="#DDC860"/>
<path fill-rule="evenodd" clip-rule="evenodd" d="M163.943 6.27743C163.96 6.52416 163.9 6.77851 163.755 7.00141C163.309 7.68664 163.396 8.16901 163.543 8.96723C163.712 9.8997 163.945 11.1734 162.987 12.6436C162.028 14.1142 160.767 14.4157 159.847 14.636C159.058 14.8246 158.581 14.9386 158.135 15.623C157.689 16.3066 157.778 16.7898 157.924 17.5873C158.095 18.5161 158.328 19.7918 157.369 21.2621C156.41 22.733 155.15 23.0339 154.23 23.2538C153.44 23.4427 152.963 23.5569 152.518 24.2402C152.162 24.786 151.433 24.9396 150.887 24.5841C150.343 24.2283 150.189 23.4986 150.544 22.9539C151.502 21.4836 152.762 21.1823 153.682 20.9616C154.472 20.7734 154.949 20.6594 155.395 19.9754C155.841 19.2925 155.752 18.8096 155.606 18.0117C155.435 17.0811 155.202 15.8071 156.161 14.3363C157.12 12.8653 158.38 12.5636 159.3 12.3442C160.09 12.1553 160.567 12.0413 161.013 11.3569C161.459 10.6721 161.371 10.1901 161.225 9.39092C161.055 8.45945 160.822 7.18531 161.781 5.71515C162.136 5.16935 162.866 5.01566 163.411 5.37061C163.733 5.58084 163.918 5.92112 163.943 6.27743" fill="#DDC860"/>
<path fill-rule="evenodd" clip-rule="evenodd" d="M62.2016 33.9808C62.1014 34.2069 62.0707 34.4664 62.1307 34.7254C62.3158 35.522 62.0685 35.9453 61.6578 36.6453C61.1795 37.4635 60.5256 38.5809 60.9227 40.29C61.3212 42 62.4024 42.7144 63.1917 43.2361C63.869 43.6834 64.2783 43.9537 64.4634 44.7494C64.6484 45.5441 64.3997 45.9679 63.99 46.6674C63.5112 47.4816 62.8564 48.6008 63.2544 50.3103C63.652 52.0203 64.7337 52.7343 65.5229 53.2555C66.2007 53.7032 66.6096 53.9736 66.7942 54.7679C66.9417 55.4024 67.5749 55.7964 68.2089 55.6488C68.8425 55.5008 69.2364 54.8676 69.0893 54.2344C68.6913 52.5249 67.6105 51.8109 66.8212 51.2888C66.1439 50.842 65.7346 50.5716 65.5496 49.7764C65.3641 48.9821 65.6127 48.5588 66.0225 47.8588C66.5017 47.0429 67.1565 45.9255 66.7585 44.2155C66.36 42.505 65.2793 41.7906 64.49 41.2698C63.8122 40.8221 63.4029 40.5518 63.2179 39.7561C63.0328 38.96 63.2801 38.5371 63.6912 37.8363C64.1691 37.019 64.8244 35.9015 64.4259 34.192C64.2783 33.5575 63.6452 33.1635 63.0116 33.3106C62.6375 33.3981 62.3469 33.6545 62.2016 33.9808" fill="#DDC860"/>
<path fill-rule="evenodd" clip-rule="evenodd" d="M169.322 50.4733C168.993 50.6047 168.606 50.5914 168.274 50.404C167.705 50.083 167.511 49.3734 167.84 48.8197C168.729 47.325 169.984 46.9635 170.901 46.7002C171.688 46.4733 172.163 46.3366 172.576 45.6425C172.989 44.9476 172.874 44.4782 172.685 43.7011C172.463 42.7962 172.16 41.5564 173.048 40.0622C173.938 38.5667 175.193 38.2048 176.109 37.9414C176.896 37.7154 177.371 37.5782 177.785 36.8828C178.199 36.1866 178.084 35.7177 177.894 34.9401C177.673 34.0338 177.371 32.7941 178.26 31.299C178.59 30.7444 179.317 30.5556 179.886 30.8767C180.455 31.1977 180.649 31.9069 180.32 32.461C179.906 33.1569 180.02 33.6262 180.211 34.4037C180.431 35.3096 180.734 36.5498 179.845 38.0445C178.956 39.5396 177.7 39.9006 176.785 40.1648C175.998 40.3912 175.523 40.528 175.109 41.2238C174.696 41.9183 174.811 42.3872 175 43.1643C175.222 44.0697 175.525 45.3095 174.635 46.8041C173.747 48.2988 172.492 48.6602 171.575 48.924C170.789 49.1505 170.314 49.2872 169.901 49.9817C169.763 50.2122 169.557 50.3796 169.322 50.4733" fill="#E46889"/>
<path fill-rule="evenodd" clip-rule="evenodd" d="M26.5182 41.5128C26.8478 41.6443 27.234 41.6309 27.5663 41.4436C28.1349 41.1225 28.3291 40.4129 27.9999 39.8592C27.1113 38.3645 25.8566 38.0031 24.9398 37.7398C24.1524 37.5129 23.6773 37.3761 23.2647 36.6821C22.8516 35.9871 22.9661 35.5178 23.1557 34.7407C23.3773 33.8357 23.6805 32.596 22.7919 31.1017C21.9019 29.6062 20.6472 29.2443 19.7313 28.981C18.9448 28.755 18.4693 28.6178 18.0553 27.9224C17.6418 27.2261 17.7562 26.7572 17.9464 25.9797C18.167 25.0734 18.4693 23.8336 17.5807 22.3385C17.2506 21.7839 16.5234 21.5952 15.9544 21.9162C15.3854 22.2373 15.1912 22.9464 15.5204 23.5006C15.9344 24.1964 15.8199 24.6658 15.6298 25.4433C15.4091 26.3491 15.1064 27.5893 15.995 29.084C16.8845 30.5791 18.1401 30.9401 19.0556 31.2043C19.8421 31.4308 20.3176 31.5675 20.7316 32.2634C21.1447 32.9579 21.0298 33.4268 20.8401 34.2038C20.6185 35.1093 20.3158 36.349 21.2048 37.8437C22.0934 39.3383 23.3486 39.6998 24.265 39.9636C25.051 40.19 25.5265 40.3268 25.9396 41.0213C26.0773 41.2517 26.2834 41.4191 26.5182 41.5128" fill="#E46889"/>
<path fill-rule="evenodd" clip-rule="evenodd" d="M197.482 69.673C197.152 69.8044 196.766 69.7911 196.434 69.6037C195.865 69.2827 195.671 68.5735 196 68.0198C196.889 66.5251 198.144 66.1645 199.061 65.8998C199.848 65.6738 200.322 65.5366 200.735 64.8421C201.149 64.1471 201.034 63.6778 200.844 62.9007C200.622 61.9952 200.32 60.7559 201.208 59.2616C202.098 57.7665 203.352 57.4055 204.269 57.1412C205.057 56.9143 205.531 56.7771 205.944 56.0822C206.359 55.3863 206.244 54.917 206.054 54.1394C205.833 53.2335 205.53 51.9933 206.419 50.4986C206.749 49.9444 207.477 49.7552 208.046 50.0763C208.615 50.3973 208.809 51.1065 208.48 51.6607C208.066 52.3561 208.18 52.8255 208.37 53.603C208.591 54.5089 208.894 55.7491 208.005 57.2438C207.116 58.739 205.861 59.1 204.944 59.3646C204.156 59.5907 203.681 59.7283 203.269 60.4233C202.855 61.1182 202.97 61.5871 203.16 62.3638C203.381 63.2692 203.684 64.509 202.795 66.0042C201.907 67.4989 200.651 67.859 199.735 68.1237C198.949 68.3492 198.474 68.4869 198.06 69.1814C197.923 69.4123 197.716 69.5793 197.482 69.673" fill="#70BEDF"/>
<path fill-rule="evenodd" clip-rule="evenodd" d="M54.6776 60.713C55.0076 60.8445 55.3938 60.8311 55.7257 60.6437C56.2947 60.3227 56.4889 59.6135 56.1593 59.0598C55.2712 57.5651 54.016 57.2045 53.0987 56.9399C52.3118 56.7138 51.8372 56.5766 51.4242 55.8821C51.0111 55.1872 51.1256 54.7178 51.3152 53.9407C51.5372 53.0353 51.84 51.7959 50.9514 50.3017C50.0619 48.8065 48.8072 48.4455 47.8904 48.1813C47.1031 47.9544 46.6289 47.8172 46.2154 47.1222C45.801 46.4264 45.9154 45.957 46.1055 45.1795C46.3266 44.2736 46.6294 43.0333 45.7408 41.5386C45.4107 40.9844 44.6826 40.7953 44.1136 41.1163C43.5451 41.4374 43.3509 42.1465 43.6801 42.7007C44.094 43.3961 43.9796 43.8655 43.7895 44.643C43.5688 45.5489 43.2661 46.7892 44.1551 48.2839C45.0442 49.779 46.2984 50.14 47.2157 50.4047C48.0039 50.6307 48.4785 50.7684 48.8911 51.4633C49.3046 52.1583 49.1898 52.6272 49.0001 53.4038C48.7785 54.3093 48.4753 55.5491 49.3648 57.0442C50.2529 58.5389 51.5085 58.899 52.4245 59.1637C53.2109 59.3893 53.686 59.5269 54.0995 60.2214C54.2362 60.4524 54.4432 60.6193 54.6776 60.713" fill="#70BEDF"/>
<path fill-rule="evenodd" clip-rule="evenodd" d="M89.9077 37.5874C90.1729 37.8238 90.5403 37.9433 90.9163 37.8808C91.5608 37.7737 91.9858 37.1737 91.8655 36.5406C91.5421 34.8323 90.486 34.0642 89.7146 33.5018C89.0524 33.0202 88.6534 32.729 88.5028 31.9351C88.3523 31.1408 88.6204 30.7388 89.0644 30.0735C89.5827 29.2986 90.291 28.2375 89.9671 26.5295C89.6426 24.8203 88.5871 24.0519 87.8159 23.49C87.1537 23.0075 86.755 22.7164 86.6042 21.9219C86.4527 21.1263 86.7208 20.7244 87.1654 20.0588C87.683 19.2832 88.3916 18.2212 88.0679 16.5128C87.9472 15.8791 87.3278 15.4523 86.6833 15.5594C86.0392 15.6667 85.6142 16.2666 85.734 16.9C85.8851 17.695 85.6171 18.0969 85.1725 18.7626C84.6553 19.5383 83.9466 20.6003 84.2708 22.3089C84.5949 24.0179 85.65 24.7861 86.4214 25.3486C87.0849 25.8306 87.4838 26.1222 87.6338 26.9164C87.7847 27.7109 87.5163 28.1122 87.0725 28.7772C86.5546 29.5522 85.8457 30.6136 86.1701 32.3228C86.4935 34.0311 87.5502 34.7989 88.3203 35.3609C88.9822 35.8418 89.3815 36.1337 89.5326 36.9277C89.5821 37.1915 89.7195 37.4192 89.9077 37.5874" fill="#70BEDF"/>
<path fill-rule="evenodd" clip-rule="evenodd" d="M129.889 22.0287C130.057 22.3416 130.362 22.5796 130.736 22.6494C131.379 22.7692 131.983 22.3508 132.087 21.7147C132.367 19.9988 131.637 18.9158 131.105 18.1235C130.647 17.4445 130.372 17.0343 130.502 16.2368C130.632 15.4389 131.021 15.1529 131.666 14.6795C132.418 14.1287 133.447 13.3738 133.727 11.658C134.006 9.94093 133.277 8.85789 132.745 8.06615C132.288 7.38622 132.013 6.97633 132.142 6.17817C132.272 5.37874 132.662 5.09274 133.307 4.61931C134.059 4.0675 135.088 3.312 135.368 1.59584C135.471 0.959137 135.035 0.346218 134.393 0.226427C133.751 0.106929 133.146 0.525336 133.042 1.16145C132.912 1.96025 132.523 2.24625 131.878 2.71968C131.126 3.27178 130.097 4.02728 129.817 5.74374C129.537 7.46054 130.266 8.54329 130.799 9.33565C131.257 10.0155 131.532 10.426 131.402 11.2236C131.272 12.0217 130.882 12.3071 130.238 12.7802C129.486 13.3313 128.457 14.0862 128.177 15.8033C127.897 17.5192 128.627 18.6021 129.159 19.3936C129.616 20.0719 129.892 20.4827 129.762 21.2806C129.718 21.5454 129.77 21.8063 129.889 22.0287" fill="#70BEDF"/>
<path fill-rule="evenodd" clip-rule="evenodd" d="M44.4378 103.753C44.7679 103.884 45.1541 103.871 45.486 103.684C46.0549 103.363 46.2492 102.654 45.9195 102.1C45.0314 100.605 43.7763 100.245 42.859 99.9799C42.0721 99.7539 41.5975 99.6167 41.1844 98.9222C40.7714 98.2272 40.8858 97.7578 41.0755 96.9807C41.2975 96.0753 41.6002 94.8359 40.7117 93.3417C39.8222 91.8466 38.5675 91.4855 37.6507 91.2213C36.8633 90.9944 36.3892 90.8572 35.9756 90.1622C35.5612 89.4664 35.6757 88.997 35.8658 88.2195C36.0869 87.3136 36.3896 86.0734 35.501 84.5787C35.171 84.0245 34.4429 83.8353 33.8739 84.1564C33.3054 84.4774 33.1112 85.1866 33.4403 85.7408C33.8543 86.4362 33.7399 86.9055 33.5497 87.6831C33.3291 88.589 33.0264 89.8292 33.9154 91.3239C34.8044 92.819 36.0586 93.1801 36.9759 93.4447C37.7642 93.6707 38.2388 93.8084 38.6514 94.5033C39.0649 95.1983 38.95 95.6672 38.7604 96.4439C38.5388 97.3493 38.2356 98.5891 39.1251 100.084C40.0132 101.579 41.2688 101.939 42.1847 102.204C42.9712 102.429 43.4462 102.567 43.8597 103.261C43.9965 103.492 44.2035 103.659 44.4378 103.753" fill="#70BEDF"/>
<path fill-rule="evenodd" clip-rule="evenodd" d="M11.1575 57.5128C11.4876 57.6443 11.8738 57.6309 12.2057 57.4436C12.7747 57.1225 12.9689 56.4133 12.6393 55.8596C11.7511 54.3649 10.496 54.0043 9.57872 53.7397C8.79182 53.5136 8.31722 53.3764 7.90416 52.6819C7.49111 51.987 7.60554 51.5176 7.7952 50.7405C8.01723 49.8351 8.31995 48.5957 7.43138 47.1015C6.5419 45.6063 5.28723 45.2453 4.37039 44.9811C3.58303 44.7542 3.10889 44.617 2.69537 43.922C2.28095 43.2262 2.39538 42.7568 2.5855 41.9793C2.80662 41.0734 3.10934 39.8331 2.22077 38.3384C1.89069 37.7843 1.1626 37.5951 0.593621 37.9161C0.0250996 38.2372 -0.169119 38.9463 0.160049 39.5005C0.574017 40.1959 0.459583 40.6653 0.269468 41.4428C0.0488072 42.3487 -0.253917 43.589 0.63511 45.0837C1.52414 46.5788 2.77835 46.9398 3.69564 47.2045C4.48391 47.4305 4.95852 47.5682 5.37112 48.2631C5.78463 48.9581 5.66974 49.427 5.48008 50.2036C5.25851 51.1091 4.95533 52.3489 5.84481 53.844C6.73293 55.3387 7.98851 55.6989 8.90443 55.9635C9.69088 56.1891 10.1659 56.3267 10.5795 57.0213C10.7162 57.2522 10.9232 57.4191 11.1575 57.5128" fill="#70BEDF"/>
<path fill-rule="evenodd" clip-rule="evenodd" d="M135.494 35.9229C134.75 36.236 134.042 36.2613 133.465 36.2811C132.659 36.3105 132.173 36.3276 131.604 36.9214C131.153 37.3937 130.41 37.4006 129.949 36.9343C129.489 36.4694 129.483 35.708 129.936 35.2352C131.159 33.9596 132.445 33.9131 133.384 33.8795C134.189 33.8509 134.676 33.833 135.245 33.2396C135.813 32.6466 135.822 32.1467 135.837 31.319C135.855 30.3541 135.879 29.0329 137.102 27.7573C138.325 26.4808 139.61 26.4347 140.548 26.4007C141.194 26.3772 141.737 26.896 141.759 27.5589C141.782 28.2227 141.278 28.7793 140.632 28.8028C139.826 28.8318 139.339 28.8493 138.769 29.4431C138.201 30.0365 138.192 30.536 138.177 31.3641C138.16 32.3285 138.135 33.6497 136.913 34.9254C136.441 35.4179 135.96 35.7264 135.494 35.9229" fill="#315696"/>
<path fill-rule="evenodd" clip-rule="evenodd" d="M174.854 92.7232C174.109 93.0363 173.402 93.0616 172.825 93.0814C172.019 93.1108 171.532 93.1279 170.964 93.7217C170.513 94.194 169.77 94.2009 169.309 93.7346C168.849 93.2697 168.843 92.5082 169.296 92.0355C170.519 90.7598 171.805 90.7134 172.744 90.6797C173.549 90.6512 174.035 90.6333 174.605 90.0399C175.173 89.4469 175.182 88.947 175.197 88.1193C175.215 87.1544 175.239 85.8332 176.461 84.5576C177.684 83.2811 178.97 83.235 179.908 83.201C180.554 83.1775 181.096 83.6963 181.119 84.3592C181.142 85.023 180.637 85.5796 179.992 85.603C179.185 85.6321 178.699 85.6495 178.129 86.2434C177.561 86.8368 177.552 87.3363 177.537 88.1644C177.52 89.1288 177.495 90.45 176.273 91.7257C175.801 92.2182 175.32 92.5267 174.854 92.7232" fill="#315696"/>
<path fill-rule="evenodd" clip-rule="evenodd" d="M36.986 35.1231C37.7305 35.4362 38.4381 35.4615 39.0149 35.4813C39.8207 35.5107 40.3075 35.5278 40.8762 36.1216C41.327 36.5939 42.0697 36.6008 42.5308 36.1345C42.9911 35.6696 42.9969 34.9081 42.5438 34.4354C41.3212 33.1598 40.035 33.1133 39.096 33.0797C38.2907 33.0511 37.8044 33.0332 37.2352 32.4398C36.6669 31.8468 36.658 31.3469 36.6427 30.5192C36.6253 29.5543 36.6011 28.2331 35.3785 26.9575C34.1554 25.681 32.87 25.6349 31.9316 25.6009C31.2857 25.5774 30.7435 26.0962 30.7206 26.7591C30.6982 27.4229 31.2024 27.9795 31.8482 28.003C32.6545 28.032 33.1412 28.0494 33.7108 28.6433C34.2786 29.2367 34.2876 29.7362 34.3033 30.5643C34.3203 31.5287 34.3445 32.8499 35.5671 34.1256C36.0386 34.6181 36.5195 34.9266 36.986 35.1231" fill="#315696"/>
<path fill-rule="evenodd" clip-rule="evenodd" d="M18.7463 91.7633C19.4907 92.0763 20.1984 92.1016 20.7752 92.1214C21.581 92.1509 22.0677 92.1679 22.6364 92.7618C23.0873 93.2341 23.8299 93.241 24.2911 92.7746C24.7514 92.3097 24.7572 91.5483 24.3041 91.0755C23.0815 89.7999 21.7952 89.7534 20.8563 89.7198C20.0509 89.6912 19.5647 89.6733 18.9955 89.0799C18.4272 88.487 18.4182 87.987 18.403 87.1593C18.3855 86.1945 18.3613 84.8733 17.1387 83.5976C15.9156 82.3211 14.6303 82.2751 13.6918 82.241C13.046 82.2175 12.5037 82.7363 12.4809 83.3992C12.4584 84.0631 12.9626 84.6196 13.6085 84.6431C14.4147 84.6721 14.9014 84.6896 15.4711 85.2834C16.0389 85.8768 16.0479 86.3763 16.0635 87.2045C16.0806 88.1689 16.1048 89.4901 17.3274 90.7657C17.7989 91.2583 18.2798 91.5667 18.7463 91.7633" fill="#315696"/>
<path fill-rule="evenodd" clip-rule="evenodd" d="M207.862 35.1998C207.419 35.1998 206.997 34.9363 206.812 34.4963C206.564 33.9085 206.833 33.2276 207.413 32.9766C208.137 32.6625 208.574 32.4731 208.888 31.7368C209.203 31.0004 209.04 30.548 208.77 29.7984C208.455 28.9254 208.024 27.7295 208.7 26.1464C209.376 24.5624 210.531 24.062 211.374 23.697C212.098 23.3834 212.535 23.194 212.85 22.4576C213.1 21.8708 213.773 21.6015 214.351 21.8553C214.93 22.109 215.196 22.7908 214.945 23.3776C214.27 24.9616 213.115 25.462 212.271 25.827C211.548 26.1406 211.111 26.33 210.796 27.0664C210.482 27.8023 210.646 28.2547 210.916 29.0039C211.23 29.8773 211.661 31.0732 210.985 32.6563C210.309 34.2408 209.154 34.7411 208.31 35.1062C208.164 35.1696 208.012 35.1998 207.862 35.1998" fill="#D55155"/>
<path fill-rule="evenodd" clip-rule="evenodd" d="M120.107 31.6483C119.723 31.8698 119.226 31.8527 118.845 31.5642C118.337 31.179 118.23 30.4548 118.606 29.9473C119.076 29.3134 119.36 28.9308 119.264 28.1361C119.168 27.3411 118.801 27.0307 118.193 26.5164C117.483 25.9179 116.512 25.0977 116.306 23.3887C116.099 21.679 116.849 20.6683 117.397 19.9304C117.867 19.297 118.151 18.9145 118.055 18.1195C117.978 17.4862 118.427 16.9164 119.054 16.8472C119.682 16.7773 120.254 17.2348 120.33 17.8683C120.537 19.5781 119.787 20.5888 119.239 21.3267C118.769 21.96 118.485 22.3426 118.581 23.1375C118.677 23.9317 119.045 24.2419 119.653 24.7558C120.362 25.3549 121.333 26.1751 121.539 27.8843C121.746 29.5944 120.996 30.6052 120.448 31.343C120.353 31.471 120.237 31.5732 120.107 31.6483" fill="#D55155"/>
<path fill-rule="evenodd" clip-rule="evenodd" d="M61.5778 26.2398C62.021 26.2398 62.4431 25.9763 62.6282 25.5363C62.8758 24.9486 62.6067 24.2677 62.0267 24.0166C61.3027 23.7026 60.8657 23.5131 60.5516 22.7768C60.237 22.0405 60.3998 21.588 60.6697 20.8384C60.9846 19.9654 61.4155 18.7696 60.7397 17.1864C60.0638 15.6024 58.9089 15.1021 58.0655 14.737C57.342 14.4234 56.9049 14.234 56.5904 13.4977C56.3402 12.9108 55.6669 12.6416 55.0891 12.8953C54.5099 13.149 54.2439 13.8308 54.4946 14.4176C55.1704 16.0016 56.3253 16.502 57.1687 16.8671C57.8923 17.1807 58.3293 17.3701 58.6438 18.1064C58.9575 18.8423 58.7943 19.2947 58.5244 20.0439C58.2099 20.9173 57.779 22.1132 58.4553 23.6963C59.1311 25.2808 60.286 25.7811 61.1294 26.1462C61.2756 26.2096 61.4278 26.2398 61.5778 26.2398" fill="#D55155"/>
<path fill-rule="evenodd" clip-rule="evenodd" d="M51.3376 81.2798C51.7807 81.2798 52.2029 81.0164 52.3879 80.5763C52.6355 79.9886 52.3665 79.3077 51.7864 79.0566C51.0624 78.7426 50.6254 78.5532 50.3113 77.8169C49.9968 77.0805 50.1595 76.6281 50.4294 75.8784C50.7444 75.0055 51.1753 73.8096 50.4994 72.2265C49.8236 70.6425 48.6687 70.1421 47.8253 69.7771C47.1017 69.4634 46.6647 69.274 46.3502 68.5377C46.1 67.9509 45.4267 67.6816 44.8488 67.9353C44.2696 68.1891 44.0037 68.8708 44.2543 69.4577C44.9302 71.0417 46.0851 71.542 46.9285 71.9071C47.652 72.2207 48.0891 72.4101 48.4036 73.1464C48.7172 73.8823 48.5541 74.3348 48.2842 75.084C47.9696 75.9574 47.5387 77.1533 48.215 78.7364C48.8909 80.3208 50.0458 80.8212 50.8892 81.1862C51.0353 81.2497 51.1876 81.2798 51.3376 81.2798" fill="#D55155"/>
<path fill-rule="evenodd" clip-rule="evenodd" d="M157.76 35.2062C156.793 35.2062 156.007 35.993 156.007 36.96C156.007 37.9266 156.793 38.7134 157.76 38.7134C158.727 38.7134 159.514 37.9266 159.514 36.96C159.514 35.993 158.727 35.2062 157.76 35.2062ZM157.76 41.1198C155.466 41.1198 153.6 39.2536 153.6 36.96C153.6 34.6661 155.466 32.7998 157.76 32.7998C160.054 32.7998 161.92 34.6661 161.92 36.96C161.92 39.2536 160.054 41.1198 157.76 41.1198V41.1198Z" fill="#E46889"/>
<path fill-rule="evenodd" clip-rule="evenodd" d="M154.56 99.6862C153.593 99.6862 152.806 100.473 152.806 101.44C152.806 102.407 153.593 103.193 154.56 103.193C155.527 103.193 156.313 102.407 156.313 101.44C156.313 100.473 155.527 99.6862 154.56 99.6862ZM154.56 105.6C152.266 105.6 150.4 103.734 150.4 101.44C150.4 99.146 152.266 97.2798 154.56 97.2798C156.854 97.2798 158.72 99.146 158.72 101.44C158.72 103.734 156.854 105.6 154.56 105.6V105.6Z" fill="#E46889"/>
<path fill-rule="evenodd" clip-rule="evenodd" d="M105.76 12.0065C104.793 12.0065 104.007 12.7933 104.007 13.7603C104.007 14.7269 104.793 15.5137 105.76 15.5137C106.727 15.5137 107.514 14.7269 107.514 13.7603C107.514 12.7933 106.727 12.0065 105.76 12.0065ZM105.76 17.9201C103.466 17.9201 101.6 16.0538 101.6 13.7603C101.6 11.4663 103.466 9.6001 105.76 9.6001C108.054 9.6001 109.92 11.4663 109.92 13.7603C109.92 16.0538 108.054 17.9201 105.76 17.9201V17.9201Z" fill="#E46889"/>
<path fill-rule="evenodd" clip-rule="evenodd" d="M7.36025 70.8864C8.32679 70.8864 9.11358 71.6732 9.11358 72.6402C9.11358 73.6068 8.32679 74.3935 7.36025 74.3935C6.39325 74.3935 5.60646 73.6068 5.60646 72.6402C5.60646 71.6732 6.39325 70.8864 7.36025 70.8864ZM7.36025 76.8C9.65377 76.8 11.52 74.9337 11.52 72.6402C11.52 70.3462 9.65377 68.48 7.36025 68.48C5.06627 68.48 3.20002 70.3462 3.20002 72.6402C3.20002 74.9337 5.06627 76.8 7.36025 76.8V76.8Z" fill="#E46889"/>
<path fill-rule="evenodd" clip-rule="evenodd" d="M178.88 65.139C178.273 65.139 177.778 65.6327 177.778 66.24C177.778 66.8477 178.273 67.3414 178.88 67.3414C179.487 67.3414 179.982 66.8477 179.982 66.24C179.982 65.6327 179.487 65.139 178.88 65.139ZM178.88 69.7602C176.939 69.7602 175.36 68.1812 175.36 66.24C175.36 64.2992 176.939 62.7202 178.88 62.7202C180.821 62.7202 182.4 64.2992 182.4 66.24C182.4 68.1812 180.821 69.7602 178.88 69.7602V69.7602Z" fill="#D55155"/>
<path fill-rule="evenodd" clip-rule="evenodd" d="M26.5601 56.1785C27.1674 56.1785 27.6616 56.6723 27.6616 57.2795C27.6616 57.8872 27.1674 58.381 26.5601 58.381C25.9528 58.381 25.4581 57.8872 25.4581 57.2795C25.4581 56.6723 25.9528 56.1785 26.5601 56.1785ZM26.5601 60.7998C28.5014 60.7998 30.0801 59.2208 30.0801 57.2795C30.0801 55.3388 28.5014 53.7598 26.5601 53.7598C24.6192 53.7598 23.0401 55.3388 23.0401 57.2795C23.0401 59.2208 24.6192 60.7998 26.5601 60.7998V60.7998Z" fill="#D55155"/>
<path fill-rule="evenodd" clip-rule="evenodd" d="M182.08 20.9782C181.473 20.9782 180.979 21.4729 180.979 22.0801C180.979 22.6877 181.473 23.1814 182.08 23.1814C182.687 23.1814 183.182 22.6877 183.182 22.0801C183.182 21.4729 182.687 20.9782 182.08 20.9782ZM182.08 25.6001C180.139 25.6001 178.56 24.0212 178.56 22.0801C178.56 20.1394 180.139 18.5601 182.08 18.5601C184.021 18.5601 185.6 20.1394 185.6 22.0801C185.6 24.0212 184.021 25.6001 182.08 25.6001V25.6001Z" fill="#D55155"/>
<path fill-rule="evenodd" clip-rule="evenodd" d="M29.7598 12.0182C30.3671 12.0182 30.8613 12.5129 30.8613 13.1201C30.8613 13.7278 30.3671 14.2215 29.7598 14.2215C29.1525 14.2215 28.6583 13.7278 28.6583 13.1201C28.6583 12.5129 29.1525 12.0182 29.7598 12.0182ZM29.7598 16.6401C31.7011 16.6401 33.2798 15.0612 33.2798 13.1201C33.2798 11.1795 31.7011 9.6001 29.7598 9.6001C27.8189 9.6001 26.2398 11.1795 26.2398 13.1201C26.2398 15.0612 27.8189 16.6401 29.7598 16.6401V16.6401Z" fill="#D55155"/>
<path fill-rule="evenodd" clip-rule="evenodd" d="M74.7202 27.218C75.3275 27.218 75.8218 27.7126 75.8218 28.3198C75.8218 28.9275 75.3275 29.4212 74.7202 29.4212C74.113 29.4212 73.6187 28.9275 73.6187 28.3198C73.6187 27.7126 74.113 27.218 74.7202 27.218ZM74.7202 31.8398C76.6616 31.8398 78.2402 30.2609 78.2402 28.3198C78.2402 26.3792 76.6616 24.7998 74.7202 24.7998C72.7793 24.7998 71.2002 26.3792 71.2002 28.3198C71.2002 30.2609 72.7793 31.8398 74.7202 31.8398V31.8398Z" fill="#D55155"/>
<path fill-rule="evenodd" clip-rule="evenodd" d="M134.862 129.92C135.148 125.241 133.823 114.997 132.908 108.67C135.795 106.775 144.476 98.5532 145.507 96.4967C145.69 96.1305 145.519 95.4241 145.102 94.4998C143.425 90.7572 137.775 83.468 135.578 80.9602C135.16 80.479 134.871 80.1767 134.756 80.1044C134.041 79.6573 131.903 81.2327 131.235 81.7521C130.345 84.8177 129.029 87.2787 127.092 88.407C124.989 89.6374 121.885 90.4549 118.462 90.8254L118.47 90.8892C118.47 90.8892 117.193 96.9224 111.658 96.569C106.123 96.2114 105.556 90.2506 105.556 90.2506L105.594 90.1015C103.027 89.4714 100.779 88.5219 99.2038 87.2361C97.7987 86.0907 96.8318 84.4217 96.168 82.7271L96.1638 82.7229C95.3463 82.1396 86.081 75.5656 85.4726 76.3788C85.3959 76.481 85.183 76.7493 84.868 77.1537C83.0325 79.487 77.7575 86.227 75.9991 89.7354C75.5307 90.6678 75.3093 91.3746 75.4669 91.7067C76.3184 93.5162 82.5986 101.712 85.579 103.415L85.7749 103.454C84.5227 109.789 81.9088 122.239 79.2988 129.92C80.078 129.92 134.862 129.92 134.862 129.92" fill="#C53753"/>
<path fill-rule="evenodd" clip-rule="evenodd" d="M88.5935 52.5013C88.5254 53.7787 93.277 53.0676 92.4255 52.1437C91.5739 51.224 88.6403 51.7179 88.5935 52.5013" fill="#315696"/>
<path fill-rule="evenodd" clip-rule="evenodd" d="M93.1364 48.3841C91.9996 48.3841 92.6383 52.5013 93.7751 52.0756C94.243 51.8967 94.2733 48.3841 93.1364 48.3841" fill="#315696"/>
<path fill-rule="evenodd" clip-rule="evenodd" d="M127.343 52.9359C127.381 52.987 127.594 53.268 127.837 53.664C128.59 54.6688 130.204 56.4528 132.708 57.3214C132.857 57.3725 133.006 57.4236 133.159 57.4662C135.096 58.0325 140.184 57.892 140.47 55.6226C140.725 53.5618 133.231 51.152 133.231 51.152C133.231 51.152 139.971 49.947 139.758 46.7537C139.546 43.5604 133.512 45.2635 131.243 45.0506C131.243 45.0506 133.87 43.6285 132.235 41.9978C130.69 40.4522 128.901 44.1991 121.165 41.9978C115.549 40.4012 108.324 34.9002 100.234 39.1579C92.1442 43.4156 95.0522 52.5698 95.3375 53.1403C95.3375 53.1403 89.6577 52.9274 88.8785 56.7594C88.0993 60.5914 90.2282 66.4798 90.2282 66.4798L90.7643 66.5309C92.191 65.9987 93.6089 66.5352 94.5413 67.0674L94.6265 66.7651C97.5345 63.0012 95.9762 55.2692 95.9762 55.2692C95.9762 55.2692 115.732 59.4971 116.98 55.1244C117.512 53.2595 115.66 51.5777 115.438 51.3819C115.958 51.7523 125.231 58.3433 128.263 56.7594C129.233 56.2485 128.433 54.6263 127.837 53.664C127.539 53.268 127.377 52.9913 127.343 52.9359" fill="#315696"/>
<path fill-rule="evenodd" clip-rule="evenodd" d="M105.594 90.1015L105.556 90.2506C105.556 90.2506 106.122 96.2114 111.657 96.569C117.193 96.9224 118.47 90.8892 118.47 90.8892L118.461 90.8254C114.246 91.2894 109.537 91.068 105.594 90.1015" fill="#EDC2B8"/>
<path fill-rule="evenodd" clip-rule="evenodd" d="M75.4669 91.7067C75.3093 91.3746 75.5307 90.6678 75.9991 89.7354C77.7575 86.227 83.0325 79.487 84.868 77.1537C85.183 76.7493 85.3959 76.481 85.4726 76.3788C86.081 75.5656 95.3463 82.1396 96.1638 82.7229L96.168 82.7271C96.7956 84.3293 97.6995 85.9034 98.9832 87.0389C100.652 89.5787 103.111 91.1 105.955 91.9502C106.565 93.7415 108.062 96.3366 111.658 96.569C115.179 96.7939 116.976 94.4351 117.818 92.6881C119.75 92.5208 121.631 92.2738 123.366 92.026C124.644 91.6003 125.921 91.1745 126.773 90.3229C127.658 89.4373 128.1 88.4036 128.408 87.3459C129.649 86.0341 130.563 84.0662 131.235 81.7521C131.903 81.2327 134.041 79.6573 134.756 80.1044C134.871 80.1767 135.16 80.479 135.578 80.9602C137.775 83.468 143.425 90.7572 145.102 94.4998C145.519 95.4241 145.69 96.1305 145.507 96.4967C144.476 98.5532 135.795 106.775 132.908 108.67C133.823 114.997 135.148 125.241 134.862 129.92C134.862 129.92 80.078 129.92 79.2988 129.92C81.9088 122.239 84.5227 109.789 85.7749 103.454L85.579 103.415C82.5986 101.712 76.3184 93.5162 75.4669 91.7067" fill="#FF7771"/>
<path fill-rule="evenodd" clip-rule="evenodd" d="M117.818 92.6881C116.975 94.4351 115.179 96.7938 111.657 96.569C108.062 96.3366 106.564 93.7415 105.955 91.9502C109.57 93.0309 113.803 93.0351 117.818 92.6881" fill="#EDC2B8"/>
<path fill-rule="evenodd" clip-rule="evenodd" d="M98.9829 87.0389C98.988 87.047 98.9936 87.055 98.9987 87.0627C99.0659 87.1219 99.1341 87.1794 99.2035 87.236C100.779 88.5218 103.027 89.4713 105.594 90.1015C103.027 89.4713 100.779 88.5218 99.2035 87.236C99.1268 87.1734 99.057 87.104 98.9829 87.0389M128.407 87.3458C128.004 87.7725 127.567 88.1301 127.092 88.4069C124.988 89.6374 121.884 90.4548 118.461 90.8253C118.437 90.8278 118.413 90.8304 118.389 90.8329C118.413 90.8304 118.437 90.8278 118.461 90.8253C121.884 90.4548 124.988 89.6374 127.092 88.4069C127.566 88.1305 128.004 87.7737 128.406 87.3484C128.407 87.3475 128.407 87.3467 128.407 87.3458M105.697 90.1266C108.298 90.7533 111.225 91.0586 114.12 91.0586C111.225 91.0582 108.298 90.7533 105.697 90.1266" fill="#D1BDCF"/>
<path fill-rule="evenodd" clip-rule="evenodd" d="M98.9985 87.0626C100.667 89.5879 103.118 91.1023 105.954 91.9501C105.625 90.9831 105.556 90.2504 105.556 90.2504L105.594 90.1013C103.027 89.4712 100.779 88.5217 99.2033 87.2359C99.1339 87.1793 99.0658 87.1218 98.9985 87.0626M128.406 87.3483C128.004 87.7736 127.566 88.1304 127.092 88.4068C124.988 89.6373 121.884 90.4547 118.461 90.8252L118.47 90.889C118.47 90.889 118.47 90.8895 118.469 90.8899C118.463 90.9184 118.292 91.7065 117.818 92.6875C117.821 92.6875 117.823 92.6871 117.826 92.6871C119.765 92.518 124.965 91.6507 126.825 89.9502C127.749 89.1055 128.099 88.4046 128.406 87.3483" fill="#A9324E"/>
<path fill-rule="evenodd" clip-rule="evenodd" d="M105.594 90.1016V90.1016L105.556 90.2507C105.556 90.2507 105.626 90.9834 105.955 91.9503H105.955C105.971 91.9554 105.987 91.9601 106.004 91.9648C106.007 91.9657 106.009 91.9665 106.012 91.9674C108.309 92.6456 110.854 92.8926 113.431 92.8926C113.432 92.8926 113.433 92.8926 113.434 92.8926C113.434 92.8926 113.435 92.8926 113.435 92.8926C114.898 92.8926 116.372 92.813 117.818 92.6882C117.818 92.6882 117.818 92.6882 117.818 92.6878C118.292 91.7068 118.463 90.9187 118.469 90.8902C118.47 90.8897 118.47 90.8893 118.47 90.8893L118.461 90.8254C118.438 90.828 118.413 90.8306 118.389 90.8331C117.005 90.983 115.569 91.0588 114.124 91.0588H114.123C114.122 91.0588 114.121 91.0588 114.121 91.0588C111.225 91.0588 108.298 90.7535 105.698 90.1268C105.663 90.1187 105.629 90.1101 105.594 90.1016" fill="#C799A2"/>
<path fill-rule="evenodd" clip-rule="evenodd" d="M117.826 92.6871C117.823 92.6871 117.821 92.6875 117.818 92.6875C117.818 92.6879 117.818 92.6879 117.818 92.6879C117.82 92.6875 117.823 92.6875 117.826 92.6871" fill="#B4434F"/>
<path fill-rule="evenodd" clip-rule="evenodd" d="M105.955 91.9503C105.971 91.9554 105.987 91.9601 106.004 91.9648C105.987 91.9601 105.971 91.9554 105.955 91.9503M106.012 91.9674C108.31 92.6456 110.854 92.8926 113.431 92.8926C110.854 92.8926 108.309 92.6456 106.012 91.9674" fill="#C799A2"/>
<path fill-rule="evenodd" clip-rule="evenodd" d="M132.286 76.6214L132.307 76.6257C132.337 76.6555 133.968 77.6476 135.927 76.4128C138.949 74.5139 138.247 69.6302 135.573 68.536C134.011 67.8973 132.946 68.7489 132.946 68.7489H132.899C132.831 71.2993 132.652 74.0242 132.286 76.6214" fill="#EDC2B8"/>
<path fill-rule="evenodd" clip-rule="evenodd" d="M94.5411 67.067C93.6087 66.5348 92.1909 65.9983 90.7641 66.5305C90.0705 66.786 89.3803 67.2969 88.7378 68.1825C85.7574 72.2998 90.7943 79.2527 94.7327 76.2722C94.7327 76.2722 94.9154 79.5379 96.1633 82.7227L96.1676 82.727C96.8314 84.4215 97.7983 86.0906 99.2034 87.2359C100.779 88.5218 103.027 89.4712 105.594 90.1018C109.536 91.0679 114.246 91.2893 118.461 90.8252C121.884 90.4548 124.988 89.6373 127.092 88.4068C129.029 87.2785 130.344 84.8175 131.234 81.7519C131.69 80.1681 132.031 78.4267 132.286 76.6214C132.652 74.0241 132.831 71.2992 132.899 68.7488C133.074 62.6432 132.627 57.5382 132.627 57.5382L132.708 57.321C130.204 56.4525 128.59 54.6685 127.837 53.6636C128.433 54.6259 129.233 56.2481 128.262 56.759C125.231 58.3429 115.958 51.7519 115.438 51.3815C115.66 51.5773 117.512 53.2591 116.979 55.124C115.732 59.4967 95.976 55.2688 95.976 55.2688C95.976 55.2688 97.5343 63.0009 94.6263 66.7647L94.5411 67.067" fill="#EDC2B8"/>
<path fill-rule="evenodd" clip-rule="evenodd" d="M63.396 63.9547C63.2597 63.8227 60.6668 61.332 59.6406 62.307C58.5932 63.3033 64.3965 77.3368 75.8924 89.6843L75.9989 89.7354C77.7573 86.227 83.0322 79.487 84.8678 77.1537L84.8337 77.1239C84.8337 77.1239 77.1698 69.46 72.5757 63.5077C72.5757 63.5077 73.3799 59.003 72.1367 58.5219C70.8939 58.0407 69.1052 61.6002 69.1052 61.6002C69.1052 61.6002 67.0406 56.5037 65.7884 56.7762C64.537 57.0487 66.0145 61.7918 66.0145 61.7918C66.0145 61.7918 62.9825 58.326 62.0122 59.0967C61.0627 59.8503 63.3066 63.7972 63.396 63.9547" fill="#EDC2B8"/>
<path fill-rule="evenodd" clip-rule="evenodd" d="M154.452 60.5105C154.491 60.272 155.265 55.6183 154.022 55.5161C152.745 55.4097 151.361 60.7319 151.361 60.7319C151.361 60.7319 149.126 57.4321 147.955 58.0708C146.784 58.7094 148.168 63.0736 148.168 63.0736C146.248 67.1142 136.557 79.7001 135.578 80.9604C137.775 83.4682 143.425 90.7574 145.102 94.5C156.3 78.0609 162.001 61.0469 160.835 60.1996C159.698 59.3694 157.45 62.1667 157.326 62.32C157.407 62.1199 159.106 57.9473 158.067 57.3257C157.032 56.704 154.593 60.3018 154.452 60.5105" fill="#EDC2B8"/>
<path fill-rule="evenodd" clip-rule="evenodd" d="M90.0579 69.2081C90.465 69.1003 90.9044 69.048 91.3191 69.0803C91.7355 69.114 92.1425 69.2251 92.4849 69.4516C92.8327 69.6683 93.1252 69.971 93.3624 70.3236C93.4884 70.4943 93.5744 70.694 93.686 70.8788C93.7754 71.0759 93.8558 71.2786 93.9508 71.4783L93.9568 71.4906C93.9832 71.546 94.05 71.5698 94.1058 71.5434C94.1543 71.52 94.179 71.4655 94.1662 71.4153C94.1109 71.1943 94.0453 70.9746 93.981 70.7528C93.8822 70.5441 93.8031 70.3236 93.6809 70.1235C93.4505 69.713 93.109 69.3605 92.708 69.091C92.2971 68.8312 91.8092 68.7065 91.3353 68.6988C90.8584 68.6988 90.3969 68.7946 89.9694 69.002C89.9136 69.0288 89.8906 69.0961 89.9174 69.1514C89.9413 69.2008 89.9962 69.2247 90.0469 69.211L90.0579 69.2081" fill="#BB8C90"/>
<path fill-rule="evenodd" clip-rule="evenodd" d="M122.902 64.5995C122.902 65.7946 123.744 66.7637 124.782 66.7637C125.821 66.7637 126.663 65.7946 126.663 64.5995C126.663 63.4039 125.821 62.4348 124.782 62.4348C123.744 62.4348 122.902 63.4039 122.902 64.5995" fill="#131121"/>
<path fill-rule="evenodd" clip-rule="evenodd" d="M102.79 63.1444C102.79 64.3395 103.632 65.3086 104.671 65.3086C105.709 65.3086 106.551 64.3395 106.551 63.1444C106.551 61.9488 105.709 60.9797 104.671 60.9797C103.632 60.9797 102.79 61.9488 102.79 63.1444" fill="#131121"/>
<path fill-rule="evenodd" clip-rule="evenodd" d="M113.646 74.2744C108.992 73.0269 105.854 75.4751 105.398 75.8583C106.582 78.2681 109.12 80.4907 113.433 80.8015C115.877 80.9803 117.865 80.4268 119.423 79.5114L119.394 79.4518C119.394 79.4518 117.937 75.4197 113.646 74.2744" fill="#CF748B"/>
<path fill-rule="evenodd" clip-rule="evenodd" d="M105.624 69.6588C104.394 70.6381 104.159 73.3503 105.399 75.8581C105.854 75.4749 108.992 73.0267 113.646 74.2742C117.938 75.4195 119.394 79.4516 119.394 79.4516L119.424 79.5112C123.473 77.1269 124.626 72.2646 123.366 71.2938C119.607 68.3815 108.038 67.7428 105.624 69.6588" fill="#131121"/>
<path fill-rule="evenodd" clip-rule="evenodd" d="M156.884 64.5033C156.665 64.1056 156.387 63.7595 156.08 63.4346C155.771 63.1132 155.423 62.8287 155.053 62.5767C154.678 62.3319 154.279 62.1177 153.855 61.97C153.436 61.8073 152.99 61.7277 152.549 61.6851C152.487 61.6796 152.432 61.7247 152.426 61.7865C152.421 61.841 152.456 61.8903 152.506 61.9048L152.514 61.9074C152.926 62.0266 153.333 62.1381 153.715 62.3195C154.099 62.4898 154.473 62.6848 154.817 62.9288C155.17 63.1591 155.501 63.4219 155.814 63.7084C156.127 63.9911 156.424 64.3036 156.694 64.6242L156.7 64.6302C156.74 64.6775 156.811 64.6834 156.858 64.6434C156.9 64.6085 156.909 64.5493 156.884 64.5033" fill="#BB8C90"/>
<path fill-rule="evenodd" clip-rule="evenodd" d="M64.3211 66.1539C64.5476 65.8013 64.8022 65.4531 65.0756 65.1316C65.3481 64.8072 65.6431 64.5036 65.9625 64.2298C66.2716 63.9428 66.6177 63.7014 66.9758 63.4822C67.3309 63.2527 67.7205 63.0896 68.1131 62.9176L68.1207 62.9142C68.1773 62.8895 68.2033 62.8231 68.1786 62.7664C68.1565 62.7162 68.102 62.6902 68.0505 62.7021C67.6183 62.8013 67.1866 62.9384 66.7923 63.1539C66.3908 63.3557 66.0234 63.6197 65.6832 63.9105C65.3489 64.209 65.0407 64.5364 64.7754 64.8953C64.5131 65.2572 64.2832 65.6361 64.1176 66.0594C64.095 66.1168 64.1236 66.182 64.1815 66.2046C64.2321 66.2246 64.2883 66.205 64.3164 66.1607L64.3211 66.1539" fill="#BB8C90"/>
</svg>
