<svg width="161" height="195" viewBox="0 0 161 195" fill="none" xmlns="http://www.w3.org/2000/svg">
<path d="M142.898 152.551C142.865 152.551 142.832 152.551 142.832 152.551L140.454 151.955C140.388 151.922 140.322 151.889 140.322 151.822C140.289 151.756 138.241 145.597 142.634 137.22C145.772 131.26 150.661 127.386 153.766 128.38C155.054 128.81 155.913 129.704 156.21 130.863C156.508 132.154 156.045 133.545 154.955 134.638C154.724 134.869 154.327 135.201 153.832 135.598C150.859 138.147 143.856 144.107 143.096 152.352C143.096 152.418 143.063 152.451 142.997 152.485C142.964 152.551 142.931 152.551 142.898 152.551ZM140.652 151.557L142.667 152.087C143.559 143.809 150.529 137.849 153.535 135.3C153.997 134.903 154.393 134.571 154.625 134.34C155.616 133.379 156.045 132.088 155.781 130.962C155.55 129.936 154.757 129.141 153.634 128.777C150.694 127.817 146.003 131.625 142.964 137.419C138.967 145.001 140.421 150.73 140.652 151.557Z" fill="#390B52"/>
<path d="M141.544 152.22C141.544 152.22 141.511 152.22 141.544 152.22C141.412 152.22 141.313 152.12 141.313 152.021C141.147 142.386 147.787 133.114 152.246 131.194C152.345 131.161 152.478 131.194 152.511 131.293C152.544 131.393 152.511 131.525 152.411 131.558C147.985 133.445 141.544 142.849 141.709 151.988C141.709 152.087 141.643 152.186 141.544 152.22Z" fill="#390B52"/>
<path d="M140.519 151.955C140.486 151.955 140.453 151.955 140.42 151.955L138.802 151.458C138.736 151.425 138.703 151.392 138.67 151.326C138.637 151.226 135.829 142.022 137.91 129.638C138.967 123.314 142.634 117.155 146.63 115.003C148.546 113.976 150.429 113.844 152.246 114.606C153.27 115.036 153.898 115.698 154.129 116.559C154.789 118.91 152.378 122.387 149.802 126.095C148.018 128.678 146.135 131.36 145.309 133.711C145.276 133.81 145.144 133.876 145.045 133.843C144.946 133.81 144.88 133.678 144.913 133.578C145.772 131.161 147.654 128.479 149.471 125.863C151.982 122.254 154.36 118.844 153.765 116.692C153.567 115.963 153.006 115.4 152.114 115.003C150.429 114.274 148.678 114.407 146.862 115.367C142.964 117.486 139.396 123.512 138.339 129.704C136.39 141.293 138.769 150.068 139.066 151.094L140.552 151.558C140.652 151.591 140.718 151.69 140.685 151.822C140.652 151.889 140.586 151.922 140.519 151.955Z" fill="#390B52"/>
<path d="M140.123 146.094C139.991 146.094 139.892 146.028 139.892 145.896C138.67 130.996 146.961 119.075 149.438 117.023C149.537 116.956 149.669 116.956 149.735 117.056C149.801 117.155 149.801 117.287 149.702 117.354C147.291 119.373 139.132 131.128 140.321 145.862C140.321 145.962 140.222 146.061 140.123 146.094Z" fill="#390B52"/>
<path d="M32.9337 155.266C25.171 151.028 16.7478 147.551 11.9581 149.538C7.20142 151.524 7.26748 157.418 19.6546 164.868C32.8015 172.815 42.2158 174.272 47.0385 171.126C53.4468 166.954 43.1077 160.796 32.9337 155.266Z" fill="#E0E0E0"/>
<path d="M107.95 172.451L85.2236 159.339C84.596 158.975 84.596 158.379 85.2236 158.014L118.487 138.744C119.115 138.38 120.172 138.38 120.8 138.744L143.493 151.856C144.12 152.22 144.12 152.816 143.493 153.18L110.229 172.451C109.635 172.815 108.578 172.815 107.95 172.451Z" fill="#E0E0E0"/>
<path d="M88.8235 158.941L89.7154 158.478L88.9226 158.279C88.7574 158.445 88.7574 158.677 88.8235 158.941Z" fill="#390B52"/>
<path opacity="0.5" d="M88.8235 158.941L89.7154 158.478L88.9226 158.279C88.7574 158.445 88.7574 158.677 88.8235 158.941Z" fill="black"/>
<path d="M110.031 169.471C109.535 169.769 108.742 169.769 108.247 169.471L90.2773 159.074L120.37 141.923L121.064 141.525L139.033 151.624C139.529 151.922 139.529 152.386 139.033 152.651L110.031 169.471Z" fill="#390B52"/>
<path d="M104.613 149.009L97.6104 153.048L93.085 150.432L87.7998 153.479C87.7998 153.479 87.7998 156.558 87.7998 157.022C87.7998 157.485 88.3283 158.147 88.4935 158.048C88.4935 158.048 88.9229 158.147 89.5175 158.412C90.1121 158.677 90.9709 159.505 90.9709 159.505L107.091 150.466L104.613 149.009Z" fill="#390B52"/>
<path opacity="0.15" d="M104.613 149.009L97.6104 153.048L93.085 150.432L87.7998 153.479C87.7998 153.479 87.7998 156.558 87.7998 157.022C87.7998 157.485 88.3283 158.147 88.4935 158.048C88.4935 158.048 88.9229 158.147 89.5175 158.412C90.1121 158.677 90.9709 159.505 90.9709 159.505L107.091 150.466L104.613 149.009Z" fill="black"/>
<path d="M90.673 153.909V157.75C90.6399 157.75 90.6399 157.716 90.6069 157.716C90.4087 157.584 90.0784 157.452 89.7481 157.452C89.5169 157.452 89.3187 157.485 89.1865 157.584V153.048L90.673 153.909Z" fill="#37474F"/>
<path d="M91.6648 159.074C91.6648 158.843 91.5657 158.611 91.4005 158.412C91.3345 158.313 91.2354 158.214 91.1693 158.114C91.1363 158.081 91.1033 158.048 91.0702 158.048C91.0372 158.015 91.0042 157.982 90.9711 157.949C90.9381 157.916 90.9051 157.916 90.872 157.882C90.806 157.849 90.7399 157.783 90.6738 157.75V153.942L91.6648 154.505V154.472V159.074Z" fill="#E0E0E0"/>
<path opacity="0.4" d="M87.7996 157.021C87.7996 157.484 88.3281 158.147 88.4933 158.047L89.187 157.584V154.67L88.4933 153.445L88.0969 153.312L87.7666 153.511C87.7996 153.478 87.7996 156.557 87.7996 157.021Z" fill="black"/>
<path d="M109.139 164.57V168.941C108.908 168.941 108.71 168.908 108.545 168.809L106.331 167.517L91.665 159.041V154.472L109.139 164.57Z" fill="#EBEBEB"/>
<path d="M138.571 148.147V151.458C138.571 151.823 138.306 152.319 137.976 152.485L111.946 167.55L109.733 168.842C109.568 168.941 109.37 168.974 109.139 168.974V165.1L138.571 148.147Z" fill="#F5F5F5"/>
<path d="M120.369 136.26L90.2768 153.677C90.2768 153.677 90.2768 153.842 90.2768 154.074C90.2768 154.306 89.9796 154.372 89.5832 154.173C89.1868 153.942 88.8895 153.677 88.8895 153.279L88.8564 152.882L119.544 135.134L119.676 135.068C119.709 135.134 119.742 135.201 119.742 135.267V135.466C119.676 135.664 120.006 136.028 120.369 136.26Z" fill="#390B52"/>
<path opacity="0.1" d="M120.369 136.26L90.2768 153.677C90.2768 153.677 90.2768 153.842 90.2768 154.074C90.2768 154.306 89.9796 154.372 89.5832 154.173C89.1868 153.942 88.8895 153.677 88.8895 153.279L88.8564 152.882L119.544 135.134L119.676 135.068C119.709 135.134 119.742 135.201 119.742 135.267V135.466C119.676 135.664 120.006 136.028 120.369 136.26Z" fill="black"/>
<path d="M108.247 164.074L90.7071 153.942C90.4428 153.81 90.2446 153.71 90.1455 153.743L90.2776 153.677L120.37 136.261C120.37 136.261 120.535 136.161 120.734 136.062C120.932 135.963 121.361 135.996 121.691 136.194L139.067 146.227C139.562 146.525 139.562 146.989 139.067 147.254L110.064 164.041C109.536 164.339 108.743 164.339 108.247 164.074Z" fill="#390B52"/>
<path d="M119.643 135.069L119.511 135.135L88.8241 152.882C88.8241 152.882 88.791 152.849 88.758 152.783C88.725 152.75 88.6919 152.75 88.6589 152.717L88.4277 152.584C88.3286 152.551 88.2625 152.485 88.1634 152.419C88.0313 152.353 87.9322 152.353 87.8001 152.452L87.767 152.485C87.734 152.518 87.701 152.551 87.6679 152.617C87.6349 152.684 87.6019 152.717 87.6019 152.783C87.5688 152.849 87.5688 152.915 87.5358 152.982C87.5028 153.048 87.5028 153.147 87.5028 153.213C87.5028 153.247 87.5028 153.313 87.4697 153.346C87.4697 153.379 87.4697 153.412 87.4697 153.445C87.4697 153.545 87.4697 153.611 87.4697 153.71V152.849C87.4697 152.386 87.8661 151.757 88.3616 151.459L117.397 134.671C117.893 134.373 118.619 134.34 118.983 134.572L119.346 134.771C119.379 134.804 119.445 134.837 119.511 134.87C119.577 134.969 119.61 135.002 119.643 135.069Z" fill="#390B52"/>
<path d="M108.247 169.471L107.025 168.742L90.938 159.471C90.938 159.239 90.8389 159.008 90.6737 158.809C90.4755 158.511 90.1452 158.279 89.8809 158.114C89.6827 157.981 89.3524 157.849 89.0221 157.849C88.7908 157.849 88.5926 157.915 88.4605 158.047C88.3284 157.882 88.1302 157.286 88.1302 156.524H87.4365C87.4365 157.485 87.7338 158.445 88.1302 158.643L88.4936 158.842C88.6917 158.941 88.8569 158.975 88.8569 158.842V158.643C88.8569 158.445 89.1872 158.445 89.5506 158.677C89.947 158.908 90.2443 159.239 90.2443 159.471V159.67C90.2443 159.769 90.5085 160.001 90.8389 160.2L106.331 169.14L108.247 170.232C108.511 170.365 108.808 170.431 109.139 170.431V169.636C108.842 169.669 108.511 169.603 108.247 169.471Z" fill="#390B52"/>
<path opacity="0.3" d="M108.247 169.471L107.025 168.742L90.938 159.471C90.938 159.239 90.8389 159.008 90.6737 158.809C90.4755 158.511 90.1452 158.279 89.8809 158.114C89.6827 157.981 89.3524 157.849 89.0221 157.849C88.7908 157.849 88.5926 157.915 88.4605 158.047C88.3284 157.882 88.1302 157.286 88.1302 156.524H87.4365C87.4365 157.485 87.7338 158.445 88.1302 158.643L88.4936 158.842C88.6917 158.941 88.8569 158.975 88.8569 158.842V158.643C88.8569 158.445 89.1872 158.445 89.5506 158.677C89.947 158.908 90.2443 159.239 90.2443 159.471V159.67C90.2443 159.769 90.5085 160.001 90.8389 160.2L106.331 169.14L108.247 170.232C108.511 170.365 108.808 170.431 109.139 170.431V169.636C108.842 169.669 108.511 169.603 108.247 169.471Z" fill="black"/>
<path d="M108.247 164.074L107.025 163.379L95.1663 156.525L90.7069 153.942C90.3766 153.744 90.1454 153.677 90.1123 153.777V153.975C90.1123 154.207 89.782 154.207 89.4186 153.975C89.0553 153.744 88.8901 153.479 88.8571 153.28V153.048C88.8571 152.949 88.8241 152.816 88.758 152.783C88.725 152.75 88.6919 152.75 88.6589 152.717C88.5928 152.684 88.5268 152.651 88.4277 152.585C88.3286 152.552 88.2625 152.485 88.1634 152.419C88.0313 152.353 87.9322 152.353 87.8001 152.452L87.767 152.485C87.734 152.518 87.734 152.552 87.701 152.585L87.6679 152.618C87.6349 152.684 87.6019 152.717 87.6019 152.783C87.5688 152.85 87.5688 152.916 87.5358 152.982C87.5028 153.048 87.5028 153.148 87.5028 153.214C87.5028 153.247 87.5028 153.313 87.4697 153.346C87.4697 153.379 87.4697 153.412 87.4697 153.446C87.4697 153.545 87.4697 153.611 87.4697 153.71V156.459H88.1634V153.71C88.1634 153.644 88.1634 153.578 88.1634 153.512L88.1964 153.346C88.1964 153.346 88.1964 153.346 88.1964 153.313C88.2625 153.876 88.791 154.34 89.2535 154.604C89.4517 154.737 89.782 154.869 90.0793 154.869C90.3105 154.869 90.5417 154.77 90.7069 154.638L90.773 154.671C90.806 154.704 90.839 154.704 90.9051 154.737L106.397 163.677L108.313 164.77C108.544 164.902 108.875 164.968 109.205 164.968V164.174C108.809 164.273 108.511 164.207 108.247 164.074Z" fill="#390B52"/>
<path opacity="0.3" d="M108.247 164.074L107.025 163.379L95.1663 156.525L90.7069 153.942C90.3766 153.744 90.1454 153.677 90.1123 153.777V153.975C90.1123 154.207 89.782 154.207 89.4186 153.975C89.0553 153.744 88.8901 153.479 88.8571 153.28V153.048C88.8571 152.949 88.8241 152.816 88.758 152.783C88.725 152.75 88.6919 152.75 88.6589 152.717C88.5928 152.684 88.5268 152.651 88.4277 152.585C88.3286 152.552 88.2625 152.485 88.1634 152.419C88.0313 152.353 87.9322 152.353 87.8001 152.452L87.767 152.485C87.734 152.518 87.734 152.552 87.701 152.585L87.6679 152.618C87.6349 152.684 87.6019 152.717 87.6019 152.783C87.5688 152.85 87.5688 152.916 87.5358 152.982C87.5028 153.048 87.5028 153.148 87.5028 153.214C87.5028 153.247 87.5028 153.313 87.4697 153.346C87.4697 153.379 87.4697 153.412 87.4697 153.446C87.4697 153.545 87.4697 153.611 87.4697 153.71V156.459H88.1634V153.71C88.1634 153.644 88.1634 153.578 88.1634 153.512L88.1964 153.346C88.1964 153.346 88.1964 153.346 88.1964 153.313C88.2625 153.876 88.791 154.34 89.2535 154.604C89.4517 154.737 89.782 154.869 90.0793 154.869C90.3105 154.869 90.5417 154.77 90.7069 154.638L90.773 154.671C90.806 154.704 90.839 154.704 90.9051 154.737L106.397 163.677L108.313 164.77C108.544 164.902 108.875 164.968 109.205 164.968V164.174C108.809 164.273 108.511 164.207 108.247 164.074Z" fill="black"/>
<path d="M139.429 146.724V147.551C139.429 147.75 139.297 147.916 139.066 148.048L111.946 163.743L110.031 164.835C109.766 164.968 109.469 165.034 109.139 165.034V164.239C109.469 164.239 109.799 164.173 110.031 164.041L111.253 163.345L139.066 147.253C139.33 147.121 139.429 146.922 139.429 146.724Z" fill="#390B52"/>
<path opacity="0.2" d="M139.429 146.724V147.551C139.429 147.75 139.297 147.916 139.066 148.048L111.946 163.743L110.031 164.835C109.766 164.968 109.469 165.034 109.139 165.034V164.239C109.469 164.239 109.799 164.173 110.031 164.041L111.253 163.345L139.066 147.253C139.33 147.121 139.429 146.922 139.429 146.724Z" fill="black"/>
<path d="M139.429 152.121V152.949C139.429 153.147 139.297 153.313 139.066 153.445L111.946 169.14L110.031 170.233C109.766 170.365 109.469 170.431 109.139 170.431V169.637C109.469 169.637 109.799 169.571 110.031 169.438L111.253 168.743L139.066 152.651C139.33 152.518 139.429 152.32 139.429 152.121Z" fill="#390B52"/>
<path opacity="0.2" d="M139.429 152.121V152.949C139.429 153.147 139.297 153.313 139.066 153.445L111.946 169.14L110.031 170.233C109.766 170.365 109.469 170.431 109.139 170.431V169.637C109.469 169.637 109.799 169.571 110.031 169.438L111.253 168.743L139.066 152.651C139.33 152.518 139.429 152.32 139.429 152.121Z" fill="black"/>
<path d="M88.8242 150.101L110.229 162.253L141.478 144.274L120.106 132.089L88.8242 150.101Z" fill="#390B52"/>
<path opacity="0.2" d="M88.8242 150.101L110.229 162.253L141.478 144.274L120.106 132.089L88.8242 150.101Z" fill="white"/>
<path d="M110.428 161.425L89.7163 149.572C90.1787 148.214 90.1457 146.625 89.6172 144.837L110.229 156.591C110.229 156.591 110.56 157.717 110.428 161.425Z" fill="#F5F5F5"/>
<path d="M109.271 155.101C110.229 155.664 111.022 157.021 111.022 158.114V161.657C111.022 162.783 110.229 163.213 109.271 162.65L88.8242 150.929V150.068L109.04 161.558C109.635 161.889 110.097 161.624 110.097 160.962V157.684C110.097 157.021 109.635 156.194 109.04 155.863L88.8573 144.34V143.346L109.271 155.101Z" fill="#390B52"/>
<path opacity="0.4" d="M109.271 155.101C110.229 155.664 111.022 157.021 111.022 158.114V161.657C111.022 162.783 110.229 163.213 109.271 162.65L88.8242 150.929V150.068L109.04 161.558C109.635 161.889 110.097 161.624 110.097 160.962V157.684C110.097 157.021 109.635 156.194 109.04 155.863L88.8573 144.34V143.346L109.271 155.101Z" fill="white"/>
<path d="M88.8242 143.38L120.106 125.4L140.553 137.122C141.511 137.685 142.304 139.042 142.304 140.135V143.678C142.304 144.241 142.106 144.638 141.775 144.803L110.527 162.783C110.857 162.584 111.055 162.22 111.055 161.657V158.114C111.055 156.988 110.262 155.631 109.304 155.101L88.8242 143.38Z" fill="#390B52"/>
<path opacity="0.85" d="M88.8242 143.38L120.106 125.4L140.553 137.122C141.511 137.685 142.304 139.042 142.304 140.135V143.678C142.304 144.241 142.106 144.638 141.775 144.803L110.527 162.783C110.857 162.584 111.055 162.22 111.055 161.657V158.114C111.055 156.988 110.262 155.631 109.304 155.101L88.8242 143.38Z" fill="white"/>
<path d="M110.526 156.392C110.857 156.955 111.055 157.551 111.055 158.114V161.657C111.055 162.22 110.857 162.617 110.526 162.783L141.808 144.803C142.138 144.605 142.337 144.241 142.337 143.678V140.135C142.337 139.572 142.138 138.976 141.808 138.413L110.526 156.392Z" fill="#390B52"/>
<path opacity="0.6" d="M110.526 156.392C110.857 156.955 111.055 157.551 111.055 158.114V161.657C111.055 162.22 110.857 162.617 110.526 162.783L141.808 144.803C142.138 144.605 142.337 144.241 142.337 143.678V140.135C142.337 139.572 142.138 138.976 141.808 138.413L110.526 156.392Z" fill="white"/>
<path d="M137.679 140.764C138.241 143.247 138.241 145.366 137.679 147.187L136.226 148.015C136.787 146.194 136.787 144.075 136.226 141.591L137.679 140.764Z" fill="white"/>
<path d="M116.902 152.783C117.463 155.266 117.463 157.386 116.902 159.207L115.448 160.034C116.01 158.213 116.01 156.094 115.448 153.611L116.902 152.783Z" fill="white"/>
<path opacity="0.3" d="M109.304 145.134C112.244 146.823 117.034 146.823 119.973 145.134C122.913 143.445 122.913 140.664 119.973 138.975C117.034 137.287 112.244 137.287 109.304 138.975C106.331 140.664 106.331 143.412 109.304 145.134Z" fill="#390B52"/>
<path d="M112.904 129.837C111.583 129.704 109.271 129.473 107.322 132.188C105.142 135.267 106.034 139.704 108.247 141.889C110.989 144.638 115.877 145.598 119.247 143.446C122.946 141.062 124.102 135.565 122.352 132.784C120.568 130.002 117.1 130.102 116.175 130.334C114.754 130.632 113.928 129.936 112.904 129.837Z" fill="#390B52"/>
<path opacity="0.1" d="M117.529 142.452C113.797 143.744 109.238 142.353 106.794 139.704C107.157 140.532 107.653 141.293 108.247 141.856C110.989 144.605 115.878 145.565 119.247 143.413C122.055 141.625 123.409 138.015 123.112 135.168C123.112 135.963 121.626 141.029 117.529 142.452Z" fill="black"/>
<g opacity="0.1">
<path opacity="0.1" d="M111.352 130.764C110.526 130.533 109.138 131.096 108.313 132.155C107.256 133.446 106.826 135.466 106.826 136.989C106.826 140.069 109.436 142.122 109.766 141.89C110.096 141.691 108.346 139.373 109.997 136.592C111.649 133.811 112.706 131.129 111.352 130.764Z" fill="white"/>
</g>
<g opacity="0.1">
<path opacity="0.1" d="M110.592 131.129C109.667 131.261 108.445 132.486 108.015 133.413C107.586 134.34 107.586 135.036 107.718 135.168C107.916 135.4 109.964 134.009 110.658 133.314C111.682 132.387 112.078 130.897 110.592 131.129Z" fill="white"/>
</g>
<path opacity="0.2" d="M113.829 132.618C113.433 132.155 113.036 131.923 112.706 132.42C112.376 132.949 113.466 134.009 114.886 133.843C116.306 133.678 116.934 132.883 117 132.42C117 132.42 116.207 133.281 115.282 133.247C114.655 133.214 114.06 132.85 113.829 132.618Z" fill="black"/>
<path d="M114.952 133.512C114.952 133.512 115.282 131.525 114.985 129.671C114.655 127.817 113.796 126.393 113.499 126.228C113.234 126.029 112.739 125.863 112.045 125.764C111.352 125.665 110.427 125.996 110.625 126.294C110.823 126.592 111.781 126.989 112.805 128.314C113.829 129.671 114.622 132.088 114.391 133.413C114.391 133.413 114.622 133.611 114.952 133.512Z" fill="#37474F"/>
<path d="M113.466 126.194C113.433 126.194 113.433 126.161 113.4 126.161C113.103 125.996 112.673 125.863 112.079 125.764C111.55 125.698 110.922 125.83 110.691 126.062C110.625 126.161 110.757 126.327 111.352 126.526C111.98 126.724 112.64 126.79 113.235 126.658C113.532 126.559 113.664 126.327 113.466 126.194Z" fill="#455A64"/>
<path opacity="0.1" d="M114.423 131.128C114.126 129.473 112.705 127.85 111.648 127.089C111.979 127.387 112.408 127.751 112.805 128.281C113.829 129.638 114.621 132.055 114.39 133.38C114.39 133.38 114.621 133.612 114.952 133.479C114.952 133.479 115.018 133.016 115.084 132.287C114.952 132.949 114.687 132.685 114.423 131.128Z" fill="black"/>
<path d="M115.084 130.698C115.91 130.996 117.364 130.929 118.321 130.035C119.511 128.943 119.147 127.188 119.147 127.188C119.147 127.188 117.694 126.592 116.306 127.585C115.349 128.247 114.952 129.903 115.084 130.698Z" fill="#390B52"/>
<path opacity="0.3" d="M115.084 130.698C115.91 130.996 117.364 130.929 118.321 130.035C119.511 128.943 119.147 127.188 119.147 127.188C119.147 127.188 117.694 126.592 116.306 127.585C115.349 128.247 114.952 129.903 115.084 130.698Z" fill="black"/>
<path d="M119.18 127.155C119.18 127.155 117.727 126.559 116.34 127.552C115.349 128.281 114.919 129.936 115.084 130.698C116.307 128.38 119.18 127.155 119.18 127.155Z" fill="#390B52"/>
<path opacity="0.2" d="M63.158 156.491L92.9202 173.742L97.5118 174.669C97.6439 174.702 97.7099 174.569 97.6769 174.47L96.2235 171.821L66.4613 154.57C65.5694 154.04 62.4313 156.06 63.158 156.491Z" fill="black"/>
<path d="M66.1311 151.954C66.1642 151.954 66.2302 151.988 66.2633 151.988L65.999 151.855L65.966 151.822C65.9329 151.822 65.9329 151.822 65.8999 151.789H65.8669H65.8338H65.7678C65.7348 151.789 65.7017 151.789 65.7017 151.789C65.5366 151.789 65.3384 151.855 65.1402 151.954C64.4465 152.352 63.918 153.312 63.918 154.107C63.918 154.206 63.918 154.305 63.951 154.405C63.951 154.438 63.951 154.438 63.951 154.471V154.504C63.951 154.537 63.951 154.537 63.984 154.57C64.0171 154.637 64.0501 154.703 64.0831 154.769C64.0831 154.769 64.1492 154.868 64.2813 154.934L64.5786 155.1C64.5456 155.067 64.4795 155.034 64.4465 155.001C64.6447 155.034 64.8759 155.001 65.1402 154.835C65.8338 154.438 66.3624 153.478 66.3624 152.683C66.3624 152.352 66.2633 152.12 66.1311 151.954Z" fill="#390B52"/>
<path d="M94.8035 168.544L93.0528 171.59L92.7555 171.424L64.5128 155.067C64.4797 155.034 64.4137 155.001 64.3806 154.968C64.2485 154.803 64.1494 154.571 64.1494 154.273C64.1494 153.478 64.711 152.518 65.3716 152.121C65.5698 152.021 65.768 151.955 65.9332 151.955C65.9992 151.955 66.0323 151.955 66.0983 151.988C66.1314 151.988 66.1974 152.021 66.2305 152.021C66.2305 152.021 66.2305 152.021 66.2635 152.021L94.8035 168.544Z" fill="#F0F0F0"/>
<path d="M93.9449 168.643C94.6385 168.246 95.1671 168.577 95.1671 169.371C95.1671 170.166 94.6055 171.126 93.9449 171.524C93.2512 171.921 92.7227 171.59 92.7227 170.795C92.7227 170 93.2512 169.04 93.9449 168.643Z" fill="#390B52"/>
<path d="M96.5873 170.464L96.5542 170.43L94.9687 168.709L94.9357 168.676L94.9026 168.642C94.6714 168.411 94.308 168.411 93.9116 168.642C93.218 169.04 92.6895 170 92.6895 170.795C92.6895 171.258 92.8876 171.556 93.1519 171.656H93.1849C93.218 171.656 93.251 171.656 93.284 171.689H93.3171L95.5963 172.185C95.6954 172.218 95.8606 172.185 95.9927 172.086C96.3891 171.854 96.6864 171.324 96.6864 170.861C96.6864 170.695 96.6533 170.563 96.5873 170.464Z" fill="#E0E0E0"/>
<path d="M73.5967 157.55C73.5967 157.55 73.5636 157.55 73.5967 157.55L73.5636 157.517C73.4976 157.484 73.3985 157.484 73.2663 157.55C73.0351 157.682 72.8369 158.047 72.8369 158.311C72.8369 158.444 72.8699 158.51 72.936 158.576L73.0021 158.609L94.6053 171.125L95.8275 170.397L73.5967 157.55Z" fill="#455A64"/>
<path d="M92.8213 170.132L94.572 171.125L95.7942 170.397L93.4489 169.039C93.1516 169.37 92.9534 169.734 92.8213 170.132Z" fill="#37474F"/>
<path d="M97.2149 171.292L95.7945 169.735L95.7615 169.702C95.5963 169.537 95.3321 169.537 95.0678 169.702C94.5723 169.967 94.209 170.662 94.209 171.225C94.209 171.556 94.3411 171.755 94.5393 171.821H94.6054L96.6864 172.285C96.7525 172.285 96.8185 172.285 96.9176 172.252C97.1489 172.119 97.314 171.821 97.314 171.556C97.281 171.424 97.248 171.358 97.2149 171.292Z" fill="#390B52"/>
<path opacity="0.1" d="M97.2149 171.292L95.7945 169.735L95.7615 169.702C95.5963 169.537 95.3321 169.537 95.0678 169.702C94.5723 169.967 94.209 170.662 94.209 171.225C94.209 171.556 94.3411 171.755 94.5393 171.821H94.6054L96.6864 172.285C96.7525 172.285 96.8185 172.285 96.9176 172.252C97.1489 172.119 97.314 171.821 97.314 171.556C97.281 171.424 97.248 171.358 97.2149 171.292Z" fill="black"/>
<path d="M97.2809 171.523C97.2809 171.788 97.1158 172.086 96.8846 172.218C96.7855 172.251 96.7194 172.284 96.6533 172.251L95.5963 172.02C95.4311 171.986 95.332 171.821 95.332 171.589C95.332 171.192 95.6293 170.695 95.9596 170.496C96.1578 170.364 96.356 170.397 96.4551 170.496L96.4882 170.53L97.1819 171.324C97.2479 171.357 97.2809 171.424 97.2809 171.523Z" fill="#390B52"/>
<path opacity="0.1" d="M96.8847 171.291C97.1159 171.158 97.2811 171.258 97.2811 171.522C97.2811 171.787 97.1159 172.085 96.8847 172.218C96.6534 172.35 96.4883 172.251 96.4883 171.986C96.4883 171.721 96.6865 171.423 96.8847 171.291Z" fill="black"/>
<path d="M68.9054 154.868C68.8394 154.835 68.7072 154.835 68.6081 154.901C68.3769 155.034 68.1787 155.365 68.1787 155.663C68.1787 155.795 68.2117 155.895 68.3108 155.961L72.9354 158.643C72.8693 158.577 72.8363 158.51 72.8363 158.378C72.8363 158.113 73.0345 157.749 73.2657 157.616C73.3648 157.55 73.4639 157.55 73.563 157.583L68.9054 154.868Z" fill="#FAFAFA"/>
<path d="M69.0376 155.133C69.0376 155.398 68.8394 155.762 68.6081 155.895C68.476 155.961 68.3769 155.961 68.3108 155.928C68.2448 155.895 68.1787 155.795 68.1787 155.63C68.1787 155.365 68.3769 155.001 68.6081 154.868C68.7403 154.802 68.8394 154.802 68.9054 154.835C69.0045 154.901 69.0376 155.001 69.0376 155.133Z" fill="#F5F5F5"/>
<path d="M68.0801 153.279C68.0471 153.246 68.0471 153.246 68.0801 153.279L66.2303 152.22L66.1973 152.187C65.9991 152.087 65.7348 152.12 65.4376 152.286C64.8099 152.65 64.3145 153.511 64.3145 154.206C64.3145 154.571 64.4466 154.802 64.6448 154.935L66.4946 155.994C66.6928 156.094 66.957 156.094 67.2543 155.895C67.882 155.531 68.3774 154.67 68.3774 153.975C68.3774 153.644 68.2453 153.379 68.0801 153.279Z" fill="#390B52"/>
<path opacity="0.05" d="M68.0801 153.279C68.0471 153.246 68.0471 153.246 68.0801 153.279L66.2303 152.22L66.1973 152.187C65.9991 152.087 65.7348 152.12 65.4376 152.286C64.8099 152.65 64.3145 153.511 64.3145 154.206C64.3145 154.571 64.4466 154.802 64.6448 154.935L66.4946 155.994C66.6928 156.094 66.957 156.094 67.2543 155.895C67.882 155.531 68.3774 154.67 68.3774 153.975C68.3774 153.644 68.2453 153.379 68.0801 153.279Z" fill="black"/>
<path opacity="0.1" d="M67.254 153.346C67.8816 152.981 68.3771 153.279 68.3771 153.975C68.3771 154.67 67.8816 155.531 67.254 155.895C66.6263 156.259 66.1309 155.961 66.1309 155.266C66.1309 154.571 66.6594 153.677 67.254 153.346Z" fill="black"/>
<path d="M97.8088 171.954L97.0491 171.491C97.016 171.457 96.95 171.457 96.9169 171.491C96.8178 171.557 96.7188 171.722 96.7188 171.855C96.7188 171.921 96.7518 171.954 96.7848 171.987L97.5446 172.451C97.5776 172.484 97.6437 172.484 97.6767 172.484C97.8419 172.484 97.974 172.351 97.974 172.186C97.941 172.12 97.8749 172.02 97.8088 171.954Z" fill="#455A64"/>
<path d="M97.8419 171.987L97.8088 171.954C97.7758 171.954 97.7428 171.954 97.6767 171.987C97.5776 172.053 97.4785 172.219 97.4785 172.351C97.4785 172.418 97.5115 172.451 97.5446 172.484C97.5776 172.484 97.6106 172.484 97.6437 172.484C97.8088 172.484 97.941 172.351 97.941 172.186C97.941 172.12 97.9079 172.053 97.8419 171.987Z" fill="#263238"/>
<path opacity="0.2" d="M75.9748 170.795L73.0679 167.484L51.1674 154.77L50.5398 154.405L49.5489 153.809L49.4828 153.776C49.4828 153.776 49.4828 153.776 49.5158 153.776L48.5579 153.213L44.594 150.929C43.8343 150.399 42.6781 151.458 42.2487 152.551C42.1826 152.717 42.1166 152.882 42.0835 153.048C41.9844 153.478 42.0835 153.876 42.4139 154.107L45.651 155.962L46.5099 156.458L47.2366 156.889L47.3027 156.922L48.1285 157.418L48.1615 157.452L48.8552 157.849L71.119 170.795L75.3472 171.623L76.5033 171.855C76.5694 171.855 76.6024 171.855 76.6354 171.822C76.7015 171.756 76.7015 171.656 76.6354 171.59L75.9748 170.795Z" fill="black"/>
<path d="M45.9482 154.571L46.3446 154.803L46.8071 155.068L71.6805 169.504C71.5484 169.173 71.6475 168.511 71.9778 167.882C72.3742 167.153 72.9688 166.557 73.4312 166.524L48.6899 152.187L47.765 151.657C48.3596 152.021 46.5098 154.968 45.9482 154.571Z" fill="#455A64"/>
<path d="M48.6561 152.153L47.7642 151.657C47.4999 151.491 47.0375 151.955 46.6081 152.551C46.0465 153.346 45.5841 154.405 45.9474 154.604L46.6081 154.968L46.8393 155.1C46.509 154.902 46.9714 153.842 47.4999 153.048C47.8963 152.452 48.3588 152.021 48.6561 152.153C48.623 152.12 48.6561 152.153 48.6561 152.153Z" fill="#EBEBEB"/>
<path d="M48.425 152.021C47.8304 151.657 46.0136 154.604 46.6082 154.968L47.5001 155.465C46.9055 155.101 48.7223 152.154 49.3168 152.518L48.425 152.021Z" fill="#390B52"/>
<path d="M50.1426 153.014L49.2838 152.517C48.7222 152.153 46.9385 155.001 47.4009 155.431L47.434 155.464L48.3258 155.961C47.7643 155.597 49.5811 152.65 50.1426 153.014Z" fill="#EBEBEB"/>
<path d="M47.7647 151.624C47.7647 151.657 47.7647 151.657 47.7647 151.624C47.5004 151.458 47.038 151.922 46.6085 152.518C46.047 153.313 45.6176 154.339 45.9149 154.571L42.2152 152.452C41.9179 152.253 41.8519 151.889 41.9179 151.492C42.1161 150.399 43.3714 149.041 44.1641 149.604L47.7647 151.624Z" fill="#F28F8F"/>
<path d="M75.7761 169.67C75.4788 170.068 75.5119 170.299 75.5119 170.299L71.6801 169.538C71.2837 168.942 71.548 168.015 72.0765 167.352L72.2417 167.452L75.7761 169.67Z" fill="#F28F8F"/>
<path d="M76.5357 170.464L75.4786 170.266C75.4786 170.266 75.4456 170.067 75.7429 169.637L76.6348 170.199C76.7008 170.266 76.6678 170.365 76.6348 170.398C76.6348 170.464 76.6017 170.497 76.5357 170.464Z" fill="#37474F"/>
<path d="M73.4307 166.524L76.0733 169.504C75.9742 169.537 75.8751 169.571 75.809 169.637L72.2745 167.385L72.1094 167.286C72.4397 166.855 72.9022 166.524 73.4307 166.524Z" fill="#FFA8A7"/>
<path d="M75.7764 169.67C75.8424 169.571 76.0076 169.505 76.0406 169.538L76.6683 170.266L75.7764 169.67Z" fill="#455A64"/>
<path opacity="0.2" d="M72.0767 167.319L42.3145 150.598C42.1493 150.896 41.9842 151.194 41.9511 151.492C41.8851 151.889 41.9511 152.253 42.2484 152.452L45.9481 154.604L46.3445 154.836L46.8069 155.101L71.6803 169.537C71.2179 168.809 71.7133 167.716 72.0767 167.319Z" fill="black"/>
<path d="M13.3112 85.4016L20.3141 82.8189L21.206 74.2762C21.206 74.2762 16.8457 75.3689 15.8878 76.8258C14.3352 79.1767 13.1461 82.554 13.3112 85.4016Z" fill="#390B52"/>
<path opacity="0.5" d="M13.3112 85.4016L20.3141 82.8189L21.206 74.2762C21.206 74.2762 16.8457 75.3689 15.8878 76.8258C14.3352 79.1767 13.1461 82.554 13.3112 85.4016Z" fill="black"/>
<path d="M31.3803 71.6605C33.3292 71.8592 35.6084 73.5478 36.0709 74.3756C36.9297 75.8987 37.6234 95.0039 35.7406 96.825C33.3622 99.1097 22.5606 102.917 18.1013 102.255C14.4016 101.725 12.3206 99.0103 11.8581 97.9508C11.1314 96.229 15.2274 79.3754 16.6148 77.6536C18.894 74.8392 28.9029 71.4287 31.3803 71.6605Z" fill="#390B52"/>
<path opacity="0.3" d="M31.3807 71.6605C33.3296 71.8591 35.6089 73.5478 36.0713 74.3756C36.9302 75.8987 37.6238 95.0038 35.741 96.8249C33.3627 99.1096 22.5611 102.917 18.1017 102.255C14.402 101.725 12.321 99.0103 11.8586 97.9507C11.1318 96.2289 15.4261 78.8456 16.8134 77.1238C19.0926 74.3093 28.9033 71.4287 31.3807 71.6605Z" fill="black"/>
<path d="M20.1819 90.9971C21.1399 84.2093 21.0408 78.5804 21.0408 78.5804C21.2059 77.3553 20.0828 74.8719 20.0828 74.8719C18.6294 75.6004 17.4733 76.362 16.8456 77.1235C15.4583 78.8453 11.1641 96.2286 11.8908 97.9504C11.9238 98.0167 11.9568 98.0498 11.9899 98.116C11.9899 98.116 11.9899 98.116 11.9899 98.1491C12.0229 98.2153 12.0559 98.2815 12.089 98.3478C12.089 98.3478 12.089 98.3809 12.122 98.3809C12.155 98.4471 12.2211 98.5133 12.2541 98.6127C12.2541 98.6127 12.2541 98.6458 12.2872 98.6458C12.3532 98.712 12.3863 98.8113 12.4523 98.8775C12.5845 99.0431 12.7496 99.2418 12.9148 99.4404C13.0139 99.5398 13.0799 99.6391 13.179 99.7384C14.0379 100.632 15.3261 101.56 17.0108 102.023C19.3561 101.891 19.3891 96.6591 20.1819 90.9971Z" fill="#390B52"/>
<path opacity="0.4" d="M21.0411 78.5805C21.2063 77.3553 20.0832 74.872 20.0832 74.872C18.6297 75.6005 17.4736 76.362 16.846 77.1236C16.813 77.1898 16.7469 77.256 16.7139 77.3553C16.7139 77.7196 17.3085 78.5805 17.7048 78.9447C18.5967 79.7725 20.3474 80.7989 21.0411 81.0638C21.0742 79.5076 21.0411 78.5805 21.0411 78.5805Z" fill="black"/>
<path d="M14.0384 88.8447C14.1375 88.8116 15.4258 88.0501 15.5909 87.9839C15.8552 87.8845 19.1254 90.7321 19.4227 91.1625C19.6209 91.4605 18.3326 98.8443 18.1675 99.1423C18.1014 99.2417 16.681 99.8708 16.6149 100.003C16.4498 100.301 12.9814 97.3874 12.8162 96.7914C12.618 96.1623 13.642 89.0103 14.0384 88.8447Z" fill="#390B52"/>
<path opacity="0.18" d="M14.0384 88.8447C14.1375 88.8116 15.4258 88.0501 15.5909 87.9839C15.8552 87.8845 19.1254 90.7321 19.4227 91.1625C19.6209 91.4605 18.3326 98.8443 18.1675 99.1423C18.1014 99.2417 16.681 99.8708 16.6149 100.003C16.4498 100.301 12.9814 97.3874 12.8162 96.7914C12.618 96.1623 13.642 89.0103 14.0384 88.8447Z" fill="black"/>
<path d="M17.8375 92.057C18.0356 92.355 16.7474 99.7388 16.5822 100.037C16.4171 100.335 12.9487 97.4211 12.7835 96.8251C12.6183 96.1959 13.6423 89.0108 14.0387 88.8784C14.303 88.7459 17.5732 91.5935 17.8375 92.057Z" fill="#390B52"/>
<path opacity="0.4" d="M15.5584 88.0171C15.4263 88.0833 14.105 88.8449 14.0059 88.878C14.2701 88.7787 17.5403 91.6262 17.8376 92.0566L19.3901 91.1958C19.1259 90.7322 15.8226 87.9178 15.5584 88.0171Z" fill="black"/>
<path opacity="0.3" d="M17.8375 92.057C18.0356 92.355 16.7474 99.7388 16.5822 100.037C16.4171 100.335 12.9487 97.4211 12.7835 96.8251C12.6183 96.1959 13.6423 89.0108 14.0387 88.8784C14.303 88.7459 17.5732 91.5935 17.8375 92.057Z" fill="black"/>
<path d="M19.3897 91.1957C19.1584 90.997 18.2996 91.3281 17.9362 91.5599C17.5729 91.8248 17.0113 93.1493 16.1195 93.2817C15.1945 93.381 14.1045 92.0897 13.9393 91.295C13.7742 90.5004 13.642 88.911 14.1375 88.3812C14.633 87.8846 15.4258 87.6528 15.9873 88.0501C16.5489 88.4806 19.3897 90.5004 19.3897 91.1957Z" fill="#390B52"/>
<path opacity="0.1" d="M19.3897 91.1957C19.1584 90.997 18.2996 91.3281 17.9362 91.5599C17.5729 91.8248 17.0113 93.1493 16.1195 93.2817C15.1945 93.381 14.1045 92.0897 13.9393 91.295C13.7742 90.5004 13.642 88.911 14.1375 88.3812C14.633 87.8846 15.4258 87.6528 15.9873 88.0501C16.5489 88.4806 19.3897 90.5004 19.3897 91.1957Z" fill="black"/>
<path d="M15.3268 91.3278C15.525 91.4602 15.624 91.7582 15.558 91.99C15.4919 92.2218 15.3268 92.288 15.1286 92.1887C14.9304 92.0562 14.8313 91.7582 14.8973 91.5264C14.9634 91.2946 15.1616 91.1953 15.3268 91.3278Z" fill="#37474F"/>
<path d="M21.0081 81.0307C21.0081 81.0307 21.3054 80.3022 18.4316 78.0838C16.5157 76.6269 16.2845 76.9249 15.3265 78.7129C14.765 79.7394 14.2034 80.9645 13.3116 85.4014C12.9152 85.3351 12.75 84.11 13.4437 81.4942C14.5007 77.4216 15.7229 75.3356 17.9691 74.3091C23.7498 71.6602 27.6146 70.7331 31.1821 71.4285C34.5184 72.0907 36.6324 73.3158 36.4673 76.3289C36.4673 76.362 31.6115 81.6267 21.0081 81.0307Z" fill="#390B52"/>
<path opacity="0.35" d="M21.0081 81.0307C21.0081 81.0307 21.3054 80.3022 18.4316 78.0838C16.5157 76.6269 16.2845 76.9249 15.3265 78.7129C14.765 79.7394 14.2034 80.9645 13.3116 85.4014C12.9152 85.3351 12.75 84.11 13.4437 81.4942C14.5007 77.4216 15.7229 75.3356 17.9691 74.3091C23.7498 71.6602 27.6146 70.7331 31.1821 71.4285C34.5184 72.0907 36.6324 73.3158 36.4673 76.3289C36.4673 76.362 31.6115 81.6267 21.0081 81.0307Z" fill="black"/>
<path d="M25.1708 160.332C25.4351 159.272 24.4441 158.577 23.9816 157.948C23.288 156.988 23.1228 155.531 23.1558 154.405C23.2219 153.014 23.0898 152.021 23.9816 150.796C25.0387 149.339 26.4591 147.65 31.2488 143.544L25.7654 137.419C24.5102 139.306 21.273 145.962 21.273 145.962L21.0748 146.359C20.4802 147.054 20.1168 147.485 19.225 148.081L18.8946 148.246C18.3331 148.61 16.9457 148.975 16.9127 150.299C16.8797 151.624 17.3751 151.988 17.9367 153.114C18.3001 153.809 18.5313 154.173 18.5313 155.531C18.5313 156.59 18.4322 157.054 18.3992 158.014C18.3661 158.809 19.0598 160.034 20.5463 160.597C22.6603 161.458 24.9065 161.358 25.1708 160.332Z" fill="#FFD2D2"/>
<path d="M16.1199 150.299C15.7235 150.762 14.6664 152.385 14.3691 153.179L15.7895 155.431L17.1439 153.279C17.1439 153.246 16.285 151.822 16.1199 150.299Z" fill="#263238"/>
<path d="M15.8223 155.398L17.9033 155.332C17.9033 155.332 18.1015 154.604 17.7381 154.008C17.3748 153.412 17.1766 153.246 17.1766 153.246L15.8223 155.398Z" fill="black"/>
<path d="M16.5494 149.802C16.5494 149.802 16.2521 150.033 16.12 150.232C16.0209 150.431 16.087 151.821 16.4834 152.517C16.8798 153.212 17.5734 153.941 17.7056 154.901C17.8377 155.861 17.4083 157.285 17.7386 158.642C18.0689 159.967 19.2251 161.556 21.9337 161.987C23.8496 162.318 24.5763 161.953 25.237 161.589C25.5012 160.728 25.5012 160.53 24.4442 159.735C23.4532 158.973 16.5494 149.802 16.5494 149.802Z" fill="#263238"/>
<path d="M20.2487 146.458C19.3568 147.484 19.0265 147.882 18.2006 148.345C17.2097 148.875 17.0115 149.107 16.516 149.835C16.2848 150.961 16.483 151.458 17.4739 152.981C18.1346 154.007 18.3328 154.669 18.2667 156.06C18.2006 157.716 17.573 158.51 19.4889 160.298C20.9754 161.689 24.3116 161.888 25.2696 161.027C26.1284 158.775 24.1135 158.874 23.7501 156.424C23.5519 155.067 23.5189 153.742 23.9483 152.418C24.1135 151.954 24.4438 151.093 24.675 150.696C25.0053 150.133 25.3026 149.736 25.0714 149.438L24.5429 150.034C24.0474 150.133 22.8913 149.802 22.1315 149.14C20.3147 147.517 21.0084 146.425 21.0084 146.425L21.2066 146.027C21.0745 145.696 20.7772 145.862 20.2487 146.458Z" fill="#37474F"/>
<path d="M42.9423 93.9774C43.3056 97.2885 44.693 101.494 45.2876 109.308C45.8491 116.659 46.0473 120.466 45.4197 124.109C45.1885 125.4 44.4948 126.89 43.2065 128.777C39.1435 134.638 31.2158 143.81 31.2158 143.81C31.2158 143.81 29.4981 143.71 27.4831 141.922C25.5342 140.201 25.5342 137.717 25.5342 137.717C25.5342 137.717 25.7984 136.36 29.1677 130.929C32.5371 125.499 33.1647 119.539 33.1647 119.539L31.9094 95.9641C36.7982 96.5932 40.5639 95.7985 42.9423 93.9774Z" fill="#263238"/>
<path d="M27.4831 141.922C25.5342 140.201 25.5342 137.717 25.5342 137.717C25.5342 137.717 25.7984 136.36 29.1677 130.929C32.5371 125.499 33.1647 119.539 33.1647 119.539L32.2067 101.494C36.1046 101.03 41.4888 101.262 41.4888 101.262C41.4888 103.845 40.8282 106.99 37.1946 108.778C37.1946 108.778 37.4258 121.46 37.3598 125.168C37.3267 127.983 36.2697 135.135 35.7742 138.379C33.2638 141.459 31.2488 143.777 31.2488 143.777C31.2488 143.777 29.4981 143.71 27.4831 141.922Z" fill="black"/>
<path d="M33.5607 155.697L33.5937 155.134L34.5186 143.611L26.5908 145.333L28.0112 154.67L28.0442 155.167C28.0442 155.167 28.0442 157.518 31.5457 157.783C33.3625 157.882 33.5607 155.697 33.5607 155.697Z" fill="#FFD2D2"/>
<path d="M28.9365 166.061L31.7112 165.101L31.8764 162.452L29.0687 163.412L28.9365 166.061Z" fill="black"/>
<path d="M26.4919 159.935C26.3598 160.929 26.9874 164.737 26.9874 164.737L28.9363 166.061L29.0684 163.412C29.0684 163.412 29.597 163.909 30.1255 165.333C30.621 166.69 31.0504 167.683 32.3056 168.379C33.5608 169.107 34.9482 169.306 36.8641 169.14C38.2184 169.008 39.0773 168.445 39.3085 168.081C39.4076 167.915 39.4076 167.518 39.4076 167.518L26.4919 159.935Z" fill="#263238"/>
<path d="M33.5942 155.101C33.9575 155.101 33.9245 155.465 34.3209 157.684C34.6182 159.339 35.8073 162.882 36.8974 164.141C37.8553 165.233 39.6721 165.631 39.4739 167.551C38.6151 168.677 35.6422 169.008 33.9575 168.478C31.7774 167.816 31.1498 166.69 30.3239 164.538C29.6963 162.783 29.0687 162.584 28.1438 161.889C27.5492 161.425 26.7234 160.73 26.4922 159.969C26.4922 158.346 27.1198 157.287 27.3841 156.492C27.6153 155.73 27.5162 154.77 28.0447 154.671L28.0777 155.167C28.0777 155.167 28.5072 156.492 30.9516 156.624C33.396 156.757 33.5611 155.73 33.5611 155.73L33.5942 155.101Z" fill="#37474F"/>
<path d="M42.9417 93.9774C42.9417 93.9774 43.4372 98.2488 41.9508 102.09C40.6625 105.401 38.3833 107.222 36.0049 107.917C36.0049 107.917 36.2692 123.082 36.4013 125.201C36.5334 127.32 35.7737 134.936 35.1791 139.936C34.5515 144.936 34.3863 146.657 34.3863 146.657C34.3863 146.657 33.2963 147.75 30.3894 147.684C27.4826 147.618 26.5907 146.359 26.5907 146.359C26.5907 146.359 24.9721 140.499 25.0382 135.929C25.0712 133.313 25.6988 132.055 25.3024 129.439C24.906 126.824 21.768 115.169 21.3385 109.672C20.9421 104.176 21.9992 99.4076 25.93 93.9774C29.8939 96.8581 39.176 96.527 42.9417 93.9774Z" fill="#263238"/>
<path d="M27.5815 94.9049C25.4344 97.7193 22.2963 103.613 24.0801 112.288C24.5756 114.738 25.1041 117.122 25.5996 119.44C26.7557 124.837 27.6476 129.076 27.7467 130.698C27.7797 131.592 27.6806 132.42 27.5155 133.413C27.2842 134.936 27.02 136.857 27.2842 139.804C27.5485 142.552 27.9779 145.466 28.3082 147.452C28.1761 147.419 28.077 147.386 27.9779 147.32C27.6806 145.366 27.2512 142.519 26.9869 139.837C26.6897 136.857 26.9869 134.936 27.2182 133.38C27.3503 132.42 27.4824 131.592 27.4494 130.731C27.3503 129.142 26.4584 124.904 25.3023 119.54C24.8068 117.255 24.3113 114.871 23.7828 112.388C21.9991 103.646 25.1041 97.7193 27.2842 94.8055C27.3833 94.8055 27.4824 94.8387 27.5815 94.9049Z" fill="black"/>
<path d="M37.4912 73.8124C39.7044 73.7131 41.5542 74.4415 43.3049 76.5606C45.1878 78.8453 47.5 81.5273 50.2748 84.6066L56.2206 81.0638L59.1274 85.0371C59.1274 85.0371 53.0495 90.0038 50.7042 91.0964C48.9535 91.9242 48.458 91.1627 46.9385 89.9044C45.2869 88.5138 40.332 83.9113 40.332 83.9113L37.4912 73.8124Z" fill="#FFD2D2"/>
<path d="M50.2744 84.6062C48.9531 85.3015 48.0282 86.1293 47.83 87.222C47.764 85.5002 49.4486 84.4738 49.9111 84.2089L50.2744 84.6062Z" fill="#D9ADAF"/>
<path d="M62.8933 71.8923L59.7552 83.9448C59.7222 84.1435 59.524 84.3421 59.3919 84.4083L52.7193 87.289L52.4551 87.3884L55.7253 74.8723C55.7253 74.8723 55.6923 74.8723 55.6923 74.8392C55.6592 74.8061 55.6592 74.773 55.6592 74.773C55.6592 74.7399 55.6923 74.7068 55.7583 74.6737L62.6951 71.6937C62.6951 71.6937 62.6951 71.6937 62.7282 71.6937C62.7942 71.6605 62.8603 71.6605 62.8933 71.6937C62.9264 71.7268 62.9264 71.793 62.8933 71.8923Z" fill="#390B52"/>
<path opacity="0.3" d="M62.8933 71.8923L59.7552 83.9448C59.7222 84.1435 59.524 84.3421 59.3919 84.4083L52.7193 87.289L52.4551 87.3884L55.7253 74.8723C55.7253 74.8723 55.6923 74.8723 55.6923 74.8392C55.6592 74.8061 55.6592 74.773 55.6592 74.773C55.6592 74.7399 55.6923 74.7068 55.7583 74.6737L62.6951 71.6937C62.6951 71.6937 62.6951 71.6937 62.7282 71.6937C62.7942 71.6605 62.8603 71.6605 62.8933 71.6937C62.9264 71.7268 62.9264 71.793 62.8933 71.8923Z" fill="black"/>
<path d="M55.5273 74.8723L62.8936 71.826L63.1248 72.0909L55.6595 75.0047L55.5273 74.8723Z" fill="#F5F5F5"/>
<path d="M55.4946 74.7061C55.4946 74.7723 55.4946 74.8386 55.5607 74.8717C55.6598 74.971 55.891 75.0041 56.0562 74.971L63.1912 72.1565C63.2573 72.1234 63.3233 72.1234 63.3564 72.1565C63.3894 72.1897 63.4224 72.2559 63.3894 72.3552L60.2513 84.4077C60.2183 84.6063 60.0201 84.805 59.888 84.8381L52.753 87.6526C52.5878 87.7188 52.3896 87.6857 52.2575 87.5532C52.1914 87.487 52.1914 87.4539 52.1914 87.3877L55.4946 74.7061Z" fill="#390B52"/>
<path opacity="0.2" d="M55.4946 74.7061C55.4946 74.7723 55.4946 74.8386 55.5607 74.8717C55.6598 74.971 55.891 75.0041 56.0562 74.971L63.1912 72.1565C63.2573 72.1234 63.3233 72.1234 63.3564 72.1565C63.3894 72.1897 63.4224 72.2559 63.3894 72.3552L60.2513 84.4077C60.2183 84.6063 60.0201 84.805 59.888 84.8381L52.753 87.6526C52.5878 87.7188 52.3896 87.6857 52.2575 87.5532C52.1914 87.487 52.1914 87.4539 52.1914 87.3877L55.4946 74.7061Z" fill="black"/>
<path opacity="0.3" d="M55.7586 75.0041C55.6595 75.0041 55.5934 74.9379 55.5273 74.9048C55.4613 74.8386 55.4613 74.8054 55.4613 74.7392L52.125 87.4539C52.125 87.5201 52.125 87.5864 52.1911 87.6195C52.2571 87.6857 52.3232 87.7188 52.4223 87.7188L55.7586 75.0041Z" fill="black"/>
<path d="M56.0229 74.9713C55.8577 75.0375 55.6596 75.0044 55.5274 74.872C55.4283 74.7726 55.4614 74.6071 55.6265 74.5409L62.5964 71.5608C62.6624 71.5277 62.7285 71.5277 62.7615 71.5608L62.7945 71.594C62.8276 71.6271 62.8276 71.6271 62.8606 71.6602C62.8276 71.6271 62.7615 71.6271 62.6955 71.6602L55.7586 74.6402C55.6926 74.6733 55.6596 74.7064 55.6596 74.7395C55.6596 74.7726 55.6596 74.8058 55.6926 74.8058C55.6926 74.8058 55.6926 74.8057 55.7256 74.8389C55.7917 74.872 55.8908 74.872 55.9568 74.8389L63.0918 72.0244C63.1579 71.9913 63.224 71.9913 63.257 72.0575L63.29 72.0906C63.3231 72.1237 63.3231 72.1237 63.3561 72.1568C63.3231 72.1237 63.257 72.1237 63.1909 72.1568L56.0229 74.9713Z" fill="#390B52"/>
<path d="M62.6619 79.3755C63.1574 78.6802 63.0913 78.614 62.8271 78.2498C62.5628 77.8855 61.9682 77.3227 61.0764 77.3558C60.4818 77.3889 59.8872 77.3558 59.5569 77.5213C59.2596 77.6869 59.5238 78.3491 60.2836 78.5147C61.5058 78.7795 61.5058 79.1107 61.5058 79.1107C61.5058 79.1107 60.3827 78.8458 59.9202 78.8458C59.4578 78.8127 58.632 79.0444 58.1034 79.1107C57.5749 79.21 57.4758 79.8722 58.3677 80.104C58.3677 80.104 57.707 80.2033 57.4098 80.2695C56.7491 80.3689 56.5179 80.7331 57.0464 81.1304C57.1785 81.2298 57.3437 81.3291 57.641 81.3622C57.641 81.3622 56.9473 81.3622 56.9143 81.594C56.8812 82.2562 57.3107 82.4549 58.7311 82.8522C60.0854 83.2496 60.3827 83.978 60.1184 84.5078C60.1184 84.5078 60.68 84.1767 61.1424 83.8456C61.5058 83.5807 61.8031 83.3158 61.6379 82.7529C61.6379 82.7529 62.4307 82.7529 62.4637 82.2893C62.4968 81.7927 62.2655 81.2629 62.2655 81.2629C62.2655 81.2629 62.728 81.0311 62.6949 80.4682C62.6619 79.9053 62.3977 79.6073 62.3977 79.6073L62.6619 79.3755Z" fill="#FFD2D2"/>
<path d="M58.4004 80.1041C58.6977 80.071 58.9619 80.0048 59.2592 80.0048C59.5896 80.0379 59.8208 80.1703 60.085 80.2697C60.6136 80.5014 61.109 80.7663 61.6045 81.0643C61.043 80.9319 60.5145 80.7332 59.9859 80.5014C59.7217 80.4021 59.4574 80.2697 59.2262 80.2034C58.995 80.1703 58.6977 80.1703 58.4004 80.1041Z" fill="#D9ADAF"/>
<path d="M57.6738 81.3623C57.9711 81.263 58.3014 81.263 58.5987 81.3292C58.896 81.3955 59.1933 81.4948 59.4906 81.5941C60.0522 81.8259 60.6137 82.1239 61.1092 82.455C60.5146 82.2895 59.9531 82.0577 59.3915 81.8259C58.863 81.6272 58.3014 81.3955 57.6738 81.3623Z" fill="#D9ADAF"/>
<path d="M22.957 85.9974C22.957 85.9974 24.6417 85.4014 25.4675 82.024C25.8639 80.4678 25.5336 78.3818 25.1702 75.9316L29.8938 74.5078C29.8938 74.5078 31.4464 74.276 34.7826 74.0443L37.4913 73.8456C37.4913 73.8456 41.7855 77.554 43.6684 80.7327C44.4281 82.024 45.4191 84.6398 43.4702 87.8847C43.3711 90.2356 42.9416 94.0103 42.9416 94.0103C42.9416 94.0103 41.0918 96.8247 34.9478 96.8247C26.1281 96.7916 25.2032 93.9441 25.2032 93.9441C25.3684 91.4276 23.5846 88.4807 22.957 85.9974Z" fill="#390B52"/>
<path opacity="0.6" d="M22.957 85.9974C22.957 85.9974 24.6417 85.4014 25.4675 82.024C25.8639 80.4678 25.5336 78.3818 25.1702 75.9316L29.8938 74.5078C29.8938 74.5078 31.4464 74.276 34.7826 74.0443L37.4913 73.8456C37.4913 73.8456 41.7855 77.554 43.6684 80.7327C44.4281 82.024 45.4191 84.6398 43.4702 87.8847C43.3711 90.2356 42.9416 94.0103 42.9416 94.0103C42.9416 94.0103 41.0918 96.8247 34.9478 96.8247C26.1281 96.7916 25.2032 93.9441 25.2032 93.9441C25.3684 91.4276 23.5846 88.4807 22.957 85.9974Z" fill="white"/>
<path opacity="0.2" d="M37.1937 88.3815C37.1937 88.3815 35.6742 90.3682 32.3379 89.8715C28.9686 89.4079 28.2749 86.8915 28.2749 86.8915C28.2749 86.8915 28.1428 90.1364 32.1727 90.6993C36.1036 91.2622 37.1937 88.3815 37.1937 88.3815Z" fill="#390B52"/>
<path d="M27.6479 57.058C28.1434 56.5283 28.8701 56.1309 29.5968 55.9985C30.3235 55.866 30.7529 55.8992 31.4136 55.6674C32.0742 55.4356 32.6358 55.0383 33.2964 54.8065C34.7168 54.3098 36.4015 54.7734 37.5246 55.7998C38.02 56.2303 38.4825 56.7932 39.1431 56.9587C39.4735 57.0249 39.8038 56.9918 40.1341 57.0249C41.1912 57.0912 42.1161 57.8527 42.6116 58.7798C43.0079 59.5083 43.1731 60.3361 43.2061 61.1638C43.2392 61.9916 42.9088 62.7201 42.9088 63.5147C42.9088 64.1107 43.2392 64.6405 43.5695 65.1372C44.0319 65.7663 44.3953 66.2629 44.5605 67.0245C44.6926 67.6205 44.7917 68.2496 44.6265 68.8456C44.4614 69.4416 44.0319 70.0045 43.4374 70.1701C43.7016 69.6072 43.6356 68.9118 43.3052 68.4152C43.4043 68.9781 43.2061 69.541 42.8758 70.0045C42.5455 70.4681 42.083 70.7992 41.6206 71.0972C40.5635 71.7594 39.2753 72.223 38.02 72.1567C36.6657 72.0574 35.3444 71.5276 33.9901 71.7925C33.6267 71.8587 33.2634 71.9912 32.9 72.1236C32.2724 72.3223 31.6448 72.4547 30.9841 72.521C29.9932 72.6203 28.6719 72.521 27.78 72.0243C27.4166 71.8256 27.0863 71.4945 26.9872 71.0972C26.8881 71.4614 26.9212 71.8587 27.1194 72.1898C25.9302 72.0243 24.741 71.3952 24.0804 70.3687C23.4197 69.3423 23.3537 67.9185 24.0473 66.9252C23.8161 67.0907 23.5519 67.2894 23.3867 67.5212C23.2215 67.753 23.0894 68.051 23.1555 68.349C22.726 67.6205 22.693 66.6603 23.1224 65.9318C23.3537 65.5345 23.684 65.2034 24.0143 64.8723C24.4768 64.4087 24.9392 63.9121 25.0383 63.2498C25.1044 62.9518 25.0713 62.6207 25.0383 62.3227C25.0053 61.8592 25.0053 61.3625 25.1374 60.8989C25.2695 60.4685 25.5008 60.1374 25.8641 59.8725C25.9632 59.8063 27.0203 59.2434 27.0533 59.3427C26.9542 58.2832 27.3506 57.3892 27.6479 57.058Z" fill="#263238"/>
<path d="M27.1523 64.9054C28.0442 64.6074 28.7379 64.9385 29.2003 65.8656C29.5637 66.6603 30.4225 66.4285 30.2904 65.1703C32.3054 63.3823 30.0592 62.1241 31.7438 60.3692C32.7678 59.2765 34.915 59.6407 35.7408 60.3692C36.1372 59.6738 37.1942 59.0778 38.1852 59.4752C39.077 59.8063 39.6386 60.3692 40.035 61.6274C40.4314 62.9518 39.9689 63.1836 40.1671 64.1107C40.2332 64.475 40.4644 65.2034 40.5635 66.0974C40.9929 69.8058 39.7047 71.2627 38.7137 71.925C38.053 72.3885 37.0951 72.819 35.6747 72.7859V74.6732C35.6747 74.6732 36.7648 76.3287 36.7648 80.2359C36.7648 80.2359 35.3444 79.5405 32.7018 78.0505C29.9931 76.5274 29.1673 75.0374 29.1673 75.0374V68.7794C28.9361 69.2761 27.9451 69.7727 26.9541 68.9118C25.6989 67.8854 25.5998 65.4683 27.1523 64.9054Z" fill="#FFD2D2"/>
<path d="M35.708 60.4024C35.9392 59.3428 37.4257 58.4488 39.0773 59.0779C40.5638 59.6739 40.9271 60.7997 40.8941 63.2499C40.8611 65.071 41.0262 65.2697 41.4556 65.6008C40.4647 65.7001 40.0022 64.9055 39.9362 63.8459C39.8701 62.7864 40.0353 60.6672 38.4167 59.9719C37.2275 59.4421 36.1374 60.0381 35.708 60.4024Z" fill="#9A41CA"/>
<path d="M35.6413 72.8521C34.2539 72.7197 31.9416 72.5873 30.8516 70.9979C30.8516 70.9979 30.9837 71.925 32.338 72.6866C33.296 73.2164 35.6413 73.5144 35.6413 73.5144V72.8521Z" fill="#D9ADAF"/>
<path d="M28.9032 74.7391C28.9032 74.7391 30.7861 77.1562 31.1825 82.5534C31.8101 91.7914 24.3778 96.2283 24.3778 96.2283C24.2126 94.3078 24.2787 93.4801 24.2787 91.692C24.2787 91.692 27.714 88.0498 27.3507 84.3414C26.8552 79.3747 25.9303 77.0238 25.1705 75.8649C25.1375 75.8649 27.2186 74.8054 28.9032 74.7391Z" fill="#390B52"/>
<path opacity="0.2" d="M28.9032 74.7391C28.9032 74.7391 30.7861 77.1562 31.1825 82.5534C31.8101 91.7914 24.3778 96.2283 24.3778 96.2283C24.2126 94.3078 24.2787 93.4801 24.2787 91.692C24.2787 91.692 27.714 88.0498 27.3507 84.3414C26.8552 79.3747 25.9303 77.0238 25.1705 75.8649C25.1375 75.8649 27.2186 74.8054 28.9032 74.7391Z" fill="black"/>
<path d="M37.5254 73.8792C37.063 73.3163 36.1381 73.3163 35.6426 73.3494V74.7401C35.8077 74.7732 36.072 74.9057 36.3363 75.2368C36.6666 75.7003 37.6906 77.3228 37.6906 77.3228L39.0779 76.793C39.0449 76.7599 38.153 74.6408 37.5254 73.8792Z" fill="#263238"/>
<path d="M37.0298 73.2829C36.6664 73.018 36.0058 72.9186 35.6094 72.8524V73.3822C36.0388 73.4153 36.7985 73.5809 37.1619 74.0775C37.5583 74.5742 39.0117 76.7595 39.0117 76.7595L39.342 76.4284C38.7805 75.3689 37.6244 73.6802 37.0298 73.2829Z" fill="#455A64"/>
<path d="M40.2002 76.9257C40.1671 76.9257 40.1671 76.9257 40.1341 76.9257H40.1011C40.068 76.9257 40.068 76.9257 40.035 76.9257H40.002C40.002 76.9257 39.9689 76.9257 39.9689 76.9588C39.9689 76.9588 39.9359 76.9588 39.9359 76.9919L39.9029 77.025L39.8698 77.0581L39.8368 77.0912L39.8038 77.1243L39.7708 77.1574L39.7377 77.1905C39.7377 77.1905 39.7377 77.2237 39.7047 77.2237C39.7047 77.2237 39.7047 77.2237 39.7047 77.2568C39.7047 77.2568 39.7047 77.2568 39.7047 77.2899L39.6717 77.323C39.6717 77.323 39.6717 77.3561 39.6386 77.3561C39.6386 77.3892 39.6056 77.3892 39.6056 77.4223C39.6056 77.4223 39.6056 77.4554 39.5726 77.4554V77.4885V77.5217C39.5726 77.5548 39.5395 77.5548 39.5395 77.5879V77.621C39.5395 77.6541 39.5065 77.7203 39.5065 77.7534C39.4735 77.919 39.4404 78.1177 39.4404 78.2832C39.4404 79.0448 39.7047 79.8726 40.1671 80.4354C40.2332 80.5017 40.2662 80.5679 40.3323 80.6341C40.3323 80.6341 40.3653 80.6341 40.3653 80.6672L40.3984 80.7003L40.4314 80.7334L40.4644 80.7666L40.4975 80.7997C40.4975 80.7997 40.5305 80.7997 40.5305 80.8328L40.5635 80.8659C40.5635 80.8659 40.5966 80.8659 40.5966 80.899C40.5966 80.899 40.6296 80.899 40.6296 80.9321C40.6296 80.9321 40.6626 80.9321 40.6626 80.9652C40.6626 80.9652 40.6957 80.9652 40.6957 80.9983C40.6957 80.9983 40.7287 80.9983 40.7287 81.0314C40.7287 81.0314 40.7287 81.0314 40.7617 81.0314C40.7617 81.0314 40.7617 81.0314 40.7948 81.0314C40.8939 80.9983 41.026 80.9652 41.1251 80.9321C40.9599 80.8659 40.7948 80.7666 40.6626 80.601C39.9689 79.9388 39.6056 78.6474 39.8368 77.7203C39.9359 77.3561 40.1011 77.0912 40.3323 76.9588H40.2993C40.2332 76.9257 40.2332 76.9257 40.2002 76.9257Z" fill="#263238"/>
<path d="M40.5308 76.661C40.4978 76.661 40.4317 76.661 40.3987 76.6941C40.3326 76.7272 40.1344 76.7603 40.0684 76.7935C40.2005 76.7603 40.3656 76.7603 40.5308 76.7935V76.661Z" fill="#37474F"/>
<path d="M40.729 80.9654C40.696 80.9323 40.6629 80.9323 40.6629 80.9323C40.6629 80.9323 40.6299 80.9323 40.6299 80.8991C40.6299 80.8991 40.6299 80.8991 40.5969 80.8991C40.5969 80.8991 40.5638 80.8991 40.5638 80.866C40.5638 80.866 40.5308 80.866 40.5308 80.8329L40.4978 80.7998C40.4978 80.7998 40.4647 80.7998 40.4647 80.7667L40.4317 80.7336L40.3987 80.7005L40.3656 80.6674L40.3326 80.6343C40.3326 80.6343 40.3326 80.6343 40.2996 80.6011C40.2335 80.5349 40.2005 80.4687 40.1344 80.4356C40.0023 80.27 39.8701 80.0714 39.771 79.8396C39.672 79.674 39.6059 79.4754 39.5398 79.2767C39.4407 78.9456 39.4077 78.6145 39.4077 78.2834C39.4077 78.0847 39.4407 77.9191 39.4738 77.7536C39.4738 77.7205 39.5068 77.6874 39.5068 77.6211C39.5068 77.6211 39.5068 77.6211 39.5068 77.588C39.5068 77.5549 39.5398 77.5218 39.5398 77.4887C39.5398 77.4887 39.5398 77.4887 39.5398 77.4556V77.4225C39.5398 77.4225 39.5398 77.3894 39.5729 77.3894C39.5729 77.3894 39.5729 77.3563 39.6059 77.3563C39.6059 77.3563 39.6059 77.3231 39.6389 77.3231C39.6389 77.3231 39.6389 77.29 39.672 77.29L39.705 77.2569C39.705 77.2238 39.738 77.2238 39.738 77.1907L39.771 77.1576L39.8041 77.1245L39.8371 77.0914C39.8371 77.0914 39.8371 77.0914 39.8701 77.0583C39.8701 77.0583 39.8701 77.0583 39.9032 77.0583C39.9032 77.0583 39.9362 77.0582 39.9362 77.0251C39.9362 77.0251 39.9692 77.0251 39.9692 76.992C39.9692 76.992 39.9692 76.992 40.0023 76.992C40.0023 76.992 40.0353 76.992 40.0353 76.9589H40.0683C40.0683 76.9589 40.1014 76.9589 40.1344 76.9589H40.1674C40.2005 76.9589 40.2005 76.9589 40.2335 76.9589H40.2665H40.2996C40.2996 76.9589 40.2996 76.9589 40.3326 76.9589H40.3656C40.3987 76.9589 40.3987 76.9589 40.4317 76.9589H40.4647H40.4978L40.5308 76.8265C40.3656 76.7934 40.2335 76.7934 40.0683 76.8265C40.0353 76.8265 40.0353 76.8265 40.0023 76.8596C39.9362 76.8927 39.9032 76.9258 39.8371 76.9589C39.8371 76.9589 39.8371 76.9589 39.8041 76.9589L39.771 76.992C39.738 77.0251 39.705 77.0251 39.705 77.0583L39.672 77.0914L39.6389 77.1245L39.6059 77.1576L39.5729 77.1907C39.5729 77.2238 39.5398 77.2238 39.5398 77.2569C39.5398 77.2569 39.5398 77.29 39.5068 77.29C39.5068 77.3231 39.4738 77.3231 39.4738 77.3563V77.3894C39.4738 77.4225 39.4407 77.4556 39.4407 77.4887V77.5218C39.4407 77.5549 39.4077 77.588 39.4077 77.6211V77.6542C39.4077 77.6874 39.3747 77.7205 39.3747 77.7867C39.3086 78.0185 39.3086 78.2834 39.3086 78.5814C39.3086 78.7138 39.3416 78.8463 39.3416 79.0118C39.3416 79.078 39.3747 79.1443 39.3747 79.2105C39.4077 79.4091 39.4738 79.6078 39.5729 79.8065C39.738 80.2038 39.9692 80.5349 40.2335 80.7998C40.3656 80.8991 40.4647 80.9985 40.5969 81.0647C40.5969 80.9985 40.696 80.9985 40.729 80.9654C40.762 80.9654 40.762 80.9654 40.729 80.9654Z" fill="#455A64"/>
<path d="M41.0925 77.4225C41.7201 78.0185 42.0504 79.2105 41.8522 80.0383C41.654 80.8992 40.9604 81.0979 40.3327 80.4688C39.7051 79.8728 39.3748 78.6808 39.573 77.853C39.7712 77.0252 40.4649 76.8265 41.0925 77.4225Z" fill="#390B52"/>
<path d="M42.2489 80.6339C42.5462 79.3757 42.0508 77.6539 41.1258 76.7599C40.6634 76.3295 40.1679 76.1639 39.7715 76.2963C39.6724 76.3295 39.21 76.4619 39.1109 76.495C38.7145 76.6275 38.3842 76.9917 38.219 77.6208C37.9217 78.879 38.4172 80.6008 39.3421 81.4948C39.8045 81.9252 40.3 82.0908 40.6964 81.9584C40.7955 81.9252 41.258 81.7928 41.3571 81.7597C41.7535 81.6272 42.0838 81.263 42.2489 80.6339Z" fill="#390B52"/>
<path opacity="0.35" d="M42.2489 80.6339C42.5462 79.3757 42.0508 77.6539 41.1258 76.7599C40.6634 76.3295 40.1679 76.1639 39.7715 76.2963C39.6724 76.3295 39.21 76.4619 39.1109 76.495C38.7145 76.6275 38.3842 76.9917 38.219 77.6208C37.9217 78.879 38.4172 80.6008 39.3421 81.4948C39.8045 81.9252 40.3 82.0908 40.6964 81.9584C40.7955 81.9252 41.258 81.7928 41.3571 81.7597C41.7535 81.6272 42.0838 81.263 42.2489 80.6339Z" fill="black"/>
<path opacity="0.1" d="M40.432 76.9251C41.3569 77.8191 41.8524 79.5409 41.5551 80.7991C41.2578 82.0573 40.2338 82.3553 39.3089 81.4613C38.384 80.5673 37.8885 78.8456 38.1858 77.5873C38.5161 76.3291 39.5071 76.0642 40.432 76.9251Z" fill="black"/>
<path d="M41.5885 80.8322C41.8858 79.5739 41.3903 77.8522 40.4654 76.9582C40.003 76.5277 39.5075 76.3621 39.1111 76.4946C39.045 76.4946 38.8469 76.5608 38.7808 76.5939C38.3844 76.7264 38.0541 77.0906 37.8889 77.7197C37.5916 78.9779 38.0871 80.6997 39.012 81.5937C39.4745 82.0242 39.97 82.1897 40.3663 82.0573C40.4324 82.0573 40.6306 81.991 40.6967 81.9579C41.0931 81.8255 41.4234 81.4613 41.5885 80.8322Z" fill="#F0F0F0"/>
<path d="M40.1019 77.0247C41.0268 77.9187 41.5223 79.6405 41.225 80.8987C40.9277 82.157 39.9037 82.455 38.9788 81.561C38.0539 80.6669 37.5584 78.9452 37.8557 77.6869C38.186 76.4287 39.177 76.1638 40.1019 77.0247Z" fill="#E0E0E0"/>
<path d="M41.3897 80.965C41.72 79.6737 41.1915 77.8526 40.2336 76.9586C39.9363 76.6937 39.639 76.5281 39.3417 76.4288C39.1105 76.3626 38.9123 76.3957 38.7141 76.4288C38.615 76.4619 38.1525 76.5944 38.0534 76.6275C37.591 76.7599 37.2276 77.1904 37.0625 77.8526C36.7321 79.1439 37.2606 80.965 38.2186 81.859C38.5159 82.1239 38.8132 82.2895 39.1105 82.3888C39.3417 82.455 39.5399 82.4219 39.7381 82.3888C39.8372 82.3557 40.2996 82.2233 40.3987 82.1901C40.8612 82.0577 41.2245 81.6272 41.3897 80.965Z" fill="#455A64"/>
<path d="M39.1105 82.3884C38.8132 82.3222 38.5159 82.1566 38.2186 81.8586C37.2606 80.9315 36.7321 79.1435 37.0625 77.8522C37.2937 76.9251 37.9213 76.4284 38.681 76.5939C38.9783 76.6602 39.2756 76.8257 39.5729 77.1237C40.5309 78.0508 41.0594 79.8388 40.7291 81.1302C40.4978 82.0904 39.8372 82.5871 39.1105 82.3884Z" fill="#37474F"/>
<path d="M38.9786 80.9648C38.8135 80.9316 38.6813 80.8323 38.5492 80.6999C38.0537 80.2363 37.8225 79.3423 37.9546 78.6801C38.0537 78.2165 38.384 77.9516 38.7474 78.051C38.9126 78.0841 39.0447 78.1834 39.1768 78.3159C39.6723 78.7794 39.9035 79.6734 39.7714 80.3356C39.6723 80.7992 39.375 81.031 38.9786 80.9648Z" fill="#263238"/>
<path d="M29.1346 75.071V72.8856C28.9364 73.0512 28.6721 73.3161 28.4079 73.6472C27.9124 74.2763 28.4739 75.7663 28.9364 76.1967C28.8042 75.7663 28.9033 75.4021 29.1346 75.071Z" fill="#263238"/>
<path d="M29.1346 73.051V72.4882C28.7713 72.753 28.2097 73.1835 27.7473 73.6802C26.8224 74.6735 26.7893 75.8655 27.0866 76.8257C27.3839 77.7859 27.9124 78.68 27.9124 78.68L29.9274 77.8522C29.9274 77.8522 28.507 75.6337 28.4409 74.5079C28.3749 73.8457 28.8043 73.349 29.1346 73.051Z" fill="#455A64"/>
<path d="M33.3298 81.9909C33.4289 80.5009 32.537 78.6467 31.3148 77.8189C30.9515 77.5871 30.5881 77.4216 30.2578 77.4216C29.9935 77.3885 29.7953 77.4547 29.5972 77.554C29.465 77.6202 29.0026 77.8189 28.9035 77.8851C28.441 78.1169 28.1107 78.6798 28.0446 79.4082C27.9455 80.8982 28.8374 82.7525 30.0596 83.5802C30.423 83.812 30.7863 83.9776 31.1166 83.9776C31.3809 84.0107 31.6121 83.9445 31.8103 83.8451C31.9094 83.7789 32.3719 83.5803 32.504 83.514C32.9665 83.2822 33.2638 82.7525 33.3298 81.9909Z" fill="#455A64"/>
<path d="M31.0834 83.9774C30.7531 83.9443 30.3898 83.8118 30.0264 83.58C28.8042 82.7523 27.9123 80.8649 28.0114 79.408C28.0775 78.3485 28.7051 77.6862 29.5309 77.7525C29.8612 77.7856 30.2246 77.918 30.588 78.1498C31.8102 78.9776 32.702 80.8649 32.6029 82.3218C32.5369 83.4145 31.9423 84.0436 31.0834 83.9774Z" fill="#37474F"/>
<path d="M32.4702 82.322C32.5693 80.8982 31.7105 79.0771 30.5213 78.2824C29.9267 77.8851 29.3652 77.8189 28.9688 78.0175C28.9027 78.0507 28.6715 78.15 28.6054 78.1831C28.176 78.3818 27.9117 78.8784 27.8457 79.5738C27.7466 80.9975 28.6054 82.8187 29.7946 83.6133C30.3892 84.0107 30.9507 84.0769 31.3471 83.8782C31.4132 83.8451 31.6444 83.7458 31.7105 83.7127C32.1069 83.514 32.4041 83.0504 32.4702 82.322Z" fill="#F0F0F0"/>
<path d="M30.1579 78.4483C31.3471 79.243 32.2059 81.0641 32.1069 82.4879C32.0078 83.9117 30.9507 84.4083 29.7946 83.6137C28.6054 82.819 27.7466 80.9979 27.8457 79.5741C27.9448 78.1503 29.0018 77.6537 30.1579 78.4483Z" fill="#E0E0E0"/>
<path d="M32.1072 82.488C32.2063 81.0642 31.3474 79.2431 30.1583 78.4484C29.5637 78.0511 29.0021 77.9849 28.6057 78.1836C28.4736 78.2498 28.0112 78.4816 27.9121 78.5147C27.4826 78.7133 27.2184 79.21 27.1523 79.9053C27.0532 81.3291 27.9121 83.1502 29.1012 83.9449C29.6958 84.3422 30.2574 84.4085 30.6537 84.2098C30.7859 84.1436 31.2483 83.9118 31.3474 83.8787C31.7769 83.68 32.0411 83.2165 32.1072 82.488Z" fill="#390B52"/>
<path opacity="0.35" d="M32.1072 82.488C32.2063 81.0642 31.3474 79.2431 30.1583 78.4484C29.5637 78.0511 29.0021 77.9849 28.6057 78.1836C28.4736 78.2498 28.0112 78.4816 27.9121 78.5147C27.4826 78.7133 27.2184 79.21 27.1523 79.9053C27.0532 81.3291 27.9121 83.1502 29.1012 83.9449C29.6958 84.3422 30.2574 84.4085 30.6537 84.2098C30.7859 84.1436 31.2483 83.9118 31.3474 83.8787C31.7769 83.68 32.0411 83.2165 32.1072 82.488Z" fill="black"/>
<path d="M29.4646 78.7794C30.6537 79.5741 31.5126 81.3952 31.4135 82.8189C31.3144 84.2427 30.2574 84.7394 29.1012 83.9447C27.9121 83.1501 27.0532 81.3289 27.1523 79.9052C27.2514 78.4814 28.3084 77.9847 29.4646 78.7794Z" fill="#390B52"/>
<path d="M29.1338 80.1698C29.7614 80.6002 30.2238 81.5273 30.1578 82.2889C30.0917 83.0505 29.5632 83.3153 28.9356 82.8849C28.3079 82.4545 27.8455 81.5273 27.9116 80.7658C27.9776 80.0373 28.5061 79.7725 29.1338 80.1698Z" fill="#263238"/>
<path d="M29.7286 80.9316L28.9689 81.5607L28.2422 80.0707C28.4734 79.9714 28.7377 80.0045 29.068 80.2032C29.3323 80.3687 29.5635 80.6336 29.7286 80.9316Z" fill="#455A64"/>
<path d="M30.0919 82.3222C30.0588 82.6864 29.9267 82.9513 29.6955 83.0506L28.9688 81.5606L29.7285 80.9315C29.9928 81.362 30.1249 81.8917 30.0919 82.3222Z" fill="#37474F"/>
<path d="M29.6956 83.0504C29.4644 83.1498 29.2001 83.1166 28.8698 82.918C28.6055 82.7524 28.4073 82.4875 28.2422 82.1895L28.9689 81.5604L29.6956 83.0504Z" fill="#455A64"/>
<path d="M28.9691 81.5612L28.2424 82.1903C27.9781 81.7598 27.846 81.2301 27.879 80.7996C27.912 80.4354 28.0442 80.1705 28.2754 80.0712L28.9691 81.5612Z" fill="#37474F"/>
<path d="M45.5847 104.043C45.5847 103.944 45.4856 103.91 45.4195 103.91C45.3204 103.91 45.2874 104.01 45.2874 104.076C45.4526 105.069 45.1553 105.665 44.6928 105.963C44.0322 106.427 42.7769 106.559 41.9842 105.897C39.9361 104.142 39.7379 99.9039 39.5398 96.4935C39.4737 95.0697 39.4076 93.8446 39.2094 93.0168C39.2094 92.9175 39.1764 90.8315 40.3656 88.5468C40.4647 88.3481 40.5638 88.1826 40.6629 87.9839C41.819 85.7986 42.7439 84.1099 42.2154 80.9644C42.2154 80.865 42.1163 80.8319 42.0502 80.8319C41.9511 80.8319 41.9181 80.9312 41.9181 80.9975C42.4136 84.0437 41.5547 85.633 40.3986 87.8515C40.2995 88.0501 40.2004 88.2157 40.1013 88.4144C39.1764 90.1693 38.9452 91.7586 38.9121 92.5533C38.1854 91.5599 37.0954 90.9308 36.0053 90.3017C35.5428 90.0368 35.1464 89.7719 34.75 89.507C33.1645 88.3813 31.5459 86.9906 30.5219 84.2092C30.4889 84.143 30.3898 84.0768 30.3237 84.1099C30.2576 84.143 30.1916 84.2424 30.2246 84.3086C31.2816 87.1561 32.9333 88.613 34.5519 89.7388C34.9482 90.0037 35.3777 90.2686 35.8401 90.5335C36.9963 91.2288 38.2185 91.9573 38.8791 93.083C39.0773 93.8777 39.1434 95.1028 39.2094 96.4935C39.4076 99.9371 39.6389 104.208 41.7529 106.096C42.1824 106.493 42.7769 106.659 43.3385 106.626C43.7679 106.592 44.1973 106.559 44.7589 106.228C45.4526 105.831 45.7168 104.904 45.5847 104.043Z" fill="#F5F5F5"/>
<path d="M31.0837 113.116L31.3149 103.646L18.0359 95.3681L17.8047 104.838L31.0837 113.116Z" fill="black"/>
<path d="M30.9845 103.745L30.7203 112.884C30.0927 112.983 29.4981 113.314 28.9365 113.91L29.1678 104.838C29.1678 104.805 29.5311 104.44 30.9845 103.745Z" fill="#F5F5F5"/>
<path d="M28.7713 105.467C28.7713 104.97 29.1346 104.407 29.564 104.175L30.9184 103.447C31.3478 103.215 31.6781 103.414 31.6781 103.91L31.4139 112.917L31.0835 113.082L31.3148 104.208C31.3148 103.91 31.1166 103.778 30.8523 103.944L29.5971 104.639C29.3328 104.771 29.1346 105.136 29.1346 105.4L28.9034 114.274L28.54 114.473L28.7713 105.467Z" fill="#263238"/>
<path d="M28.5398 114.506L15.2607 106.228L15.525 97.2221C15.525 96.7254 15.8884 96.1625 16.3178 95.9308L17.6721 95.2023C17.8703 95.103 18.0685 95.0699 18.2006 95.1692L31.4797 103.447C31.3475 103.348 31.1493 103.381 30.9511 103.48L29.5968 104.209C29.1674 104.44 28.804 105.003 28.804 105.5L28.5398 114.506Z" fill="#37474F"/>
<path d="M29.0349 104.738C29.167 104.507 29.3652 104.308 29.5964 104.175L30.9508 103.447C31.149 103.348 31.3472 103.315 31.4793 103.414L18.2003 95.1361C18.0681 95.0368 17.8699 95.0699 17.6717 95.1692L16.3174 95.8976C16.1192 95.997 15.921 96.2288 15.7559 96.4605L29.0349 104.738Z" fill="#455A64"/>
<path d="M17.5068 97.5529C18.3326 96.8245 19.1585 96.394 19.9512 96.2285L20.5788 96.6258C19.7861 96.7913 18.9603 97.2218 18.1345 97.9502L17.5068 97.5529Z" fill="#FAFAFA"/>
<path d="M26.2607 103.016C27.0866 102.287 27.9124 101.857 28.7051 101.691L29.3328 102.089C28.54 102.254 27.7142 102.685 26.8884 103.413L26.2607 103.016Z" fill="#FAFAFA"/>
<path d="M27.0532 105.533L26.7559 105.334C26.7559 105.334 26.7889 105.533 26.855 105.566C26.921 105.632 27.0532 105.533 27.0532 105.533Z" fill="black"/>
<path d="M26.9876 105.831C26.9876 105.831 26.6243 105.731 26.7234 105.334C26.8225 104.937 27.0537 104.804 26.9876 104.672C26.9216 104.572 24.9727 105.599 24.9727 105.599L26.5252 106.129L26.9876 105.831Z" fill="#390B52"/>
<path opacity="0.3" d="M26.9876 105.831C26.9876 105.831 26.6243 105.731 26.7234 105.334C26.8225 104.937 27.0537 104.804 26.9876 104.672C26.9216 104.572 24.9727 105.599 24.9727 105.599L26.5252 106.129L26.9876 105.831Z" fill="black"/>
<path d="M14.0383 98.6122L14.0053 98.8109L13.708 108.314L26.1943 115.201C26.3925 115.333 26.5576 115.267 26.5576 115.102V114.77L26.8219 105.897L26.7558 105.864L14.0383 98.6122Z" fill="#390B52"/>
<path opacity="0.2" d="M14.0383 98.6122L14.0053 98.8109L13.708 108.314L26.1943 115.201C26.3925 115.333 26.5576 115.267 26.5576 115.102V114.77L26.8219 105.897L26.7558 105.864L14.0383 98.6122Z" fill="black"/>
<path d="M24.1133 106.195L24.2784 106.791L26.3595 105.666C26.3265 105.268 26.3595 105.003 26.5907 104.838L24.1133 106.195Z" fill="#455A64"/>
<path d="M26.5246 105.863L26.2603 114.638C26.2603 114.803 26.1282 114.969 25.9961 115.035L23.915 116.161L24.2123 107.254C24.2123 107.254 24.4766 107.022 24.4105 106.724C24.3775 106.426 24.5757 106.559 24.5757 106.559L26.3264 105.599C26.4585 105.897 26.5246 105.863 26.5246 105.863Z" fill="#EBEBEB"/>
<path d="M24.1133 106.394C24.1133 106.493 24.1463 106.526 24.1794 106.526L24.2454 106.493C24.3115 106.46 24.3776 106.559 24.3776 106.758C24.3776 106.924 24.3115 107.122 24.2454 107.155L24.1794 107.189C24.1463 107.222 24.1133 107.354 24.1133 107.487L12.0234 99.9372C12.0234 99.8379 12.0234 99.7055 12.0234 99.7055C12.0234 99.6724 12.0895 99.6392 12.0895 99.6061L12.1556 99.573C12.2216 99.5399 12.2877 99.3412 12.2877 99.1757C12.2877 99.0101 12.2216 98.8777 12.1556 98.9108L12.0895 98.9439C12.0565 98.977 12.0234 98.9108 12.0234 98.8115L24.1133 106.394Z" fill="#390B52"/>
<path opacity="0.25" d="M24.1133 106.394C24.1133 106.493 24.1463 106.526 24.1794 106.526L24.2454 106.493C24.3115 106.46 24.3776 106.559 24.3776 106.758C24.3776 106.924 24.3115 107.122 24.2454 107.155L24.1794 107.189C24.1463 107.222 24.1133 107.354 24.1133 107.487L12.0234 99.9372C12.0234 99.8379 12.0234 99.7055 12.0234 99.7055C12.0234 99.6724 12.0895 99.6392 12.0895 99.6061L12.1556 99.573C12.2216 99.5399 12.2877 99.3412 12.2877 99.1757C12.2877 99.0101 12.2216 98.8777 12.1556 98.9108L12.0895 98.9439C12.0565 98.977 12.0234 98.9108 12.0234 98.8115L24.1133 106.394Z" fill="white"/>
<path d="M12.0237 99.705L11.9907 99.9037L11.6934 109.407L23.4199 116.691C23.6181 116.823 23.7832 116.757 23.7832 116.592V116.261L24.2126 107.287L12.0237 99.705Z" fill="#390B52"/>
<path opacity="0.4" d="M12.0237 99.705L11.9907 99.9037L11.6934 109.407L23.4199 116.691C23.6181 116.823 23.7832 116.757 23.7832 116.592V116.261L24.2126 107.287L12.0237 99.705Z" fill="white"/>
<path d="M12.0234 98.977L24.1463 106.493L24.2454 105.963L12.1556 98.4472C12.0565 98.5465 12.0234 98.6459 12.0234 98.7121V98.977Z" fill="#390B52"/>
<path opacity="0.4" d="M12.0234 98.977L24.1463 106.493L24.2454 105.963L12.1556 98.4472C12.0565 98.5465 12.0234 98.6459 12.0234 98.7121V98.977Z" fill="white"/>
<path d="M14.9962 96.9901C14.9632 96.9901 14.9632 96.957 14.9632 96.957H14.9302C14.9302 96.957 14.9302 96.957 14.8971 96.957C14.8641 96.957 14.8311 96.957 14.8311 96.957C14.798 96.957 14.765 96.957 14.765 96.957C14.732 96.957 14.6989 96.9901 14.6659 96.9901C14.6329 96.9901 14.6329 96.9901 14.5998 97.0232C14.5998 97.0232 14.5668 97.0232 14.5668 97.0563C14.5338 97.0563 14.5007 97.0894 14.4677 97.0894L12.684 98.0496C12.4858 98.149 12.2876 98.3145 12.1885 98.447L24.2783 105.963L27.0861 104.506L14.9962 96.9901Z" fill="#390B52"/>
<g opacity="0.7">
<path opacity="0.7" d="M14.9962 96.9901C14.9632 96.9901 14.9632 96.957 14.9632 96.957H14.9302C14.9302 96.957 14.9302 96.957 14.8971 96.957C14.8641 96.957 14.8311 96.957 14.8311 96.957C14.798 96.957 14.765 96.957 14.765 96.957C14.732 96.957 14.6989 96.9901 14.6659 96.9901C14.6329 96.9901 14.6329 96.9901 14.5998 97.0232C14.5998 97.0232 14.5668 97.0232 14.5668 97.0563C14.5338 97.0563 14.5007 97.0894 14.4677 97.0894L12.684 98.0496C12.4858 98.149 12.2876 98.3145 12.1885 98.447L24.2783 105.963L27.0861 104.506L14.9962 96.9901Z" fill="white"/>
</g>
<path d="M23.2552 105.334L21.8018 104.44C22.6936 103.712 23.6185 103.182 24.5765 102.95L26.0299 103.844C25.072 104.076 24.1471 104.606 23.2552 105.334Z" fill="#FAFAFA"/>
<path d="M15.1292 100.301L13.6758 99.4069C14.5677 98.6785 15.4926 98.1487 16.4505 97.9169L17.9039 98.8109C16.946 99.0427 16.0211 99.5725 15.1292 100.301Z" fill="#FAFAFA"/>
<path d="M24.741 105.565L24.8731 105.797C24.6088 105.93 24.4437 106.128 24.4106 106.195C24.4767 106.228 24.5428 106.294 24.5758 106.36C24.6419 106.459 24.6419 106.625 24.6419 106.724C24.6419 106.857 24.6088 107.022 24.5428 107.122V107.155C24.5097 107.221 24.4437 107.287 24.3776 107.353L24.1134 115.764V116.062V116.426C24.1134 116.492 24.0803 116.558 24.0473 116.591L23.75 116.757C23.8161 116.724 23.8161 116.658 23.8491 116.591L23.8821 115.631L24.1464 107.486C24.1464 107.32 24.1794 107.188 24.2125 107.188L24.2785 107.155C24.3116 107.122 24.3446 107.089 24.3776 107.022C24.4106 106.956 24.4437 106.857 24.4437 106.757C24.4437 106.592 24.3776 106.459 24.3115 106.493L24.2455 106.526C24.2125 106.559 24.1794 106.493 24.1794 106.393V106.228C24.1134 106.029 24.4106 105.764 24.741 105.565Z" fill="#390B52"/>
<path opacity="0.6" d="M24.741 105.565L24.8731 105.797C24.6088 105.93 24.4437 106.128 24.4106 106.195C24.4767 106.228 24.5428 106.294 24.5758 106.36C24.6419 106.459 24.6419 106.625 24.6419 106.724C24.6419 106.857 24.6088 107.022 24.5428 107.122V107.155C24.5097 107.221 24.4437 107.287 24.3776 107.353L24.1134 115.764V116.062V116.426C24.1134 116.492 24.0803 116.558 24.0473 116.591L23.75 116.757C23.8161 116.724 23.8161 116.658 23.8491 116.591L23.8821 115.631L24.1464 107.486C24.1464 107.32 24.1794 107.188 24.2125 107.188L24.2785 107.155C24.3116 107.122 24.3446 107.089 24.3776 107.022C24.4106 106.956 24.4437 106.857 24.4437 106.757C24.4437 106.592 24.3776 106.459 24.3115 106.493L24.2455 106.526C24.2125 106.559 24.1794 106.493 24.1794 106.393V106.228C24.1134 106.029 24.4106 105.764 24.741 105.565Z" fill="white"/>
<path d="M24.873 105.83L26.6568 104.87C26.6898 104.87 26.7228 104.837 26.7228 104.837L26.7889 104.804C26.6237 104.936 26.5246 105.201 26.5246 105.433C26.5246 105.532 26.5246 105.665 26.5907 105.764C26.6237 105.863 26.7228 105.897 26.7889 105.93V105.963C26.7889 105.996 26.7889 105.996 26.7889 106.029L26.5246 114.174C26.5246 114.174 26.5246 114.373 26.5246 114.638C26.5246 114.671 26.5246 114.737 26.5246 114.77C26.5246 114.903 26.5246 115.035 26.5246 115.168C26.5246 115.234 26.4916 115.267 26.4586 115.3L26.5246 115.267L26.7228 115.168C26.7558 115.135 26.7889 115.101 26.7889 115.035C26.7889 115.002 26.7889 114.936 26.7889 114.903C26.7889 114.87 26.7889 114.837 26.7889 114.803C26.7889 114.737 26.7889 114.704 26.7889 114.638C26.7889 114.605 26.7889 114.572 26.7889 114.539C26.7889 114.505 26.7889 114.505 26.7889 114.472C26.7889 114.406 26.7889 114.34 26.7889 114.34L26.9871 107.883L27.0531 105.83C27.0531 105.698 27.0201 105.565 26.9871 105.599L26.921 105.632C26.8549 105.665 26.7889 105.565 26.7889 105.4C26.7889 105.234 26.8549 105.102 26.921 105.069L26.9871 105.036C27.0201 105.003 27.0531 104.969 27.0531 104.936V104.903C27.0531 104.87 27.0531 104.837 27.0531 104.804C27.0531 104.771 27.0531 104.738 27.0531 104.671C27.0531 104.605 27.0201 104.572 26.9871 104.539C26.9871 104.539 26.9871 104.539 26.954 104.539H26.921C26.921 104.539 26.921 104.539 26.888 104.539C26.8549 104.539 26.8219 104.539 26.8219 104.539C26.7889 104.539 26.7558 104.539 26.7558 104.539C26.7228 104.539 26.6898 104.572 26.6568 104.572C26.6237 104.572 26.6237 104.572 26.5907 104.605C26.5907 104.605 26.5577 104.605 26.5577 104.638C26.5246 104.638 26.4916 104.671 26.4586 104.671L24.6748 105.632L24.873 105.83Z" fill="#390B52"/>
<path opacity="0.6" d="M24.873 105.83L26.6568 104.87C26.6898 104.87 26.7228 104.837 26.7228 104.837L26.7889 104.804C26.6237 104.936 26.5246 105.201 26.5246 105.433C26.5246 105.532 26.5246 105.665 26.5907 105.764C26.6237 105.863 26.7228 105.897 26.7889 105.93V105.963C26.7889 105.996 26.7889 105.996 26.7889 106.029L26.5246 114.174C26.5246 114.174 26.5246 114.373 26.5246 114.638C26.5246 114.671 26.5246 114.737 26.5246 114.77C26.5246 114.903 26.5246 115.035 26.5246 115.168C26.5246 115.234 26.4916 115.267 26.4586 115.3L26.5246 115.267L26.7228 115.168C26.7558 115.135 26.7889 115.101 26.7889 115.035C26.7889 115.002 26.7889 114.936 26.7889 114.903C26.7889 114.87 26.7889 114.837 26.7889 114.803C26.7889 114.737 26.7889 114.704 26.7889 114.638C26.7889 114.605 26.7889 114.572 26.7889 114.539C26.7889 114.505 26.7889 114.505 26.7889 114.472C26.7889 114.406 26.7889 114.34 26.7889 114.34L26.9871 107.883L27.0531 105.83C27.0531 105.698 27.0201 105.565 26.9871 105.599L26.921 105.632C26.8549 105.665 26.7889 105.565 26.7889 105.4C26.7889 105.234 26.8549 105.102 26.921 105.069L26.9871 105.036C27.0201 105.003 27.0531 104.969 27.0531 104.936V104.903C27.0531 104.87 27.0531 104.837 27.0531 104.804C27.0531 104.771 27.0531 104.738 27.0531 104.671C27.0531 104.605 27.0201 104.572 26.9871 104.539C26.9871 104.539 26.9871 104.539 26.954 104.539H26.921C26.921 104.539 26.921 104.539 26.888 104.539C26.8549 104.539 26.8219 104.539 26.8219 104.539C26.7889 104.539 26.7558 104.539 26.7558 104.539C26.7228 104.539 26.6898 104.572 26.6568 104.572C26.6237 104.572 26.6237 104.572 26.5907 104.605C26.5907 104.605 26.5577 104.605 26.5577 104.638C26.5246 104.638 26.4916 104.671 26.4586 104.671L24.6748 105.632L24.873 105.83Z" fill="white"/>
<path d="M25.1379 75.8652C20.6125 76.7261 20.2821 77.9512 19.0269 82.653C17.7056 87.5534 17.2762 89.0434 16.6486 91.1956C16.021 93.3479 15.8888 94.0432 15.8888 96.1292C15.8558 99.7383 15.9549 102.619 15.8888 105.632C15.8888 106.162 15.5255 107.122 15.4264 108.281C15.2942 109.539 15.2942 111.89 15.4594 112.685C15.5585 113.314 16.3843 114.407 17.2432 115.135C17.6065 115.433 19.3242 115.764 20.0839 115.764C20.8106 115.764 21.174 115.234 21.174 115.234L19.7866 114.373C19.7866 114.373 19.4894 113.148 19.5554 112.188C19.5885 111.228 20.183 111.427 20.3152 112.122C20.4473 112.817 20.6125 113.612 20.9097 114.009C21.207 114.407 21.8677 114.671 21.8347 114.009C21.8016 113.347 21.8347 111.46 21.7356 110.963C21.4052 109.374 20.3812 107.089 20.3812 106.063C20.3812 104.043 22.0989 95.2352 22.0989 95.2352C22.0989 95.2352 24.5433 87.8514 25.0718 86.0303C25.5013 84.441 26.7234 79.4081 25.1379 75.8652Z" fill="#FFD2D2"/>
<path d="M20.3477 52.2906C20.3477 52.2906 20.3147 52.2906 20.3477 52.2906C20.3147 52.2906 20.3147 52.2906 20.3477 52.2906ZM8.91851 46.5293C10.438 49.6417 14.0385 52.2906 20.3477 52.2906C23.1555 52.2906 25.4017 51.7608 27.1854 50.9C28.3746 52.39 30.819 52.9197 32.6028 52.2575C32.834 52.1582 32.834 51.8271 32.6028 51.7277C30.819 50.9662 30.2905 49.708 30.1584 48.814C30.819 48.1186 31.3475 47.3571 31.7439 46.5624C33.4286 43.1519 33.1643 39.3773 31.0833 36.1655C29.0683 33.053 24.6089 31.0995 20.3147 31.0995C16.0535 31.0995 11.5941 33.053 9.57916 36.1655C7.46508 39.3442 7.23386 43.1188 8.91851 46.5293Z" fill="white"/>
<path d="M30.9516 52.6546C29.4982 52.6546 28.0117 52.0586 27.1529 51.0321C25.237 51.9261 22.9578 52.3897 20.3482 52.3897H20.3152C12.7838 52.3897 9.87692 48.7475 8.81988 46.5952C7.13522 43.1517 7.36645 39.3439 9.48053 36.099C11.4625 33.0528 15.8228 30.9999 20.3152 30.9999C24.8076 30.9999 29.1678 33.0528 31.1498 36.099C33.2639 39.3108 33.4951 43.1517 31.8104 46.5952C31.4141 47.423 30.8855 48.1515 30.2249 48.8468C30.39 49.7408 30.9186 50.9328 32.6032 51.6612C32.7353 51.7275 32.8344 51.8599 32.8344 52.0255C32.8344 52.191 32.7353 52.3235 32.6032 52.3897C32.1077 52.5552 31.5462 52.6546 30.9516 52.6546ZM27.2189 50.7672L27.285 50.8335C28.4411 52.2572 30.8195 52.8201 32.6032 52.1579C32.6693 52.1248 32.7023 52.0586 32.7023 51.9924C32.7023 51.9261 32.6693 51.8599 32.6032 51.8268C30.7864 51.0652 30.2249 49.7739 30.0928 48.8137V48.7475L30.1258 48.7143C30.7864 48.0521 31.315 47.2906 31.7113 46.4959C33.363 43.1186 33.1317 39.377 31.0507 36.2314C29.0687 33.2514 24.6754 31.1985 20.3152 31.1985C15.9549 31.1985 11.5616 33.2514 9.64569 36.1983C7.56465 39.377 7.33342 43.1186 8.98504 46.4628C10.0421 48.615 12.9159 52.191 20.3152 52.191C22.9247 52.191 25.237 51.7275 27.1198 50.8335L27.2189 50.7672Z" fill="#455A64"/>
<path d="M13.4777 44.2774V40.271C13.4447 39.5094 14.1383 38.7148 15.4596 38.1188C18.1353 36.9268 22.4625 36.9268 25.1381 38.0857C26.4925 38.6817 27.1531 39.4432 27.1531 40.2379V44.2443C27.1531 45.0059 26.4925 46.1979 25.1712 46.7939C22.4955 47.9859 18.1683 47.9859 15.4927 46.827C14.1714 46.231 13.4777 45.0721 13.4777 44.2774C13.4777 44.3106 13.4777 44.2774 13.4777 44.2774Z" fill="#263238"/>
<path d="M20.282 34.576L30.2247 40.2712L20.348 46.0325L10.4053 40.3374L20.282 34.576Z" fill="#455A64"/>
<path d="M30.2243 40.2714V40.6687L20.3477 46.4631V46.0327L30.2243 40.2714Z" fill="#37474F"/>
<path d="M10.4053 40.3378V40.7682L20.348 46.4633V46.0329L10.4053 40.3378Z" fill="#263238"/>
<path opacity="0.1" d="M26.3597 42.953L20.3478 47.0588L14.3359 42.9861L20.3478 46.4628L26.3597 42.953Z" fill="black"/>
<path d="M15.1953 42.0925L19.5886 39.4767C19.6877 39.4105 19.8199 39.4436 19.8859 39.5429C19.952 39.6423 19.9189 39.7416 19.8529 39.8078C19.8529 39.8078 19.8199 39.8078 19.8199 39.8409L15.4265 42.4567" fill="#E0E0E0"/>
<path d="M14.5344 45.8007C14.6665 45.9 15.0299 45.9 15.195 45.8007L15.7566 48.582C15.7566 49.2442 14.0059 49.2773 14.0059 48.582L14.5344 45.8007Z" fill="#390B52"/>
<path opacity="0.15" d="M14.5341 47.8534L14.435 49.0123C14.402 49.0123 14.369 48.9792 14.3359 48.9792L14.5341 47.8534Z" fill="black"/>
<path opacity="0.15" d="M15.3601 49.0128L15.1289 46.6288L15.4923 48.9797C15.4262 48.9797 15.3932 49.0128 15.3601 49.0128Z" fill="black"/>
<path opacity="0.15" d="M14.9634 49.0791C14.9303 49.0791 14.8973 49.0791 14.8643 49.0791L14.8973 47.3573L14.9634 49.0791Z" fill="black"/>
<path d="M14.8982 45.768C15.0303 45.768 15.0964 45.6687 15.0964 45.5362L15.0634 43.0198C15.0634 42.788 15.1955 42.5893 15.3937 42.4569L15.1955 42.0927C14.8652 42.2913 14.667 42.6555 14.667 43.0198L14.7 45.5362C14.667 45.6687 14.7661 45.768 14.8982 45.768Z" fill="#E0E0E0"/>
<path d="M15.3605 45.5367C15.3605 45.2718 15.1623 45.0731 14.898 45.0731C14.6337 45.0731 14.4355 45.2718 14.4355 45.5367C14.4355 45.8016 14.6337 46.0002 14.898 46.0002C15.1623 46.0333 15.3605 45.8016 15.3605 45.5367Z" fill="#390B52"/>
<path opacity="0.15" d="M14.4355 45.5698C14.4686 45.6691 14.6998 45.9009 14.9641 45.7353C15.2614 45.5698 15.1953 45.2056 14.9641 45.0731C15.1953 45.1062 15.3605 45.3049 15.3605 45.5367C15.3605 45.8016 15.1623 46.0002 14.898 46.0002C14.6337 46.0333 14.4355 45.8347 14.4355 45.5698Z" fill="black"/>
<g clip-path="url(#clip0_1550_4)">
<path d="M122 22.9999L128.784 11.9755C128.832 11.8904 128.904 11.817 128.992 11.7641C129.281 11.5909 129.657 11.676 129.835 11.9549C130.455 12.9238 131.066 13.7723 131.669 14.5532L127.143 21.9107C126.917 22.2189 126.785 22.5947 126.785 22.9999H122ZM139.404 1.50013C143.448 -1.22734 143.752 4.16888 147.721 0.801384V6.30036C143.936 9.62089 143.117 4.25403 139.404 6.9815V1.50013ZM138.407 -0.00012207C138.835 -0.00012207 139.178 0.337509 139.178 0.751474C139.178 1.02745 139.025 1.2682 138.799 1.40031H138.835V7.84466C138.991 7.90631 139.13 8.01494 139.226 8.16467C143.129 14.2391 146.694 16.7933 150.412 22.9999H128.706L137.817 8.1911C137.859 8.1177 137.913 8.05017 137.98 7.99439V1.40031H138.016C137.787 1.2682 137.636 1.02745 137.636 0.751474C137.636 0.337509 137.983 -0.00012207 138.407 -0.00012207ZM147.41 15.5749L149.627 11.9755C149.675 11.8904 149.747 11.817 149.834 11.7641C150.123 11.5909 150.5 11.676 150.677 11.9549C153.58 16.4763 156.233 18.3787 159 22.9999H152.333C152.333 22.6799 152.249 22.354 152.072 22.0545C150.494 19.421 148.955 17.4334 147.41 15.5749Z" fill="#390B52"/>
</g>
<defs>
<clipPath id="clip0_1550_4">
<rect width="37" height="23" fill="white" transform="translate(122 -0.00012207)"/>
</clipPath>
</defs>
</svg>
