<svg width="381" height="172" viewBox="0 0 381 172" fill="none" xmlns="http://www.w3.org/2000/svg">
<g clip-path="url(#clip0)">
<path d="M344.456 69.271H332.94V109.103H344.456V69.271Z" fill="#F2F2F2"/>
<path d="M352.061 101.61L324.054 68.3149L267.835 68.8285L233.731 102.021L234.421 102.464H234.174V171.506H351.986V102.464L352.061 101.61Z" fill="#F2F2F2"/>
<path d="M324.083 68.386L289.094 109.377V171.506H351.985V101.579L324.083 68.386Z" fill="#E6E6E6"/>
<path d="M327.183 137.148H314.339V148.492H327.183V137.148Z" fill="#3F3D56"/>
<path d="M327.183 117.512H314.339V128.676H327.183V117.512Z" fill="#3F3D56"/>
<path d="M327.183 137.148H314.339V148.492H327.183V137.148Z" fill="white"/>
<path d="M327.183 117.512H314.339V128.676H327.183V117.512Z" fill="white"/>
<path d="M270.103 134.137H257.259V145.482H270.103V134.137Z" fill="white"/>
<path d="M270.103 114.501H257.259V125.666H270.103V114.501Z" fill="white"/>
<path d="M253.584 69.271H242.068V109.103H253.584V69.271Z" fill="#F2F2F2"/>
<path d="M261.188 101.61L233.181 68.3149L176.962 68.8285L142.858 102.021L143.548 102.464H143.301V171.506H261.113V102.464L261.188 101.61Z" fill="#F2F2F2"/>
<path d="M233.211 68.386L198.222 109.377V171.506H261.113V101.579L233.211 68.386Z" fill="#E6E6E6"/>
<path d="M236.311 137.148H223.467V148.492H236.311V137.148Z" fill="#3F3D56"/>
<path d="M236.311 117.512H223.467V128.676H236.311V117.512Z" fill="#3F3D56"/>
<path d="M236.311 137.148H223.467V148.492H236.311V137.148Z" fill="white"/>
<path d="M236.311 117.512H223.467V128.676H236.311V117.512Z" fill="white"/>
<path d="M179.231 134.137H166.387V145.482H179.231V134.137Z" fill="white"/>
<path d="M179.231 114.501H166.387V125.666H179.231V114.501Z" fill="white"/>
<path d="M160.537 34.8955H145.149V88.1204H160.537V34.8955Z" fill="#F2F2F2"/>
<path d="M170.698 78.1074L133.273 33.6179L58.1512 34.3039L12.5811 78.658L13.5016 79.2494H13.1729V171.506H170.597V79.2494L170.698 78.1074Z" fill="#F2F2F2"/>
<path d="M133.312 33.7126L86.5586 88.4865V171.506H170.597V78.0667L133.312 33.7126Z" fill="#E6E6E6"/>
<path d="M137.456 125.595H120.293V140.754H137.456V125.595Z" fill="#3F3D56"/>
<path d="M137.456 99.3567H120.293V114.275H137.456V99.3567Z" fill="#3F3D56"/>
<path d="M137.456 125.595H120.293V140.754H137.456V125.595Z" fill="white"/>
<path d="M137.456 99.3567H120.293V114.275H137.456V99.3567Z" fill="white"/>
<path d="M61.1833 121.573H44.0205V136.732H61.1833V121.573Z" fill="white"/>
<path d="M61.1833 95.3345H44.0205V110.253H61.1833V95.3345Z" fill="white"/>
<path d="M368.052 171.165H0V171.928H368.052V171.165Z" fill="#3F3D56"/>
<path d="M57.9876 157.135C64.1238 157.135 69.0982 146.992 69.0982 134.481C69.0982 121.97 64.1238 111.828 57.9876 111.828C51.8513 111.828 46.877 121.97 46.877 134.481C46.877 146.992 51.8513 157.135 57.9876 157.135Z" fill="#3F3D56"/>
<path d="M59.0131 171.561C54.5632 144.882 58.9683 118.3 59.0133 118.034L59.8789 118.181C59.8341 118.445 55.4543 144.888 59.8791 171.417L59.0131 171.561Z" fill="#0091FF"/>
<path d="M67.7696 129.61L57.7227 134.98L58.1368 135.754L68.1838 130.384L67.7696 129.61Z" fill="#0091FF"/>
<path d="M47.5325 132.3L47.1182 133.073L57.1639 138.447L57.5783 137.673L47.5325 132.3Z" fill="#0091FF"/>
<path d="M31.2916 143.852C43.2933 143.852 53.0226 124.015 53.0226 99.5442C53.0226 75.0738 43.2933 55.2366 31.2916 55.2366C19.2899 55.2366 9.56055 75.0738 9.56055 99.5442C9.56055 124.015 19.2899 143.852 31.2916 143.852Z" fill="#0091FF"/>
<path d="M33.7127 172C25.0208 119.888 33.625 67.9652 33.7129 67.4468L34.5785 67.5933C34.4908 68.1104 25.9119 119.893 34.5787 171.856L33.7127 172Z" fill="#3F3D56"/>
<path d="M50.6219 90.3862L30.9707 100.89L31.3848 101.663L51.0361 91.1599L50.6219 90.3862Z" fill="#3F3D56"/>
<path d="M10.6458 95.648L10.2314 96.4216L29.8797 106.93L30.2941 106.157L10.6458 95.648Z" fill="#3F3D56"/>
<path d="M82.7606 133.508C99.184 133.508 112.498 106.362 112.498 72.8766C112.498 39.3908 99.184 12.2451 82.7606 12.2451C66.3372 12.2451 53.0234 39.3908 53.0234 72.8766C53.0234 106.362 66.3372 133.508 82.7606 133.508Z" fill="#0091FF"/>
<path d="M86.232 172C74.3423 100.715 86.1119 29.6897 86.2322 28.9807L87.0978 29.1272C86.9777 29.835 75.2334 100.72 87.098 171.856L86.232 172Z" fill="#3F3D56"/>
<path d="M109.289 60.487L82.3975 74.8601L82.8116 75.6338L109.703 61.2607L109.289 60.487Z" fill="#3F3D56"/>
<path d="M54.4319 67.6873L54.0176 68.4609L80.9048 82.8411L81.3192 82.0675L54.4319 67.6873Z" fill="#3F3D56"/>
<path d="M332.574 157.135C338.71 157.135 343.684 146.992 343.684 134.481C343.684 121.97 338.71 111.828 332.574 111.828C326.437 111.828 321.463 121.97 321.463 134.481C321.463 146.992 326.437 157.135 332.574 157.135Z" fill="#3F3D56"/>
<path d="M331.548 171.561C335.998 144.882 331.592 118.3 331.547 118.034L330.682 118.181C330.727 118.445 335.107 144.888 330.682 171.417L331.548 171.561Z" fill="#0091FF"/>
<path d="M322.792 129.61L322.378 130.384L332.425 135.754L332.839 134.98L322.792 129.61Z" fill="#0091FF"/>
<path d="M343.028 132.3L332.982 137.673L333.397 138.447L343.443 133.074L343.028 132.3Z" fill="#0091FF"/>
<path d="M359.269 143.852C371.271 143.852 381 124.015 381 99.5442C381 75.0738 371.271 55.2366 359.269 55.2366C347.267 55.2366 337.538 75.0738 337.538 99.5442C337.538 124.015 347.267 143.852 359.269 143.852Z" fill="#0091FF"/>
<path d="M356.848 172C365.54 119.888 356.936 67.9652 356.848 67.4468L355.983 67.5933C356.07 68.1104 364.649 119.893 355.982 171.856L356.848 172Z" fill="#3F3D56"/>
<path d="M339.939 90.3865L339.524 91.1602L359.176 101.664L359.59 100.89L339.939 90.3865Z" fill="#3F3D56"/>
<path d="M379.915 95.6481L360.267 106.157L360.681 106.931L380.329 96.4217L379.915 95.6481Z" fill="#3F3D56"/>
<path d="M307.801 133.508C324.224 133.508 337.538 106.362 337.538 72.8766C337.538 39.3908 324.224 12.2451 307.801 12.2451C291.377 12.2451 278.063 39.3908 278.063 72.8766C278.063 106.362 291.377 133.508 307.801 133.508Z" fill="#0091FF"/>
<path d="M304.329 172C316.219 100.715 304.449 29.6897 304.329 28.9807L303.463 29.1272C303.583 29.835 315.328 100.72 303.463 171.856L304.329 172Z" fill="#3F3D56"/>
<path d="M281.273 60.487L280.858 61.2607L307.749 75.6338L308.164 74.8601L281.273 60.487Z" fill="#3F3D56"/>
<path d="M336.129 67.6872L309.242 82.0674L309.657 82.841L336.544 68.4608L336.129 67.6872Z" fill="#3F3D56"/>
<path d="M225.12 38.713L228.635 35.9038C225.905 35.6028 224.783 37.0909 224.324 38.2687C222.19 37.3836 219.868 38.5436 219.868 38.5436L226.901 41.0949C226.546 40.1479 225.928 39.3217 225.12 38.713Z" fill="#3F3D56"/>
<path d="M139.212 13.913L142.727 11.1038C139.997 10.8028 138.875 12.2909 138.415 13.4687C136.282 12.5835 133.96 13.7436 133.96 13.7436L140.993 16.2948C140.638 15.3479 140.02 14.5216 139.212 13.913Z" fill="#3F3D56"/>
<path d="M279.339 2.84852L282.854 0.039341C280.124 -0.261692 279.002 1.2264 278.542 2.40425C276.409 1.51908 274.087 2.67913 274.087 2.67913L281.12 5.23035C280.765 4.28342 280.147 3.45718 279.339 2.84852Z" fill="#3F3D56"/>
<path d="M286.435 166.752C285.501 166.751 284.583 166.998 283.774 167.465C282.952 166.723 281.933 166.235 280.839 166.06C279.746 165.886 278.625 166.032 277.613 166.482C276.601 166.931 275.741 167.665 275.138 168.593C274.536 169.522 274.215 170.605 274.217 171.712H291.761C291.665 170.365 291.063 169.105 290.075 168.184C289.086 167.264 287.786 166.752 286.435 166.752Z" fill="#3F3D56"/>
<path d="M108.127 166.752C107.193 166.751 106.275 166.998 105.466 167.465C104.645 166.723 103.625 166.235 102.532 166.06C101.438 165.886 100.317 166.032 99.3053 166.482C98.2933 166.931 97.4337 167.665 96.8309 168.593C96.228 169.522 95.9078 170.605 95.9092 171.712H113.453C113.358 170.365 112.755 169.105 111.767 168.184C110.779 167.264 109.478 166.752 108.127 166.752Z" fill="#3F3D56"/>
<path d="M199.381 166.752C198.447 166.751 197.529 166.998 196.72 167.465C195.899 166.723 194.879 166.235 193.786 166.06C192.692 165.886 191.571 166.032 190.559 166.482C189.547 166.931 188.688 167.665 188.085 168.593C187.482 169.522 187.162 170.605 187.163 171.712H204.707C204.612 170.365 204.009 169.105 203.021 168.184C202.033 167.264 200.732 166.752 199.381 166.752Z" fill="#3F3D56"/>
<path d="M180.125 154.228H129.509V155.859H137.403V171.36H139.035V155.859H169.782V171.36H171.415V155.859H180.125V154.228Z" fill="#3F3D56"/>
<path d="M180.225 149.347H129.608V150.978H180.225V149.347Z" fill="#3F3D56"/>
<path d="M180.225 145.268H129.608V146.899H180.225V145.268Z" fill="#3F3D56"/>
<path d="M180.225 141.188H129.608V142.82H180.225V141.188Z" fill="#3F3D56"/>
<path d="M259.162 154.228H208.545V155.859H216.439V171.36H218.072V155.859H248.818V171.36H250.451V155.859H259.162V154.228Z" fill="#3F3D56"/>
<path d="M259.261 149.347H208.645V150.978H259.261V149.347Z" fill="#3F3D56"/>
<path d="M259.261 145.268H208.645V146.899H259.261V145.268Z" fill="#3F3D56"/>
<path d="M259.261 141.188H208.645V142.82H259.261V141.188Z" fill="#3F3D56"/>
</g>
<defs>
<clipPath id="clip0">
<rect width="381" height="172" fill="white"/>
</clipPath>
</defs>
</svg>
