<svg width="180" height="135" viewBox="0 0 180 135" fill="none" xmlns="http://www.w3.org/2000/svg">
<g clip-path="url(#clip0_1273_1464)">
<g opacity="0.5">
<path opacity="0.5" d="M171.555 101.813C167.727 90.4862 157.467 81.1922 145.613 80.0621C134.422 78.991 123.616 84.8356 112.375 84.9452C94.1986 85.1139 79.1118 70.6246 61.3049 66.9559C40.61 62.6884 17.7742 75.609 10.6632 95.5971C6.0792 108.501 8.42155 123.302 15.7005 134.823H168.281C173.477 124.702 175.19 112.574 171.555 101.813Z" fill="#E2EDFF"/>
</g>
<path d="M29.0492 103.626C43.8001 101.315 56.8971 90.7393 62.5389 76.8994C63.7227 73.9897 64.5622 70.9788 65.1164 67.9173C65.0072 67.8836 64.8897 67.8499 64.7805 67.8246C64.4027 69.8824 63.9158 71.9234 63.2609 73.9306C60.9606 81.0404 56.704 87.4248 51.205 92.4429C45.7395 97.4273 39.0483 101.071 31.8449 102.749C24.3897 104.486 16.5063 103.997 9.23575 101.644C9.16859 101.627 9.10982 101.602 9.04266 101.577C9.01747 101.686 9.00068 101.796 8.98389 101.906C15.4316 104.014 22.3328 104.68 29.0492 103.626Z" fill="white"/>
<path d="M53.0101 113.629C64.0167 115.105 75.3254 115.897 86.206 113.097C91.1426 111.824 95.9112 109.808 100.084 106.865C104.282 103.904 107.749 100.033 110.503 95.7068C112.702 92.2489 114.423 88.5633 115.8 84.7512C115.683 84.7597 115.557 84.7765 115.439 84.785C114.499 87.3657 113.399 89.8874 112.089 92.3333C109.554 97.0646 106.263 101.433 102.132 104.874C98.0605 108.273 93.2414 110.66 88.1873 112.195C77.5166 115.442 66.2079 114.953 55.2685 113.587C43.3133 112.085 31.3413 109.555 19.2266 110.095C15.6081 110.255 11.9393 110.694 8.36279 111.478C8.37119 111.596 8.37119 111.714 8.37958 111.832C11.3012 111.183 14.2732 110.77 17.2369 110.55C29.2424 109.673 41.1641 112.035 53.0101 113.629Z" fill="white"/>
<path d="M160.75 121.573C156.519 120.637 152.346 119.338 148.484 117.348C144.891 115.484 141.499 113.013 139.098 109.698C136.63 106.291 135.454 102.167 135.815 97.967C136.495 90.25 141.499 84.0765 147.972 80.4078C147.804 80.3741 147.644 80.3488 147.477 80.3235C142.045 83.4777 137.713 88.3103 136.059 94.6609C135.001 98.7092 135.244 103.01 137.016 106.822C138.712 110.483 141.633 113.409 144.933 115.636C148.417 117.989 152.354 119.642 156.384 120.806C161.212 122.206 166.199 123.066 171.211 123.386C171.614 123.412 172.017 123.429 172.42 123.446C172.445 123.336 172.47 123.226 172.495 123.108C168.541 122.931 164.612 122.425 160.75 121.573Z" fill="white"/>
<path d="M72.7147 76.5282C73.4787 74.9089 74.335 73.3318 75.2669 71.8137C75.1662 71.7631 75.0571 71.721 74.9563 71.6703C74.2847 72.7667 73.655 73.88 73.0757 75.027C71.6233 77.8776 70.4563 80.8801 69.6 83.9669C68.6681 87.3404 67.8789 91.0428 68.7436 94.5176C69.4069 97.1995 71.1532 99.7044 73.8145 100.666C76.8201 101.754 80.086 100.624 82.7473 99.1477C85.6438 97.5369 88.3051 95.3778 90.8154 93.2188C93.3424 91.0428 95.7268 88.7067 97.9516 86.2187C98.8499 85.2151 99.7146 84.1861 100.554 83.1403C100.437 83.1066 100.319 83.0729 100.202 83.0307C96.1382 88.0741 91.4451 92.6031 86.2231 96.4489C83.5449 98.4224 80.5309 100.413 77.1475 100.725C73.7809 101.037 70.9601 99.0887 69.6252 96.0441C68.1476 92.6621 68.752 88.8163 69.6 85.3584C70.3304 82.3223 71.3882 79.3536 72.7147 76.5282Z" fill="white"/>
<path d="M163.185 112.76C166.669 112.945 170.161 112.077 173.352 110.55C173.343 110.449 173.335 110.348 173.326 110.247C170.682 111.503 167.827 112.279 164.847 112.423C161.505 112.583 158.097 111.706 155.612 109.378C153.37 107.278 152.245 104.216 153.102 101.197C153.479 99.8561 154.235 98.5995 155.318 97.714C156.728 96.567 158.55 96.2718 160.313 96.2212C161.9 96.1706 163.495 96.2886 165.074 96.0862C166.224 95.9344 167.349 95.6224 168.423 95.1585C168.365 95.0657 168.306 94.9645 168.247 94.8718C167.894 95.0236 167.542 95.1585 167.181 95.2681C163.923 96.3139 160.439 95.3019 157.207 96.3392C154.68 97.1489 153.001 99.4176 152.581 101.998C152.136 104.706 153.143 107.337 155.024 109.277C157.173 111.478 160.145 112.591 163.185 112.76Z" fill="white"/>
<path d="M131.13 123.901C129.619 120.291 128.108 116.673 126.605 113.064C125.547 110.533 124.439 107.784 122.156 106.106C119.746 104.343 116.48 104.343 113.785 105.422C110.931 106.569 108.664 108.796 106.725 111.132C102.871 115.788 100.101 121.32 98.5643 127.165C97.9095 129.67 97.4729 132.234 97.2798 134.814H97.624C98.2033 127.258 100.797 119.853 105.197 113.662C106.993 111.132 109.092 108.61 111.703 106.89C114.39 105.119 117.975 104.267 120.98 105.768C123.726 107.143 125.027 110.145 126.152 112.827C127.554 116.184 128.956 119.532 130.358 122.889C132.02 126.861 133.683 130.834 135.337 134.806H135.698C134.178 131.188 132.658 127.544 131.13 123.901Z" fill="white"/>
<g opacity="0.5">
<path opacity="0.5" d="M116.85 60.7402C114.675 60.8076 112.484 60.7149 109.957 59.7956C104.567 57.8305 97.8509 61.0522 97.8005 67.3017C97.7669 72.1512 102.208 75.3645 106.322 76.8404C114.079 79.632 130.148 78.1645 129.393 66.5848C129.149 62.8824 127.193 61.1534 123.659 60.7486C121.165 60.4534 119.007 60.6727 116.85 60.7402Z" fill="#E2EDFF"/>
</g>
<path d="M145.873 28.7929C143.757 28.0592 142.313 26.7857 140.685 24.9134L141.373 23.4374C143.086 25.7146 143.64 26.9459 145.781 26.7688L145.873 28.7929Z" fill="#FFB900"/>
<path d="M170.153 61.4739C168.583 59.4161 167.878 57.3076 167.298 54.5413L168.642 53.6473C169.103 56.8438 169.019 58.3365 171.051 59.5679L170.153 61.4739Z" fill="#007BFF"/>
<path d="M117.463 34.3424C115.238 34.899 113.383 34.5785 111.116 33.8279L111.107 32.099C113.626 33.1701 114.659 33.9628 116.514 32.5628L117.463 34.3424Z" fill="#14CCA1"/>
<path d="M60.2223 27.2917C59.1728 28.7929 57.9891 29.6026 56.3939 30.3785L55.7139 29.3917C57.5693 28.658 58.4676 28.5652 58.9797 26.7773L60.2223 27.2917Z" fill="#FF5C33"/>
<path d="M23.6005 71.0547C21.0987 71.1812 19.2265 70.4896 17.0269 69.2667L17.4802 67.4956C19.8561 69.0896 20.7377 70.1101 23.0716 69.0474L23.6005 71.0547Z" fill="#007BFF"/>
<path d="M28.1593 27.9833C26.2535 26.5917 25.2545 24.8796 24.2974 22.535L25.5987 21.3121C26.4802 24.0784 26.5725 25.4615 28.8645 25.976L28.1593 27.9833Z" fill="#14CCA1"/>
<path d="M39.5776 43.3581C37.4116 44.8762 35.3798 45.3148 32.7605 45.4834L32.2231 43.6702C35.1951 43.7376 36.5216 44.134 38.0328 41.8906L39.5776 43.3581Z" fill="#007BFF"/>
<path d="M70.5399 1.53484C68.3739 2.81678 66.3841 3.0698 63.8655 3.0192L63.4541 1.23123C66.3002 1.53484 67.5511 2.02401 69.1463 -0.00854492L70.5399 1.53484Z" fill="#FFB900"/>
<path d="M101.276 5.95415C99.471 5.06017 98.2956 3.76136 97.0195 1.92279L97.7583 0.69989C99.0764 2.90955 99.4626 4.06498 101.368 4.15775L101.276 5.95415Z" fill="#14CCA1"/>
<path d="M129.41 13.0386C131.391 11.8663 132.483 10.3397 133.582 8.21443L132.373 6.98309C131.324 9.51324 131.148 10.7952 128.839 11.1157L129.41 13.0386Z" fill="#FF5C33"/>
<g opacity="0.837">
<g opacity="0.837">
<path opacity="0.837" d="M64.2936 75.9211C62.2955 74.7319 61.0614 73.1379 59.7349 70.9198L60.6584 69.5957C62.0017 72.2355 62.3627 73.5934 64.5287 73.8801L64.2936 75.9211Z" fill="#FF5C33"/>
</g>
</g>
<path d="M130.249 57.9654C129.452 60.445 128.234 62.0896 126.471 63.9197L125.212 62.992C127.336 61.0944 128.461 60.5124 128.453 57.9401L130.249 57.9654Z" fill="#FF5C33"/>
<path d="M48.3591 17.7109C48.8228 17.7109 49.1986 17.3333 49.1986 16.8675C49.1986 16.4017 48.8228 16.0241 48.3591 16.0241C47.8954 16.0241 47.5195 16.4017 47.5195 16.8675C47.5195 17.3333 47.8954 17.7109 48.3591 17.7109Z" fill="#FF5C33"/>
<path d="M115.078 17.7109C115.542 17.7109 115.918 17.3333 115.918 16.8675C115.918 16.4017 115.542 16.0241 115.078 16.0241C114.615 16.0241 114.239 16.4017 114.239 16.8675C114.239 17.3333 114.615 17.7109 115.078 17.7109Z" fill="#FFB900"/>
<path d="M137.016 43.4087C137.479 43.4087 137.855 43.0311 137.855 42.5653C137.855 42.0995 137.479 41.7219 137.016 41.7219C136.552 41.7219 136.176 42.0995 136.176 42.5653C136.176 43.0311 136.552 43.4087 137.016 43.4087Z" fill="#FF5C33"/>
<path d="M49.7023 51.9521C50.166 51.9521 50.5419 51.5745 50.5419 51.1088C50.5419 50.643 50.166 50.2654 49.7023 50.2654C49.2387 50.2654 48.8628 50.643 48.8628 51.1088C48.8628 51.5745 49.2387 51.9521 49.7023 51.9521Z" fill="#14CCA1"/>
<path d="M11.4305 42.0249L9.75049 43.7126L11.4305 45.4003L13.1105 43.7126L11.4305 42.0249Z" fill="#FFB900"/>
<path d="M157.234 39.2639L155.554 40.9516L157.234 42.6393L158.914 40.9516L157.234 39.2639Z" fill="#14CCA1"/>
<path d="M99.3623 101.045L85.2158 101.062V97.7477C85.2158 96.5754 86.1561 95.6224 87.3231 95.6224L97.2466 95.614C98.4136 95.614 99.3623 96.5586 99.3623 97.7309V101.045Z" fill="#FFB900"/>
<path d="M96.8601 81.2343H87.709V97.5116H96.8601V81.2343Z" fill="#FFB900"/>
<path d="M87.709 88.2681V81.2343H96.8601L96.8517 84.65L87.709 88.2681Z" fill="#E8950C"/>
<path d="M108.026 68.6763L107.438 66.7366C118.151 63.4811 122.693 56.7425 121.325 46.1497C121.308 46.1328 121.199 46.0654 121.056 46.1075L119.578 46.5123C118.991 46.6726 118.588 47.1196 118.588 47.6172V49.9112C118.588 51.3027 117.421 52.416 115.926 52.4497C114.382 52.4835 111.737 52.5256 111.393 52.5256V50.5015C111.636 50.5015 113.315 50.4678 115.893 50.4256C116.262 50.4172 116.581 50.181 116.581 49.9112V47.6172C116.581 46.1919 117.58 44.9605 119.058 44.5557L120.536 44.1509C121.182 43.9738 121.87 44.0834 122.425 44.4545C122.928 44.7919 123.256 45.3148 123.331 45.8882C124.053 51.4545 123.247 56.1606 120.93 59.8546C118.428 63.8691 114.088 66.8378 108.026 68.6763Z" fill="#FFB900"/>
<path d="M76.5346 68.6763C70.473 66.8378 66.1326 63.8691 63.6307 59.863C61.3219 56.1606 60.516 51.463 61.2296 45.8967C61.3051 45.3232 61.6326 44.8003 62.1363 44.4629C62.6904 44.0918 63.3788 43.9822 64.0253 44.1593L65.5029 44.5641C66.9805 44.969 67.9796 46.1919 67.9796 47.6256V49.9196C67.9796 50.1895 68.2986 50.4256 68.668 50.4341C71.2454 50.4847 72.9245 50.51 73.168 50.51V52.5341C72.8154 52.5341 70.1708 52.4835 68.6344 52.4582C67.14 52.4329 65.973 51.3196 65.973 49.9196V47.6256C65.973 47.128 65.5785 46.681 64.9824 46.5208L63.5048 46.116C63.362 46.0738 63.2529 46.1413 63.2277 46.175C61.8676 56.751 66.4096 63.4896 77.1223 66.745L76.5346 68.6763Z" fill="#FFB900"/>
<path d="M112.434 46.3605L110.243 73.8295C109.982 77.1187 108.379 80.0115 106.011 81.9681C103.988 83.638 101.394 84.6416 98.5812 84.6416H85.9963C79.9012 84.6416 74.8219 79.9355 74.335 73.8295L73.2016 59.5763L72.1437 46.3605C71.9758 44.2943 73.6046 42.5232 75.6699 42.5232H108.899C110.965 42.5232 112.593 44.2943 112.434 46.3605Z" fill="#FFB900"/>
<path d="M106.011 81.9681C103.988 83.638 101.394 84.6416 98.5813 84.6416H85.9964C79.9013 84.6416 74.822 79.9355 74.3351 73.8295L73.2017 59.5763C81.169 69.6885 93.8798 78.3669 106.011 81.9681Z" fill="#E8950C"/>
<path d="M99.1104 84.473H85.9966V84.8103H99.1104V84.473Z" fill="#001F40"/>
<path d="M89.7574 95.4538H87.3228V95.7911H89.7574V95.4538Z" fill="#001F40"/>
<path d="M97.3136 95.4538H94.8789V95.7911H97.3136V95.4538Z" fill="#001F40"/>
<path d="M102.653 109.074L81.9161 109.1L81.9077 103.601C81.9077 101.551 83.5616 99.8815 85.6017 99.8815L98.9338 99.8646C100.974 99.8646 102.636 101.526 102.636 103.576L102.653 109.074Z" fill="#FFB900"/>
<path d="M99.3538 99.7466H85.2241V100.084H99.3538V99.7466Z" fill="#E8950C"/>
<path opacity="0.6" d="M103.064 57.9992C104.084 57.9992 104.911 56.3755 104.911 54.3727C104.911 52.3698 104.084 50.7461 103.064 50.7461C102.044 50.7461 101.217 52.3698 101.217 54.3727C101.217 56.3755 102.044 57.9992 103.064 57.9992Z" fill="white"/>
<path d="M143.17 126.195H41.4663V134.882H143.17V126.195Z" fill="white"/>
<path d="M126.37 117.517H58.2739V126.203H126.37V117.517Z" fill="white"/>
<path d="M114.591 108.83H70.0532V117.517H114.591V108.83Z" fill="white"/>
<path d="M117.37 126.195H67.2656V134.882H117.37V126.195Z" fill="#FF5C33"/>
<path d="M110.167 117.508H74.4858V126.195H110.167V117.508Z" fill="#FF5C33"/>
<path d="M102.762 108.83H81.8823V117.517H102.762V108.83Z" fill="#FF5C33"/>
<path opacity="0.1" d="M81.8825 115.484H70.0532V117.508H81.8825V115.484Z" fill="#003E80"/>
<path opacity="0.1" d="M114.591 115.484H102.762V117.508H114.591V115.484Z" fill="#003E80"/>
<path opacity="0.3" d="M102.762 115.484H81.8823V117.508H102.762V115.484Z" fill="#4A191B"/>
<path opacity="0.1" d="M74.4773 124.162H58.2739V126.187H74.4773V124.162Z" fill="#003E80"/>
<path opacity="0.1" d="M126.362 124.162H110.158V126.187H126.362V124.162Z" fill="#003E80"/>
<path opacity="0.3" d="M110.167 124.162H74.4858V126.187H110.167V124.162Z" fill="#4A191B"/>
<path opacity="0.1" d="M67.2658 132.858H41.4663V134.882H67.2658V132.858Z" fill="#003E80"/>
<path opacity="0.1" d="M143.17 132.858H117.37V134.882H143.17V132.858Z" fill="#003E80"/>
<path opacity="0.3" d="M117.37 132.858H67.2656V134.882H117.37V132.858Z" fill="#4A191B"/>
<path d="M41.6342 134.882H41.2983V126.026L58.1062 126.018V117.348L69.8851 117.339V108.661H81.7983V108.998H70.2209V117.677L58.442 117.685V126.355L41.6342 126.364V134.882Z" fill="#95BEFF"/>
<path d="M143.338 134.882H143.002V126.364L126.202 126.355V117.685L114.423 117.677V108.998H102.653V108.661H114.759V117.339L126.538 117.348V126.018L143.338 126.026V134.882Z" fill="#95BEFF"/>
<path d="M90.1943 50.0714L88.9434 54.2461L93.8296 55.7895L92.1924 53.0485L92.671 50.6364L90.1943 50.0714Z" fill="#001F40"/>
<path d="M92.1158 52.8991L91.1289 53.3866L91.2771 53.6893L92.264 53.2017L92.1158 52.8991Z" fill="white"/>
<path d="M89.3296 37.0496L92.7718 37.3785C93.477 37.446 94.1738 37.6821 94.728 38.1207C95.8194 38.9725 96.2475 40.2966 96.0125 41.646C95.9537 41.9918 95.8781 42.3207 95.8278 42.5906L93.0153 52.6184L88.7503 50.3328L90.6561 42.8689L86.324 42.734L83.9648 37.7581L84.8212 33.7857L89.3296 37.0496Z" fill="#007BFF"/>
<path d="M88.7337 54.5666L87.6675 59.1293L93.0322 60.4619L91.0929 57.6197L91.4455 54.9967L88.7337 54.5666Z" fill="#001F40"/>
<path d="M91.0061 57.4765L89.9795 58.0688L90.1467 58.3614L91.1733 57.7691L91.0061 57.4765Z" fill="white"/>
<path d="M84.1496 42.8015L87.8352 56.2956L91.9742 55.8233L89.5563 41.5196C89.3212 40.2714 89.2709 39.5039 87.3735 38.5593L85.3418 37.4292L84.8213 33.7942L81.7401 35.8099L81.2448 40.5497C81.1272 41.6967 81.9752 42.7087 83.1002 42.7593L84.1496 42.8015Z" fill="#007BFF"/>
<path d="M89.5056 36.9821L83.3685 37.6821C82.6801 37.758 82.0672 37.2689 81.9832 36.5773L80.917 27.4519L86.0299 26.1953L91.4534 27.0134L90.4543 36.0207C90.4039 36.5267 90.0093 36.9231 89.5056 36.9821Z" fill="white"/>
<path d="M76.7446 16.547C76.7446 16.547 77.2232 14.194 76.8538 14.2783C76.4844 14.3627 76.1066 15.2651 76.1066 15.2651C76.1066 15.2651 75.2922 13.3084 74.9816 13.3253C74.671 13.3422 74.7633 13.8398 74.7633 13.8398C74.7633 13.8398 74.184 13.5615 74.0329 14.135C74.0329 14.135 73.4536 13.8566 73.4536 14.9277C73.4536 15.3157 73.7642 16.6651 74.1588 18.2254L76.9377 17.1627L76.7446 16.547Z" fill="#FFBA9A"/>
<path d="M78.8854 22.5772L76.9376 17.1711L74.1587 18.2338C74.6456 20.1567 75.2585 22.4085 75.5775 23.5639C75.7203 24.07 75.9721 24.5422 76.3247 24.9302L81.8994 31.6013L84.3089 28.1688L78.8854 22.5772Z" fill="#003E80"/>
<path d="M75.7372 16.3446C75.4601 16.0157 75.4853 15.7036 75.8044 15.4084L75.8631 15.4675C75.5777 15.7289 75.5609 15.9988 75.8044 16.2856L75.7372 16.3446Z" fill="#974245"/>
<path d="M74.7317 13.8243L74.6523 13.8519L75.0485 14.9994L75.1278 14.9717L74.7317 13.8243Z" fill="#974245"/>
<path d="M74.4527 15.1723L74.1001 14.1265L74.1841 14.0928L74.5283 15.147L74.4527 15.1723Z" fill="#974245"/>
<path d="M74.0748 15.4675L73.6382 14.2615L73.7137 14.2277L74.1587 15.4422L74.0748 15.4675Z" fill="#974245"/>
<path d="M98.321 13.2325C98.2623 12.1699 97.5403 12.3807 97.5403 12.3807C97.3976 11.9168 96.9442 12.2289 96.9442 12.2289C96.9442 12.2289 96.9694 11.9168 96.6588 11.9168C96.3481 11.9168 95.7017 13.7301 95.7017 13.7301C95.7017 13.7301 95.2651 12.853 94.8873 12.794C94.5095 12.7349 95.1392 15.0458 95.1392 15.0458L94.9629 15.7711L97.7837 16.7663C98.0944 15.1048 98.3462 13.6373 98.321 13.2325Z" fill="#FFBA9A"/>
<path d="M94.963 15.7795L93.3343 21.3121L88.6328 27.6122L91.3194 30.4206L96.088 23.3868C96.4155 22.9736 96.6422 22.4929 96.7429 21.97C96.978 20.8398 97.4313 18.6808 97.7839 16.7747L94.963 15.7795Z" fill="#003E80"/>
<path d="M96.1636 14.7928L96.0964 14.7422C96.3063 14.4301 96.256 14.1603 95.9453 13.9326L95.9957 13.8651C96.3483 14.1265 96.4071 14.4386 96.1636 14.7928Z" fill="#974245"/>
<path d="M96.8908 12.183L96.6177 13.366L96.6995 13.3851L96.9725 12.2021L96.8908 12.183Z" fill="#974245"/>
<path d="M97.4688 12.3937L97.2324 13.4727L97.3144 13.4908L97.5508 12.4118L97.4688 12.3937Z" fill="#974245"/>
<path d="M97.7251 13.747L97.6411 13.7217L97.9517 12.4735L98.0273 12.4903L97.7251 13.747Z" fill="#974245"/>
<path d="M85.9632 27.7134C85.3755 27.7134 84.897 27.2327 84.897 26.6423V24.7447H87.021V26.6507C87.021 27.2411 86.5509 27.7134 85.9632 27.7134Z" fill="#FFBA9A"/>
<path d="M86.9956 25.023C86.6597 26.2122 85.2997 26.2628 84.8799 25.023H86.9956Z" fill="#001F40"/>
<path d="M85.963 25.4953C86.8301 25.4953 87.533 24.6721 87.533 23.6567C87.533 22.6413 86.8301 21.8181 85.963 21.8181C85.096 21.8181 84.3931 22.6413 84.3931 23.6567C84.3931 24.6721 85.096 25.4953 85.963 25.4953Z" fill="#FFBA9A"/>
<path d="M84.5188 23.6904C84.6112 22.4254 85.4423 22.1218 85.4423 22.1218L86.5253 22.1049C86.9703 22.4422 87.3481 23.0748 87.3733 23.7326L87.7427 23.7157C87.9777 22.476 87.7678 21.2615 87.0542 20.9832L87.4068 20.8061C84.46 20.1482 83.7296 21.3374 84.0822 23.4121L84.5188 23.6904Z" fill="#001F40"/>
<path d="M84.7205 23.5724C84.838 23.817 84.754 24.1037 84.5442 24.2049C84.3259 24.3061 84.0572 24.1881 83.9397 23.9435C83.8222 23.6989 83.9061 23.4122 84.116 23.311C84.3343 23.2013 84.6029 23.3194 84.7205 23.5724Z" fill="#FFBA9A"/>
<path d="M84.4017 23.8844C84.3513 23.7411 84.2589 23.6483 84.1162 23.5977L84.1414 23.5302C84.3093 23.5893 84.4184 23.6989 84.4772 23.8676L84.4017 23.8844Z" fill="#001F40"/>
<path d="M87.2561 23.5724C87.1386 23.817 87.2225 24.1037 87.4324 24.2049C87.6507 24.3061 87.9193 24.1881 88.0369 23.9435C88.1544 23.6989 88.0705 23.4122 87.8606 23.311C87.6423 23.2013 87.3736 23.3194 87.2561 23.5724Z" fill="#FFBA9A"/>
<path d="M87.5667 23.8844L87.4995 23.8591C87.5583 23.6904 87.6674 23.5808 87.8353 23.5218L87.8605 23.5892C87.7094 23.6398 87.617 23.741 87.5667 23.8844Z" fill="#001F40"/>
<path d="M84.8717 26.4821C85.9631 30.1761 85.5937 35.8183 84.3512 40.0436L79.9268 40.7352L80.9258 27.4519L84.8717 26.4821Z" fill="#003E80"/>
<path d="M87.0122 26.3555C87.348 30.6315 88.1372 36.8219 89.7072 39.7821L92.3853 38.4074L91.4618 27.0134L87.0122 26.3555Z" fill="#003E80"/>
<path d="M91.882 55.8401C91.8568 55.6967 89.548 41.4774 89.1786 40.2713C88.8176 39.099 86.4837 38.1376 86.4585 38.1291L86.5257 37.9689C86.6264 38.0111 88.9604 38.9641 89.3466 40.2123C89.7243 41.4267 91.966 55.216 92.0583 55.8063L91.882 55.8401Z" fill="#001F40"/>
<path d="M83.9178 41.7848L83.7563 41.8311L85.4353 47.7346L85.5968 47.6882L83.9178 41.7848Z" fill="#001F40"/>
<path d="M91.8733 43.0714L90.6392 42.9533L90.656 42.7846L91.8901 42.9027L91.8733 43.0714Z" fill="#001F40"/>
<path d="M35.0437 130.96L34.4141 134.941H39.7537L37.6632 132.841L37.8227 130.867L35.0437 130.96Z" fill="#001F40"/>
<path d="M37.5715 132.701L36.5078 133.33L36.6781 133.621L37.7418 132.992L37.5715 132.701Z" fill="white"/>
<path d="M46.0671 101.965C45.9915 102.437 45.916 102.909 45.8236 103.373C45.6809 104.25 45.5214 105.127 45.3703 105.988C44.8078 109.091 44.1949 112.094 43.5232 114.995C43.5232 114.995 43.5232 114.995 43.5232 115.003C42.1968 120.873 40.6688 126.355 38.9897 131.542H34.2378C36.152 122.374 37.999 113.308 38.5951 106.291C38.6874 105.262 38.7462 104.267 38.7714 103.331L46.0671 101.965Z" fill="#14CCA1"/>
<path d="M45.8737 130.775L45.647 134.865L51.3391 134.941L49.0807 132.841L49.2487 130.867L45.8737 130.775Z" fill="#001F40"/>
<path d="M49.0072 132.693L47.8569 133.322L48.0175 133.618L49.1678 132.989L49.0072 132.693Z" fill="white"/>
<path d="M49.87 131.449H44.9082C44.5556 125.782 44.1359 120.241 43.5314 115.012C43.5314 115.012 43.5314 115.012 43.5314 115.003C43.1788 111.933 42.759 108.965 42.2553 106.139C42.0958 105.229 41.9195 104.335 41.7432 103.449L45.8317 103.382L47.8634 103.348C47.9978 104.183 48.1237 105.026 48.2412 105.869C49.3914 114.118 49.7188 122.737 49.87 131.449Z" fill="#14CCA1"/>
<path opacity="0.3" d="M48.2415 105.861L45.3702 105.996L42.2555 106.139L38.6118 106.308C38.7042 105.279 38.7629 104.284 38.7881 103.348L46.067 101.973C45.9915 102.445 45.9159 102.918 45.8236 103.382L47.8553 103.348C47.998 104.183 48.1239 105.018 48.2415 105.861Z" fill="#4A191B"/>
<path d="M43.2128 117.171L43.0449 117.137L44.7324 108.729L44.9003 108.762L43.2128 117.171Z" fill="#001F40"/>
<path d="M44.7572 91.9959C42.2469 92.2657 40.19 92.0549 38.1919 90.8488L36.2441 94.1633L38.5109 96.1959L38.0576 103.373C38.0324 103.795 38.2591 104.191 38.6369 104.385C38.7796 104.461 38.9391 104.495 39.107 104.495H47.6872C48.1574 104.495 48.5688 104.2 48.7367 103.761C48.7787 103.651 48.7954 103.542 48.8038 103.432L49.1732 95.8248L53.0184 94.9139L52.1369 91.8778C49.1816 92.2151 46.5454 92.3922 44.7572 91.9959Z" fill="#007BFF"/>
<path d="M38.1836 90.8489L36.2358 94.1635L33.5409 91.7429C33.4821 91.6923 33.4233 91.6333 33.3646 91.5743C32.844 91.0429 32.4746 90.3767 32.3151 89.6429C32.2899 89.5501 32.2731 89.4489 32.248 89.3477C31.6519 86.7079 30.5353 81.5717 30.594 81.1162C30.6696 80.509 31.2909 80.7705 31.2909 80.7705C31.3412 80.1885 31.8198 80.5006 31.8198 80.5006C31.8198 80.1716 31.9289 80.0873 32.2563 80.1042C32.5838 80.121 33.0203 82.1114 33.0203 82.1114C33.0203 82.1114 33.5073 81.0741 33.8599 81.1584C34.2209 81.2343 33.5493 83.2332 33.5493 83.2332L35.8916 89.0019C36.6808 89.7863 37.428 90.3851 38.1836 90.8489Z" fill="#FFBA9A"/>
<path opacity="0.2" d="M33.7424 90.6549C33.7424 91.0091 33.5996 91.338 33.3729 91.5742C32.8524 91.0428 32.483 90.3766 32.3235 89.6428C32.2983 89.55 32.2815 89.4488 32.2563 89.3476C32.3151 89.3392 32.3655 89.3392 32.4243 89.3392C33.1547 89.3392 33.7424 89.9296 33.7424 90.6549Z" fill="#FF5C33"/>
<path d="M32.6171 83.2837C32.3232 82.9717 32.3316 82.6597 32.6339 82.3477L32.6926 82.4067C32.424 82.685 32.4156 82.9548 32.6758 83.2247L32.6171 83.2837Z" fill="#974245"/>
<path d="M31.9707 81.3524L31.7944 80.5175L31.8784 80.5006L32.0547 81.3355L31.9707 81.3524Z" fill="#974245"/>
<path d="M31.4671 81.479L31.2656 80.7874L31.3496 80.7621L31.5511 81.4537L31.4671 81.479Z" fill="#974245"/>
<path d="M30.9834 81.0032L30.9023 81.025L31.0741 81.6685L31.1552 81.6467L30.9834 81.0032Z" fill="#974245"/>
<path d="M56.956 92.7802C56.9225 92.8477 56.8805 92.9067 56.8385 92.9657L56.5866 93.3453C56.2424 93.8597 55.7303 94.2308 55.1342 94.3995C55.1006 94.4079 55.067 94.4163 55.0335 94.4248L52.9933 94.9139L52.1118 91.8778C52.9262 91.7766 53.7657 91.6754 54.6221 91.5657L57.1491 86.7669C57.1491 86.7669 57.1491 84.726 57.4262 84.6669C57.7032 84.5995 57.9299 85.8561 57.9299 85.8561C57.9299 85.8561 59.0213 84.1946 59.3656 84.1946C59.7098 84.1946 59.6174 84.6669 59.6174 84.6669C59.6174 84.6669 59.9365 84.2705 60.1296 84.4561C60.2303 84.5573 60.2135 84.9115 60.2135 84.9115C60.2135 84.9115 60.3394 84.7934 60.5829 84.8946C61.0699 85.0886 59.5419 88.6139 56.956 92.7802Z" fill="#FFBA9A"/>
<path opacity="0.2" d="M56.956 92.7802C56.9224 92.8477 56.8804 92.9067 56.8384 92.9658L56.5866 93.3453C56.2424 93.8598 55.7302 94.2309 55.1342 94.3996C55.0838 94.2562 55.0586 94.1128 55.0586 93.961C55.0586 93.2272 55.6463 92.6453 56.3683 92.6453C56.5782 92.6368 56.7797 92.6874 56.956 92.7802Z" fill="#FF5C33"/>
<path d="M58.1567 87.0115L58.1147 86.9356C58.4422 86.7416 58.5093 86.4886 58.333 86.1428L58.4086 86.1007C58.6017 86.4886 58.5177 86.7922 58.1567 87.0115Z" fill="#974245"/>
<path d="M59.2899 85.3248L59.2144 85.2826L59.6174 84.5404L59.693 84.5741L59.2899 85.3248Z" fill="#974245"/>
<path d="M59.8612 85.5524L59.7856 85.5102L60.1551 84.7849L60.2306 84.8271L59.8612 85.5524Z" fill="#974245"/>
<path d="M60.2219 85.6284L60.1548 85.5862L60.499 85.0211L60.5746 85.0633L60.2219 85.6284Z" fill="#974245"/>
<path d="M36.2925 94.1069L36.1846 94.2362L39.6518 97.1574L39.7597 97.0282L36.2925 94.1069Z" fill="#001F40"/>
<path d="M49.1147 98.8188L48.9468 98.8104L49.1986 93.9526L49.3666 93.9611L49.1147 98.8188Z" fill="#001F40"/>
<path d="M44.7575 95.1417C44.2118 95.1417 43.6493 94.8971 43.2295 94.4585L43.347 94.3405C43.7836 94.7959 44.3713 95.0236 44.9338 94.9646C45.4039 94.914 45.8069 94.6441 46.0672 94.214L46.2099 94.2983C45.9245 94.7706 45.4795 95.0658 44.9506 95.1248C44.8918 95.1417 44.8246 95.1417 44.7575 95.1417Z" fill="#001F40"/>
<path d="M44.7908 93.7838C44.1192 93.8597 43.5147 93.3789 43.4392 92.7043L43.1201 89.8115L45.5464 89.5416L45.8655 92.4344C45.941 93.1006 45.4625 93.7079 44.7908 93.7838Z" fill="#FFBA9A"/>
<path d="M43.9341 90.891C44.4882 91.532 45.1262 91.9874 45.8567 92.1814L45.6803 90.6212L43.9341 90.891Z" fill="#001F40"/>
<path d="M46.8392 87.7621C46.8392 87.7621 47.3094 90.832 46.2347 91.2284C45.2357 91.5995 43.926 90.891 43.926 90.891L43.0444 88.3103L44.1862 87.2645L46.8392 87.7621Z" fill="#FFBA9A"/>
<path d="M43.5145 89.2633C43.5733 88.6729 43.8084 88.1669 44.4045 87.838C46.1423 88.5464 47.2254 88.0067 48.0061 86.8765C48.0061 86.8765 47.0155 87.0874 46.411 86.6994C45.8149 86.3115 44.2701 85.1813 43.2963 86.8175C41.9362 87.45 42.2216 88.5549 42.7757 89.2633H43.5145Z" fill="#001F40"/>
<path d="M43.6115 90.132C43.9124 89.9569 43.9924 89.5308 43.7903 89.1801C43.5881 88.8295 43.1802 88.6872 42.8793 88.8623C42.5784 89.0374 42.4984 89.4635 42.7006 89.8142C42.9027 90.1648 43.3106 90.3071 43.6115 90.132Z" fill="#FFBA9A"/>
<path d="M43.3468 89.8115C43.33 89.5417 43.2124 89.3561 42.9941 89.2465L43.0697 89.0947C43.3384 89.2296 43.4895 89.4657 43.5063 89.7947L43.3468 89.8115Z" fill="#001F40"/>
<path d="M42.1717 63.5908C45.3872 63.5908 47.9898 66.2053 47.9898 69.4354C47.9898 71.6957 46.7053 73.6608 44.8331 74.6306L45.4124 77.6415L43.3387 75.162C42.9609 75.2379 42.5663 75.28 42.1633 75.28C38.9478 75.28 36.3452 72.6656 36.3452 69.4354C36.3536 66.2053 38.9562 63.5908 42.1717 63.5908Z" fill="white"/>
<path d="M45.7061 78.2573L43.2798 75.356C42.9188 75.4235 42.541 75.4572 42.1716 75.4572C38.8721 75.4572 36.1855 72.7584 36.1855 69.4439C36.1855 66.1294 38.8721 63.4305 42.1716 63.4305C45.471 63.4305 48.1576 66.1294 48.1576 69.4439C48.1576 71.662 46.957 73.6692 45.0261 74.7319L45.7061 78.2573ZM43.4057 74.9849L45.1268 77.0428L44.6483 74.5464L44.7574 74.4873C46.6464 73.509 47.8218 71.5692 47.8218 69.4439C47.8218 66.3149 45.2863 63.7679 42.1716 63.7679C39.0568 63.7679 36.5214 66.3065 36.5214 69.4354C36.5214 72.5644 39.0568 75.1114 42.1716 75.1114C42.5578 75.1114 42.9356 75.0693 43.3134 74.9934L43.4057 74.9849Z" fill="#95BEFF"/>
<path d="M39.4599 70.3969C39.9096 70.3969 40.2742 70.0307 40.2742 69.5789C40.2742 69.127 39.9096 68.7608 39.4599 68.7608C39.0101 68.7608 38.6455 69.127 38.6455 69.5789C38.6455 70.0307 39.0101 70.3969 39.4599 70.3969Z" fill="#95BEFF"/>
<path d="M42.1718 70.3969C42.6216 70.3969 42.9862 70.0307 42.9862 69.5789C42.9862 69.127 42.6216 68.7608 42.1718 68.7608C41.722 68.7608 41.3574 69.127 41.3574 69.5789C41.3574 70.0307 41.722 70.3969 42.1718 70.3969Z" fill="#95BEFF"/>
<path d="M44.8832 70.3969C45.333 70.3969 45.6976 70.0307 45.6976 69.5789C45.6976 69.127 45.333 68.7608 44.8832 68.7608C44.4334 68.7608 44.0688 69.127 44.0688 69.5789C44.0688 70.0307 44.4334 70.3969 44.8832 70.3969Z" fill="#95BEFF"/>
<path d="M131.769 86.5729L128.268 93.6573L125.791 95.42L127.21 97.2585C127.856 96.9718 128.478 96.7019 128.956 96.4911C129.544 96.2296 130.073 95.8417 130.509 95.3609L133.104 92.4934L131.769 86.5729Z" fill="#FF5C33"/>
<path d="M124.859 96.0862C124.859 96.0862 122.55 96.0272 122.618 96.7188C122.685 97.3682 124.171 97.773 124.171 97.773C124.171 97.773 123.348 98.667 123.633 98.6839C123.869 98.6923 125.615 97.9586 127.201 97.267L125.783 95.4284L124.859 96.0862Z" fill="#FFBA9A"/>
<path d="M138.922 121.447L138.863 126.111H133.372L135.916 123.833L136.201 121.219L138.922 121.447Z" fill="#001F40"/>
<path d="M136.031 123.712L135.799 123.956L136.649 124.771L136.881 124.527L136.031 123.712Z" fill="white"/>
<path d="M141.038 103.053L145.336 101.298L147.452 106.384L144.387 104.908L141.877 105.659L141.038 103.053Z" fill="#001F40"/>
<path d="M144.642 103.735L144.222 104.837L144.535 104.958L144.955 103.855L144.642 103.735Z" fill="white"/>
<path d="M130.526 97.4272L134.833 122.037L139.594 121.868L136.672 94.3742L130.526 97.4272Z" fill="#007BFF"/>
<path d="M133.473 96.179L133.901 109.057C133.927 109.808 134.363 110.483 135.043 110.803C135.639 111.09 136.328 111.065 136.899 110.736L142.616 107.447L142.356 102.344L139.107 103.559L139.09 95.6224L133.473 96.179Z" fill="#007BFF"/>
<path d="M145.16 88.0573L140.576 85.3585C140.089 85.0717 139.552 84.8946 138.997 84.8271L136.042 84.4729L133.591 85.2488C132.147 85.7042 131.139 87.003 131.047 88.5211L130.526 97.4272L139.073 95.6224L139.753 89.4573L144.69 91.785C145.63 92.2573 146.772 91.9368 147.334 91.0344C148.459 89.2211 150.298 86.2018 151.473 83.8741L148.669 82.8705L145.16 88.0573Z" fill="#FF5C33"/>
<path d="M152.01 80.5428C152.01 80.5428 152.153 80.1717 151.96 80.0536C151.775 79.9356 151.565 80.1464 151.565 80.1464C151.565 80.1464 151.775 79.632 151.473 79.5392C151.171 79.4464 150.012 81.15 150.012 81.15C150.012 81.15 149.87 80.0789 149.567 80.0958C149.265 80.1211 149.08 82.2633 149.08 82.2633L148.669 82.8706L151.473 83.8742C152.162 82.5079 152.623 81.3778 152.59 80.8717C152.548 80.3067 152.01 80.5428 152.01 80.5428Z" fill="#FFBA9A"/>
<path d="M150.147 82.2379L150.096 82.1705C150.398 81.9428 150.432 81.6729 150.214 81.3609L150.281 81.3103C150.533 81.6645 150.482 81.9765 150.147 82.2379Z" fill="#974245"/>
<path d="M151.213 80.7198L151.146 80.6692L151.624 79.9692L151.691 80.0198L151.213 80.7198Z" fill="#974245"/>
<path d="M152.003 80.4327L151.545 80.9825L151.61 81.0366L152.068 80.4868L152.003 80.4327Z" fill="#974245"/>
<path d="M152.248 80.7784L151.836 81.3012L151.902 81.3535L152.313 80.8307L152.248 80.7784Z" fill="#974245"/>
<path d="M138.334 80.9982C138.259 82.0946 137.327 83.132 136.135 83.0476C134.943 82.9633 133.616 81.7066 133.692 80.6102C133.767 79.5138 134.993 78.9488 136.185 78.9909C137.856 79.05 138.41 79.9102 138.334 80.9982Z" fill="#E8950C"/>
<path d="M135.933 85.9995C135.312 85.9573 134.841 85.4175 134.883 84.7934L135.06 82.2212L137.31 82.373L137.134 84.9453C137.1 85.5693 136.554 86.0416 135.933 85.9995Z" fill="#FFBA9A"/>
<path d="M136.605 83.7477C136.093 84.2874 135.539 84.7007 134.884 84.7935L134.976 83.5706L136.605 83.7477Z" fill="#001F40"/>
<path d="M134.17 80.7199C134.17 80.7199 133.733 83.638 134.724 83.95C135.715 84.2621 136.949 83.6295 136.949 83.6295L137.192 81.4199L136.915 79.9862L134.17 80.7199Z" fill="#FFBA9A"/>
<path d="M137.15 82.3139C136.873 82.0019 136.596 81.479 136.529 80.9476C135.815 81.2597 134.951 81.2934 133.96 81.0994L134.254 80.1801L136.428 79.7668L137.545 80.0873L137.15 82.3139Z" fill="#E8950C"/>
<path d="M137.809 82.6409C138.012 82.3812 137.995 82.0257 137.769 81.847C137.543 81.6682 137.195 81.7339 136.991 81.9936C136.787 82.2533 136.805 82.6088 137.031 82.7876C137.257 82.9663 137.605 82.9007 137.809 82.6409Z" fill="#FFBA9A"/>
<path d="M137.259 82.5922L137.091 82.5838C137.125 82.1537 137.394 82.0525 137.612 82.044L137.62 82.2127C137.394 82.2127 137.284 82.3308 137.259 82.5922Z" fill="#001F40"/>
<path d="M139.321 79.91C139.77 79.2766 139.624 78.3971 138.993 77.9455C138.363 77.494 137.487 77.6414 137.038 78.2748C136.588 78.9082 136.735 79.7877 137.365 80.2393C137.996 80.6908 138.871 80.5434 139.321 79.91Z" fill="#E8950C"/>
<path d="M130.619 97.3851L130.451 97.3766L131.08 87.7201L131.248 87.7285L130.619 97.3851Z" fill="#001F40"/>
<path d="M142.003 90.5874L138.351 88.732L138.427 88.5802L142.079 90.4356L142.003 90.5874Z" fill="#001F40"/>
<path d="M135.74 87.197C135.673 87.197 135.606 87.1886 135.538 87.1801C135.068 87.0958 134.707 86.7247 134.556 86.1597L134.716 86.1176C134.85 86.6151 135.161 86.944 135.564 87.0115C136.051 87.0958 136.588 86.8091 136.974 86.2609L137.108 86.3537C136.739 86.885 136.227 87.197 135.74 87.197Z" fill="#001F40"/>
<path d="M135.841 111.065C135.58 111.065 135.362 111.023 135.177 110.955C134.397 110.694 134.027 110.027 133.943 109.715C133.607 108.484 133.439 98.7007 133.439 98.2791H133.607C133.607 98.3803 133.775 108.459 134.111 109.673C134.203 110.002 134.573 110.576 135.236 110.795C136.067 111.073 137.117 110.744 138.284 109.85L138.384 109.985C137.301 110.82 136.462 111.065 135.841 111.065Z" fill="#001F40"/>
<path d="M142.312 102.259L136.508 104.388L136.565 104.547L142.369 102.418L142.312 102.259Z" fill="#001F40"/>
<path d="M141.466 58.3619C138.25 58.3619 135.647 60.9764 135.647 64.2065C135.647 66.4668 136.932 68.4319 138.804 69.4018L138.225 72.4126L140.299 69.9331C140.676 70.009 141.071 70.0512 141.474 70.0512C144.689 70.0512 147.292 67.4367 147.292 64.2065C147.284 60.9764 144.681 58.3619 141.466 58.3619Z" fill="white"/>
<path d="M137.931 73.0283L138.611 69.4945C136.672 68.4403 135.479 66.4246 135.479 64.2065C135.479 60.892 138.166 58.1931 141.466 58.1931C144.765 58.1931 147.452 60.892 147.452 64.2065C147.452 67.521 144.765 70.2198 141.466 70.2198C141.096 70.2198 140.718 70.1861 140.357 70.1186L137.931 73.0283ZM141.466 58.5305C138.351 58.5305 135.815 61.0775 135.815 64.2065C135.815 66.3402 136.991 68.2716 138.88 69.2499L138.989 69.309L138.51 71.8054L140.231 69.7475L140.332 69.7644C140.702 69.8403 141.088 69.8825 141.474 69.8825C144.589 69.8825 147.124 67.3354 147.124 64.2065C147.124 61.0775 144.58 58.5305 141.466 58.5305Z" fill="#95BEFF"/>
<path d="M138.754 64.9992C139.204 64.9992 139.568 64.633 139.568 64.1812C139.568 63.7294 139.204 63.3632 138.754 63.3632C138.304 63.3632 137.939 63.7294 137.939 64.1812C137.939 64.633 138.304 64.9992 138.754 64.9992Z" fill="#95BEFF"/>
<path d="M141.466 64.9992C141.915 64.9992 142.28 64.633 142.28 64.1812C142.28 63.7294 141.915 63.3632 141.466 63.3632C141.016 63.3632 140.651 63.7294 140.651 64.1812C140.651 64.633 141.016 64.9992 141.466 64.9992Z" fill="#95BEFF"/>
<path d="M144.177 64.9992C144.627 64.9992 144.992 64.633 144.992 64.1812C144.992 63.7294 144.627 63.3632 144.177 63.3632C143.727 63.3632 143.363 63.7294 143.363 64.1812C143.363 64.633 143.727 64.9992 144.177 64.9992Z" fill="#95BEFF"/>
<path d="M180.001 134.663H0.000976562V135H180.001V134.663Z" fill="#001F40"/>
</g>
<defs>
<clipPath id="clip0_1273_1464">
<rect width="180" height="135" fill="white" transform="translate(0.000976562 -0.00012207)"/>
</clipPath>
</defs>
</svg>
