<svg width="171" height="123" viewBox="0 0 171 123" fill="none" xmlns="http://www.w3.org/2000/svg">
<g clip-path="url(#clip0_1273_1700)">
<path d="M39.4008 34.5999C39.4008 34.5999 63.0008 92.5999 85.3008 109.9C32.0008 73.2999 31.8008 31.9999 31.8008 31.9999L39.4008 34.5999Z" fill="url(#paint0_linear_1273_1700)"/>
<path d="M53.3006 23.2999C53.3006 23.2999 52.6006 63.6999 85.3006 109.9C47.4006 70.6999 50.1006 30.1999 50.1006 30.1999L53.3006 23.2999Z" fill="url(#paint1_linear_1273_1700)"/>
<path d="M46.4008 35.9999C46.4008 35.9999 46.9008 73.5999 85.3008 109.9C45.4008 84.0999 41.3008 41.7999 41.3008 41.7999L46.4008 35.9999Z" fill="url(#paint2_linear_1273_1700)"/>
<path d="M54.5006 36.3999C54.5006 36.3999 52.9006 73.4999 85.2006 109.8C45.6006 72.1999 46.4006 35.9999 46.4006 35.9999L54.5006 36.3999Z" fill="url(#paint3_linear_1273_1700)"/>
<path d="M31.8008 31.9999L38.7008 27.9999L39.2008 20.4999L45.4008 25.2999L53.3008 23.2999L50.1008 30.1999L54.5008 36.3999L46.4008 35.9999L41.3008 41.7999L39.4008 34.5999L31.8008 31.9999Z" fill="#FFE029"/>
<path d="M13.201 112C13.201 112 32.301 123.5 85.201 109.9C50.101 134.7 6.00098 115.4 6.00098 115.4L13.201 112Z" fill="url(#paint4_linear_1273_1700)"/>
<path d="M20.5012 115.5C20.5012 115.5 56.8012 128 85.3012 109.9C46.4012 117.6 19.2012 108.1 19.2012 108.1L20.5012 115.5Z" fill="url(#paint5_linear_1273_1700)"/>
<path d="M13.4009 95.1999C13.4009 95.1999 40.6009 113.9 85.3009 109.9C37.5009 118.9 17.0009 101.9 17.0009 101.9L13.4009 95.1999Z" fill="url(#paint6_linear_1273_1700)"/>
<path d="M25.1012 103C25.1012 103 44.0012 115 85.3012 109.9C50.1012 122.3 19.2012 108.1 19.2012 108.1L25.1012 103Z" fill="url(#paint7_linear_1273_1700)"/>
<path d="M1.60107 102.9L9.70107 101.9L13.4011 95.1999L17.0011 101.9L25.1011 103L19.1011 108.1L20.5011 115.5L13.2011 112L6.00107 115.4L7.40107 108.1L1.60107 102.9Z" fill="#FFE029"/>
<path d="M12.801 69.5999C12.801 69.5999 57.501 101.8 85.301 109.9C20.801 94.9999 0.000976562 58.1999 0.000976562 58.1999L12.801 69.5999Z" fill="url(#paint8_linear_1273_1700)"/>
<path d="M51.6011 58.2999C51.6011 58.2999 53.5011 78.8999 85.3011 109.9C40.4011 87.7999 38.6011 69.5999 38.6011 69.5999L51.6011 58.2999Z" fill="url(#paint9_linear_1273_1700)"/>
<path d="M25.6011 78.0999C25.6011 78.0999 34.6011 91.0999 85.3011 109.9C44.8011 86.9999 38.6011 69.5999 38.6011 69.5999L25.6011 78.0999Z" fill="url(#paint10_linear_1273_1700)"/>
<path d="M25.6011 78.0999C25.6011 78.0999 34.6011 91.0999 85.3011 109.9C36.9011 105.5 9.60107 85.6999 9.60107 85.6999L25.6011 78.0999Z" fill="url(#paint11_linear_1273_1700)"/>
<path d="M41.5011 85.6999C41.5011 85.6999 49.0011 94.6999 85.3011 109.8C35.4011 97.0999 25.6011 78.0999 25.6011 78.0999L41.5011 85.6999Z" fill="url(#paint12_linear_1273_1700)"/>
<path d="M0.000976562 58.1999L17.801 55.8999L25.901 41.1999L33.801 55.8999L51.601 58.2999L38.601 69.5999L41.501 85.6999L25.601 78.0999L9.60098 85.6999L12.801 69.5999L0.000976562 58.1999Z" fill="#FFE029"/>
<path d="M131.201 34.5999C131.201 34.5999 107.601 92.5999 85.3008 109.9C138.601 73.2999 138.801 31.9999 138.801 31.9999L131.201 34.5999Z" fill="url(#paint13_linear_1273_1700)"/>
<path d="M117.301 23.2999C117.301 23.2999 118.001 63.6999 85.3008 109.9C123.201 70.6999 120.501 30.1999 120.501 30.1999L117.301 23.2999Z" fill="url(#paint14_linear_1273_1700)"/>
<path d="M124.201 35.9999C124.201 35.9999 123.701 73.5999 85.3008 109.9C125.201 84.0999 129.301 41.7999 129.301 41.7999L124.201 35.9999Z" fill="url(#paint15_linear_1273_1700)"/>
<path d="M116.001 36.3999C116.001 36.3999 117.601 73.4999 85.3008 109.8C125.001 72.1999 124.201 35.9999 124.201 35.9999L116.001 36.3999Z" fill="url(#paint16_linear_1273_1700)"/>
<path d="M138.801 31.9999L131.801 27.9999L131.401 20.4999L125.201 25.2999L117.301 23.2999L120.501 30.1999L116.001 36.3999L124.201 35.9999L129.301 41.7999L131.201 34.5999L138.801 31.9999Z" fill="#FFE029"/>
<path d="M157.301 112C157.301 112 138.201 123.5 85.3008 109.9C120.501 134.7 164.601 115.4 164.601 115.4L157.301 112Z" fill="url(#paint17_linear_1273_1700)"/>
<path d="M150.101 115.5C150.101 115.5 113.801 128 85.3008 109.9C124.201 117.6 151.401 108.1 151.401 108.1L150.101 115.5Z" fill="url(#paint18_linear_1273_1700)"/>
<path d="M157.201 95.1999C157.201 95.1999 130.001 113.9 85.3008 109.9C133.101 118.9 153.601 101.9 153.601 101.9L157.201 95.1999Z" fill="url(#paint19_linear_1273_1700)"/>
<path d="M145.501 103C145.501 103 126.601 115 85.3008 109.9C120.501 122.3 151.401 108.1 151.401 108.1L145.501 103Z" fill="url(#paint20_linear_1273_1700)"/>
<path d="M169.001 102.9L160.901 101.9L157.201 95.1999L153.601 101.9L145.501 103L151.401 108.1L150.101 115.5L157.301 112L164.601 115.4L163.201 108.1L169.001 102.9Z" fill="#FFE029"/>
<path d="M157.801 69.5999C157.801 69.5999 113.101 101.8 85.3008 109.9C149.801 94.9999 170.601 58.1999 170.601 58.1999L157.801 69.5999Z" fill="url(#paint21_linear_1273_1700)"/>
<path d="M119.001 58.2999C119.001 58.2999 117.101 78.8999 85.3008 109.9C130.201 87.7999 132.001 69.5999 132.001 69.5999L119.001 58.2999Z" fill="url(#paint22_linear_1273_1700)"/>
<path d="M145.001 78.0999C145.001 78.0999 136.001 91.0999 85.3008 109.9C125.801 86.9999 132.001 69.5999 132.001 69.5999L145.001 78.0999Z" fill="url(#paint23_linear_1273_1700)"/>
<path d="M145.001 78.0999C145.001 78.0999 136.001 91.0999 85.3008 109.9C133.701 105.5 161.001 85.6999 161.001 85.6999L145.001 78.0999Z" fill="url(#paint24_linear_1273_1700)"/>
<path d="M129.101 85.6999C129.101 85.6999 121.601 94.6999 85.3008 109.8C135.201 97.0999 145.001 78.0999 145.001 78.0999L129.101 85.6999Z" fill="url(#paint25_linear_1273_1700)"/>
<path d="M170.601 58.1999L152.801 55.8999L144.601 41.1999L136.801 55.8999L119.001 58.2999L132.001 69.5999L129.101 85.6999L145.001 78.0999L161.001 85.6999L157.801 69.5999L170.601 58.1999Z" fill="#FFE029"/>
<path d="M105.501 11.3999L85.3013 110.2L95.7013 19.5999L105.501 11.3999Z" fill="url(#paint26_linear_1273_1700)"/>
<path d="M74.9011 19.5999L85.3011 110.2L65.1011 11.3999L74.9011 19.5999Z" fill="url(#paint27_linear_1273_1700)"/>
<path d="M85.3013 26.0999V110.2L71.8013 32.1999L85.3013 26.0999Z" fill="url(#paint28_linear_1273_1700)"/>
<path d="M98.8013 32.1999L85.3013 110.2V26.0999L98.8013 32.1999Z" fill="url(#paint29_linear_1273_1700)"/>
<path d="M85.3011 -0.00012207L91.5011 9.69988L105.501 11.3999L95.7011 19.5999L98.8011 32.1999L85.3011 26.0999L71.8011 32.1999L74.9011 19.5999L65.1011 11.3999L79.1011 9.69988L85.3011 -0.00012207Z" fill="#FFE029"/>
</g>
<defs>
<linearGradient id="paint0_linear_1273_1700" x1="48.9958" y1="96.1727" x2="68.1688" y2="45.4533" gradientUnits="userSpaceOnUse">
<stop stop-color="#EDA826"/>
<stop offset="0.3281" stop-color="#EFAE2C"/>
<stop offset="0.7704" stop-color="#F3BF3D"/>
<stop offset="1" stop-color="#F6CB49"/>
</linearGradient>
<linearGradient id="paint1_linear_1273_1700" x1="56.7344" y1="99.0981" x2="81.3718" y2="33.9232" gradientUnits="userSpaceOnUse">
<stop stop-color="#F2BA38"/>
<stop offset="1" stop-color="#EDA826"/>
</linearGradient>
<linearGradient id="paint2_linear_1273_1700" x1="41.1225" y1="27.2379" x2="75.321" y2="108.203" gradientUnits="userSpaceOnUse">
<stop stop-color="#FFE029"/>
<stop offset="0.0524714" stop-color="#FEDB29"/>
<stop offset="0.4283" stop-color="#F4BF27"/>
<stop offset="0.7568" stop-color="#EFAE26"/>
<stop offset="1" stop-color="#EDA826"/>
</linearGradient>
<linearGradient id="paint3_linear_1273_1700" x1="56.0579" y1="98.8424" x2="76.5072" y2="44.7466" gradientUnits="userSpaceOnUse">
<stop stop-color="#EDA826"/>
<stop offset="0.3281" stop-color="#EFAE2C"/>
<stop offset="0.7704" stop-color="#F3BF3D"/>
<stop offset="1" stop-color="#F6CB49"/>
</linearGradient>
<linearGradient id="paint4_linear_1273_1700" x1="39.7403" y1="128.24" x2="51.504" y2="97.1208" gradientUnits="userSpaceOnUse">
<stop stop-color="#EDA826"/>
<stop offset="0.2432" stop-color="#EFAE26"/>
<stop offset="0.5717" stop-color="#F4BF27"/>
<stop offset="0.9475" stop-color="#FEDB29"/>
<stop offset="1" stop-color="#FFE029"/>
</linearGradient>
<linearGradient id="paint5_linear_1273_1700" x1="46.1173" y1="125.165" x2="56.0666" y2="98.8455" gradientUnits="userSpaceOnUse">
<stop stop-color="#FFE029"/>
<stop offset="0.0524714" stop-color="#FEDB29"/>
<stop offset="0.4283" stop-color="#F4BF27"/>
<stop offset="0.7568" stop-color="#EFAE26"/>
<stop offset="1" stop-color="#EDA826"/>
</linearGradient>
<linearGradient id="paint6_linear_1273_1700" x1="15.2314" y1="80.6601" x2="57.5255" y2="110.401" gradientUnits="userSpaceOnUse">
<stop stop-color="#FFE029"/>
<stop offset="0.0524714" stop-color="#FEDB29"/>
<stop offset="0.4283" stop-color="#F4BF27"/>
<stop offset="0.7568" stop-color="#EFAE26"/>
<stop offset="1" stop-color="#EDA826"/>
</linearGradient>
<linearGradient id="paint7_linear_1273_1700" x1="25.0734" y1="89.9272" x2="59.7325" y2="114.299" gradientUnits="userSpaceOnUse">
<stop stop-color="#EDA826"/>
<stop offset="0.2432" stop-color="#EFAE26"/>
<stop offset="0.5717" stop-color="#F4BF27"/>
<stop offset="0.9475" stop-color="#FEDB29"/>
<stop offset="1" stop-color="#FFE029"/>
</linearGradient>
<linearGradient id="paint8_linear_1273_1700" x1="38.7926" y1="94.2241" x2="45.8693" y2="75.5036" gradientUnits="userSpaceOnUse">
<stop stop-color="#EDA826"/>
<stop offset="0.3281" stop-color="#EFAE2C"/>
<stop offset="0.7704" stop-color="#F3BF3D"/>
<stop offset="1" stop-color="#F6CB49"/>
</linearGradient>
<linearGradient id="paint9_linear_1273_1700" x1="58.1925" y1="99.6492" x2="71.0442" y2="65.6518" gradientUnits="userSpaceOnUse">
<stop stop-color="#EDA826"/>
<stop offset="0.2432" stop-color="#EFAE26"/>
<stop offset="0.5717" stop-color="#F4BF27"/>
<stop offset="0.9475" stop-color="#FEDB29"/>
<stop offset="1" stop-color="#FFE029"/>
</linearGradient>
<linearGradient id="paint10_linear_1273_1700" x1="53.9154" y1="98.0461" x2="61.3889" y2="78.2761" gradientUnits="userSpaceOnUse">
<stop stop-color="#F0B331"/>
<stop offset="0.3143" stop-color="#EFAE2C"/>
<stop offset="1" stop-color="#EDA826"/>
</linearGradient>
<linearGradient id="paint11_linear_1273_1700" x1="18.302" y1="71.1275" x2="66.7331" y2="115.429" gradientUnits="userSpaceOnUse">
<stop stop-color="#FFE029"/>
<stop offset="0.0524714" stop-color="#FEDB29"/>
<stop offset="0.4283" stop-color="#F4BF27"/>
<stop offset="0.7568" stop-color="#EFAE26"/>
<stop offset="1" stop-color="#EDA826"/>
</linearGradient>
<linearGradient id="paint12_linear_1273_1700" x1="53.4486" y1="99.281" x2="56.9672" y2="89.973" gradientUnits="userSpaceOnUse">
<stop stop-color="#EDA826"/>
<stop offset="0.3281" stop-color="#EFAE2C"/>
<stop offset="0.7704" stop-color="#F3BF3D"/>
<stop offset="1" stop-color="#F6CB49"/>
</linearGradient>
<linearGradient id="paint13_linear_1273_1700" x1="121.588" y1="96.1728" x2="102.415" y2="45.4533" gradientUnits="userSpaceOnUse">
<stop stop-color="#EDA826"/>
<stop offset="0.3281" stop-color="#EFAE2C"/>
<stop offset="0.7704" stop-color="#F3BF3D"/>
<stop offset="1" stop-color="#F6CB49"/>
</linearGradient>
<linearGradient id="paint14_linear_1273_1700" x1="113.849" y1="99.0982" x2="89.2116" y2="33.9231" gradientUnits="userSpaceOnUse">
<stop stop-color="#F2BA38"/>
<stop offset="1" stop-color="#EDA826"/>
</linearGradient>
<linearGradient id="paint15_linear_1273_1700" x1="129.461" y1="27.2379" x2="95.2627" y2="108.203" gradientUnits="userSpaceOnUse">
<stop stop-color="#FFE029"/>
<stop offset="0.0524714" stop-color="#FEDB29"/>
<stop offset="0.4283" stop-color="#F4BF27"/>
<stop offset="0.7568" stop-color="#EFAE26"/>
<stop offset="1" stop-color="#EDA826"/>
</linearGradient>
<linearGradient id="paint16_linear_1273_1700" x1="114.526" y1="98.8424" x2="94.0763" y2="44.7466" gradientUnits="userSpaceOnUse">
<stop stop-color="#EDA826"/>
<stop offset="0.3281" stop-color="#EFAE2C"/>
<stop offset="0.7704" stop-color="#F3BF3D"/>
<stop offset="1" stop-color="#F6CB49"/>
</linearGradient>
<linearGradient id="paint17_linear_1273_1700" x1="130.844" y1="128.24" x2="119.08" y2="97.1208" gradientUnits="userSpaceOnUse">
<stop stop-color="#EDA826"/>
<stop offset="0.2432" stop-color="#EFAE26"/>
<stop offset="0.5717" stop-color="#F4BF27"/>
<stop offset="0.9475" stop-color="#FEDB29"/>
<stop offset="1" stop-color="#FFE029"/>
</linearGradient>
<linearGradient id="paint18_linear_1273_1700" x1="124.467" y1="125.165" x2="114.517" y2="98.8455" gradientUnits="userSpaceOnUse">
<stop stop-color="#FFE029"/>
<stop offset="0.0524714" stop-color="#FEDB29"/>
<stop offset="0.4283" stop-color="#F4BF27"/>
<stop offset="0.7568" stop-color="#EFAE26"/>
<stop offset="1" stop-color="#EDA826"/>
</linearGradient>
<linearGradient id="paint19_linear_1273_1700" x1="155.352" y1="80.6602" x2="113.058" y2="110.401" gradientUnits="userSpaceOnUse">
<stop stop-color="#FFE029"/>
<stop offset="0.0524714" stop-color="#FEDB29"/>
<stop offset="0.4283" stop-color="#F4BF27"/>
<stop offset="0.7568" stop-color="#EFAE26"/>
<stop offset="1" stop-color="#EDA826"/>
</linearGradient>
<linearGradient id="paint20_linear_1273_1700" x1="145.511" y1="89.9273" x2="110.852" y2="114.299" gradientUnits="userSpaceOnUse">
<stop stop-color="#EDA826"/>
<stop offset="0.2432" stop-color="#EFAE26"/>
<stop offset="0.5717" stop-color="#F4BF27"/>
<stop offset="0.9475" stop-color="#FEDB29"/>
<stop offset="1" stop-color="#FFE029"/>
</linearGradient>
<linearGradient id="paint21_linear_1273_1700" x1="131.792" y1="94.2239" x2="124.716" y2="75.5038" gradientUnits="userSpaceOnUse">
<stop stop-color="#EDA826"/>
<stop offset="0.3281" stop-color="#EFAE2C"/>
<stop offset="0.7704" stop-color="#F3BF3D"/>
<stop offset="1" stop-color="#F6CB49"/>
</linearGradient>
<linearGradient id="paint22_linear_1273_1700" x1="112.392" y1="99.6492" x2="99.5398" y2="65.6518" gradientUnits="userSpaceOnUse">
<stop stop-color="#EDA826"/>
<stop offset="0.2432" stop-color="#EFAE26"/>
<stop offset="0.5717" stop-color="#F4BF27"/>
<stop offset="0.9475" stop-color="#FEDB29"/>
<stop offset="1" stop-color="#FFE029"/>
</linearGradient>
<linearGradient id="paint23_linear_1273_1700" x1="116.669" y1="98.0461" x2="109.195" y2="78.276" gradientUnits="userSpaceOnUse">
<stop stop-color="#F0B331"/>
<stop offset="0.3143" stop-color="#EFAE2C"/>
<stop offset="1" stop-color="#EDA826"/>
</linearGradient>
<linearGradient id="paint24_linear_1273_1700" x1="152.282" y1="71.1275" x2="103.851" y2="115.429" gradientUnits="userSpaceOnUse">
<stop stop-color="#FFE029"/>
<stop offset="0.0524714" stop-color="#FEDB29"/>
<stop offset="0.4283" stop-color="#F4BF27"/>
<stop offset="0.7568" stop-color="#EFAE26"/>
<stop offset="1" stop-color="#EDA826"/>
</linearGradient>
<linearGradient id="paint25_linear_1273_1700" x1="117.135" y1="99.281" x2="113.617" y2="89.9731" gradientUnits="userSpaceOnUse">
<stop stop-color="#EDA826"/>
<stop offset="0.3281" stop-color="#EFAE2C"/>
<stop offset="0.7704" stop-color="#F3BF3D"/>
<stop offset="1" stop-color="#F6CB49"/>
</linearGradient>
<linearGradient id="paint26_linear_1273_1700" x1="85.2914" y1="60.7909" x2="105.456" y2="60.7909" gradientUnits="userSpaceOnUse">
<stop stop-color="#EDA826"/>
<stop offset="0.3281" stop-color="#EFAE2C"/>
<stop offset="0.7704" stop-color="#F3BF3D"/>
<stop offset="1" stop-color="#F6CB49"/>
</linearGradient>
<linearGradient id="paint27_linear_1273_1700" x1="65.1281" y1="60.7909" x2="85.2912" y2="60.7909" gradientUnits="userSpaceOnUse">
<stop stop-color="#EDA826"/>
<stop offset="0.3281" stop-color="#EFAE2C"/>
<stop offset="0.7704" stop-color="#F3BF3D"/>
<stop offset="1" stop-color="#F6CB49"/>
</linearGradient>
<linearGradient id="paint28_linear_1273_1700" x1="71.7992" y1="68.1649" x2="85.2914" y2="68.1649" gradientUnits="userSpaceOnUse">
<stop stop-color="#F2BA38"/>
<stop offset="1" stop-color="#EDA826"/>
</linearGradient>
<linearGradient id="paint29_linear_1273_1700" x1="85.2875" y1="68.1649" x2="98.7758" y2="68.1649" gradientUnits="userSpaceOnUse">
<stop stop-color="#F2BA38"/>
<stop offset="1" stop-color="#EDA826"/>
</linearGradient>
<clipPath id="clip0_1273_1700">
<rect width="170.6" height="122.5" fill="white" transform="translate(0.000976562 -0.00012207)"/>
</clipPath>
</defs>
</svg>
