<svg width="165" height="109" viewBox="0 0 165 109" fill="none" xmlns="http://www.w3.org/2000/svg">
<g clip-path="url(#clip0_1273_1371)">
<path d="M98.5098 33.8935L100.514 31.9611C99.8889 28.464 96.5995 26.7796 94.4323 26.5487C88.5988 25.9331 85.6264 29.9347 84.3757 36.356C82.0886 48.0785 84.9668 97.2859 84.9668 97.2859C85.1809 95.9776 101.028 46.5566 100.617 32.9786L98.5098 33.8935Z" fill="#96D9C9"/>
<path d="M18.768 72.5325L18.5195 74.3709L17.9199 72.2504C16.2495 71.7203 14.7933 71.5407 13.6454 71.8058C3.349 74.14 21.1408 88.2738 21.1408 88.2738C21.1408 88.2738 15.47 84.7254 9.97915 82.4681L9.91063 84.3321L9.20821 82.2287C4.94229 80.5614 0.984762 79.7918 0.196682 82.1945C-0.548568 84.4603 0.950498 86.6065 3.52889 88.5132L6.49276 88.6158L4.74528 89.3512C10.6987 93.1561 20.5497 95.8837 23.9504 96.4993C20.6953 95.9863 12.746 94.9602 8.03465 95.9692L8.77134 97.2004L6.90393 96.277C5.25067 96.8071 4.23131 97.6878 4.34267 99.073C4.55682 101.724 16.0611 102.673 16.0611 102.673L58.0949 102.279L58.3262 102.399C58.3262 102.399 32.3195 77.4918 18.768 72.5325Z" fill="#3C8F7C"/>
<path d="M150.626 97.0208C149.812 93.2672 141.58 92.1557 131.086 94.2163C134.821 92.9423 139.952 90.0437 142.616 88.7184L140.8 87.5641L144.449 87.7351C147.439 85.9909 148.93 84.2722 147.953 82.7246C147.225 81.5703 145.623 81.083 143.456 81.0915L142.317 83.1265L142.556 81.1172C137.091 81.4335 135.849 80.5443 128.474 83.5198C133.082 81.1343 133.75 80.3904 134.05 79.4327L131.558 78.3468H134.479C136.843 75.8074 140.595 70.7883 139.036 68.4712C137.751 66.5644 132.114 69.2151 128.517 70.5917L126.983 74.0289L127.292 71.0961C115.856 76.0724 119.736 72.0794 119.736 72.0794C119.736 72.0794 131.677 47.4288 124.645 47.9845C121.869 48.2068 118.88 49.8742 115.95 52.5504L115.873 55.0044L114.999 53.4482C112.866 55.5345 110.751 58.0654 108.729 60.7844C111.47 55.0471 113.543 49.4124 113.749 45.2142L111.659 44.9577L113.723 43.5298C113.526 41.4093 112.686 39.8104 110.982 38.9553C108.369 37.6557 105.619 39.6223 102.921 43.5298L103.589 47.0611L101.91 45.086C92.2392 60.8186 83.3904 99.5688 83.3904 99.5688L82.688 101.672L111.11 103.074C111.119 103.057 152.262 104.614 150.626 97.0208Z" fill="#50BFA5"/>
<path d="M164.503 103.245H1.86717C1.59306 103.245 1.37891 103.032 1.37891 102.775C1.37891 102.519 1.60162 102.305 1.86717 102.305H164.503C164.777 102.305 164.991 102.519 164.991 102.775C165 103.032 164.777 103.245 164.503 103.245Z" fill="#184655"/>
<path d="M108.832 86.5466H42.1706C39.6264 86.5466 37.562 84.6741 37.562 82.3741V79.8944C37.562 77.5858 39.6264 75.7219 42.1706 75.7219H108.823C105.774 78.7401 105.722 83.3488 108.703 86.4269L108.832 86.5466Z" fill="#86B1F2"/>
<path d="M107.898 76.9617H74.3531C72.0403 76.9617 70.1729 78.8342 70.1729 81.1342C70.1729 83.4428 72.0488 85.3068 74.3531 85.3068H107.898C106.33 82.7503 106.33 79.5097 107.898 76.9617Z" fill="#FAE0B2"/>
<path d="M105.825 63.8796C105.971 63.6317 105.748 63.3409 105.414 63.3409H52.3299C48.1668 63.3409 44.8003 66.1198 44.8003 69.5485C44.8003 72.9772 48.1753 75.7561 52.3299 75.7561H105.431C105.774 75.7561 105.996 75.4654 105.842 75.2088C103.744 71.6177 103.744 67.4451 105.825 63.8796Z" fill="#355389"/>
<path d="M105.405 64.6748H69.7877C67.1579 64.6748 65.0249 66.8038 65.0249 69.4288V69.7879C65.0249 72.4129 67.1579 74.5419 69.7877 74.5419H105.483C103.881 71.3783 103.864 67.8299 105.405 64.6748Z" fill="#FAE0B2"/>
<path d="M41.228 62.7852H75.4838C78.5248 62.7852 80.9832 60.1346 80.9832 56.8683C80.9832 53.6021 78.5248 50.9515 75.4838 50.9515H41.228C43.8493 54.2348 43.952 59.0487 41.4764 62.4603L41.228 62.7852Z" fill="#FAE0B2"/>
<path d="M80.5293 56.8683C80.5293 53.6021 78.0366 50.9515 74.9614 50.9515H40.6028C40.44 50.9515 40.3115 50.8147 40.3115 50.6437C40.3115 50.4726 40.44 50.3358 40.6028 50.3358H95.1174C98.5096 50.3358 101.259 53.2601 101.259 56.8683C101.259 60.4766 98.5096 63.4008 95.1174 63.4008H40.6028C40.4486 63.4008 40.3201 63.264 40.3115 63.093C40.3115 62.922 40.44 62.7852 40.6028 62.7852H74.9699C78.0366 62.7852 80.5293 60.1346 80.5293 56.8683Z" fill="#466EB6"/>
<path d="M82.9621 69.6426H79.2958C78.5077 69.6426 77.8652 69.8905 77.8652 70.1898V70.2411H82.9621V69.6426Z" fill="#FF4C16"/>
<path d="M86.0884 71.0106C86.0884 70.2582 85.129 69.6426 83.9469 69.6426H79.2441C80.1436 69.6426 80.8631 70.1043 80.8631 70.6772L80.846 85.3325L83.4415 83.4514L86.0884 85.3325V71.0106Z" fill="#F47458"/>
<path d="M136.235 86.5295H37.1934C34.1182 86.5295 31.6255 89.0177 31.6255 92.0873V96.7643C31.6255 99.8339 34.1182 102.322 37.1934 102.322H136.235L136.183 102.271C131.943 97.8673 131.969 90.8988 136.235 86.5295Z" fill="#B75742"/>
<path d="M134.478 88.8638H81.5313C78.4561 88.8638 75.9634 91.352 75.9634 94.4215C75.9634 97.4911 78.4561 99.9793 81.5313 99.9793H134.478C132.534 96.542 132.534 92.301 134.478 88.8638Z" fill="#FAE0B2"/>
<path d="M108.481 94.4557H104.189C103.264 94.4557 102.519 95.1996 102.519 96.123V96.2684H108.481V94.4557Z" fill="#13375B"/>
<path d="M104.369 94.4557C105.397 94.4557 106.93 95.3193 107.795 96.3881L117.98 108.991H123.959L114.271 97.0123C113.132 95.6015 111.11 94.4557 109.757 94.4557H104.369Z" fill="#355389"/>
<path d="M32.5419 53.756C30.0064 54.1407 29.2097 57.4497 31.2913 58.9546C31.6682 59.2282 31.9252 59.6301 32.028 60.0832L32.3877 61.6309C32.4905 62.0584 32.9017 62.332 33.33 62.2721L34.2894 62.1268C34.7263 62.0584 35.0347 61.6736 35.0004 61.2375C34.889 59.6386 34.7348 59.0658 35.2574 58.3561C36.825 56.2954 35.0861 53.3712 32.5419 53.756Z" fill="#F7CC7F"/>
<path d="M33.0987 61.0579C32.9702 61.075 32.8503 60.9895 32.8332 60.8613L32.362 57.4839L31.5739 56.8085C31.4797 56.723 31.4626 56.5776 31.5482 56.4836C31.6339 56.3895 31.7795 56.3724 31.8737 56.4579L32.7989 57.2531L33.2957 60.8014C33.3129 60.9211 33.2272 61.0408 33.0987 61.0579Z" fill="#FAE0B2"/>
<path d="M34.2723 61.0238C34.2723 61.0238 34.2809 61.0238 34.2723 61.0238C34.4008 61.0067 34.4865 60.887 34.4694 60.7587L33.9211 57.3899L34.4779 56.5092C34.5465 56.398 34.5122 56.2527 34.4008 56.1843C34.2895 56.1159 34.1439 56.1501 34.0753 56.2612L33.4243 57.2873L33.9982 60.8271C34.0325 60.9554 34.1524 61.0409 34.2723 61.0238Z" fill="#FAE0B2"/>
<path d="M32.0195 60.0405C32.0195 60.049 32.0281 60.0661 32.0281 60.0747L32.3879 61.6223C32.4907 62.0498 32.9018 62.3234 33.3301 62.2636L34.2895 62.1182C34.7264 62.0498 35.0348 61.6651 35.0005 61.229C34.9491 60.5193 34.8892 60.0148 34.8892 59.6044L32.0195 60.0405Z" fill="#96D9C9"/>
<path d="M32.0625 29.1053L31.0603 27.6518H29.2957C29.0901 27.6518 28.9787 27.4209 29.0987 27.2584L30.1694 25.8562L29.6212 24.1803C29.5612 23.9922 29.7411 23.8126 29.9296 23.8725L31.6 24.4539L33.0305 23.4108C33.1933 23.2911 33.4245 23.4108 33.416 23.616L33.3731 25.3774L34.8037 26.4119C34.9664 26.5317 34.9236 26.7796 34.7352 26.8395L33.0391 27.3439L32.4994 29.0198C32.4394 29.2336 32.1825 29.2678 32.0625 29.1053Z" fill="#F47458"/>
<path d="M125.184 31.7303L124.448 30.6615H123.146C123 30.6615 122.914 30.4905 123 30.3793L123.788 29.3447L123.385 28.1135C123.343 27.9766 123.471 27.8398 123.617 27.8911L124.842 28.3187L125.887 27.5577C126.007 27.4722 126.178 27.5577 126.169 27.703L126.135 29.0027L127.189 29.7637C127.309 29.8492 127.274 30.0373 127.137 30.08L125.895 30.4477L125.493 31.679C125.45 31.8243 125.27 31.8585 125.184 31.7303Z" fill="#9BC1F9"/>
<path d="M104.48 16.0575L102.844 15.7839L101.893 17.1776L100.077 16.7415L99.5205 18.5285L97.4475 18.1267L96.728 19.717L94.6807 19.6486L94.6978 18.8791L96.2397 18.9219L97.0021 17.246L98.9808 17.6393L99.5548 15.8181L101.551 16.2969L102.484 14.9374L104.001 15.1939L104.429 14.1764L105.148 14.4757L104.48 16.0575Z" fill="#F48C7F"/>
<path d="M58.1205 21.1107L56.9213 21.4784L56.1246 19.623L54.3086 19.9479L53.4777 18.6568L52.8267 19.0757L53.9317 20.8029L55.6535 20.4951L56.4844 22.4275L58.2833 21.8717L58.1205 21.1107Z" fill="#50BFA5"/>
<path d="M22.9055 40.768L21.1152 41.8539L22.9741 50.182C23.1368 50.9002 23.9592 51.2508 24.5845 50.866C24.9785 50.6266 25.1756 50.1563 25.0728 49.7031L24.6188 47.7451L26.4947 46.6079L28.0452 47.9076C28.3964 48.2068 28.9018 48.241 29.2958 48.0016L29.3301 47.9845C29.964 47.5997 30.0239 46.7105 29.4586 46.2402L22.9055 40.768ZM24.1219 45.7871L23.7793 44.2565L24.9871 45.2655L24.1219 45.7871Z" fill="#F48C7F"/>
<path d="M130.889 48.6429C130.983 48.4035 130.949 47.5655 132.123 46.7532C132.602 46.4198 133.005 46.1462 133.108 45.7529C133.296 45.0859 132.594 44.7696 131.891 44.7696C131.532 44.7696 131.232 44.4789 131.223 44.1197C131.215 43.7521 131.497 43.4443 131.866 43.4272C132.268 43.4101 132.739 43.4443 133.236 43.5811C134.735 44 135.189 45.009 134.924 45.9495C134.684 46.8131 133.99 47.2321 133.425 47.5826C132.474 48.1812 132.474 48.8566 132.397 49.0447L130.889 48.6429ZM130.161 50.1306C130.332 49.5321 130.872 49.2157 131.455 49.3782C132.071 49.5492 132.345 50.0879 132.191 50.695C132.029 51.2849 131.497 51.6098 130.881 51.4474C130.281 51.2764 129.998 50.7206 130.161 50.1306Z" fill="#F7CC7F"/>
<path d="M80.8123 5.34384C78.4737 5.34384 77.3087 8.20821 78.9791 9.84988C79.2789 10.1406 79.4588 10.5425 79.4845 10.9614L79.5959 12.4064C79.6301 12.7998 79.9642 13.1076 80.3583 13.1076H81.2406C81.6432 13.1076 81.9687 12.7998 82.003 12.4064C82.1229 10.9529 82.0543 10.4142 82.6283 9.84988C84.3158 8.21676 83.1508 5.34384 80.8123 5.34384Z" fill="#F7CC7F"/>
<path d="M80.3155 11.996C80.1956 11.996 80.1013 11.902 80.1013 11.7823L80.1356 8.67848L79.5188 7.96025C79.4417 7.87474 79.4503 7.73794 79.5445 7.66098C79.6302 7.58403 79.7673 7.59258 79.8443 7.68663L80.5725 8.52457L80.5382 11.7823C80.5296 11.902 80.4354 11.996 80.3155 11.996Z" fill="#FAE0B2"/>
<path d="M81.3776 12.1243C81.3776 12.1243 81.3862 12.1243 81.3776 12.1243C81.4975 12.1243 81.5917 12.0302 81.5917 11.9105L81.5575 8.80674L82.1742 8.08851C82.2513 8.00301 82.2428 7.8662 82.1486 7.78925C82.0629 7.71229 81.9258 7.72085 81.8487 7.8149L81.1206 8.65283L81.1549 11.9105C81.172 12.0302 81.2662 12.1243 81.3776 12.1243Z" fill="#FAE0B2"/>
<path d="M79.4932 10.9358C79.4932 10.9443 79.4932 10.9614 79.5017 10.97L79.6131 12.415C79.6474 12.8083 79.9814 13.1161 80.3755 13.1161H81.2578C81.6604 13.1161 81.9859 12.8083 82.0202 12.415C82.0716 11.7737 82.0887 11.3035 82.1401 10.9358H79.4932Z" fill="#96D9C9"/>
<path d="M85.3092 1.40213L83.2876 4.81372L86.7141 2.27427L85.3092 1.40213Z" fill="#FAE0B2"/>
<path d="M77.103 0.52145L79.1675 4.02709L78.8162 -0.00012207L77.103 0.52145Z" fill="#FAE0B2"/>
<path d="M73.5138 5.54053L76.7947 6.83163L73.4453 7.02829L73.5138 5.54053Z" fill="#FAE0B2"/>
<path d="M83.6392 10.1577L84.9583 11.825L85.9177 10.6793L83.6392 10.1577Z" fill="#FAE0B2"/>
<path d="M84.958 7.09667L87.939 5.86542L88.0246 7.18217L84.958 7.09667Z" fill="#FAE0B2"/>
<path d="M77.1458 10.4228L74.3447 11.731L75.2185 12.7827L77.1458 10.4228Z" fill="#FAE0B2"/>
<path d="M43.8407 28.1562C44.3033 28.1904 45.1942 28.3785 46.0251 28.6179C47.0359 28.9087 47.627 29.1823 48.0638 29.644C48.4921 30.0629 48.7234 30.6615 48.535 31.3284C48.3465 31.9782 47.7983 32.4741 46.8817 32.5426L46.8731 32.5682C47.6441 33.0299 48.081 33.8422 47.8154 34.7827C47.627 35.4411 47.173 35.8772 46.6162 36.1166C45.9651 36.3902 45.0057 36.3731 43.5495 35.9541C42.7357 35.7233 42.1447 35.4924 41.7935 35.3385L43.8407 28.1562ZM44.6802 31.4139L45.2199 31.5678C46.0851 31.8158 46.659 31.5935 46.8132 31.0462C46.9674 30.4905 46.6333 30.08 45.8795 29.8663C45.5197 29.7637 45.3055 29.7295 45.1599 29.7124L44.6802 31.4139ZM43.7465 34.6545C43.9007 34.7229 44.0977 34.7742 44.3804 34.8597C45.1257 35.0735 45.8709 34.9794 46.0936 34.2099C46.3078 33.4745 45.7253 32.9957 44.9029 32.7563L44.3376 32.5939L43.7465 34.6545Z" fill="#96D9C9"/>
<path d="M114.657 31.3113C114.751 31.7217 114.503 32.1236 114.091 32.2262C113.714 32.3203 113.235 32.3887 112.678 32.4058C109.8 32.4998 108.249 30.7641 108.172 28.3956C108.078 25.5569 110.048 23.9067 112.575 23.8212C113.072 23.8041 113.517 23.8383 113.877 23.9067C114.306 23.9836 114.588 24.4026 114.494 24.8216L114.485 24.8472C114.4 25.2491 114.014 25.5056 113.612 25.4372C113.346 25.3945 113.046 25.3603 112.721 25.3774C111.222 25.4287 110.091 26.3692 110.151 28.2246C110.211 29.892 111.23 30.9094 112.918 30.8496C113.2 30.841 113.492 30.7983 113.757 30.747C114.168 30.6444 114.563 30.9095 114.657 31.3113Z" fill="#F7CC7F"/>
<path d="M21.1749 70.0444C20.9778 69.4459 21.3119 68.779 21.9116 68.5823C22.5369 68.3771 23.1022 68.6849 23.3421 69.3006C23.5648 69.9247 23.3164 70.5404 22.6654 70.7798C22.0058 71.0192 21.3976 70.6943 21.1749 70.0444ZM20.9778 68.2403L19.0333 63.6146C18.8706 63.2298 19.0676 62.7937 19.4616 62.6484L19.9328 62.4774C20.3268 62.3405 20.7551 62.5543 20.8751 62.9476L22.3484 67.7444L20.9778 68.2403Z" fill="#466EB6"/>
<path d="M65.0243 32.6024C65.0243 32.4656 65.1871 31.602 65.1871 31.602C65.1871 31.602 64.8016 30.3708 64.7588 30.3708C63.9621 30.3109 63.3625 30.8496 63.4996 31.5763L63.5081 31.602C63.9193 32.9102 65.0243 33.8849 66.3778 34.1244C66.6862 34.1757 67.0117 34.2355 67.3458 34.2954C67.1916 33.7652 67.0888 33.2351 67.0973 32.6793C65.9409 32.6708 65.0243 32.6537 65.0243 32.6024Z" fill="#F7A491"/>
<path d="M78.4475 27.19C78.4218 27.1216 71.4661 31.6448 71.4661 31.6448C71.4661 31.6448 68.4937 31.6704 66.3008 31.6533C66.2922 32.3117 66.4035 32.9615 66.5749 33.5857C68.7421 33.9961 71.2091 34.4236 71.7745 34.3809C72.8196 34.3039 78.0706 31.6875 78.0706 31.6875C78.0706 31.6875 78.4646 27.2328 78.4475 27.19Z" fill="#355389"/>
<path d="M78.5247 44.0513C78.5075 43.9402 77.0427 38.904 76.8886 34.398C76.7686 30.9009 77.8565 27.7715 78.4133 27.1986C78.6189 26.9848 80.5291 26.5231 80.5291 26.5231L79.8353 27.6774C79.1243 29.0113 78.9358 30.1912 78.6275 31.6961C77.7366 36.0568 81.737 44.7781 81.5314 44.8294C81.3001 44.8978 78.5846 44.496 78.5247 44.0513Z" fill="#466EB6"/>
<path d="M63.2772 26.4633L62.0522 27.2584L65.71 33.389L66.8578 28.4127L63.2772 26.4633Z" fill="#9BC1F9"/>
<path d="M64.0308 25.4971L65.5641 30.5931L66.7976 28.3871L64.0308 25.4971Z" fill="#9BC1F9"/>
<path d="M74.1643 24.9071L75.3464 29.1823L66.6519 28.3956L74.1643 24.9071Z" fill="#9BC1F9"/>
<path d="M69.2048 42.9996C69.2048 42.9996 65.5042 47.5057 65.4957 48.1641C65.4785 49.1046 61.1098 48.8481 62.0607 48.4462C62.2748 48.3522 62.9687 48.0016 63.0201 47.9589C63.3028 47.7195 66.2152 42.0249 66.2152 42.0249L69.2048 42.9996Z" fill="#F7A491"/>
<path d="M60.1419 48.8737L62.9515 48.0016C62.9515 48.0016 63.9195 48.4975 65.5042 48.1726C65.5042 48.1726 65.9154 48.831 65.9839 49.6946C65.9925 49.8399 66.0696 50.2845 65.924 50.3102C65.3843 50.3957 63.9024 50.3615 62.2234 50.3957C62.2234 50.3957 59.962 50.4213 58.5486 49.9596C57.1266 49.4893 60.1419 48.8737 60.1419 48.8737Z" fill="#07345A"/>
<path d="M87.1078 44.077C87.1078 44.077 83.7841 43.316 80.6746 41.1015C77.0769 38.5364 73.0337 35.8601 71.4318 36.0824C70.1469 36.2534 62.6602 46.531 62.6602 46.531L66.2836 48.1042L72.8367 41.3922C72.8367 41.3922 79.5268 48.2752 81.7283 48.7455C86.7308 49.8143 88.3327 46.1291 87.1078 44.077Z" fill="#B75742"/>
<path d="M61.8806 27.2584L66.9261 37.9207C66.9518 37.972 66.9946 38.0062 67.046 38.0148L70.4124 38.9468L66.1123 28.3871L62.1034 27.019C61.9577 26.9677 61.8207 27.1216 61.8806 27.2584Z" fill="#F7CC7F"/>
<path d="M79.0472 17.1861C79.0472 17.1861 79.9809 15.9207 81.0174 17.1861C81.0174 17.1861 81.6341 16.7244 82.1909 17.3315C82.1909 17.3315 83.3474 16.8184 83.8699 18.5798C83.8699 18.5798 84.4781 18.3832 84.6494 19.1099C84.8207 19.8367 84.5123 20.3754 84.5123 20.3754C84.5123 20.3754 84.8978 20.5892 84.8207 21.2903C84.7608 21.8803 84.2982 22.0256 84.2982 22.0256C84.2982 22.0256 84.2896 23.0089 83.9127 23.3595C83.5272 23.7015 82.9362 23.6331 82.9362 23.6331C82.9362 23.6331 82.8505 24.1803 82.3537 24.1889C81.8569 24.206 81.1887 23.8126 80.6662 24.0948C80.1436 24.377 78.6874 24.3342 78.6874 24.3342C78.6874 24.3342 76.9913 23.8212 77.2654 22.1282C77.2654 22.1282 76.3232 21.4784 76.9485 20.4695C76.9485 20.4695 76.2289 19.1099 77.1883 18.1352C78.1392 17.169 79.0472 17.1861 79.0472 17.1861Z" fill="#07345A"/>
<path d="M73.916 57.3215C73.916 57.3215 74.1216 62.8707 74.2501 63.8112C74.3785 64.7432 71.8944 67.5648 72.2113 66.5815C72.2884 66.3592 72.4683 65.6068 72.4769 65.5384C72.4769 65.1707 71.5518 58.8435 71.5518 58.8435L73.916 57.3215Z" fill="#F7A491"/>
<path d="M71.2692 68.3173L72.4513 65.6239C72.4513 65.6239 73.4621 65.2135 74.2502 63.8198C74.2502 63.8198 75.0211 63.9395 75.715 64.4611C75.8349 64.5466 76.2204 64.786 76.1347 64.9143C75.8435 65.376 74.8412 66.4704 73.7705 67.7615C73.7705 67.7615 72.3057 69.4802 71.0293 70.2411C69.7615 70.9936 71.2692 68.3173 71.2692 68.3173Z" fill="#07345A"/>
<path d="M71.4835 63.1016C71.7405 62.8365 68.8537 48.6514 70.2585 47.2834C71.6634 45.9153 81.0175 43.8974 81.0175 43.8974L82.2425 39.5795C82.2425 39.5795 86.1572 40.7252 87.7419 43.0851C88.6071 44.3763 87.7248 47.3176 87.5706 47.6425C86.2343 50.4214 82.9278 50.5582 80.5293 50.5411C78.3192 50.5154 74.396 50.4898 74.396 50.4898L74.3788 63.0161C74.3788 63.0161 73.4109 63.2469 72.657 63.2213C71.6205 63.1785 71.4835 63.1016 71.4835 63.1016Z" fill="#F47458"/>
<path d="M80.161 26.8309L82.6965 25.9246C82.6965 25.9246 82.7736 25.9246 82.7993 25.9246C83.0734 25.8904 86.063 35.6634 87.0396 39.3572C88.0161 43.051 86.7397 42.3498 86.7397 42.3498C86.7397 42.3498 84.504 43.7435 81.8999 43.8376C79.193 43.9402 79.7326 40.6825 79.7326 40.6825C79.7326 40.6825 78.3107 33.885 78.4734 31.5764C78.6447 29.2678 80.161 26.8309 80.161 26.8309Z" fill="white"/>
<path d="M80.2037 24.8472L80.1951 26.0956V26.3179C80.1951 26.3179 80.0238 28.4469 80.632 28.7804C81.2401 29.1138 82.6964 25.9331 82.6964 25.9331L82.0368 22.3163L80.2037 24.8472Z" fill="#F7A491"/>
<path d="M82.2512 23.4792C81.9428 24.7874 80.9406 25.6937 80.1953 26.087L80.2039 24.8472L82.037 22.3078L82.2512 23.4792Z" fill="#F47458"/>
<path d="M80.255 18.6311C79.0643 18.3832 77.9507 19.2895 77.925 20.4865C77.9165 21.0081 77.925 21.6579 78.0021 22.3591C78.182 24.0435 79.2699 25.574 80.0323 25.48C80.7947 25.3859 82.7735 24.0264 82.5508 21.6237C82.4137 20.136 81.5057 18.8962 80.255 18.6311Z" fill="#F7A491"/>
<path d="M82.011 21.8802C82.0624 22.2479 82.3451 22.5215 82.6449 22.4873C82.9532 22.4531 83.1588 22.1197 83.1074 21.7434C83.056 21.3758 82.7733 21.1022 82.4736 21.1364C82.1738 21.1791 81.9682 21.5126 82.011 21.8802Z" fill="#F7A491"/>
<path d="M76.8287 18.2122C76.1177 18.9389 75.9635 19.9222 76.4775 20.4182C77 20.9055 77.9937 20.7174 78.7047 19.9906C79.4156 19.2639 79.5698 18.2806 79.0559 17.7846C78.5419 17.2973 77.5397 17.4854 76.8287 18.2122Z" fill="#07345A"/>
<path d="M78.9616 18.4686C78.9959 18.7423 79.3556 18.9218 79.7582 18.8705C80.1608 18.8192 80.4607 18.5541 80.4264 18.2891C80.3921 18.0155 80.0323 17.8359 79.6297 17.8872C79.2357 17.93 78.9273 18.195 78.9616 18.4686Z" fill="#07345A"/>
<path d="M77.0429 20.8371C77.0857 21.1877 77.4027 21.4356 77.7539 21.3929C78.0965 21.3501 78.3449 21.0338 78.3021 20.6832C78.2592 20.3327 77.9423 20.0847 77.5911 20.1274C77.2485 20.1702 77.0001 20.4866 77.0429 20.8371Z" fill="#07345A"/>
<path d="M82.6964 25.9246C82.6964 25.9246 85.1806 25.5227 86.0115 25.8733C86.5426 26.0956 87.2193 30.5931 87.2193 30.5931C87.2193 30.5931 87.245 35.1333 87.5534 36.4159C88.607 40.7594 90.0718 44.5558 89.9091 44.7781C88.8298 45.6674 84.3154 46.4882 83.9728 46.0607C80.1866 41.4007 82.6964 25.9246 82.6964 25.9246Z" fill="#466EB6"/>
<path d="M86.8424 30.5247C86.8424 30.5247 84.3582 38.1944 83.2703 38.9981C82.1824 39.8018 77.2911 32.2775 77.2911 32.2775C77.2911 32.2775 75.1239 31.0548 74.9697 31.0377C74.353 30.9864 76.2461 30.67 76.2461 30.67L76.4774 28.712C76.4774 28.712 76.5716 28.7291 77.137 29.3618C77.8993 30.2169 78.5675 31.5507 78.8759 31.7816L82.1481 34.2612L83.8185 28.9514L86.8424 30.5247Z" fill="#F7A491"/>
<path d="M66.1123 28.3871L67.1402 28.293L71.5518 39.2375L70.4125 38.9553L66.1123 28.3871Z" fill="#FAE0B2"/>
<path d="M75.9121 25.7194L78.5676 38.6133C78.6104 38.8271 78.4562 39.0237 78.2335 39.0323L71.5434 39.2375L67.1318 28.2845L75.4495 25.4543C75.6551 25.3945 75.8692 25.5142 75.9121 25.7194Z" fill="#F7CC7F"/>
<path d="M78.6103 31.3198L77.7622 33.1753C77.7622 33.1753 81.9253 40.0241 83.2188 39.6393C84.5037 39.2631 86.9365 31.8414 87.3134 29.8064C87.6903 27.7629 86.9023 26.0699 85.8486 25.8049C84.795 25.5398 83.9812 27.3268 83.6557 28.0793C83.3302 28.8402 82.1652 34.2697 82.1652 34.2697L78.6103 31.3198Z" fill="#86B1F2"/>
<path d="M63.7909 31.4225C63.7909 31.4225 63.6368 31.1489 63.5854 30.9779C63.534 30.8069 64.5619 30.234 64.9645 30.4905C65.3757 30.7556 64.2878 31.166 63.7909 31.4225Z" fill="#F7A491"/>
<path d="M63.8337 32.0894C63.8337 32.0894 63.5767 31.8158 63.5253 31.6533C63.4739 31.4823 64.8445 30.7983 65.2471 31.0634C65.6583 31.3284 64.3305 31.8329 63.8337 32.0894Z" fill="#F7A491"/>
<path d="M64.3049 32.5597C64.3049 32.5597 64.0479 32.2861 63.9965 32.1236C63.9451 31.9526 64.973 31.3797 65.3756 31.6362C65.7868 31.9013 64.8017 32.3032 64.3049 32.5597Z" fill="#F7A491"/>
<path d="M76.7089 29.4815H76.4947C76.3919 29.4815 76.2891 29.473 76.1949 29.4473C75.8009 29.3618 74.7216 29.1481 74.6445 29.3618C74.5417 29.6269 76.1949 29.9347 76.1949 29.9347C76.1949 29.9347 74.3789 29.7038 74.3789 30.0117C74.3789 30.3195 76.2206 30.4819 76.2206 30.4819C76.2206 30.4819 74.6102 30.4221 74.5845 30.6016C74.5588 30.7812 76.5547 31.2771 76.5547 31.2771C76.5547 31.2771 74.9357 30.9266 74.7729 31.1318C74.6102 31.337 77.3171 32.3203 77.3171 32.3203L76.7089 29.4815Z" fill="#F7A491"/>
<path d="M64.3049 32.5597C64.3049 32.5597 65.1958 32.0637 65.4271 32.2176C65.6583 32.3715 64.6647 33.124 64.6647 33.124L64.7846 33.3976C64.7846 33.389 64.1507 32.9017 64.3049 32.5597Z" fill="#F7A491"/>
</g>
<defs>
<clipPath id="clip0_1273_1371">
<rect width="165" height="109" fill="white" transform="translate(-0.000488281 -0.00012207)"/>
</clipPath>
</defs>
</svg>
