<svg width="138" height="100" viewBox="0 0 138 100" fill="none" xmlns="http://www.w3.org/2000/svg">
<g clip-path="url(#clip0)">
<path opacity="0.1" d="M134.222 22.5172C128.712 13.6958 119.426 7.49273 109.386 5.91619C100.326 4.49487 90.7806 6.8609 83.275 12.2842L84.9292 10.9781C79.0171 14.8406 71.337 14.5884 64.6112 12.5777C57.8854 10.567 51.7078 6.98096 45.153 4.43424C39.6632 2.30205 33.9157 0.904616 28.0597 0.278233C19.7077 -0.619183 10.377 0.467417 4.56195 6.72143C-1.91763 13.6861 -1.42042 26.2463 5.58913 32.6422C9.15332 35.8947 13.8223 37.4931 17.8934 40.0289C21.9645 42.5647 25.7337 46.785 25.3868 51.6856C25.0655 56.2224 21.3339 59.7017 17.4726 61.8846C14.4869 63.5739 10.8111 65.4173 10.4509 68.9184C10.1029 72.3019 13.1941 74.9529 16.1507 76.4615C25.7798 81.3791 37.6426 81.3318 47.2353 76.3403C50.6576 74.5588 53.8034 72.1879 57.3918 70.7993C66.8147 67.1527 77.1981 70.8236 87.1763 72.1661C95.65 73.3006 104.266 72.7149 112.508 70.444C117.45 69.0809 122.41 66.9974 125.88 63.1167C128.375 60.3081 129.938 56.7705 131.407 53.2743C132.969 49.5439 134.47 45.7873 135.91 42.0044C136.773 39.733 137.624 37.4179 137.85 34.9888C138.248 30.5842 136.543 26.2305 134.222 22.5172ZM37.1466 23.1393H28.3131C28.07 23.1393 27.8368 23.0427 27.6649 22.8708C27.4929 22.6988 27.3963 22.4656 27.3963 22.2225C27.3963 21.9793 27.4929 21.7461 27.6649 21.5742C27.8368 21.4022 28.07 21.3057 28.3131 21.3057H31.345C31.2781 21.1986 31.2342 21.0788 31.216 20.9538C31.1979 20.8289 31.2058 20.7016 31.2393 20.5799C31.2728 20.4582 31.3312 20.3447 31.4107 20.2467C31.4903 20.1487 31.5893 20.0683 31.7015 20.0105H30.7083C30.4651 20.0105 30.2319 19.9139 30.06 19.7419C29.8881 19.57 29.7915 19.3368 29.7915 19.0936C29.7915 18.8505 29.8881 18.6173 30.06 18.4454C30.2319 18.2734 30.4651 18.1768 30.7083 18.1768H39.5405C39.7463 18.1758 39.9464 18.244 40.1087 18.3705C40.2709 18.4969 40.386 18.6743 40.4352 18.8741C40.4845 19.0738 40.4651 19.2843 40.3803 19.4717C40.2955 19.6592 40.15 19.8126 39.9674 19.9074H40.9619C41.205 19.9074 41.4382 20.004 41.6101 20.1759C41.7821 20.3478 41.8787 20.581 41.8787 20.8242C41.8787 21.0674 41.7821 21.3006 41.6101 21.4725C41.4382 21.6444 41.205 21.741 40.9619 21.741H37.93C38.0216 21.8862 38.07 22.0545 38.0695 22.2261C38.0679 22.4695 37.9699 22.7023 37.7968 22.8735C37.6238 23.0447 37.39 23.1403 37.1466 23.1393ZM51.709 36.2161H48.6772C48.7639 36.3546 48.8119 36.5139 48.8162 36.6773C48.8204 36.8407 48.7808 37.0023 48.7015 37.1452C48.6221 37.2881 48.5059 37.4071 48.3649 37.4898C48.2239 37.5725 48.0633 37.616 47.8999 37.6156H39.0676C38.8244 37.6156 38.5912 37.519 38.4193 37.347C38.2474 37.1751 38.1508 36.9419 38.1508 36.6988C38.1508 36.4556 38.2474 36.2224 38.4193 36.0505C38.5912 35.8785 38.8244 35.7819 39.0676 35.7819H42.0994C42.0326 35.6748 41.9888 35.5549 41.9707 35.4299C41.9526 35.305 41.9606 35.1776 41.9942 35.0559C42.0278 34.9342 42.0863 34.8207 42.166 34.7228C42.2457 34.6248 42.3448 34.5444 42.4571 34.4867H41.4627C41.2196 34.4867 40.9864 34.3901 40.8144 34.2182C40.6425 34.0463 40.5459 33.8131 40.5459 33.5699C40.5459 33.3268 40.6425 33.0936 40.8144 32.9216C40.9864 32.7497 41.2196 32.6531 41.4627 32.6531H50.295C50.5005 32.6526 50.7001 32.7212 50.8619 32.8479C51.0236 32.9746 51.1381 33.152 51.1868 33.3516C51.2355 33.5512 51.2157 33.7614 51.1305 33.9484C51.0452 34.1354 50.8996 34.2883 50.717 34.3825H51.7102C51.9534 34.3825 52.1866 34.479 52.3585 34.651C52.5305 34.8229 52.6271 35.0561 52.6271 35.2993C52.6271 35.5424 52.5305 35.7756 52.3585 35.9476C52.1866 36.1195 51.9534 36.2161 51.7102 36.2161H51.709ZM65.0053 26.4003L65.1484 26.6234C64.8463 26.6586 64.5402 26.628 64.251 26.5337C63.8071 26.4993 63.3824 26.338 63.0274 26.0692L63.8023 25.9395C63.7926 25.7078 63.8763 25.401 64.1067 24.9935L64.6233 25.8024L66.0082 25.572C65.756 25.9347 65.4091 26.2212 65.0053 26.4003ZM85.4094 35.7189L85.5525 35.942C85.2504 35.9765 84.9444 35.9459 84.6551 35.8523C84.2111 35.8178 83.7864 35.6566 83.4314 35.3878L84.2064 35.258C84.1967 35.0264 84.2804 34.7196 84.5108 34.3121L85.0274 35.121L86.4123 34.8906C86.1601 35.2533 85.8132 35.5398 85.4094 35.7189ZM101.494 28.0496L101.637 28.2727C101.335 28.3079 101.029 28.2773 100.739 28.183C100.294 28.1475 99.8675 27.9841 99.5122 27.7125L100.287 27.5827C100.277 27.3511 100.361 27.0443 100.591 26.6368L101.108 27.4457L102.492 27.2153C102.242 27.5797 101.897 27.8684 101.494 28.0496ZM112.367 18.4315H109.335C109.422 18.5701 109.47 18.7293 109.474 18.8927C109.478 19.0561 109.439 19.2177 109.359 19.3606C109.28 19.5035 109.164 19.6225 109.023 19.7052C108.882 19.788 108.721 19.8314 108.558 19.831H99.728C99.4849 19.831 99.2517 19.7344 99.0797 19.5624C98.9078 19.3905 98.8112 19.1573 98.8112 18.9142C98.8112 18.671 98.9078 18.4378 99.0797 18.2659C99.2517 18.0939 99.4849 17.9973 99.728 17.9973H102.76C102.693 17.8898 102.65 17.7696 102.632 17.6444C102.614 17.5191 102.623 17.3916 102.657 17.2698C102.691 17.148 102.751 17.0347 102.831 16.937C102.911 16.8393 103.011 16.7593 103.124 16.7022H102.129C101.886 16.7022 101.653 16.6056 101.481 16.4336C101.309 16.2617 101.212 16.0285 101.212 15.7853C101.212 15.5422 101.309 15.309 101.481 15.137C101.653 14.9651 101.886 14.8685 102.129 14.8685H110.961C111.167 14.868 111.367 14.9366 111.528 15.0633C111.69 15.19 111.805 15.3674 111.853 15.567C111.902 15.7667 111.882 15.9769 111.797 16.1638C111.712 16.3508 111.566 16.5037 111.384 16.5979H112.367C112.61 16.5979 112.843 16.6945 113.015 16.8664C113.187 17.0383 113.284 17.2715 113.284 17.5147C113.284 17.7578 113.187 17.991 113.015 18.163C112.843 18.3349 112.61 18.4315 112.367 18.4315Z" fill="#0091FF"/>
<path opacity="0.1" d="M75.5997 100C79.4663 100 82.6007 99.0205 82.6007 97.8123C82.6007 96.604 79.4663 95.6245 75.5997 95.6245C71.7331 95.6245 68.5986 96.604 68.5986 97.8123C68.5986 99.0205 71.7331 100 75.5997 100Z" fill="#0091FF"/>
<path opacity="0.1" d="M86.2799 85.4498C88.3615 85.4498 90.049 84.9226 90.049 84.2722C90.049 83.6219 88.3615 83.0947 86.2799 83.0947C84.1982 83.0947 82.5107 83.6219 82.5107 84.2722C82.5107 84.9226 84.1982 85.4498 86.2799 85.4498Z" fill="#0091FF"/>
<path opacity="0.1" d="M105.761 88.7484C107.843 88.7484 109.53 88.2211 109.53 87.5708C109.53 86.9205 107.843 86.3932 105.761 86.3932C103.68 86.3932 101.992 86.9205 101.992 87.5708C101.992 88.2211 103.68 88.7484 105.761 88.7484Z" fill="#0091FF"/>
<path opacity="0.1" d="M113.27 98.7072C117.136 98.7072 120.271 97.7277 120.271 96.5194C120.271 95.3112 117.136 94.3317 113.27 94.3317C109.403 94.3317 106.269 95.3112 106.269 96.5194C106.269 97.7277 109.403 98.7072 113.27 98.7072Z" fill="#0091FF"/>
<path d="M131.702 39.2704C131.173 38.2275 130.46 40.9391 130.46 41.2605C130.46 41.3988 130.303 41.5564 130.122 41.691C130.092 41.7141 130.061 41.7359 130.03 41.7565C129.973 41.6489 129.882 41.5634 129.771 41.514C129.15 41.3405 128.22 42.3483 128.22 42.3483C128.22 42.3483 126.531 43.0093 125.532 43.1827C124.532 43.3561 123.671 44.0522 123.671 44.0522C123.671 44.0522 122.051 44.644 121.465 44.3311C121.094 44.1322 119.976 44.0182 119.075 43.9515C119.065 43.9321 119.057 43.9127 119.048 43.8933C118.823 43.4266 118.528 42.9961 118.175 42.6163C117.871 42.2901 117.516 41.9894 117.348 41.5758C117.334 41.5394 117.322 41.5031 117.309 41.4655C117.935 40.8931 118.586 40.1448 118.599 39.4972C118.612 38.7696 117.529 38.6337 116.627 38.6483C116.396 38.6483 116.169 38.6483 115.966 38.6641C115.834 38.4606 115.675 38.2766 115.493 38.1171L115.468 37.9558L115.163 35.95C114.816 35.3701 114.313 34.8999 113.711 34.5936C113.109 34.2872 112.433 34.1571 111.76 34.2182C111.76 34.2182 109.092 34.519 108.913 35.7014C108.808 36.351 108.668 36.9947 108.495 37.6296C108.477 37.6915 108.463 37.7412 108.452 37.78C108.199 37.8491 108.014 37.9013 107.918 37.9352C106.984 38.0334 105.85 38.3572 105.782 39.3456C105.715 40.334 105.782 41.1647 106.329 41.7468C106.42 41.9214 106.516 42.0937 106.59 42.2756C106.733 42.6377 106.785 43.0294 106.741 43.4163C106.698 43.8032 106.56 44.1735 106.34 44.4948C105.964 45.0309 105.383 45.3813 104.929 45.8507C104.545 46.2412 104.297 46.7452 104.222 47.2878L104.163 47.2962C103.844 47.8031 103.599 48.3532 103.436 48.9298C103.228 49.7641 101.609 51.5032 101.609 51.5032C101.609 51.5032 100.062 53.4799 99.4072 53.7588C98.7523 54.0378 98.511 54.2803 98.511 54.2803L98.1653 54.5229C98.1653 54.5229 97.89 54.94 97.6148 55.1135C97.3395 55.2869 93.6128 58.1392 93.6128 58.1392C93.6128 58.1392 91.8555 58.7989 91.6142 59.3204C91.5524 59.4526 91.6397 59.6842 91.8034 59.9474L91.6372 60.0359C91.1885 60.2785 90.6343 60.5622 90.1723 60.7635C90.1727 60.7563 90.1727 60.749 90.1723 60.7417C90.1723 60.7417 89.8946 60.1463 89.6666 59.5957C89.6266 59.4975 89.5865 59.4004 89.5453 59.3083C89.7612 59.3252 89.897 59.3398 89.897 59.3398C89.897 59.3398 89.8048 58.4121 90.0813 58.3696C90.3578 58.3272 89.8812 57.5814 89.8812 57.5814L89.76 56.8865C89.76 56.8865 90.0365 55.1705 89.76 54.7994C89.4835 54.4283 89.1633 53.4096 89.1633 53.4096C89.1633 53.4096 89.4386 52.5279 89.1633 52.2502C88.888 51.9725 88.7498 51.1369 88.7498 51.1369C88.7498 51.1369 88.5193 49.3761 87.9227 48.2628C87.326 47.1495 86.3134 45.0175 86.3134 45.0175L85.5324 42.4708C85.5324 42.4708 83.1894 38.1584 80.8913 36.6764C78.5932 35.1945 75.3128 34.9786 75.3128 34.9786C75.3019 34.9507 75.2897 34.924 75.2788 34.8961C75.1906 34.6725 75.1161 34.4437 75.0557 34.2109C75.046 34.1721 75.0387 34.1333 75.0302 34.0897C75.8375 33.3978 76.3693 32.439 76.5287 31.3878C76.688 30.3367 76.4644 29.2632 75.8985 28.3632C75.8646 28.3098 75.8294 28.2589 75.793 28.208C76.0231 28.085 76.2203 27.9085 76.368 27.6935C76.5157 27.4784 76.6096 27.2311 76.6419 26.9722C76.7147 26.3343 75.9143 25.7813 75.4425 25.4514C75.3952 25.4175 75.3455 25.3847 75.2958 25.3544L75.2327 25.3156L75.1478 25.2671C75.1212 25.2526 75.0933 25.2368 75.0642 25.2234L74.9999 25.1907C74.6822 25.0279 74.3297 24.9447 73.9727 24.9482C73.5301 24.9627 73.1056 25.1373 72.6642 25.164C71.6819 25.2247 70.6705 24.5577 69.7597 24.9372C69.0903 25.2137 68.6586 25.9996 67.9406 26.076C67.7393 26.0978 67.5368 26.0578 67.3343 26.0687C67.2328 26.0658 67.1322 26.0887 67.042 26.1354C66.9518 26.1821 66.875 26.2509 66.8189 26.3355C66.7388 26.4871 66.7655 26.6714 66.7861 26.8424C66.8738 27.59 66.7845 28.3478 66.5254 29.0544C65.8402 28.801 63.7082 29.7311 63.5603 30.1459C63.4475 30.4661 62.6495 31.3865 62.1159 31.9807L61.9801 32.1311C61.9754 32.0667 61.9853 32.002 62.0092 31.9419L60.6752 32.7763C60.6752 32.7763 59.2975 33.0516 58.7918 34.2122C58.2861 35.3727 56.8236 35.6553 56.8236 35.6553L55.9055 37.1845C55.9055 37.1845 53.6074 38.1547 53.4692 41.0786C53.3309 44.0025 55.2094 43.8145 55.2094 43.8145C55.9892 44.0461 59.7111 43.8145 59.7111 43.8145C59.7111 43.8145 62.6531 41.8669 62.8824 43.304C63.1116 44.741 64.032 49.5616 64.7221 50.0722C65.4121 50.5827 65.7323 52.3436 65.7323 52.3436C65.7323 52.3436 64.3983 55.0795 65.4109 56.5627C66.057 57.5369 66.5958 58.5782 67.0177 59.6684L67.1645 59.706L67.0711 59.9595L66.5132 61.4536C66.5132 61.4536 67.7078 62.2176 67.6617 62.5899C67.6156 62.9622 67.3403 64.4902 67.3403 64.4902C67.3403 64.4902 68.4439 66.6222 68.2596 66.9933C68.0752 67.3644 68.2802 68.0593 68.2802 68.0593C68.2802 68.0593 69.0406 72.6955 69.6372 73.901C70.0101 74.6887 70.2412 75.536 70.32 76.404C70.32 76.404 69.8228 77.5161 70.0981 77.8872C70.3733 78.2583 70.32 78.9071 70.32 78.9071C70.32 78.9071 70.2763 79.6954 70.32 79.9282C70.3636 80.1611 70.4607 80.993 70.5977 81.1324C70.7347 81.2719 70.7832 85.1199 72.6593 89.0152V89.9429C72.6593 89.9429 72.2458 90.4522 72.6593 90.9131C72.7806 91.044 73.2172 91.0258 73.7835 90.9313C73.826 91.0125 73.8684 91.0986 73.9133 91.1884C74.1914 91.7287 74.409 92.2981 74.5621 92.8862C74.573 92.9286 74.5815 92.9711 74.59 93.0135C74.328 93.1348 74.1328 93.3167 74.1995 93.5993C74.3717 94.3269 73.6489 96.3812 73.6489 96.3812C73.6489 96.3812 72.8897 97.5285 73.3724 98.0499C73.8551 98.5714 78.0596 98.9546 78.2318 98.5023C78.404 98.0499 77.7467 95.2279 77.7467 95.2279L77.1246 93.119L77.0882 92.9589C76.9572 92.3889 76.7317 91.3824 76.5546 90.5226C76.5364 90.4328 76.5194 90.3455 76.5012 90.2594C77.0518 90.1005 77.4362 89.9781 77.4362 89.9781C77.4362 89.9781 76.6092 88.8648 76.7923 88.4015C76.9754 87.9383 76.2878 80.2884 76.2878 80.2884C76.2878 80.2884 75.9846 79.3716 76.1653 78.8622C76.346 78.3529 75.5674 77.5646 75.5674 77.5646L75.89 68.9882C75.89 68.9882 78.0038 75.8025 80.439 77.4264C80.439 77.4264 83.5181 77.7962 84.162 76.6369C84.196 76.5762 84.2275 76.5156 84.2578 76.4428C84.2869 76.4804 84.3148 76.518 84.3403 76.5568C84.4349 76.6961 84.5192 76.842 84.5925 76.9934C84.6265 77.0613 84.6568 77.128 84.6835 77.1935C84.6835 77.1935 85.3784 79.2091 85.5397 80.0786C85.701 80.9481 87.4121 79.4177 87.93 79.1084C88.4478 78.7992 88.1361 76.6405 87.4121 75.9796C87.0483 75.6534 86.9586 75.0797 86.8555 74.4127L86.8288 74.0489C86.8288 74.0489 86.8167 74.0332 86.7924 74.0065C86.6978 73.428 86.5644 72.8059 86.2406 72.2226C85.8768 71.5798 85.2826 71.4464 84.7308 71.4949C84.5128 71.5143 84.3058 71.5993 84.1371 71.7387C83.9685 71.8782 83.8461 72.0655 83.7861 72.2759L83.7363 72.3002C83.6169 72.2993 83.4976 72.3091 83.3798 72.3293C83.3798 72.3293 83.3798 71.1711 83.1494 70.5672C82.919 69.9633 83.2416 68.2036 83.2416 68.2036C83.2416 68.2036 83.3349 67.7403 83.0584 66.8599C82.7819 65.9795 82.9214 61.0182 82.9214 61.0182C82.833 60.6536 82.7262 60.2938 82.6012 59.9401C82.5867 59.9001 82.5709 59.8601 82.5552 59.8188C82.5777 59.7898 82.5927 59.7556 82.5988 59.7194C82.6449 59.3022 82.0009 57.8651 82.828 57.4019C83.6551 56.9386 82.4642 54.8988 82.4642 54.8988L82.1877 48.7794C82.1877 48.7794 81.2854 47.1301 81.4128 46.7626L82.8317 48.5005C82.8317 48.5005 83.8018 50.3559 83.8431 50.6337C83.8843 50.9114 84.0735 51.6038 84.3488 51.5141C84.6241 51.4243 84.7623 52.8129 84.7623 52.8129C84.7623 52.8129 85.4972 54.3895 85.3602 54.9449C85.2232 55.5003 85.5433 56.0109 85.5433 56.0109C85.5433 56.0109 86.2782 57.2624 86.1873 57.7269C86.0963 58.1913 86.5935 59.5617 86.5996 59.5799C86.5996 59.5799 86.6178 59.6563 86.6433 59.7824C86.7257 60.1814 86.8858 61.0704 86.8361 61.4584C86.7609 61.9678 86.5195 65.5489 88.3811 64.7849C88.6015 64.6935 88.8043 64.5642 88.9802 64.4029C89.0672 64.4781 89.1742 64.5261 89.2882 64.5412C90.1662 64.6624 92.0374 62.7027 92.9676 61.6549L93.0974 61.5082C93.3035 61.724 93.4478 61.8635 93.4478 61.8635L94.418 61.3784C94.418 61.3784 100.406 58.9736 100.992 57.9306C101.578 56.8877 105.004 54.6272 105.004 54.6272C105.004 54.6272 105.541 57.2345 105.163 57.6177C104.799 57.9816 103.66 60.424 103.851 61.1989C103.858 61.2352 103.87 61.2703 103.887 61.3032C103.336 61.6852 103.887 66.5882 103.887 66.5882C103.887 66.5882 104.059 68.8476 103.756 70.3732C103.691 70.759 103.687 71.1529 103.746 71.5398C103.868 72.5549 104.263 73.6706 104.424 74.38C104.488 74.6589 104.516 74.876 104.479 74.9973C104.307 75.5539 104.721 77.4312 105.134 77.7089C105.546 77.9866 105.272 79.1642 105.272 79.1642C105.272 79.1642 104.961 80.9372 105.272 81.4587C105.332 81.56 105.384 81.6654 105.43 81.774L105.348 81.8771C104.777 82.6047 103.893 84.0005 104.227 85.2727C104.712 87.1027 105.882 88.1008 106.754 87.0336C107.626 85.9664 107.552 84.0769 107.552 84.0769C107.552 84.0769 107.552 83.7131 107.574 83.2814C107.574 83.1904 107.587 83.0971 107.595 83.0025C107.681 83.0086 107.766 83.0086 107.851 83.0025C108.579 82.9333 108.678 82.481 109.367 82.2033C110.056 81.9256 110.677 80.748 110.677 80.748L110.712 76.9886C110.712 76.9886 111.057 80.5055 111.263 81.3689C111.469 82.2324 111.02 85.89 111.02 85.89L110.676 89.1643L110.504 90.3455C110.593 90.565 110.859 90.7287 111.218 90.85C111.2 90.93 111.182 91.0161 111.161 91.1095C111.021 91.7644 110.842 92.6982 110.814 93.2427C110.768 94.1474 111.527 96.7669 111.686 96.7899C111.845 96.813 116.19 98.0415 115.688 96.4649C115.186 94.8884 114.378 94.7501 114.495 94.1474C114.57 93.7484 114.445 92.3598 114.35 91.4697C114.341 91.3691 114.33 91.2769 114.321 91.192C114.741 91.192 115.022 91.1811 115.022 91.1811L114.953 89.824C114.953 89.824 116.298 84.5742 116.166 83.5664C116.034 82.5586 116.611 80.3175 116.611 80.3175C116.611 80.3175 117.129 75.9723 117.096 75.258C117.063 74.5437 117.717 72.0079 117.717 72.0079C118.225 70.2483 118.63 68.4606 118.93 66.6537C119.377 63.8378 118.17 61.0206 118.17 61.0206C118.17 61.0206 118.16 60.9709 118.144 60.8836C118.022 60.2615 117.569 57.7135 118.17 56.7094C118.86 55.5622 119.067 53.1986 119.067 53.1986C119.067 53.1986 120.825 50.4857 120.653 49.7908C120.653 49.7908 126.305 47.9475 126.65 47.3569C126.994 46.7663 129.406 45.5172 129.406 45.5172L131.062 44.9921C131.062 44.9921 130.987 44.6173 130.864 44.114L130.978 44.0195C131.375 43.6896 131.843 43.3234 131.969 43.3234C132.183 43.3294 132.23 40.3134 131.702 39.2704ZM64.7681 35.5607H63.6658C63.6658 35.5607 63.4232 35.682 63.0703 35.8857C62.966 35.9439 62.8545 36.007 62.7368 36.081C62.8799 35.5959 63.0218 35.1338 63.0218 35.1338L63.895 34.2158C63.895 34.2158 63.7883 34.143 63.627 34.0193C63.69 33.9902 63.7579 33.9587 63.8295 33.9296C64.0273 33.8374 64.2401 33.782 64.4577 33.7659C64.9064 33.7659 65.9057 32.1311 65.9057 32.1311C66.1203 31.6654 66.3109 31.189 66.4769 30.7037C66.5414 30.7812 66.6124 30.853 66.6891 30.9184C66.727 31.0422 66.7969 31.1539 66.8916 31.2422C67.0747 31.4144 67.3149 31.5454 67.4082 31.7794C67.5526 32.136 67.287 32.5835 67.4834 32.9158C67.5707 33.0406 67.6878 33.1415 67.8242 33.2092C68.1456 33.4008 68.4742 33.5791 68.8065 33.7513L69.0672 33.8871V33.9199C69.0612 34.2764 69.0442 34.6584 69.009 35.0453C69.009 35.0853 69.0005 35.1253 68.9969 35.1666C68.9969 35.1666 66.7437 34.1734 66.2853 34.5905C65.8268 35.0077 64.9986 34.9143 64.9986 34.9143C64.9986 34.9143 65.1817 35.5607 64.7681 35.5607Z" fill="url(#paint0_linear)"/>
<path d="M77.221 38.6313L72.2137 41.5722C72.2137 41.5722 66.1913 40.0102 67.8479 38.6762C68.5852 38.0832 68.8945 36.8159 69.0085 35.591C69.0436 35.2078 69.0606 34.8282 69.0667 34.4753C69.0768 33.8528 69.0534 33.2302 68.9964 32.6102C68.9964 32.6102 75.9804 31.4168 75.1073 33.2092C74.895 33.6446 74.912 34.1879 75.0563 34.7627C75.1166 34.9935 75.1911 35.2203 75.2795 35.4419C75.9113 37.039 77.221 38.6313 77.221 38.6313Z" fill="#FFCCD0"/>
<path opacity="0.1" d="M75.107 33.2092C74.8948 33.6446 74.9117 34.1879 75.0561 34.7627C74.2661 35.4446 73.257 35.8192 72.2134 35.8178C71.065 35.8178 70.6248 34.8403 69.845 34.12C69.7844 34.063 69.4108 34.2182 69.3599 34.1588C69.3769 33.1098 68.9961 32.6138 68.9961 32.6138C68.9961 32.6138 75.9838 31.4168 75.107 33.2092Z" fill="black"/>
<path d="M76.5793 31.3137C76.5786 32.3649 76.1988 33.3805 75.5095 34.1741C74.8202 34.9677 73.8677 35.4859 72.827 35.6337C71.7863 35.7814 70.7273 35.5487 69.8443 34.9783C68.9614 34.4079 68.314 33.5381 68.0208 32.5286C67.7277 31.5192 67.8086 30.4378 68.2487 29.4833C68.6888 28.5287 69.4586 27.765 70.4166 27.3323C71.3745 26.8997 72.4564 26.8272 73.4636 27.1282C74.4707 27.4292 75.3354 28.0834 75.8989 28.9708C76.3438 29.6712 76.5797 30.484 76.5793 31.3137Z" fill="#FFCCD0"/>
<path opacity="0.1" d="M75.9002 28.9708C75.8228 29.0093 75.7415 29.0394 75.6576 29.0605C75.3132 29.1479 74.9531 29.1103 74.6001 29.0763C74.5444 29.0646 74.4864 29.0719 74.4352 29.0969C74.3734 29.1369 74.3576 29.2182 74.3346 29.291C74.2388 29.5735 73.9465 29.7384 73.6651 29.8355C73.0906 30.0295 72.4709 30.0452 71.8873 29.8803C71.8098 29.8514 71.7273 29.8386 71.6447 29.8427C71.4543 29.8658 71.3416 30.0707 71.3112 30.2599C71.2809 30.4491 71.2991 30.6504 71.2276 30.8263C71.1063 31.1343 70.7595 31.275 70.4587 31.4108C70.1579 31.5466 69.8269 31.7637 69.8123 32.0948C69.8026 32.2852 69.9033 32.4586 69.9336 32.6478C69.9565 32.8143 69.9294 32.9839 69.8557 33.135C69.7821 33.2862 69.6653 33.412 69.5201 33.4967C69.4518 33.8395 69.3606 34.1774 69.2472 34.5081C68.7901 34.0866 68.4282 33.5723 68.1859 32.9997C67.9436 32.4271 67.8265 31.8093 67.8422 31.1877C67.858 30.5661 68.0064 29.9551 68.2774 29.3955C68.5484 28.8358 68.9358 28.3406 69.4138 27.9428C69.8917 27.545 70.449 27.254 71.0485 27.089C71.648 26.9241 72.2759 26.8891 72.89 26.9864C73.5041 27.0838 74.0904 27.3111 74.6095 27.6534C75.1286 27.9956 75.5687 28.4448 75.9002 28.9708Z" fill="black"/>
<path d="M75.4466 26.0844C75.022 25.7671 74.5069 25.5941 73.9768 25.5909C73.5342 25.6054 73.1097 25.7776 72.6683 25.8043C71.686 25.8649 70.6746 25.2076 69.7638 25.5799C69.0944 25.854 68.6627 26.6326 67.9447 26.709C67.7434 26.7296 67.5409 26.6908 67.3384 26.7005C67.1359 26.7102 66.9188 26.7866 66.823 26.9649C66.7613 27.1254 66.7499 27.3009 66.7902 27.4681C66.8808 28.238 66.7796 29.0183 66.4955 29.7396C66.3585 30.0852 66.1766 30.4442 66.2409 30.8104C66.3054 31.0857 66.4641 31.3298 66.6896 31.5005C66.7279 31.6234 66.7977 31.7342 66.8921 31.8218C67.0752 31.9916 67.3153 32.1214 67.4087 32.353C67.553 32.7083 67.2874 33.151 67.4839 33.4808C67.5713 33.6046 67.6885 33.7042 67.8247 33.7707C68.2346 34.0132 68.6534 34.2396 69.0811 34.4498C69.2046 34.0931 69.3038 33.7284 69.3782 33.3583C69.5234 33.2737 69.6402 33.1478 69.7139 32.9967C69.7875 32.8456 69.8146 32.676 69.7917 32.5094C69.7578 32.3227 69.6571 32.1456 69.6704 31.9564C69.6862 31.6254 70.0149 31.4071 70.3168 31.2713C70.6188 31.1354 70.9632 30.9948 71.0869 30.6879C71.1585 30.5109 71.139 30.3108 71.1694 30.1216C71.1997 29.9324 71.3125 29.7262 71.5029 29.7032C71.5855 29.6995 71.6681 29.7127 71.7454 29.742C72.3292 29.9058 72.9488 29.8898 73.5233 29.6959C73.8058 29.6001 74.0981 29.434 74.1927 29.1514C74.2157 29.0799 74.2315 28.9974 74.2946 28.9574C74.3452 28.9322 74.4029 28.925 74.4583 28.9368C74.8112 28.9707 75.1726 29.0071 75.5158 28.9222C75.8148 28.8357 76.0818 28.663 76.2834 28.4258C76.4851 28.1886 76.6124 27.8973 76.6497 27.5882C76.7188 26.9576 75.916 26.4119 75.4466 26.0844Z" fill="#E3787D"/>
<path opacity="0.1" d="M75.4473 26.0845C75.2778 25.9659 75.097 25.8644 74.9076 25.7813C74.9973 25.8322 75.0871 25.8868 75.172 25.9462C75.6413 26.2737 76.4441 26.8218 76.3701 27.4537C76.3333 27.7627 76.2062 28.0541 76.0048 28.2913C75.8033 28.5286 75.5364 28.7012 75.2375 28.7877C74.893 28.8738 74.5329 28.8362 74.18 28.8022C74.1242 28.7911 74.0663 28.7983 74.015 28.8228C73.952 28.8628 73.9374 28.9441 73.9132 29.0169C73.8198 29.3006 73.5275 29.4656 73.2449 29.5614C72.6703 29.7565 72.0499 29.7725 71.4659 29.6075C71.3884 29.5784 71.306 29.5652 71.2233 29.5686C71.0329 29.5917 70.9201 29.7979 70.8898 29.987C70.8595 30.1762 70.8789 30.3763 70.8074 30.5534C70.6861 30.8602 70.338 31.0021 70.0361 31.1379C69.7341 31.2737 69.4067 31.4908 69.3909 31.8219C69.3812 32.0111 69.4806 32.1857 69.5122 32.3749C69.535 32.5414 69.508 32.711 69.4343 32.8621C69.3607 33.0133 69.2439 33.1391 69.0986 33.2238C69.0238 33.5909 68.925 33.9526 68.8027 34.3068C68.8949 34.3541 68.9846 34.4038 69.0768 34.4487C69.2003 34.0919 69.2996 33.7273 69.3739 33.3572C69.5192 33.2725 69.636 33.1467 69.7096 32.9956C69.7832 32.8444 69.8103 32.6748 69.7875 32.5083C69.7535 32.3215 69.6529 32.1445 69.6662 31.9553C69.682 31.6242 70.0106 31.4059 70.3126 31.2701C70.6145 31.1343 70.959 30.9936 71.0827 30.6868C71.1542 30.5097 71.1348 30.3096 71.1651 30.1204C71.1954 29.9313 71.3082 29.7251 71.4986 29.702C71.5813 29.6983 71.6638 29.7115 71.7412 29.7409C72.3249 29.9047 72.9445 29.8886 73.519 29.6948C73.8016 29.599 74.0938 29.4328 74.1884 29.1503C74.2115 29.0787 74.2273 28.9962 74.2903 28.9562C74.341 28.9311 74.3987 28.9238 74.454 28.9356C74.8069 28.9696 75.1683 29.0059 75.5115 28.9211C75.8106 28.8345 76.0776 28.6619 76.2792 28.4247C76.4808 28.1874 76.6082 27.8961 76.6454 27.5871C76.7194 26.9577 75.9166 26.4119 75.4473 26.0845Z" fill="black"/>
<path d="M65.9055 32.7023C65.9055 32.7023 64.9062 34.3225 64.4575 34.3225C64.2401 34.3387 64.0273 34.3938 63.8293 34.485C63.6309 34.5673 63.438 34.6625 63.252 34.77L61.6318 33.0819C61.6318 33.0819 61.838 32.8636 62.1169 32.5568C62.6505 31.9686 63.4509 31.0554 63.5613 30.7377C63.7335 30.2526 66.5931 29.0823 66.7326 29.8754C66.872 30.6686 65.9055 32.7023 65.9055 32.7023Z" fill="#FFCCD0"/>
<path d="M93.513 61.3335C93.513 61.3335 93.2996 61.5893 92.9637 61.9641C92.0335 63.0022 90.1623 64.9437 89.2843 64.8249C88.0909 64.6636 88.7325 61.4935 89.4456 61.3553C89.8785 61.2716 90.9008 60.7574 91.6406 60.3645C92.1257 60.1098 92.4786 59.9073 92.4786 59.9073L93.513 61.3335Z" fill="#CE828D"/>
<path d="M88.3772 65.0662C86.5157 65.8254 86.757 62.277 86.8322 61.7688C86.888 61.3844 86.7218 60.5028 86.6394 60.1074C86.6139 59.9861 86.5957 59.9073 86.5957 59.9073L87.0675 58.714C87.0675 58.714 89.3716 58.7589 89.3716 59.0693C89.3716 59.1967 89.5062 59.5544 89.6639 59.9328C89.8919 60.4785 90.1696 61.0691 90.1696 61.0691C90.1696 61.0691 90.2387 64.3095 88.3772 65.0662Z" fill="#FFCCD0"/>
<path d="M77.2109 93.467C77.2109 93.467 74.3501 95.052 74.6254 93.8805C74.6798 93.5646 74.6624 93.2405 74.5745 92.9322C74.4212 92.348 74.2036 91.7827 73.9256 91.2465C73.6431 90.6765 73.3848 90.2618 73.3848 90.2618C73.3848 90.2618 76.2795 88.4342 76.3147 89.1242C76.3747 89.6186 76.4601 90.1096 76.5706 90.5953C76.7477 91.4515 76.9732 92.4447 77.1042 93.0098L77.2109 93.467Z" fill="#FF748E"/>
<path opacity="0.1" d="M77.2107 93.467C77.2107 93.467 74.3499 95.0521 74.6252 93.8806C74.6796 93.5646 74.6622 93.2405 74.5742 92.9322C74.9012 92.8017 75.2474 92.7259 75.599 92.7079C75.9761 92.4314 76.9112 92.9055 77.104 93.0098L77.2107 93.467Z" fill="black"/>
<path d="M75.5987 92.8462C75.5987 92.8462 74.0391 92.9153 74.2113 93.6393C74.3835 94.3633 73.6607 96.3958 73.6607 96.3958C73.6607 96.3958 72.9016 97.5334 73.3842 98.0512C73.8669 98.569 78.0714 98.9474 78.2436 98.4987C78.4158 98.05 77.7585 95.2595 77.7585 95.2595L77.14 93.1724C77.14 93.1724 76.0207 92.5357 75.5987 92.8462Z" fill="#4D507F"/>
<path d="M87.0677 77.4518L84.9187 78.0581C84.8407 77.7518 84.7314 77.4543 84.5925 77.1704C84.5191 77.0201 84.4348 76.8754 84.3403 76.7375C83.9995 76.2451 83.4914 75.8522 82.771 76.0729C81.1945 76.558 82.771 72.9537 82.771 72.9537C82.771 72.9537 83.1979 72.7718 83.6284 72.5681L83.729 72.5184C84.0771 72.3474 84.4082 72.1679 84.4894 72.0636C84.6447 71.8671 86.0781 73.417 86.6226 74.0185C86.7512 74.1604 86.8288 74.2501 86.8288 74.2501L86.9294 75.6023L87.0677 77.4518Z" fill="#FF748E"/>
<path opacity="0.1" d="M87.0672 77.4518L84.9182 78.0581C84.8402 77.7518 84.7309 77.4543 84.592 77.1704C84.6793 76.883 84.9134 76.3991 85.4822 76.4719C86.137 76.5568 86.0449 74.2671 85.1256 73.7153C84.2064 73.1635 83.6546 73.1296 83.6546 73.1296C83.5958 72.9481 83.5866 72.7543 83.6279 72.5681L83.7286 72.5184C84.0766 72.3474 84.4077 72.1679 84.4889 72.0636C84.6442 71.8671 86.0776 73.417 86.6221 74.0185C86.73 74.6128 86.7773 75.1718 86.9289 75.6023L87.0672 77.4518Z" fill="black"/>
<path d="M83.793 73.1321C83.7427 72.977 83.7281 72.8126 83.7503 72.6511C83.7724 72.4897 83.8307 72.3353 83.9208 72.1995C84.0109 72.0637 84.1305 71.9499 84.2707 71.8668C84.4109 71.7836 84.568 71.7332 84.7304 71.7192C85.2822 71.6719 85.8825 71.8053 86.2403 72.4469C87.0334 73.8609 86.6878 75.5163 87.4117 76.1711C88.1357 76.826 88.4462 78.9604 87.9296 79.2721C87.413 79.5837 85.7006 81.0984 85.5393 80.2362C85.378 79.3739 84.6831 77.3766 84.6831 77.3766C84.6831 77.3766 84.8214 76.3761 85.6193 76.4792C86.2754 76.5641 86.1833 74.2744 85.264 73.7227C84.3448 73.1709 83.793 73.1369 83.793 73.1369V73.1321Z" fill="#4D507F"/>
<path opacity="0.1" d="M76.5706 90.5953C75.8308 90.8087 74.7612 91.0986 73.9256 91.2465C73.6431 90.6765 73.3848 90.2618 73.3848 90.2618C73.3848 90.2618 76.2795 88.4342 76.3147 89.1242C76.3747 89.6187 76.4601 90.1097 76.5706 90.5953Z" fill="black"/>
<path opacity="0.1" d="M84.3403 76.7399C83.9995 76.2476 83.4914 75.8547 82.771 76.0754C81.1945 76.5605 82.771 72.9562 82.771 72.9562C82.771 72.9562 83.267 72.7452 83.729 72.5209C84.014 72.5015 84.5076 72.5306 84.6665 72.9138C84.8908 73.4535 84.9393 75.5721 84.3403 76.7399Z" fill="black"/>
<path d="M84.162 76.82C83.5181 77.9685 80.439 77.601 80.439 77.601C78.0038 75.9929 75.89 69.2332 75.89 69.2332L75.5675 77.7356C75.5675 77.7356 76.3485 78.5154 76.1653 79.0223C75.9822 79.5292 76.3036 80.4461 76.3036 80.4461C76.3036 80.4461 76.9924 88.028 76.8081 88.4888C76.6237 88.9497 77.452 90.0508 77.452 90.0508C77.452 90.0508 73.0862 91.4297 72.6715 90.9701C72.2567 90.5105 72.6715 89.9999 72.6715 89.9999V89.0794C70.7893 85.2193 70.742 81.4053 70.6098 81.2671C70.4777 81.1288 70.3806 80.2969 70.3321 80.0737C70.2836 79.8506 70.3321 79.0611 70.3321 79.0611C70.3321 79.0611 70.3855 78.4184 70.1102 78.0509C69.8349 77.6835 70.3321 76.5799 70.3321 76.5799C70.2533 75.7189 70.0221 74.8788 69.6494 74.0986C69.0527 72.9041 68.2923 68.3079 68.2923 68.3079C68.2923 68.3079 68.0874 67.6179 68.2717 67.2516C68.456 66.8854 67.3525 64.7704 67.3525 64.7704C67.3525 64.7704 67.629 63.2533 67.6738 62.8858C67.7187 62.5183 66.5254 61.7592 66.5254 61.7592L67.0832 60.2784L67.6738 58.7019C67.6738 58.7019 81.3679 58.9772 81.9197 59.1603C82.1865 59.2488 82.4303 59.7533 82.6122 60.2518C82.7373 60.6021 82.8441 60.9588 82.9323 61.3202C82.9323 61.3202 82.7941 66.2366 83.0694 67.1097C83.3447 67.9829 83.2525 68.4437 83.2525 68.4437C83.2525 68.4437 82.9323 70.19 83.1603 70.7867C83.3883 71.3834 83.3907 72.5342 83.3907 72.5342C83.3907 72.5342 84.31 72.3499 84.5392 72.8981C84.7684 73.4462 84.8036 75.6716 84.162 76.82Z" fill="#AACAF5"/>
<path d="M111.687 96.7863C111.529 96.7645 110.769 94.1668 110.815 93.2694C110.843 92.7297 111.023 91.8044 111.162 91.1544C111.254 90.7287 111.328 90.4268 111.328 90.4268L114.262 90.7469C114.262 90.7469 114.301 91.0671 114.348 91.5158C114.443 92.3974 114.568 93.7739 114.492 94.1692C114.371 94.7683 115.181 94.9054 115.686 96.4673C116.19 98.0293 111.849 96.8105 111.687 96.7863Z" fill="#4D507F"/>
<path d="M107.827 82.1038C107.67 82.3585 107.602 82.9272 107.573 83.4063C107.545 83.8368 107.551 84.1957 107.551 84.1957C107.551 84.1957 107.62 86.0803 106.747 87.1354C105.874 88.1905 104.703 87.2045 104.22 85.3903C103.885 84.129 104.771 82.749 105.342 82.0238C105.593 81.706 105.782 81.5144 105.782 81.5144C105.782 81.5144 108.121 81.6211 107.827 82.1038Z" fill="#4D507F"/>
<path d="M109.147 38.4239C109.147 38.4239 105.897 38.1716 105.782 39.8488C105.667 41.526 105.953 42.8176 108.441 43.0225C110.93 43.2275 110.032 38.4566 110.032 38.4566L109.147 38.4239Z" fill="#575A89"/>
<path d="M115.162 39.2656C115.162 39.2656 118.35 38.7683 118.327 40.0102C118.304 41.252 115.893 42.8661 115.893 42.8661L115.162 39.2656Z" fill="#575A89"/>
<path opacity="0.15" d="M109.267 38.4239C109.267 38.4239 106.018 38.1716 105.903 39.8488C105.788 41.526 106.073 42.8176 108.561 43.0225C111.05 43.2275 110.154 38.4566 110.154 38.4566L109.267 38.4239Z" fill="black"/>
<path opacity="0.15" d="M115.434 39.2656C115.434 39.2656 118.622 38.7683 118.599 40.0102C118.576 41.252 116.164 42.8661 116.164 42.8661L115.434 39.2656Z" fill="black"/>
<path d="M110.062 37.9485C109.17 38.307 108.33 38.7856 107.567 39.371C107.459 39.4368 107.378 39.5386 107.338 39.6585C107.332 39.7551 107.334 39.852 107.344 39.9483C107.325 40.4334 106.591 40.4746 106.261 40.8348C106.027 41.0895 106.031 41.4897 106.14 41.8171C106.249 42.1445 106.456 42.4332 106.587 42.7533C106.73 43.1122 106.782 43.5008 106.739 43.8846C106.695 44.2684 106.557 44.6355 106.338 44.9532C105.962 45.4856 105.381 45.8324 104.926 46.2981C104.32 46.9251 103.947 47.945 104.43 48.6775C104.725 49.1262 105.264 49.3602 105.58 49.7932C105.919 50.2625 105.944 50.8919 105.862 51.4655C105.781 52.0392 105.608 52.6031 105.603 53.1828C105.592 54.3154 106.249 55.3899 107.165 56.0581C108.08 56.7263 109.226 57.0283 110.355 57.0889C110.757 57.112 111.174 57.1047 111.539 56.9374C111.904 56.77 112.19 56.4523 112.44 56.1297C113.193 55.1604 113.772 54.0671 114.149 52.899C114.313 52.3933 114.448 51.856 114.8 51.4583C115.057 51.199 115.357 50.985 115.685 50.8252L117.301 49.9205C117.831 49.6234 118.412 49.262 118.551 48.6714C118.709 48.002 118.243 47.2234 118.621 46.6486C118.743 46.4618 118.941 46.3345 119.081 46.1635C119.473 45.6687 119.323 44.9387 119.046 44.3723C118.82 43.9087 118.525 43.4816 118.173 43.105C117.868 42.7824 117.513 42.4853 117.346 42.0742C117.217 41.7589 117.212 41.4036 117.097 41.0834C116.854 40.4164 116.197 40.0101 115.756 39.4559C115.392 38.9963 115.17 38.4251 114.744 38.0237C114.054 37.3713 113.289 37.5798 112.44 37.6053C112.02 37.6187 111.63 37.4634 111.216 37.4562C110.731 37.4428 110.519 37.7654 110.062 37.9485Z" fill="#663D5C"/>
<path d="M115.564 39.1103L108.426 38.3827C108.426 38.3827 108.451 38.2978 108.495 38.1402C108.666 37.5125 108.804 36.8761 108.908 36.2337C109.092 35.0695 111.76 34.7712 111.76 34.7712C112.432 34.7092 113.108 34.838 113.711 35.1428C114.313 35.4476 114.818 35.9161 115.166 36.4945L115.468 38.4785L115.564 39.1103Z" fill="#FF748E"/>
<path d="M116.916 46.8342L115.813 49.6599L111.16 50.453C111.16 50.453 105.715 49.2815 108.23 46.8342C108.523 46.5533 108.793 46.2504 109.04 45.9283C109.286 45.6113 109.483 45.2593 109.626 44.8842C110.028 43.7612 109.403 43.2154 109.403 43.2154C109.403 43.2154 113.986 41.1126 114.055 43.4907C114.07 44.0259 114.23 44.5469 114.518 44.9982C114.678 45.2476 114.866 45.4776 115.079 45.6833C115.61 46.1833 116.234 46.5743 116.916 46.8342Z" fill="#CE828D"/>
<path d="M131.954 43.8012C131.832 43.8012 131.359 44.165 130.963 44.49C130.64 44.7556 130.367 44.9957 130.367 44.9957L129.609 42.4915C129.787 42.4003 129.958 42.2961 130.121 42.1798C130.302 42.0464 130.459 41.8887 130.459 41.7529C130.459 41.434 131.173 38.7454 131.701 39.7798C132.23 40.8143 132.183 43.8012 131.954 43.8012Z" fill="#CE828D"/>
<path opacity="0.1" d="M77.221 38.6313L72.2137 41.5722C72.2137 41.5722 66.1913 40.0102 67.8479 38.6762C68.5852 38.0831 68.8945 36.8159 69.0085 35.591C70.0126 37.3046 71.6595 37.4101 72.4126 37.3507C72.6394 37.3349 72.8674 37.3361 73.0941 37.33C74.1371 37.3009 75.0951 35.7596 75.277 35.4418C75.9113 37.039 77.221 38.6313 77.221 38.6313Z" fill="black"/>
<path opacity="0.1" d="M82.6017 60.2651C82.6017 60.2857 82.6017 60.3051 82.6017 60.3209C82.5556 60.7344 80.6249 61.4245 80.6249 61.4245C80.6249 61.4245 71.7563 62.5268 70.9753 61.7883C70.2477 61.1091 67.4899 60.3912 67.0752 60.2845L67.6658 58.7079C67.6658 58.7079 81.3599 58.9832 81.9116 59.1664C82.176 59.261 82.4198 59.7654 82.6017 60.2651Z" fill="black"/>
<path d="M82.4607 55.2675C82.4607 55.2675 83.6552 57.2879 82.8245 57.7487C81.9938 58.2096 82.6413 59.6321 82.5953 60.0456C82.5492 60.4592 80.6185 61.148 80.6185 61.148C80.6185 61.148 71.7499 62.2516 70.9689 61.5118C70.1879 60.772 67.0154 59.9947 67.0154 59.9947C66.5931 58.9134 66.0543 57.8814 65.4085 56.9168C64.3971 55.4458 65.7299 52.7341 65.7299 52.7341C65.7299 52.7341 65.4085 50.989 64.7197 50.4821C64.0309 49.9752 63.1141 45.2031 62.8873 43.7781C62.6605 42.3532 59.716 44.2838 59.716 44.2838C59.716 44.2838 55.9942 44.5143 55.2144 44.2838C55.1988 44.2795 55.184 44.2725 55.1707 44.2632C54.591 43.8715 58.2462 39.6415 58.2462 39.6415C58.2462 39.6415 61.0039 39.137 60.9566 38.3075C60.9251 37.7279 62.2652 36.879 63.0728 36.4218C63.4209 36.2241 63.6695 36.1004 63.6695 36.1004H64.7719C65.1854 36.1004 65.0023 35.4576 65.0023 35.4576C65.0023 35.4576 65.8294 35.5498 66.289 35.1363C66.7486 34.7227 69.0006 35.7075 69.0006 35.7075C70.0035 37.4392 71.6613 37.5411 72.4169 37.4853C72.6437 37.4708 72.8716 37.472 73.0984 37.4647C74.2614 37.4332 75.3177 35.5243 75.3177 35.5243C75.3177 35.5243 78.6042 35.7366 80.8962 37.2076C83.1883 38.6786 85.5373 42.9511 85.5373 42.9511C85.5373 42.9511 82.0908 47.2259 81.5353 47.135C80.9799 47.044 82.1769 49.2027 82.1769 49.2027L82.4607 55.2675Z" fill="#DCE6F2"/>
<path opacity="0.1" d="M63.0692 36.4242C62.9406 36.8571 62.7939 37.3592 62.7454 37.5739C62.6544 37.9874 61.6903 38.4021 61.6903 38.4021C61.6903 38.4021 60.7699 39.6416 60.862 39.872C60.9542 40.1024 60.081 40.9743 59.7124 41.8014C59.3437 42.6285 55.4897 44.2839 55.4897 44.2839C55.3829 44.2898 55.2758 44.2829 55.1707 44.2632C54.591 43.8715 58.2462 39.6416 58.2462 39.6416C58.2462 39.6416 61.0039 39.1371 60.9566 38.3076C60.9214 37.7303 62.2615 36.8814 63.0692 36.4242Z" fill="black"/>
<path opacity="0.1" d="M63.8293 34.485C63.6309 34.5673 63.438 34.6625 63.252 34.77L61.6318 33.0819C61.6318 33.0819 61.838 32.8636 62.1169 32.5568C62.1363 33.174 63.3394 34.1248 63.8293 34.485Z" fill="black"/>
<path d="M62.0104 32.5192L60.6764 33.3463C60.6764 33.3463 59.2975 33.6192 58.7918 34.7688C58.2861 35.9185 56.8236 36.195 56.8236 36.195L55.9055 37.7121C55.9055 37.7121 53.6074 38.6823 53.4692 41.5722C53.3309 44.4621 55.2155 44.2839 55.2155 44.2839C55.2155 44.2839 59.0756 42.6297 59.443 41.8014C59.8105 40.9731 60.6849 40.1036 60.5927 39.872C60.5005 39.6403 61.4198 38.4022 61.4198 38.4022C61.4198 38.4022 62.39 37.9874 62.4761 37.5739C62.5622 37.1603 63.0278 35.6796 63.0278 35.6796L63.901 34.7688C63.901 34.7688 61.689 33.2541 62.0104 32.5192Z" fill="#DCE6F2"/>
<path opacity="0.1" d="M89.6692 59.9328C88.9755 59.8746 86.9721 59.7412 86.6374 60.1074C86.6119 59.9861 86.5938 59.9073 86.5938 59.9073L87.0655 58.714C87.0655 58.714 89.3697 58.7589 89.3697 59.0693C89.377 59.1967 89.5116 59.5544 89.6692 59.9328Z" fill="black"/>
<path d="M83.839 41.5721L85.5368 42.951L86.3178 45.4783C86.3178 45.4783 87.3293 47.5921 87.9271 48.6957C88.525 49.7993 88.7542 51.5444 88.7542 51.5444C88.7542 51.5444 88.8912 52.3714 89.1678 52.6467C89.4443 52.922 89.1678 53.7964 89.1678 53.7964C89.1678 53.7964 89.4891 54.8066 89.7644 55.1753C90.0397 55.5439 89.7644 57.243 89.7644 57.243L89.8857 57.9318C89.8857 57.9318 90.3611 58.6679 90.0858 58.7128C89.8105 58.7576 89.9014 59.683 89.9014 59.683C89.9014 59.683 86.7302 59.3616 86.5931 59.9134C86.5931 59.9134 86.0874 58.5345 86.1796 58.0749C86.2718 57.6153 85.5356 56.3771 85.5356 56.3771C85.5356 56.3771 85.2143 55.8714 85.3525 55.3196C85.4908 54.7678 84.7546 53.2058 84.7546 53.2058C84.7546 53.2058 84.6164 51.8269 84.3411 51.9191C84.0658 52.0113 83.8815 51.3224 83.8354 51.0459C83.7893 50.7694 82.824 48.9322 82.824 48.9322L80.8945 46.588L83.839 41.5721Z" fill="#DCE6F2"/>
<path opacity="0.1" d="M114.518 44.9982C113.811 45.5394 112.941 45.8232 112.051 45.8025C111.162 45.7818 110.306 45.4578 109.625 44.8842C110.028 43.7612 109.402 43.2154 109.402 43.2154C109.402 43.2154 113.985 41.1126 114.054 43.4907C114.07 44.0259 114.23 44.5469 114.518 44.9982Z" fill="black"/>
<path d="M112.142 45.6651C114.302 45.6651 116.054 43.9135 116.054 41.7528C116.054 39.5921 114.302 37.8406 112.142 37.8406C109.981 37.8406 108.229 39.5921 108.229 41.7528C108.229 43.9135 109.981 45.6651 112.142 45.6651Z" fill="#CE828D"/>
<path opacity="0.1" d="M116.916 46.8342L115.813 49.6598L111.16 50.4529C111.16 50.4529 105.715 49.2814 108.23 46.8342C108.523 46.5532 108.793 46.2504 109.04 45.9283C110.231 48.9079 112.245 48.6266 112.245 48.6266C115.035 48.099 115.123 46.2351 115.084 45.6833C115.614 46.1827 116.236 46.5737 116.916 46.8342Z" fill="black"/>
<path opacity="0.1" d="M130.963 44.4901C130.64 44.7556 130.367 44.9958 130.367 44.9958L129.609 42.4915C129.787 42.4003 129.958 42.2962 130.121 42.1798C130.449 42.6018 130.764 43.6848 130.963 44.4901Z" fill="black"/>
<path opacity="0.1" d="M93.5131 61.3335C93.5131 61.3335 93.2996 61.5893 92.9637 61.9641C92.5708 61.5602 91.945 60.8799 91.6406 60.3645C92.1257 60.1098 92.4786 59.9073 92.4786 59.9073L93.5131 61.3335Z" fill="black"/>
<path d="M131.042 45.4553L129.386 45.9756C129.386 45.9756 126.974 47.2138 126.63 47.7947C126.285 48.3756 120.633 50.2068 120.633 50.2068C120.805 50.8956 119.047 53.5842 119.047 53.5842C119.047 53.5842 118.84 55.9284 118.15 57.066C117.544 58.0616 118 60.5829 118.124 61.2026C118.139 61.2899 118.15 61.3396 118.15 61.3396C118.15 61.3396 104.226 62.2358 103.881 61.6149C103.864 61.5826 103.852 61.5478 103.845 61.5118C103.655 60.7441 104.796 58.3235 105.157 57.9622C105.536 57.5826 104.998 54.9983 104.998 54.9983C104.998 54.9983 101.572 57.2382 100.987 58.2726C100.401 59.3071 94.404 61.6852 94.404 61.6852L93.4338 62.1703C93.4338 62.1703 91.3662 60.1717 91.6075 59.6539C91.8488 59.1361 93.6158 58.4885 93.6158 58.4885C93.6158 58.4885 97.3376 55.6628 97.6177 55.4894C97.8329 55.3265 98.019 55.1285 98.1683 54.9037L98.5139 54.6611C98.5139 54.6611 98.7565 54.4186 99.4101 54.1445C100.064 53.8704 101.616 51.9046 101.616 51.9046C101.616 51.9046 103.235 50.1813 103.442 49.3579C103.606 48.7855 103.851 48.2398 104.17 47.7377C104.928 47.6148 105.639 47.2935 106.232 46.8063C107.259 45.9853 108.981 45.9829 109.004 45.9829C110.19 49.0523 112.241 48.7721 112.241 48.7721C115.527 48.1524 115.063 45.6736 115.063 45.6736C115.063 45.6736 117.398 44.3263 117.915 44.3615C118.432 44.3966 120.88 44.4985 121.466 44.809C122.052 45.1194 123.672 44.5337 123.672 44.5337C123.672 44.5337 124.533 43.8436 125.532 43.6714C126.531 43.4992 128.221 42.8443 128.221 42.8443C128.221 42.8443 129.151 41.8451 129.772 42.0173C130.393 42.1895 131.042 45.4553 131.042 45.4553Z" fill="#FF748E"/>
<path opacity="0.1" d="M118.156 61.3445C118.156 61.3445 104.231 62.2407 103.887 61.6197C103.87 61.5874 103.857 61.5527 103.851 61.5167C103.862 61.5041 103.874 61.4927 103.887 61.4827L106.128 61.6998C106.128 61.6998 107.143 60.0347 107.565 59.0694C107.565 59.0694 109.057 56.4499 109.057 55.5889C109.057 55.5889 115.709 55.4506 116.709 54.968C116.709 54.968 116.895 60.9103 117.437 61.2511L118.127 61.2074C118.145 61.2947 118.156 61.3445 118.156 61.3445Z" fill="black"/>
<path opacity="0.1" d="M107.827 82.1038C107.67 82.3585 107.602 82.9273 107.573 83.4063C106.806 83.3663 105.645 82.9891 105.645 82.9891C105.596 82.6517 105.494 82.3242 105.342 82.0189C105.593 81.7012 105.782 81.5096 105.782 81.5096C105.782 81.5096 108.121 81.6211 107.827 82.1038Z" fill="black"/>
<path opacity="0.1" d="M114.348 91.5134C113.499 91.5134 112.027 91.4649 111.162 91.1496C111.254 90.7239 111.328 90.4219 111.328 90.4219L114.262 90.7469C114.262 90.7469 114.307 91.0647 114.348 91.5134Z" fill="black"/>
<path d="M118.915 66.9278C118.615 68.7194 118.21 70.4919 117.702 72.2359C117.702 72.2359 117.048 74.7499 117.081 75.4569C117.115 76.1639 116.596 80.4727 116.596 80.4727C116.596 80.4727 116.011 82.6787 116.149 83.678C116.287 84.6773 114.936 89.8823 114.936 89.8823L115.005 91.226C115.005 91.226 110.904 91.3994 110.49 90.3989L110.663 89.2274L111.007 85.9882C111.007 85.9882 111.456 82.3682 111.25 81.5011C111.043 80.634 110.712 77.1644 110.712 77.1644L110.677 80.8863C110.677 80.8863 110.057 82.059 109.367 82.3343C108.677 82.6096 108.574 83.0619 107.851 83.1274C107.129 83.1929 105.646 82.7139 105.646 82.7139C105.589 82.3254 105.461 81.9511 105.266 81.6103C104.955 81.0936 105.266 79.3352 105.266 79.3352C105.266 79.3352 105.541 78.1637 105.128 77.8884C104.714 77.6131 104.301 75.7516 104.473 75.1998C104.51 75.0785 104.483 74.8651 104.418 74.5934C104.257 73.8901 103.866 72.7853 103.74 71.7787C103.683 71.3928 103.688 71 103.756 70.6157C104.065 69.0986 103.893 66.8563 103.893 66.8563C103.893 66.8563 103.343 61.9969 103.893 61.6173L106.134 61.8356C106.134 61.8356 107.149 60.1705 107.571 59.2052C107.571 59.2052 109.063 56.5857 109.063 55.7235C109.063 55.7235 115.715 55.5864 116.715 55.1038C116.715 55.1038 116.901 61.0461 117.443 61.3857L118.16 61.342C118.16 61.342 119.363 64.1361 118.915 66.9278Z" fill="#575A89"/>
<path d="M115.653 79.8324C115.645 79.9607 115.606 80.0851 115.542 80.1963C115.337 80.6462 114.892 81.3326 114.64 81.4781C114.226 81.7206 112.366 80.8232 112.335 80.4958C112.331 80.2721 112.36 80.049 112.42 79.8336C112.464 79.6517 112.508 79.5135 112.508 79.5135C112.508 79.5135 115.093 80.1004 115.539 79.8239H115.547C115.615 79.773 115.647 79.7827 115.653 79.8324Z" fill="#CE828D"/>
<path opacity="0.1" d="M110.719 52.6553C110.708 53.1137 110.719 54.17 110.719 54.9158C110.719 55.3815 110.728 55.7259 110.728 55.7259H108.919C108.919 55.7259 108.902 55.4106 108.884 54.9158C108.864 54.3446 108.842 53.5369 108.845 52.7001C108.845 52.4879 108.845 52.2745 108.853 52.061C108.865 51.4426 108.895 50.8386 108.953 50.3329C109.177 48.3671 107.287 46.2097 107.287 46.2097C107.722 45.693 108.864 45.9671 108.864 45.9671C108.864 45.9671 109.504 47.8068 110.002 49.1687C110.327 50.0753 110.559 51.0122 110.696 51.9652C110.721 52.1232 110.732 52.2831 110.728 52.443C110.725 52.4879 110.723 52.5583 110.719 52.6553Z" fill="black"/>
<path d="M110.857 52.6553C110.846 53.1137 110.857 54.17 110.857 54.9158C110.857 55.3815 110.866 55.7259 110.866 55.7259H109.056C109.056 55.7259 109.04 55.4106 109.022 54.9158C109.002 54.3446 108.98 53.5369 108.983 52.7001C108.983 52.4879 108.983 52.2745 108.991 52.061C109.003 51.4426 109.033 50.8386 109.091 50.3329C109.314 48.3671 107.424 46.2097 107.424 46.2097C107.86 45.693 109 45.9671 109 45.9671C109 45.9671 109.639 47.8068 110.139 49.1687C110.463 50.0755 110.695 51.0123 110.833 51.9652C110.858 52.1232 110.869 52.2831 110.864 52.443C110.863 52.4879 110.859 52.5583 110.857 52.6553Z" fill="#575A89"/>
<path opacity="0.1" d="M118.345 51.4364C118.312 51.6026 118.282 51.8754 118.25 52.1944C118.185 52.8383 118.115 53.6715 118.007 54.2099C117.947 54.5034 117.873 54.7071 117.782 54.7447L117.338 54.9157L116.841 55.1061L116.188 55.2092L116.31 54.9157C116.387 54.7326 116.493 54.4792 116.603 54.2099C116.855 53.5963 117.129 52.8941 117.148 52.7098C117.156 52.6285 117.184 52.4418 117.217 52.1944C117.246 51.9785 117.277 51.7166 117.302 51.4364C117.371 50.6736 117.388 49.7774 117.148 49.3154C116.717 48.4883 115.692 45.3837 115.692 45.3837C115.774 45.16 115.936 44.9749 116.147 44.8651C116.358 44.7553 116.603 44.7287 116.832 44.7907C116.832 44.7907 117.767 47.8674 117.783 48.2821C117.799 48.6969 118.483 50.7464 118.345 51.4364Z" fill="black"/>
<path d="M118.206 51.4364C118.174 51.6026 118.143 51.8754 118.112 52.1944C118.047 52.8383 117.978 53.6715 117.869 54.2099C117.809 54.5034 117.735 54.7072 117.644 54.7447L117.209 54.9157C117.032 54.9899 116.867 55.0887 116.717 55.2092L115.998 55.3208C115.998 55.3208 116.109 55.0952 116.185 54.9157C116.26 54.7363 116.368 54.4792 116.478 54.2099C116.73 53.5963 117.006 52.8941 117.023 52.7098C117.031 52.6285 117.059 52.4418 117.092 52.1944C117.121 51.9785 117.152 51.7166 117.178 51.4364C117.247 50.6736 117.263 49.7774 117.023 49.3154C116.593 48.4883 115.567 45.3837 115.567 45.3837C115.649 45.16 115.811 44.9749 116.022 44.8651C116.233 44.7553 116.478 44.7287 116.707 44.7907C116.707 44.7907 117.642 47.8674 117.659 48.2821C117.676 48.6969 118.345 50.7464 118.206 51.4364Z" fill="#575A89"/>
<path d="M110.867 52.4515C110.867 52.4879 110.859 52.5582 110.857 52.6552L108.983 52.7001C108.983 52.4879 108.983 52.2744 108.991 52.061L110.835 51.9737C110.86 52.1317 110.871 52.2916 110.867 52.4515Z" fill="white"/>
<path d="M110.867 55.7259H109.056C109.056 55.7259 109.041 55.4106 109.022 54.9158H110.859C110.863 55.3815 110.867 55.7259 110.867 55.7259Z" fill="white"/>
<path d="M118.206 51.4365C118.174 51.6026 118.143 51.8755 118.112 52.1944H117.087C117.116 51.9785 117.148 51.7166 117.173 51.4365H118.206Z" fill="white"/>
<path d="M117.864 54.21C117.804 54.5034 117.73 54.7072 117.639 54.7448L117.204 54.9158H116.18C116.257 54.7326 116.363 54.4792 116.473 54.21H117.864Z" fill="white"/>
<path opacity="0.05" d="M78.1377 41.5721C78.1377 41.5721 78.5609 45.2976 79.8901 45.6651C81.2192 46.0325 80.5546 44.2862 80.5546 44.2862L79.4292 42.8661L78.1377 41.5721Z" fill="black"/>
<path opacity="0.05" d="M69.3145 48.2689C69.3145 48.2689 74.3654 53.315 76.5532 52.3363C78.7409 51.3577 71.6732 51.8876 69.3145 48.2689Z" fill="black"/>
<path opacity="0.05" d="M75.0566 55.1062C75.0566 55.1062 78.4256 55.3087 79.4297 54.21C80.4338 53.1113 75.0566 55.1062 75.0566 55.1062Z" fill="black"/>
<path opacity="0.05" d="M72.6403 59.3956C72.4923 59.2901 78.7439 59.0936 80.4357 57.819C82.1274 56.5445 76.6883 62.2952 72.6403 59.3956Z" fill="black"/>
<path opacity="0.05" d="M62.0039 39.5445C62.0039 39.5445 63.3379 40.8979 63.4592 41.9893C63.5805 43.0808 62.0039 39.5445 62.0039 39.5445Z" fill="black"/>
<path opacity="0.05" d="M65.3895 40.7196C65.3895 40.7196 65.2682 44.3129 66.7465 44.9957C68.2248 45.6784 64.9056 43.4349 65.3895 40.7196Z" fill="black"/>
<path opacity="0.05" d="M84.6836 50.3631C84.6836 50.3631 87.3237 49.2717 87.7469 49.9811C88.1701 50.6906 87.3831 50.8106 87.3831 50.8106L84.6836 50.3631Z" fill="black"/>
<path opacity="0.05" d="M88.1119 53.8801C87.0204 54.5628 86.2018 54.5034 86.2806 55.1073C86.3595 55.7113 86.4565 55.4772 87.1938 55.322C87.9312 55.1668 88.1119 53.8801 88.1119 53.8801Z" fill="black"/>
<path opacity="0.05" d="M88.9157 56.6912C88.9157 56.6912 87.6023 57.8238 87.1912 57.8845C86.7801 57.9451 88.9157 56.6912 88.9157 56.6912Z" fill="black"/>
<path opacity="0.1" d="M107.566 65.9213C107.394 65.7503 113.246 65.9213 114.636 65.5575C114.636 65.5575 115.341 66.5847 113.991 66.8272C112.641 67.0698 106.66 67.4336 106.66 67.4336C106.66 67.4336 108.471 66.8284 107.566 65.9213Z" fill="black"/>
<path opacity="0.1" d="M106.001 73.1721C105.787 73.5359 105.075 74.1059 104.424 74.5874C104.263 73.884 103.872 72.7792 103.746 71.7726L105.01 71.1784C104.969 71.1784 106.424 72.4469 106.001 73.1721Z" fill="black"/>
<path opacity="0.1" d="M99.7852 54.689C99.7852 54.689 103.702 54.0414 104.909 52.7001C104.909 52.7001 104.453 54.9983 99.7852 54.689Z" fill="black"/>
<path opacity="0.1" d="M98.8037 56.9786C98.8037 56.9786 99.4101 57.2211 100.436 56.9786C101.462 56.736 98.8037 56.9786 98.8037 56.9786Z" fill="black"/>
<path opacity="0.1" d="M107.425 56.6912C107.425 56.6912 105.226 58.5272 105.762 58.9311C106.298 59.3349 107.425 56.6912 107.425 56.6912Z" fill="black"/>
<path opacity="0.1" d="M107.425 53.2919C107.425 53.2919 105.522 53.2544 106.001 54.21C106.48 55.1656 107.425 53.2919 107.425 53.2919Z" fill="black"/>
<path opacity="0.1" d="M111.007 40.773C111.126 40.7603 111.241 40.7222 111.344 40.6614C111.825 40.4416 112.365 40.3866 112.88 40.505C113.619 40.6772 114.234 41.1914 114.954 41.4303C115.369 41.5685 115.924 41.5576 116.129 41.1707C116.31 40.8275 116.097 40.4164 115.887 40.089C115.523 39.5081 115.124 38.9029 114.519 38.5731C114.171 38.4034 113.798 38.2876 113.415 38.2299C112.646 38.0807 111.858 37.9667 111.081 38.0686C110.474 38.1486 108.72 38.5537 108.996 39.4863C109.134 39.9532 109.622 39.8877 109.987 40.0465C110.334 40.1994 110.62 40.7827 111.007 40.773Z" fill="black"/>
<path d="M111.007 40.4977C111.126 40.4838 111.24 40.4459 111.344 40.3861C111.825 40.1657 112.365 40.1106 112.88 40.2297C113.619 40.4019 114.234 40.9149 114.954 41.155C115.369 41.2932 115.924 41.2823 116.129 40.8955C116.31 40.551 116.097 40.1412 115.887 39.8137C115.523 39.2328 115.124 38.6277 114.519 38.2978C114.171 38.1275 113.799 38.0118 113.415 37.9546C112.646 37.8054 111.858 37.6915 111.081 37.7921C110.474 37.8721 108.72 38.2772 108.996 39.211C109.134 39.6779 109.622 39.6112 109.987 39.7713C110.334 39.9229 110.62 40.5038 111.007 40.4977Z" fill="#663D5C"/>
<path opacity="0.1" d="M115.564 39.1103L108.426 38.3827C108.426 38.3827 108.451 38.2978 108.495 38.1402C109.993 37.7436 113.695 36.9723 115.468 38.4737L115.564 39.1103Z" fill="black"/>
<path d="M107.845 38.4785C107.845 38.4785 114.379 36.3332 116.056 39.3359C116.056 39.3274 112.583 39.838 107.845 38.4785Z" fill="#575A89"/>
<path opacity="0.1" d="M110.931 75.0069C110.874 75.0355 110.807 75.0401 110.746 75.0196C110.685 74.9992 110.635 74.9553 110.606 74.8978C110.554 74.7789 110.537 74.6477 110.557 74.5194L110.589 73.9446C110.639 73.069 110.69 72.1813 110.962 71.3469C111.268 70.4645 111.765 69.6604 112.417 68.9918" fill="black"/>
<path opacity="0.1" d="M109.94 57.6395C109.94 57.6395 113.215 56.7906 113.987 57.0865C114.76 57.3824 114.499 57.8421 113.987 57.8882C113.476 57.9342 109.94 57.6395 109.94 57.6395Z" fill="black"/>
<path opacity="0.1" d="M108.983 59.9086C109.711 60.4143 115.564 60.4143 115.564 60.4143L108.983 59.9086Z" fill="black"/>
<path opacity="0.1" d="M82.0701 61.4244C82.0701 61.4244 82.3126 62.0223 80.7519 62.619C79.1911 63.2156 82.0701 61.4244 82.0701 61.4244Z" fill="black"/>
<path opacity="0.1" d="M80.8977 65.9746C80.8977 65.9746 78.8555 65.9285 79.5552 66.8938C80.255 67.8592 80.8977 65.9746 80.8977 65.9746Z" fill="black"/>
<path opacity="0.1" d="M68.3525 61.9423C68.3525 61.9423 71.5687 63.6765 72.9015 63.8609C74.2343 64.0452 70.4663 64.6212 68.3525 61.9423Z" fill="black"/>
<path opacity="0.1" d="M71.1094 76.1299C71.1094 76.1299 71.2695 76.957 72.6374 77.3706C74.0054 77.7841 75.052 77.4627 75.0629 77.3706C75.0738 77.2784 71.1094 76.1299 71.1094 76.1299Z" fill="black"/>
<path opacity="0.1" d="M74.7627 94.3123C74.7627 94.3123 76.452 95.1612 76.8304 94.3123H74.7627Z" fill="black"/>
<path opacity="0.1" d="M86.379 77.5768C86.379 77.5768 86.1001 78.4766 85.5859 78.5082L86.379 77.5768Z" fill="black"/>
<path opacity="0.1" d="M116.126 40.619C115.922 41.007 115.366 41.0167 114.951 40.8785C114.231 40.636 113.617 40.1266 112.877 39.9532C112.362 39.8348 111.822 39.8898 111.341 40.1096C111.238 40.1706 111.123 40.2087 111.004 40.2212C110.617 40.2273 110.33 39.6476 109.985 39.4936C109.621 39.3335 109.136 39.399 108.994 38.9321C108.988 38.9142 108.984 38.896 108.981 38.8775C108.956 38.9871 108.96 39.1014 108.994 39.2086C109.132 39.6755 109.62 39.6088 109.985 39.7689C110.33 39.9204 110.617 40.4965 111.004 40.4965C111.122 40.4828 111.237 40.4448 111.341 40.3849C111.822 40.1644 112.362 40.1094 112.877 40.2285C113.616 40.4007 114.231 40.9137 114.951 41.1538C115.366 41.2908 115.921 41.2811 116.126 40.8943C116.193 40.762 116.212 40.6109 116.181 40.4662C116.17 40.5195 116.152 40.571 116.126 40.619Z" fill="black"/>
<path opacity="0.1" d="M115.653 79.8324C115.644 79.9606 115.606 80.0851 115.541 80.1962L112.415 79.8324C112.459 79.6505 112.502 79.5122 112.502 79.5122C112.502 79.5122 115.088 80.0992 115.534 79.8227H115.541L115.653 79.8324Z" fill="black"/>
<path d="M112.389 79.2091C112.377 79.2443 112.327 79.6809 112.327 79.6809L115.8 80.0823V79.7184L112.389 79.2091Z" fill="#575A89"/>
<path opacity="0.1" d="M14.9934 83.0486C17.0462 83.0486 18.7104 82.82 18.7104 82.538C18.7104 82.256 17.0462 82.0275 14.9934 82.0275C12.9405 82.0275 11.2764 82.256 11.2764 82.538C11.2764 82.82 12.9405 83.0486 14.9934 83.0486Z" fill="#0091FF"/>
<path opacity="0.1" d="M29.2317 84.4929C31.2845 84.4929 32.9487 84.2643 32.9487 83.9823C32.9487 83.7003 31.2845 83.4717 29.2317 83.4717C27.1788 83.4717 25.5146 83.7003 25.5146 83.9823C25.5146 84.2643 27.1788 84.4929 29.2317 84.4929Z" fill="#0091FF"/>
<path opacity="0.1" d="M46.0022 82.538C48.055 82.538 49.7192 82.3094 49.7192 82.0274C49.7192 81.7454 48.055 81.5168 46.0022 81.5168C43.9493 81.5168 42.2852 81.7454 42.2852 82.0274C42.2852 82.3094 43.9493 82.538 46.0022 82.538Z" fill="#0091FF"/>
<path opacity="0.1" d="M23.5331 88.4549C24.9926 88.4549 26.1757 88.2926 26.1757 88.0923C26.1757 87.8921 24.9926 87.7297 23.5331 87.7297C22.0737 87.7297 20.8906 87.8921 20.8906 88.0923C20.8906 88.2926 22.0737 88.4549 23.5331 88.4549Z" fill="#0091FF"/>
<path opacity="0.1" d="M38.3095 88.0923C39.7689 88.0923 40.952 87.9299 40.952 87.7297C40.952 87.5294 39.7689 87.3671 38.3095 87.3671C36.8501 87.3671 35.667 87.5294 35.667 87.7297C35.667 87.9299 36.8501 88.0923 38.3095 88.0923Z" fill="#0091FF"/>
<path d="M29.3103 83.8671C29.3103 83.8671 24.0956 66.7774 30.1265 59.9328C34.6366 54.8127 39.7555 55.4251 42.0488 56.0581C42.6421 56.216 43.1941 56.501 43.6663 56.8934C44.1385 57.2859 44.5197 57.7763 44.7835 58.3308C45.5851 60.0601 45.4395 62.8676 39.7822 66.1432C30.3084 71.6283 29.7166 79.152 29.7166 79.152L29.3103 83.8671Z" fill="#0091FF"/>
<path d="M41.2321 58.4885C41.2321 58.4885 25.8656 63.2933 29.3098 83.8732" stroke="#565987" stroke-miterlimit="10"/>
<path d="M32.2578 60.2045C32.2578 60.2045 34.374 61.6306 33.701 63.7735" stroke="#565987" stroke-miterlimit="10"/>
<path d="M39.6913 61.4742C39.6913 61.4742 38.3974 60.1584 36.8232 60.8836" stroke="#565987" stroke-miterlimit="10"/>
<path d="M33.6162 68.092C33.6162 68.092 31.3448 66.9387 30.7578 68.383" stroke="#565987" stroke-miterlimit="10"/>
<path d="M27.9961 70.4944C27.9961 70.4944 29.7024 70.3586 29.7327 71.1748" stroke="#565987" stroke-miterlimit="10"/>
<path d="M29.1006 84.0029C29.1006 84.0029 35.2054 71.5858 36.8826 71.8538C37.6794 71.9836 38.0469 72.767 38.2166 73.5516C38.4229 74.5694 38.3068 75.6262 37.8843 76.575C37.0136 78.565 34.6864 82.3403 29.1006 84.0029Z" fill="#0091FF"/>
<path d="M36.8369 74.2114C36.8369 74.2114 30.4276 83.5045 29.1895 83.9132" stroke="#565987" stroke-miterlimit="10"/>
<path d="M37.4272 75.6631H35.9307" stroke="#565987" stroke-miterlimit="10"/>
<path d="M35.6342 79.0623L33.29 79.163" stroke="#565987" stroke-miterlimit="10"/>
<path d="M34.209 76.3422L34.4637 77.5634" stroke="#565987" stroke-miterlimit="10"/>
<path d="M31.7158 80.0591L31.7607 81.17" stroke="#565987" stroke-miterlimit="10"/>
<path d="M29.2806 84.0029C29.2806 84.0029 23.1758 71.5858 21.4986 71.8538C20.7018 71.9836 20.3344 72.767 20.1646 73.5516C19.9589 74.5695 20.075 75.6261 20.4969 76.575C21.3676 78.565 23.6948 82.3403 29.2806 84.0029Z" fill="#0091FF"/>
<path d="M21.5439 74.2114C21.5439 74.2114 27.952 83.5045 29.1841 83.9132" stroke="#565987" stroke-miterlimit="10"/>
<path d="M20.9551 75.6631H22.4516" stroke="#565987" stroke-miterlimit="10"/>
<path d="M22.7471 79.0623L25.0913 79.163" stroke="#565987" stroke-miterlimit="10"/>
<path d="M24.1726 76.3422L23.918 77.5634" stroke="#565987" stroke-miterlimit="10"/>
<path d="M26.6669 80.0591L26.6221 81.17" stroke="#565987" stroke-miterlimit="10"/>
<path d="M39.7633 86.9039C39.9295 86.7688 40.0508 86.5866 40.1113 86.3812C40.1379 86.2779 40.1283 86.1686 40.0842 86.0716C40.0401 85.9745 39.9641 85.8954 39.8688 85.8476C39.6456 85.7627 39.4067 85.9167 39.226 86.0731C39.0453 86.2296 38.8392 86.4066 38.6027 86.3739C38.7243 86.2638 38.8153 86.124 38.8668 85.9682C38.9182 85.8124 38.9283 85.6459 38.8962 85.485C38.8858 85.4185 38.8578 85.3561 38.8149 85.3043C38.6936 85.1721 38.4656 85.2291 38.3177 85.3334C37.8459 85.6644 37.7113 86.3036 37.7113 86.8808C37.664 86.6734 37.7041 86.4564 37.7028 86.2429C37.7016 86.0295 37.6434 85.7942 37.4603 85.679C37.3486 85.6191 37.2232 85.5894 37.0965 85.5929C36.8843 85.5856 36.649 85.6062 36.5035 85.7615C36.324 85.9543 36.3701 86.2769 36.5265 86.4891C36.6829 86.7013 36.9219 86.8347 37.1401 86.9742C37.316 87.079 37.466 87.222 37.5791 87.3926C37.5917 87.4169 37.6027 87.442 37.6119 87.4678H38.9398C39.2386 87.318 39.5156 87.1283 39.7633 86.9039Z" fill="#0091FF"/>
<path d="M16.5003 81.9013C16.6659 81.7655 16.7868 81.5829 16.8471 81.3774C16.874 81.274 16.8646 81.1645 16.8205 81.0671C16.7763 80.9698 16.7001 80.8905 16.6046 80.8426C16.3814 80.7577 16.1438 80.9117 15.9631 81.0682C15.7824 81.2246 15.575 81.4029 15.3385 81.3689C15.4602 81.2589 15.5513 81.1191 15.6027 80.9633C15.6542 80.8074 15.6643 80.6409 15.632 80.48C15.6217 80.4136 15.5936 80.3511 15.5507 80.2993C15.4295 80.1671 15.2027 80.2241 15.0535 80.3284C14.583 80.6595 14.4472 81.2986 14.4472 81.8759C14.3999 81.6685 14.4399 81.4514 14.4387 81.2392C14.4375 81.027 14.3792 80.7893 14.1961 80.6741C14.0844 80.6142 13.959 80.5845 13.8323 80.5879C13.6201 80.5807 13.3848 80.6025 13.2393 80.7565C13.0598 80.9493 13.1071 81.2731 13.2635 81.4841C13.42 81.6952 13.6577 81.8298 13.8699 81.9765C14.0457 82.0809 14.1957 82.2234 14.3089 82.3937C14.322 82.4178 14.3329 82.4429 14.3416 82.4689H15.6696C15.9711 82.3185 16.2506 82.1275 16.5003 81.9013Z" fill="#0091FF"/>
<path d="M24.2535 86.9039C24.4197 86.7688 24.5411 86.5866 24.6015 86.3812C24.6281 86.2779 24.6186 86.1686 24.5744 86.0716C24.5303 85.9745 24.4543 85.8954 24.359 85.8476C24.1359 85.7627 23.897 85.9167 23.7163 86.0731C23.5356 86.2296 23.3282 86.4066 23.0917 86.3739C23.2133 86.2637 23.3043 86.1239 23.3559 85.9682C23.4076 85.8124 23.4181 85.646 23.3864 85.485C23.3757 85.4184 23.3472 85.356 23.3039 85.3043C23.1827 85.1721 22.9559 85.2291 22.8079 85.3334C22.3362 85.6644 22.2016 86.3036 22.2016 86.8808C22.1531 86.6734 22.1931 86.4564 22.1931 86.2429C22.1931 86.0295 22.1324 85.7942 21.9505 85.679C21.8388 85.6191 21.7134 85.5894 21.5867 85.5929C21.3745 85.5856 21.138 85.6062 20.9937 85.7615C20.8142 85.9543 20.8603 86.2769 21.0167 86.4891C21.1732 86.7013 21.4109 86.8347 21.6304 86.9742C21.8062 87.079 21.9563 87.222 22.0694 87.3926C22.0821 87.4167 22.0926 87.4418 22.1009 87.4678H23.4349C23.732 87.3176 24.0074 87.1279 24.2535 86.9039Z" fill="#0091FF"/>
<path d="M46.2436 76.7921C46.2436 76.7921 46.7408 77.4433 46.0131 78.4269C45.2855 79.4104 44.6852 80.2459 44.9277 80.8523C44.9277 80.8523 46.0265 79.0332 46.9203 79.0017C47.814 78.9702 47.2259 77.8921 46.2436 76.7921Z" fill="#0091FF"/>
<path opacity="0.1" d="M46.2444 76.7921C46.2875 76.8549 46.3214 76.9235 46.345 76.9959C47.2182 78.0206 47.679 78.9774 46.8447 79.0017C46.0637 79.0235 45.1262 80.4194 44.9043 80.7723C44.9112 80.7996 44.9201 80.8263 44.931 80.8523C44.931 80.8523 46.0297 79.0332 46.9235 79.0017C47.8173 78.9702 47.2267 77.8921 46.2444 76.7921Z" fill="black"/>
<path d="M47.1689 77.6216C47.1689 77.8508 47.1435 78.0376 47.1119 78.0376C47.0804 78.0376 47.0537 77.8508 47.0537 77.6216C47.0537 77.3924 47.0865 77.5004 47.118 77.5004C47.1495 77.5004 47.1689 77.3924 47.1689 77.6216Z" fill="#FFD037"/>
<path d="M47.4855 77.892C47.2841 78.0011 47.1083 78.0678 47.0937 78.0399C47.0792 78.0121 47.2296 77.9005 47.4309 77.7974C47.6322 77.6943 47.5522 77.7671 47.5679 77.7974C47.5837 77.8277 47.688 77.7865 47.4855 77.892Z" fill="#FFD037"/>
<path d="M43.6127 76.7921C43.6127 76.7921 43.1155 77.4433 43.8431 78.4269C44.5708 79.4104 45.1771 80.2459 44.9346 80.8523C44.9346 80.8523 43.8359 79.0332 42.9421 79.0017C42.0483 78.9702 42.6353 77.8921 43.6127 76.7921Z" fill="#0091FF"/>
<path opacity="0.1" d="M43.612 76.7921C43.5687 76.8549 43.5344 76.9235 43.5102 76.9959C42.6382 78.0206 42.1762 78.9774 43.0117 79.0017C43.7927 79.0235 44.7302 80.4194 44.9521 80.7723C44.9452 80.7996 44.9363 80.8263 44.9254 80.8523C44.9254 80.8523 43.8267 79.0332 42.9329 79.0017C42.0391 78.9702 42.6346 77.8921 43.612 76.7921Z" fill="black"/>
<path d="M42.6865 77.6216C42.6865 77.8508 42.712 78.0376 42.7435 78.0376C42.7751 78.0376 42.8017 77.8508 42.8017 77.6216C42.8017 77.3924 42.769 77.5004 42.7375 77.5004C42.7059 77.5004 42.6865 77.3924 42.6865 77.6216Z" fill="#FFD037"/>
<path d="M42.3689 77.892C42.5702 78.0011 42.7461 78.0678 42.7606 78.0399C42.7752 78.0121 42.6248 77.9005 42.4235 77.7974C42.2222 77.6943 42.3022 77.7671 42.2864 77.7974C42.2707 77.8277 42.1676 77.7865 42.3689 77.892Z" fill="#FFD037"/>
<path d="M42.8457 80.7674C42.8457 80.7674 44.2379 80.725 44.6575 80.4255C45.0771 80.1259 46.7992 79.7706 46.9035 80.2496C47.0078 80.7286 48.9966 82.6326 47.4237 82.646C45.8508 82.6593 43.771 82.4034 43.3526 82.1463C42.9342 81.8892 42.8457 80.7674 42.8457 80.7674Z" fill="#A8A8A8"/>
<path opacity="0.2" d="M47.4519 82.4786C45.8754 82.4919 43.7992 82.2361 43.3808 81.979C43.0618 81.7849 42.9345 81.0876 42.8957 80.7662H42.8496C42.8496 80.7662 42.9369 81.8892 43.3565 82.1451C43.7761 82.401 45.856 82.6569 47.4276 82.6447C47.8812 82.6447 48.034 82.4798 48.034 82.2409C47.9637 82.3864 47.7902 82.4762 47.4519 82.4786Z" fill="black"/>
</g>
<defs>
<linearGradient id="paint0_linear" x1="92.7869" y1="98.706" x2="92.7869" y2="24.8305" gradientUnits="userSpaceOnUse">
<stop stop-color="#808080" stop-opacity="0.25"/>
<stop offset="0.54" stop-color="#808080" stop-opacity="0.12"/>
<stop offset="1" stop-color="#808080" stop-opacity="0.1"/>
</linearGradient>
<clipPath id="clip0">
<rect width="137.901" height="100" fill="white"/>
</clipPath>
</defs>
</svg>
