<svg width="156" height="149" viewBox="0 0 156 149" fill="none" xmlns="http://www.w3.org/2000/svg">
<g clip-path="url(#clip0_1273_1271)">
<path d="M59.2571 101.659H38.1523C37.6285 101.659 37.2095 101.239 37.2095 100.715V98.7231C37.2095 98.1989 37.6285 97.7795 38.1523 97.7795H59.2475C59.7714 97.7795 60.1904 98.1989 60.1904 98.7231V100.715C60.1999 101.239 59.7714 101.659 59.2571 101.659Z" stroke="#DEE5F8" stroke-width="5" stroke-miterlimit="10"/>
<path d="M71.819 101.621H63.2381C62.5809 101.621 62.0571 101.087 62.0571 100.439V98.9233C62.0571 98.2656 62.5905 97.7414 63.2381 97.7414H71.8286C72.4857 97.7414 73.0095 98.2752 73.0095 98.9233V100.439C73.0095 101.097 72.4762 101.621 71.819 101.621Z" stroke="#DEE5F8" stroke-width="3.75" stroke-miterlimit="10"/>
<path d="M66.581 49.1614H57.9905C57.3334 49.1614 56.8096 48.6277 56.8096 47.9795V46.4641C56.8096 45.8064 57.3429 45.2822 57.9905 45.2822H66.581C67.2381 45.2822 67.7619 45.8159 67.7619 46.4641V47.9795C67.7619 48.6372 67.2286 49.1614 66.581 49.1614Z" stroke="#DEE5F8" stroke-width="5" stroke-miterlimit="10"/>
<path d="M79.5331 49.1614H70.9427C70.2855 49.1614 69.7617 48.6277 69.7617 47.9795V46.4641C69.7617 45.8064 70.2951 45.2822 70.9427 45.2822H79.5331C80.1903 45.2822 80.7141 45.8159 80.7141 46.4641V47.9795C80.7141 48.6372 80.1903 49.1614 79.5331 49.1614Z" stroke="#DEE5F8" stroke-width="5" stroke-miterlimit="10"/>
<path d="M112.438 84.1025H103.847C103.19 84.1025 102.667 83.5687 102.667 82.9206V81.4052C102.667 80.7475 103.2 80.2233 103.847 80.2233H112.438C113.095 80.2233 113.619 80.7571 113.619 81.4052V82.9206C113.619 83.5783 113.086 84.1025 112.438 84.1025Z" stroke="#DEE5F8" stroke-width="5" stroke-miterlimit="10"/>
<path d="M153.552 31.8338V32.9489C153.924 32.9489 154.352 33.0538 154.628 33.8067C154.943 34.636 154.952 35.9512 154.666 37.4953C154.343 39.2395 153.657 41.2505 152.685 43.3188C150.666 47.5697 147.533 51.8206 143.733 55.471L143.171 43.0424L146.485 38.4484H149.276C150.343 38.4484 151.2 37.5811 151.2 36.5231V33.9021C151.219 33.8735 151.285 33.7877 151.495 33.6638C152.514 33.0728 153.171 32.9489 153.533 32.9489L153.552 31.8338ZM153.552 31.8338C152.838 31.8338 151.971 32.1102 150.952 32.7011C150.485 32.9775 150.095 33.3588 150.095 33.8925V36.5231C150.095 36.9711 149.733 37.3333 149.285 37.3333H145.924L142.047 42.7088L142.733 57.9205C155.752 46.607 158.809 31.8338 153.552 31.8338Z" fill="#FBC343"/>
<path d="M113.476 31.8338V32.9489C113.847 32.9489 114.504 33.0728 115.514 33.6638C115.723 33.7877 115.8 33.8735 115.809 33.9021V36.5231C115.809 37.5906 116.676 38.4484 117.733 38.4484H120.523L123.838 43.0424L123.276 55.471C119.476 51.8206 116.342 47.5697 114.323 43.3188C113.342 41.2505 112.657 39.2395 112.342 37.4953C112.057 35.9417 112.076 34.636 112.381 33.8067C112.666 33.0538 113.085 32.9489 113.457 32.9489V31.8338H113.476ZM113.476 31.8338C108.219 31.8338 111.276 46.607 124.304 57.9205L124.99 42.7088L121.114 37.3333H117.752C117.304 37.3333 116.942 36.9711 116.942 36.5231V33.8925C116.942 33.3492 116.552 32.968 116.085 32.7011C115.057 32.1102 114.19 31.8338 113.476 31.8338Z" fill="#FBC343"/>
<path d="M144.476 84.903H122.552V96.2832H144.476V84.903Z" fill="#6F3428"/>
<path d="M141.114 84.903H125.904V81.1859C125.904 79.5276 127.247 78.1837 128.904 78.1837H138.114C139.771 78.1837 141.114 79.5276 141.114 81.1859V84.903Z" fill="#FBC343"/>
<path d="M138.247 78.1836H128.78V75.8676C128.78 74.8382 129.618 73.9995 130.647 73.9995H136.38C137.409 73.9995 138.247 74.8382 138.247 75.8676V78.1836Z" fill="#FBC343"/>
<path d="M136.152 72.8367L136.447 74.0091H130.581L130.876 72.8367C131.266 71.2831 131.266 69.72 130.876 68.1664L130.581 66.9941H136.447L136.152 68.1664C136.019 68.6811 135.933 69.1958 135.895 69.7009C135.809 70.7494 135.895 71.7883 136.152 72.8367Z" fill="#FBC343"/>
<path opacity="0.3" d="M136.447 66.9941L136.152 68.1664C136.019 68.6811 135.933 69.1958 135.895 69.701C135.571 67.5564 130.581 66.9941 130.581 66.9941H136.447Z" fill="#6F3428"/>
<path d="M138.247 62.81V65.126C138.247 65.3166 138.218 65.4977 138.171 65.6788C137.933 66.4413 137.228 67.0036 136.38 67.0036H130.647C129.618 67.0036 128.78 66.1649 128.78 65.1355V62.81H138.247Z" fill="#FBC343"/>
<path opacity="0.3" d="M138.247 62.81V65.126C138.247 65.3166 138.218 65.4977 138.171 65.6788C135.637 63.3533 129.218 63.2865 128.78 63.2865V62.81H138.247Z" fill="#6F3428"/>
<path d="M148.219 34.8742L145.505 46.7309L142.495 59.8934C142.047 61.8664 140.295 63.2579 138.276 63.2579H128.762C126.752 63.2579 125.009 61.8663 124.543 59.9125C124.543 59.9029 124.543 59.9029 124.543 59.8934L118.819 34.8647C118.705 34.35 119.028 33.8449 119.543 33.74C128.866 31.891 138.19 31.891 147.514 33.74C148.009 33.8544 148.333 34.3691 148.219 34.8742Z" fill="#FBC343"/>
<path opacity="0.6" d="M127.276 42.0226C127.485 43.7286 127.143 45.1773 126.514 45.2536C125.885 45.3298 125.209 44.005 125 42.299C124.79 40.5929 125.133 39.1442 125.762 39.0679C126.39 38.9917 127.066 40.3165 127.276 42.0226Z" fill="white"/>
<path opacity="0.1" d="M145.504 46.7405L142.495 59.903C142.047 61.8759 140.295 63.2674 138.276 63.2674H128.762C126.752 63.2674 125.009 61.8759 124.542 59.922C135 59.2644 141.952 52.6307 145.504 46.7405Z" fill="#6F3428"/>
<g opacity="0.3">
<path opacity="0.3" d="M130.581 73.9995C131.066 73.8756 131.552 73.8089 132.038 73.7517C132.523 73.6945 133.019 73.6754 133.514 73.6659C134.495 73.6659 135.495 73.7326 136.447 73.99C135.952 73.9995 135.466 73.9995 134.981 74.0091L133.514 74.0186C132.542 74.0377 131.571 74.0568 130.581 73.9995Z" fill="#6F3428"/>
</g>
<g opacity="0.3">
<path opacity="0.3" d="M128.78 78.1837C130.352 77.9739 131.933 77.8881 133.514 77.8595C134.304 77.85 135.095 77.8595 135.885 77.9072C136.676 77.9453 137.466 78.0216 138.247 78.1837C137.456 78.1551 136.666 78.1742 135.876 78.1837L133.514 78.2218C131.942 78.2314 130.361 78.2504 128.78 78.1837Z" fill="#6F3428"/>
</g>
<path d="M129.256 15.974L130.237 23.0366C130.295 23.4464 129.742 23.637 129.542 23.2749L125.98 17.0987C125.761 16.7175 125.942 16.2409 126.361 16.0979L128.352 15.4117C128.761 15.2687 129.199 15.5356 129.256 15.974Z" fill="#FBC343"/>
<path d="M139.104 11.7422L135.247 23.8658C135.028 24.5711 134 24.4472 133.942 23.7133L132.961 11.0274C132.904 10.2458 133.561 9.61677 134.342 9.70255L138.066 10.1314C138.838 10.2268 139.342 10.9988 139.104 11.7422Z" fill="#FBC343"/>
<path d="M143.609 19.167L139.009 23.5608C138.742 23.8181 138.323 23.5131 138.475 23.1796L141.085 17.3846C141.247 17.032 141.685 16.9081 142.009 17.1368L143.542 18.2234C143.856 18.4426 143.885 18.9001 143.609 19.167Z" fill="#FBC343"/>
<path d="M40.1617 55.023C42.2284 56.3098 44.4189 54.6418 44.657 53.2312C45.0189 51.1248 43.0951 48.7039 40.1617 50.5053C40.1617 50.5053 37.6189 47.522 35.1427 50.4767C35.1427 50.4767 30.9236 52.6021 33.2665 56.2907C35.5998 59.9697 38.5427 54.9563 38.5427 54.9563L40.1617 55.023Z" fill="#102048"/>
<path d="M41.6572 55.938C42.7905 57.4535 43.2857 58.0539 43.1238 58.5305C42.9619 59.007 41.8382 59.0452 41.8382 59.0452L41.6572 55.938Z" fill="#F9B384"/>
<path d="M39.9044 60.6369L39.2568 62.2571L36.752 68.5286L32.7139 63.7345L36.5234 58.092L38.7996 59.8076L39.9044 60.6369Z" fill="#F9B384"/>
<path d="M39.9045 60.6369L39.2569 62.2572C38.3712 61.3803 37.514 60.2461 37.1616 59.7409L38.7997 59.8172L39.9045 60.6369Z" fill="#102048"/>
<path d="M42.2477 59.8267C42.2096 60.675 42.0477 61.3422 41.6286 61.6376C40.4286 62.4859 36.0286 58.8736 36.0286 58.8736L35.7334 53.784L41.9143 54.2224C41.9239 55.0421 42.0096 55.9571 42.0953 56.8625C42.2001 57.9205 42.2858 58.9689 42.2477 59.8267Z" fill="#F9B384"/>
<path d="M36.3047 56.2717C37.819 56.5576 38.2095 54.8801 38.2095 54.8801C39.8285 53.8888 41.1714 56.1763 42.6285 55.3281L42.8571 52.402L36.4476 52.0779L34.1333 53.5648L34.7904 55.3567L36.3047 56.2717Z" fill="#102048"/>
<path d="M37.2568 56.3097C36.4472 55.3852 35.1234 55.776 34.9996 56.7768C34.8758 57.768 35.6949 59.4455 37.0282 58.4733L37.2568 56.3097Z" fill="#F9B384"/>
<path d="M36.7044 56.9674C36.6568 56.8625 36.5711 56.7672 36.4758 56.7005C36.3806 56.6338 36.2758 56.5671 36.1615 56.5385C36.0472 56.5099 35.9425 56.5003 35.8377 56.548C35.7425 56.5861 35.6568 56.6814 35.5901 56.7863L35.5234 56.7577C35.552 56.6242 35.6377 56.4908 35.7711 56.4146C35.9044 56.3383 36.0758 56.3383 36.2092 56.3764C36.352 56.4241 36.4758 56.4908 36.5711 56.5957C36.6663 56.691 36.752 56.8244 36.7615 56.9674H36.7044Z" fill="#102048"/>
<path d="M42.6289 72.3411C43.9623 70.7875 44.0956 68.5667 44.6004 68.1092C45.5432 67.261 45.1146 69.8534 45.1146 69.8534C45.1146 69.8534 45.7242 68.1092 47.2004 67.7089C48.1623 67.4516 48.3337 68.3475 48.2575 69.1005C48.1147 70.3491 47.7051 71.7787 46.7051 72.6079C46.2766 72.9606 45.7242 73.2275 45.4194 73.704C45.248 73.9709 45.0956 74.2854 45.0099 74.5904L42.6289 72.3411Z" fill="#F9B384"/>
<path d="M42.4194 72.3887L43.0385 71.55L45.5623 73.7993L44.8575 74.8192L42.4194 72.3887Z" fill="#708CD5"/>
<path d="M34.4287 80.6331L42.4668 71.6739L45.4478 74.5999C43.3144 79.4513 40.4859 82.568 35.962 84.9507L34.4287 80.6331Z" fill="#102048"/>
<path d="M45.8667 69.7772C46.0286 69.7486 46.181 69.7867 46.3239 69.8249C46.4667 69.8725 46.6001 69.9392 46.7239 70.0059C46.8477 70.0822 46.9715 70.168 47.0858 70.2633C47.2001 70.3681 47.3048 70.4539 47.3715 70.6255L47.2858 70.6541C47.2096 70.5778 47.0667 70.5016 46.962 70.4253C46.8477 70.3491 46.7239 70.2823 46.6096 70.2061C46.4953 70.1394 46.3715 70.0727 46.2477 70.0059C46.1238 69.9488 46 69.8916 45.8762 69.863L45.8667 69.7772Z" fill="#E28B6D"/>
<path d="M45.0955 70.3205C45.2574 70.3872 45.4193 70.473 45.5336 70.635C45.6479 70.7875 45.6955 70.9972 45.6669 71.1878C45.6479 71.3784 45.5717 71.55 45.4669 71.6929C45.3622 71.8359 45.2288 71.9693 45.0383 72.0265L45.0098 71.9408C45.1241 71.855 45.2193 71.712 45.286 71.5786C45.3622 71.4451 45.4098 71.2926 45.4288 71.1497C45.4479 71.0067 45.4288 70.8637 45.3622 70.7398C45.2955 70.6064 45.1717 70.5111 45.0479 70.3967L45.0955 70.3205Z" fill="#E28B6D"/>
<path d="M13.9521 127.431C13.9521 127.431 15.7045 131.158 20.7331 129.957L18.3045 126.735L13.9521 127.431Z" fill="#1F3C88"/>
<path d="M15.6567 126.973L13.8662 131.005L15.8281 134.093L18.2376 132.12L19.3138 127.688L15.6567 126.973Z" fill="#F9B384"/>
<path d="M13.8664 131.005L18.2378 132.12L20.7235 138.268C20.9521 138.84 20.3616 139.402 19.7997 139.135L12.0378 135.38C11.4759 135.104 11.2378 134.436 11.495 133.864L11.5616 133.712C12.0664 132.616 12.8664 131.672 13.8664 131.005Z" fill="#1F3C88"/>
<path d="M13.8664 131.005L18.2378 132.12L20.7235 138.268C20.9521 138.84 20.3616 139.402 19.7997 139.135L12.0378 135.38C11.4759 135.104 11.2378 134.436 11.495 133.864L11.5616 133.712C12.0664 132.616 12.8664 131.672 13.8664 131.005Z" fill="#1F3C88"/>
<path d="M19.0298 134.134L17.9497 134.739L18.0661 134.947L19.1462 134.342L19.0298 134.134Z" fill="#ACBFEE"/>
<path d="M19.5746 135.483L18.4951 136.09L18.6117 136.298L19.6912 135.691L19.5746 135.483Z" fill="#ACBFEE"/>
<path d="M19.7807 85.8467C18.9331 87.8387 17.7902 90.9077 19.7141 94.5867C20.495 96.0831 20.7617 97.7987 20.3807 99.4476L13.9521 127.431L20.7331 129.957L34.6093 89.4399L19.7807 85.8467Z" fill="#102048"/>
<path d="M37.9239 65.6979C39.2953 69.6342 39.3334 76.3632 36.7334 83.4543L32.7144 84.5981L34.3334 71.4547L37.9239 65.6979Z" fill="#708CD5"/>
<path d="M33.5142 62.3143L34.6189 59.8744C34.6189 59.8744 37.7332 62.0475 39.3713 64.6399L37.4666 68.2332L33.5142 62.3143Z" fill="#708CD5"/>
<path d="M34.3237 82.9302C23.6475 82.5871 18.0666 88.5726 18.1047 88.3439C19.819 82.5108 21.438 78.1551 22.8856 74.905C25.5142 69.0052 27.5714 66.7272 28.6475 65.8694C29.1714 65.4501 29.4571 65.3643 29.4571 65.3643L34.3142 61.2945C34.7333 61.5137 35.1333 61.8187 35.4952 62.1618C36.8666 63.4485 37.6475 65.2213 37.838 67.099C38.5714 74.3998 34.3237 82.9302 34.3237 82.9302Z" fill="#1F3C88"/>
<path d="M31.2474 66.0982C29.695 66.9274 26.9807 71.245 22.895 74.905C25.5236 69.0052 27.5807 66.7272 28.6569 65.8694L31.2474 66.0982Z" fill="#102048"/>
<path d="M13.6952 75.1624L11.9809 77.6023C11.9809 77.6023 11.7714 78.6031 11.3047 78.9938C11.3047 78.9938 11.5142 80.0136 12.3142 80.3758C13.2285 80.7857 14.3618 80.7666 15.0952 79.7182C15.8285 78.6698 15.9237 75.5627 15.9237 75.5627L13.6952 75.1624Z" fill="#F9B384"/>
<path d="M12.514 75.6674C12.514 75.8294 12.1997 76.6968 12.1997 76.6968L15.933 77.2115V75.5625L12.514 75.6674Z" fill="#708CD5"/>
<path d="M34.314 61.285C34.314 61.285 27.2093 60.2175 21.4283 63.2103C20.6093 63.6296 19.8664 64.1824 19.2093 64.821C16.4188 67.5279 13.9331 70.187 12.0474 75.839L16.4855 76.5634L20.9617 69.9488C21.3521 69.3864 21.9331 68.9861 22.5998 68.8336C24.9712 68.2903 30.6474 66.9655 31.5426 66.4413L34.314 61.285Z" fill="#1F3C88"/>
<path d="M40.5522 103.841C40.5522 103.841 43.2285 107.406 47.6571 105.614L44.7047 102.469L40.5522 103.841Z" fill="#1F3C88"/>
<path d="M42.1806 102.898L40.3901 106.939L42.352 110.018L44.7711 108.054L45.8378 103.613L42.1806 102.898Z" fill="#F9B384"/>
<path d="M40.3903 106.939L44.7617 108.054L47.2474 114.202C47.476 114.774 46.8855 115.336 46.3236 115.069L38.5617 111.314C37.9998 111.037 37.7617 110.37 38.0189 109.798L38.0856 109.646C38.5903 108.54 39.3903 107.606 40.3903 106.939Z" fill="#1F3C88"/>
<path d="M45.5371 109.955L44.457 110.561L44.5734 110.769L45.6535 110.163L45.5371 109.955Z" fill="#ACBFEE"/>
<path d="M46.08 111.304L45.0005 111.911L45.1171 112.118L46.1966 111.512L46.08 111.304Z" fill="#ACBFEE"/>
<path d="M19.7808 85.8467C21.2379 84.8364 30.5427 82.3964 36.4474 82.5775C43.0093 82.7776 48.276 83.5211 50.4188 88.3343C52.5617 93.1475 47.6569 105.614 47.6569 105.614L40.5522 103.841L42.2664 92.2802C42.2664 92.2802 33.276 93.4144 28.9903 93.462L19.7808 85.8467Z" fill="#102048"/>
<path d="M34.6096 93.1475C33.8762 93.1475 33.1715 93.3382 32.4572 93.4811C31.7334 93.6337 30.9905 93.6909 30.2476 93.6813C29.5048 93.6623 28.7715 93.5955 28.0476 93.5002C27.6857 93.443 27.3238 93.3858 26.9619 93.3286C26.6 93.2524 26.2381 93.1856 25.8857 93.1094L25.9048 93.0141C26.2667 93.0617 26.6286 93.1094 26.9905 93.1666C27.3524 93.2142 27.7143 93.2619 28.0762 93.3C28.8 93.3763 29.5334 93.443 30.2572 93.4525C30.981 93.4716 31.7048 93.4144 32.4286 93.2905C32.7905 93.2333 33.1524 93.1571 33.5143 93.1094C33.8857 93.0617 34.2572 93.0522 34.6191 93.0617L34.6096 93.1475Z" fill="#708CD5"/>
<path opacity="0.2" d="M147.466 96.6073V106.72L36.5427 149H10.4951V139.269H36.3141L36.3427 133.903L36.3713 128.527H62.3046V117.795H88.1236V107.33H113.943V96.5882L147.466 96.6073Z" fill="#ACBFEE"/>
<path d="M87.8472 118.071H62.3805C62.0948 118.071 61.8662 117.843 61.8662 117.557C61.8662 117.271 62.0948 117.042 62.3805 117.042H87.8472C88.1329 117.042 88.3615 117.271 88.3615 117.557C88.3615 117.843 88.1329 118.071 87.8472 118.071Z" fill="#ACBFEE"/>
<path d="M113.714 107.749H88.257C87.9712 107.749 87.7427 107.52 87.7427 107.234C87.7427 106.949 87.9712 106.72 88.257 106.72H113.714C114 106.72 114.228 106.949 114.228 107.234C114.238 107.511 114 107.749 113.714 107.749Z" fill="#ACBFEE"/>
<path d="M147.476 96.8742H113.895C113.609 96.8742 113.381 96.6454 113.381 96.3595C113.381 96.0735 113.609 95.8447 113.895 95.8447H147.476C147.762 95.8447 147.991 96.0735 147.991 96.3595C148 96.6359 147.762 96.8742 147.476 96.8742Z" fill="#ACBFEE"/>
<path d="M61.9997 128.746H36.5426C36.2569 128.746 36.0283 128.518 36.0283 128.232C36.0283 127.946 36.2569 127.717 36.5426 127.717H61.9997C62.2854 127.717 62.514 127.946 62.514 128.232C62.5235 128.518 62.2854 128.746 61.9997 128.746Z" fill="#ACBFEE"/>
<path d="M36.0664 139.478H10.5997C10.314 139.478 10.0854 139.25 10.0854 138.964C10.0854 138.678 10.314 138.449 10.5997 138.449H36.0664C36.3521 138.449 36.5807 138.678 36.5807 138.964C36.5807 139.25 36.3521 139.478 36.0664 139.478Z" fill="#ACBFEE"/>
<path d="M64.4949 82.4345L64.3521 80.8332L66.9044 80.6045C80.1616 79.4322 91.3044 70.4634 95.3044 57.7679L98.5711 47.3981L100.104 47.8842L96.8378 58.254C92.6473 71.569 80.952 80.9762 67.0473 82.2057L64.4949 82.4345Z" fill="#DEE5F8"/>
<path d="M99.3804 57.2343L98.6852 49.5998L93.5042 55.614L92.2852 54.5656L99.9423 45.6921L100.98 57.0913L99.3804 57.2343Z" fill="#DEE5F8"/>
<path d="M39.9618 26.8109C39.9618 27.0873 39.857 27.3447 39.6665 27.5925H10.5523C10.438 27.3447 10.3809 27.0778 10.3809 26.8109C10.3809 25.3527 12.0761 24.1613 14.1713 24.1613C14.838 24.1613 15.457 24.2852 15.9999 24.4949C16.2856 22.4171 19.1332 20.7873 22.5904 20.7873C26.1999 20.7873 29.1332 22.5601 29.2094 24.7522C30.3427 24.3805 31.7903 24.1613 33.3618 24.1613C37.0094 24.1613 39.9618 25.3431 39.9618 26.8109Z" fill="#DEE5F8"/>
<path d="M90.7047 7.2054C90.7047 7.52946 90.5809 7.85352 90.3523 8.14898H55.5047C55.3714 7.85352 55.3047 7.53899 55.3047 7.2054C55.3047 5.45168 57.3333 4.04107 59.838 4.04107C60.6285 4.04107 61.3809 4.18404 62.0285 4.43185C62.3714 1.95376 65.7714 -0.00012207 69.9237 -0.00012207C74.2475 -0.00012207 77.7618 2.11579 77.8475 4.74638C79.1999 4.30794 80.9333 4.04107 82.819 4.04107C87.1714 4.04107 90.7047 5.46121 90.7047 7.2054Z" fill="#DEE5F8"/>
</g>
<defs>
<clipPath id="clip0_1273_1271">
<rect width="156" height="149" fill="white" transform="translate(-0.000488281 -0.00012207)"/>
</clipPath>
</defs>
</svg>
