<svg width="958" height="485" viewBox="0 0 958 485" fill="none" xmlns="http://www.w3.org/2000/svg">
<path d="M144.227 164.515C142.855 164.665 141.864 165.9 142.015 167.273L144.467 189.638C144.618 191.011 145.852 192.002 147.225 191.851C148.597 191.701 149.588 190.466 149.437 189.093L147.257 169.213L167.138 167.033C168.511 166.882 169.501 165.648 169.351 164.275C169.2 162.903 167.966 161.912 166.593 162.062L144.227 164.515ZM276.5 180.5C260.954 180.5 246.778 181.002 233.854 181.377C220.905 181.753 209.235 182 198.586 181.505C177.31 180.517 160.429 176.576 146.064 165.05L142.935 168.95C158.49 181.431 176.61 185.49 198.354 186.5C209.215 187.004 221.06 186.75 233.999 186.375C246.962 185.999 261.046 185.5 276.5 185.5L276.5 180.5Z" fill="black"/>
<path d="M306.918 191.07L305.336 191V182.809C305.453 181.051 305.547 179.492 305.617 178.133C305.688 176.773 305.816 175.602 306.004 174.617C306.191 173.633 306.496 172.812 306.918 172.156C307.34 171.477 307.973 170.938 308.816 170.539C310.34 169.789 313.141 169.414 317.219 169.414C318.977 169.414 320.465 169.59 321.684 169.941C322.902 170.27 323.805 170.586 324.391 170.891C325.727 171.547 326.395 172.461 326.395 173.633C326.395 174.805 326.055 175.871 325.375 176.832C324.719 177.77 323.852 178.59 322.773 179.293C321.719 179.973 320.523 180.535 319.188 180.98C317.852 181.426 316.516 181.789 315.18 182.07C312.789 182.539 310.492 182.773 308.289 182.773L308.148 190.648C308.148 190.93 307.738 191.07 306.918 191.07ZM308.254 178.801C308.254 179.973 308.758 180.559 309.766 180.559C309.906 180.559 310.152 180.559 310.504 180.559C310.855 180.535 311.465 180.5 312.332 180.453C313.223 180.383 314.16 180.266 315.145 180.102C316.129 179.914 317.113 179.68 318.098 179.398C319.105 179.117 320.008 178.766 320.805 178.344C322.609 177.359 323.512 176.105 323.512 174.582C323.16 173.059 321.766 172.086 319.328 171.664C318.602 171.523 317.945 171.453 317.359 171.453C316.797 171.453 316.117 171.488 315.32 171.559C314.547 171.605 313.645 171.781 312.613 172.086C311.582 172.391 310.715 172.801 310.012 173.316C309.309 173.832 308.922 174.43 308.852 175.109C308.828 175.391 308.77 175.719 308.676 176.094C308.395 177.289 308.254 178.191 308.254 178.801ZM328.539 177.359C328.492 176.094 328.445 174.969 328.398 173.984C328.352 172.977 328.316 172.238 328.293 171.77C328.293 171.277 328.105 170.094 327.73 168.219C327.941 167.938 328.141 167.668 328.328 167.41C328.539 167.152 328.832 167.023 329.207 167.023C330.027 167.023 330.66 170.48 331.105 177.395C331.34 181.402 331.457 185.41 331.457 189.418C331.457 190.496 330.707 191.035 329.207 191.035L328.926 191C328.926 189.781 328.891 188.223 328.82 186.324C328.75 184.426 328.691 182.773 328.645 181.367C328.621 179.961 328.586 178.625 328.539 177.359ZM340.738 188.539C342.801 188.539 345.906 187.602 350.055 185.727C350.312 185.727 350.523 185.82 350.688 186.008C350.852 186.172 350.934 186.371 350.934 186.605C349.996 188.199 348.203 189.441 345.555 190.332C342.906 191.223 340.434 191.375 338.137 190.789C335.535 190.109 333.953 188.645 333.391 186.395C333.344 185.949 333.32 185.352 333.32 184.602C333.32 183.852 333.508 182.867 333.883 181.648C334.281 180.406 334.949 179.234 335.887 178.133C336.824 177.031 337.926 176.164 339.191 175.531C340.457 174.898 341.805 174.582 343.234 174.582C344.594 174.582 346.117 175.051 347.805 175.988C348.602 176.434 349.234 176.938 349.703 177.5C350.172 178.062 350.406 178.637 350.406 179.223C350.406 179.387 350.395 179.551 350.371 179.715C350.324 181.145 349.633 182.047 348.297 182.422C347.711 182.586 347.031 182.668 346.258 182.668L341.195 182.457C339.508 182.457 338.219 182.82 337.328 183.547C336.812 183.945 336.449 184.543 336.238 185.34C336.824 187.473 338.324 188.539 340.738 188.539ZM346.996 177.676C346.48 177.301 345.941 177.031 345.379 176.867C344.816 176.703 344.348 176.621 343.973 176.621C343.598 176.621 342.988 176.75 342.145 177.008C341.301 177.242 340.551 177.512 339.895 177.816C338.277 178.566 337.469 179.352 337.469 180.172C339.344 180.336 340.75 180.418 341.688 180.418C344.289 180.418 346.047 180.195 346.961 179.75C347.523 179.516 347.805 179.223 347.805 178.871C347.805 178.449 347.535 178.051 346.996 177.676ZM366.859 185.164C365.102 187.93 362.758 189.641 359.828 190.297C359.148 190.438 358.527 190.508 357.965 190.508C357.426 190.508 356.969 190.508 356.594 190.508C356.242 190.484 355.844 190.426 355.398 190.332C354.953 190.238 354.543 190.086 354.168 189.875C353.301 189.383 352.867 188.691 352.867 187.801C352.773 187.379 352.727 186.91 352.727 186.395C352.727 185.855 352.844 185.152 353.078 184.285C353.312 183.418 353.734 182.48 354.344 181.473C354.977 180.465 355.738 179.539 356.629 178.695C358.48 176.914 360.484 175.766 362.641 175.25C363.273 175.109 363.848 175.039 364.363 175.039C364.902 175.039 365.383 175.074 365.805 175.145C367.164 175.145 368.078 176.07 368.547 177.922C368.852 179.094 369.027 180.734 369.074 182.844C369.145 184.93 369.203 186.547 369.25 187.695C369.32 188.82 369.473 189.852 369.707 190.789H367.633C367.539 190.156 367.469 189.594 367.422 189.102C367.375 188.609 367.328 188.152 367.281 187.73C367.164 186.746 367.023 185.891 366.859 185.164ZM366.719 179.715C366.719 178.355 366.051 177.676 364.715 177.676C364.551 177.652 364.387 177.641 364.223 177.641C362.512 177.641 360.707 178.461 358.809 180.102C357.918 180.852 357.156 181.695 356.523 182.633C355.586 183.969 355.117 185.164 355.117 186.219C355.117 187.602 355.914 188.422 357.508 188.68C359.617 188.633 361.633 187.672 363.555 185.797C364.375 184.977 365.055 184.086 365.594 183.125C366.344 181.836 366.719 180.699 366.719 179.715ZM383.383 181.93C385.961 181.93 387.25 182.586 387.25 183.898C387.25 184.883 386.535 186.031 385.105 187.344C382.973 189.289 380.102 190.848 376.492 192.02C376.328 192.02 376.141 191.855 375.93 191.527C375.742 191.199 375.59 190.953 375.473 190.789C375.379 190.602 375.309 190.484 375.262 190.438C377.957 189.547 380.172 188.469 381.906 187.203C383.078 186.359 383.664 185.668 383.664 185.129C383.664 184.59 382.973 184.32 381.59 184.32C380.207 184.32 378.18 184.648 375.508 185.305C374.289 185.258 373.234 184.824 372.344 184.004C371.57 183.277 371.184 182.551 371.184 181.824C371.184 181.074 371.395 180.395 371.816 179.785C372.238 179.152 372.801 178.566 373.504 178.027C374.207 177.488 375.027 176.996 375.965 176.551C378.262 175.449 380.641 174.898 383.102 174.898C383.828 174.898 384.531 174.969 385.211 175.109C385.773 175.109 386.102 175.355 386.195 175.848C386.289 176.34 386.336 177.148 386.336 178.273C384.953 177.641 383.395 177.324 381.66 177.324C379.504 177.324 377.723 177.758 376.316 178.625C374.863 179.469 374.113 180.57 374.066 181.93C374.066 182.586 374.547 182.914 375.508 182.914L378.074 182.633C380.277 182.164 382.047 181.93 383.383 181.93ZM396.602 188.539C398.664 188.539 401.77 187.602 405.918 185.727C406.176 185.727 406.387 185.82 406.551 186.008C406.715 186.172 406.797 186.371 406.797 186.605C405.859 188.199 404.066 189.441 401.418 190.332C398.77 191.223 396.297 191.375 394 190.789C391.398 190.109 389.816 188.645 389.254 186.395C389.207 185.949 389.184 185.352 389.184 184.602C389.184 183.852 389.371 182.867 389.746 181.648C390.145 180.406 390.812 179.234 391.75 178.133C392.688 177.031 393.789 176.164 395.055 175.531C396.32 174.898 397.668 174.582 399.098 174.582C400.457 174.582 401.98 175.051 403.668 175.988C404.465 176.434 405.098 176.938 405.566 177.5C406.035 178.062 406.27 178.637 406.27 179.223C406.27 179.387 406.258 179.551 406.234 179.715C406.188 181.145 405.496 182.047 404.16 182.422C403.574 182.586 402.895 182.668 402.121 182.668L397.059 182.457C395.371 182.457 394.082 182.82 393.191 183.547C392.676 183.945 392.312 184.543 392.102 185.34C392.688 187.473 394.188 188.539 396.602 188.539ZM402.859 177.676C402.344 177.301 401.805 177.031 401.242 176.867C400.68 176.703 400.211 176.621 399.836 176.621C399.461 176.621 398.852 176.75 398.008 177.008C397.164 177.242 396.414 177.512 395.758 177.816C394.141 178.566 393.332 179.352 393.332 180.172C395.207 180.336 396.613 180.418 397.551 180.418C400.152 180.418 401.91 180.195 402.824 179.75C403.387 179.516 403.668 179.223 403.668 178.871C403.668 178.449 403.398 178.051 402.859 177.676ZM435.344 181.93C437.922 181.93 439.211 182.586 439.211 183.898C439.211 184.883 438.496 186.031 437.066 187.344C434.934 189.289 432.062 190.848 428.453 192.02C428.289 192.02 428.102 191.855 427.891 191.527C427.703 191.199 427.551 190.953 427.434 190.789C427.34 190.602 427.27 190.484 427.223 190.438C429.918 189.547 432.133 188.469 433.867 187.203C435.039 186.359 435.625 185.668 435.625 185.129C435.625 184.59 434.934 184.32 433.551 184.32C432.168 184.32 430.141 184.648 427.469 185.305C426.25 185.258 425.195 184.824 424.305 184.004C423.531 183.277 423.145 182.551 423.145 181.824C423.145 181.074 423.355 180.395 423.777 179.785C424.199 179.152 424.762 178.566 425.465 178.027C426.168 177.488 426.988 176.996 427.926 176.551C430.223 175.449 432.602 174.898 435.062 174.898C435.789 174.898 436.492 174.969 437.172 175.109C437.734 175.109 438.062 175.355 438.156 175.848C438.25 176.34 438.297 177.148 438.297 178.273C436.914 177.641 435.355 177.324 433.621 177.324C431.465 177.324 429.684 177.758 428.277 178.625C426.824 179.469 426.074 180.57 426.027 181.93C426.027 182.586 426.508 182.914 427.469 182.914L430.035 182.633C432.238 182.164 434.008 181.93 435.344 181.93ZM448.562 188.539C450.625 188.539 453.73 187.602 457.879 185.727C458.137 185.727 458.348 185.82 458.512 186.008C458.676 186.172 458.758 186.371 458.758 186.605C457.82 188.199 456.027 189.441 453.379 190.332C450.73 191.223 448.258 191.375 445.961 190.789C443.359 190.109 441.777 188.645 441.215 186.395C441.168 185.949 441.145 185.352 441.145 184.602C441.145 183.852 441.332 182.867 441.707 181.648C442.105 180.406 442.773 179.234 443.711 178.133C444.648 177.031 445.75 176.164 447.016 175.531C448.281 174.898 449.629 174.582 451.059 174.582C452.418 174.582 453.941 175.051 455.629 175.988C456.426 176.434 457.059 176.938 457.527 177.5C457.996 178.062 458.23 178.637 458.23 179.223C458.23 179.387 458.219 179.551 458.195 179.715C458.148 181.145 457.457 182.047 456.121 182.422C455.535 182.586 454.855 182.668 454.082 182.668L449.02 182.457C447.332 182.457 446.043 182.82 445.152 183.547C444.637 183.945 444.273 184.543 444.062 185.34C444.648 187.473 446.148 188.539 448.562 188.539ZM454.82 177.676C454.305 177.301 453.766 177.031 453.203 176.867C452.641 176.703 452.172 176.621 451.797 176.621C451.422 176.621 450.812 176.75 449.969 177.008C449.125 177.242 448.375 177.512 447.719 177.816C446.102 178.566 445.293 179.352 445.293 180.172C447.168 180.336 448.574 180.418 449.512 180.418C452.113 180.418 453.871 180.195 454.785 179.75C455.348 179.516 455.629 179.223 455.629 178.871C455.629 178.449 455.359 178.051 454.82 177.676ZM461.5 177.359C461.453 176.094 461.406 174.969 461.359 173.984C461.312 172.977 461.277 172.238 461.254 171.77C461.254 171.277 461.066 170.094 460.691 168.219C460.902 167.938 461.102 167.668 461.289 167.41C461.5 167.152 461.793 167.023 462.168 167.023C462.988 167.023 463.621 170.48 464.066 177.395C464.301 181.402 464.418 185.41 464.418 189.418C464.418 190.496 463.668 191.035 462.168 191.035L461.887 191C461.887 189.781 461.852 188.223 461.781 186.324C461.711 184.426 461.652 182.773 461.605 181.367C461.582 179.961 461.547 178.625 461.5 177.359ZM473.699 188.539C475.762 188.539 478.867 187.602 483.016 185.727C483.273 185.727 483.484 185.82 483.648 186.008C483.812 186.172 483.895 186.371 483.895 186.605C482.957 188.199 481.164 189.441 478.516 190.332C475.867 191.223 473.395 191.375 471.098 190.789C468.496 190.109 466.914 188.645 466.352 186.395C466.305 185.949 466.281 185.352 466.281 184.602C466.281 183.852 466.469 182.867 466.844 181.648C467.242 180.406 467.91 179.234 468.848 178.133C469.785 177.031 470.887 176.164 472.152 175.531C473.418 174.898 474.766 174.582 476.195 174.582C477.555 174.582 479.078 175.051 480.766 175.988C481.562 176.434 482.195 176.938 482.664 177.5C483.133 178.062 483.367 178.637 483.367 179.223C483.367 179.387 483.355 179.551 483.332 179.715C483.285 181.145 482.594 182.047 481.258 182.422C480.672 182.586 479.992 182.668 479.219 182.668L474.156 182.457C472.469 182.457 471.18 182.82 470.289 183.547C469.773 183.945 469.41 184.543 469.199 185.34C469.785 187.473 471.285 188.539 473.699 188.539ZM479.957 177.676C479.441 177.301 478.902 177.031 478.34 176.867C477.777 176.703 477.309 176.621 476.934 176.621C476.559 176.621 475.949 176.75 475.105 177.008C474.262 177.242 473.512 177.512 472.855 177.816C471.238 178.566 470.43 179.352 470.43 180.172C472.305 180.336 473.711 180.418 474.648 180.418C477.25 180.418 479.008 180.195 479.922 179.75C480.484 179.516 480.766 179.223 480.766 178.871C480.766 178.449 480.496 178.051 479.957 177.676ZM500.207 187.309C501.168 186.91 502.105 186.547 503.02 186.219C503.934 185.891 504.801 185.727 505.621 185.727C506.465 185.727 506.887 185.984 506.887 186.5C506.887 186.617 506.852 186.805 506.781 187.062C506.734 187.297 506.418 187.59 505.832 187.941C505.27 188.27 504.566 188.586 503.723 188.891C502.902 189.195 502 189.477 501.016 189.734C500.031 189.992 499.07 190.215 498.133 190.402C496.188 190.801 494.805 191 493.984 191C493.164 191 492.273 190.906 491.312 190.719C490.375 190.531 489.496 190.227 488.676 189.805C486.777 188.82 485.828 187.367 485.828 185.445C485.828 185.305 485.828 185.023 485.828 184.602C485.828 184.18 486.004 183.582 486.355 182.809C486.707 182.012 487.234 181.227 487.938 180.453C488.641 179.656 489.461 178.93 490.398 178.273C492.367 176.867 494.43 175.953 496.586 175.531C497.336 175.367 497.957 175.285 498.449 175.285C498.965 175.285 499.387 175.297 499.715 175.32C500.043 175.32 500.383 175.344 500.734 175.391C501.086 175.414 501.391 175.496 501.648 175.637C502.258 175.941 502.562 176.539 502.562 177.43C502.562 177.992 502.164 178.543 501.367 179.082C501.156 179.223 500.969 179.352 500.805 179.469C500.688 178.93 500.535 178.473 500.348 178.098C500.16 177.723 499.75 177.535 499.117 177.535C496.352 178.121 493.973 179 491.98 180.172C489.73 181.508 488.605 182.914 488.605 184.391C488.605 184.555 488.617 184.73 488.641 184.918C488.641 186.418 489.215 187.484 490.363 188.117C491.23 188.586 492.344 188.82 493.703 188.82C495.086 188.82 496.281 188.668 497.289 188.363C498.297 188.035 499.27 187.684 500.207 187.309ZM514.094 187.625L514.164 182C514.164 181.109 514.082 180.348 513.918 179.715H508.469L508.398 177.289H513.672V168.219C513.742 168.008 513.883 167.797 514.094 167.586C514.422 167.258 514.691 167.094 514.902 167.094C515.137 167.094 515.336 167.117 515.5 167.164C515.664 167.211 515.84 167.375 516.027 167.656C516.402 169.203 516.59 171.535 516.59 174.652C516.59 175.426 516.625 176.188 516.695 176.938C517.445 176.844 518.195 176.797 518.945 176.797C518.945 176.797 519.555 176.797 520.773 176.797C521.219 176.797 521.629 176.773 522.004 176.727L521.898 179.258L516.766 179.117L516.941 191.246C516.52 191.434 516.156 191.527 515.852 191.527C514.68 191.527 514.094 190.227 514.094 187.625ZM549.777 181.93C552.355 181.93 553.645 182.586 553.645 183.898C553.645 184.883 552.93 186.031 551.5 187.344C549.367 189.289 546.496 190.848 542.887 192.02C542.723 192.02 542.535 191.855 542.324 191.527C542.137 191.199 541.984 190.953 541.867 190.789C541.773 190.602 541.703 190.484 541.656 190.438C544.352 189.547 546.566 188.469 548.301 187.203C549.473 186.359 550.059 185.668 550.059 185.129C550.059 184.59 549.367 184.32 547.984 184.32C546.602 184.32 544.574 184.648 541.902 185.305C540.684 185.258 539.629 184.824 538.738 184.004C537.965 183.277 537.578 182.551 537.578 181.824C537.578 181.074 537.789 180.395 538.211 179.785C538.633 179.152 539.195 178.566 539.898 178.027C540.602 177.488 541.422 176.996 542.359 176.551C544.656 175.449 547.035 174.898 549.496 174.898C550.223 174.898 550.926 174.969 551.605 175.109C552.168 175.109 552.496 175.355 552.59 175.848C552.684 176.34 552.73 177.148 552.73 178.273C551.348 177.641 549.789 177.324 548.055 177.324C545.898 177.324 544.117 177.758 542.711 178.625C541.258 179.469 540.508 180.57 540.461 181.93C540.461 182.586 540.941 182.914 541.902 182.914L544.469 182.633C546.672 182.164 548.441 181.93 549.777 181.93ZM555.648 186.324C555.648 185.949 555.613 185.434 555.543 184.777C555.496 184.098 555.449 183.359 555.402 182.562C555.355 181.766 555.332 180.957 555.332 180.137C555.332 179.316 555.402 178.566 555.543 177.887C555.848 176.363 556.48 175.602 557.441 175.602C558.098 175.789 558.531 176.023 558.742 176.305C558.977 176.586 559.094 176.938 559.094 177.359C559.094 177.758 558.988 178.262 558.777 178.871C558.004 180.91 557.617 182.75 557.617 184.391C557.617 184.93 557.652 185.504 557.723 186.113C558.098 187.684 559.387 188.469 561.59 188.469C562.738 188.469 563.828 188.27 564.859 187.871C566.828 187.145 568.164 186.289 568.867 185.305C569.078 184.227 569.184 183.289 569.184 182.492C569.184 181.672 569.148 180.945 569.078 180.312C569.031 179.68 568.961 178.988 568.867 178.238C568.797 177.465 568.75 176.621 568.727 175.707C569.031 175.566 569.324 175.496 569.605 175.496C569.91 175.496 570.215 175.648 570.52 175.953C570.848 176.258 571.117 176.832 571.328 177.676C571.562 178.52 571.715 179.516 571.785 180.664C571.855 181.789 571.891 182.961 571.891 184.18C571.914 185.398 571.926 186.582 571.926 187.73C571.926 188.855 571.973 189.828 572.066 190.648C571.785 190.906 571.516 191.035 571.258 191.035C570.32 191.035 569.629 190.098 569.184 188.223C568.879 188.48 568.363 188.797 567.637 189.172C566.09 190.016 564.262 190.578 562.152 190.859C561.754 190.906 561.309 190.93 560.816 190.93C560.324 190.93 559.703 190.836 558.953 190.648C558.227 190.461 557.535 190.027 556.879 189.348C556.223 188.668 555.812 187.66 555.648 186.324ZM574.316 170.609L574.211 166.074C574.211 165.699 574.34 165.406 574.598 165.195C574.855 164.984 575.172 164.879 575.547 164.879C575.922 164.879 576.262 164.984 576.566 165.195C576.871 165.383 576.988 165.652 576.918 166.004L577.164 181.191C578.641 179.223 580.633 177.57 583.141 176.234C585.227 175.109 587.055 174.547 588.625 174.547C590.008 174.547 591.074 174.992 591.824 175.883C592.387 176.586 592.668 177.523 592.668 178.695C592.668 179.844 592.445 180.852 592 181.719C591.578 182.562 591.016 183.383 590.312 184.18C589.609 184.953 588.801 185.68 587.887 186.359C586.973 187.039 586.047 187.648 585.109 188.188C583.328 189.219 581.57 190.074 579.836 190.754C579.695 190.707 579.461 190.695 579.133 190.719C578.805 190.742 578.406 190.754 577.938 190.754C576.672 190.754 575.559 190.602 574.598 190.297C574.363 188.07 574.246 184.684 574.246 180.137L574.316 170.609ZM577.27 187.871C577.27 188.129 577.504 188.258 577.973 188.258C578.465 188.258 579.062 188.164 579.766 187.977C580.469 187.789 581.312 187.473 582.297 187.027C583.305 186.559 584.312 185.961 585.32 185.234C587.664 183.57 589.434 181.613 590.629 179.363C590.324 178.027 589.41 177.359 587.887 177.359C586.504 177.359 584.945 177.875 583.211 178.906C580.75 180.383 578.992 182.211 577.938 184.391C577.492 185.258 577.27 186.137 577.27 187.027C577.27 187.262 577.27 187.449 577.27 187.59C577.27 187.73 577.27 187.824 577.27 187.871ZM599.453 198.031C599.453 201.945 598.422 203.902 596.359 203.902C596.148 203.902 595.879 203.891 595.551 203.867C595.246 203.867 594.777 203.82 594.145 203.727C593.535 203.656 592.914 203.516 592.281 203.305C590.758 202.789 589.785 202.039 589.363 201.055C589.363 200.984 589.422 200.82 589.539 200.562C589.75 200.094 589.855 199.824 589.855 199.754C590.629 200.34 591.461 200.891 592.352 201.406C593.242 201.922 594.191 202.18 595.199 202.18C595.879 202.18 596.418 201.688 596.816 200.703C597.191 199.859 597.379 199.016 597.379 198.172C597.379 195.898 597.215 192.945 596.887 189.312C596.418 183.852 596.184 180.383 596.184 178.906C596.184 177.406 596.207 176.188 596.254 175.25C596.184 174.688 596.441 174.266 597.027 173.984C597.473 173.773 597.965 173.668 598.504 173.668C598.293 175.121 598.188 176.27 598.188 177.113C598.188 177.957 598.188 178.836 598.188 179.75C598.211 180.641 598.281 181.953 598.398 183.688C598.539 185.422 598.691 187.156 598.855 188.891C599.254 192.664 599.453 195.711 599.453 198.031ZM597.238 166.145C597.613 166.402 597.801 166.812 597.801 167.375C597.801 167.938 597.59 168.277 597.168 168.395C597.145 168.395 597.051 168.395 596.887 168.395C596.746 168.395 596.5 168.242 596.148 167.938C596.148 167.188 596.324 166.648 596.676 166.32C596.816 166.203 597.004 166.145 597.238 166.145ZM607.891 188.539C609.953 188.539 613.059 187.602 617.207 185.727C617.465 185.727 617.676 185.82 617.84 186.008C618.004 186.172 618.086 186.371 618.086 186.605C617.148 188.199 615.355 189.441 612.707 190.332C610.059 191.223 607.586 191.375 605.289 190.789C602.688 190.109 601.105 188.645 600.543 186.395C600.496 185.949 600.473 185.352 600.473 184.602C600.473 183.852 600.66 182.867 601.035 181.648C601.434 180.406 602.102 179.234 603.039 178.133C603.977 177.031 605.078 176.164 606.344 175.531C607.609 174.898 608.957 174.582 610.387 174.582C611.746 174.582 613.27 175.051 614.957 175.988C615.754 176.434 616.387 176.938 616.855 177.5C617.324 178.062 617.559 178.637 617.559 179.223C617.559 179.387 617.547 179.551 617.523 179.715C617.477 181.145 616.785 182.047 615.449 182.422C614.863 182.586 614.184 182.668 613.41 182.668L608.348 182.457C606.66 182.457 605.371 182.82 604.48 183.547C603.965 183.945 603.602 184.543 603.391 185.34C603.977 187.473 605.477 188.539 607.891 188.539ZM614.148 177.676C613.633 177.301 613.094 177.031 612.531 176.867C611.969 176.703 611.5 176.621 611.125 176.621C610.75 176.621 610.141 176.75 609.297 177.008C608.453 177.242 607.703 177.512 607.047 177.816C605.43 178.566 604.621 179.352 604.621 180.172C606.496 180.336 607.902 180.418 608.84 180.418C611.441 180.418 613.199 180.195 614.113 179.75C614.676 179.516 614.957 179.223 614.957 178.871C614.957 178.449 614.688 178.051 614.148 177.676ZM634.398 187.309C635.359 186.91 636.297 186.547 637.211 186.219C638.125 185.891 638.992 185.727 639.812 185.727C640.656 185.727 641.078 185.984 641.078 186.5C641.078 186.617 641.043 186.805 640.973 187.062C640.926 187.297 640.609 187.59 640.023 187.941C639.461 188.27 638.758 188.586 637.914 188.891C637.094 189.195 636.191 189.477 635.207 189.734C634.223 189.992 633.262 190.215 632.324 190.402C630.379 190.801 628.996 191 628.176 191C627.355 191 626.465 190.906 625.504 190.719C624.566 190.531 623.688 190.227 622.867 189.805C620.969 188.82 620.02 187.367 620.02 185.445C620.02 185.305 620.02 185.023 620.02 184.602C620.02 184.18 620.195 183.582 620.547 182.809C620.898 182.012 621.426 181.227 622.129 180.453C622.832 179.656 623.652 178.93 624.59 178.273C626.559 176.867 628.621 175.953 630.777 175.531C631.527 175.367 632.148 175.285 632.641 175.285C633.156 175.285 633.578 175.297 633.906 175.32C634.234 175.32 634.574 175.344 634.926 175.391C635.277 175.414 635.582 175.496 635.84 175.637C636.449 175.941 636.754 176.539 636.754 177.43C636.754 177.992 636.355 178.543 635.559 179.082C635.348 179.223 635.16 179.352 634.996 179.469C634.879 178.93 634.727 178.473 634.539 178.098C634.352 177.723 633.941 177.535 633.309 177.535C630.543 178.121 628.164 179 626.172 180.172C623.922 181.508 622.797 182.914 622.797 184.391C622.797 184.555 622.809 184.73 622.832 184.918C622.832 186.418 623.406 187.484 624.555 188.117C625.422 188.586 626.535 188.82 627.895 188.82C629.277 188.82 630.473 188.668 631.48 188.363C632.488 188.035 633.461 187.684 634.398 187.309ZM648.285 187.625L648.355 182C648.355 181.109 648.273 180.348 648.109 179.715H642.66L642.59 177.289H647.863V168.219C647.934 168.008 648.074 167.797 648.285 167.586C648.613 167.258 648.883 167.094 649.094 167.094C649.328 167.094 649.527 167.117 649.691 167.164C649.855 167.211 650.031 167.375 650.219 167.656C650.594 169.203 650.781 171.535 650.781 174.652C650.781 175.426 650.816 176.188 650.887 176.938C651.637 176.844 652.387 176.797 653.137 176.797C653.137 176.797 653.746 176.797 654.965 176.797C655.41 176.797 655.82 176.773 656.195 176.727L656.09 179.258L650.957 179.117L651.133 191.246C650.711 191.434 650.348 191.527 650.043 191.527C648.871 191.527 648.285 190.227 648.285 187.625Z" fill="black"/>
</svg>
