<svg width="80" height="80" viewBox="0 0 80 80" fill="none" xmlns="http://www.w3.org/2000/svg">
<path d="M54.375 37.5H42.5V25.625C42.5 25.2812 42.2188 25 41.875 25H38.125C37.7812 25 37.5 25.2812 37.5 25.625V37.5H25.625C25.2812 37.5 25 37.7812 25 38.125V41.875C25 42.2188 25.2812 42.5 25.625 42.5H37.5V54.375C37.5 54.7188 37.7812 55 38.125 55H41.875C42.2188 55 42.5 54.7188 42.5 54.375V42.5H54.375C54.7188 42.5 55 42.2188 55 41.875V38.125C55 37.7812 54.7188 37.5 54.375 37.5Z" fill="url(#paint0_linear_1273_3189)"/>
<path d="M40 5C20.6719 5 5 20.6719 5 40C5 59.3281 20.6719 75 40 75C59.3281 75 75 59.3281 75 40C75 20.6719 59.3281 5 40 5ZM40 69.0625C23.9531 69.0625 10.9375 56.0469 10.9375 40C10.9375 23.9531 23.9531 10.9375 40 10.9375C56.0469 10.9375 69.0625 23.9531 69.0625 40C69.0625 56.0469 56.0469 69.0625 40 69.0625Z" fill="url(#paint1_linear_1273_3189)"/>
<defs>
<linearGradient id="paint0_linear_1273_3189" x1="40.3788" y1="57.5" x2="40.3788" y2="36.6667" gradientUnits="userSpaceOnUse">
<stop offset="0.0756224" stop-color="#A32561"/>
<stop offset="0.479167" stop-color="#D9257C"/>
<stop offset="1" stop-color="#D9247B"/>
</linearGradient>
<linearGradient id="paint1_linear_1273_3189" x1="40.8838" y1="80.8333" x2="40.8838" y2="32.2222" gradientUnits="userSpaceOnUse">
<stop offset="0.0756224" stop-color="#A32561"/>
<stop offset="0.479167" stop-color="#D9257C"/>
<stop offset="1" stop-color="#D9247B"/>
</linearGradient>
</defs>
</svg>
