<svg width="40" height="40" viewBox="0 0 40 40" fill="none" xmlns="http://www.w3.org/2000/svg">
<path fill-rule="evenodd" clip-rule="evenodd" d="M39.6032 7.72277L30.4943 0L27.92 2.9703L37.0289 10.6931L39.6032 7.72277ZM11.6832 3.16827L9.10891 0.197971L0 7.72272L2.57426 10.693L11.6832 3.16827ZM17.8218 12.2771H20.7921V22.7722L28.7129 27.5247L27.1287 29.9009L17.8218 24.1583V12.2771ZM19.802 4.35634C9.90099 4.35634 1.9802 12.2771 1.9802 22.1781C1.9802 32.0791 9.90099 39.9999 19.802 39.9999C29.703 39.9999 37.6238 32.0791 37.6238 22.1781C37.6238 12.2771 29.703 4.35634 19.802 4.35634ZM5.94059 22.1781C5.94059 29.9009 12.0792 36.0395 19.802 36.0395C27.5248 36.0395 33.6634 29.9009 33.6634 22.1781C33.6634 14.4553 27.5248 8.31673 19.802 8.31673C12.0792 8.31673 5.94059 14.4553 5.94059 22.1781Z" fill="white"/>
</svg>
