<svg width="46" height="46" viewBox="0 0 46 46" fill="none" xmlns="http://www.w3.org/2000/svg">
<path d="M17.25 6H7.875C7.37772 6 6.90081 6.19754 6.54917 6.54917C6.19754 6.90081 6 7.37772 6 7.875V17.25C6 17.7473 6.19754 18.2242 6.54917 18.5758C6.90081 18.9275 7.37772 19.125 7.875 19.125H17.25C17.7473 19.125 18.2242 18.9275 18.5758 18.5758C18.9275 18.2242 19.125 17.7473 19.125 17.25V7.875C19.125 7.37772 18.9275 6.90081 18.5758 6.54917C18.2242 6.19754 17.7473 6 17.25 6V6ZM17.25 26.625H7.875C7.37772 26.625 6.90081 26.8225 6.54917 27.1742C6.19754 27.5258 6 28.0027 6 28.5V37.875C6 38.3723 6.19754 38.8492 6.54917 39.2008C6.90081 39.5525 7.37772 39.75 7.875 39.75H17.25C17.7473 39.75 18.2242 39.5525 18.5758 39.2008C18.9275 38.8492 19.125 38.3723 19.125 37.875V28.5C19.125 28.0027 18.9275 27.5258 18.5758 27.1742C18.2242 26.8225 17.7473 26.625 17.25 26.625ZM37.875 6H28.5C28.0027 6 27.5258 6.19754 27.1742 6.54917C26.8225 6.90081 26.625 7.37772 26.625 7.875V17.25C26.625 17.7473 26.8225 18.2242 27.1742 18.5758C27.5258 18.9275 28.0027 19.125 28.5 19.125H37.875C38.3723 19.125 38.8492 18.9275 39.2008 18.5758C39.5525 18.2242 39.75 17.7473 39.75 17.25V7.875C39.75 7.37772 39.5525 6.90081 39.2008 6.54917C38.8492 6.19754 38.3723 6 37.875 6V6ZM37.875 26.625H28.5C28.0027 26.625 27.5258 26.8225 27.1742 27.1742C26.8225 27.5258 26.625 28.0027 26.625 28.5V37.875C26.625 38.3723 26.8225 38.8492 27.1742 39.2008C27.5258 39.5525 28.0027 39.75 28.5 39.75H37.875C38.3723 39.75 38.8492 39.5525 39.2008 39.2008C39.5525 38.8492 39.75 38.3723 39.75 37.875V28.5C39.75 28.0027 39.5525 27.5258 39.2008 27.1742C38.8492 26.8225 38.3723 26.625 37.875 26.625Z" stroke="url(#paint0_linear_1430_1375)" stroke-width="2" stroke-linejoin="round"/>
<defs>
<linearGradient id="paint0_linear_1430_1375" x1="23.3011" y1="42.5625" x2="23.3011" y2="19.125" gradientUnits="userSpaceOnUse">
<stop offset="0.0756224" stop-color="#A32561"/>
<stop offset="0.479167" stop-color="#D9257C"/>
<stop offset="1" stop-color="#D9247B"/>
</linearGradient>
</defs>
</svg>
