<svg width="14" height="20" viewBox="0 0 14 20" fill="none" xmlns="http://www.w3.org/2000/svg">
<path d="M2 0H12C12.5304 0 13.0391 0.210714 13.4142 0.585786C13.7893 0.960859 14 1.46957 14 2V18C14 18.5304 13.7893 19.0391 13.4142 19.4142C13.0391 19.7893 12.5304 20 12 20H2C1.46957 20 0.960859 19.7893 0.585786 19.4142C0.210714 19.0391 0 18.5304 0 18V2C0 1.46957 0.210714 0.960859 0.585786 0.585786C0.960859 0.210714 1.46957 0 2 0ZM2 2V6H12V2H2ZM2 8V10H4V8H2ZM6 8V10H8V8H6ZM10 8V10H12V8H10ZM2 12V14H4V12H2ZM6 12V14H8V12H6ZM10 12V14H12V12H10ZM2 16V18H4V16H2ZM6 16V18H8V16H6ZM10 16V18H12V16H10Z" fill="black" fill-opacity="0.5"/>
</svg>
