<svg width="19" height="20" viewBox="0 0 19 20" fill="none" xmlns="http://www.w3.org/2000/svg">
<path fill-rule="evenodd" clip-rule="evenodd" d="M15.3065 2H16.2912C17.3744 2 18.2606 2.9 18.2606 4V18C18.2606 19.1 17.3744 20 16.2912 20H2.50552C1.42236 20 0.536133 19.1 0.536133 18V4C0.536133 2.9 1.42236 2 2.50552 2H3.49021V0H5.4596V2H13.3372V0H15.3065V2ZM2.50552 18H16.2912V8H2.50552V18ZM2.50552 6V4H16.2912V6H2.50552ZM13.8196 10.53L7.98041 16.46L4.85893 13.29L5.9027 12.23L7.98041 14.34L12.7759 9.47L13.8196 10.53Z" fill="black"/>
</svg>
