<svg width="42" height="40" viewBox="0 0 42 40" fill="none" xmlns="http://www.w3.org/2000/svg">
<path d="M4.72333 33.9993L4.72333 12.4405C4.72333 11.9505 4.92249 11.4804 5.27699 11.1339C5.6315 10.7873 6.11231 10.5927 6.61366 10.5927C7.115 10.5927 7.59581 10.7873 7.95032 11.1339C8.30482 11.4804 8.50398 11.9505 8.50398 12.4405L8.50398 32.1514L28.6675 32.1514C29.1688 32.1514 29.6496 32.3461 30.0041 32.6926C30.3586 33.0392 30.5578 33.5092 30.5578 33.9993C30.5578 34.4894 30.3586 34.9594 30.0041 35.3059C29.6496 35.6525 29.1688 35.8472 28.6675 35.8472L6.61366 35.8472C6.11231 35.8472 5.6315 35.6525 5.277 35.3059C4.92249 34.9594 4.72333 34.4894 4.72333 33.9993ZM11.0244 27.8396L11.0244 6.2809C11.0244 5.79081 11.2236 5.3208 11.5781 4.97425C11.9326 4.6277 12.4134 4.43301 12.9147 4.43301L34.9686 4.43301C35.4699 4.43301 35.9507 4.6277 36.3052 4.97425C36.6597 5.32079 36.8589 5.79081 36.8589 6.2809L36.8589 27.8396C36.8589 28.3297 36.6597 28.7997 36.3052 29.1463C35.9507 29.4928 35.4699 29.6875 34.9686 29.6875L12.9147 29.6875C12.4134 29.6875 11.9326 29.4928 11.5781 29.1463C11.2236 28.7998 11.0244 28.3297 11.0244 27.8396ZM14.8051 25.9917L33.0782 25.9917L33.0782 8.12879L14.8051 8.1288L14.8051 25.9917Z" fill="#CAC9C9"/>
<rect x="17.0732" y="11.9478" width="14.1144" height="2.16819" rx="1.0841" fill="#C4C4C4"/>
<rect x="17.0732" y="15.89" width="14.1144" height="2.16819" rx="1.0841" fill="#C4C4C4"/>
<rect x="17.0732" y="19.8322" width="10.0817" height="1.97108" rx="0.985542" fill="#C4C4C4"/>
</svg>
