<svg width="18" height="18" viewBox="0 0 18 18" fill="none" xmlns="http://www.w3.org/2000/svg">
<path d="M9 16.5C4.85775 16.5 1.5 13.1422 1.5 9C1.5 4.85775 4.85775 1.5 9 1.5C13.1422 1.5 16.5 4.85775 16.5 9C16.4955 13.14 13.14 16.4955 9 16.5ZM9 3C7.81331 3 6.65327 3.35189 5.66658 4.01118C4.67988 4.67047 3.91085 5.60754 3.45672 6.7039C3.0026 7.80026 2.88378 9.00666 3.11529 10.1705C3.3468 11.3344 3.91824 12.4035 4.75736 13.2426C5.59647 14.0818 6.66557 14.6532 7.82946 14.8847C8.99334 15.1162 10.1997 14.9974 11.2961 14.5433C12.3925 14.0892 13.3295 13.3201 13.9888 12.3334C14.6481 11.3467 15 10.1867 15 9C14.9982 7.40925 14.3655 5.88416 13.2407 4.75933C12.1158 3.6345 10.5908 3.00179 9 3V3ZM12.75 9.75H8.25V5.25H9.75V8.25H12.75V9.75Z" fill="url(#paint0_linear_1437_208)"/>
<defs>
<linearGradient id="paint0_linear_1437_208" x1="9.18939" y1="10.6871" x2="9.18939" y2="16.5" gradientUnits="userSpaceOnUse">
<stop stop-color="#E06811"/>
<stop offset="0.453125" stop-color="#F78B0D"/>
<stop offset="1" stop-color="#EFCA19"/>
</linearGradient>
</defs>
</svg>
