<svg width="68" height="77" viewBox="0 0 68 77" fill="none" xmlns="http://www.w3.org/2000/svg">
<g clip-path="url(#clip0_1450_174)">
<path d="M1.34053 34.2703C-6.36656 77.5559 21.3268 69.3063 28.1597 68.3863C34.9927 67.4662 51.0476 75.7282 61.13 55.5426C71.2078 35.3571 70.3565 15.4062 57.5419 14.6034C44.7318 13.8007 28.8462 -4.80409 18.4298 1.1855C6.72726 7.91608 2.69522 26.6567 1.34053 34.2703Z" fill="#F8F3FF"/>
<path d="M41.2086 49.5096C41.0759 48.9044 41.3459 48.4166 41.8127 48.4166H43.6754C44.1422 48.4166 44.6319 48.9106 44.7692 49.5096L47.2681 60.7046C47.4008 61.3097 47.1308 61.7975 46.664 61.7975H44.8013C44.3344 61.7975 43.8447 61.3035 43.7074 60.7046L41.2086 49.5096Z" fill="#473961"/>
<path d="M23.3452 49.5096C23.478 48.9044 23.2079 48.4166 22.7411 48.4166H20.8784C20.4116 48.4166 19.9219 48.9106 19.7846 49.5096L17.2857 60.7046C17.153 61.3097 17.423 61.7975 17.8899 61.7975H19.7526C20.2194 61.7975 20.7091 61.3035 20.8464 60.7046L23.3452 49.5096Z" fill="#473961"/>
<path d="M32.2789 61.7978C42.0457 61.7978 49.9631 51.1155 49.9631 37.9382C49.9631 24.7609 42.0457 14.0786 32.2789 14.0786C22.5122 14.0786 14.5947 24.7609 14.5947 37.9382C14.5947 51.1155 22.5122 61.7978 32.2789 61.7978Z" fill="url(#paint0_linear_1450_174)"/>
<path d="M32.279 57.4443C40.2637 57.4443 46.7366 48.711 46.7366 37.938C46.7366 27.1649 40.2637 18.4316 32.279 18.4316C24.2942 18.4316 17.8213 27.1649 17.8213 37.938C17.8213 48.711 24.2942 57.4443 32.279 57.4443Z" fill="#F8F3FF"/>
<path d="M40.2162 48.6474C44.6004 42.7322 44.6004 33.1418 40.2162 27.2267C35.832 21.3115 28.7239 21.3115 24.3397 27.2267C19.9555 33.1418 19.9555 42.7322 24.3397 48.6474C28.7239 54.5625 35.832 54.5625 40.2162 48.6474Z" fill="url(#paint1_linear_1450_174)"/>
<path d="M37.9314 45.5655C41.0538 41.3528 41.0538 34.5227 37.9314 30.3099C34.809 26.0972 29.7466 26.0972 26.6243 30.3099C23.5019 34.5227 23.5019 41.3528 26.6243 45.5655C29.7466 49.7783 34.809 49.7783 37.9314 45.5655Z" fill="#F8F3FF"/>
<path d="M27.5098 37.9381C27.5098 41.4887 29.6425 44.3662 32.2741 44.3662C34.9057 44.3662 37.0384 41.4887 37.0384 37.9381C37.0384 34.3876 34.9057 31.5101 32.2741 31.5101C29.6471 31.5101 27.5098 34.3876 27.5098 37.9381Z" fill="url(#paint2_linear_1450_174)"/>
<path d="M33.8165 37.9515C33.8228 36.8056 33.1395 35.8698 32.2902 35.8612C31.4409 35.8527 30.7473 36.7746 30.741 37.9205C30.7346 39.0663 31.418 40.0022 32.2673 40.0107C33.1165 40.0193 33.8101 39.0973 33.8165 37.9515Z" fill="#D8EAF0"/>
<path d="M31.5932 37.3082H9.05664V38.679H31.5932C31.9717 38.679 32.2786 38.3722 32.2786 37.9936C32.2786 37.6151 31.9717 37.3082 31.5932 37.3082Z" fill="#C0A5F2"/>
<path d="M9.05629 37.3081L6.92815 33.4797C6.64897 32.9733 6.8 32.5658 7.26682 32.5658H12.562C13.0288 32.5658 13.6375 32.9795 13.9167 33.4797L16.0449 37.3081H9.05629Z" fill="#675487"/>
<path d="M9.05629 38.6787L6.92815 42.5071C6.64897 43.0135 6.8 43.421 7.26682 43.421H12.562C13.0288 43.421 13.6375 43.0073 13.9167 42.5071L16.0449 38.6787H9.05629Z" fill="#675487"/>
<path d="M53.2027 62.2543H11.4178C11.2301 62.2543 11.0791 62.0506 11.0791 61.7974C11.0791 61.5442 11.2301 61.3405 11.4178 61.3405H53.2027C53.3903 61.3405 53.5413 61.5442 53.5413 61.7974C53.5413 62.0506 53.3903 62.2543 53.2027 62.2543Z" fill="#473961"/>
<g clip-path="url(#clip1_1450_174)">
<path d="M47.2775 15.9614C47.2775 15.9614 47.0664 14.601 47.6764 13.6657C48.3099 12.7587 55.7948 7.91211 55.7948 7.91211C55.7948 7.91211 56.8742 8.62068 57.1792 8.79073C57.4842 8.96079 57.8362 8.96079 57.8362 8.96079L47.2775 15.9614Z" fill="#E5E5E5"/>
<path d="M47.746 16.3582C47.746 16.3582 48.3091 14.601 47.6991 13.694C47.089 12.7587 39.2521 7.91211 39.2521 7.91211C39.2521 7.91211 38.2901 8.62068 37.9851 8.79073C37.6801 8.96079 37.3516 8.96079 37.3516 8.96079L47.746 16.3582Z" fill="#E5E5E5"/>
<path d="M57.9535 8.64905H57.6719L48.873 14.8278L49.2719 14.8844L57.9535 8.64905Z" fill="#F9A431"/>
<path d="M58.0004 24.8327L48.92 32.4853L48.8496 15.0545L57.9535 8.64905L58.0004 24.8327Z" fill="#FFC23A"/>
<path d="M37.0703 8.62073H37.3284L46.1273 14.7994L45.8223 14.9411L37.0703 8.62073Z" fill="#F9A431"/>
<path d="M37 24.8327L46.0804 32.4569L46.1508 15.0262L37.0704 8.62073L37 24.8327Z" fill="#FFC23A"/>
<path d="M45.8926 14.856L46.0803 14.771C46.0803 14.771 46.7373 15.3945 47.582 15.3662C48.4267 15.3379 48.8725 14.856 48.8725 14.856L49.1306 14.8844C49.1306 14.8844 48.5674 15.6213 47.9808 15.763C47.3943 15.9047 46.3384 15.4796 46.1741 15.4229C45.9864 15.3379 45.8926 14.856 45.8926 14.856Z" fill="#F9A431"/>
<path d="M49.1305 32.3435C48.1685 33.1938 46.878 33.1938 45.916 32.3435C45.916 26.5049 45.916 20.6947 45.916 14.8561C46.878 15.7064 48.1685 15.7064 49.1305 14.8561C49.1305 20.6947 49.1305 26.5049 49.1305 32.3435Z" fill="#F9A431"/>
<path d="M37.0704 8.62073L37 24.8327L41.2704 28.4039L41.5989 11.8235L37.0704 8.62073Z" fill="#F9A431"/>
<path d="M57.3667 8.87572L56.5455 8.42224C56.5455 8.42224 48.0751 13.6373 47.2773 15.3379C47.2773 15.3379 48.2628 15.6213 48.8494 14.8277L57.3667 8.87572Z" fill="#CECECD"/>
<path d="M37.7041 8.90407L46.0806 14.771C46.0806 14.771 46.7376 15.3095 47.2773 15.3379L47.7466 14.686L38.5723 8.42224C38.5723 8.42224 37.9387 8.76235 37.7041 8.90407Z" fill="#CECECD"/>
<path d="M42.5842 11.4266C43.1708 11.9935 44.0389 12.4469 44.0389 12.4469C44.0389 12.4469 43.382 11.1999 44.0389 9.78273L42.9127 10.3212L42.2322 8.98914C42.2088 8.98914 41.9272 10.633 42.5842 11.4266Z" fill="#EA5645"/>
<path d="M55.1139 14.9695L56.7798 22.5937L55.1608 23.5857L54.9027 21.8851L53.0022 23.0471L52.6268 25.1445L51.0547 26.1082L53.2837 16.1032L55.1139 14.9695ZM53.3072 21.3749L54.6681 20.5246L54.1284 17.0668L53.3072 21.3749Z" fill="#BC4436"/>
</g>
</g>
<defs>
<linearGradient id="paint0_linear_1450_174" x1="32.2789" y1="14.0786" x2="32.2789" y2="61.7978" gradientUnits="userSpaceOnUse">
<stop stop-color="#122052"/>
<stop offset="1" stop-color="#390B52"/>
</linearGradient>
<linearGradient id="paint1_linear_1450_174" x1="24.3397" y1="27.2267" x2="44.8342" y2="42.4168" gradientUnits="userSpaceOnUse">
<stop stop-color="#112152"/>
<stop offset="1" stop-color="#390B52"/>
</linearGradient>
<linearGradient id="paint2_linear_1450_174" x1="32.2741" y1="31.5101" x2="32.2741" y2="44.3662" gradientUnits="userSpaceOnUse">
<stop stop-color="#122052"/>
<stop offset="1" stop-color="#390B52"/>
</linearGradient>
<clipPath id="clip0_1450_174">
<rect width="68" height="76.4835" fill="white"/>
</clipPath>
<clipPath id="clip1_1450_174">
<rect width="21" height="25.0549" fill="white" transform="translate(37 7.91211)"/>
</clipPath>
</defs>
</svg>
