<svg width="19" height="21" viewBox="0 0 19 21" fill="none" xmlns="http://www.w3.org/2000/svg">
<path d="M13.5 10C14.9587 10 16.3576 10.5795 17.3891 11.6109C18.4205 12.6424 19 14.0413 19 15.5C19 16.9587 18.4205 18.3576 17.3891 19.3891C16.3576 20.4205 14.9587 21 13.5 21C12.0413 21 10.6424 20.4205 9.61091 19.3891C8.57946 18.3576 8 16.9587 8 15.5C8 14.0413 8.57946 12.6424 9.61091 11.6109C10.6424 10.5795 12.0413 10 13.5 10ZM1.503 2.627L1.5 4.75V15.254C1.5 16.116 1.84241 16.9426 2.4519 17.5521C3.0614 18.1616 3.88805 18.504 4.75 18.504L7.735 18.505C8.02195 19.0537 8.3856 19.5588 8.815 20.005H4.75C4.12614 20.005 3.50838 19.8821 2.93202 19.6433C2.35566 19.4046 1.83198 19.0546 1.39089 18.6134C0.949798 18.1722 0.599936 17.6485 0.361285 17.0721C0.122634 16.4956 -0.000131234 15.8779 1.05273e-07 15.254V4.75C1.05273e-07 3.77 0.627 2.935 1.503 2.627ZM14.284 12.589C14.2005 12.5314 14.1015 12.5005 14 12.5005C13.8985 12.5005 13.7995 12.5314 13.716 12.589L13.646 12.646L13.589 12.716C13.5314 12.7995 13.5005 12.8985 13.5005 13C13.5005 13.1015 13.5314 13.2005 13.589 13.284L13.646 13.354L15.292 14.999L10.494 15L10.404 15.008C10.3041 15.0263 10.2121 15.0745 10.1403 15.1463C10.0685 15.2181 10.0203 15.3101 10.002 15.41L9.994 15.5L10.002 15.59C10.0203 15.6899 10.0685 15.7819 10.1403 15.8537C10.2121 15.9255 10.3041 15.9737 10.404 15.992L10.494 16L15.294 15.999L13.646 17.646L13.589 17.716C13.5231 17.8122 13.493 17.9285 13.5038 18.0446C13.5146 18.1607 13.5656 18.2694 13.6481 18.3519C13.7306 18.4344 13.8393 18.4854 13.9554 18.4962C14.0715 18.507 14.1878 18.4769 14.284 18.411L14.354 18.354L16.884 15.821L16.92 15.771L16.962 15.691L16.988 15.608L16.998 15.544V15.456L16.988 15.392L16.977 15.349L16.945 15.271L16.921 15.229L16.883 15.179L14.353 12.646L14.284 12.589ZM13.75 0C14.0455 0 14.3381 0.058198 14.611 0.171271C14.884 0.284344 15.1321 0.450078 15.341 0.65901C15.5499 0.867941 15.7157 1.11598 15.8287 1.38896C15.9418 1.66194 16 1.95453 16 2.25V9.498C15.5188 9.29761 15.0152 9.15625 14.5 9.077V2.25C14.5 2.05109 14.421 1.86032 14.2803 1.71967C14.1397 1.57902 13.9489 1.5 13.75 1.5H4.75C4.55109 1.5 4.36032 1.57902 4.21967 1.71967C4.07902 1.86032 4 2.05109 4 2.25V15.25C4 15.664 4.336 16 4.75 16H7.019C7.059 16.52 7.159 17.022 7.314 17.5H4.75C4.15326 17.5 3.58097 17.2629 3.15901 16.841C2.73705 16.419 2.5 15.8467 2.5 15.25V2.25C2.5 1.65326 2.73705 1.08097 3.15901 0.65901C3.58097 0.237053 4.15326 0 4.75 0H13.75Z" fill="white"/>
</svg>
