<svg width="28" height="28" viewBox="0 0 28 28" fill="none" xmlns="http://www.w3.org/2000/svg">
<path d="M12.834 19.8334H4.66732C4.04848 19.8334 3.45499 19.5876 3.0174 19.15C2.57982 18.7124 2.33398 18.1189 2.33398 17.5001V3.50008C2.33398 2.88124 2.57982 2.28775 3.0174 1.85017C3.45499 1.41258 4.04848 1.16675 4.66732 1.16675H18.6673V3.50008H4.66732V17.5001H12.834V15.1667L17.5007 18.6667L12.834 22.1667V19.8334ZM22.1673 24.5001V8.16675H9.33398V15.1667H7.00065V8.16675C7.00065 7.54791 7.24648 6.95442 7.68407 6.51683C8.12165 6.07925 8.71515 5.83341 9.33398 5.83341H22.1673C22.7862 5.83341 23.3796 6.07925 23.8172 6.51683C24.2548 6.95442 24.5007 7.54791 24.5007 8.16675V24.5001C24.5007 25.1189 24.2548 25.7124 23.8172 26.15C23.3796 26.5876 22.7862 26.8334 22.1673 26.8334H9.33398C8.71515 26.8334 8.12165 26.5876 7.68407 26.15C7.24648 25.7124 7.00065 25.1189 7.00065 24.5001V22.1667H9.33398V24.5001H22.1673Z" fill="white"/>
</svg>
