<svg width="48" height="48" viewBox="0 0 48 48" fill="none" xmlns="http://www.w3.org/2000/svg">
<g opacity="0.3">
<circle cx="24" cy="24" r="24" fill="url(#paint0_linear_1450_2437)"/>
<path d="M15.3376 15.3376C15.6657 15.0095 16.1108 14.8252 16.5748 14.8252C17.0389 14.8252 17.4839 15.0095 17.8121 15.3376L24.0001 21.5256L30.1881 15.3376C30.5181 15.0188 30.9602 14.8424 31.419 14.8464C31.8779 14.8504 32.3168 15.0344 32.6413 15.3589C32.9657 15.6834 33.1498 16.1223 33.1537 16.5811C33.1577 17.04 32.9813 17.482 32.6626 17.8121L26.4746 24.0001L32.6626 30.1881C32.9813 30.5181 33.1577 30.9602 33.1537 31.419C33.1498 31.8779 32.9657 32.3168 32.6413 32.6413C32.3168 32.9657 31.8779 33.1498 31.419 33.1537C30.9602 33.1577 30.5181 32.9813 30.1881 32.6626L24.0001 26.4746L17.8121 32.6626C17.482 32.9813 17.04 33.1577 16.5811 33.1537C16.1223 33.1498 15.6834 32.9657 15.3589 32.6413C15.0344 32.3168 14.8504 31.8779 14.8464 31.419C14.8424 30.9602 15.0188 30.5181 15.3376 30.1881L21.5256 24.0001L15.3376 17.8121C15.0095 17.4839 14.8252 17.0389 14.8252 16.5748C14.8252 16.1108 15.0095 15.6657 15.3376 15.3376V15.3376Z" fill="white"/>
</g>
<defs>
<linearGradient id="paint0_linear_1450_2437" x1="24.606" y1="52" x2="24.606" y2="18.6667" gradientUnits="userSpaceOnUse">
<stop offset="0.0756224" stop-color="#A32561"/>
<stop offset="0.479167" stop-color="#D9257C"/>
<stop offset="1" stop-color="#D9247B"/>
</linearGradient>
</defs>
</svg>
