<svg width="31" height="25" viewBox="0 0 31 25" fill="none" xmlns="http://www.w3.org/2000/svg">
<path d="M1.40909 1.76389L3.21273 0L26.7727 23.2222L24.9832 25L20.6432 20.7222C19.0227 21.25 17.3036 21.5278 15.5 21.5278C8.45455 21.5278 2.43773 17.2083 0 11.1111C0.972273 8.66667 2.52227 6.51389 4.495 4.80556L1.40909 1.76389ZM15.5 6.94444C16.6211 6.94444 17.6964 7.38343 18.4891 8.16483C19.2819 8.94623 19.7273 10.006 19.7273 11.1111C19.7273 11.5972 19.6427 12.0694 19.4877 12.5L14.0909 7.18056C14.5277 7.02778 15.0068 6.94444 15.5 6.94444ZM15.5 0.694444C22.5455 0.694444 28.5623 5.01389 31 11.1111C29.8445 14 27.8859 16.5 25.3636 18.3194L23.3627 16.3333C25.2791 15.0278 26.8573 13.25 27.9282 11.1111C25.6032 6.44444 20.7982 3.47222 15.5 3.47222C13.9641 3.47222 12.4564 3.72222 11.0473 4.16667L8.87727 2.04167C10.9064 1.18056 13.1468 0.694444 15.5 0.694444ZM3.07182 11.1111C5.39682 15.7778 10.2018 18.75 15.5 18.75C16.4723 18.75 17.4305 18.6528 18.3182 18.4583L15.1055 15.2778C13.0905 15.0694 11.4841 13.4861 11.2727 11.5L6.48182 6.76389C5.08682 7.94444 3.91727 9.41667 3.07182 11.1111Z" fill="black" fill-opacity="0.3"/>
</svg>
