<svg width="45" height="45" viewBox="0 0 45 45" fill="none" xmlns="http://www.w3.org/2000/svg">
<path d="M33.5503 9.12366L33.6811 8.98942C33.8119 8.85518 34.0352 8.79093 34.2398 8.82906C34.342 8.84813 34.4858 8.92768 34.5785 8.99808L36.2212 10.6793C36.3554 10.8101 36.3778 10.9729 36.4006 11.1358C36.423 11.2986 36.3434 11.4424 36.2126 11.5767L36.0818 11.7109C35.8299 11.9285 35.4021 11.9546 35.1847 11.7023L33.542 10.0211C33.4078 9.89025 33.3854 9.72744 33.3627 9.56457C33.3494 9.35072 33.4289 9.20691 33.5503 9.12366L33.5503 9.12366ZM30.3132 9.47235L30.4441 9.33811C30.5749 9.20387 30.7982 9.13962 31.0027 9.17775C31.105 9.19682 31.2488 9.27637 31.3415 9.34677L35.7425 13.8164C35.8767 13.9473 35.8991 14.1101 35.9219 14.273C35.9443 14.4358 35.8648 14.5796 35.7339 14.7138L35.6027 14.848C35.3509 15.0656 34.9231 15.0917 34.7057 14.8394L30.3046 10.3698C30.1705 10.2389 30.148 10.0761 30.1253 9.9132C30.1542 9.75996 30.1828 9.60665 30.3132 9.47235L30.3132 9.47235ZM27.6454 10.4558L27.7762 10.3216C27.9071 10.1873 28.1303 10.1231 28.3349 10.1612C28.4372 10.1803 28.5809 10.2598 28.6736 10.3302L34.7588 16.5419C34.893 16.6728 34.9154 16.8356 34.9382 16.9984C34.9606 17.1612 34.8811 17.305 34.7502 17.4393L34.6194 17.5735C34.3676 17.7911 33.9397 17.8172 33.7223 17.5649L27.6371 11.3533C27.3684 11.0914 27.3936 10.6734 27.6454 10.4558L27.6454 10.4558ZM29.4858 14.7653L30.3328 15.6109L15.459 30.1846L14.612 29.3391L29.4858 14.7653ZM11.3852 35.8772L11.2543 36.0114C11.1235 36.1456 10.9002 36.2099 10.6957 36.1718C10.5934 36.1527 10.4496 36.0731 10.3569 36.0027L8.71422 34.3216C8.58004 34.1907 8.55763 34.0279 8.53488 33.865C8.51247 33.7022 8.59199 33.5584 8.72283 33.4241L8.85367 33.2899C8.98451 33.1557 9.20778 33.0914 9.41234 33.1295C9.51462 33.1486 9.65837 33.2282 9.75109 33.2986L11.3938 34.9797C11.528 35.1106 11.5504 35.2734 11.5731 35.4363C11.5446 35.5896 11.516 35.7429 11.3852 35.8772ZM14.5803 35.4682L14.4494 35.6025C14.3186 35.7367 14.0953 35.801 13.8908 35.7628C13.7885 35.7438 13.6447 35.6642 13.552 35.5938L12.1687 34.2251L11.373 33.3892L9.20279 31.1334C9.06861 31.0025 9.0462 30.8397 9.02344 30.6768C9.00104 30.514 9.08056 30.3702 9.2114 30.236L9.34224 30.1018C9.47308 29.9675 9.69635 29.9033 9.90091 29.9414C10.0032 29.9605 10.1469 30.04 10.2397 30.1104L14.5802 34.6219C14.7144 34.7528 14.7368 34.9156 14.7596 35.0785C14.7908 35.1898 14.7017 35.3849 14.5804 35.4682L14.5803 35.4682ZM17.2896 34.5453L17.1078 34.67C16.977 34.8043 16.7537 34.8685 16.5491 34.8304C16.4469 34.8113 16.3031 34.7318 16.2104 34.6614L15.3638 33.8159L13.1842 31.6116L10.1673 28.5107C9.94981 28.2588 9.91421 27.8818 10.1759 27.6133L10.3067 27.4791C10.4376 27.3449 10.6608 27.2806 10.8654 27.3187C10.9677 27.3378 11.1114 27.4174 11.2041 27.4878L17.2982 33.6479C17.4324 33.7788 17.4548 33.9416 17.4775 34.1044C17.449 34.2577 17.3694 34.4015 17.2896 34.5453L17.2896 34.5453Z" fill="url(#paint0_linear_1430_1377)"/>
<defs>
<linearGradient id="paint0_linear_1430_1377" x1="19.4268" y1="40.4437" x2="23.3968" y2="19.1478" gradientUnits="userSpaceOnUse">
<stop offset="0.0756224" stop-color="#A32561"/>
<stop offset="0.479167" stop-color="#D9257C"/>
<stop offset="1" stop-color="#D9247B"/>
</linearGradient>
</defs>
</svg>
