<svg width="18" height="20" viewBox="0 0 18 20" fill="none" xmlns="http://www.w3.org/2000/svg">
<path d="M14.8077 2.47C14.7277 2.47 14.6477 2.45 14.5777 2.41C12.6577 1.42 10.9977 1 8.99771 1C7.02771 1 5.14772 1.47 3.43772 2.41C3.19772 2.54 2.89772 2.45 2.75772 2.21C2.62772 1.97 2.71772 1.66 2.95772 1.53C4.81772 0.5 6.85771 0 8.99771 0C11.1377 0 12.9977 0.47 15.0377 1.5C15.2877 1.65 15.3777 1.95 15.2477 2.19C15.1577 2.37 14.9977 2.47 14.8077 2.47ZM0.497715 7.72C0.397715 7.72 0.297715 7.69 0.207715 7.63C-0.00228497 7.47 -0.0722851 7.16 0.0877149 6.93C1.07771 5.53 2.33772 4.43 3.83772 3.66C6.99771 2.04 10.9977 2.03 14.1477 3.65C15.6477 4.42 16.9077 5.5 17.8977 6.9C18.0577 7.12 17.9977 7.44 17.7777 7.6C17.5477 7.76 17.2377 7.71 17.0777 7.5C16.1777 6.22 15.0377 5.23 13.6877 4.54C10.8177 3.07 7.14771 3.07 4.28771 4.55C2.92771 5.25 1.78772 6.25 0.887715 7.5C0.807715 7.65 0.657715 7.72 0.497715 7.72ZM6.74771 19.79C6.61771 19.79 6.49771 19.74 6.39771 19.64C5.52771 18.77 5.05771 18.21 4.38771 17C3.69771 15.77 3.33772 14.27 3.33772 12.66C3.33772 9.69 5.87772 7.27 8.99771 7.27C12.1177 7.27 14.6577 9.69 14.6577 12.66C14.6577 12.7926 14.605 12.9198 14.5113 13.0136C14.4175 13.1073 14.2903 13.16 14.1577 13.16C14.0251 13.16 13.8979 13.1073 13.8042 13.0136C13.7104 12.9198 13.6577 12.7926 13.6577 12.66C13.6577 10.24 11.5677 8.27 8.99771 8.27C6.42772 8.27 4.33772 10.24 4.33772 12.66C4.33772 14.1 4.65772 15.43 5.26772 16.5C5.90772 17.66 6.34771 18.15 7.11771 18.93C7.30771 19.13 7.30771 19.44 7.11771 19.64C6.99771 19.74 6.87772 19.79 6.74771 19.79ZM13.9177 17.94C12.7277 17.94 11.6777 17.64 10.8177 17.05C9.32771 16.04 8.43771 14.4 8.43771 12.66C8.43771 12.5274 8.49039 12.4002 8.58416 12.3064C8.67793 12.2127 8.80511 12.16 8.93771 12.16C9.07032 12.16 9.1975 12.2127 9.29127 12.3064C9.38504 12.4002 9.43771 12.5274 9.43771 12.66C9.43771 14.07 10.1577 15.4 11.3777 16.22C12.0877 16.7 12.9177 16.93 13.9177 16.93C14.1577 16.93 14.5577 16.9 14.9577 16.83C15.2277 16.78 15.4977 16.96 15.5377 17.24C15.5877 17.5 15.4077 17.77 15.1277 17.82C14.5577 17.93 14.0577 17.94 13.9177 17.94ZM11.9077 20C11.8677 20 11.8177 20 11.7777 20C10.1877 19.54 9.14772 18.95 8.05772 17.88C6.65772 16.5 5.88772 14.64 5.88772 12.66C5.88772 11.04 7.26772 9.72 8.96772 9.72C10.6677 9.72 12.0477 11.04 12.0477 12.66C12.0477 13.73 12.9977 14.6 14.1277 14.6C15.2777 14.6 16.2077 13.73 16.2077 12.66C16.2077 8.89 12.9577 5.83 8.95772 5.83C6.11771 5.83 3.49771 7.41 2.34771 9.86C1.95771 10.67 1.75772 11.62 1.75772 12.66C1.75772 13.44 1.82771 14.67 2.42771 16.27C2.52771 16.53 2.39771 16.82 2.13771 16.91C1.87771 17 1.58772 16.87 1.49771 16.62C0.997715 15.31 0.767715 14 0.767715 12.66C0.767715 11.46 0.997715 10.37 1.44771 9.42C2.77771 6.63 5.72772 4.82 8.95772 4.82C13.4977 4.82 17.2077 8.33 17.2077 12.65C17.2077 14.27 15.8277 15.59 14.1277 15.59C12.4277 15.59 11.0477 14.27 11.0477 12.65C11.0477 11.58 10.1177 10.71 8.96772 10.71C7.81772 10.71 6.88772 11.58 6.88772 12.65C6.88772 14.36 7.54772 15.96 8.75772 17.16C9.70772 18.1 10.6177 18.62 12.0277 19C12.2977 19.08 12.4477 19.36 12.3777 19.62C12.3277 19.85 12.1177 20 11.9077 20Z" fill="black" fill-opacity="0.5"/>
</svg>
