<svg width="62" height="44" viewBox="0 0 62 44" fill="none" xmlns="http://www.w3.org/2000/svg">
<path d="M30.7656 24.2475C30.7656 15.6965 37.6741 8.76389 46.2021 8.76389C54.726 8.76389 61.6345 15.6965 61.6345 24.2475C61.6345 31.4592 56.7219 37.5163 50.0725 39.2412C50.9711 40.8797 52.2642 42.6859 53.9188 43.5905C53.9188 43.5905 45.8467 44.206 41.5757 39.0243C35.3097 37.0525 30.7656 31.1831 30.7656 24.2475Z" fill="#F9AD30"/>
<path d="M53.8872 20.0528H37.6114C37.019 20.0528 36.5371 19.5719 36.5371 18.9776C36.5371 18.3832 37.019 17.9023 37.6114 17.9023H53.8872C54.4785 17.9023 54.9584 18.3832 54.9584 18.9776C54.9584 19.5719 54.4785 20.0528 53.8872 20.0528Z" fill="white"/>
<path d="M53.8872 25.1933H37.6114C37.019 25.1933 36.5371 24.7124 36.5371 24.118C36.5371 23.5236 37.019 23.0427 37.6114 23.0427H53.8872C54.4785 23.0427 54.9584 23.5236 54.9584 24.118C54.9584 24.7124 54.4785 25.1933 53.8872 25.1933Z" fill="white"/>
<path d="M53.8872 30.3338H37.6114C37.019 30.3338 36.5371 29.8498 36.5371 29.2565C36.5371 28.6641 37.019 28.1832 37.6114 28.1832H53.8872C54.4785 28.1832 54.9584 28.6641 54.9584 29.2565C54.9584 29.8498 54.4785 30.3338 53.8872 30.3338Z" fill="white"/>
<path d="M30.5827 3.56519C29.894 3.56519 29.2203 3.62041 28.5637 3.72884C26.8057 1.46081 24.0598 0 20.9745 0C16.9123 0 13.4395 2.52606 12.0319 6.09627C11.2578 5.89647 10.4446 5.78804 9.61025 5.78804C4.30112 5.78804 0 10.1032 0 15.4264C0 20.7506 4.30112 25.0678 9.61025 25.0678C9.81909 25.0678 10.0249 25.0587 10.2307 25.0467C12.0419 27.644 15.0439 29.3448 18.4414 29.3448C19.6171 29.3448 20.7436 29.141 21.7917 28.7675C21.7225 30.3217 21.353 33.8457 19.4374 35.0826C19.4374 35.0826 26.8107 34.6851 29.5376 28.4984C29.883 28.5276 30.2303 28.5436 30.5827 28.5436C37.4581 28.5436 43.0333 22.9514 43.0333 16.0549C43.0333 9.15544 37.4581 3.56519 30.5827 3.56519Z" fill="#F15226"/>
<path d="M15.7703 15.9415C15.7703 17.1945 14.7552 18.2125 13.5042 18.2125C12.2543 18.2125 11.2402 17.1945 11.2402 15.9415C11.2402 14.6855 12.2543 13.6684 13.5042 13.6684C14.7552 13.6684 15.7703 14.6855 15.7703 15.9415Z" fill="white"/>
<path d="M23.7809 15.9415C23.7809 17.1945 22.7669 18.2125 21.5169 18.2125C20.2679 18.2125 19.2539 17.1945 19.2539 15.9415C19.2539 14.6855 20.2679 13.6684 21.5169 13.6684C22.7669 13.6684 23.7809 14.6855 23.7809 15.9415Z" fill="white"/>
<path d="M31.7918 15.9415C31.7918 17.1945 30.7767 18.2125 29.5277 18.2125C28.2758 18.2125 27.2617 17.1945 27.2617 15.9415C27.2617 14.6855 28.2758 13.6684 29.5277 13.6684C30.7767 13.6684 31.7918 14.6855 31.7918 15.9415Z" fill="white"/>
</svg>
