<svg width="15" height="15" viewBox="0 0 15 15" fill="none" xmlns="http://www.w3.org/2000/svg">
<path fill-rule="evenodd" clip-rule="evenodd" d="M10.0429 9.43396H10.7204L15 13.7221L13.7221 15L9.43396 10.7204V10.0429L9.2024 9.80274C8.2247 10.6432 6.9554 11.1492 5.57461 11.1492C2.49571 11.1492 0 8.65352 0 5.57461C0 2.49571 2.49571 0 5.57461 0C8.65352 0 11.1492 2.49571 11.1492 5.57461C11.1492 6.9554 10.6432 8.2247 9.80274 9.2024L10.0429 9.43396ZM1.71541 5.57461C1.71541 7.71012 3.43925 9.43396 5.57476 9.43396C7.71026 9.43396 9.43411 7.71012 9.43411 5.57461C9.43411 3.43911 7.71026 1.71526 5.57476 1.71526C3.43925 1.71526 1.71541 3.43911 1.71541 5.57461Z" fill="black" fill-opacity="0.2"/>
</svg>
