<svg width="56" height="69" viewBox="0 0 56 69" fill="none" xmlns="http://www.w3.org/2000/svg">
<path d="M3.61884 66.3986C4.82793 67.8561 6.80861 68.8433 9.07565 68.9844V69H55.9836V68.2478V66.4221C55.9836 66.3203 55.9915 66.2184 55.9915 66.1166H55.9836V64.7767V64.6748V63.2801V63.1782V61.7835V61.6816V60.2869V60.185V59.378V58.2026V57.1683V54.9979V4.02754C55.9836 3.09511 55.22 2.3429 54.2734 2.3429H5.7427H4.08816C3.14157 2.3429 2.37793 3.09511 2.37793 4.02754V63.092C2.37793 64.3144 2.83134 65.4584 3.61884 66.3986Z" fill="#EBEBEB"/>
<path d="M53.6057 1.68465V64.0479H1.23295C0.453409 63.1077 0 61.9715 0 60.7491V1.68465C0 0.752214 0.763636 0 1.71023 0H51.8955C52.8421 0 53.6057 0.752214 53.6057 1.68465Z" fill="url(#paint0_linear_1450_364)"/>
<path opacity="0.2" d="M47.1068 52.5767C43.75 52.514 40.3932 52.4121 37.0443 52.467C33.6875 52.5218 30.3386 52.7412 26.9818 52.8274C24.2852 52.8979 21.5886 52.8901 18.908 52.5923C16.9909 52.3808 15.0818 52.13 13.1568 51.9968C11.0807 51.8558 8.94886 51.7931 6.89659 52.1849C5.17045 52.5296 3.4125 53.2035 2.46591 54.7471C2.41023 54.8333 2.26705 54.802 2.275 54.6923C2.38636 48.4943 2.68864 42.2964 2.79205 36.0906C2.91136 29.305 2.98295 22.5194 3.11818 15.7338C3.22159 10.4918 3.325 5.24983 3.36477 0H1.71023C0.763636 0 0 0.752214 0 1.68465V60.7491C0 61.9715 0.453409 63.1077 1.23295 64.0479H53.6057V52.6628C51.4421 52.655 49.2705 52.6237 47.1068 52.5767Z" fill="url(#paint1_linear_1450_364)"/>
<path d="M53.6057 54.8333V66.6493H6.69773V66.6336C4.42273 66.4926 2.43409 65.4975 1.23295 64.04C0.453409 63.0998 0 61.9636 0 60.7413C0 57.6227 2.95114 55.0762 6.69773 54.8489V54.8333H53.6057Z" fill="#190336"/>
<path d="M33.0268 2.44468C33.0268 2.44468 33.4484 2.41334 34.1882 2.36633C34.928 2.33498 35.978 2.26446 37.2427 2.21745C38.5075 2.1626 39.9791 2.12342 41.5621 2.09208C42.3496 2.08424 43.1689 2.06074 43.9961 2.0529C44.8234 2.04507 45.6666 2.03723 46.5098 2.03723C46.9314 2.03723 47.353 2.03723 47.7746 2.04507C48.2359 2.03723 48.7132 2.12342 49.1507 2.28013C49.5961 2.43685 50.0098 2.67975 50.3439 3.00884C50.6939 3.3301 50.9166 3.73755 51.0996 4.13716C51.4257 4.95206 51.3939 5.82181 51.37 6.5035C51.3461 7.21654 51.3223 7.8904 51.3064 8.50941C51.2666 9.75526 51.195 10.7896 51.1632 11.5183C51.1234 12.247 51.0916 12.6623 51.0916 12.6623C51.0836 12.7093 51.0439 12.7485 50.9961 12.7485C50.9484 12.7485 50.9166 12.7093 50.9086 12.6623C50.9086 12.6623 50.8768 12.247 50.8371 11.5183C50.8052 10.7896 50.7336 9.75526 50.6939 8.50941C50.678 7.8904 50.6541 7.21654 50.6302 6.5035C50.6223 6.32329 50.6223 6.14307 50.6143 5.96285C50.6064 5.78263 50.5825 5.61809 50.5746 5.4457C50.5666 5.27332 50.5109 5.10877 50.4871 4.93639C50.4552 4.76401 50.3757 4.61513 50.328 4.45059C50.1768 4.15283 50.0098 3.85508 49.7473 3.62785C49.4927 3.40062 49.1905 3.22824 48.8484 3.1107C48.5064 2.99317 48.1484 2.93049 47.7666 2.93832C47.345 2.93832 46.9234 2.93832 46.5018 2.94616C45.6586 2.93832 44.8155 2.93049 43.9882 2.93049C43.1609 2.93049 42.3416 2.90698 41.5541 2.89131C39.9711 2.85997 38.4996 2.82079 37.2348 2.76594C35.97 2.71893 34.92 2.64841 34.1802 2.61706C33.4405 2.57789 33.0189 2.53871 33.0189 2.53871C32.995 2.53871 32.9711 2.5152 32.9791 2.49169C32.9871 2.46819 33.003 2.45252 33.0268 2.44468Z" fill="white"/>
<path d="M53.6058 55.8597V65.8971H7.89104V65.8814C5.82285 65.7717 4.00126 65.0274 2.80808 63.9225C2.76831 63.8912 2.73649 63.852 2.69672 63.8207C2.26717 63.3976 1.93308 62.9353 1.7024 62.4259C1.68649 62.3946 1.67058 62.3554 1.65467 62.3241C1.47172 61.8853 1.36035 61.4152 1.36035 60.9293V60.8275C1.36831 60.3417 1.47172 59.8794 1.65467 59.4328C1.67058 59.4014 1.68649 59.3622 1.7024 59.3309C1.93308 58.8294 2.26717 58.3593 2.69672 57.9362C2.72853 57.9048 2.76831 57.8656 2.80808 57.8343C3.99331 56.7295 5.82285 55.9851 7.89104 55.8754V55.8597H53.6058Z" fill="#E6E0D2"/>
<path d="M53.6054 57.8422V57.944H2.69629C2.72811 57.9127 2.76788 57.8735 2.80765 57.8422H53.6054Z" fill="#E3CAC6"/>
<path d="M53.6054 59.3309V59.4328H1.6543C1.67021 59.4015 1.68612 59.3623 1.70202 59.3309H53.6054Z" fill="#E3CAC6"/>
<path d="M53.6058 60.8275H1.36035V60.9294H53.6058V60.8275Z" fill="#E3CAC6"/>
<path d="M53.6054 62.3241V62.426H1.70202C1.68612 62.3946 1.67021 62.3554 1.6543 62.3241H53.6054Z" fill="#E3CAC6"/>
<path d="M53.6054 63.8207V63.9225H2.80765C2.76788 63.8912 2.73606 63.852 2.69629 63.8207H53.6054Z" fill="#E3CAC6"/>
<path d="M18.8711 17.5001C18.8711 17.7762 19.0949 18.0001 19.3711 18.0001H19.6311C19.9072 18.0001 20.1311 17.7762 20.1311 17.5001V12.2181C20.1311 11.9419 19.9072 11.7181 19.6311 11.7181H19.3711C19.0949 11.7181 18.8711 11.9419 18.8711 12.2181V13.8011C18.8711 14.0772 18.6472 14.3011 18.3711 14.3011H16.6801C16.4039 14.3011 16.1801 14.0772 16.1801 13.8011V12.2181C16.1801 11.9419 15.9562 11.7181 15.6801 11.7181H15.4201C15.1439 11.7181 14.9201 11.9419 14.9201 12.2181V17.5001C14.9201 17.7762 15.1439 18.0001 15.4201 18.0001H15.6801C15.9562 18.0001 16.1801 17.7762 16.1801 17.5001V15.8271C16.1801 15.5509 16.4039 15.3271 16.6801 15.3271H18.3711C18.6472 15.3271 18.8711 15.5509 18.8711 15.8271V17.5001Z" fill="white"/>
<path d="M27.5002 14.8411C27.5002 12.9601 26.0782 11.6281 24.2872 11.6281C22.5142 11.6281 21.0652 12.9601 21.0652 14.8411C21.0652 16.7311 22.5142 18.0631 24.2872 18.0631C26.0692 18.0631 27.5002 16.7311 27.5002 14.8411ZM22.3612 14.8411C22.3612 13.5631 23.1442 12.7621 24.2872 12.7621C25.4212 12.7621 26.2042 13.5631 26.2042 14.8411C26.2042 16.1191 25.4212 16.9381 24.2872 16.9381C23.1442 16.9381 22.3612 16.1191 22.3612 14.8411Z" fill="white"/>
<path d="M28.4376 17.5001C28.4376 17.7762 28.6615 18.0001 28.9376 18.0001H29.1976C29.4738 18.0001 29.6976 17.7762 29.6976 17.5001V16.4284C29.6976 15.8812 30.4503 15.7316 30.6596 16.2371L31.2618 17.6913C31.3392 17.8782 31.5215 18.0001 31.7238 18.0001H32.0088C32.2114 18.0001 32.394 17.8778 32.4712 17.6905L33.0643 16.2504C33.2729 15.744 34.0266 15.8931 34.0266 16.4408V17.5001C34.0266 17.7762 34.2505 18.0001 34.5266 18.0001H34.7866C35.0628 18.0001 35.2866 17.7762 35.2866 17.5001V12.2181C35.2866 11.9419 35.0628 11.7181 34.7866 11.7181H34.1946C33.9945 11.7181 33.8136 11.8374 33.7349 12.0214L32.3264 15.3143C32.1533 15.7188 31.58 15.7188 31.4069 15.3143L29.9984 12.0214C29.9197 11.8374 29.7388 11.7181 29.5387 11.7181H28.9376C28.6615 11.7181 28.4376 11.9419 28.4376 12.2181V17.5001Z" fill="white"/>
<path d="M40.1774 12.2091C40.1774 11.9329 39.9535 11.7091 39.6774 11.7091H37.0324C36.7562 11.7091 36.5324 11.9329 36.5324 12.2091V17.5001C36.5324 17.7762 36.7562 18.0001 37.0324 18.0001H39.6774C39.9535 18.0001 40.1774 17.7762 40.1774 17.5001V17.4741C40.1774 17.1979 39.9535 16.9741 39.6774 16.9741H38.2924C38.0162 16.9741 37.7924 16.7502 37.7924 16.4741V15.8091C37.7924 15.5329 38.0162 15.3091 38.2924 15.3091H39.4079C39.6837 15.3091 39.9074 15.0854 39.9074 14.8096C39.9074 14.5337 39.6837 14.3101 39.4079 14.3101H38.2924C38.0162 14.3101 37.7924 14.0862 37.7924 13.8101V13.2351C37.7924 12.9589 38.0162 12.7351 38.2924 12.7351H39.6774C39.9535 12.7351 40.1774 12.5112 40.1774 12.2351V12.2091Z" fill="white"/>
<path d="M15.2803 26.6366C15.3393 26.856 15.5389 27.0081 15.7662 27.0067L16.4781 27.0024C16.7019 27.001 16.8976 26.851 16.957 26.6352L17.5966 24.3149C17.7324 23.8225 18.432 23.8265 18.5622 24.3203L19.1703 26.6275C19.2281 26.8471 19.4267 27.0001 19.6538 27.0001H20.374C20.5983 27.0001 20.7952 26.8506 20.8556 26.6346L22.3312 21.3526C22.4203 21.0338 22.1806 20.7181 21.8496 20.7181H21.5475C21.3146 20.7181 21.1125 20.8789 21.0602 21.106L20.5019 23.5329C20.384 24.0455 19.6563 24.0519 19.5294 23.5415L18.9218 21.0974C18.8664 20.8745 18.6662 20.7181 18.4366 20.7181H17.8094C17.582 20.7181 17.3833 20.8714 17.3257 21.0913L16.664 23.617C16.5313 24.1232 15.8085 24.1113 15.6927 23.6009L15.1268 21.1074C15.0752 20.8797 14.8727 20.7181 14.6392 20.7181H14.3407C14.0118 20.7181 13.7724 21.0302 13.8579 21.3479L15.2803 26.6366Z" fill="white"/>
<path d="M29.4602 23.8411C29.4602 21.9601 28.0382 20.6281 26.2472 20.6281C24.4742 20.6281 23.0252 21.9601 23.0252 23.8411C23.0252 25.7311 24.4742 27.0631 26.2472 27.0631C28.0292 27.0631 29.4602 25.7311 29.4602 23.8411ZM24.3212 23.8411C24.3212 22.5631 25.1042 21.7621 26.2472 21.7621C27.3812 21.7621 28.1642 22.5631 28.1642 23.8411C28.1642 25.1191 27.3812 25.9381 26.2472 25.9381C25.1042 25.9381 24.3212 25.1191 24.3212 23.8411Z" fill="white"/>
<path d="M33.7276 22.6711C33.7276 23.2381 33.4126 23.6071 32.7106 23.6071H32.1576C31.8815 23.6071 31.6576 23.3832 31.6576 23.1071V22.2621C31.6576 21.9859 31.8815 21.7621 32.1576 21.7621H32.7106C33.4126 21.7621 33.7276 22.1131 33.7276 22.6711ZM30.8976 20.7181C30.6215 20.7181 30.3976 20.9419 30.3976 21.2181V26.5001C30.3976 26.7762 30.6215 27.0001 30.8976 27.0001H31.1576C31.4338 27.0001 31.6576 26.7762 31.6576 26.5001V24.9273C31.6576 24.7201 31.8256 24.5521 32.0329 24.5521C32.168 24.5521 32.2928 24.6248 32.3594 24.7424L33.494 26.7464C33.5827 26.9032 33.749 27.0001 33.9291 27.0001H34.22C34.607 27.0001 34.8473 26.5793 34.6506 26.2459L33.9271 25.0199C33.759 24.735 33.9158 24.3713 34.1952 24.1943C34.7722 23.8289 35.0236 23.2338 35.0236 22.6441C35.0236 21.5911 34.2676 20.7181 32.7556 20.7181H30.8976Z" fill="white"/>
<path d="M39.5592 26.8163C39.6541 26.9326 39.7963 27.0001 39.9464 27.0001H40.2285C40.6535 27.0001 40.8847 26.5035 40.6112 26.1783L38.9075 24.1522C38.7516 23.9669 38.751 23.6966 38.9059 23.5105L40.5478 21.5379C40.8189 21.2122 40.5873 20.7181 40.1635 20.7181H39.9474C39.7967 20.7181 39.6541 20.786 39.5592 20.903L38.3115 22.4405C38.0148 22.8061 37.4232 22.5963 37.4232 22.1254V21.2181C37.4232 20.9419 37.1994 20.7181 36.9232 20.7181H36.6632C36.3871 20.7181 36.1632 20.9419 36.1632 21.2181V26.5001C36.1632 26.7762 36.3871 27.0001 36.6632 27.0001H36.9232C37.1994 27.0001 37.4232 26.7762 37.4232 26.5001V25.6037C37.4232 25.1336 38.0131 24.9233 38.3105 25.2874L39.5592 26.8163Z" fill="white"/>
<path opacity="0.4" d="M46.6774 64.4554C46.5422 64.4632 46.399 64.471 46.2638 64.4789C43.6547 64.6121 41.0456 64.4632 38.4365 64.4475C33.7592 64.424 29.0979 64.8706 24.4285 64.902C21.2229 64.9255 18.0172 64.6826 14.8115 64.8236C12.449 64.9255 9.95922 65.0587 7.66035 64.4005C6.44331 64.0479 5.21035 63.2957 4.40694 62.3241C3.11831 60.7726 4.00922 58.9234 5.61603 58.0224C6.57058 57.4895 7.75581 57.2231 8.84558 57.1369C13.2842 56.8 17.8342 57.1996 22.2888 57.1839C26.9422 57.1683 31.5956 57.0978 36.241 57.0507C38.7785 57.0194 41.3161 56.9959 43.8615 56.9802C46.8524 56.9646 49.8433 56.9724 52.8263 57.0664C53.0888 57.0743 53.3513 57.0586 53.6138 57.0351V55.8597H7.89104V55.8754C5.82285 55.9851 3.99331 56.7295 2.80808 57.8343C2.77626 57.8656 2.73649 57.9048 2.69672 57.9362C2.27512 58.3515 1.93308 58.8216 1.7024 59.3309C1.68649 59.3622 1.67058 59.4014 1.65467 59.4328C1.47172 59.8715 1.36035 60.3417 1.36035 60.8275V60.9293C1.36831 61.4152 1.47172 61.8853 1.65467 62.3241C1.67058 62.3554 1.68649 62.3946 1.7024 62.4259C1.93308 62.9274 2.26717 63.3976 2.69672 63.8207C2.72853 63.852 2.76831 63.8912 2.80808 63.9225C3.99331 65.0274 5.82285 65.7717 7.89104 65.8814V65.8971C11.3672 65.9128 14.8354 65.9284 18.3115 65.952C25.3035 65.9833 32.2956 66.0225 39.2797 66.0616C43.607 66.0852 47.9422 66.1087 52.2695 66.1243C52.7149 66.1243 53.1604 66.1243 53.6058 66.1322C53.6058 65.3564 53.5661 64.5494 53.6138 63.7737C51.2831 63.7345 48.9922 64.283 46.6774 64.4554Z" fill="#E6E0D2"/>
<path opacity="0.2" d="M6.89657 27.6203C6.89657 32.0787 6.79316 36.545 6.37157 40.9486C6.10907 43.7224 5.77498 46.6294 5.94998 49.4267C8.21702 48.2278 11.1125 48.9487 13.6022 49.0662C16.6091 49.2073 19.6079 49.3405 22.6704 49.3405C28.7397 49.3405 34.7772 49.5442 40.8147 49.6147C43.5352 49.6461 46.3193 49.7401 49.0238 49.5912C49.2147 48.2122 48.7454 46.8253 48.4829 45.4932C48.1727 43.9731 48.2045 42.4217 48.2045 40.8467C48.2045 37.3051 48.2045 33.7712 48.2045 30.2295C48.2045 25.9748 48.4829 21.8377 48.4829 17.5829C48.4829 15.6946 48.3557 13.7905 48.3397 11.9492C48.3318 10.4996 48.8409 9.12838 47.9182 7.82767C46.3113 5.54752 42.3261 5.25761 39.7966 5.08523C35.9227 4.81882 32.0886 4.5289 28.1432 4.5289C24.6034 4.5289 20.8568 4.22331 17.3647 4.69345C14.8432 5.03821 11.9875 5.26544 9.53748 5.87662C7.6443 6.34675 7.15111 7.73365 7.02384 9.52015C6.6102 15.4987 6.89657 21.6339 6.89657 27.6203Z" fill="white"/>
<defs>
<linearGradient id="paint0_linear_1450_364" x1="3.90041e-07" y1="3.5" x2="47.5" y2="64" gradientUnits="userSpaceOnUse">
<stop stop-color="#0F2252"/>
<stop offset="1" stop-color="#390B52"/>
</linearGradient>
<linearGradient id="paint1_linear_1450_364" x1="6" y1="1" x2="55.5" y2="50.5" gradientUnits="userSpaceOnUse">
<stop stop-color="#112052"/>
<stop offset="1" stop-color="#390B52"/>
</linearGradient>
</defs>
</svg>
