<svg width="42" height="40" viewBox="0 0 42 40" fill="none" xmlns="http://www.w3.org/2000/svg">
<path d="M21.7924 3.99365L21.398 4.33982L12.8524 12.6171H7.06299V32.328H28.2901C30.067 32.328 31.6171 31.101 31.9914 29.4022L34.7096 17.0829C35.2049 14.8063 33.3852 12.6171 31.0071 12.6171H23.7609L23.9978 11.6932C24.2536 11.501 24.4162 11.4185 24.7854 10.9232C25.3752 10.1348 25.9663 8.91151 25.9663 7.26565C25.9663 5.50892 24.3406 3.99365 22.3041 3.99365H21.7924ZM22.6973 6.57331C23.2291 6.67433 23.4458 6.88622 23.4458 7.26565C23.4458 8.37808 23.1018 9.0655 22.7766 9.49914C22.4515 9.93154 22.2247 10.0375 22.2247 10.0375L21.7924 10.2691L21.6349 10.7693L20.8863 13.5411L20.4919 15.081H31.0071C31.8389 15.081 32.3997 15.7881 32.2283 16.5827L29.5503 28.902C29.4848 29.1792 29.3239 29.4261 29.0945 29.6012C28.8651 29.7764 28.5811 29.8692 28.2901 29.8641H14.6243V14.3492L22.6973 6.57331ZM9.58342 15.081H12.1039V29.8641H9.58342V15.081Z" fill="#CAC9C9" stroke="#CAC9C9"/>
</svg>
