<svg width="52" height="53" viewBox="0 0 52 53" fill="none" xmlns="http://www.w3.org/2000/svg">
<path d="M19.2299 19.731L7.25036 31.7313C5.95172 33.03 5.30273 34.7262 5.30273 36.4227C5.30273 38.14 5.95204 39.8365 7.25036 41.1141L11.4181 45.3026C12.7168 46.5802 14.413 47.2295 16.1095 47.2295C17.8061 47.2295 19.5022 46.5802 20.8009 45.3026L26.5394 39.5641C24.9267 39.3338 23.377 38.7472 21.9945 37.8256L17.6803 42.161C17.2405 42.6008 16.675 42.8103 16.1095 42.8103C15.544 42.8103 14.9785 42.6008 14.5387 42.161L10.3709 37.9932C9.95193 37.5742 9.72163 37.009 9.72163 36.4224C9.72163 35.8569 9.95194 35.2914 10.3709 34.8727L22.3712 22.8724C22.7902 22.4326 23.3555 22.2231 23.942 22.2231C24.5075 22.2231 25.073 22.4326 25.4917 22.8724L28.1098 25.4693L31.2304 22.3487L28.6335 19.7307C27.3348 18.4531 25.6387 17.8038 23.9421 17.8038C22.2248 17.8038 20.5283 18.4535 19.2299 19.731ZM31.2302 7.75146L25.4917 13.49C27.1252 13.7203 28.6752 14.3069 30.0366 15.2074L34.3719 10.872C34.7909 10.453 35.3561 10.2227 35.9216 10.2227C36.5079 10.2227 37.0734 10.453 37.4924 10.872L41.6602 15.0398C42.1 15.4796 42.3095 16.0451 42.3095 16.6106C42.3095 17.1761 42.1 17.7416 41.6602 18.1814L29.6599 30.1817C29.2409 30.6007 28.6756 30.8099 28.1102 30.8099C27.5447 30.8099 26.9792 30.6004 26.5394 30.1817L23.9425 27.5636L20.8008 30.6842L23.4189 33.3023C24.6964 34.6009 26.4137 35.2291 28.1102 35.2291C29.8068 35.2291 31.503 34.6009 32.8016 33.3023L44.8019 21.302C46.0795 20.0033 46.7288 18.3072 46.7288 16.6106C46.7288 14.9141 46.0794 13.2179 44.8019 11.9192L40.6133 7.75146C39.3358 6.45282 37.6393 5.80383 35.922 5.80383C34.2254 5.80383 32.5289 6.45314 31.2302 7.75146Z" fill="url(#paint0_linear_1437_194)"/>
<defs>
<linearGradient id="paint0_linear_1437_194" x1="7.90171" y1="5.80383" x2="41.1969" y2="6.60385" gradientUnits="userSpaceOnUse">
<stop stop-color="#0B2352"/>
<stop offset="1" stop-color="#390B52"/>
</linearGradient>
</defs>
</svg>
