<svg width="40" height="40" viewBox="0 0 40 40" fill="none" xmlns="http://www.w3.org/2000/svg">
<g opacity="0.6">
<path d="M20 38C29.9411 38 38 29.9411 38 20C38 16.29 36.8776 12.8422 34.9538 9.97754M29.1441 4.49231C26.4642 2.90873 23.3382 2 20 2C10.0589 2 2 10.0589 2 20C2 27.8028 6.9648 34.446 13.9077 36.9429" stroke="white" stroke-width="3" stroke-linecap="round"/>
<g clip-path="url(#clip0_1734_119)">
<g filter="url(#filter0_d_1734_119)">
<path d="M29.597 20.4298C29.597 25.5719 25.4288 29.7401 20.2867 29.7401C15.1446 29.7401 10.9763 25.5719 10.9763 20.4298C10.9752 18.9842 11.3113 17.5583 11.9578 16.2653C12.6042 14.9724 13.5433 13.848 14.7005 12.9815L14.7005 15.5046C13.7524 16.5797 13.1348 17.9056 12.9216 19.323C12.7085 20.7405 12.9088 22.1894 13.4987 23.4958C14.0886 24.8022 15.0429 25.9106 16.2471 26.6881C17.4513 27.4656 18.8543 27.8791 20.2877 27.879C21.7211 27.8789 23.124 27.4651 24.3281 26.6874C25.5322 25.9098 26.4863 24.8011 27.076 23.4946C27.6656 22.1881 27.8657 20.7392 27.6523 19.3218C27.4389 17.9044 26.8211 16.5786 25.8729 15.5037L25.8729 12.9806C27.0301 13.8471 27.9693 14.9717 28.6158 16.2648C29.2623 17.5579 29.5982 18.984 29.597 20.4298ZM24.0108 13.9125L21.2177 13.9125L21.2177 21.3608L19.3556 21.3608L19.3556 13.9125L16.5625 13.9125L20.2867 9.25735L24.0108 13.9125Z" fill="white"/>
<path d="M29.597 20.4298C29.597 25.5719 25.4288 29.7401 20.2867 29.7401C15.1446 29.7401 10.9763 25.5719 10.9763 20.4298C10.9752 18.9842 11.3113 17.5583 11.9578 16.2653C12.6042 14.9724 13.5433 13.848 14.7005 12.9815L14.7005 15.5046C13.7524 16.5797 13.1348 17.9056 12.9216 19.323C12.7085 20.7405 12.9088 22.1894 13.4987 23.4958C14.0886 24.8022 15.0429 25.9106 16.2471 26.6881C17.4513 27.4656 18.8543 27.8791 20.2877 27.879C21.7211 27.8789 23.124 27.4651 24.3281 26.6874C25.5322 25.9098 26.4863 24.8011 27.076 23.4946C27.6656 22.1881 27.8657 20.7392 27.6523 19.3218C27.4389 17.9044 26.8211 16.5786 25.8729 15.5037L25.8729 12.9806C27.0301 13.8471 27.9693 14.9717 28.6158 16.2648C29.2623 17.5579 29.5982 18.984 29.597 20.4298ZM24.0108 13.9125L21.2177 13.9125L21.2177 21.3608L19.3556 21.3608L19.3556 13.9125L16.5625 13.9125L20.2867 9.25735L24.0108 13.9125Z" stroke="url(#paint0_linear_1734_119)" stroke-width="0.5"/>
</g>
</g>
</g>
<defs>
<filter id="filter0_d_1734_119" x="8.72632" y="8.85718" width="23.1206" height="25.1329" filterUnits="userSpaceOnUse" color-interpolation-filters="sRGB">
<feFlood flood-opacity="0" result="BackgroundImageFix"/>
<feColorMatrix in="SourceAlpha" type="matrix" values="0 0 0 0 0 0 0 0 0 0 0 0 0 0 0 0 0 0 127 0" result="hardAlpha"/>
<feOffset dy="2"/>
<feGaussianBlur stdDeviation="1"/>
<feComposite in2="hardAlpha" operator="out"/>
<feColorMatrix type="matrix" values="0 0 0 0 0 0 0 0 0 0 0 0 0 0 0 0 0 0 0.21 0"/>
<feBlend mode="normal" in2="BackgroundImageFix" result="effect1_dropShadow_1734_119"/>
<feBlend mode="normal" in="SourceGraphic" in2="effect1_dropShadow_1734_119" result="shape"/>
</filter>
<linearGradient id="paint0_linear_1734_119" x1="13.5546" y1="13.1247" x2="27.3052" y2="27.7348" gradientUnits="userSpaceOnUse">
<stop stop-color="#E7E5E5"/>
<stop offset="0.473958" stop-color="white"/>
<stop offset="1" stop-color="#D9D5D5"/>
</linearGradient>
<clipPath id="clip0_1734_119">
<rect width="24.9231" height="24.9231" fill="white" transform="translate(7.53857 32.4615) rotate(-90)"/>
</clipPath>
</defs>
</svg>
