<svg width="65" height="37" viewBox="0 0 65 37" fill="none" xmlns="http://www.w3.org/2000/svg">
<path d="M55.9242 27.9489C55.9242 27.9489 52.1468 32.2258 56.1695 35.508H9.95817L9.71289 27.4019L55.9242 27.9489Z" fill="#E7E5E5"/>
<path d="M9.71289 32.4247C10.3506 32.0269 17.5129 27.4019 54.9921 29.2917C54.9921 29.2917 55.0903 28.5457 55.9733 27.8992L10.3506 27.004L9.71289 32.4247Z" fill="#CECECD"/>
<path d="M10.351 30.6841C10.351 30.3857 10.351 30.0376 10.351 29.6398C10.351 27.75 12.068 27.8992 12.068 27.8992H56.9058V25.7607H11.5775C10.6454 25.7607 9.95859 26.0094 9.51708 26.3575C9.46803 26.4072 9.41897 26.4072 9.41897 26.457L9.36992 26.5067C8.53595 27.3024 5.2001 30.7836 9.02652 35.7567C9.46803 36.4032 10.2039 36.9503 11.6265 36.9503H56.9058V34.8118H12.019C12.019 34.8118 10.302 34.961 10.302 33.0712C10.302 32.6734 10.302 32.3253 10.302 32.0269C10.351 32.0269 10.351 31.5296 10.351 30.6841Z" fill="#FFC23A"/>
<path d="M12.019 34.8118C12.019 34.8118 10.302 34.961 10.302 33.0712C10.302 32.6734 10.302 32.3253 10.302 32.0269C10.302 32.0269 10.302 31.4798 10.302 30.6841C10.302 30.3857 10.302 30.0376 10.302 29.6398C10.302 27.75 12.019 27.8992 12.019 27.8992H19.819V25.7607H11.5775C10.6454 25.7607 9.95859 26.0094 9.51709 26.3575C9.46803 26.4072 9.41897 26.4072 9.41897 26.457L9.36992 26.5067C8.53595 27.3024 5.2001 30.7836 9.02652 35.7567C9.46803 36.4032 10.2039 36.9503 11.6265 36.9503H19.9171V34.8118H12.019Z" fill="#F9A431"/>
<path d="M25.5098 31.5793C23.8419 31.2809 21.7324 31.4301 21.7324 31.4301C21.7324 31.4301 24.1362 32.7729 23.989 35.8065L25.8041 33.7675L28.306 35.2594C28.306 35.2097 27.5211 32.2258 25.5098 31.5793Z" fill="#EA5645"/>
<path d="M0 26.8549L32.6717 21.5834L65 26.8549L37.1358 25.7608C37.1358 25.7608 34.8792 26.9543 32.5245 26.8549C29.9736 26.7554 27.717 25.6116 27.717 25.6116L0 26.8549Z" fill="#350E52"/>
<path d="M61.566 22.4287L55.6302 17.2069C55.6302 17.2069 48.9094 15.8642 44.5434 13.4771C38.9019 10.344 34.0453 13.0295 32.8679 15.168C29.6792 10.8413 20.2113 13.9247 16.9736 15.0188C13.7358 16.0631 9.56602 17.5551 9.56602 17.5551L3.77734 22.4287L4.07168 22.9758L32.6717 21.633L61.9585 22.9758L61.566 22.4287Z" fill="#E7E5E5"/>
<path d="M64.1173 25.3132L63.3815 24.5175L62.2041 23.2742L61.4192 22.2796C61.4192 22.2796 55.3853 22.6277 50.9211 21.1855C46.457 19.7433 37.4796 15.8643 32.6721 21.5834C27.8645 15.8643 18.74 19.8925 14.2268 21.3347C9.76262 22.7769 3.77771 22.4288 3.77771 22.4288L3.13998 23.2742L1.96262 24.5175L1.22677 25.3132L0.34375 26.3078C0.34375 26.3078 14.0796 25.711 15.0607 25.5121C16.0419 25.3132 22.0758 24.0699 24.4305 24.1196C25.657 24.1694 28.7475 24.6667 28.7475 24.6667L32.6721 25.3629L37.7739 24.418C37.7739 24.418 38.5588 24.1196 40.9136 24.1694C43.2683 24.2688 49.3022 25.3132 50.2834 25.5121C51.2645 25.711 65.0004 26.3078 65.0004 26.3078L64.1173 25.3132Z" fill="#B4B4B4"/>
<path d="M34.5849 4.47578C34.5849 4.47578 32.7207 20.7379 32.7207 21.633C32.7207 21.633 34.8792 5.17201 42.8754 1.4919C49.8905 -1.74062 34.5849 4.47578 34.5849 4.47578Z" fill="#ECECEC"/>
<path d="M61.4191 17.2567C61.5662 17.3064 56.2681 11.1398 56.2681 11.1398C41.9926 5.56987 32.6719 21.5833 32.6719 21.5833C32.6719 21.5833 48.7624 11.4382 61.4191 17.2567Z" fill="#D8D8D7"/>
<path d="M59.9473 11.3387C60.0945 11.3884 53.6681 6.41527 53.6681 6.41527C36.7436 2.98381 32.6719 21.5833 32.6719 21.5833C32.6719 21.5833 46.3587 8.30505 59.9473 11.3387Z" fill="#E7E5E5"/>
<path d="M33.162 15.3172L32.6714 21.5834C32.6714 21.5834 29.4827 17.2567 21.2412 19.1465L23.1054 13.2285C23.1544 13.2285 30.0223 11.0403 33.162 15.3172Z" fill="#D8D6D6"/>
<path d="M46.1129 22.0807C44.8374 21.832 43.2676 21.5834 43.2676 21.5834C43.2676 21.5834 45.0827 23.2245 44.9846 26.0592L46.3581 24.1197L48.2714 25.5121C48.2223 25.5619 47.6336 22.7272 46.1129 22.0807Z" fill="#22B1B6"/>
<path d="M32.6714 21.5833C32.6714 21.5833 30.0223 15.7648 17.4639 20.2406C17.4639 20.2406 11.1846 22.7271 3.77707 22.4288L2.1582 24.3185C2.1582 24.3185 8.24122 25.0148 18.2488 22.4288C18.2488 22.4288 28.5997 19.4449 32.6714 24.0201V21.5833Z" fill="#D8D6D6"/>
<path d="M32.5732 21.4838C32.5732 21.4838 35.2223 15.4663 47.8298 20.0913C47.8298 20.0913 53.9619 22.6276 61.4185 22.2795L63.1846 24.3185C63.1846 24.3185 57.1015 25.0645 47.0449 22.379C47.0449 22.379 36.6449 19.2956 32.5732 24.0201V21.4838Z" fill="#D8D6D6"/>
<path d="M65.0002 26.8549L64.0681 26.2581L60.3398 26.1089L65.0002 26.8549Z" fill="#191D52"/>
<path d="M0 26.8549L0.883019 26.3078L4.80755 26.1089L0 26.8549Z" fill="#350E52"/>
<path d="M54.7469 2.43683C54.9432 2.3871 47.1922 0 47.1922 0C30.4639 3.08333 32.6715 21.5833 32.6715 21.5833C32.6715 21.5833 41.0111 4.32661 54.7469 2.43683Z" fill="#D8D6D6"/>
<path d="M20.0645 24.6169V26.0094L27.6682 25.6612C27.6682 25.6612 32.4758 28.3965 37.1361 25.8104L46.0154 26.1586V24.8655C46.0154 24.8655 40.5701 23.9704 37.7739 24.4677L32.672 25.4126C32.672 25.4126 24.9701 24.1693 24.4305 24.1693C23.9399 24.1693 20.4078 24.5672 20.0645 24.6169Z" fill="#191D52"/>
</svg>
