<svg width="64" height="67" viewBox="0 0 64 67" fill="none" xmlns="http://www.w3.org/2000/svg">
<g clip-path="url(#clip0_1450_238)">
<path d="M13.6437 1.58627C-0.596827 5.82471 -2.58887 41.1937 2.63166 52.7723C7.85218 64.3563 20.9636 52.4963 32.5681 53.3353C38.8791 53.79 49.5606 58.9757 56.0261 56.621C62.4874 54.2609 65.9391 42.3359 62.599 24.4078C59.2589 6.4851 33.1734 -4.22196 13.6437 1.58627Z" fill="#F7F0FF"/>
<path d="M48.0583 28.5269L53.0385 60.6426C53.1973 61.6548 52.6521 62.4885 51.8321 62.4885H39.4805L48.0583 28.5269Z" fill="url(#paint0_linear_1450_238)"/>
<path d="M47.9287 28.5269L46.7524 36.1268L42.9486 60.6426C42.7897 61.6603 41.9912 62.4885 41.1712 62.4885H9.0667C8.2467 62.4885 7.70576 61.6603 7.86461 60.6426L11.6684 36.1268L12.8447 28.5269H47.9287Z" fill="#D8EAF0"/>
<path d="M47.9297 28.5269L46.7533 36.1268H11.665L12.8457 28.5269H47.9297Z" fill="url(#paint1_linear_1450_238)"/>
<path d="M23.8738 38.6432C24.3117 38.6432 24.5993 39.0871 24.5177 39.6284L24.1142 42.2429C24.0283 42.7842 23.6033 43.2281 23.1654 43.2281H19.4732C19.0353 43.2281 18.7477 42.7842 18.8293 42.2429L19.2328 39.6284C19.3187 39.0871 19.7437 38.6432 20.1816 38.6432H23.8738Z" fill="url(#paint2_linear_1450_238)"/>
<path d="M31.5993 45.7623C32.0372 45.7623 32.3249 46.2062 32.2433 46.7475L31.8397 49.362C31.7539 49.9033 31.3288 50.3472 30.8909 50.3472H27.1988C26.7609 50.3472 26.4733 49.9033 26.5548 49.362L26.9584 46.7475C27.0443 46.2062 27.4693 45.7623 27.9072 45.7623H31.5993Z" fill="url(#paint3_linear_1450_238)"/>
<path d="M23.7351 54C24.173 54 24.4606 54.4439 24.3791 54.9852L23.9755 57.5997C23.8896 58.141 23.4646 58.5849 23.0267 58.5849H19.3346C18.8967 58.5849 18.609 58.141 18.6906 57.5997L19.0941 54.9852C19.18 54.4439 19.605 54 20.0429 54H23.7351Z" fill="url(#paint4_linear_1450_238)"/>
<path d="M39.321 53.6161C39.7589 53.6161 40.0466 54.06 39.965 54.6013L39.5615 57.2158C39.4756 57.7571 39.0506 58.201 38.6127 58.201H34.9205C34.4826 58.201 34.195 57.7571 34.2765 57.2158L34.6801 54.6013C34.7659 54.06 35.191 53.6161 35.6289 53.6161H39.321Z" fill="url(#paint5_linear_1450_238)"/>
<path d="M16.6443 45.7623C17.0822 45.7623 17.3698 46.2062 17.2883 46.7475L16.8847 49.362C16.7988 49.9033 16.3738 50.3472 15.9359 50.3472H12.2437C11.8058 50.3472 11.5182 49.9033 11.5998 49.362L12.0033 46.7475C12.0892 46.2062 12.5142 45.7623 12.9521 45.7623H16.6443Z" fill="url(#paint6_linear_1450_238)"/>
<path d="M23.7351 45.7623C24.173 45.7623 24.4607 46.2062 24.3791 46.7475L23.9755 49.362C23.8897 49.9033 23.4646 50.3472 23.0267 50.3472H19.3346C18.8967 50.3472 18.609 49.9033 18.6906 49.362L19.0941 46.7475C19.18 46.2062 19.605 45.7623 20.0429 45.7623H23.7351Z" fill="#F5F5F5"/>
<path d="M39.4636 45.7623C39.9015 45.7623 40.1892 46.2062 40.1076 46.7475L39.704 49.362C39.6182 49.9033 39.1931 50.3472 38.7552 50.3472H35.0631C34.6252 50.3472 34.3375 49.9033 34.4191 49.362L34.8227 46.7475C34.9085 46.2062 35.3336 45.7623 35.7715 45.7623H39.4636Z" fill="#F5F5F5"/>
<path d="M54.7558 62.8892H6.18684C6.01082 62.8892 5.86914 62.7105 5.86914 62.4886C5.86914 62.2666 6.01082 62.088 6.18684 62.088H54.7558C54.9318 62.088 55.0735 62.2666 55.0735 62.4886C55.0735 62.7105 54.9318 62.8892 54.7558 62.8892Z" fill="url(#paint7_linear_1450_238)"/>
<path d="M53.8749 29.9128C53.8749 35.6344 50.1956 40.2734 45.6577 40.2734C41.1197 40.2734 37.4404 35.6344 37.4404 29.9128C37.4404 24.1911 41.1197 19.5521 45.6577 19.5521C50.1956 19.5467 53.8749 24.1857 53.8749 29.9128Z" fill="#675487"/>
<path d="M52.39 29.913C52.39 34.6007 49.3762 38.4061 45.654 38.4061C41.9361 38.4061 38.918 34.6062 38.918 29.913C38.918 25.2253 41.9318 21.4199 45.654 21.4199C49.3762 21.4199 52.39 25.2199 52.39 29.913Z" fill="#F5FAFB"/>
<path d="M42.4462 32.8465C42.3389 32.8465 42.2358 32.7816 42.1757 32.6571C42.0813 32.4676 42.1285 32.224 42.2787 32.1049L45.3397 29.6907V23.7471C45.3397 23.5252 45.4814 23.3466 45.6574 23.3466C45.8335 23.3466 45.9751 23.5252 45.9751 23.7471V29.9072C45.9751 30.048 45.9193 30.1725 45.8249 30.2482L42.6136 32.7816C42.5621 32.8249 42.5063 32.8465 42.4462 32.8465Z" fill="url(#paint8_linear_1450_238)"/>
</g>
<defs>
<linearGradient id="paint0_linear_1450_238" x1="46.2732" y1="28.5269" x2="46.2732" y2="62.4885" gradientUnits="userSpaceOnUse">
<stop stop-color="#112052"/>
<stop offset="1" stop-color="#390B52"/>
</linearGradient>
<linearGradient id="paint1_linear_1450_238" x1="29.7974" y1="28.5269" x2="29.7974" y2="36.1268" gradientUnits="userSpaceOnUse">
<stop stop-color="#132052"/>
<stop offset="1" stop-color="#390C52"/>
</linearGradient>
<linearGradient id="paint2_linear_1450_238" x1="21.6735" y1="38.6432" x2="21.6735" y2="43.2281" gradientUnits="userSpaceOnUse">
<stop stop-color="#132052"/>
<stop offset="1" stop-color="#390C52"/>
</linearGradient>
<linearGradient id="paint3_linear_1450_238" x1="29.3991" y1="45.7623" x2="29.3991" y2="50.3472" gradientUnits="userSpaceOnUse">
<stop stop-color="#132052"/>
<stop offset="1" stop-color="#390C52"/>
</linearGradient>
<linearGradient id="paint4_linear_1450_238" x1="21.5348" y1="54" x2="21.5348" y2="58.5849" gradientUnits="userSpaceOnUse">
<stop stop-color="#132052"/>
<stop offset="1" stop-color="#390C52"/>
</linearGradient>
<linearGradient id="paint5_linear_1450_238" x1="37.1208" y1="53.6161" x2="37.1208" y2="58.201" gradientUnits="userSpaceOnUse">
<stop stop-color="#132052"/>
<stop offset="1" stop-color="#390C52"/>
</linearGradient>
<linearGradient id="paint6_linear_1450_238" x1="14.444" y1="45.7623" x2="14.444" y2="50.3472" gradientUnits="userSpaceOnUse">
<stop stop-color="#132052"/>
<stop offset="1" stop-color="#390C52"/>
</linearGradient>
<linearGradient id="paint7_linear_1450_238" x1="30.4713" y1="62.088" x2="30.4713" y2="62.8892" gradientUnits="userSpaceOnUse">
<stop stop-color="#112052"/>
<stop offset="1" stop-color="#390B52"/>
</linearGradient>
<linearGradient id="paint8_linear_1450_238" x1="44.051" y1="23.3466" x2="44.051" y2="32.8465" gradientUnits="userSpaceOnUse">
<stop stop-color="#112052"/>
<stop offset="1" stop-color="#390B52"/>
</linearGradient>
<clipPath id="clip0_1450_238">
<rect width="63.8956" height="66.7865" fill="white"/>
</clipPath>
</defs>
</svg>
