<svg width="20" height="22" viewBox="0 0 20 22" fill="none" xmlns="http://www.w3.org/2000/svg">
<path d="M1.33333 22C0.979711 22 0.640573 21.8637 0.390525 21.621C0.140476 21.3783 0 21.0491 0 20.7059V1.29415C0 0.950926 0.140476 0.621763 0.390525 0.379069C0.640573 0.136375 0.979711 3.13488e-05 1.33333 3.13488e-05H9.84C10.0885 -0.00164711 10.3325 0.0641052 10.5445 0.18987C10.7566 0.315635 10.9282 0.496409 11.04 0.711795L12 2.58826H18.6667C19.0203 2.58826 19.3594 2.72461 19.6095 2.9673C19.8595 3.20999 20 3.53916 20 3.88238V14.2353C20 14.5785 19.8595 14.9077 19.6095 15.1504C19.3594 15.3931 19.0203 15.5294 18.6667 15.5294H11.48C11.2338 15.5287 10.9926 15.4618 10.7831 15.3362C10.5737 15.2105 10.4041 15.0311 10.2933 14.8177L9.33333 12.9412H2.66667V20.7059C2.66667 21.0491 2.52619 21.3783 2.27614 21.621C2.02609 21.8637 1.68696 22 1.33333 22ZM2.66667 2.58826V10.353H10.6667L12 12.9412H17.3333V5.17649H10.6667L9.33333 2.58826H2.66667Z" fill="white"/>
</svg>
