<svg width="22" height="22" viewBox="0 0 22 22" fill="none" xmlns="http://www.w3.org/2000/svg">
<path fill-rule="evenodd" clip-rule="evenodd" d="M14.7296 13.8365H15.7233L22 20.1258L20.1258 22L13.8365 15.7233V14.7296L13.4969 14.3774C12.0629 15.6101 10.2013 16.3522 8.1761 16.3522C3.66038 16.3522 0 12.6918 0 8.1761C0 3.66038 3.66038 0 8.1761 0C12.6918 0 16.3522 3.66038 16.3522 8.1761C16.3522 10.2013 15.6101 12.0629 14.3774 13.4969L14.7296 13.8365ZM2.51572 8.1761C2.51572 11.3082 5.04402 13.8365 8.1761 13.8365C11.3082 13.8365 13.8365 11.3082 13.8365 8.1761C13.8365 5.04402 11.3082 2.51572 8.1761 2.51572C5.04402 2.51572 2.51572 5.04402 2.51572 8.1761Z" fill="white"/>
</svg>
