<svg width="33" height="33" viewBox="0 0 33 33" fill="none" xmlns="http://www.w3.org/2000/svg">
<path d="M6.875 4.125C6.14565 4.125 5.44618 4.41473 4.93046 4.93046C4.41473 5.44618 4.125 6.14565 4.125 6.875H6.875V4.125ZM9.625 4.125V6.875H12.375V4.125H9.625ZM15.125 4.125V6.875H17.875V4.125H15.125ZM20.625 4.125V6.875H23.375V4.125H20.625ZM26.125 4.125V6.875H28.875C28.875 6.14565 28.5853 5.44618 28.0695 4.93046C27.5538 4.41473 26.8543 4.125 26.125 4.125ZM4.125 9.625V12.375H6.875V9.625H4.125ZM9.625 9.625V15.125H15.125V9.625H9.625ZM17.875 9.625V15.125H23.375V9.625H17.875ZM26.125 9.625V12.375H28.875V9.625H26.125ZM4.125 15.125V17.875H6.875V15.125H4.125ZM26.125 15.125V17.875H28.875V15.125H26.125ZM9.625 17.875V23.375H15.125V17.875H9.625ZM17.875 17.875V23.375H23.375V17.875H17.875ZM4.125 20.625V23.375H6.875V20.625H4.125ZM26.125 20.625V23.375H28.875V20.625H26.125ZM4.125 26.125C4.125 26.8543 4.41473 27.5538 4.93046 28.0695C5.44618 28.5853 6.14565 28.875 6.875 28.875V26.125H4.125ZM9.625 26.125V28.875H12.375V26.125H9.625ZM15.125 26.125V28.875H17.875V26.125H15.125ZM20.625 26.125V28.875H23.375V26.125H20.625ZM26.125 26.125V28.875C26.8543 28.875 27.5538 28.5853 28.0695 28.0695C28.5853 27.5538 28.875 26.8543 28.875 26.125H26.125Z" fill="#0091FF"/>
</svg>
