<svg width="30" height="30" viewBox="0 0 30 30" fill="none" xmlns="http://www.w3.org/2000/svg">
<path d="M10 16.25C7.675 16.25 5.7375 17.85 5.175 20H2.5V22.5H5.175C5.7375 24.65 7.675 26.25 10 26.25C12.325 26.25 14.2625 24.65 14.825 22.5H27.5V20H14.825C14.2625 17.85 12.325 16.25 10 16.25ZM10 23.75C8.625 23.75 7.5 22.625 7.5 21.25C7.5 19.875 8.625 18.75 10 18.75C11.375 18.75 12.5 19.875 12.5 21.25C12.5 22.625 11.375 23.75 10 23.75ZM24.825 7.5C24.2625 5.35 22.325 3.75 20 3.75C17.675 3.75 15.7375 5.35 15.175 7.5H2.5V10H15.175C15.7375 12.15 17.675 13.75 20 13.75C22.325 13.75 24.2625 12.15 24.825 10H27.5V7.5H24.825ZM20 11.25C18.625 11.25 17.5 10.125 17.5 8.75C17.5 7.375 18.625 6.25 20 6.25C21.375 6.25 22.5 7.375 22.5 8.75C22.5 10.125 21.375 11.25 20 11.25Z" fill="#0091FF"/>
</svg>
