<svg width="38" height="38" viewBox="0 0 38 38" fill="none" xmlns="http://www.w3.org/2000/svg">
<path d="M22.8894 4.1355C24.2635 4.4924 25.5863 5.0417 26.81 5.76171L29.16 3.41223C29.461 3.11071 29.9506 3.11071 30.2515 3.41223L34.6305 7.79075C34.9321 8.09227 34.9321 8.58131 34.6305 8.8828L32.2805 11.2328C32.9986 12.4543 33.55 13.7814 33.9064 15.1529H37.2278C37.6541 15.1529 37.9999 15.4987 37.9999 15.925V22.1177C37.9999 22.5441 37.6541 22.8899 37.2278 22.8899H33.9064C33.5495 24.264 33.0005 25.5871 32.2802 26.811L34.6307 29.1604C34.9323 29.462 34.9323 29.951 34.6307 30.2525L30.2517 34.631C29.9508 34.9325 29.4612 34.9325 29.1602 34.631L26.8097 32.281C26.2007 32.6398 25.5645 32.9575 24.9053 33.2306C24.2528 33.5011 23.5795 33.728 22.8897 33.9069V37.2287C22.8897 37.655 22.5439 38.0008 22.117 38.0008H15.9251C15.4982 38.0008 15.1524 37.655 15.1524 37.2287V33.9069C13.7799 33.551 12.4547 32.9996 11.2324 32.2815L8.88289 34.631C8.58137 34.9325 8.09233 34.9325 7.79084 34.631L3.41184 30.2524C3.11086 29.9509 3.11086 29.4619 3.41184 29.1604L5.76187 26.8104C5.04131 25.587 4.49234 24.264 4.13565 22.8898H0.814887C0.388545 22.8898 0.0427246 22.544 0.0427246 22.1176V15.9249C0.0427246 15.4986 0.388552 15.1527 0.814887 15.1527H4.13621C4.49257 13.7813 5.04345 12.4542 5.7616 11.2327L3.41212 8.88324C3.11114 8.58172 3.11114 8.09268 3.41212 7.79119L7.79111 3.41267C8.09263 3.11115 8.58168 3.11115 8.88317 3.41267L11.2324 5.76187C12.456 5.04131 13.7783 4.49234 15.1529 4.13566V0.814887C15.1529 0.388545 15.4988 0.0427246 15.9257 0.0427246H22.1175C22.5444 0.0427246 22.8903 0.388552 22.8903 0.814887V4.13566L22.8894 4.1355ZM11.8652 24.2827L13.3104 21.7795C12.8708 20.8947 12.6379 19.9166 12.6339 18.9253C12.6228 16.4891 13.9985 14.2388 16.1764 13.14C17.2936 12.5764 18.5613 12.3435 19.8152 12.4862C20.3985 12.5502 20.6913 13.2127 20.3677 13.6861L18.106 17.6039L20.7049 19.1045L22.9962 15.1358C23.2845 14.6384 23.9899 14.6257 24.3028 15.0934C25.8115 17.1597 25.9604 19.9129 24.6811 22.1282C23.5931 24.013 21.6548 25.2106 19.4877 25.346L18.0425 27.8492C18.3638 27.8843 18.6904 27.9032 19.0211 27.9032C23.9261 27.9032 27.9026 23.9268 27.9026 19.0217C27.9026 14.1166 23.9261 10.1402 19.0211 10.1402C14.1155 10.1402 10.1395 14.1166 10.1395 19.0217C10.1395 20.991 10.7809 22.8101 11.8652 24.2825L11.8652 24.2827ZM19.021 8.59528C24.7788 8.59528 29.447 13.2639 29.447 19.022C29.447 24.78 24.7789 29.4486 19.021 29.4486C13.2631 29.4486 8.59433 24.7797 8.59433 19.022C8.59433 13.2642 13.263 8.59528 19.021 8.59528ZM12.9401 25.4952C13.9266 26.4216 15.1242 27.1251 16.4535 27.5258L18.3567 24.2294C18.4872 23.984 18.746 23.8176 19.0429 23.82C20.8142 23.8346 22.4621 22.8968 23.3476 21.3625C24.1039 20.0527 24.2133 18.4776 23.6538 17.077L21.6528 20.5433C21.4396 20.9116 20.9684 21.0369 20.6002 20.8238L16.6696 18.5518C16.3033 18.3395 16.1774 17.8707 16.3884 17.5038L18.3893 14.0375C17.8609 14.1134 17.3473 14.275 16.8696 14.5154C15.212 15.3516 14.1635 17.0645 14.1713 18.919C14.1753 19.7907 14.4115 20.6498 14.8543 21.4022C14.9883 21.6327 14.9997 21.9264 14.857 22.1744L12.9401 25.4952ZM21.987 5.50636C21.6222 5.44448 21.3442 5.12702 21.3442 4.74471V1.58689H16.6966V4.74471C16.6961 5.10053 16.4492 5.42096 16.0874 5.49902C14.482 5.84539 12.9563 6.47515 11.573 7.35999C11.2709 7.58289 10.8432 7.55749 10.5698 7.28407L8.33596 5.05023L5.0495 8.33718L7.28195 10.5718C7.53321 10.822 7.58536 11.2224 7.3857 11.5331C6.49007 12.9224 5.85866 14.4394 5.50578 16.0548C5.44391 16.4195 5.12645 16.697 4.74413 16.697H1.58632V21.3448H4.74413C5.09995 21.3454 5.42038 21.5923 5.49845 21.9541C5.84481 23.5595 6.47458 25.0854 7.35941 26.4685C7.58231 26.7706 7.55664 27.1986 7.28349 27.4717L5.0491 29.7061L8.33556 32.993L10.5707 30.7598C10.8214 30.509 11.2213 30.4569 11.532 30.6563C12.9204 31.5511 14.4393 32.1833 16.0537 32.5362C16.4184 32.5975 16.6964 32.915 16.6964 33.2976V36.4565H21.344V33.2976C21.3445 32.9417 21.5915 32.6213 21.9532 32.5438C22.7716 32.3671 23.5608 32.1194 24.3129 31.8073C25.0667 31.495 25.7873 31.1176 26.4668 30.6828C26.7692 30.4599 27.1969 30.4853 27.4706 30.7588L29.7052 32.9934L32.9917 29.7065L30.7579 27.4713C30.5071 27.2206 30.455 26.8207 30.6544 26.5101C31.5473 25.1262 32.1833 23.5968 32.5346 21.9878C32.5964 21.6231 32.9139 21.3451 33.2962 21.3451H36.4546V16.6972H33.2962C32.9404 16.6972 32.62 16.4497 32.5419 16.088C32.1942 14.478 31.5687 12.9615 30.6815 11.5744C30.4586 11.2721 30.4843 10.8443 30.7574 10.5707L32.9918 8.33682L29.7053 5.04987L27.4702 7.28315C27.2195 7.53388 26.8196 7.58602 26.5089 7.38663C25.1251 6.49453 23.5956 5.85718 21.9867 5.50644L21.987 5.50636Z" fill="white"/>
</svg>
