<svg width="32" height="32" viewBox="0 0 32 32" fill="none" xmlns="http://www.w3.org/2000/svg">
<path d="M29.7125 22.2875C29.9003 22.4771 30.0056 22.7332 30.0056 23C30.0056 23.2668 29.9003 23.5229 29.7125 23.7125L26.7125 26.7125C26.5214 26.8973 26.2659 27.0006 26 27.0006C25.7341 27.0006 25.4786 26.8973 25.2875 26.7125C25.0997 26.5229 24.9944 26.2668 24.9944 26C24.9944 25.7332 25.0997 25.4771 25.2875 25.2875L26.5875 24H21.5125C21.1948 23.9986 20.8819 23.922 20.5994 23.7764C20.317 23.6308 20.073 23.4205 19.8875 23.1625L10.4875 10H4C3.73478 10 3.48043 9.89464 3.29289 9.70711C3.10536 9.51957 3 9.26522 3 9C3 8.73478 3.10536 8.48043 3.29289 8.29289C3.48043 8.10536 3.73478 8 4 8H10.4875C10.8052 8.0014 11.1181 8.07802 11.4006 8.22359C11.683 8.36916 11.927 8.57953 12.1125 8.8375L21.5125 22H26.5875L25.2875 20.7125C25.128 20.5182 25.0465 20.2715 25.0589 20.0205C25.0712 19.7694 25.1765 19.5319 25.3542 19.3542C25.5319 19.1765 25.7694 19.0712 26.0205 19.0589C26.2715 19.0465 26.5182 19.128 26.7125 19.2875L29.7125 22.2875Z" fill="white"/>
<path opacity="0.7" d="M18.2326 13.5363C18.104 13.5067 17.9825 13.4518 17.8752 13.375C17.7682 13.298 17.6775 13.2007 17.6082 13.0886C17.539 12.9765 17.4926 12.8518 17.4717 12.7217C17.4507 12.5916 17.4558 12.4587 17.4864 12.3305C17.517 12.2024 17.5727 12.0815 17.6502 11.975L19.8877 8.83746C20.0732 8.57949 20.3172 8.36912 20.5996 8.22355C20.8821 8.07798 21.195 8.00136 21.5127 7.99996H26.5877L25.2877 6.71246C25.1282 6.51817 25.0467 6.2715 25.0591 6.02045C25.0714 5.7694 25.1767 5.53191 25.3544 5.35417C25.5321 5.17644 25.7696 5.07117 26.0207 5.05884C26.2717 5.04651 26.5184 5.128 26.7127 5.28746L29.7127 8.28746C29.9005 8.47706 30.0058 8.73311 30.0058 8.99996C30.0058 9.26681 29.9005 9.52287 29.7127 9.71246L26.7127 12.7125C26.5216 12.8973 26.2661 13.0006 26.0002 13.0006C25.7343 13.0006 25.4788 12.8973 25.2877 12.7125C25.0999 12.5229 24.9946 12.2668 24.9946 12C24.9946 11.7331 25.0999 11.4771 25.2877 11.2875L26.5877 9.99996H21.5127L19.2752 13.1375C19.1992 13.2454 19.1026 13.3373 18.991 13.4077C18.8793 13.4781 18.7548 13.5258 18.6247 13.5478C18.4945 13.5699 18.3613 13.566 18.2326 13.5363Z" fill="white"/>
<path opacity="0.7" d="M13.7675 18.4641C13.8962 18.4937 14.0177 18.5486 14.125 18.6254C14.232 18.7024 14.3227 18.7997 14.392 18.9118C14.4612 19.0239 14.5076 19.1486 14.5285 19.2787C14.5494 19.4088 14.5444 19.5417 14.5138 19.6699C14.4832 19.798 14.4275 19.9189 14.35 20.0254L12.1125 23.1629C11.927 23.4209 11.683 23.6313 11.4006 23.7769C11.1181 23.9224 10.8052 23.999 10.4875 24.0004H4C3.73478 24.0004 3.48043 23.8951 3.29289 23.7076C3.10536 23.52 3 23.2657 3 23.0004C3 22.7352 3.10536 22.4809 3.29289 22.2933C3.48043 22.1058 3.73478 22.0004 4 22.0004H10.4875L12.725 18.8629C12.801 18.755 12.8976 18.6631 13.0092 18.5927C13.1209 18.5223 13.2454 18.4746 13.3755 18.4526C13.5057 18.4305 13.6389 18.4344 13.7675 18.4641Z" fill="white"/>
</svg>
