<svg width="29" height="24" viewBox="0 0 29 24" fill="none" xmlns="http://www.w3.org/2000/svg">
<path d="M19.012 3.351V2.65563L27.8023 11.446L19.012 20.2364V16.19V15.09H17.912H16.52H16.5083L16.4966 15.0902C12.6847 15.1713 8.93754 16.0912 5.52146 17.7844L5.52758 17.7974C4.42073 18.4449 3.37571 19.1896 2.40458 20.0219C4.39247 15.0211 7.66157 11.4778 12.0796 9.43522C13.665 8.72535 15.5243 8.15225 17.471 7.81126L17.5314 7.80246C17.5941 7.80106 17.6813 7.79659 17.77 7.78275C17.9401 7.75623 18.183 7.68785 18.4132 7.49899C18.8367 7.15148 18.9132 6.64378 18.9428 6.4296C19.0121 5.92914 19.0121 5.027 19.012 3.51433C19.012 3.46066 19.012 3.40622 19.012 3.351Z" stroke="white" stroke-width="2.2"/>
</svg>
