<svg width="31" height="22" viewBox="0 0 31 22" fill="none" xmlns="http://www.w3.org/2000/svg">
<path fill-rule="evenodd" clip-rule="evenodd" d="M10.8505 10.8505C13.8421 10.8505 16.2758 8.41689 16.2758 5.42525C16.2758 2.43361 13.8421 0 10.8505 0C7.85887 0 5.42525 2.43361 5.42525 5.42525C5.42525 8.41689 7.85887 10.8505 10.8505 10.8505ZM0 18.9884C0 15.3767 7.22334 13.5631 10.8505 13.5631C14.4777 13.5631 21.701 15.3767 21.701 18.9884V21.701H0V18.9884ZM10.8503 16.6633C8.07564 16.6633 4.92899 17.7018 3.62693 18.6009H18.0736C16.7715 17.7018 13.6249 16.6633 10.8503 16.6633ZM13.1756 5.42525C13.1756 4.13869 12.1371 3.10015 10.8505 3.10015C9.56395 3.10015 8.5254 4.13869 8.5254 5.42525C8.5254 6.71181 9.56395 7.75036 10.8505 7.75036C12.1371 7.75036 13.1756 6.71181 13.1756 5.42525ZM21.7616 13.6561C23.5597 14.9582 24.7997 16.6943 24.7997 18.9884V21.701H31V18.9884C31 15.8572 25.5747 14.0747 21.7616 13.6561ZM25.5762 5.42525C25.5762 8.41689 23.1426 10.8505 20.1509 10.8505C19.3139 10.8505 18.5389 10.649 17.8258 10.308C18.8024 8.92842 19.3759 7.23884 19.3759 5.42525C19.3759 3.61167 18.8024 1.92209 17.8258 0.542525C18.5389 0.201509 19.3139 0 20.1509 0C23.1426 0 25.5762 2.43361 25.5762 5.42525Z" fill="black" fill-opacity="0.3"/>
</svg>
