<svg width="41" height="41" viewBox="0 0 41 41" fill="none" xmlns="http://www.w3.org/2000/svg">
<path d="M40.8082 14.7402C40.6799 14.3623 40.4436 14.0301 40.1287 13.7849C39.8138 13.5396 39.4339 13.3919 39.036 13.3601L27.3965 12.4352L22.3597 1.28566C22.1993 0.926556 21.9384 0.62155 21.6084 0.407453C21.2785 0.193356 20.8937 0.0793177 20.5004 0.0791019C20.1071 0.078886 19.7221 0.192502 19.392 0.406236C19.0618 0.619972 18.8006 0.924691 18.6398 1.28362L13.603 12.4352L1.96344 13.3601C1.57237 13.3911 1.1985 13.534 0.88657 13.7719C0.574638 14.0098 0.337847 14.3326 0.204527 14.7015C0.0712062 15.0705 0.0470011 15.47 0.134807 15.8523C0.222614 16.2347 0.418713 16.5836 0.699645 16.8575L9.30119 25.2426L6.2591 38.4154C6.16673 38.8141 6.19634 39.2314 6.34408 39.6131C6.49182 39.9948 6.75087 40.3233 7.08762 40.556C7.42436 40.7886 7.82326 40.9147 8.23255 40.9178C8.64183 40.9209 9.0426 40.8009 9.38285 40.5735L20.4997 33.1622L31.6166 40.5735C31.9644 40.8044 32.3745 40.9232 32.7919 40.9141C33.2092 40.9049 33.6137 40.7682 33.951 40.5223C34.2883 40.2763 34.5423 39.933 34.6786 39.5385C34.815 39.1439 34.8273 38.7171 34.7138 38.3154L30.9796 25.2487L40.2406 16.9146C40.847 16.3675 41.0695 15.514 40.8082 14.7402Z" fill="url(#paint0_linear_1450_2515)"/>
<defs>
<linearGradient id="paint0_linear_1450_2515" x1="0.0830072" y1="2.64123" x2="0.871785" y2="35.4644" gradientUnits="userSpaceOnUse">
<stop stop-color="#0B2352"/>
<stop offset="1" stop-color="#390B52"/>
</linearGradient>
</defs>
</svg>
