<svg width="40" height="40" viewBox="0 0 40 40" fill="none" xmlns="http://www.w3.org/2000/svg">
<path fill-rule="evenodd" clip-rule="evenodd"
      d="M20 0C8.96 0 0 8.96 0 20C0 31.04 8.96 40 20 40C31.04 40 40 31.04 40 20C40 8.96 31.04 0 20 0ZM32.7202 29.66C29.8602 26.18 22.9202 25 20.0002 25C17.0802 25 10.1402 26.18 7.28019 29.66C5.24019 26.98 4.00019 23.64 4.00019 20C4.00019 11.18 11.1802 3.99995 20.0002 3.99995C28.8202 3.99995 36.0002 11.18 36.0002 20C36.0002 23.64 34.7602 26.98 32.7202 29.66ZM13.0004 15C13.0004 11.12 16.1204 8.00002 20.0004 8.00002C23.8804 8.00002 27.0004 11.12 27.0004 15C27.0004 18.88 23.8804 22 20.0004 22C16.1204 22 13.0004 18.88 13.0004 15Z" fill="black" fill-opacity="0.3"/>
</svg>
