<svg width="32" height="32" viewBox="0 0 32 32" fill="none" xmlns="http://www.w3.org/2000/svg">
<g clip-path="url(#clip0_1273_2300)">
<path d="M9.86768 16.0001C9.86768 19.4667 12.6232 22.2223 16.0899 22.2223C19.5566 22.2223 22.3121 19.4667 22.3121 16.0001C22.3121 12.5334 19.5566 9.77783 16.0899 9.77783C12.6232 9.77783 9.86768 12.5334 9.86768 16.0001ZM20.5343 16.0001C20.5343 18.4889 18.5788 20.4445 16.0899 20.4445C13.601 20.4445 11.6455 18.4889 11.6455 16.0001C11.6455 13.5112 13.601 11.5556 16.0899 11.5556C18.5788 11.5556 20.5343 13.5112 20.5343 16.0001Z" fill="white"/>
<path d="M29.1566 13.0667L26.6677 12.2667L26.5788 12.0001C25.8677 12.0001 25.1566 11.8223 24.4455 11.6445C24.7121 12.1778 24.9788 12.8001 25.1566 13.3334L25.2455 13.7778L28.4455 14.7556V17.2445L25.2455 18.2223L25.1566 18.6667L24.3566 20.5334L24.0899 20.9778L25.6899 23.9112L23.9121 25.6889L20.9788 24.0889L20.5344 24.3556C19.9121 24.7112 19.2899 24.9778 18.6677 25.1556L18.2233 25.2445L17.2455 28.4445H14.7566L13.7788 25.2445L13.3344 25.1556L11.4677 24.3556L11.0233 24.0889L8.08992 25.6889L6.31214 23.9112L7.91214 20.9778L7.64548 20.5334C7.28992 19.9112 7.02325 19.2889 6.84547 18.6667L6.75659 18.2223L3.55659 17.2445V14.7556L6.57881 13.8667L6.75659 13.4223C6.93436 12.7112 7.20103 12.0889 7.55659 11.4667L7.82325 11.0223L6.31214 8.08894L8.08992 6.31116L10.9344 7.91116L11.3788 7.6445C12.001 7.28894 12.6233 7.02228 13.3344 6.8445L13.7788 6.66672L14.7566 3.55561H17.2455L18.2233 6.66672L18.6677 6.8445C19.2899 7.02228 19.8233 7.28894 20.3566 7.55561C20.0899 6.8445 20.001 6.13339 20.001 5.33339L19.6455 5.15561L18.8455 2.66672C18.6677 2.22228 18.1344 1.77783 17.5121 1.77783H14.4899C13.8677 1.77783 13.3344 2.22228 13.2455 2.8445L12.4455 5.33339C11.9121 5.42228 11.4677 5.60005 11.0233 5.86672L8.71214 4.62228C8.17881 4.35561 7.4677 4.4445 7.02325 4.88894L4.88992 7.02228C4.44548 7.46672 4.35659 8.17783 4.62325 8.71116L5.77881 10.9334C5.60103 11.3778 5.42325 11.9112 5.24548 12.3556L2.75659 13.1556C2.22325 13.3334 1.77881 13.8667 1.77881 14.4889V17.5112C1.77881 18.1334 2.22325 18.6667 2.84548 18.8445L5.33436 19.6445L5.8677 20.9778L4.62325 23.2889C4.35659 23.8223 4.44548 24.5334 4.88992 24.9778L7.02325 27.1112C7.4677 27.5556 8.17881 27.6445 8.71214 27.3778L11.0233 26.1334L12.3566 26.6667L13.1566 29.2445C13.3344 29.7778 13.8677 30.2223 14.4899 30.2223H17.5121C18.1344 30.2223 18.6677 29.7778 18.8455 29.2445L19.6455 26.6667L20.9788 26.1334L23.2899 27.3778C23.8233 27.6445 24.5344 27.5556 24.9788 27.1112L27.1121 24.9778C27.5566 24.5334 27.6455 23.8223 27.3788 23.2889L26.1344 20.9778L26.6677 19.6445L29.2455 18.8445C29.7788 18.6667 30.2233 18.1334 30.2233 17.5112V14.4889C30.2233 13.8667 29.7788 13.2445 29.1566 13.0667Z" fill="white"/>
<path d="M26.6676 9.77787C29.1222 9.77787 31.112 7.78802 31.112 5.33342C31.112 2.87882 29.1222 0.888977 26.6676 0.888977C24.213 0.888977 22.2231 2.87882 22.2231 5.33342C22.2231 7.78802 24.213 9.77787 26.6676 9.77787Z" fill="#FD8E0D"/>
</g>
<defs>
<clipPath id="clip0_1273_2300">
<rect width="32" height="32" fill="white" transform="translate(0.000976562 6.10352e-05)"/>
</clipPath>
</defs>
</svg>
