<svg width="45" height="45" viewBox="0 0 45 45" fill="none" xmlns="http://www.w3.org/2000/svg">
<path d="M14.908 24.7066C14.908 24.6082 14.915 24.5097 14.9291 24.4148C14.915 24.5097 14.9045 24.6011 14.8904 24.6961C14.9185 24.5238 14.9607 24.3551 15.0275 24.1933L14.922 24.4465C14.9713 24.334 15.0275 24.2215 15.0943 24.1195C15.1119 24.0949 15.1295 24.0703 15.147 24.0422C15.2279 23.9191 15.0697 24.1512 15.0662 24.1441C15.0592 24.1301 15.1963 24 15.2068 23.9894C15.249 23.9472 15.3017 23.9086 15.3439 23.8664C15.4213 23.7855 15.1435 24.0035 15.2385 23.9472C15.2631 23.9297 15.2877 23.9121 15.3158 23.8945C15.4248 23.8207 15.5408 23.7609 15.6638 23.7082C15.5795 23.7433 15.4951 23.7785 15.4107 23.8137C15.5724 23.7469 15.7412 23.7012 15.9135 23.6765C15.8185 23.6906 15.7271 23.7012 15.6322 23.7152C15.8291 23.6906 16.0224 23.6906 16.2193 23.7152C16.1244 23.7012 16.033 23.6906 15.9381 23.6765C16.1103 23.7047 16.2791 23.7469 16.4408 23.8137C16.3564 23.7785 16.272 23.7433 16.1877 23.7082C16.3002 23.7574 16.4127 23.8137 16.5146 23.8804C16.5392 23.898 16.5638 23.9156 16.592 23.9332C16.715 24.014 16.483 23.8558 16.49 23.8523C16.5041 23.8453 16.6342 23.9824 16.6447 23.993C16.6869 24.0351 16.7256 24.0879 16.7677 24.1301C16.8486 24.2074 16.6306 23.9297 16.6869 24.0246C16.7045 24.0492 16.722 24.0738 16.7396 24.1019C16.8134 24.2109 16.8732 24.3269 16.9259 24.45L16.8205 24.1969C16.8873 24.3586 16.933 24.5238 16.9576 24.6996C16.9435 24.6047 16.933 24.5133 16.9189 24.4183C16.9857 24.9422 16.94 25.4906 16.94 26.0144C16.94 26.5664 17.4252 27.0937 17.9947 27.0691C18.5677 27.0445 19.0494 26.605 19.0494 26.0144V24.7207V21.641V17.9144V14.7293C19.0494 14.2406 19.0458 13.7519 19.0494 13.2632C19.0494 13.1789 19.0564 13.0945 19.0669 13.0101C19.0529 13.105 19.0423 13.1964 19.0283 13.2914C19.0494 13.1507 19.088 13.0136 19.1408 12.8835L19.0353 13.1367C19.0775 13.0382 19.1267 12.9398 19.1865 12.8519C19.2462 12.7605 19.3271 12.7289 19.1302 12.9187C19.1689 12.8835 19.2005 12.8378 19.2392 12.7992C19.2497 12.7886 19.3482 12.6867 19.3587 12.6902C19.3552 12.6867 19.1056 12.8695 19.2919 12.7464C19.3833 12.6867 19.4783 12.6375 19.5767 12.5953L19.3236 12.7007C19.4572 12.648 19.5908 12.6093 19.7314 12.5882C19.6365 12.6023 19.5451 12.6128 19.4501 12.6269C19.6119 12.6058 19.7736 12.6058 19.9353 12.6269C19.8404 12.6128 19.749 12.6023 19.654 12.5882C19.7947 12.6093 19.9318 12.648 20.0619 12.7007L19.8087 12.5953C19.9072 12.6374 20.0056 12.6867 20.0935 12.7464C20.1849 12.8062 20.2166 12.8871 20.0267 12.6902C20.0619 12.7289 20.1076 12.7605 20.1462 12.7992C20.1568 12.8097 20.2587 12.9082 20.2552 12.9187C20.2587 12.9152 20.0759 12.6656 20.199 12.8519C20.2587 12.9433 20.308 13.0382 20.3501 13.1367L20.2447 12.8835C20.2974 13.0171 20.3361 13.1507 20.3572 13.2914C20.3431 13.1964 20.3326 13.105 20.3185 13.0101C20.3677 13.4003 20.3361 13.8152 20.3361 14.2089V16.6593V22.3441V23.6519C20.3361 24.2038 20.8212 24.7312 21.3908 24.7066C21.9638 24.682 22.4454 24.2425 22.4454 23.6519V22.8785C22.4454 22.6007 22.4279 22.3125 22.463 22.0383C22.4489 22.1332 22.4384 22.2246 22.4243 22.3195C22.4454 22.1789 22.4841 22.0418 22.5368 21.9117L22.4314 22.1648C22.4736 22.0664 22.5228 21.9679 22.5825 21.8801C22.6423 21.7886 22.7232 21.757 22.5263 21.9469C22.565 21.9117 22.5966 21.866 22.6353 21.8273C22.6458 21.8168 22.7443 21.7148 22.7548 21.7183C22.7513 21.7148 22.5017 21.8976 22.688 21.7746C22.7794 21.7148 22.8743 21.6656 22.9728 21.6234L22.7197 21.7289C22.8532 21.6761 22.9868 21.6375 23.1275 21.6164C23.0325 21.6304 22.9411 21.641 22.8462 21.6551C23.022 21.634 23.1978 21.634 23.37 21.6551C23.2751 21.641 23.1837 21.6304 23.0888 21.6164C23.2294 21.6375 23.3665 21.6761 23.4966 21.7289L23.2435 21.6234C23.3419 21.6656 23.4404 21.7148 23.5282 21.7746C23.6197 21.8344 23.6513 21.9152 23.4615 21.7183C23.4966 21.757 23.5423 21.7887 23.581 21.8273C23.5915 21.8379 23.6935 21.9363 23.69 21.9469C23.6935 21.9433 23.5107 21.6937 23.6337 21.8801C23.6935 21.9715 23.7427 22.0664 23.7849 22.1648C23.7497 22.0804 23.7146 21.9961 23.6794 21.9117C23.7322 22.0453 23.7708 22.1789 23.7919 22.3195C23.7779 22.2246 23.7673 22.1332 23.7533 22.0383C23.799 22.4004 23.7708 22.7801 23.7708 23.1457V24.1441C23.7708 24.6961 24.256 25.2234 24.8255 25.1988C25.3986 25.1742 25.8802 24.7347 25.8802 24.1441C25.8802 23.7082 25.8415 23.2582 25.8978 22.8258C25.8837 22.9207 25.8731 23.0121 25.8591 23.107C25.8802 22.9664 25.9188 22.8293 25.9716 22.6992C25.9364 22.7836 25.9013 22.8679 25.8661 22.9523C25.9083 22.8539 25.9575 22.7554 26.0173 22.6676C26.0771 22.5761 26.1579 22.5445 25.961 22.7344C25.9997 22.6992 26.0314 22.6535 26.07 22.6148C26.0806 22.6043 26.179 22.5023 26.1896 22.5058C26.186 22.5023 25.9364 22.6851 26.1228 22.5621C26.2142 22.5023 26.3091 22.4531 26.4075 22.4109L26.1544 22.5164C26.288 22.4636 26.4216 22.425 26.5622 22.4039C26.4673 22.4179 26.3759 22.4285 26.281 22.4426C26.4567 22.4215 26.6325 22.4215 26.8083 22.4426C26.7134 22.4285 26.622 22.4179 26.5271 22.4039C26.6677 22.425 26.8048 22.4636 26.9349 22.5164L26.6817 22.4109C26.7802 22.4531 26.8786 22.5023 26.9665 22.5621C27.0579 22.6219 27.0896 22.7027 26.8997 22.5058C26.9349 22.5445 26.9806 22.5762 27.0192 22.6148C27.0298 22.6254 27.1317 22.7238 27.1282 22.7344C27.1317 22.7308 26.9489 22.4812 27.072 22.6676C27.1317 22.759 27.181 22.8539 27.2232 22.9523C27.188 22.8679 27.1528 22.7836 27.1177 22.6992C27.1704 22.8328 27.2091 22.9664 27.2302 23.107C27.2161 23.0121 27.2056 22.9207 27.1915 22.8258C27.2442 23.2476 27.2091 23.6871 27.2091 24.1125V25.3289C27.2091 25.8809 27.6942 26.4082 28.2638 26.3836C28.8368 26.359 29.3184 25.9195 29.3184 25.3289C29.3184 24.8719 29.2762 24.3973 29.336 23.9438C29.322 24.0387 29.3114 24.1301 29.2973 24.225C29.3184 24.0844 29.3571 23.9473 29.4098 23.8172C29.3747 23.9016 29.3395 23.9859 29.3044 24.0703C29.3466 23.9719 29.3958 23.8734 29.4555 23.7855C29.5153 23.6941 29.5962 23.6625 29.3993 23.8523C29.438 23.8172 29.4696 23.7715 29.5083 23.7328C29.5188 23.7223 29.6173 23.6203 29.6278 23.6238C29.6243 23.6203 29.3747 23.8031 29.561 23.6801C29.6524 23.6203 29.7473 23.5711 29.8458 23.5289L29.5927 23.6344C29.7262 23.5816 29.8598 23.543 30.0005 23.5219C29.9055 23.5359 29.8141 23.5465 29.7192 23.5605C29.8809 23.5394 30.0427 23.5394 30.2044 23.5605C30.1095 23.5465 30.0181 23.5359 29.9231 23.5219C30.0638 23.543 30.2009 23.5816 30.3309 23.6344L30.0778 23.5289C30.1763 23.5711 30.2747 23.6203 30.3626 23.6801C30.454 23.7398 30.4856 23.8207 30.2958 23.6238C30.3309 23.6625 30.3766 23.6941 30.4153 23.7328C30.4259 23.7434 30.5278 23.8418 30.5243 23.8523C30.5278 23.8488 30.345 23.5992 30.4681 23.7855C30.5278 23.877 30.577 23.9719 30.6192 24.0703C30.5841 23.9859 30.5489 23.9016 30.5138 23.8172C30.5665 23.9508 30.6052 24.0844 30.6263 24.225C30.6122 24.1301 30.6017 24.0387 30.5876 23.9438C30.6192 24.2004 30.6052 24.4676 30.6052 24.7242V26.141V29.0168C30.6052 29.5125 30.5876 30.0047 30.5243 30.5004C30.5384 30.4055 30.5489 30.3141 30.563 30.2191C30.4575 30.9891 30.2501 31.7379 29.9548 32.4516L30.0602 32.1985C29.8845 32.6133 29.6806 33.0141 29.4485 33.3972C29.336 33.5801 29.2165 33.7594 29.0899 33.9351C29.0548 33.9844 29.0196 34.0336 28.981 34.0828C28.9669 34.1004 28.9528 34.118 28.9388 34.139C28.879 34.2269 29.0407 33.9949 29.0337 34.016C29.0056 34.1039 28.8755 34.2129 28.8157 34.2832C28.5274 34.6242 28.2181 34.9406 27.8841 35.2359C27.8032 35.3062 27.7224 35.3765 27.638 35.4433C27.5958 35.4785 27.5536 35.5101 27.5114 35.5453C27.4798 35.5699 27.406 35.6261 27.5466 35.5207C27.7048 35.3976 27.5712 35.4996 27.5431 35.5207C27.3708 35.6507 27.195 35.7738 27.0122 35.8898C26.5833 36.164 26.1298 36.4031 25.6587 36.6L25.9118 36.4945C25.1946 36.7933 24.4458 36.9972 23.6794 37.1027C23.7743 37.0886 23.8657 37.0781 23.9606 37.064C23.152 37.173 22.3329 37.173 21.5208 37.064C21.6157 37.0781 21.7071 37.0886 21.802 37.1027C21.0321 36.9972 20.2833 36.7898 19.5696 36.4945L19.8227 36.6C19.4079 36.4242 19.007 36.2203 18.6239 35.9883C18.4411 35.8758 18.2618 35.7562 18.086 35.6297C18.0368 35.5945 17.9876 35.5593 17.9384 35.5207C17.9208 35.5066 17.9032 35.4926 17.8821 35.4785C17.7942 35.4187 18.0262 35.5804 18.0051 35.5734C17.9173 35.5453 17.8083 35.4152 17.738 35.3554C17.3969 35.0672 17.0805 34.7578 16.7853 34.4238C16.7149 34.343 16.6446 34.2621 16.5778 34.1777C16.5427 34.1355 16.511 34.0934 16.4759 34.0512C16.4513 34.0195 16.395 33.9457 16.5005 34.0863C16.6235 34.2445 16.5216 34.1109 16.5005 34.0828C16.3704 33.9105 16.2474 33.7348 16.1313 33.5519C15.8571 33.123 15.6181 32.6695 15.4212 32.1984L15.5266 32.4515C15.2278 31.7344 15.0239 30.9855 14.9184 30.2191C14.9325 30.314 14.9431 30.4054 14.9571 30.5003C14.8552 29.7445 14.8763 28.9816 14.8763 28.2187V25.4203C14.9079 25.1777 14.9079 24.9422 14.9079 24.7066C14.9079 24.1546 14.4227 23.6273 13.8532 23.6519C13.2802 23.6765 12.7986 24.116 12.7986 24.7066V27.6667C12.7986 28.9113 12.7669 30.1382 13.02 31.3652C13.4138 33.2812 14.4298 35.0882 15.8361 36.4452C17.2423 37.8022 19.0634 38.7655 20.9935 39.0925C23.0994 39.4511 25.2193 39.1663 27.1459 38.2488C28.8931 37.4155 30.3837 36.0198 31.3681 34.3605C32.2892 32.8101 32.7568 31.0171 32.7568 29.2171V25.9687V24.4219V24.1582C32.7428 23.455 32.4721 22.7976 31.9975 22.2809C31.1151 21.3246 29.5155 21.1348 28.4538 21.9012C27.9018 22.2984 27.4623 22.8644 27.3182 23.5394C27.2409 23.9015 27.2409 24.2496 27.2409 24.6117V25.3219C27.2409 25.8738 27.726 26.4012 28.2955 26.3765C28.8686 26.3519 29.3502 25.9125 29.3502 25.3219V24.0351C29.3502 23.5008 29.3889 22.9488 29.2729 22.4214C29.0092 21.205 27.8772 20.3577 26.6643 20.305C25.4268 20.2523 24.3475 21.0504 23.9327 22.1929C23.7147 22.7941 23.792 23.5077 23.792 24.137C23.792 24.689 24.2772 25.2163 24.8467 25.1917C25.4198 25.1671 25.9014 24.7276 25.9014 24.137V22.8187C25.9014 22.1085 25.8803 21.4019 25.4619 20.7867C25.0998 20.2523 24.6146 19.8796 24.01 19.6581C23.5002 19.4718 22.8674 19.4718 22.3471 19.623C21.1694 19.964 20.3573 21.0573 20.3432 22.2773C20.3361 22.7343 20.3432 23.1913 20.3432 23.6483C20.3432 24.2003 20.8283 24.7276 21.3978 24.703C21.9709 24.6784 22.4525 24.2389 22.4525 23.6483V22.0769V18.6105V15.0526C22.4525 14.4585 22.4595 13.8608 22.4525 13.2667C22.442 12.2472 21.8654 11.2242 20.9197 10.7882C20.3045 10.5069 19.6435 10.4155 18.9826 10.5878C18.3427 10.753 17.8294 11.1538 17.4392 11.6706C16.9013 12.3843 16.9329 13.2175 16.9329 14.0507V16.8878V20.6144V24.0421V25.93V26.0178C16.9329 26.5698 17.4181 27.0971 17.9876 27.0725C18.5607 27.0479 19.0423 26.6084 19.0423 26.0178C19.0423 25.0405 19.1337 24.0421 18.6274 23.1561C17.7521 21.6233 15.597 21.0854 14.1485 22.1436C13.3118 22.7553 12.8055 23.6659 12.795 24.7136C12.788 25.2655 13.2837 25.7928 13.8497 25.7682C14.4297 25.7366 14.9009 25.2971 14.9079 24.7065L14.908 24.7066Z" fill="url(#paint0_linear_1430_1380)"/>
<path d="M15.9383 16.9261C15.7977 16.7855 15.6641 16.6378 15.534 16.4831C15.5235 16.4726 15.4286 16.3706 15.4321 16.3566C15.4286 16.3812 15.6008 16.5781 15.4813 16.4199C15.4215 16.339 15.3653 16.2581 15.309 16.1738C15.084 15.8398 14.8942 15.4812 14.736 15.112C14.7711 15.1964 14.8063 15.2808 14.8414 15.3651C14.6235 14.8448 14.4758 14.3034 14.3985 13.748C14.4125 13.8429 14.4231 13.9343 14.4371 14.0292C14.3598 13.4491 14.3598 12.8655 14.4371 12.2855C14.4231 12.3804 14.4125 12.4718 14.3985 12.5667C14.4758 12.0183 14.6235 11.4839 14.8344 10.9706C14.7992 11.055 14.7641 11.1394 14.7289 11.2238C14.8871 10.8546 15.077 10.496 15.2985 10.162C15.3582 10.0741 15.4215 9.98272 15.4848 9.89834C15.5305 9.83506 15.6535 9.70147 15.4321 9.96514C15.4602 9.92998 15.4883 9.89131 15.52 9.85616C15.65 9.69796 15.7907 9.54327 15.9383 9.39561C16.0789 9.25498 16.2266 9.12139 16.3813 8.99131C16.4094 8.97021 16.4727 8.89287 16.5078 8.88936C16.4621 8.89287 16.2758 9.06514 16.441 8.94209C16.5219 8.88233 16.6028 8.82608 16.6871 8.76983C17.0282 8.54131 17.3903 8.34795 17.7664 8.18623L17.5133 8.2917C18.0266 8.07725 18.561 7.93311 19.1094 7.85577C19.0145 7.86983 18.9231 7.88038 18.8281 7.89444C19.4117 7.8171 20.0024 7.8171 20.586 7.89444C20.491 7.88038 20.3996 7.86983 20.3047 7.85577C20.8531 7.93311 21.3875 8.08077 21.9008 8.2917L21.6477 8.18623C22.0168 8.34443 22.3754 8.53428 22.7094 8.75577C22.7973 8.81553 22.8887 8.87882 22.9731 8.94209C23.0364 8.98779 23.17 9.11084 22.9063 8.88936C22.9414 8.91748 22.9801 8.94561 23.0153 8.97725C23.1735 9.10732 23.3282 9.24795 23.4758 9.39561C23.6164 9.53623 23.75 9.68389 23.8801 9.83857C23.9012 9.8667 23.9786 9.92998 23.9821 9.96514C23.9786 9.91944 23.8063 9.73311 23.9293 9.89834C23.9891 9.9792 24.0454 10.0601 24.1016 10.1444C24.3301 10.4854 24.5235 10.8476 24.6852 11.2237C24.65 11.1394 24.6149 11.055 24.5797 10.9706C24.7942 11.4839 24.9383 12.0183 25.0157 12.5667C25.0016 12.4718 24.9911 12.3804 24.977 12.2854C25.0543 12.8655 25.0543 13.4491 24.977 14.0292C24.9911 13.9343 25.0016 13.8429 25.0157 13.7479C24.9383 14.3069 24.7907 14.8483 24.5727 15.3651C24.6079 15.2807 24.643 15.1964 24.6782 15.112C24.52 15.4811 24.3301 15.8397 24.1051 16.1737C24.0559 16.2511 24.0032 16.3249 23.9469 16.3987C23.9012 16.462 23.7711 16.5956 23.9786 16.3601C23.9434 16.4022 23.9118 16.4444 23.8766 16.4866C23.75 16.6413 23.6129 16.789 23.4723 16.9296C23.0821 17.3233 23.0504 18.0335 23.4723 18.4202C23.8907 18.807 24.5481 18.8386 24.963 18.4202C25.8524 17.5238 26.5133 16.4058 26.8614 15.1929C27.1989 14.0047 27.22 12.7355 26.9598 11.5297C26.5204 9.47302 25.1247 7.63432 23.2789 6.63237C21.37 5.59524 18.9934 5.41242 16.9719 6.24565C15.9665 6.66049 15.0489 7.25114 14.3001 8.04565C13.5513 8.8507 12.9888 9.79994 12.6372 10.8406C12.254 11.9761 12.1978 13.182 12.3736 14.3597C12.5634 15.6289 13.1224 16.7996 13.9099 17.8051C14.0786 18.0195 14.2579 18.2234 14.4477 18.4168C14.838 18.8105 15.5552 18.8351 15.9384 18.4168C16.3251 17.9949 16.3532 17.3445 15.9384 16.9261L15.9383 16.9261Z" fill="url(#paint1_linear_1430_1380)"/>
<defs>
<linearGradient id="paint0_linear_1430_1380" x1="23.0279" y1="41.6378" x2="23.0279" y2="21.6781" gradientUnits="userSpaceOnUse">
<stop offset="0.0756224" stop-color="#A32561"/>
<stop offset="0.479167" stop-color="#D9257C"/>
<stop offset="1" stop-color="#D9247B"/>
</linearGradient>
<linearGradient id="paint1_linear_1430_1380" x1="19.8952" y1="19.8057" x2="19.8952" y2="10.7773" gradientUnits="userSpaceOnUse">
<stop offset="0.0756224" stop-color="#A32561"/>
<stop offset="0.479167" stop-color="#D9257C"/>
<stop offset="1" stop-color="#D9247B"/>
</linearGradient>
</defs>
</svg>
