<svg width="22" height="22" viewBox="0 0 22 22" fill="none" xmlns="http://www.w3.org/2000/svg">
<path d="M15.2293 3.38471C15.2293 3.16029 15.3185 2.94507 15.4772 2.78638C15.6359 2.62769 15.8512 2.53855 16.0756 2.53855H21.1533C21.3778 2.53855 21.593 2.62769 21.7517 2.78638C21.9104 2.94507 21.9996 3.16029 21.9996 3.38471C21.9996 3.60912 21.9104 3.82435 21.7517 3.98303C21.593 4.14172 21.3778 4.23087 21.1533 4.23087H16.0756C15.8512 4.23087 15.6359 4.14172 15.4772 3.98303C15.3185 3.82435 15.2293 3.60912 15.2293 3.38471ZM21.3755 7.32994C22.0921 9.36705 22.1945 11.5698 21.6698 13.6646C21.145 15.7593 20.0164 17.6538 18.4241 19.1127L18.2865 19.2397C16.2753 21.0182 13.6829 22 10.9979 22C8.31287 22 5.72052 21.0182 3.70926 19.2397L3.57174 19.1127C1.93684 17.6158 0.792344 15.66 0.288236 13.5016C-0.215871 11.3432 -0.0560755 9.08283 0.746684 7.01677C1.54944 4.95072 2.95772 3.17532 4.78696 1.92325C6.6162 0.671174 8.78108 0.000830744 10.9979 6.14727e-05C11.579 -0.00192139 12.1593 0.0440685 12.7328 0.137563C12.9507 0.176686 13.1446 0.299643 13.2729 0.480062C13.4012 0.66048 13.4537 0.883989 13.4191 1.10265C13.3845 1.3213 13.2656 1.5177 13.0878 1.6497C12.9101 1.7817 12.6877 1.83879 12.4683 1.80873C11.9818 1.73281 11.4903 1.69392 10.9979 1.69238C9.20431 1.69297 7.44908 2.21161 5.9433 3.18592C4.43751 4.16023 3.24529 5.54873 2.51001 7.18444C1.77473 8.82014 1.5277 10.6334 1.79863 12.4061C2.06956 14.1789 2.84691 15.8356 4.0372 17.1771C4.9808 15.8089 6.31012 14.7522 7.85606 14.1415C7.0269 13.4886 6.42185 12.5935 6.12506 11.5807C5.82827 10.568 5.85449 9.48796 6.20008 8.49081C6.54566 7.49367 7.19344 6.62898 8.05331 6.017C8.91319 5.40502 9.94243 5.07616 10.9979 5.07616C12.0534 5.07616 13.0826 5.40502 13.9425 6.017C14.8024 6.62898 15.4501 7.49367 15.7957 8.49081C16.1413 9.48796 16.1675 10.568 15.8707 11.5807C15.5739 12.5935 14.9689 13.4886 14.1397 14.1415C15.6857 14.7522 17.015 15.8089 17.9586 17.1771C19.0627 15.9343 19.8138 14.4185 20.1337 12.7872C20.4537 11.156 20.3309 9.46884 19.7781 7.90109C19.7398 7.79633 19.7229 7.68495 19.7283 7.57353C19.7337 7.46211 19.7614 7.35291 19.8097 7.25236C19.858 7.15181 19.926 7.06195 20.0096 6.98808C20.0932 6.9142 20.1907 6.85782 20.2965 6.82224C20.5069 6.74734 20.7385 6.75868 20.9406 6.85378C21.1427 6.94889 21.2991 7.12005 21.3755 7.32994ZM10.9979 13.5386C11.6674 13.5386 12.3219 13.3401 12.8786 12.9682C13.4353 12.5963 13.8691 12.0677 14.1254 11.4492C14.3816 10.8308 14.4486 10.1502 14.318 9.49369C14.1874 8.83713 13.865 8.23404 13.3916 7.76069C12.9181 7.28734 12.315 6.96498 11.6583 6.83439C11.0017 6.70379 10.321 6.77082 9.70246 7.02699C9.08391 7.28317 8.55522 7.71699 8.18326 8.27359C7.81129 8.83019 7.61276 9.48458 7.61276 10.154C7.61555 11.0508 7.97309 11.9101 8.60732 12.5442C9.24156 13.1784 10.101 13.5359 10.9979 13.5386ZM10.9979 20.3079C13.0638 20.3109 15.0711 19.622 16.6997 18.3512C16.0873 17.3948 15.2441 16.6077 14.2477 16.0626C13.2513 15.5175 12.1337 15.2318 10.9979 15.2318C9.86208 15.2318 8.74452 15.5175 7.74811 16.0626C6.7517 16.6077 5.90846 17.3948 5.29605 18.3512C6.92464 19.622 8.93202 20.3109 10.9979 20.3079Z" fill="white"/>
</svg>
