<svg width="41" height="40" viewBox="0 0 41 40" fill="none" xmlns="http://www.w3.org/2000/svg">
<path d="M20.3422 23.6006C21.56 22.5969 22.4333 21.2507 22.8437 19.7443C23.2541 18.2379 23.1818 16.6443 22.6366 15.1796C22.0914 13.7148 21.0996 12.4498 19.7958 11.5559C18.492 10.6621 16.9391 10.1826 15.3478 10.1826C13.7565 10.1826 12.2037 10.6621 10.8998 11.5559C9.596 12.4498 8.60426 13.7148 8.05905 15.1796C7.51385 16.6443 7.44155 18.2379 7.85197 19.7443C8.26238 21.2507 9.13566 22.5969 10.3534 23.6006C8.37847 24.4762 6.67901 25.8542 5.43172 27.5913C5.21034 27.9001 5.12303 28.2824 5.18894 28.6542C5.25484 29.026 5.46858 29.3571 5.78326 29.5747C6.02723 29.7456 6.31983 29.837 6.61971 29.836C6.85296 29.8367 7.08289 29.7819 7.2898 29.6764C7.4967 29.5709 7.67442 29.4178 7.8077 29.2303C8.65762 28.0443 9.78651 27.0762 11.0989 26.4078C12.4113 25.7395 13.8687 25.3906 15.3478 25.3906C16.8269 25.3906 18.2843 25.7395 19.5967 26.4078C20.9091 27.0762 22.038 28.0443 22.8879 29.2303C22.9933 29.3934 23.1314 29.5339 23.2939 29.6432C23.4564 29.7525 23.6398 29.8283 23.8331 29.866C24.0263 29.9037 24.2254 29.9026 24.4182 29.8626C24.611 29.8227 24.7935 29.7447 24.9547 29.6336C25.1158 29.5224 25.2522 29.3804 25.3556 29.216C25.459 29.0516 25.5272 28.8684 25.5562 28.6774C25.5851 28.4864 25.5741 28.2916 25.5239 28.1049C25.4736 27.9182 25.3852 27.7435 25.2639 27.5913C24.0166 25.8542 22.3172 24.4762 20.3422 23.6006ZM10.4989 17.7928C10.4989 16.8532 10.7833 15.9347 11.3161 15.1534C11.8489 14.3721 12.6062 13.7632 13.4922 13.4036C14.3782 13.0441 15.3532 12.95 16.2938 13.1333C17.2344 13.3166 18.0984 13.7691 18.7765 14.4335C19.4547 15.0979 19.9165 15.9444 20.1036 16.866C20.2907 17.7875 20.1947 18.7427 19.8277 19.6108C19.4607 20.4789 18.8392 21.2209 18.0418 21.7429C17.2443 22.2649 16.3069 22.5436 15.3478 22.5436C14.0618 22.5436 12.8284 22.043 11.9191 21.1521C11.0097 20.2611 10.4989 19.0528 10.4989 17.7928ZM34.7921 29.5747C34.5481 29.7456 34.2555 29.837 33.9557 29.836C33.7228 29.8347 33.4936 29.7791 33.287 29.6737C33.0804 29.5684 32.9024 29.4164 32.7677 29.2303C31.9159 28.0463 30.7866 27.08 29.4745 26.4124C28.1624 25.7449 26.706 25.3956 25.2276 25.394C24.8418 25.394 24.4717 25.2439 24.1989 24.9766C23.9261 24.7093 23.7729 24.3468 23.7729 23.9688C23.7729 23.5908 23.9261 23.2283 24.1989 22.961C24.4717 22.6937 24.8418 22.5436 25.2276 22.5436C26.5136 22.5436 27.7469 22.043 28.6563 21.1521C29.5656 20.2611 30.0765 19.0528 30.0765 17.7928C30.0765 16.5328 29.5656 15.3244 28.6563 14.4335C27.7469 13.5425 26.5136 13.042 25.2276 13.042C24.7848 13.0412 24.3441 13.1012 23.9183 13.2202C23.7335 13.2742 23.5394 13.2916 23.3476 13.2715C23.1557 13.2514 22.9699 13.1941 22.8009 13.1029C22.6319 13.0117 22.4831 12.8885 22.3631 12.7404C22.2432 12.5924 22.1545 12.4224 22.1022 12.2404C22.05 12.0585 22.0352 11.8681 22.0587 11.6805C22.0823 11.4929 22.1437 11.3117 22.2393 11.1476C22.335 10.9834 22.4631 10.8396 22.6161 10.7244C22.769 10.6092 22.9439 10.5249 23.1304 10.4766C23.8125 10.2863 24.5184 10.1904 25.2276 10.1915C26.8199 10.187 28.3751 10.6634 29.6812 11.5559C30.9873 12.4484 31.981 13.7135 32.5269 15.1791C33.0728 16.6448 33.1444 18.2396 32.7319 19.7465C32.3195 21.2534 31.4431 22.5992 30.222 23.6006C32.1969 24.4762 33.8964 25.8542 35.1437 27.5913C35.2549 27.7436 35.334 27.9162 35.3766 28.0988C35.4191 28.2814 35.4242 28.4705 35.3914 28.6551C35.3587 28.8396 35.2889 29.016 35.186 29.1738C35.0831 29.3317 34.9492 29.468 34.7921 29.5747V29.5747Z" fill="#CAC9C9"/>
</svg>
