<svg width="45" height="45" viewBox="0 0 45 45" fill="none" xmlns="http://www.w3.org/2000/svg">
<path fill-rule="evenodd" clip-rule="evenodd" d="M27.3206 17.6543C27.3202 17.9125 27.209 18.1599 27.0117 18.3423C26.8144 18.5245 26.5469 18.6267 26.2682 18.6263L21.8739 18.6198C21.5918 18.6243 21.3196 18.5235 21.1184 18.34C20.9173 18.1568 20.8042 17.9061 20.8046 17.6448C20.805 17.3835 20.9188 17.1334 21.1205 16.9505C21.3222 16.7678 21.5947 16.6679 21.8768 16.6733L26.2726 16.6798C26.5511 16.6805 26.8178 16.7837 27.0143 16.9662C27.2106 17.149 27.321 17.3966 27.3206 17.6543L27.3206 17.6543ZM37.5279 31.1399L30.8175 27.5388L30.8299 19.2883L37.5509 15.7067L37.5279 31.1399ZM28.7113 30.2961L28.7319 16.5259C28.732 16.1162 28.5567 15.7231 28.2444 15.4331C27.932 15.1428 27.5081 14.9792 27.0658 14.9781L9.79936 14.9523C9.35681 14.9521 8.93241 15.1144 8.61934 15.4038C8.30601 15.6929 8.12948 16.0855 8.12838 16.4951L8.10782 30.2654C8.10769 30.675 8.28306 31.0682 8.59552 31.3582C8.90798 31.6485 9.33187 31.8118 9.77419 31.813L27.0406 31.8387C27.4829 31.8389 27.9073 31.6768 28.2204 31.3875C28.5337 31.0984 28.7102 30.7058 28.7113 30.2961L28.7113 30.2961ZM38.6766 13.9088L38.6769 13.9088C38.3802 13.7474 38.0425 13.662 37.6986 13.6615C37.3547 13.661 37.017 13.7453 36.7198 13.9058L30.8335 17.04L30.8342 16.5288C30.8349 15.6029 30.4385 14.7145 29.7325 14.0588C29.0265 13.4029 28.0685 13.0336 27.0688 13.0314L9.80237 13.0056C8.80264 13.005 7.84375 13.3718 7.13584 14.0253C6.42811 14.6788 6.02933 15.566 6.02701 16.4917L6.00645 30.262C6.00604 31.1877 6.40243 32.0759 7.10816 32.7315C7.81393 33.3872 8.77166 33.7568 9.77139 33.7591L27.0378 33.7849C28.0373 33.7857 28.9964 33.419 29.7043 32.7654C30.4123 32.1119 30.8113 31.2249 30.8137 30.2989L30.8144 29.786L36.6921 32.9402L36.6921 32.9404C37.2971 33.2648 38.0428 33.2657 38.6487 32.9427C39.2544 32.6199 39.6283 32.0222 39.6292 31.3747L39.653 15.4777C39.6554 15.1589 39.5664 14.8454 39.3948 14.5693C39.2233 14.2929 38.9755 14.064 38.6769 13.9058L38.6766 13.9088Z" fill="url(#paint0_linear_1430_1711)"/>
<defs>
<linearGradient id="paint0_linear_1430_1711" x1="23.2354" y1="35.5087" x2="23.2569" y2="21.0965" gradientUnits="userSpaceOnUse">
<stop offset="0.0756224" stop-color="#A32561"/>
<stop offset="0.479167" stop-color="#D9257C"/>
<stop offset="1" stop-color="#D9247B"/>
</linearGradient>
</defs>
</svg>
