<svg width="31" height="32" viewBox="0 0 31 32" fill="none" xmlns="http://www.w3.org/2000/svg">
<path d="M30.2871 4.88386C31.2245 3.97489 31.2245 2.47082 30.2871 1.56186C29.3896 0.691603 27.9632 0.691603 27.0658 1.56186L17.5884 10.752C16.4248 11.8804 14.5752 11.8804 13.4116 10.752L3.93424 1.56186C3.03679 0.691602 1.61036 0.691603 0.712906 1.56186C-0.22446 2.47082 -0.224461 3.9749 0.712905 4.88386L9.95543 13.8463C11.1708 15.0249 11.1708 16.9751 9.95543 18.1537L0.712904 27.1161C-0.224461 28.0251 -0.22446 29.5292 0.712906 30.4381C1.61036 31.3084 3.03679 31.3084 3.93424 30.4381L13.4116 21.248C14.5752 20.1196 16.4248 20.1196 17.5884 21.248L27.0658 30.4381C27.9632 31.3084 29.3896 31.3084 30.2871 30.4381C31.2245 29.5292 31.2245 28.0251 30.2871 27.1161L21.0446 18.1537C19.8292 16.9751 19.8292 15.0249 21.0446 13.8463L30.2871 4.88386Z" fill="white"/>
</svg>
