<svg width="36" height="36" viewBox="0 0 36 36" fill="none" xmlns="http://www.w3.org/2000/svg">
<path d="M29.1376 6.8625C28.7157 6.44069 28.1435 6.20374 27.5469 6.20374C26.9502 6.20374 26.3781 6.44069 25.9561 6.8625L18.0001 14.8185L10.0441 6.8625C9.61976 6.45265 9.05141 6.22586 8.46147 6.23099C7.87152 6.23611 7.30719 6.47274 6.89003 6.88991C6.47286 7.30708 6.23623 7.87141 6.2311 8.46135C6.22598 9.0513 6.45276 9.61965 6.86262 10.044L14.8186 18L6.86262 25.956C6.45276 26.3804 6.22598 26.9487 6.2311 27.5387C6.23623 28.1286 6.47286 28.6929 6.89003 29.1101C7.30719 29.5273 7.87152 29.7639 8.46147 29.769C9.05141 29.7741 9.61976 29.5474 10.0441 29.1375L18.0001 21.1815L25.9561 29.1375C26.3805 29.5474 26.9488 29.7741 27.5388 29.769C28.1287 29.7639 28.693 29.5273 29.1102 29.1101C29.5274 28.6929 29.764 28.1286 29.7691 27.5387C29.7743 26.9487 29.5475 26.3804 29.1376 25.956L21.1816 18L29.1376 10.044C29.5594 9.62207 29.7964 9.04987 29.7964 8.45325C29.7964 7.85664 29.5594 7.28444 29.1376 6.8625Z" fill="white"/>
</svg>
