<svg width="446" height="409" viewBox="0 0 446 409" fill="none" xmlns="http://www.w3.org/2000/svg">
<path opacity="0.4" fill-rule="evenodd" clip-rule="evenodd" d="M40.6293 238.249C42.2974 162.001 79.1274 134.483 115.762 110.874C172.082 74.5789 267.634 147.168 267.634 147.168C267.634 147.168 307.321 239.201 368.8 217.165C430.278 195.129 416.466 331.779 416.466 331.779C416.466 331.779 400.963 408.775 368.8 408.775C336.636 408.775 69.5906 408.775 69.5906 408.775C69.5906 408.775 45.9008 290.332 42.3432 253.775C38.7856 217.219 40.6293 238.249 40.6293 238.249Z" fill="#0091FF" fill-opacity="0.2"/>
<path opacity="0.4" fill-rule="evenodd" clip-rule="evenodd" d="M67.6293 237.249C69.2974 161.001 106.127 133.483 142.762 109.874C199.082 73.5789 294.634 146.168 294.634 146.168C294.634 146.168 334.321 238.201 395.8 216.165C457.278 194.129 443.466 330.779 443.466 330.779C443.466 330.779 427.963 407.775 395.8 407.775C363.636 407.775 96.5906 407.775 96.5906 407.775C96.5906 407.775 72.9008 289.332 69.3432 252.775C65.7856 216.219 67.6293 237.249 67.6293 237.249Z" fill="#0091FF" fill-opacity="0.2"/>
<path opacity="0.4" fill-rule="evenodd" clip-rule="evenodd" d="M378.371 237.249C376.703 161.001 339.873 133.483 303.238 109.874C246.918 73.5789 151.366 146.168 151.366 146.168C151.366 146.168 111.679 238.201 50.2003 216.165C-11.2782 194.129 2.53378 330.779 2.53378 330.779C2.53378 330.779 18.0371 407.775 50.2003 407.775C82.3635 407.775 349.409 407.775 349.409 407.775C349.409 407.775 373.099 289.332 376.657 252.775C380.214 216.219 378.371 237.249 378.371 237.249Z" fill="#0091FF" fill-opacity="0.2"/>
<path fill-rule="evenodd" clip-rule="evenodd" d="M243.436 116.672C243.436 116.672 248.385 107.88 254.567 111.648C264.629 117.779 261.418 131.574 261.418 131.574L259.106 125.443C259.106 125.443 262.188 135.15 257.308 141.792L257.821 135.406C257.821 135.406 253.968 144.602 247.033 145.624C240.097 146.646 239.069 146.646 238.299 150.734C237.528 154.821 243.168 157.538 241.381 157.248C235.088 156.226 235.73 148.307 235.73 148.307L234.702 154.055C234.702 154.055 226.739 138.727 227.253 131.574C227.767 124.421 231.106 119.567 231.106 119.567L226.996 121.1C226.996 121.1 239.326 101.6 243.436 116.672Z" fill="#383541"/>
<path fill-rule="evenodd" clip-rule="evenodd" d="M248.937 137.67C252.213 131.738 257.198 125.116 245.543 118.979C243.666 117.991 239.224 118.756 237.461 118.681C236.232 118.629 236.09 119.93 234.988 120.099C226.948 121.324 222.399 127.626 222.399 127.626C222.399 127.626 229.77 138.925 207.847 153.266C205.286 154.941 223.581 183.65 225.382 173.021C231.507 136.879 246.97 141.232 248.937 137.67Z" fill="#F3BD9F"/>
<path fill-rule="evenodd" clip-rule="evenodd" d="M221.58 139.283C222.434 147.832 217.765 166.644 216.653 170.958C216.8 171.14 216.947 171.321 217.093 171.496L226.444 166.448C230.703 148.211 237.569 142.903 242.511 140.626C240.631 139.737 238.703 138.797 236.778 137.819C225.167 131.913 222.048 127.522 222.048 127.522C222.048 127.522 224.974 132.162 221.58 139.283Z" fill="#DFA588"/>
<path fill-rule="evenodd" clip-rule="evenodd" d="M248.86 135.343C248.86 135.343 251.54 135.949 249.507 138.546C247.474 141.144 241.189 141.23 242.761 137.941C244.331 134.65 248.86 135.343 248.86 135.343Z" fill="#F3BD9F"/>
<path fill-rule="evenodd" clip-rule="evenodd" d="M243.804 121.311C243.804 121.311 250.931 119.363 250.219 126.229C250.219 126.229 249.083 121.033 243.804 121.311Z" fill="#383541"/>
<path fill-rule="evenodd" clip-rule="evenodd" d="M237.339 119.001C237.339 119.001 240.981 119.153 241.196 121.055C241.196 121.055 241.75 117.06 237.339 119.001Z" fill="#383541"/>
<path fill-rule="evenodd" clip-rule="evenodd" d="M235.597 121.054L234.753 120.236C234.753 120.236 235.128 119.235 237.403 120.145C239.678 121.054 241.218 120.494 241.218 120.494L237.069 123.643L235.597 121.054Z" fill="#F5C5AD"/>
<path fill-rule="evenodd" clip-rule="evenodd" d="M233.461 121.26L234.854 120.016C235.41 119.519 236.277 119.788 236.479 120.52L237.34 123.643C237.34 123.643 236.19 122.004 233.461 121.26Z" fill="#DFA588"/>
<path fill-rule="evenodd" clip-rule="evenodd" d="M248.964 136.576C248.964 136.576 249.3 139.163 246.39 139.163C246.39 139.163 247.79 138.394 247.509 137.695C247.23 136.996 246.447 137.065 246.447 137.065C246.447 137.065 247.901 136.925 248.013 137.345C248.125 137.764 248.069 138.324 248.069 138.324L248.964 136.576Z" fill="#DFA588"/>
<path fill-rule="evenodd" clip-rule="evenodd" d="M245.097 135.614C245.097 135.614 249.92 134.951 250.402 131.235C250.402 131.235 252.21 130.661 253.817 128.979C255.313 127.417 251.246 137.604 251.246 137.604C251.246 137.604 250.281 135.747 245.941 137.87L245.097 135.614Z" fill="#383541"/>
<path fill-rule="evenodd" clip-rule="evenodd" d="M253.019 15.1356C254.312 17.6612 257.977 17.137 260.444 15.325C262.93 13.4987 263.478 10.5728 263.081 8.12916C262.032 1.68884 254.503 -1.13668 247.487 2.16078C238.519 6.3755 236.305 14.9964 236.057 22.6539C235.935 26.4151 237.563 33.2946 231.827 35.035C228.204 36.1335 226.383 33.1513 225.599 30.7476C225.074 29.1332 225.146 26.7018 227.703 26.0374C230.168 25.3965 231.93 28.2282 228.847 28.1637C228.997 29.0543 229.148 29.944 229.299 30.8356C229.478 30.7435 229.657 30.6514 229.836 30.5602C231.837 29.5314 230.047 27.1543 228.052 28.179C227.873 28.2712 227.694 28.3633 227.515 28.4544C226.244 29.1076 226.51 31.0957 227.967 31.1264C230.371 31.1776 233.556 30.5428 234.288 28.0582C234.977 25.718 232.676 23.5067 230.3 23.0337C227.485 22.4727 224.37 23.9049 222.822 26.1838C220.908 29.0001 222.071 32.2269 223.608 34.6409C225.206 37.15 227.632 38.7542 231.275 38.1574C234.65 37.6046 237.452 35.5295 238.671 32.7162C240.123 29.3655 239.415 25.6832 239.52 22.312C239.664 17.7379 240.236 12.5937 243.77 8.60725C247.028 4.93101 253.385 1.7175 257.594 5.10607C259.012 6.24753 259.748 8.06159 259.747 9.80809C259.746 10.6117 259.653 11.5556 259.142 12.3081C258.903 12.6612 256.548 14.3955 256.353 14.0156C255.503 12.3551 252.157 13.4536 253.019 15.1356Z" fill="#FFC86D"/>
<path fill-rule="evenodd" clip-rule="evenodd" d="M282.505 50.1802L268.858 9.79379C268.51 8.76487 267.217 8.26637 265.97 8.68144C264.723 9.09548 263.995 10.2665 264.342 11.2955L264.411 11.5014C260.129 12.9259 256.405 15.5996 254.094 19.0541C252.569 21.3302 251.175 24.1822 250.649 27.4543C249.932 31.9171 246.36 35.9236 241.341 37.5931L241.018 37.7003C237.735 38.792 234.224 38.7632 231.256 37.6199L227.894 36.3242C226.442 35.765 224.723 35.7516 223.117 36.2851L229.911 56.3887C231.517 55.8531 232.879 54.8149 233.698 53.5007L235.594 50.4572C237.268 47.7701 240.051 45.6484 243.335 44.5566L243.657 44.4495C248.677 42.78 253.961 43.8419 257.245 46.9739C259.654 49.2707 262.499 50.7126 265.098 51.618C269.041 52.9909 273.637 52.8982 277.92 51.4748L277.99 51.6818C278.338 52.7097 279.63 53.2082 280.877 52.7931C282.124 52.3781 282.853 51.2091 282.505 50.1802Z" fill="#FFC86D"/>
<path fill-rule="evenodd" clip-rule="evenodd" d="M250.439 36.2991C252.138 34.5911 255.032 30.6842 256.668 28.8218C258.883 26.3019 262.134 24.1783 265.815 22.7517C266.261 22.5779 276.961 52.6611 277.42 52.5087L267.174 22.2629L267.122 22.1085C266.862 21.3414 267.652 20.3883 268.884 19.9788C270.117 19.5693 271.327 19.8599 271.587 20.6271L268.351 11.0708C268.007 10.0557 266.728 9.56393 265.494 9.97342C264.261 10.3819 263.542 11.5372 263.885 12.5522L263.953 12.7555C259.719 14.1607 256.036 16.7984 253.75 20.2064C252.242 22.4519 250.864 25.2655 250.344 28.4936C249.634 32.8963 246.102 36.8488 241.139 38.4959L240.819 38.6016C237.573 39.6786 234.1 39.6502 231.166 38.5223L227.841 37.2441C226.405 36.6923 224.706 36.6791 223.117 37.2055L225.528 44.3211C227.115 43.7948 230.079 43.5001 232.968 43.0683C232.968 43.0683 247.629 39.1259 250.439 36.2991Z" fill="#D68D3D"/>
<path fill-rule="evenodd" clip-rule="evenodd" d="M266.597 56.4294C266.101 53.6212 269.385 51.8197 272.486 51.7775C275.612 51.7353 277.84 53.7487 279.01 55.9472C282.091 61.7446 277.727 68.5714 270.041 70.1796C260.217 72.2362 253.165 66.6681 248.291 60.6814C245.898 57.7405 243.015 51.2407 237.315 53.3209C233.715 54.6351 234.061 58.1302 234.895 60.5313C235.454 62.1436 236.997 64.049 239.471 63.031C241.855 62.0511 241.552 58.7143 239.098 60.6341C238.677 59.83 238.255 59.0238 237.832 58.2197C238.034 58.1847 238.235 58.1498 238.436 58.1148C240.682 57.7261 240.684 60.7164 238.445 61.104C238.245 61.138 238.045 61.1739 237.844 61.2079C236.416 61.4557 235.418 59.7004 236.579 58.7935C238.492 57.2953 241.456 55.8731 243.563 57.4217C245.548 58.8798 245.037 62.047 243.404 63.866C241.471 66.0213 238.077 66.7596 235.435 65.8722C232.168 64.775 231.138 61.4835 230.909 58.6166C230.67 55.6377 231.653 52.8819 234.962 51.1523C238.03 49.5502 241.562 49.5153 244.266 51.032C247.485 52.8377 249.159 56.2186 251.301 58.8562C254.209 62.4356 257.811 66.2125 263.101 67.2665C267.98 68.2382 275.082 66.9611 276.418 61.6953C276.869 59.9205 276.356 58.0212 275.288 56.6217C274.798 55.978 274.147 55.2778 273.274 54.9837C272.865 54.8459 269.903 54.8829 269.977 55.3055C270.304 57.1513 266.926 58.2989 266.597 56.4294Z" fill="#FFC86D"/>
<path fill-rule="evenodd" clip-rule="evenodd" d="M261.364 40.0022L261.429 39.8697L261.367 40.0043L261.364 40.0022ZM260.649 45.9171L260.839 45.7488C262.049 46.2831 263.688 45.8403 264.164 45.4859L264.166 45.4869L264.192 45.4638L264.246 45.4144C264.334 45.3166 264.394 45.204 264.426 45.0852C265.821 45.1472 267.21 43.8494 267.364 43.5339L267.413 43.4077C267.452 43.2804 267.455 43.1584 267.436 43.0417C268.802 42.5863 269.662 40.649 269.702 40.3714L269.707 40.323C269.721 40.2083 269.716 40.0327 269.574 39.7992C270.686 38.9084 270.968 36.5936 270.954 36.1119L270.955 36.1129L270.953 36.094L270.948 36.0467C270.92 35.8952 270.848 35.7543 270.746 35.6439C270.517 35.3841 270.153 35.2348 269.907 35.158C269.357 34.9865 268.825 35.0454 268.375 35.3189C268.034 34.568 267.382 34.08 266.494 33.9275C266.32 33.8854 266.131 33.8991 265.957 33.9801C265.697 34.0989 265.53 34.3387 265.495 34.6037L265.471 34.6942C265.377 35.0623 265.185 35.8185 265.182 36.5778C264.992 36.6567 264.841 36.8029 264.758 36.9848L264.751 36.9806C264.583 37.2204 264.209 37.7536 263.989 38.3973C263.661 38.4194 263.373 38.636 263.27 38.9526C263.332 38.7633 263.449 38.6287 263.515 38.5834C263.285 38.7275 262.782 39.0399 262.379 39.5237C262.209 39.4679 262.029 39.4711 261.865 39.5258L261.891 39.5132C261.618 39.5531 261.024 39.6425 260.474 39.936C260.338 39.8097 260.167 39.7382 259.993 39.7225V39.7172C259.698 39.6446 259.034 39.4827 258.371 39.5521L258.332 39.4711C258.254 39.3228 258.135 39.2082 257.995 39.1356L257.94 39.0988C257.336 38.6939 256.544 38.2195 255.762 38.1407C255.025 38.0734 254.351 38.4541 253.915 39.1829C253.819 39.3417 253.75 39.4858 253.703 39.6173C253.064 40.2567 252.881 41.1107 253.185 42.0078C253.22 42.1099 253.259 42.2119 253.307 42.3149C253.816 43.4455 255.591 44.838 256.551 44.9653L256.55 44.9832L256.782 44.9695L256.891 44.9432L257.024 44.8833C257.963 45.7983 259.704 46.1769 260.438 46.0002L260.44 46.0086L260.568 45.9592L260.649 45.9171ZM266.626 30.1518C267.145 30.1024 267.607 29.8321 267.942 29.3693C268.096 29.1569 268.3 28.8129 268.32 28.4627C268.332 28.3197 268.303 28.1724 268.239 28.0389L268.216 28.001L268.203 27.981L268.201 27.9821C267.918 27.5835 266.279 25.8881 264.853 25.8565C264.823 25.5999 264.73 25.4579 264.654 25.3749L264.613 25.3307C264.42 25.1382 262.523 24.1012 261.174 24.5461C261.118 24.443 261.042 24.3473 260.935 24.2706L260.818 24.198C260.502 24.0381 258.597 23.8309 257.528 24.7123C257.431 24.6376 257.314 24.584 257.185 24.5587L257.112 24.5503L257.077 24.5482L257.076 24.5503C256.481 24.5514 254.898 25.1782 254.262 26.3235L254.009 26.3035L253.919 26.3193L253.786 26.3561L253.789 26.3635C253.095 26.6622 251.935 28.0042 251.744 29.2925L251.603 29.323L251.499 29.3682L251.306 29.4955L251.318 29.5081C250.63 30.1833 250.06 32.3541 250.343 33.5562C250.367 33.6666 250.398 33.7739 250.432 33.8759C250.737 34.7741 251.398 35.3452 252.301 35.4756C252.418 35.5534 252.562 35.626 252.736 35.6965C253.529 36.0183 254.297 35.9184 254.846 35.422C255.419 34.8982 255.763 34.0453 255.998 33.3606L256.02 33.2996C256.086 33.1576 256.112 32.9946 256.084 32.8295L256.065 32.7432C256.624 32.4098 257.055 31.8924 257.283 31.6137C257.399 31.499 257.48 31.3497 257.509 31.1814C258.112 31.0899 258.638 30.8123 258.923 30.6598C259.065 30.6009 259.191 30.5041 259.281 30.3726C259.881 30.5136 260.468 30.4705 260.789 30.4421C260.95 30.4452 261.112 30.4021 261.251 30.3116C261.808 30.684 262.429 30.8911 262.771 31.0026C262.938 31.0773 263.129 31.0973 263.312 31.051C263.775 31.6557 264.39 32.1437 264.688 32.3814L264.762 32.4403C264.951 32.6296 265.231 32.7222 265.511 32.6622C265.699 32.6223 265.857 32.5203 265.971 32.3835C266.586 31.7399 266.812 30.9585 266.626 30.1518Z" fill="#D68D3D"/>
<path fill-rule="evenodd" clip-rule="evenodd" d="M258.331 27.9353C258.349 27.9374 257.682 26.8372 258.268 26.0118C258.877 25.133 260.625 25.3645 260.612 25.4098C259.647 26.0684 258.882 26.9494 258.331 27.9353Z" fill="#F0AA36"/>
<path fill-rule="evenodd" clip-rule="evenodd" d="M260.152 27.1996C259.447 27.7677 258.035 27.8995 258.026 27.9353C258.627 26.9255 259.462 26.0232 260.513 25.3486C260.534 25.3581 260.876 26.5988 260.152 27.1996Z" fill="#F5BB52"/>
<path fill-rule="evenodd" clip-rule="evenodd" d="M258.027 27.9355C258.013 27.952 258.209 29.5762 258.916 30.1628C259.595 30.7234 260.591 30.452 260.612 30.4849C259.898 29.4309 259.021 28.5386 258.027 27.9355Z" fill="#F5BB52"/>
<path fill-rule="evenodd" clip-rule="evenodd" d="M260.053 28.323C259.297 27.5213 257.999 28.2066 258.027 28.2421C259.017 28.7815 259.892 29.5795 260.603 30.5222C260.585 30.5283 260.771 29.0806 260.053 28.323Z" fill="#F0AA36"/>
<path fill-rule="evenodd" clip-rule="evenodd" d="M260.719 27.9359C260.744 27.9428 260.233 27.0826 261.251 26.7502C262.309 26.3878 264.519 27.0548 264.491 27.0812C263.013 27.182 261.74 27.4943 260.719 27.9359Z" fill="#F0AA36"/>
<path fill-rule="evenodd" clip-rule="evenodd" d="M262.498 27.8899C261.795 28.0622 260.625 27.6931 260.612 27.7176C261.311 27.1622 262.182 26.7694 263.194 26.6426C263.21 26.6583 263.224 27.6984 262.498 27.8899Z" fill="#F5BB52"/>
<path fill-rule="evenodd" clip-rule="evenodd" d="M260.635 27.9355C260.614 27.9393 260.481 29.0192 261.204 29.6534C261.892 30.2565 263.178 30.4911 263.198 30.5222C262.562 29.5808 261.695 28.6875 260.635 27.9355Z" fill="#F5BB52"/>
<path fill-rule="evenodd" clip-rule="evenodd" d="M262.889 28.793C262.213 27.934 260.588 27.9086 260.613 27.9452C261.597 28.6944 262.402 29.5844 262.993 30.5222C262.972 30.5203 263.53 29.6041 262.889 28.793Z" fill="#F0AA36"/>
<path fill-rule="evenodd" clip-rule="evenodd" d="M263.198 28.9826C263.219 28.9975 263.114 27.9913 264.194 27.9389C265.318 27.8599 267.11 29.2031 267.077 29.2289C265.638 28.8677 264.326 28.8184 263.198 28.9826Z" fill="#F0AA36"/>
<path fill-rule="evenodd" clip-rule="evenodd" d="M265.7 30.4929C264.673 30.2676 263.223 29.3182 263.198 29.3395C264.326 29.1365 265.638 29.1974 267.076 29.644C267.095 29.6701 266.762 30.7065 265.7 30.4929Z" fill="#F5BB52"/>
<path fill-rule="evenodd" clip-rule="evenodd" d="M263.347 29.2285C263.333 29.224 263.016 30.317 263.353 31.2932C263.674 32.2166 264.482 33.0591 264.491 33.1085C264.263 31.7987 263.879 30.4664 263.347 29.2285Z" fill="#F5BB52"/>
<path fill-rule="evenodd" clip-rule="evenodd" d="M265.649 31.1992C265.125 29.9363 263.179 29.1753 263.198 29.2314C264.107 30.4684 264.761 31.7997 265.15 33.1085C265.126 33.0962 266.142 32.3913 265.649 31.1992Z" fill="#F0AA36"/>
<path fill-rule="evenodd" clip-rule="evenodd" d="M252.854 34.4025C252.865 34.3856 251.893 34.4379 251.621 33.2941C251.325 32.0847 252.232 30.474 252.254 30.5236C252.246 31.8641 252.462 33.1842 252.854 34.4025Z" fill="#F0AA36"/>
<path fill-rule="evenodd" clip-rule="evenodd" d="M252.847 31.922C252.927 32.8827 252.315 34.3608 252.344 34.4025C251.833 33.184 251.551 31.8635 251.562 30.5227C251.58 30.5103 252.745 30.9118 252.847 31.922Z" fill="#F5BB52"/>
<path fill-rule="evenodd" clip-rule="evenodd" d="M252.854 35.2992C252.857 35.3378 253.813 36.1062 254.457 35.3931C255.073 34.7017 255.414 33.111 255.44 33.1084C254.537 33.4348 253.636 34.1351 252.854 35.2992Z" fill="#F5BB52"/>
<path fill-rule="evenodd" clip-rule="evenodd" d="M253.872 33.196C253.027 33.5995 252.819 35.6929 252.859 35.6951C253.639 34.7229 254.539 34.1381 255.44 33.8656C255.435 33.8924 254.669 32.7969 253.872 33.196Z" fill="#F0AA36"/>
<path fill-rule="evenodd" clip-rule="evenodd" d="M253.725 31.8156C253.739 31.803 252.821 31.4049 252.855 30.2407C252.883 29.0126 254.139 27.886 254.147 27.9372C253.798 29.2116 253.666 30.5363 253.725 31.8156Z" fill="#F0AA36"/>
<path fill-rule="evenodd" clip-rule="evenodd" d="M254.11 29.6958C253.876 30.6411 252.858 31.773 252.871 31.8156C252.798 30.5358 252.963 29.2105 253.402 27.9356C253.422 27.9288 254.342 28.7031 254.11 29.6958Z" fill="#F5BB52"/>
<path fill-rule="evenodd" clip-rule="evenodd" d="M254.147 32.287C254.142 32.3128 254.816 33.2841 255.489 33.0808C256.133 32.8818 256.71 31.8696 256.733 31.8772C255.908 31.7298 255.017 31.8385 254.147 32.287Z" fill="#F5BB52"/>
<path fill-rule="evenodd" clip-rule="evenodd" d="M255.545 30.5225C254.74 30.5191 254.115 31.8066 254.149 31.8158C255.018 31.4685 255.908 31.3844 256.733 31.4985C256.723 31.5143 256.308 30.5191 255.545 30.5225Z" fill="#F0AA36"/>
<path fill-rule="evenodd" clip-rule="evenodd" d="M254.91 29.2286C254.932 29.2218 253.822 28.3141 254.243 27.1173C254.673 25.8528 256.738 25.2963 256.733 25.3525C255.844 26.5344 255.24 27.8666 254.91 29.2286Z" fill="#F0AA36"/>
<path fill-rule="evenodd" clip-rule="evenodd" d="M256.607 27.5126C256.282 28.4292 255.44 29.1839 255.44 29.2286C255.632 27.8652 255.982 26.5317 256.498 25.3486C256.512 25.3498 256.94 26.5501 256.607 27.5126Z" fill="#F5BB52"/>
<path fill-rule="evenodd" clip-rule="evenodd" d="M255.441 29.2285C255.431 29.2467 255.873 30.3618 256.564 30.5025C257.229 30.636 258.005 30.035 258.026 30.0502C257.257 29.5645 256.374 29.2619 255.441 29.2285Z" fill="#F5BB52"/>
<path fill-rule="evenodd" clip-rule="evenodd" d="M257.147 29.2833C256.367 29.0073 255.411 29.863 255.441 29.8796C256.374 29.9057 257.257 30.1422 258.026 30.5218C258.013 30.5313 257.887 29.5427 257.147 29.2833Z" fill="#F0AA36"/>
<path fill-rule="evenodd" clip-rule="evenodd" d="M261.905 43.4561C261.922 43.4455 262.023 44.4911 263.138 44.7127C264.31 44.9565 265.826 43.9067 265.783 43.8846C264.418 43.9642 263.095 43.7992 261.905 43.4561Z" fill="#F0AA36"/>
<path fill-rule="evenodd" clip-rule="evenodd" d="M264.253 42.1626C263.262 42.1393 261.935 42.9003 261.905 42.8759C263.096 43.3195 264.418 43.5329 265.784 43.4299C265.796 43.4098 265.283 42.203 264.253 42.1626Z" fill="#F5BB52"/>
<path fill-rule="evenodd" clip-rule="evenodd" d="M262.24 42.1619C262.222 42.1627 261.693 41.2678 262.002 40.6134C262.299 39.9875 263.196 39.602 263.198 39.5752C263.082 40.46 262.767 41.3516 262.24 42.1619Z" fill="#F5BB52"/>
<path fill-rule="evenodd" clip-rule="evenodd" d="M264.464 41.0601C264.286 41.8905 263.195 42.1943 263.198 42.1592C263.626 41.3497 263.881 40.4591 263.976 39.5752C263.963 39.5811 264.634 40.2733 264.464 41.0601Z" fill="#F0AA36"/>
<path fill-rule="evenodd" clip-rule="evenodd" d="M264.491 42.0144C264.502 41.9883 265.002 43.6026 266.156 43.445C267.373 43.3082 268.419 40.8913 268.368 40.8691C267.094 41.6691 265.761 42.0183 264.491 42.0144Z" fill="#F0AA36"/>
<path fill-rule="evenodd" clip-rule="evenodd" d="M266.526 39.6366C265.571 39.921 264.526 40.879 264.491 40.8684C265.762 40.8709 267.096 40.6531 268.37 40.1542C268.376 40.1339 267.524 39.3546 266.526 39.6366Z" fill="#F5BB52"/>
<path fill-rule="evenodd" clip-rule="evenodd" d="M265.467 42.1622C265.444 42.171 264.434 41.2377 264.549 40.2338C264.66 39.2762 265.604 38.3241 265.596 38.2822C265.812 39.5255 265.784 40.8549 265.467 42.1622Z" fill="#F5BB52"/>
<path fill-rule="evenodd" clip-rule="evenodd" d="M265.782 39.9683C265.841 41.1878 264.497 42.2112 264.491 42.1604C264.77 40.8537 264.795 39.525 264.605 38.2822C264.589 38.2988 265.728 38.8137 265.782 39.9683Z" fill="#F0AA36"/>
<path fill-rule="evenodd" clip-rule="evenodd" d="M267.077 39.0114C267.08 38.9894 267.761 39.9059 268.571 39.4472C269.432 38.9911 269.701 36.996 269.658 36.9893C268.903 37.9725 268.003 38.6279 267.077 39.0114Z" fill="#F0AA36"/>
<path fill-rule="evenodd" clip-rule="evenodd" d="M268.162 37.3374C267.564 38.0605 267.106 39.5807 267.077 39.5759C268.005 39.1405 268.906 38.3962 269.663 37.2798C269.66 37.2501 268.791 36.6056 268.162 37.3374Z" fill="#F5BB52"/>
<path fill-rule="evenodd" clip-rule="evenodd" d="M267.077 39.575C267.061 39.5908 266.003 39.0461 265.82 38.0273C265.65 37.0621 266.132 35.7395 266.111 35.6953C266.633 36.8697 266.975 38.1945 267.077 39.575Z" fill="#F5BB52"/>
<path fill-rule="evenodd" clip-rule="evenodd" d="M266.999 36.8705C267.314 38.0783 266.568 39.6256 266.551 39.5741C266.47 38.1939 266.198 36.8695 265.784 35.6953C265.776 35.7174 266.703 35.7332 266.999 36.8705Z" fill="#F0AA36"/>
<path fill-rule="evenodd" clip-rule="evenodd" d="M254.622 40.8691C254.643 40.8781 253.785 41.4556 254.328 42.6614C254.893 43.9391 256.749 44.8053 256.733 44.7463C255.822 43.5445 255.113 42.2178 254.622 40.8691Z" fill="#F0AA36"/>
<path fill-rule="evenodd" clip-rule="evenodd" d="M256.386 42.8546C255.718 41.9509 254.159 40.9221 254.147 40.8691C254.696 42.2188 255.489 43.5465 256.509 44.7492C256.532 44.7512 257.074 43.8144 256.386 42.8546Z" fill="#F5BB52"/>
<path fill-rule="evenodd" clip-rule="evenodd" d="M254.148 40.6754C254.134 40.6483 254.447 39.4939 255.158 39.5798C255.843 39.669 256.714 40.5658 256.733 40.55C256.009 40.9013 255.133 40.9894 254.148 40.6754Z" fill="#F5BB52"/>
<path fill-rule="evenodd" clip-rule="evenodd" d="M256.031 42.1479C255.281 42.315 254.124 40.9942 254.148 40.9713C255.133 41.2266 256.009 41.155 256.733 40.8693C256.717 40.8528 256.748 42.0027 256.031 42.1479Z" fill="#F0AA36"/>
<path fill-rule="evenodd" clip-rule="evenodd" d="M256.899 42.1621C256.916 42.163 256.418 43.0041 257.072 43.832C257.757 44.7121 259.34 44.7819 259.319 44.7395C258.361 44.0185 257.543 43.1305 256.899 42.1621Z" fill="#F0AA36"/>
<path fill-rule="evenodd" clip-rule="evenodd" d="M258.751 43.1216C258.059 42.5416 256.749 42.1994 256.733 42.1621C257.414 43.134 258.279 44.0252 259.292 44.7488C259.31 44.7435 259.468 43.7379 258.751 43.1216Z" fill="#F5BB52"/>
<path fill-rule="evenodd" clip-rule="evenodd" d="M256.736 42.1625C256.718 42.1502 256.762 41.1941 257.49 40.9544C258.191 40.7263 259.302 41.0299 259.319 41.0135C258.656 41.5502 257.786 41.9655 256.736 42.1625Z" fill="#F5BB52"/>
<path fill-rule="evenodd" clip-rule="evenodd" d="M258.908 43.2108C258.2 43.9382 256.711 42.8185 256.734 42.7762C257.753 42.4493 258.597 41.7601 259.241 40.8692C259.22 40.8583 259.581 42.5283 258.908 43.2108Z" fill="#F0AA36"/>
<path fill-rule="evenodd" clip-rule="evenodd" d="M259.341 43.4561C259.364 43.4475 259.064 44.9013 260.143 45.6695C261.271 46.4906 263.237 45.7076 263.198 45.6621C261.762 45.1931 260.454 44.42 259.341 43.4561Z" fill="#F0AA36"/>
<path fill-rule="evenodd" clip-rule="evenodd" d="M261.984 43.6127C260.965 43.3572 259.346 43.4967 259.319 43.4739C260.438 44.0312 261.753 44.4782 263.197 44.7494C263.216 44.7409 263.041 43.8875 261.984 43.6127Z" fill="#F5BB52"/>
<path fill-rule="evenodd" clip-rule="evenodd" d="M259.435 43.4558C259.41 43.4482 259.042 42.1717 259.766 41.5475C260.461 40.9493 261.89 40.8984 261.905 40.8691C261.365 41.8444 260.541 42.7471 259.435 43.4558Z" fill="#F5BB52"/>
<path fill-rule="evenodd" clip-rule="evenodd" d="M261.703 42.8193C261.119 43.67 259.303 43.4358 259.319 43.3977C260.3 42.7049 261.03 41.8225 261.51 40.8691C261.484 40.8681 262.261 42.0153 261.703 42.8193Z" fill="#F0AA36"/>
<path fill-rule="evenodd" clip-rule="evenodd" d="M227.042 68.0294L214.067 28.8218L220.486 26.6426L233.461 65.8502L227.042 68.0294Z" fill="#6F4E3B"/>
<path fill-rule="evenodd" clip-rule="evenodd" d="M215.624 22.7617L232.168 72.215L217.682 77.0819L201.138 27.6286L215.624 22.7617Z" fill="#6F4E3B"/>
<path fill-rule="evenodd" clip-rule="evenodd" d="M215.69 31.8154L226.996 65.3338L218.908 68.0289L207.602 34.5106L215.69 31.8154Z" fill="#FFC86D"/>
<path fill-rule="evenodd" clip-rule="evenodd" d="M270.956 195.044C267.274 194.256 264.75 192.243 263.049 190.101L256.335 199.506L250.131 173.433C248.284 166.077 240.204 160.25 232.403 156.202C214.928 161.382 215.505 145.571 215.833 142.47C212.443 122.13 227.419 104.831 240.511 88.559L225.828 83.5488C170.088 134.187 164.936 218.34 164.936 218.34L232.542 228.322C222.038 215.802 233.93 208.94 227.911 208.243C226.636 208.095 229.738 205.624 229.965 204.48C230.182 203.396 228.884 202.504 229.195 201.538C231.675 193.839 236.687 189.9 236.687 189.9C237.076 222.429 257.715 229.696 257.715 229.696L270.956 195.044Z" fill="#1A9CFF"/>
<path fill-rule="evenodd" clip-rule="evenodd" d="M207.849 207.709L207.602 206.714C209.765 206.169 209.898 201.544 209.766 199.809L209.752 199.613L212.497 196.02L212.612 195.967C212.673 195.939 218.711 193.15 220.191 192.157C220.527 191.766 219.586 189.123 218.899 187.195C217.721 183.887 216.254 179.773 216.394 176.396C216.619 170.971 220.375 167.871 221.611 166.995L220.033 163.552L220.554 163.361C220.581 163.352 223.295 162.351 224.489 161.389C224.661 161.252 224.684 161.133 224.683 161.036C224.68 160.495 223.867 159.682 223.474 159.373L224.101 158.562C224.264 158.691 225.695 159.845 225.703 161.028C225.706 161.483 225.507 161.885 225.127 162.192C224.13 162.994 222.311 163.772 221.42 164.127L222.913 167.382L222.521 167.619C222.472 167.649 217.654 170.643 217.414 176.439C217.282 179.615 218.71 183.626 219.858 186.848C221.071 190.253 221.804 192.308 220.756 193.012C219.309 193.983 214.027 196.442 213.152 196.847L210.796 199.93C210.858 201.11 211.002 206.916 207.849 207.709Z" fill="#0091FF"/>
<path fill-rule="evenodd" clip-rule="evenodd" d="M263.254 194.517L250.001 219.867C236.238 200.983 237.003 183.136 237.003 183.136C230.886 213.399 256.117 228.403 256.117 228.403L267.077 197.879L263.254 194.517Z" fill="#0091FF"/>
<path fill-rule="evenodd" clip-rule="evenodd" d="M170.107 215.306C170.47 219.385 174.816 213.605 174.816 213.605C174.816 213.605 175.539 196.947 175.177 194.907C174.816 192.868 170.107 215.306 170.107 215.306Z" fill="#0091FF"/>
<path fill-rule="evenodd" clip-rule="evenodd" d="M226.744 207.537C226.334 203.838 156.369 170.176 228.289 102.687C228.289 102.687 211.685 108.046 211.983 104.064C212.498 97.1777 215.879 92.6025 215.879 92.6025C204.216 105.447 181.631 142.28 188.038 173.017C195.162 207.193 215.93 207.71 215.93 207.71C215.93 207.71 199.967 202.372 197.564 183.434C197.564 183.434 204.431 199.962 226.744 207.537Z" fill="#0091FF"/>
<path fill-rule="evenodd" clip-rule="evenodd" d="M220.375 160.129C221.421 160.476 216.895 156.593 216.306 154.6C215.791 152.858 216.142 151.392 216.59 150.387C215.519 147.773 215.369 144.895 215.426 143.043C212.926 145.739 205.016 154.865 205.016 162.443C205.016 162.443 209.611 149.714 214.336 148.685C214.336 148.685 212.236 157.428 220.375 160.129Z" fill="#0091FF"/>
<path fill-rule="evenodd" clip-rule="evenodd" d="M234.354 183.51C226.756 194.15 215.36 186.55 215.36 186.55L227.769 201.243C227.769 201.243 231.062 191.363 236.127 186.803L239.926 176.67C239.926 176.67 235.946 181.281 234.354 183.51Z" fill="#0091FF"/>
<path fill-rule="evenodd" clip-rule="evenodd" d="M247.819 200.653L255.441 197.363L245.097 199.641L247.275 209.003L247.819 200.653Z" fill="#0091FF"/>
<path fill-rule="evenodd" clip-rule="evenodd" d="M221.825 156.235L223.29 155.367L226.385 153.144L228.289 152.915L233.637 158.304C233.637 158.304 225.661 158.478 223.485 157.55C221.31 156.622 221.852 156.235 221.852 156.235H221.825Z" fill="#008BF4"/>
<path fill-rule="evenodd" clip-rule="evenodd" d="M221.824 156.249L227.636 153.259L229.774 161.149L237.339 158.906L236.955 153.175L227.808 152.096L221.824 156.249Z" fill="#008BF4"/>
<path fill-rule="evenodd" clip-rule="evenodd" d="M220.021 155.976L223.117 150.113L216.422 141.749L215.417 142.266C215.417 142.266 214.496 153.217 220.021 155.976Z" fill="#008BF4"/>
<path fill-rule="evenodd" clip-rule="evenodd" d="M225.682 83.629L240.44 88.7197L240.437 88.7229C246.513 81.0868 252.245 75.0141 255.681 71.54L262.018 70.557L264.443 67.7251L266.218 67.769C266.218 67.769 267.282 66.9272 267.041 66.2004C266.262 63.8475 264.669 64.6935 264.053 63.4553C262.9 61.1348 261.63 58.5382 261.195 57.4851C260.52 55.8558 260.563 53.552 258.25 53.8249C244.999 55.3936 250.455 64.2825 247.194 67.3382C238.235 72.8389 230.252 79.1688 223.117 86.0437C223.96 85.2311 224.815 84.4259 225.682 83.629Z" fill="#F3BD9F"/>
<path fill-rule="evenodd" clip-rule="evenodd" d="M274.23 168.909H260.284L256.733 173.504C256.733 173.504 256.987 176.312 259.269 176.823C260.294 177.053 260.856 176.355 261.167 175.518C261.619 178.64 265.074 182.574 266.236 183.819L261.965 189.872C263.634 191.996 266.11 193.994 269.721 194.776L273.47 184.852C276.005 178.841 274.23 168.909 274.23 168.909Z" fill="#F3BD9F"/>
<path fill-rule="evenodd" clip-rule="evenodd" d="M231.483 212.379L229.495 217.668C229.495 217.668 287.178 248.122 285.124 272.547C261.823 288.336 222.393 299.331 222.393 299.331L228.393 317.793C228.393 317.793 225.86 321.405 220.883 316.067C215.904 310.729 207.127 290.852 207.127 290.852L255.523 263.001C255.523 263.001 229.98 240.007 201.866 246.159C201.866 246.159 171.735 291.721 183.855 351.812C183.855 351.812 185.044 381.125 176.695 379.671C168.347 378.218 173.266 352.016 173.266 352.016C173.266 352.016 146.678 293.934 164.786 214.238C164.786 214.238 184.302 195.032 231.483 212.379Z" fill="#383541"/>
<path fill-rule="evenodd" clip-rule="evenodd" d="M228.234 77.1188C228.234 77.1188 236.192 67.7224 243.804 84.5008L237.23 93.8962C237.23 93.8962 229.964 82.1522 219.238 85.5075L228.234 77.1188Z" fill="#008BF4"/>
<path fill-rule="evenodd" clip-rule="evenodd" d="M260.39 188.31C260.39 188.31 266.007 194.854 272.248 194.146L266.943 209.003C266.943 209.003 257.893 209.18 254.147 195.738L260.39 188.31Z" fill="#008BF4"/>
</svg>
