<svg width="49" height="47" viewBox="0 0 49 47" fill="none" xmlns="http://www.w3.org/2000/svg">
<path d="M21.6468 2.78115C22.5449 0.0172186 26.4551 0.0172215 27.3532 2.78115L30.8986 13.693C31.3003 14.9291 32.4521 15.766 33.7518 15.766H45.2252C48.1314 15.766 49.3397 19.4848 46.9886 21.193L37.7064 27.9369C36.6549 28.7009 36.215 30.055 36.6166 31.291L40.1621 42.2029C41.0601 44.9668 37.8967 47.2652 35.5455 45.557L26.2634 38.8131C25.2119 38.0491 23.7881 38.0491 22.7366 38.8131L13.4545 45.557C11.1033 47.2652 7.93988 44.9668 8.83793 42.2029L12.3834 31.291C12.785 30.055 12.3451 28.7009 11.2936 27.9369L2.01141 21.193C-0.339731 19.4848 0.868599 15.766 3.77477 15.766H15.2482C16.5479 15.766 17.6997 14.9291 18.1014 13.693L21.6468 2.78115Z" fill="#0091FF"/>
</svg>
