<svg width="33" height="33" viewBox="0 0 33 33" fill="none" xmlns="http://www.w3.org/2000/svg">
<path d="M30.6405 21.219L33 18.8595L30.6405 16.5L24.75 22.3905L10.6095 8.25L16.5 2.3595L14.1405 0L11.781 2.3595L9.4215 0L5.8905 3.531L3.531 1.1715L1.1715 3.531L3.531 5.8905L0 9.4215L2.3595 11.781L0 14.1405L2.3595 16.5L8.25 10.6095L22.3905 24.75L16.5 30.6405L18.8595 33L21.219 30.6405L23.5785 33L27.1095 29.469L29.469 31.8285L31.8285 29.469L29.469 27.1095L33 23.5785L30.6405 21.219Z" fill="black" fill-opacity="0.54"/>
</svg>
