<svg width="30" height="39" viewBox="0 0 30 39" fill="none" xmlns="http://www.w3.org/2000/svg">
<path fill-rule="evenodd" clip-rule="evenodd" d="M26.3529 21.2457L20.3357 18.2371C22.7314 16.38 24.2729 13.4829 24.2729 10.2143C24.2729 4.58714 19.6857 0 14.0586 0C8.43143 0 3.84429 4.58714 3.84429 10.2143C3.84429 14.17 6.11 17.6057 9.41571 19.2957V25.35L5.99857 24.6257L5.81286 24.5886C5.62714 24.5514 5.44143 24.5329 5.21857 24.5329C4.23429 24.5329 3.30571 24.9229 2.6 25.6286L0 28.2657L9.45286 37.7186C10.2514 38.5357 11.3657 39 12.5171 39H24.2171C26.0371 39 27.5786 37.7 27.8757 35.8986L29.3614 27.1514C29.77 24.7371 28.5629 22.36 26.3529 21.2457ZM25.7034 26.5386L24.2177 35.2857H12.5177C12.3506 35.2857 12.202 35.2114 12.072 35.1L5.23772 28.2657L13.1306 29.9186V10.2143C13.1306 9.69429 13.5392 9.28571 14.0592 9.28571C14.5792 9.28571 14.9877 9.69429 14.9877 10.2143V21.3571H18.2563L24.682 24.57C25.4249 24.9414 25.8334 25.74 25.7034 26.5386ZM14.0592 3.71429C10.4749 3.71429 7.55915 6.63 7.55915 10.2143C7.55915 11.9786 8.26487 13.5757 9.41629 14.7457V10.2143C9.41629 7.65143 11.4963 5.57143 14.0592 5.57143C16.622 5.57143 18.702 7.65143 18.702 10.2143V14.7457C19.8534 13.5757 20.5592 11.9786 20.5592 10.2143C20.5592 6.63 17.6434 3.71429 14.0592 3.71429Z" fill="black" fill-opacity="0.54"/>
</svg>
