<?xml version="1.0" encoding="UTF-8" standalone="no" ?>
<!DOCTYPE svg PUBLIC "-//W3C//DTD SVG 1.1//EN" "http://www.w3.org/Graphics/SVG/1.1/DTD/svg11.dtd">
<svg xmlns="http://www.w3.org/2000/svg" xmlns:xlink="http://www.w3.org/1999/xlink" version="1.1" width="45" height="45" viewBox="0 0 45 45" xml:space="preserve">
<defs>
</defs>
<rect x="0" y="0" width="100%" height="100%" fill="transparent"></rect>
<g transform="matrix(0 0 0 0 0 0)" id="fb044ab0-8144-4ce4-adc0-d3811bd7d724"  >
</g>
<g transform="matrix(1 0 0 1 22.5 22.5)" id="18815502-bcd9-4d0f-b9b5-3d73d110aa22"  >
<rect style="stroke: none; stroke-width: 1; stroke-dasharray: none; stroke-linecap: butt; stroke-dashoffset: 0; stroke-linejoin: miter; stroke-miterlimit: 4; fill: url(#paint0_linear_1430_1711); fill-rule: nonzero; opacity: 1; visibility: hidden;" vector-effect="non-scaling-stroke"  x="-22.5" y="-22.5" rx="0" ry="0" width="45" height="45" />
</g>
<g transform="matrix(0 0 0 0 0 0)"  >
<g style=""   >
</g>
</g>
<g transform="matrix(1.7 0 0 1.7 22.47 22.45)"  >
<path style="stroke: rgb(0,0,0); stroke-width: 0; stroke-dasharray: none; stroke-linecap: butt; stroke-dashoffset: 0; stroke-linejoin: miter; stroke-miterlimit: 4; fill: url(#paint0_linear_1430_1711); fill-rule: nonzero; opacity: 1;" vector-effect="non-scaling-stroke"  transform=" translate(-27.85, -20.33)" d="M 29.898 26.5722 L 25.5059 26.5722 C 25.4941 25.937199999999997 25.4882 25.555 25.4882 25.413899999999998 C 25.4882 23.991 25.723399999999998 22.820999999999998 26.1938 21.903699999999997 C 26.6642 20.980599999999995 27.6108 19.951699999999995 29.0219 18.799299999999995 C 30.433 17.652799999999996 31.2797 16.900199999999995 31.5501 16.541499999999996 C 31.979300000000002 15.982999999999995 32.191 15.359699999999997 32.191 14.683599999999995 C 32.191 13.742799999999995 31.814700000000002 12.937299999999995 31.0621 12.261199999999995 C 30.3095 11.590899999999996 29.2982 11.255799999999995 28.0224 11.255799999999995 C 26.7935 11.255799999999995 25.7646 11.608499999999996 24.9356 12.308199999999996 C 24.1124 13.007899999999996 23.5421 14.077999999999996 23.2305 15.512599999999996 L 18.7914 14.959899999999996 C 18.9148 12.902099999999995 19.7909 11.155799999999996 21.4137 9.721199999999996 C 23.042299999999997 8.286599999999996 25.1707 7.569199999999996 27.816599999999998 7.569199999999996 C 30.5918 7.569199999999996 32.802499999999995 8.298299999999996 34.4488 9.750599999999995 C 36.0892 11.202799999999995 36.9123 12.890299999999995 36.9123 14.824699999999995 C 36.9123 15.888899999999994 36.6066 16.900199999999995 36.0069 17.852699999999995 C 35.4013 18.805199999999996 34.113600000000005 20.104599999999994 32.1381 21.744999999999994 C 31.115000000000002 22.597499999999993 30.48 23.279599999999995 30.2331 23.796999999999993 C 29.9862 24.314399999999992 29.8744 25.237499999999994 29.898 26.572199999999995 z M 25.5059 33.0809 L 25.5059 28.242 L 30.3448 28.242 L 30.3448 33.0809 L 25.5059 33.0809 z" stroke-linecap="round" />
</g>
<linearGradient id="paint0_linear_1430_1711" x1="23.2354" y1="35.5087" x2="23.2569" y2="21.0965" gradientUnits="userSpaceOnUse">
<stop offset="0.0756224" stop-color="#A32561"/>
<stop offset="0.479167" stop-color="#D9257C"/>
<stop offset="1" stop-color="#D9247B"/>
</linearGradient>
</svg>